<?xml version="1.0" encoding="utf-8"?>
<!-- Generator: Adobe Illustrator 22.0.1, SVG Export Plug-In . SVG Version: 6.00 Build 0)  -->
<svg version="1.1" xmlns="http://www.w3.org/2000/svg" xmlns:xlink="http://www.w3.org/1999/xlink" x="0px" y="0px"
	 viewBox="0 0 600 600" style="enable-background:new 0 0 600 600;" xml:space="preserve">
<style type="text/css">
	.st0{fill:none;stroke:#F8D632;stroke-width:1.1607;stroke-miterlimit:10;}
	.st1{fill:none;stroke:#F8D632;stroke-width:0.6846;stroke-miterlimit:10;}
	.st2{fill:#333333;}
	.st3{fill:#E6E6E6;}
	.st4{fill:#CCCCCC;}
	.st5{fill:#EAE46F;}
	.st6{fill:#BAA126;}
	.st7{fill:#F8D632;}
	.st8{fill:#551F0C;}
	.st9{fill:#F3AB2A;}
	.st10{fill:#AA3D18;}
	.st11{clip-path:url(#SVGID_2_);fill:url(#SVGID_3_);stroke:#FFFFFF;stroke-width:4.6195;stroke-miterlimit:10;}
	.st12{fill:#FFFFFF;}
	.st13{fill:#C1C1BF;}
	.st14{fill:none;stroke:#29A880;stroke-width:2.8009;stroke-miterlimit:10;}
	.st15{fill:#903D54;}
	.st16{fill:none;stroke:#70476C;stroke-width:1.7031;stroke-miterlimit:10;}
	.st17{fill:none;stroke:#EAE46F;stroke-width:1.7031;stroke-miterlimit:10;}
	.st18{fill:#29A880;}
	.st19{fill:none;stroke:#00AAAD;stroke-width:2.8009;stroke-miterlimit:10;}
	.st20{fill:#70476C;}
	.st21{opacity:0.5;fill:url(#SVGID_4_);}
</style>
<g id="Layer_1">
	<g>
		<line class="st0" x1="299.5" y1="24" x2="299.5" y2="436"/>
		<line class="st0" x1="574" y1="298.5" x2="25" y2="298.5"/>
		<line class="st0" x1="493.6" y1="104.4" x2="105.4" y2="492.6"/>
		<line class="st0" x1="493.6" y1="492.6" x2="105.4" y2="104.4"/>
		<line class="st1" x1="354.9" y1="146.4" x2="244.1" y2="450.6"/>
		<line class="st1" x1="451.6" y1="353.9" x2="147.4" y2="243.1"/>
		<line class="st1" x1="446.3" y1="230.1" x2="152.7" y2="366.9"/>
		<line class="st1" x1="367.9" y1="445.3" x2="231.1" y2="151.7"/>
	</g>
	<g id="XMLID_91_">
		<g>
			<path class="st2" d="M88.8,191.1l21.8,21.4c17.3-7.5,31.1-15.9,41.9-23.7c-11.8-11.8-23.2-23.3-23.2-23.3
				C117.3,176.9,103,187.7,88.8,191.1z"/>
			<path class="st3" d="M95.3,247.2l31-5.8l-7.5,24.4c11.9-10.1,65.4-19.7,65.4-19.7s-5.7-8-10.7-14.8l-24.1,0.8
				c-5.5,2.6-10.5,4.2-14.5,4.4l-3.9-3.8l-28.6,1C98.5,240.7,95.3,247.2,95.3,247.2z"/>
			<path class="st4" d="M115.9,217.7c-3.6,0.8-9,8.7-13.3,16l28.6-1L115.9,217.7z"/>
			<path class="st3" d="M149.5,232.1c5.4-2.5,11.2-5.9,17.2-9.7c3.9-2.5,7.9-5.1,11.8-7.8c-2.4-2.2-14.5-14.2-26.1-25.8
				c-10.8,7.8-24.6,16.2-41.9,23.7l5.3,5.2l15.3,15l3.9,3.8C139,236.3,143.9,234.7,149.5,232.1z"/>
			<path class="st5" d="M213,190.2c20.6,24.5,29.4,39.8,29.4,39.8l6-5.1c0,0-20-44.6-96.7-107.7c-3.4-2.8-6,5.1-6,5.1
				c4.5,3.9,8.8,7.8,12.9,11.5c9.5,8.7,18,17,25.7,24.8C195.7,170.2,205.2,180.9,213,190.2z"/>
			<path class="st3" d="M129.3,165.6c0,0,11.3,11.4,23.2,23.3c22.5-16.2,31.8-30.3,31.8-30.3c-7.7-7.9-16.2-16.2-25.7-24.8
				C157.8,133.2,145.8,149.9,129.3,165.6z"/>
			<path class="st4" d="M149.5,232.1l24.1-0.8c-3.3-4.6-6.3-8.6-6.9-8.9C160.7,226.2,154.8,229.6,149.5,232.1z"/>
			<path class="st2" d="M184.2,158.6c0,0-9.3,14-31.8,30.3c11.6,11.6,23.6,23.6,26.1,25.8c16.4-11.4,31.2-23.1,34.5-24.4
				C205.2,180.9,195.7,170.2,184.2,158.6z"/>
		</g>
		<g>
		</g>
	</g>
	<g id="XMLID_1_">
		<g>
			<path class="st2" d="M510.5,191.1l-21.8,21.4c-17.3-7.5-31.1-15.9-41.9-23.7c11.8-11.8,23.2-23.3,23.2-23.3
				C482,176.9,496.3,187.7,510.5,191.1z"/>
			<path class="st3" d="M504,247.2l-31-5.8l7.5,24.4c-11.9-10.1-65.4-19.7-65.4-19.7s5.7-8,10.7-14.8l24.1,0.8
				c5.5,2.6,10.5,4.2,14.5,4.4l3.9-3.8l28.6,1C500.8,240.7,504,247.2,504,247.2z"/>
			<path class="st4" d="M483.4,217.7c3.6,0.8,9,8.7,13.3,16l-28.6-1L483.4,217.7z"/>
			<path class="st3" d="M468.1,232.7l-3.9,3.8c-4-0.2-8.9-1.8-14.5-4.4c-5.4-2.5-11.2-5.9-17.2-9.7c-3.9-2.5-7.9-5.1-11.8-7.8
				c2.4-2.2,14.5-14.2,26.1-25.8c10.8,7.8,24.6,16.2,41.9,23.7l-5.3,5.2L468.1,232.7z"/>
			<path class="st5" d="M386.3,190.2c-20.6,24.5-29.4,39.8-29.4,39.8l-6-5.1c0,0,20-44.6,96.7-107.7c3.4-2.8,6,5.1,6,5.1
				c-4.5,3.9-8.8,7.8-12.9,11.5c-9.5,8.7-18,17-25.7,24.8C403.6,170.2,394.1,180.9,386.3,190.2z"/>
			<path class="st3" d="M470,165.6c0,0-11.3,11.4-23.2,23.3c-22.5-16.2-31.8-30.3-31.8-30.3c7.7-7.9,16.2-16.2,25.7-24.8
				C441.5,133.2,453.4,149.9,470,165.6z"/>
			<path class="st4" d="M449.8,232.1l-24.1-0.8c3.3-4.6,6.3-8.6,6.9-8.9C438.6,226.2,444.4,229.6,449.8,232.1z"/>
			<path class="st2" d="M415,158.6c0,0,9.3,14,31.8,30.3c-11.6,11.6-23.6,23.6-26.1,25.8c-16.4-11.4-31.2-23.1-34.5-24.4
				C394.1,180.9,403.6,170.2,415,158.6z"/>
		</g>
		<g>
		</g>
	</g>
	<g>
		<g>
			<g id="XMLID_79_">
				<g>
					<path class="st6" d="M381.7,335.6c3.6-10.1,4.4-21,3.4-31.6h0c6.4,0.7,11.7-0.8,16.2-3.4c0.9,2.2,4.5,12.6,1.7,22.9
						C396.7,328.3,389.5,332.4,381.7,335.6z"/>
					<path class="st7" d="M300.2,196.1c12.8,0.5,38,1.3,44.4-0.3c5.5-1.4,10.1-0.1,12.2,2.6c1.2,1.6,1.6,3.7,0.8,6
						c-2,5.9-25.4,8.2-57.4,7h-0.7c-21.4,0.9-39.1,0.1-48.9-2.3c-2.1-0.5-3.9-1.1-5.3-1.8c-1.7-0.9-2.8-1.8-3.2-2.9
						c-0.8-2.4-0.4-4.4,0.8-6c2.1-2.8,6.7-4,12.2-2.6c6.4,1.6,31.6,0.8,44.4,0.3H300.2z"/>
					<path class="st6" d="M313.4,378.6c-14.2,5-25.8,0.7-27.4,0.1v0c-0.3-0.7-1.2-1.1-2.7-1.1c-12.1,0-9.4-6.6-9-7.5
						c0.4,0.1,0.8,0.2,1.3,0.2c0.3,0.1,0.5,0.1,0.8,0.2c5.8,1.2,23.6,3.9,49-0.5c0,0,2.4,4.4-2.3,6.5c-1.4,0.6-3.6,1.1-6.6,1.1
						c-1.5,0-2.4,0.5-2.6,1.3L313.4,378.6z"/>
					<path class="st7" d="M426.8,200.1c0,8.7,0,62.7,10.8,67.1c8.6,3.4-5.4,35.2-34.6,56.4c2.8-10.3-0.9-20.7-1.7-22.9
						c11.7-6.8,16.8-21,16.8-21c-8.7-8.7-6.5-67.1-10.8-62.7c-4.3,4.3-21.6,2.2-30.3,2.2c-6.4,0-8.1,7.1-8.5,10.8h0
						c-12.1,0-14.8-16.4-14.8-16.4l-3.4,0.1c0.2,5.1,2,28.4,13.7,40.1c9.5,9.5,19,29.3,21.1,50.3c1.1,10.6,0.2,21.5-3.4,31.6
						c-3.4,9.4-9.2,18.1-18.2,25.1l-1.2-6.7c-104.5,19.1-142.5-59.8-145.8-67.4c3.7-16.6,11.5-31.2,19.2-39
						c10.8-10.8,14.1-31.5,14.9-38.6c9.8,2.4,27.5,3.2,48.9,2.3h0.7c31.9,1.3,55.4-1.1,57.4-7c0.8-2.4,0.4-4.4-0.8-6l0.2-0.2
						c0,0,0.5-8.9,17.8-2.4c17.3,6.5,32.5,4.3,36.8,0C416,191.5,426.8,191.5,426.8,200.1z"/>
					<path class="st6" d="M214.6,298c-1.3,13.2,0.3,26.9,6.6,38.9c-5.9-2.2-11.4-4.9-16.5-7.9c-12.1-11.4-6.5-34.3-6.5-34.3l0,0
						C202.6,297.2,208.1,298.8,214.6,298L214.6,298z"/>
					<path class="st7" d="M192.4,210.9c-4.3-4.3-2.2,54.1-10.8,62.7c0,0,5.1,14,16.6,20.9l0,0c0,0-5.5,22.9,6.5,34.3
						c-34.6-20.7-51.9-58-42.6-61.7c10.8-4.3,10.8-58.4,10.8-67.1s10.8-8.7,15.1-4.3s19.5,6.5,36.8,0c17.3-6.5,17.8,2.4,17.8,2.4
						l0.2,0.2c-1.2,1.6-1.6,3.7-0.8,6c0.4,1.1,1.4,2,3.2,2.9c-5,10.4-12.7,15.7-14.3,15.6c-0.6-3.9-2.5-9.9-8.4-9.9
						C214,213.1,196.7,215.3,192.4,210.9z"/>
					<path class="st8" d="M301.8,432.2c13.7,0,29.5-4.5,46.4-17.9c-1.1-0.7-2.9-2.1-5.3-4.1c-0.6-0.5-1.3-1.1-2-1.6
						c3.2,0.1,5.5,0.2,5.5,0.2l38.6,22.8c0,0-0.2,0.9-0.5,2.4c-30.2,0.8-57.7,1.2-82.6,1.3L301.8,432.2z"/>
					<path class="st9" d="M255.1,412.1c1-0.6,2.5-1.8,4.5-3.5c0,0,0,0,0,0c2.3-1.9,5.2-4.4,8.2-7.1c2.8,1.2,36.9,21.2,75.1,8.6
						c2.4,1.9,4.2,3.4,5.3,4.1c-16.9,13.4-32.7,17.9-46.4,17.9c-28.3,0-47.4-19.4-47.4-19.4C254.6,412.6,254.8,412.3,255.1,412.1z"
						/>
					<path class="st8" d="M254.4,412.8c0,0,19,19.4,47.4,19.4l0,3.2c-34.6,0.2-64,0-88.2-0.5c-0.4-2.1-0.7-3.3-0.7-3.3l38.6-22.8
						c0,0,3.6,0,8.1-0.1c-1.9,1.6-3.5,2.8-4.5,3.5C254.8,412.3,254.6,412.6,254.4,412.8z"/>
					<path class="st7" d="M267.8,401.6c9.3-8.5,19.8-19.4,18.2-22.9c1.6,0.6,13.2,4.9,27.4-0.1l0.5,0.2c-1.4,4.6,16.2,20.8,27,29.8
						c0.7,0.6,1.4,1.1,2,1.6C304.7,422.8,270.6,402.8,267.8,401.6z"/>
					<path class="st6" d="M231.3,226.1c0,0,0-1.3-0.3-3.1c1.5,0.1,9.2-5.2,14.3-15.6c1.4,0.6,3.1,1.2,5.3,1.8
						c-0.8,7.1-4.1,27.8-14.9,38.6c0,0-17.3,2.2-19.5-8.7C214.5,230.6,218.3,228.2,231.3,226.1z"/>
					<path class="st6" d="M364.1,253.7c-11.7-11.7-13.5-35-13.7-40.1l3.4-0.1c0,0,2.7,16.4,14.8,16.4h0c-0.2,1.3-0.2,2.2-0.2,2.2
						c13,2.2,16.8,4.5,15.1,13C381.4,255.9,364.1,253.7,364.1,253.7z"/>
					<path class="st10" d="M383.5,483h-84.3h-0.7h-84.2c4.6-17.1,0.9-39.7-0.7-48.1c24.2,0.4,53.6,0.7,88.2,0.5
						c24.9-0.1,52.4-0.5,82.6-1.3C382.9,441.6,378.8,465.2,383.5,483z"/>
					<path class="st9" d="M323.1,376.4c4.6-2.1,2.3-6.5,2.3-6.5c-25.4,4.4-43.3,1.6-49,0.5c-0.3,0-0.5-0.1-0.8-0.2
						c-0.8-0.2-1.2-0.3-1.2-0.3s0,0,0,0.1c-28.5-4.8-44.9-17.5-53.1-33.2c-6.3-12-7.9-25.7-6.6-38.9c0.4-3.8,1-7.6,1.8-11.3
						c3.4,7.6,41.3,86.6,145.8,67.4l1.2,6.7C353.9,368.2,340.8,373.8,323.1,376.4z"/>
				</g>
				<g>
				</g>
			</g>
			<path class="st6" d="M253.6,214.3c0,0,36.7,13.5,92.5-1.4"/>
			<g id="r-fullcolor_15_">
				<g>
					<defs>
						<path id="SVGID_1_" d="M258.6,290c0,23.6,19.1,42.8,42.8,42.8c23.6,0,42.8-19.1,42.8-42.8c0-23.6-19.1-42.8-42.8-42.8
							C277.8,247.3,258.6,266.4,258.6,290"/>
					</defs>
					<clipPath id="SVGID_2_">
						<use xlink:href="#SVGID_1_"  style="overflow:visible;"/>
					</clipPath>

						<linearGradient id="SVGID_3_" gradientUnits="userSpaceOnUse" x1="-101.2282" y1="608.347" x2="-98.7148" y2="608.347" gradientTransform="matrix(24.0552 24.0552 24.0552 -24.0552 -11927.7217 17328.7969)">
						<stop  offset="0" style="stop-color:#5DC095"/>
						<stop  offset="0.4212" style="stop-color:#48B78E"/>
						<stop  offset="1" style="stop-color:#25A881"/>
					</linearGradient>
					<polygon class="st11" points="301.4,204.5 386.9,290 301.4,375.5 215.9,290 					"/>
					<use xlink:href="#SVGID_1_"  style="overflow:visible;fill:none;stroke:#FFFFFF;stroke-width:4.6195;stroke-miterlimit:10;"/>
				</g>
				<path class="st12" d="M308.9,317.9h-12.8v-28.5H279v-12.8h17.1v-8.7h27.6v12.8h-23.5v4.6h8.7V317.9z M300.2,313.8h4.6v-24.4
					h-4.6V313.8z M283.1,285.3h13v-4.6h-13V285.3z M300.2,276.6h19.4V272h-19.4V276.6z"/>
				<polygon class="st13" points="300.2,284.9 296.1,280.7 300.2,280.7 				"/>
				<polygon class="st13" points="300.2,293.5 296.1,289.4 300.2,289.4 				"/>
			</g>
		</g>
	</g>
</g>
<g id="Layer_2">
	<polygon class="st14" points="459.9,357.3 463.4,363.7 469.8,367.2 463.4,370.6 459.9,377 456.5,370.6 450.1,367.2 456.5,363.7
		"/>
	<g>
		<g>
			<path class="st5" d="M129.5,337.4c5.4,0,5.4-8.4,0-8.4C124.1,329,124.1,337.4,129.5,337.4L129.5,337.4z"/>
		</g>
	</g>
	<g>
		<g>
			<path class="st15" d="M68.5,370.3c5.4,0,5.4-8.4,0-8.4C63.1,361.9,63,370.3,68.5,370.3L68.5,370.3z"/>
		</g>
	</g>
	<polygon class="st16" points="553.3,141.8 546.1,136.3 540,142.9 539.9,133.9 530.8,133.3 537.9,127.6 532.7,120.1 541.5,122
		544.1,113.3 548.2,121.4 556.6,118.1 552.8,126.3 560.6,130.7 551.8,132.9 	"/>
	<polygon class="st17" points="178.3,75 171.1,69.5 165,76.1 164.9,67.1 155.8,66.5 162.9,60.8 157.7,53.3 166.5,55.2 169.1,46.5
		173.2,54.6 181.6,51.3 177.8,59.5 185.6,63.9 176.8,66.1 	"/>
	<polygon class="st14" points="131.4,415.6 134.9,421.9 141.2,425.4 134.9,428.9 131.4,435.2 127.9,428.9 121.6,425.4 127.9,421.9
		"/>
	<g>
		<g>
			<path class="st15" d="M48.4,137.9c5.7-1.2,11.5-2.7,16.2-6.4c4.9-3.9,6.8-9.6,7.8-15.7c0.9-5.3-7.2-7.6-8.1-2.2
				c-0.8,4.6-1.8,9.2-5.8,12c-3.6,2.5-8.1,3.3-12.3,4.2C40.9,130.9,43.1,139,48.4,137.9L48.4,137.9z"/>
		</g>
	</g>
	<g>
		<g>
			<path class="st18" d="M538.8,347.6c5.4,0,5.4-8.4,0-8.4C533.4,339.2,533.4,347.6,538.8,347.6L538.8,347.6z"/>
		</g>
	</g>
	<g>
		<g>
			<path class="st5" d="M443.6,49.2c3.2,5,6.6,10.2,11.8,13.3c5.6,3.4,11.9,2.9,18.1,1.8c5.3-1,3.1-9.1-2.2-8.1
				c-4.6,0.9-9.1,1.2-13-1.9c-3.2-2.5-5.3-6-7.5-9.4C448,40.4,440.7,44.6,443.6,49.2L443.6,49.2z"/>
		</g>
	</g>
	<polygon class="st16" points="376.3,120.4 369.1,114.8 363,121.5 362.9,112.4 353.8,111.8 360.9,106.1 355.7,98.7 364.5,100.6
		367.1,91.9 371.2,100 379.6,96.6 375.8,104.8 383.6,109.3 374.8,111.4 	"/>
	<g>
		<g>
			<path class="st15" d="M539.4,232.7c1.5,5.7,3.2,11.5,7.1,16.1c4.3,5,10.6,6.5,16.9,7.3c5.4,0.7,5.3-7.7,0-8.4
				c-4.6-0.6-8.9-1.8-11.6-5.8c-2.3-3.4-3.3-7.5-4.3-11.4C546.1,225.2,538,227.4,539.4,232.7L539.4,232.7z"/>
		</g>
	</g>
	<polygon class="st16" points="76.3,269.7 69.1,264.2 63,270.9 62.9,261.8 53.8,261.2 60.9,255.5 55.7,248 64.5,249.9 67.1,241.3
		71.2,249.4 79.6,246 75.8,254.2 83.6,258.7 74.8,260.8 	"/>
	<polygon class="st19" points="256.9,111.4 258.4,118.5 263.5,123.6 256.4,125.1 251.3,130.2 249.8,123.1 244.7,118 251.8,116.5
		"/>
	<g>
		<g>
			<path class="st20" d="M52.2,462.8c4.9-2.7,10-5.7,13.4-10.3c3.8-5.3,4.2-11.4,3.4-17.7c-0.7-5.3-9.1-5.4-8.4,0
				c0.6,4.9,0.9,9.8-2.6,13.7c-2.7,3.1-6.5,5.1-10,7C43.2,458.1,47.5,465.4,52.2,462.8L52.2,462.8z"/>
		</g>
	</g>
	<g>
		<g>
			<path class="st20" d="M550.3,455.5c-3.5-1.9-7.3-3.9-10-7c-3.5-3.9-3.2-8.8-2.6-13.7c0.7-5.4-7.7-5.3-8.4,0
				c-0.8,6.3-0.5,12.4,3.4,17.7c3.4,4.6,8.4,7.6,13.4,10.3C550.8,465.4,555.1,458.1,550.3,455.5L550.3,455.5z"/>
		</g>
	</g>
	<linearGradient id="SVGID_4_" gradientUnits="userSpaceOnUse" x1="517.3528" y1="383.2407" x2="517.3528" y2="425.4626">
		<stop  offset="1.924261e-05" style="stop-color:#EAE46F"/>
		<stop  offset="1" style="stop-color:#FCEE21"/>
	</linearGradient>
	<polygon class="st21" points="517.4,383.2 524.8,396.9 538.5,404.4 524.8,411.8 517.4,425.5 509.9,411.8 496.2,404.4 509.9,396.9
		"/>
</g>
</svg>
