<svg viewBox="0 0 230.85 233.81" xmlns="http://www.w3.org/2000/svg" xmlns:xlink="http://www.w3.org/1999/xlink"><clipPath id="a"><path d="m158.86 133h-32.94a18.06 18.06 0 0 1 -18-18v-33a4.53 4.53 0 0 1 4.52-4.52h32.95a18.05 18.05 0 0 1 18 18v33a4.53 4.53 0 0 1 -4.53 4.52zm-44.43-49v31a11.5 11.5 0 0 0 11.49 11.48h30.92v-30.96a11.5 11.5 0 0 0 -11.49-11.52z"/></clipPath><clipPath id="b"><path d="m146.36 86.72a18.45 18.45 0 0 0 -18.45-18.46h-42a1.56 1.56 0 0 0 -1.56 1.56v52.93a31 31 0 0 0 62.06 0z"/></clipPath><clipPath id="c"><path d="m79.48 170.07h63.07c6.93 0 9.69 5.62 9.69 12.55v6a1.06 1.06 0 0 1 -1.06 1.06h-60.18a12.55 12.55 0 0 1 -12.55-12.55v-6a1.07 1.07 0 0 1 1.06-1.06z"/></clipPath><g fill="#5cc2e7"><path d="m187.68 34.29a4.47 4.47 0 1 0 -5.34-3.38 4.47 4.47 0 0 0 5.34 3.38z"/><path d="m180.44 43a4.46 4.46 0 1 0 -5.33-3.38 4.47 4.47 0 0 0 5.33 3.38z"/><path d="m173.21 51.69a4.46 4.46 0 1 0 -5.34-3.37 4.46 4.46 0 0 0 5.34 3.37z"/><path d="m166 60.4a4.47 4.47 0 1 0 -5.36-3.4 4.46 4.46 0 0 0 5.36 3.4z"/><path d="m153.41 65.72a4.46 4.46 0 1 0 3.37-5.34 4.46 4.46 0 0 0 -3.37 5.34z"/><path d="m149.55 69.08a4.47 4.47 0 1 0 5.34 3.38 4.47 4.47 0 0 0 -5.34-3.38z"/><path d="m142.32 77.79a4.46 4.46 0 1 0 5.33 3.37 4.46 4.46 0 0 0 -5.33-3.37z"/><path d="m135.08 86.49a4.46 4.46 0 1 0 5.34 3.38 4.47 4.47 0 0 0 -5.34-3.38z"/><path d="m95.78 147.39a4.46 4.46 0 1 0 -5.33-3.39 4.46 4.46 0 0 0 5.33 3.39z"/><path d="m88.55 156.09a4.46 4.46 0 1 0 -5.34-3.37 4.46 4.46 0 0 0 5.34 3.37z"/><path d="m81.32 164.8a4.47 4.47 0 1 0 -5.32-3.38 4.47 4.47 0 0 0 5.32 3.38z"/><path d="m77.46 168.16a4.47 4.47 0 1 0 -3.38 5.34 4.47 4.47 0 0 0 3.38-5.34z"/><path d="m64.89 173.48a4.47 4.47 0 1 0 5.34 3.38 4.48 4.48 0 0 0 -5.34-3.38z"/><path d="m57.65 182.19a4.46 4.46 0 1 0 5.35 3.37 4.46 4.46 0 0 0 -5.35-3.37z"/><path d="m50.42 190.89a4.46 4.46 0 1 0 5.34 3.38 4.47 4.47 0 0 0 -5.34-3.38z"/><path d="m43.17 199.52a4.47 4.47 0 1 0 5.34 3.38 4.47 4.47 0 0 0 -5.34-3.38z"/><path d="m155.06 14.56a4.47 4.47 0 1 0 -6.17-1.35 4.46 4.46 0 0 0 6.17 1.35z"/><path d="m151.24 25.21a4.47 4.47 0 1 0 -6.17-1.35 4.46 4.46 0 0 0 6.17 1.35z"/><path d="m147.42 35.86a4.47 4.47 0 1 0 -6.17-1.35 4.46 4.46 0 0 0 6.17 1.35z"/><path d="m143.6 46.51a4.47 4.47 0 1 0 -6.17-1.34 4.46 4.46 0 0 0 6.17 1.34z"/><path d="m139.78 57.17a4.47 4.47 0 1 0 -6.17-1.35 4.48 4.48 0 0 0 6.17 1.35z"/><circle cx="133.55" cy="64.06" r="4.47" transform="matrix(.83714638 -.54697892 .54697892 .83714638 -13.29 83.49)"/><path d="m132.14 78.47a4.47 4.47 0 1 0 -6.14-1.35 4.47 4.47 0 0 0 6.14 1.35z"/><path d="m128.32 89.12a4.47 4.47 0 1 0 -6.18-1.35 4.46 4.46 0 0 0 6.18 1.35z"/><path d="m102.57 144.75a4.47 4.47 0 1 0 6.17 1.35 4.47 4.47 0 0 0 -6.17-1.35z"/><path d="m98.75 155.4a4.47 4.47 0 1 0 6.17 1.35 4.47 4.47 0 0 0 -6.17-1.35z"/><path d="m94.93 166.05a4.47 4.47 0 1 0 6.17 1.35 4.48 4.48 0 0 0 -6.17-1.35z"/><path d="m91.11 176.71a4.47 4.47 0 1 0 6.17 1.34 4.46 4.46 0 0 0 -6.17-1.34z"/><path d="m87.29 187.36a4.47 4.47 0 1 0 6.17 1.35 4.46 4.46 0 0 0 -6.17-1.35z"/><path d="m83.47 198a4.47 4.47 0 1 0 6.17 1.35 4.46 4.46 0 0 0 -6.17-1.35z"/><path d="m79.64 208.66a4.47 4.47 0 1 0 6.18 1.34 4.46 4.46 0 0 0 -6.18-1.34z"/><path d="m75.78 219.25a4.47 4.47 0 1 0 6.22 1.35 4.46 4.46 0 0 0 -6.22-1.35z"/><path d="m111.41 8a4.47 4.47 0 1 0 -.84-6.26 4.47 4.47 0 0 0 .84 6.26z"/><path d="m116.88 12.23a4.47 4.47 0 1 0 .84 6.26 4.46 4.46 0 0 0 -.84-6.26z"/><path d="m116.93 23.55a4.47 4.47 0 1 0 .84 6.26 4.46 4.46 0 0 0 -.84-6.26z"/><path d="m117 34.86a4.47 4.47 0 1 0 .85 6.26 4.47 4.47 0 0 0 -.85-6.26z"/><path d="m117 46.18a4.46 4.46 0 1 0 .85 6.26 4.46 4.46 0 0 0 -.85-6.26z"/><path d="m117.09 57.49a4.47 4.47 0 1 0 .84 6.26 4.47 4.47 0 0 0 -.84-6.26z"/><path d="m117.14 68.81a4.47 4.47 0 1 0 .84 6.26 4.46 4.46 0 0 0 -.84-6.26z"/><path d="m117.19 80.13a4.47 4.47 0 1 0 .84 6.26 4.46 4.46 0 0 0 -.84-6.26z"/><path d="m128.09 138.54a4.64 4.64 0 0 0 .2-1.42 4.45 4.45 0 0 0 6.43-4.21 4.37 4.37 0 0 0 -.29-1.41 4.45 4.45 0 0 0 4.6-6.16 4.64 4.64 0 0 0 -.76-1.22 4.45 4.45 0 0 0 2.22-7.36 4.53 4.53 0 0 0 -1.12-.89 4.42 4.42 0 0 0 1.48-1.66 4.48 4.48 0 0 0 -1.92-6 4.6 4.6 0 0 0 -1.36-.44 4.46 4.46 0 0 0 -3-7.07 4.55 4.55 0 0 0 -1.43 0 4.42 4.42 0 0 0 .07-2.23 4.47 4.47 0 0 0 -5.34-3.38 4.33 4.33 0 0 0 -1.33.54 4.41 4.41 0 0 0 -.7-2.12 4.45 4.45 0 0 0 -7.23-.39 4.47 4.47 0 0 0 -8.32.36 4.46 4.46 0 0 0 -7.49 1.76 4.36 4.36 0 0 0 -.2 1.42 4.45 4.45 0 0 0 -6.43 4.21 4.37 4.37 0 0 0 .29 1.41 4.32 4.32 0 0 0 -2.2.32 4.46 4.46 0 0 0 -2.4 5.84 4.71 4.71 0 0 0 .75 1.22 4.42 4.42 0 0 0 -2 1 4.47 4.47 0 0 0 -.26 6.31 4.53 4.53 0 0 0 1.13.89 4.42 4.42 0 0 0 -1.48 1.74 4.47 4.47 0 0 0 1.92 6 4.33 4.33 0 0 0 1.36.44 4.46 4.46 0 0 0 3 7.07 4.32 4.32 0 0 0 1.44 0 4.38 4.38 0 0 0 -.07 2.22 4.47 4.47 0 0 0 5.34 3.38 4.57 4.57 0 0 0 1.33-.53 4.46 4.46 0 0 0 7.93 2.5 4.47 4.47 0 0 0 7.64.91 4.34 4.34 0 0 0 .68-1.27 4.46 4.46 0 0 0 7.49-1.76zm-8.49-2.77a4.62 4.62 0 0 0 -.52-.46 4.47 4.47 0 0 0 -6.19.75 4 4 0 0 0 -.33-.61 4.47 4.47 0 0 0 -6.07-1.41 3.28 3.28 0 0 0 -.1-.69 4.47 4.47 0 0 0 -5.22-3.4 3.73 3.73 0 0 0 .14-.68 4.47 4.47 0 0 0 -3.74-5 4.92 4.92 0 0 0 .37-.59 4.46 4.46 0 0 0 -1.82-6 5.46 5.46 0 0 0 .55-.43 4.47 4.47 0 0 0 .33-6.22 5.67 5.67 0 0 0 .66-.22 4.46 4.46 0 0 0 2.44-5.73 5.4 5.4 0 0 0 .7 0 4.47 4.47 0 0 0 4.25-4.55 4.6 4.6 0 0 0 .65.25 4.46 4.46 0 0 0 5.55-2.78 3.8 3.8 0 0 0 .52.46 4.47 4.47 0 0 0 6.19-.75 5.07 5.07 0 0 0 .32.61 4.46 4.46 0 0 0 6.07 1.41 5.46 5.46 0 0 0 .1.69 4.47 4.47 0 0 0 5.23 3.4 3.93 3.93 0 0 0 -.15.68 4.47 4.47 0 0 0 3.75 5 4.44 4.44 0 0 0 1.45 6.55 5.46 5.46 0 0 0 -.55.43 4.48 4.48 0 0 0 -.33 6.23 4.2 4.2 0 0 0 -.66.21 4.48 4.48 0 0 0 -2.44 5.74 4.06 4.06 0 0 0 -.7 0 4.47 4.47 0 0 0 -4.25 4.56 4.64 4.64 0 0 0 -.65-.26 4.47 4.47 0 0 0 -5.55 2.81z"/><path d="m113.71 153.73a4.47 4.47 0 1 0 -.84-6.26 4.47 4.47 0 0 0 .84 6.26z"/><path d="m113.77 165a4.46 4.46 0 1 0 -.85-6.26 4.46 4.46 0 0 0 .85 6.26z"/><path d="m113.82 176.36a4.47 4.47 0 1 0 -.84-6.26 4.46 4.46 0 0 0 .84 6.26z"/><path d="m113.87 187.68a4.47 4.47 0 1 0 -.84-6.26 4.47 4.47 0 0 0 .84 6.26z"/><path d="m113.92 199a4.47 4.47 0 1 0 -.84-6.26 4.46 4.46 0 0 0 .84 6.26z"/><path d="m114 210.31a4.47 4.47 0 1 0 -.84-6.26 4.46 4.46 0 0 0 .84 6.26z"/><path d="m119.44 214.52a4.46 4.46 0 1 0 .85 6.26 4.46 4.46 0 0 0 -.85-6.26z"/><path d="m119.44 225.79a4.47 4.47 0 1 0 .84 6.26 4.47 4.47 0 0 0 -.84-6.26z"/><path d="m74.41 16a4.47 4.47 0 1 0 -2.93-5.6 4.47 4.47 0 0 0 2.93 5.6z"/><path d="m75.4 21a4.46 4.46 0 1 0 5.6-2.95 4.45 4.45 0 0 0 -5.6 2.95z"/><path d="m79.31 31.6a4.47 4.47 0 1 0 5.6-2.94 4.47 4.47 0 0 0 -5.6 2.94z"/><path d="m83.23 42.21a4.47 4.47 0 1 0 5.6-2.93 4.48 4.48 0 0 0 -5.6 2.93z"/><path d="m87.15 52.83a4.47 4.47 0 1 0 5.6-2.94 4.47 4.47 0 0 0 -5.6 2.94z"/><path d="m91.07 63.44a4.47 4.47 0 1 0 5.6-2.93 4.48 4.48 0 0 0 -5.6 2.93z"/><path d="m95 74.06a4.47 4.47 0 1 0 5.6-2.94 4.47 4.47 0 0 0 -5.6 2.94z"/><path d="m98.91 84.67a4.47 4.47 0 1 0 5.59-2.93 4.48 4.48 0 0 0 -5.59 2.93z"/><path d="m132 149.16a4.47 4.47 0 1 0 -5.6 2.93 4.46 4.46 0 0 0 5.6-2.93z"/><path d="m135.93 159.78a4.47 4.47 0 1 0 -5.6 2.93 4.48 4.48 0 0 0 5.6-2.93z"/><path d="m139.84 170.39a4.46 4.46 0 1 0 -5.59 2.93 4.45 4.45 0 0 0 5.59-2.93z"/><path d="m143.76 181a4.46 4.46 0 1 0 -5.59 2.93 4.47 4.47 0 0 0 5.59-2.93z"/><path d="m147.68 191.62a4.47 4.47 0 1 0 -5.59 2.94 4.46 4.46 0 0 0 5.59-2.94z"/><path d="m151.6 202.24a4.47 4.47 0 1 0 -5.59 2.93 4.47 4.47 0 0 0 5.59-2.93z"/><path d="m155.52 212.85a4.47 4.47 0 1 0 -5.59 2.94 4.46 4.46 0 0 0 5.59-2.94z"/><path d="m156.44 217.85a4.47 4.47 0 1 0 2.93 5.6 4.48 4.48 0 0 0 -2.93-5.6z"/><path d="m42.36 36.07a4.46 4.46 0 1 0 -4.67-4.25 4.46 4.46 0 0 0 4.67 4.25z"/><path d="m45 40.46a4.46 4.46 0 1 0 4.25-4.67 4.48 4.48 0 0 0 -4.25 4.67z"/><path d="m52.31 49.09a4.47 4.47 0 1 0 4.26-4.67 4.47 4.47 0 0 0 -4.26 4.67z"/><path d="m59.63 57.73a4.46 4.46 0 1 0 4.25-4.67 4.46 4.46 0 0 0 -4.25 4.67z"/><path d="m66.94 66.36a4.46 4.46 0 1 0 4.25-4.67 4.47 4.47 0 0 0 -4.25 4.67z"/><path d="m78.51 70.33a4.46 4.46 0 1 0 4.67 4.25 4.46 4.46 0 0 0 -4.67-4.25z"/><path d="m86.24 87.88a4.46 4.46 0 1 0 -4.67-4.25 4.46 4.46 0 0 0 4.67 4.25z"/><path d="m97.81 91.85a4.47 4.47 0 1 0 -4.26 4.67 4.48 4.48 0 0 0 4.26-4.67z"/><path d="m133.11 142a4.47 4.47 0 1 0 4.26-4.67 4.47 4.47 0 0 0 -4.26 4.67z"/><path d="m145.1 154.85a4.47 4.47 0 1 0 -4.67-4.26 4.47 4.47 0 0 0 4.67 4.26z"/><path d="m152.41 163.48a4.46 4.46 0 1 0 -4.67-4.25 4.46 4.46 0 0 0 4.67 4.25z"/><path d="m164 167.45a4.47 4.47 0 1 0 -4.26 4.67 4.48 4.48 0 0 0 4.26-4.67z"/><path d="m171.29 176.08a4.46 4.46 0 1 0 -4.25 4.67 4.46 4.46 0 0 0 4.25-4.67z"/><path d="m178.6 184.72a4.46 4.46 0 1 0 -4.25 4.67 4.46 4.46 0 0 0 4.25-4.67z"/><path d="m185.92 193.35a4.47 4.47 0 1 0 -4.26 4.67 4.47 4.47 0 0 0 4.26-4.67z"/><path d="m188.49 197.74a4.46 4.46 0 1 0 4.67 4.25 4.46 4.46 0 0 0 -4.67-4.25z"/><path d="m19.12 65.94a4.47 4.47 0 1 0 -5.85-2.4 4.47 4.47 0 0 0 5.85 2.4z"/><path d="m28.94 71.55a4.46 4.46 0 1 0 -5.84-2.4 4.46 4.46 0 0 0 5.84 2.4z"/><path d="m38.77 77.17a4.47 4.47 0 1 0 -5.84-2.4 4.47 4.47 0 0 0 5.84 2.4z"/><path d="m48.59 82.78a4.47 4.47 0 1 0 -5.84-2.4 4.46 4.46 0 0 0 5.84 2.4z"/><path d="m55 80.15a4.46 4.46 0 1 0 5.84 2.4 4.46 4.46 0 0 0 -5.84-2.4z"/><path d="m64.8 85.76a4.47 4.47 0 1 0 5.85 2.4 4.47 4.47 0 0 0 -5.85-2.4z"/><path d="m72.23 97.22a4.47 4.47 0 1 0 2.4-5.85 4.47 4.47 0 0 0 -2.4 5.85z"/><path d="m90.3 99.39a4.47 4.47 0 1 0 -2.4 5.84 4.47 4.47 0 0 0 2.4-5.84z"/><path d="m140.62 134.4a4.46 4.46 0 1 0 2.4-5.84 4.47 4.47 0 0 0 -2.4 5.84z"/><path d="m158.68 136.57a4.46 4.46 0 1 0 -2.4 5.84 4.46 4.46 0 0 0 2.4-5.84z"/><path d="m166.11 148a4.46 4.46 0 1 0 -5.84-2.4 4.46 4.46 0 0 0 5.84 2.4z"/><circle cx="174.21" cy="149.52" r="4.47" transform="matrix(.10018806 -.99496852 .99496852 .10018806 7.99 307.86)"/><path d="m185.76 159.25a4.46 4.46 0 1 0 -5.84-2.4 4.46 4.46 0 0 0 5.84 2.4z"/><path d="m192.14 156.62a4.47 4.47 0 1 0 5.86 2.38 4.47 4.47 0 0 0 -5.86-2.38z"/><path d="m202 162.23a4.47 4.47 0 1 0 5.84 2.4 4.47 4.47 0 0 0 -5.84-2.4z"/><path d="m211.73 167.87a4.47 4.47 0 1 0 5.84 2.4 4.48 4.48 0 0 0 -5.84-2.4z"/><path d="m7.49 102a4.47 4.47 0 1 0 -6.31-.25 4.46 4.46 0 0 0 6.31.25z"/><path d="m18.65 103.87a4.47 4.47 0 1 0 -6.31-.26 4.47 4.47 0 0 0 6.31.26z"/><path d="m29.8 105.78a4.47 4.47 0 1 0 -6.31-.26 4.47 4.47 0 0 0 6.31.26z"/><path d="m41 107.69a4.47 4.47 0 1 0 -6.31-.25 4.46 4.46 0 0 0 6.31.25z"/><path d="m46.05 103a4.47 4.47 0 1 0 6.31.26 4.47 4.47 0 0 0 -6.31-.26z"/><path d="m57.2 105a4.47 4.47 0 1 0 6.31.26 4.46 4.46 0 0 0 -6.31-.26z"/><path d="m68.36 106.87a4.46 4.46 0 1 0 6.31.25 4.46 4.46 0 0 0 -6.31-.25z"/><path d="m79.51 108.78a4.47 4.47 0 1 0 6.31.26 4.47 4.47 0 0 0 -6.31-.26z"/><path d="m151.39 125a4.46 4.46 0 1 0 -6.31-.25 4.47 4.47 0 0 0 6.31.25z"/><path d="m162.54 126.9a4.47 4.47 0 1 0 -6.31-.26 4.46 4.46 0 0 0 6.31.26z"/><path d="m173.7 128.81a4.47 4.47 0 1 0 -6.31-.25 4.46 4.46 0 0 0 6.31.25z"/><path d="m184.85 130.73a4.47 4.47 0 1 0 -6.31-.26 4.48 4.48 0 0 0 6.31.26z"/><path d="m196 132.64a4.47 4.47 0 1 0 -6.31-.26 4.46 4.46 0 0 0 6.31.26z"/><path d="m201.1 128a4.47 4.47 0 1 0 6.31.26 4.48 4.48 0 0 0 -6.31-.26z"/><path d="m212.25 129.9a4.47 4.47 0 1 0 6.31.26 4.46 4.46 0 0 0 -6.31-.26z"/><path d="m229.67 132.12a4.47 4.47 0 1 0 -.26 6.31 4.47 4.47 0 0 0 .26-6.31z"/><path d="m7 133.75a4.47 4.47 0 1 0 1.92 6 4.47 4.47 0 0 0 -1.92-6z"/><path d="m20 137.75a4.46 4.46 0 1 0 -6 1.92 4.46 4.46 0 0 0 6-1.92z"/><path d="m31.16 135.74a4.47 4.47 0 1 0 -6 1.91 4.47 4.47 0 0 0 6-1.91z"/><path d="m40.38 127.7a4.47 4.47 0 1 0 1.91 6 4.47 4.47 0 0 0 -1.91-6z"/><path d="m51.51 125.68a4.47 4.47 0 1 0 1.92 6 4.47 4.47 0 0 0 -1.92-6z"/><path d="m64.56 129.69a4.46 4.46 0 1 0 -6 1.91 4.46 4.46 0 0 0 6-1.91z"/><path d="m75.7 127.67a4.47 4.47 0 1 0 -6 1.92 4.47 4.47 0 0 0 6-1.92z"/><path d="m78.9 121.55a4.46 4.46 0 1 0 6-1.91 4.46 4.46 0 0 0 -6 1.91z"/><circle cx="148.02" cy="110.15" r="4.47" transform="matrix(.97614467 -.21712114 .21712114 .97614467 -20.39 34.77)"/><path d="m155.18 106.08a4.47 4.47 0 1 0 6-1.92 4.48 4.48 0 0 0 -6 1.92z"/><path d="m166.32 104.06a4.46 4.46 0 1 0 6-1.92 4.46 4.46 0 0 0 -6 1.92z"/><path d="m179.37 108.06a4.46 4.46 0 1 0 -1.92-6 4.46 4.46 0 0 0 1.92 6z"/><path d="m190.51 106.05a4.47 4.47 0 1 0 -1.92-6 4.46 4.46 0 0 0 1.92 6z"/><path d="m199.72 98a4.47 4.47 0 1 0 6-1.91 4.47 4.47 0 0 0 -6 1.91z"/><path d="m210.86 96a4.46 4.46 0 1 0 6-1.92 4.46 4.46 0 0 0 -6 1.92z"/><path d="m223.88 100.06a4.46 4.46 0 1 0 -1.88-6.06 4.46 4.46 0 0 0 1.88 6.06z"/><path d="m19.27 169.83a4.47 4.47 0 1 0 3.86 5 4.47 4.47 0 0 0 -3.86-5z"/><path d="m29.05 164.12a4.47 4.47 0 1 0 3.86 5 4.47 4.47 0 0 0 -3.86-5z"/><path d="m42.68 163.42a4.47 4.47 0 1 0 -5 3.86 4.47 4.47 0 0 0 5-3.86z"/><path d="m47.45 161.58a4.47 4.47 0 1 0 -3.86-5 4.47 4.47 0 0 0 3.86 5z"/><path d="m57.23 155.88a4.47 4.47 0 1 0 -3.86-5 4.48 4.48 0 0 0 3.86 5z"/><path d="m67 150.17a4.47 4.47 0 1 0 -3.86-5 4.46 4.46 0 0 0 3.86 5z"/><path d="m76.77 144.47a4.47 4.47 0 1 0 -3.86-5 4.46 4.46 0 0 0 3.86 5z"/><path d="m87.69 129.91a4.47 4.47 0 1 0 3.86 5 4.46 4.46 0 0 0 -3.86-5z"/><path d="m143.17 103.84a4.47 4.47 0 1 0 -3.86-5 4.48 4.48 0 0 0 3.86 5z"/><path d="m154.08 89.27a4.47 4.47 0 1 0 3.86 5 4.48 4.48 0 0 0 -3.86-5z"/><path d="m163.86 83.57a4.47 4.47 0 1 0 3.86 5 4.46 4.46 0 0 0 -3.86-5z"/><path d="m173.63 77.87a4.47 4.47 0 1 0 3.86 5 4.46 4.46 0 0 0 -3.86-5z"/><path d="m182.26 81a4.47 4.47 0 1 0 -3.86-5 4.46 4.46 0 0 0 3.86 5z"/><path d="m188.18 70.32a4.47 4.47 0 1 0 5-3.86 4.46 4.46 0 0 0 -5 3.86z"/><path d="m201.81 69.62a4.47 4.47 0 1 0 -3.86-5 4.47 4.47 0 0 0 3.86 5z"/><path d="m211.58 64a4.47 4.47 0 1 0 -3.86-5 4.48 4.48 0 0 0 3.86 5z"/></g><path d="m142.07 81.49h-1.48a18.43 18.43 0 0 0 -16-9.22h-42.02a1.54 1.54 0 0 0 -1.57 1.55v7.67h-12.64a4.53 4.53 0 0 0 -4.52 4.51v33a18.05 18.05 0 0 0 18 18h.87a31.09 31.09 0 0 0 23.59 20.26v16.82h-30.11a1.05 1.05 0 0 0 -1 1.06v6a12.53 12.53 0 0 0 12.54 12.54h60.17a1.06 1.06 0 0 0 1.06-1.06v-6a12.55 12.55 0 0 0 -12.55-12.54h-18.65v-16.82a31.07 31.07 0 0 0 23.58-20.26h14.24a4.53 4.53 0 0 0 4.52-4.52v-32.95a18.06 18.06 0 0 0 -18.03-18.04zm1 10.82a9 9 0 0 1 8.32 8.91v24.09h-8.32zm-72.68 26.69v-30.95h10.61v38.71a31.55 31.55 0 0 0 .22 3.66 11.5 11.5 0 0 1 -10.83-11.42zm72.46 11.48h10.15a3.55 3.55 0 0 0 .57-.06v.09z" opacity=".1"/><path d="m118.11 133h-32.95a18.06 18.06 0 0 1 -18-18v-33a4.53 4.53 0 0 1 4.52-4.52h32.92a18.05 18.05 0 0 1 18 18v33a4.53 4.53 0 0 1 -4.49 4.52zm-44.43-49v31a11.49 11.49 0 0 0 11.48 11.48h30.92v-30.96a11.49 11.49 0 0 0 -11.48-11.52z" fill="#e5a619"/><g clip-path="url(#a)"><path d="m158.86 133h-32.94a18.06 18.06 0 0 1 -18-18v-33a4.53 4.53 0 0 1 4.52-4.52h32.95a18.05 18.05 0 0 1 18 18v33a4.53 4.53 0 0 1 -4.53 4.52zm-44.43-49v31a11.5 11.5 0 0 0 11.49 11.48h30.92v-30.96a11.5 11.5 0 0 0 -11.49-11.52z" fill="#ffb81c"/><path d="m156.27 126.41h-25.67a14.06 14.06 0 0 1 -14-14v-25.72a3.53 3.53 0 0 1 3.52-3.52h25.67a14.06 14.06 0 0 1 14 14v25.66a3.53 3.53 0 0 1 -3.52 3.58zm-34.61-38.14v24.09a9 9 0 0 0 8.94 8.94h24.09v-24.08a9 9 0 0 0 -8.95-9z" fill="#e5a619"/></g><path d="m109.62 148.82h11.42v30.04h-11.42z" fill="#ffb81c"/><path d="m109.62 148.82h4.7v30.04h-4.7z" fill="#e5a619"/><g clip-path="url(#b)"><path d="m146.36 79.94a18.45 18.45 0 0 0 -18.45-18.45h-42a1.55 1.55 0 0 0 -1.61 1.51v59.71a31 31 0 0 0 62.06 0z" fill="#e5a619"/><path d="m152.65 76.51a18.45 18.45 0 0 0 -18.46-18.45h-42a1.55 1.55 0 0 0 -1.56 1.55v59.72a31 31 0 0 0 62.06 0z" fill="#ffb81c"/><path d="m139.51 76.51a18.46 18.46 0 0 0 -18.46-18.45s9.43 5.58 12.44 15.58 4.54 40.8 4.54 40.8a.76.76 0 0 0 1.48-.21z" fill="#fff" opacity=".1"/></g><g clip-path="url(#c)"><path d="m79.48 170.07h60.22a12.54 12.54 0 0 1 12.54 12.55v6a1.06 1.06 0 0 1 -1.06 1.06h-60.18a12.55 12.55 0 0 1 -12.55-12.55v-6a1.07 1.07 0 0 1 1.06-1.06z" fill="#e5a619"/><path d="m85.77 168.93h60.23a12.55 12.55 0 0 1 12.55 12.54v6a1.06 1.06 0 0 1 -1.06 1.06h-60.24a12.54 12.54 0 0 1 -12.54-12.53v-6a1.05 1.05 0 0 1 1.06-1.06z" fill="#ffb81c"/><path d="m147 181.08a17.24 17.24 0 0 0 -17.24-17.24s5.37.39 11 8.36c4.72 6.66 4.86 12.61 4.86 12.61a.7.7 0 0 0 1.37-.2z" fill="#fff" opacity=".1"/></g><g opacity=".1"><path d="m118.26 101.15a1.18 1.18 0 0 0 -.36.86v4.26a1.18 1.18 0 0 0 .36.86 1.23 1.23 0 0 0 .87.37h6.48a1 1 0 0 1 1 1v16.76a1.23 1.23 0 0 0 1.22 1.22h5.36a1.23 1.23 0 0 0 1.23-1.22v-16.77a1 1 0 0 1 1-1h6.48a1.26 1.26 0 0 0 1.23-1.23v-4.26a1.25 1.25 0 0 0 -1.23-1.22h-22.77a1.22 1.22 0 0 0 -.87.37z"/><path d="m124 110.1h-3.22v1.4h-9.08v-7.59h3.62v-3.12h-6a.86.86 0 0 0 -.86.85v10.53a2.56 2.56 0 0 0 2.56 2.55h12.11a.85.85 0 0 0 .85-.85z"/><path d="m127.62 98.2a5.09 5.09 0 0 0 -4.78-3.31h-19.46a.85.85 0 0 0 -.85.85v19a6 6 0 0 0 6 6h15.47v-3.3h-15.13a3 3 0 0 1 -3-3v-16.24z"/><path d="m124 123.07h-16.42a7.68 7.68 0 0 1 -7.67-7.67v-23.1h23.4a7.85 7.85 0 0 1 7.4 5.89h3.5a11.25 11.25 0 0 0 -10.9-9.3h-25.95a.85.85 0 0 0 -.85.85v25.66a11.06 11.06 0 0 0 11.07 11.07h16.42z"/></g><path d="m118.11 133h-32.95a18.06 18.06 0 0 1 -18-18v-33a4.53 4.53 0 0 1 4.52-4.52h32.92a18.05 18.05 0 0 1 18 18v33a4.53 4.53 0 0 1 -4.49 4.52zm-44.43-49v31a11.49 11.49 0 0 0 11.48 11.48h30.92v-30.96a11.49 11.49 0 0 0 -11.48-11.52z" fill="#e5a619"/><g clip-path="url(#a)"><path d="m158.86 133h-32.94a18.06 18.06 0 0 1 -18-18v-33a4.53 4.53 0 0 1 4.52-4.52h32.95a18.05 18.05 0 0 1 18 18v33a4.53 4.53 0 0 1 -4.53 4.52zm-44.43-49v31a11.5 11.5 0 0 0 11.49 11.48h30.92v-30.96a11.5 11.5 0 0 0 -11.49-11.52z" fill="#ffb81c"/><path d="m156.27 126.41h-25.67a14.06 14.06 0 0 1 -14-14v-25.72a3.53 3.53 0 0 1 3.52-3.52h25.67a14.06 14.06 0 0 1 14 14v25.66a3.53 3.53 0 0 1 -3.52 3.58zm-34.61-38.14v24.09a9 9 0 0 0 8.94 8.94h24.09v-24.08a9 9 0 0 0 -8.95-9z" fill="#e5a619"/></g><path d="m109.62 148.82h11.42v30.04h-11.42z" fill="#ffb81c"/><path d="m109.62 148.82h4.7v30.04h-4.7z" fill="#e5a619"/><g clip-path="url(#b)"><path d="m146.36 79.94a18.45 18.45 0 0 0 -18.45-18.45h-42a1.55 1.55 0 0 0 -1.61 1.51v59.71a31 31 0 0 0 62.06 0z" fill="#e5a619"/><path d="m152.65 76.51a18.45 18.45 0 0 0 -18.46-18.45h-42a1.55 1.55 0 0 0 -1.56 1.55v59.72a31 31 0 0 0 62.06 0z" fill="#ffb81c"/><path d="m139.51 76.51a18.46 18.46 0 0 0 -18.46-18.45s9.43 5.58 12.44 15.58 4.54 40.8 4.54 40.8a.76.76 0 0 0 1.48-.21z" fill="#fff" opacity=".1"/></g><g clip-path="url(#c)"><path d="m79.48 170.07h60.22a12.54 12.54 0 0 1 12.54 12.55v6a1.06 1.06 0 0 1 -1.06 1.06h-60.18a12.55 12.55 0 0 1 -12.55-12.55v-6a1.07 1.07 0 0 1 1.06-1.06z" fill="#e5a619"/><path d="m85.77 168.93h60.23a12.55 12.55 0 0 1 12.55 12.54v6a1.06 1.06 0 0 1 -1.06 1.06h-60.24a12.54 12.54 0 0 1 -12.54-12.53v-6a1.05 1.05 0 0 1 1.06-1.06z" fill="#ffb81c"/><path d="m147 181.08a17.24 17.24 0 0 0 -17.24-17.24s5.37.39 11 8.36c4.72 6.66 4.86 12.61 4.86 12.61a.7.7 0 0 0 1.37-.2z" fill="#fff" opacity=".1"/></g><g opacity=".1"><path d="m118.26 101.15a1.18 1.18 0 0 0 -.36.86v4.26a1.18 1.18 0 0 0 .36.86 1.23 1.23 0 0 0 .87.37h6.48a1 1 0 0 1 1 1v16.76a1.23 1.23 0 0 0 1.22 1.22h5.36a1.23 1.23 0 0 0 1.23-1.22v-16.77a1 1 0 0 1 1-1h6.48a1.26 1.26 0 0 0 1.23-1.23v-4.26a1.25 1.25 0 0 0 -1.23-1.22h-22.77a1.22 1.22 0 0 0 -.87.37z"/><path d="m124 110.1h-3.22v1.4h-9.08v-7.59h3.62v-3.12h-6a.86.86 0 0 0 -.86.85v10.53a2.56 2.56 0 0 0 2.56 2.55h12.11a.85.85 0 0 0 .85-.85z"/><path d="m127.62 98.2a5.09 5.09 0 0 0 -4.78-3.31h-19.46a.85.85 0 0 0 -.85.85v19a6 6 0 0 0 6 6h15.47v-3.3h-15.13a3 3 0 0 1 -3-3v-16.24z"/><path d="m124 123.07h-16.42a7.68 7.68 0 0 1 -7.67-7.67v-23.1h23.4a7.85 7.85 0 0 1 7.4 5.89h3.5a11.25 11.25 0 0 0 -10.9-9.3h-25.95a.85.85 0 0 0 -.85.85v25.66a11.06 11.06 0 0 0 11.07 11.07h16.42z"/></g></svg>