<svg xmlns="http://www.w3.org/2000/svg" xmlns:xlink="http://www.w3.org/1999/xlink" version="1.1" x="0px" y="0px" viewBox="0 0 90 90" style="enable-background:new 0 0 90 90;" xml:space="preserve">
<g fill="#903D54">
    <g>
        <g>
            <circle cx="6.3" cy="16.1" r="1.3"/>
            <circle cx="14.6" cy="16.1" r="1.3"/>
            <circle cx="10.4" cy="16.1" r="1.3"/>
        </g>
        <path d="M0.1,10.6v68.9h89.9V10.6H0.1z M88.4,77.9H1.6V34.1h6v10.4h17.7V34.1h63.2V77.9z M9.1,43V28.3h14.7V43H9.1z M88.4,32.6    H25.3v-5.8H7.6v5.8h-6V21.3h86.9V32.6z M88.4,19.8H1.6v-7.8h86.9V19.8z"/>
    </g>
    <rect x="7.6" y="48.4" width="12.9" height="1.5"/>
    <rect x="7.6" y="52.6" width="17.7" height="1.5"/>
    <rect x="7.6" y="62.8" width="14.7" height="1.5"/>
    <rect x="7.6" y="66.8" width="9.6" height="1.5"/>
    <rect x="7.6" y="56.8" width="7.7" height="1.5"/>
    <rect x="33.6" y="38.1" width="14.1" height="1.5"/>
    <path d="M42.2,43h-8.6v8.6h8.6V43z M40.7,50.1h-5.6v-5.6h5.6V50.1z"/>
    <rect x="44.9" y="43" width="19.4" height="1.5"/>
    <rect x="44.9" y="46.5" width="37.4" height="1.5"/>
    <rect x="44.9" y="50.1" width="8.4" height="1.5"/>
    <path d="M42.2,55.5h-8.6v8.6h8.6V55.5z M40.7,62.6h-5.6V57h5.6V62.6z"/>
    <rect x="44.9" y="55.5" width="19.4" height="1.5"/>
    <rect x="44.9" y="59.1" width="37.4" height="1.5"/>
    <path d="M44.9,75.4h37.4V63.5H44.9V75.4z M46.4,65h34.4v8.9H46.4V65z"/>
    <rect x="68.2" y="38.1" width="14.1" height="1.5"/>
    <rect x="50.9" y="38.1" width="14.1" height="1.5"/>
</g>
</svg>
