<svg xmlns="http://www.w3.org/2000/svg" xmlns:xlink="http://www.w3.org/1999/xlink" version="1.1" x="0px" y="0px" viewBox="0 0 100 100" enable-background="new 0 0 100 100" xml:space="preserve">
  <g fill="#903D54">
    <path d="M4.3,59.6L1.8,35.3C1.6,34.1,2,32.8,3,32.1c1.1-0.9,2.9-1.2,4.2,0.3c0.9,1.1,1.4,4.4,1.5,5.3c0.5,3.2,1.1,7.7,1.2,10.9  c0,0.2,0,0.5,0,0.7c0.1,1.4,0.4,2.7,1,4c3.2,7,9.7,15.9,9.7,15.9l0.4,0.5c0.3,0.4,0.8,0.5,1.2,0.3c0.5-0.3,0.6-0.9,0.4-1.3l-8.6-14  c-0.9-1.6-0.4-3.8,1.3-4.8c1.7-1,3.9-0.5,4.8,1.1l9,11.5c0.6,0.8,1.7,1.8,2.5,2.4c8.1,5.8,9.1,11.7,9.8,14.7c0,0,0.1,0.7,0.1,1.6h0  l0,0c0,0.8,0,1.8-0.2,2.8l-0.5,9.7c0,0.7-0.6,1.3-1.3,1.3l-15.1-0.1c-0.7,0-1.3-0.6-1.3-1.3l-0.3-8L8.4,68.3c-2.1-2.2-3.6-4.8-4-7.8  L4.3,59.6z M10.8,34c0.3,0.9,0.4,1.7,0.6,2.5c0.5,2.7,1.1,7.7,1.2,10.3c0,0.3,0,0.5,0,0.8c0.3-0.3,0.6-0.5,1-0.7  c0.4-0.3,0.9-0.5,1.4-0.6c0,0,0-0.1,0.1-0.1c-0.3-2.5-1.2-7.3-1.9-9.7C12.8,35.3,12.1,34.5,10.8,34z M15.6,37.5  c0.4,1.8,1.4,5.2,1.7,6.9l0.2,1.2c0,0.1,0,0.2,0,0.3c0.7,0,1.5,0.2,2.2,0.4c-0.2-1.6-1.3-4.9-1.7-6.4C17.6,38.8,16.9,37.9,15.6,37.5  z M92.8,32.3c-0.9,1.1-1.4,4.4-1.5,5.3c-0.5,3.2-1.1,7.7-1.2,10.9c0,0.2,0,0.5,0,0.7c-0.1,1.4-0.4,2.7-1,4c-3.2,7-9.7,15.9-9.7,15.9  L79,69.7c-0.3,0.4-0.8,0.5-1.2,0.3c-0.5-0.3-0.6-0.9-0.4-1.3l8.6-14c0.9-1.6,0.4-3.8-1.3-4.8c-1.7-1-3.9-0.5-4.8,1.1l-9,11.5  c-0.6,0.8-1.7,1.8-2.5,2.4c-8.1,5.8-9.1,11.7-9.8,14.7c0,0-0.1,0.7-0.1,1.6v0c0,0.8,0,1.8,0.2,2.8l0.5,9.7c0,0.7,0.6,1.3,1.3,1.3  l15.1-0.1c0.7,0,1.3-0.6,1.3-1.3l0.3-8l14.4-17.3c2.1-2.2,3.6-4.8,4-7.8l0.1-0.9l2.5-24.3c0.1-1.2-0.3-2.4-1.2-3.2  C95.9,31.2,94.1,30.8,92.8,32.3z M85,46.3C85,46.3,85,46.3,85,46.3c0.5,0.2,1,0.5,1.4,0.7c0.4,0.2,0.7,0.5,1,0.7c0-0.3,0-0.5,0-0.8  c0.1-2.6,0.7-7.6,1.2-10.3c0.1-0.8,0.3-1.7,0.6-2.5c-1.2,0.4-2,1.3-2.3,2.5C86.2,39,85.4,43.8,85,46.3z M82.5,45.6l0.2-1.2  c0.2-1.8,1.3-5.1,1.7-6.9c-1.2,0.4-1.9,1.3-2.3,2.5c-0.4,1.5-1.5,4.8-1.7,6.4c0.7-0.3,1.4-0.4,2.2-0.4  C82.5,45.9,82.5,45.8,82.5,45.6z M81.2,24.8L78,20.9c-0.1-0.1-0.1-0.3,0-0.4l3.2-4c0.3-0.3,0-0.8-0.4-0.8H67.6  c-0.1,0.3-0.2,0.7-0.3,1l0,0.1l0.1,0.1c1.1,1,1.7,2.4,1.7,3.9c0,1.5-0.6,2.9-1.8,3.9l-0.1,0.1l0,0.1c0.1,0.3,0.2,0.6,0.3,0.9h13.2  C81.2,25.7,81.5,25.1,81.2,24.8z M32.7,24.6L32.7,24.6l0-0.1c-1.1-1-1.7-2.4-1.7-3.9c0-1.5,0.6-2.9,1.8-3.9l0.1-0.1l0-0.1  c-0.1-0.3-0.2-0.6-0.3-0.9H19.2c-0.4,0-0.7,0.5-0.4,0.8l3.2,3.9c0.1,0.1,0.1,0.3,0,0.4l-3.2,4c-0.3,0.3,0,0.8,0.4,0.8h13.2  C32.5,25.3,32.6,25,32.7,24.6z M32.8,51l2.7-1.7l2.7,1.7c0.5,0.3,1.2-0.1,1-0.7l-0.8-3.1L41,45c0.5-0.4,0.2-1.1-0.4-1.2l-3.2-0.2  l-1.2-3c-0.2-0.6-1-0.6-1.2,0l-1.2,3l-3.2,0.2c-0.6,0-0.8,0.8-0.4,1.2l2.5,2.1l-0.8,3.1C31.7,50.8,32.3,51.3,32.8,51z M55,43.9  l-3.2-0.2l-1.2-3c-0.2-0.6-1-0.6-1.2,0l-1.2,3L45,43.9c-0.6,0-0.8,0.8-0.4,1.2l2.5,2.1l-0.8,3.1c-0.1,0.6,0.5,1.1,1,0.7l2.7-1.7  l2.7,1.7c0.5,0.3,1.2-0.1,1-0.7L53,47.1l2.5-2.1C55.9,44.7,55.6,43.9,55,43.9z M69.5,43.9l-3.2-0.2l-1.2-3c-0.2-0.6-1-0.6-1.2,0  l-1.2,3l-3.2,0.2c-0.6,0-0.8,0.8-0.4,1.2l2.5,2.1l-0.8,3.1c-0.1,0.6,0.5,1.1,1,0.7l2.7-1.7l2.7,1.7c0.5,0.3,1.2-0.1,1-0.7l-0.8-3.1  l2.5-2.1C70.3,44.7,70.1,43.9,69.5,43.9z M40.1,62.9l2.7-1.7l2.7,1.7c0.5,0.3,1.2-0.1,1-0.7l-0.8-3.1l2.5-2.1  c0.5-0.4,0.2-1.1-0.4-1.2l-3.2-0.2l-1.2-3c-0.2-0.6-1-0.6-1.2,0l-1.2,3l-3.2,0.2c-0.6,0-0.8,0.8-0.4,1.2l2.5,2.1l-0.8,3.1  C38.9,62.8,39.5,63.3,40.1,62.9z M62.2,55.8L59,55.6l-1.2-3c-0.2-0.6-1-0.6-1.2,0l-1.2,3l-3.2,0.2c-0.6,0-0.8,0.8-0.4,1.2l2.5,2.1  l-0.8,3.1c-0.1,0.6,0.5,1.1,1,0.7l2.7-1.7l2.7,1.7c0.5,0.3,1.2-0.1,1-0.7l-0.8-3.1l2.5-2.1C63.1,56.6,62.9,55.9,62.2,55.8z   M35.3,18.6c0.7-0.6,0.9-1.5,0.5-2.4l-0.3-0.8c-0.5-1.2,0.2-2.5,1.4-2.8l0.8-0.2c0.9-0.2,1.5-1,1.5-1.9l0-0.8c0.1-1.1,1-2,2.1-2  c0.1,0,0.2,0,0.4,0l0.8,0.1c0.1,0,0.2,0,0.4,0c0.8,0,1.5-0.4,1.8-1.1l0.4-0.7c0.4-0.7,1.1-1.1,1.8-1.1c0.4,0,0.8,0.1,1.2,0.4  l0.7,0.5c0.4,0.3,0.8,0.4,1.2,0.4c0.4,0,0.8-0.1,1.2-0.4l0.7-0.5c0.4-0.3,0.8-0.4,1.2-0.4c0.7,0,1.5,0.4,1.8,1.1l0.4,0.7  C55.7,7.6,56.4,8,57.2,8c0.1,0,0.2,0,0.4,0l0.8-0.1c0.1,0,0.2,0,0.4,0c1.1,0,2,0.9,2.1,2l0,0.8c0,0.9,0.7,1.7,1.5,1.9l0.8,0.2  c1.2,0.3,1.8,1.7,1.3,2.8l-0.3,0.8c-0.3,0.8-0.1,1.8,0.5,2.4l0.6,0.5c0.9,0.8,0.9,2.3,0,3.1l-0.6,0.5c-0.7,0.6-0.9,1.5-0.5,2.4  l0.3,0.8c0.5,1.2-0.2,2.5-1.4,2.8L62.3,29c-0.9,0.2-1.5,1-1.5,1.9l0,0.8c-0.1,1.1-1,2-2.1,2c-0.1,0-0.2,0-0.4,0l-0.8-0.1  c-0.1,0-0.2,0-0.4,0c-0.8,0-1.5,0.4-1.8,1.1l-0.4,0.7c-0.4,0.7-1.1,1.1-1.8,1.1c-0.4,0-0.8-0.1-1.2-0.4l-0.7-0.5  c-0.4-0.3-0.8-0.4-1.2-0.4c-0.4,0-0.8,0.1-1.2,0.4L48.1,36c-0.4,0.3-0.8,0.4-1.2,0.4c-0.7,0-1.5-0.4-1.8-1.1l-0.4-0.7  c-0.4-0.7-1.1-1.1-1.8-1.1c-0.1,0-0.2,0-0.4,0l-0.8,0.1c-0.1,0-0.2,0-0.4,0c-1.1,0-2-0.9-2.1-2l0-0.8c0-0.9-0.7-1.7-1.5-1.9  l-0.8-0.2c-1.2-0.3-1.8-1.7-1.3-2.8l0.3-0.8c0.3-0.8,0.1-1.8-0.5-2.4l-0.6-0.5c-0.9-0.8-0.9-2.3,0-3.1L35.3,18.6z M43.4,21.2  l2.4,2.4l2.5,2.5l2.5-2.5l5.8-5.8l-2.5-2.5l-5.8,5.8l-2.4-2.4L43.4,21.2z"></path>
  </g>
</svg>
