<svg xmlns="http://www.w3.org/2000/svg" xmlns:xlink="http://www.w3.org/1999/xlink" version="1.1" x="0px" y="0px" viewBox="0 0 42.52 42.52" enable-background="new 0 0 42.52 42.52" xml:space="preserve">
  <g fill="#903D54">
    <circle cx="7.104" cy="9.404" r="2.678"></circle>
    <circle cx="33.981" cy="9.588" r="2.678"></circle>
    <circle cx="7.104" cy="33.115" r="2.678"></circle>
    <path d="M31.914,22.555c-3.655,0-6.62,2.963-6.62,6.618c0,3.656,2.965,6.62,6.62,6.62c3.654,0,6.619-2.964,6.619-6.62  C38.533,25.518,35.568,22.555,31.914,22.555z M30.564,32.918l-3.191-3.582l0.998-0.889l2.267,2.545l4.889-4.713l0.928,0.963  L30.564,32.918z"></path>
    <g>
        <g>
            <rect x="9.439" y="8.812" width="18.958" height="1.186"></rect>
        </g>
        <g>
            <g>
                <polygon points="25.994,11.415 28.006,9.405 25.994,7.395 27.701,7.395 29.711,9.405 27.701,11.415    "></polygon>
            </g>
        </g>
    </g>
    <g>
        <g>
            <rect x="9.147" y="32.523" width="14.791" height="1.186"></rect>
        </g>
        <g>
            <g>
                <polygon points="21.577,35.126 23.589,33.117 21.578,31.106 23.284,31.107 25.294,33.117 23.284,35.126    "></polygon>
            </g>
        </g>
    </g>
    <g>
        <g>
            <polygon points="12.231,30.891 11.466,29.985 31.855,10.773 32.621,11.679   "></polygon>
        </g>
        <g>
            <g>
                <polygon points="12.34,27.367 12.101,30.2 14.934,30.438 13.63,31.539 10.797,31.3 11.036,28.468    "></polygon>
            </g>
        </g>
    </g>
  </g>
</svg>
