<?xml version="1.0" encoding="utf-8"?>
<!-- Generator: Adobe Illustrator 22.0.1, SVG Export Plug-In . SVG Version: 6.00 Build 0)  -->
<svg version="1.1" xmlns="http://www.w3.org/2000/svg" xmlns:xlink="http://www.w3.org/1999/xlink" x="0px" y="0px"
	 viewBox="0 0 700 700" style="enable-background:new 0 0 700 700;" xml:space="preserve">
<style type="text/css">
	.st0{fill:url(#SVGID_1_);}
	.st1{fill:url(#SVGID_2_);}
	.st2{fill:none;stroke:#F3AB2A;stroke-width:7.0016;stroke-miterlimit:10;}
	.st3{fill:#FECB36;}
	.st4{fill:#808080;}
	.st5{fill:url(#SVGID_3_);}
	.st6{fill:#FDE635;}
	.st7{fill:url(#SVGID_4_);}
	.st8{fill:url(#SVGID_5_);}
	.st9{fill:url(#SVGID_6_);}
	.st10{fill:url(#SVGID_7_);stroke:#F4BA2B;stroke-width:3.8834;stroke-miterlimit:10;}
	.st11{fill:#E07B20;}
	.st12{fill:#EBAE27;}
	.st13{opacity:0.43;}
	.st14{fill:#FFFFFF;}
	.st15{clip-path:url(#SVGID_9_);fill:url(#SVGID_10_);}
	.st16{fill:#C1C1BF;}
	.st17{opacity:0.43;fill:#FFFFFF;}
</style>
<g id="Layer_4">
	<g id="XMLID_1_">
		<g>
			<linearGradient id="SVGID_1_" gradientUnits="userSpaceOnUse" x1="230.7601" y1="551.6957" x2="477.9386" y2="551.6957">
				<stop  offset="0" style="stop-color:#FDE635"/>
				<stop  offset="1" style="stop-color:#F4BA2B"/>
			</linearGradient>
			<path class="st0" d="M477.9,446.4V657l-122.8-74.5L235.9,657l-5.2-207.1c8,7,16.5,13.4,25.4,19l0.1,143.2l98.5-65.5l104.1,65.5
				L453.1,466C461.8,460.2,470.1,453.6,477.9,446.4z"/>
			<linearGradient id="SVGID_2_" gradientUnits="userSpaceOnUse" x1="256.1565" y1="539.0776" x2="458.8674" y2="539.0776">
				<stop  offset="0" style="stop-color:#FFFFFF"/>
				<stop  offset="1" style="stop-color:#E6E6E6"/>
			</linearGradient>
			<path class="st1" d="M453.1,466l5.7,146.2l-104.1-65.5l-98.5,65.5l-0.1-143.2c28.8,18.2,61.5,28.5,96.2,28.5
				C388.9,497.5,423.3,486,453.1,466z"/>
		</g>
		<g>
			<polyline class="st2" points="230.8,449.9 235.9,657 355.1,582.5 477.9,657 477.9,446.4 			"/>
		</g>
	</g>
</g>
<g id="Layer_5">
	<path class="st3" d="M214.6,53.2L226.4,77c1.1,2.2,3.2,3.7,5.6,4.1l26.3,3.8c6.1,0.9,8.6,8.4,4.1,12.7l-19,18.6
		c-1.8,1.7-2.6,4.2-2.1,6.6l4.5,26.2c1,6.1-5.4,10.8-10.8,7.9l-23.5-12.4c-2.2-1.1-4.8-1.1-7,0l-23.5,12.4
		c-5.5,2.9-11.9-1.8-10.8-7.9l4.5-26.2c0.4-2.4-0.4-4.9-2.1-6.6l-19-18.6c-4.4-4.3-2-11.8,4.1-12.7l26.3-3.8
		c2.4-0.4,4.5-1.9,5.6-4.1l11.8-23.9C204,47.6,211.9,47.6,214.6,53.2z"/>
	<path class="st3" d="M102.7,257.2l11.8,23.9c1.1,2.2,3.2,3.7,5.6,4.1l26.3,3.8c6.1,0.9,8.6,8.4,4.1,12.7l-19,18.6
		c-1.8,1.7-2.6,4.2-2.1,6.6l4.5,26.2c1,6.1-5.4,10.8-10.8,7.9l-23.5-12.4c-2.2-1.1-4.8-1.1-7,0L69,360.9c-5.5,2.9-11.9-1.8-10.8-7.9
		l4.5-26.2c0.4-2.4-0.4-4.9-2.1-6.6l-19-18.6c-4.4-4.3-2-11.8,4.1-12.7l26.3-3.8c2.4-0.4,4.5-1.9,5.6-4.1l11.8-23.9
		C92.1,251.6,100,251.6,102.7,257.2z"/>
	<path class="st4" d="M484.3,54.2L472.6,78c-1.1,2.2-3.2,3.7-5.6,4.1l-26.3,3.8c-6.1,0.9-8.6,8.4-4.1,12.7l19,18.6
		c1.8,1.7,2.6,4.2,2.1,6.6l-4.5,26.2c-1,6.1,5.4,10.8,10.8,7.9l23.5-12.4c2.2-1.1,4.8-1.1,7,0l23.5,12.4c5.5,2.9,11.9-1.8,10.8-7.9
		l-4.5-26.2c-0.4-2.4,0.4-4.9,2.1-6.6l19-18.6c4.4-4.3,2-11.8-4.1-12.7l-26.3-3.8c-2.4-0.4-4.5-1.9-5.6-4.1l-11.8-23.9
		C495,48.6,487.1,48.6,484.3,54.2z"/>
	<path class="st4" d="M604.2,257.2L592.4,281c-1.1,2.2-3.2,3.7-5.6,4.1l-26.3,3.8c-6.1,0.9-8.6,8.4-4.1,12.7l19,18.6
		c1.8,1.7,2.6,4.2,2.1,6.6l-4.5,26.2c-1,6.1,5.4,10.8,10.8,7.9l23.5-12.4c2.2-1.1,4.8-1.1,7,0l23.5,12.4c5.5,2.9,11.9-1.8,10.8-7.9
		l-4.5-26.2c-0.4-2.4,0.4-4.9,2.1-6.6l19-18.6c4.4-4.3,2-11.8-4.1-12.7l-26.3-3.8c-2.4-0.4-4.5-1.9-5.6-4.1l-11.8-23.9
		C614.9,251.6,607,251.6,604.2,257.2z"/>
</g>
<g id="Layer_1">
	<g>
		<linearGradient id="SVGID_3_" gradientUnits="userSpaceOnUse" x1="68.0837" y1="240.4883" x2="402.916" y2="240.4883">
			<stop  offset="0" style="stop-color:#21BBE0"/>
			<stop  offset="1" style="stop-color:#5C6DE1"/>
		</linearGradient>
		<path class="st5" d="M172.2,320.7l160.5-160.5C248.6,169.9,181.9,236.7,172.2,320.7z"/>
		<path class="st6" d="M353.9,159c-7.2,0-14.2,0.4-21.2,1.2L172.2,320.7c-0.8,7-1.2,14-1.2,21.2c0,14.7,1.7,29,5,42.7L396.5,164
			C382.8,160.7,368.6,159,353.9,159z"/>
		<linearGradient id="SVGID_4_" gradientUnits="userSpaceOnUse" x1="135.7266" y1="298.5164" x2="470.5589" y2="298.5164">
			<stop  offset="0" style="stop-color:#21BBE0"/>
			<stop  offset="1" style="stop-color:#5C6DE1"/>
		</linearGradient>
		<path class="st7" d="M396.5,164L175.9,384.6c4.1,17.2,10.6,33.5,19.2,48.4l249.8-249.8C430,174.7,413.7,168.1,396.5,164z"/>
		<path class="st6" d="M444.9,183.2L195.2,433c8.1,14,18,26.9,29.3,38.3l258.7-258.7C471.9,201.2,459,191.3,444.9,183.2z"/>
		<linearGradient id="SVGID_5_" gradientUnits="userSpaceOnUse" x1="203.3695" y1="356.625" x2="538.2018" y2="356.625">
			<stop  offset="0" style="stop-color:#21BBE0"/>
			<stop  offset="1" style="stop-color:#5C6DE1"/>
		</linearGradient>
		<path class="st8" d="M483.2,212.6L224.5,471.3c11.4,11.4,24.3,21.3,38.3,29.3l249.8-249.8C504.5,236.8,494.6,224,483.2,212.6z"/>
		<path class="st6" d="M512.6,250.9L262.8,500.7c14.9,8.6,31.2,15.1,48.4,19.2l220.6-220.6C527.7,282.1,521.2,265.8,512.6,250.9z"/>
		<linearGradient id="SVGID_6_" gradientUnits="userSpaceOnUse" x1="271.0124" y1="412.1012" x2="605.8447" y2="412.1012">
			<stop  offset="0" style="stop-color:#21BBE0"/>
			<stop  offset="1" style="stop-color:#5C6DE1"/>
		</linearGradient>
		<path class="st9" d="M531.8,299.3L311.2,519.9c13.7,3.3,28,5,42.7,5c7.2,0,14.2-0.4,21.2-1.2l160.5-160.5c0.8-7,1.2-14,1.2-21.2
			C536.8,327.3,535.1,313,531.8,299.3z"/>
		<path class="st6" d="M535.6,363.2L375.1,523.7C459.2,514,525.9,447.3,535.6,363.2z"/>
	</g>
</g>
<g id="Layer_3">
	<radialGradient id="SVGID_7_" cx="354.4728" cy="342.5505" r="182.9526" gradientUnits="userSpaceOnUse">
		<stop  offset="1.358173e-02" style="stop-color:#FFFFFF;stop-opacity:0"/>
		<stop  offset="0.3017" style="stop-color:#FBFBFB;stop-opacity:0.2921"/>
		<stop  offset="0.5675" style="stop-color:#F0F0F0;stop-opacity:0.5615"/>
		<stop  offset="0.8237" style="stop-color:#DEDEDE;stop-opacity:0.8213"/>
		<stop  offset="1" style="stop-color:#CCCCCC"/>
	</radialGradient>
	<circle class="st10" cx="354.5" cy="342.6" r="183"/>
</g>
<g id="Layer_2">
	<g>
		<g>
			<circle class="st3" cx="352.3" cy="344.1" r="146.3"/>
			<circle class="st11" cx="352.3" cy="344.1" r="112.7"/>
			<circle class="st12" cx="352.3" cy="344.1" r="102.6"/>
			<g class="st13">
				<g>
					<path class="st14" d="M226,308.5c0.3-1,0.7-2,1.1-2.9c0.2-0.5,0.4-1,0.6-1.6c0.5-1.3-0.3,0.7,0.3-0.6c0.7-1.6,1.4-3.2,2.1-4.7
						c4.2-8.9,9.2-17.4,14.9-25.4c16.7-23.6,40.1-42.7,67.7-52.2c21.4-7.4,44.1-8.8,66.5-6.4c6.4,0.7,6.4-9.4,0-10.1
						c-38.8-4.2-77.9,4.2-109.2,28.2c-20.1,15.4-36.3,35.8-47.5,58.4c-2.3,4.7-4.6,9.6-6.3,14.7C214.2,312,224,314.6,226,308.5
						L226,308.5z"/>
				</g>
			</g>
			<g class="st13">
				<g>
					<path class="st14" d="M399.4,213c0-0.3,0-0.6,0-0.8c0-1.3-0.6-2.7-1.5-3.6c-0.9-0.9-2.3-1.5-3.6-1.5c-1.3,0.1-2.7,0.5-3.6,1.5
						c-0.9,1-1.5,2.2-1.5,3.6c0,0.3,0,0.6,0,0.8c0,1.3,0.6,2.7,1.5,3.6c0.9,0.9,2.3,1.5,3.6,1.5c1.3-0.1,2.7-0.5,3.6-1.5
						C398.9,215.5,399.4,214.3,399.4,213L399.4,213z"/>
				</g>
			</g>
		</g>
		<g id="r-fullcolor_1_">
			<g>
				<defs>
					<path id="SVGID_8_" d="M247.7,344.9c0,58,47,105,105,105c58,0,105-47,105-105c0-58-47-105-105-105
						C294.7,239.9,247.7,287,247.7,344.9"/>
				</defs>
				<clipPath id="SVGID_9_">
					<use xlink:href="#SVGID_8_"  style="overflow:visible;"/>
				</clipPath>

					<linearGradient id="SVGID_10_" gradientUnits="userSpaceOnUse" x1="-412.9285" y1="1033.2382" x2="-406.7548" y2="1033.2382" gradientTransform="matrix(24.0552 24.0552 24.0552 -24.0552 -14643.2432 35058.5547)">
					<stop  offset="0" style="stop-color:#5DC095"/>
					<stop  offset="0.4212" style="stop-color:#48B78E"/>
					<stop  offset="1" style="stop-color:#25A881"/>
				</linearGradient>
				<polygon class="st15" points="352.7,134.9 562.7,345 352.7,555 142.7,345 				"/>
			</g>
			<path class="st14" d="M371.2,413.4h-31.4v-70h-42.1v-31.4h42.1v-21.4h67.9V322h-57.8v11.2h21.3V413.4z M349.9,403.3h11.2v-59.9
				h-11.2V403.3z M307.8,333.3h32V322h-32V333.3z M349.9,311.9h47.7v-11.3h-47.7V311.9z"/>
			<polygon class="st16" points="349.9,332.2 339.8,322 349.9,322 			"/>
			<polygon class="st16" points="349.9,353.6 339.8,343.4 349.9,343.4 			"/>
		</g>
		<polygon class="st17" points="273.7,249.7 282.4,265.5 298.2,274.2 282.4,282.9 273.7,298.7 265,282.9 249.2,274.2 265,265.5
			"/>
	</g>
</g>
</svg>
