<svg id="Layer_1" data-name="Layer 1" xmlns="http://www.w3.org/2000/svg" xmlns:xlink="http://www.w3.org/1999/xlink" viewBox="0 0 445 106"><defs><style>.cls-1{fill:url(#linear-gradient);}.cls-2{fill:#fff;}.cls-3{fill:#5bc095;}.cls-4{fill:#c1c1bf;}</style><linearGradient id="linear-gradient" x1="15.89" y1="16.26" x2="89.38" y2="89.74" gradientUnits="userSpaceOnUse"><stop offset="0" stop-color="#5bc095"/><stop offset="0.42" stop-color="#49b78e"/><stop offset="1" stop-color="#29a881"/></linearGradient></defs><title>Artboard 1</title><circle class="cls-1" cx="52.63" cy="53" r="51.96"/><path class="cls-2" d="M61.81,86.87H46.25V52.22H25.41V36.66H46.25V26.07H79.85V41.66H51.25v5.56H61.81Zm-10.56-5h5.56V52.22H51.25ZM30.41,47.22H46.25V41.66H30.41ZM51.25,36.66H74.85V31.07H51.25Z"/><path class="cls-2" d="M153,41.28V34c0-.45-.06-.56-.45-.56H122.91c-.45,0-.45.11-.45.56v7.24c0,.34,0,.39.39.39h9.87V71c0,.56,0,.5.56.5h9.26c.45,0,.5-.06.5-.5V41.67h9.59C153,41.67,153,41.62,153,41.28Z"/><path class="cls-2" d="M162.63,42.35c-9.16,0-14.86,6.27-14.86,14.86,0,9.61,6.27,15.26,14.86,15.26a16.45,16.45,0,0,0,10-3.33c.45-.4.62-.79.28-1.3-1.13-1.75-2.71-4-3.9-5.65-.28-.4-.62-.51-.79-.28a7.23,7.23,0,0,1-5.43,2.83c-3.33,0-5.71-1.92-5.76-5h16.9c.85,0,1-.11,1.13-.68a15.26,15.26,0,0,0,.34-3.84C175.4,47.26,169.58,42.35,162.63,42.35ZM157,54.78c.28-2.37,1.64-4.8,4.75-4.8,2.88,0,4.58,1.81,4.8,4.8Z"/><path class="cls-2" d="M205.13,63.38l-7.07-3c-.5-.22-.67-.11-.84.28a5.31,5.31,0,0,1-4.83,2.75,5.6,5.6,0,0,1-5.83-5.83c0-3.42,2.08-5.95,5.78-5.95,2.08,0,4.21,1.07,4.94,2.69.11.28.22.39.45.34l7.35-3.09c.39-.17.5-.39.34-.84-2.08-5.55-7.07-8.36-13.24-8.36-9,0-14.92,6.68-14.92,15.31,0,9.09,6.23,14.81,15,14.81,6.51,0,10.71-3,13.18-8.13A.69.69,0,0,0,205.13,63.38Z"/><path class="cls-2" d="M255.11,42.34c-4.32,0-7.63,2.08-8.75,5.39V44.08c0-.56-.22-.9-.62-.9h-8.25c-.39,0-.39,0-.39.67V70.73c0,.79.06.79.45.79h8.7c.34,0,.39-.11.39-.62V53.17a4.14,4.14,0,0,1,4.1-2.69,3.37,3.37,0,0,1,3.53,3.7V70.9c0,.62.11.62.51.62h8.47c.45,0,.56-.06.56-.84V51.6C263.8,45.54,260.94,42.34,255.11,42.34Z"/><path class="cls-2" d="M281.06,42.34c-8.92,0-15,6.51-15,15.09,0,9,6.34,15,15,15s15-6.11,15-15S289.81,42.34,281.06,42.34Zm.11,21.26a5.94,5.94,0,0,1-5.78-6.17,5.76,5.76,0,0,1,5.72-6.06c3.09,0,5.61,2.36,5.61,6.06S284.25,63.61,281.17,63.61Z"/><path class="cls-2" d="M323.62,43.19H314.2c-.28,0-.45.22-.56.56L309.2,55.58l-4.66-12c-.11-.39-.34-.39-.62-.39h-9.71c-.56,0-.73,0-.22.9,5.5,11.11,9.26,18.51,14,27.82a1.1,1.1,0,0,0,1,.62.89.89,0,0,0,.84-.56c4.94-9.71,8.25-16.44,14-28C324.18,43.19,324.13,43.19,323.62,43.19Z"/><path class="cls-2" d="M351.46,43.19h-8.64c-.34,0-.45.17-.45.67v3.42c-.84-2.19-3.76-4.43-7.57-4.43-7.12,0-13.07,6-13.07,14.47,0,9.2,5.72,14.59,13.24,14.59,3.42,0,7-1.51,7.91-4.43V71c0,.28.17.5.56.5h8c.28,0,.45-.17.45-.79v-27C351.85,43.41,351.74,43.19,351.46,43.19Zm-14.7,20.2A5.62,5.62,0,0,1,331,57.6c0-3.48,2.19-6,5.72-6a5.5,5.5,0,0,1,5.61,5.89A5.59,5.59,0,0,1,336.76,63.38Z"/><path class="cls-2" d="M382.24,43.19h-8.58c-.39,0-.39,0-.39.67V70.73c0,.79.06.79.45.79h8.58c.39,0,.5-.11.5-.62v-27C382.8,43.19,382.69,43.19,382.24,43.19Z"/><path class="cls-2" d="M400.21,42.34c-8.92,0-15,6.51-15,15.09,0,9,6.34,15,15,15s15-6.11,15-15S409,42.34,400.21,42.34Zm.11,21.26a5.94,5.94,0,0,1-5.78-6.17,5.76,5.76,0,0,1,5.72-6.06c3.09,0,5.61,2.36,5.61,6.06S403.41,63.61,400.33,63.61Z"/><path class="cls-2" d="M435.64,42.34c-4.32,0-7.63,2.08-8.75,5.39V44.08c0-.56-.22-.9-.62-.9H418c-.39,0-.39,0-.39.67V70.73c0,.79.06.79.45.79h8.7c.34,0,.39-.11.39-.62V53.17a4.14,4.14,0,0,1,4.1-2.69,3.37,3.37,0,0,1,3.53,3.7V70.9c0,.62.11.62.5.62h8.47c.45,0,.56-.06.56-.84V51.6C444.33,45.54,441.47,42.34,435.64,42.34Z"/><path class="cls-3" d="M382.24,33.48h-8.58c-.39,0-.39.39-.39.73v5.25c0,.34.06.73.45.73h8.58c.39,0,.5-.11.5-.62V34.21C382.8,33.54,382.69,33.48,382.24,33.48Z"/><path class="cls-2" d="M225.22,42.34c-4.32,0-7.18,2.08-8.47,5.27V34.2a.72.72,0,0,0-.91-.7,1.28,1.28,0,0,0-.28,0h-7.9c-.39,0-.45.22-.45.78V70.73c0,.79.06.79.45.79h8.7c.34,0,.39-.11.39-.62V53.17a4.14,4.14,0,0,1,4.1-2.69,3.37,3.37,0,0,1,3.53,3.7V70.9c0,.62.11.62.51.62h8.47c.45,0,.56-.06.56-.84V51.6C233.91,45.54,231.05,42.34,225.22,42.34Z"/><path class="cls-2" d="M370.07,64.73c-.11-.62-.39-.84-1.07-.67-2.92.62-4.66-.62-4.66-3.09V50.42h5.27c.45,0,.62-.22.62-.79v-6c0-.28-.17-.45-.56-.45h-5.33V34.67a3.1,3.1,0,0,0,0-.49.72.72,0,0,0-.86-.7l-.15,0h-7.9c-.39,0-.45.22-.45.78V60.41c0,5.67.22,12.06,9.7,12.06a13.15,13.15,0,0,0,5.72-1.57.76.76,0,0,0,.5-.84C370.8,69.27,370.18,65.35,370.07,64.73Z"/><polygon class="cls-4" points="51.26 46.72 46.26 41.67 51.26 41.67 51.26 46.72"/><polygon class="cls-4" points="51.26 57.28 46.26 52.23 51.26 52.23 51.26 57.28"/></svg>