<?xml version="1.0" encoding="UTF-8" standalone="no"?>
<svg width="2608px" height="616px" viewBox="0 0 2608 616" version="1.1" xmlns="http://www.w3.org/2000/svg" xmlns:xlink="http://www.w3.org/1999/xlink">
    <!-- Generator: Sketch 39.1 (31720) - http://www.bohemiancoding.com/sketch -->
    <title>Group</title>
    <desc>Created with Sketch.</desc>
    <defs>
        <path d="M0.408,306.186 C0.408,474.862 137.139,611.594 305.816,611.594 C474.492,611.594 611.223,474.862 611.223,306.186 C611.223,137.51 474.492,0.778 305.816,0.778 C137.139,0.778 0.408,137.51 0.408,306.186 L0.408,306.186 Z" id="path-1"></path>
        <polygon id="path-3" points="348 177.721 348 0.65 0.67 0.65 0.67 177.721 348 177.721"></polygon>
    </defs>
    <g id="Page-1" stroke="none" stroke-width="1" fill="none" fill-rule="evenodd">
        <g id="Group">
            <g id="Technovation-Logo-highres_P-2color-white">
                <g id="Group-3">
                    <mask id="mask-2" fill="white">
                        <use xlink:href="#path-1"></use>
                    </mask>
                    <g id="Clip-2"></g>
                    <polyline id="Fill-1" fill="#59B88B" mask="url(#mask-2)" points="305.816 -304.63 916.63 306.186 305.815 917 -305 306.186 305.816 -304.63"></polyline>
                </g>
                <path d="M297.681,210.185 L436.418,210.185 L436.418,177.33 L297.681,177.33 L297.681,210.185 Z M175.214,272.235 L268.281,272.235 L268.281,239.566 L175.214,239.566 L175.214,272.235 Z M297.681,475.866 L330.369,475.866 L330.369,301.618 L297.681,301.618 L297.681,475.866 Z M359.769,505.266 L268.299,505.266 L268.299,301.617 L145.831,301.617 L145.831,210.185 L268.299,210.185 L268.299,147.929 L465.819,147.929 L465.819,239.567 L297.681,239.567 L297.681,272.235 L359.769,272.235 L359.769,505.266 L359.769,505.266 Z" id="Fill-4" fill="#FFFFFF"></path>
                <path d="M895.96,193.394 L895.96,150.863 C895.96,148.226 895.63,147.557 893.32,147.557 L718.89,147.557 C716.25,147.557 716.25,148.226 716.25,150.863 L716.25,193.394 C716.25,195.381 716.25,195.697 718.57,195.697 L776.6,195.678 L776.6,368.144 C776.6,371.449 776.6,371.115 779.9,371.115 L834.3,371.115 C836.94,371.115 837.27,370.781 837.27,368.144 L837.27,195.678 L893.66,195.697 C895.63,195.697 895.96,195.381 895.96,193.394" id="Fill-5" fill="#FFFFFF"></path>
                <path d="M919.42,272.743 C921.07,258.796 929.04,244.513 947.31,244.513 C964.25,244.513 974.22,255.136 975.54,272.743 L919.42,272.743 L919.42,272.743 Z M952.31,199.66 C898.49,199.66 864.92,236.546 864.92,287.026 C864.92,343.505 901.81,376.714 952.31,376.714 C977.88,376.714 1000.8,366.089 1011.09,357.119 C1013.75,354.797 1014.75,352.476 1012.76,349.486 C1006.11,339.178 996.81,325.899 989.84,316.259 C988.17,313.938 986.19,313.269 985.18,314.607 C979.54,321.237 968.91,331.21 953.29,331.21 C933.7,331.21 919.75,319.918 919.42,301.977 L1018.72,301.977 C1023.72,301.977 1024.72,301.309 1025.37,298.003 C1026.71,292.338 1027.38,287.026 1027.38,275.4 C1027.38,228.559 993.17,199.66 952.31,199.66 L952.31,199.66 Z" id="Fill-6" fill="#FFFFFF"></path>
                <path d="M1202.12,323.306 L1160.58,305.495 C1157.61,304.176 1156.62,304.845 1155.64,307.148 C1151.68,315.728 1140.8,323.306 1127.28,323.306 C1107.81,323.306 1092.99,309.785 1092.99,289.003 C1092.99,268.907 1105.19,254.067 1126.94,254.067 C1139.14,254.067 1151.68,260.326 1155.97,269.891 C1156.62,271.544 1157.27,272.194 1158.61,271.86 L1201.79,253.733 C1204.09,252.749 1204.76,251.43 1203.78,248.793 C1191.57,216.142 1162.23,199.668 1125.96,199.668 C1073.21,199.668 1038.26,238.894 1038.26,289.671 C1038.26,343.086 1074.85,376.721 1126.61,376.721 C1164.87,376.721 1189.59,358.91 1204.09,328.915 C1205.1,326.612 1204.43,324.625 1202.12,323.306" id="Fill-7" fill="#FFFFFF"></path>
                <path d="M1495.85,199.66 C1470.46,199.66 1451,211.862 1444.42,231.308 L1444.42,209.876 C1444.42,206.588 1443.1,204.601 1440.78,204.601 L1392.31,204.601 C1390.01,204.601 1390.01,204.601 1390.01,208.557 L1390.01,366.498 C1390.01,371.104 1390.34,371.104 1392.64,371.104 L1443.75,371.104 C1445.74,371.104 1446.06,370.454 1446.06,367.483 L1446.06,263.291 C1450.01,254.394 1456.94,247.466 1470.13,247.466 C1481.35,247.466 1490.91,254.394 1490.91,269.233 L1490.91,367.483 C1490.91,371.104 1491.56,371.104 1493.86,371.104 L1543.66,371.104 C1546.29,371.104 1546.96,370.789 1546.96,366.164 L1546.96,254.06 C1546.96,218.456 1530.14,199.66 1495.85,199.66" id="Fill-8" fill="#FFFFFF"></path>
                <path d="M1649.03,324.624 C1630.57,324.624 1615.06,309.116 1615.06,288.352 C1615.06,267.254 1630.24,252.748 1648.7,252.748 C1666.83,252.748 1681.68,266.585 1681.68,288.352 C1681.68,309.785 1667.18,324.624 1649.03,324.624 M1648.36,199.65 C1595.95,199.65 1560.33,237.909 1560.33,288.352 C1560.33,341.116 1597.59,376.721 1648.36,376.721 C1699.81,376.721 1736.4,340.783 1736.4,288.352 C1736.4,235.922 1699.81,199.65 1648.36,199.65" id="Fill-9" fill="#FFFFFF"></path>
                <path d="M1898.55,204.604 L1843.16,204.604 C1841.51,204.604 1840.51,205.923 1839.86,207.91 L1813.8,277.446 L1786.44,206.908 C1785.78,204.604 1784.48,204.604 1782.82,204.604 L1725.77,204.604 C1722.48,204.604 1721.48,204.604 1724.45,209.88 C1756.76,275.162 1778.87,318.696 1806.89,373.43 C1808.21,375.733 1810.18,377.051 1812.48,377.051 C1814.47,377.051 1816.44,376.067 1817.44,373.746 C1846.45,316.709 1865.9,277.149 1899.87,209.211 C1901.85,204.604 1901.52,204.604 1898.55,204.604" id="Fill-10" fill="#FFFFFF"></path>
                <path d="M1975.76,323.306 C1957.3,323.306 1942.12,309.451 1942.12,289.337 C1942.12,268.907 1955,254.067 1975.76,254.067 C1993.89,254.067 2008.73,266.92 2008.73,288.687 C2008.73,309.451 1993.89,323.306 1975.76,323.306 M2062.14,204.609 L2011.36,204.609 C2009.39,204.609 2008.73,205.593 2008.73,208.565 L2008.73,228.679 C2003.79,215.808 1986.64,202.64 1964.21,202.64 C1922.34,202.64 1887.39,237.909 1887.39,287.702 C1887.39,341.767 1921.03,373.415 1965.21,373.415 C1985.32,373.415 2006.09,364.519 2011.7,347.376 L2011.7,368.14 C2011.7,369.793 2012.68,371.111 2015,371.111 L2061.83,371.111 C2063.46,371.111 2064.46,370.128 2064.46,366.506 L2064.46,207.58 C2064.46,205.927 2063.79,204.609 2062.14,204.609" id="Fill-11" fill="#FFFFFF"></path>
                <path d="M2243.06,204.604 L2192.62,204.604 C2190.3,204.604 2190.3,204.604 2190.3,208.561 L2190.3,366.502 C2190.3,371.108 2190.63,371.108 2192.95,371.108 L2243.39,371.108 C2245.7,371.108 2246.37,370.458 2246.37,367.486 L2246.37,208.561 C2246.37,204.604 2245.7,204.604 2243.06,204.604" id="Fill-12" fill="#FFFFFF"></path>
                <g id="Group-16" transform="translate(2260.000000, 199.000000)">
                    <mask id="mask-4" fill="white">
                        <use xlink:href="#path-3"></use>
                    </mask>
                    <g id="Clip-14"></g>
                    <path d="M89.37,125.624 C70.91,125.624 55.4,110.116 55.4,89.352 C55.4,68.254 70.57,53.748 89.04,53.748 C107.18,53.748 122.02,67.585 122.02,89.352 C122.02,110.785 107.51,125.624 89.37,125.624 M88.7,0.65 C36.29,0.65 0.67,38.909 0.67,89.352 C0.67,142.116 37.92,177.721 88.7,177.721 C140.15,177.721 176.73,141.783 176.73,89.352 C176.73,36.922 140.15,0.65 88.7,0.65" id="Fill-13" fill="#FFFFFF" mask="url(#mask-4)"></path>
                    <path d="M296.9,0.66 C271.51,0.66 252.05,12.862 245.45,32.308 L245.45,10.876 C245.45,7.588 244.13,5.601 241.83,5.601 L193.36,5.601 C191.05,5.601 191.05,5.601 191.05,9.557 L191.05,167.498 C191.05,172.104 191.39,172.104 193.69,172.104 L244.8,172.104 C246.79,172.104 247.11,171.454 247.11,168.483 L247.11,64.291 C251.06,55.394 257.99,48.466 271.18,48.466 C282.39,48.466 291.96,55.394 291.96,70.233 L291.96,168.483 C291.96,172.104 292.61,172.104 294.91,172.104 L344.7,172.104 C347.34,172.104 348.01,171.789 348.01,167.164 L348.01,55.06 C348.01,19.456 331.18,0.66 296.9,0.66" id="Fill-15" fill="#FFFFFF" mask="url(#mask-4)"></path>
                </g>
                <path d="M2243.06,147.56 L2192.62,147.56 C2190.3,147.56 2190.3,149.864 2190.3,151.851 L2190.3,182.681 C2190.3,184.65 2190.63,186.971 2192.95,186.971 L2243.39,186.971 C2245.7,186.971 2246.37,186.303 2246.37,183.35 L2246.37,151.851 C2246.37,147.895 2245.7,147.56 2243.06,147.56" id="Fill-17" fill="#59B88B"></path>
                <path d="M1320.19,199.66 C1294.8,199.66 1277.99,211.862 1270.39,230.658 L1270.39,151.798 C1270.39,148.809 1267.57,147.026 1265.06,147.694 C1264.56,147.583 1264.02,147.527 1263.43,147.527 L1216.96,147.527 C1214.68,147.527 1214.34,148.827 1214.34,152.096 L1214.34,366.498 C1214.34,371.104 1214.68,371.104 1216.98,371.104 L1268.09,371.104 C1270.08,371.104 1270.39,370.454 1270.39,367.483 L1270.39,263.291 C1274.35,254.394 1281.28,247.466 1294.46,247.466 C1305.68,247.466 1315.25,254.394 1315.25,269.233 L1315.25,367.483 C1315.25,371.104 1315.9,371.104 1318.2,371.104 L1367.99,371.104 C1370.63,371.104 1371.3,370.789 1371.3,366.164 L1371.3,254.06 C1371.3,218.456 1354.47,199.66 1320.19,199.66" id="Fill-18" fill="#FFFFFF"></path>
                <path d="M2171.55,331.216 C2170.88,327.594 2169.25,326.276 2165.29,327.26 C2148.15,330.882 2137.92,323.638 2137.92,309.133 L2137.92,247.138 L2168.91,247.138 C2171.55,247.138 2172.54,245.819 2172.54,242.514 L2172.54,207.244 C2172.54,205.591 2171.55,204.607 2169.25,204.607 L2137.92,204.607 L2137.94,154.572 C2137.94,154.572 2138.07,152.195 2137.92,151.693 C2137.84,148.889 2135.26,147.143 2132.83,147.607 C2132.53,147.589 2132.25,147.514 2131.94,147.514 L2085.47,147.514 C2083.18,147.514 2082.85,148.833 2082.85,152.102 L2082.85,193.444 L2082.87,305.828 C2082.87,339.128 2084.17,376.719 2139.9,376.719 C2154.07,376.719 2165.94,371.11 2173.52,367.488 C2175.51,366.504 2176.83,365.185 2176.49,362.548 C2175.84,357.923 2172.2,334.838 2171.55,331.216" id="Fill-19" fill="#FFFFFF"></path>
                <path d="M810.13,475.25 C810.13,484.209 802.27,491.471 792.57,491.471 C782.88,491.471 775.02,484.209 775.02,475.25 C775.02,466.292 782.88,459.029 792.57,459.029 C802.27,459.029 810.13,466.292 810.13,475.25" id="Fill-20" fill="#59B88B"></path>
                <polygon id="Fill-21" fill="#59B88B" points="776.16 612.221 808.99 612.221 808.99 505.534 776.16 505.534"></polygon>
                <path d="M890.82,503.254 C877.75,503.254 866.63,511.555 862.42,523.172 L862.42,523.168 L859.82,505.534 L831.1,505.534 L831.1,612.221 L863.93,612.221 L863.93,558.479 C863.93,544.661 877.23,533.46 892.52,533.46 C893.97,533.46 895.4,533.561 896.79,533.756 L896.91,503.868 C894.94,503.465 892.91,503.254 890.82,503.254" id="Fill-22" fill="#59B88B"></path>
                <path d="M1117.88,547.024 C1117.88,534.275 1129.05,524.925 1138.35,524.925 C1150.9,524.925 1157.18,533.436 1157.57,546.802 L1117.88,547.024 L1117.88,547.024 Z M1187.18,569.82 C1190.37,529.698 1175.43,503.185 1140.92,503.185 C1108.76,503.185 1086.64,528.259 1086.64,559.191 C1086.64,590.122 1105.8,615.197 1140.92,615.197 C1161.13,615.197 1173.99,612.688 1182.12,608.278 L1178.27,585.739 C1168.85,588.802 1155.91,590.109 1146.88,590.109 C1131.11,590.109 1117.88,581.902 1118.33,569.498 L1187.18,569.82 L1187.18,569.82 Z" id="Fill-23" fill="#59B88B"></path>
                <path d="M1564.3,502.977 C1551.65,502.977 1539.78,509.947 1531.92,520.287 L1531.86,520.124 L1530.49,505.481 L1502.23,505.481 L1502.23,612.168 L1535.05,612.168 L1535.05,547.366 C1536.23,536.87 1544.74,529.286 1555.07,529.242 C1566.98,529.193 1571.58,540.834 1571.58,552.609 L1571.59,552.606 L1571.59,612.168 L1604.42,612.168 L1604.42,546.771 C1604.42,525.102 1594.55,502.977 1564.3,502.977" id="Fill-24" fill="#59B88B"></path>
                <path d="M931.59,615.689 C930.52,615.689 929.33,615.601 928,615.397 C920.88,614.301 917.27,609.322 917.27,600.595 C917.27,599.958 917.28,599.18 917.29,598.297 C917.35,593.079 917.46,584.345 915.96,579.33 C914.29,573.746 913.47,564.242 912.61,554.179 C912.39,551.597 912.16,548.926 911.92,546.335 C911.3,539.804 910.79,526.104 910.89,521.386 C911.03,514.532 907.64,507.338 904.91,501.558 C903.73,499.057 902.61,496.696 901.91,494.653 C899.86,488.649 899.94,473.249 900,462.005 C900.01,460.285 900.02,458.668 900.02,457.205 C900.02,449.003 905.67,444.758 909.79,441.657 C911.49,440.381 912.95,439.279 913.6,438.243 C914.7,436.485 914.28,434.748 913.29,431.295 C912.57,428.793 911.68,425.678 911.35,421.526 C911.05,417.797 912.21,414.389 914.72,411.668 C917.95,408.171 922.62,406.597 924.9,406.597 C927.08,406.597 932.5,407.093 935.65,411.684 C939.64,417.51 938.9,423.105 938.4,426.808 C938.34,427.293 938.28,427.748 938.23,428.171 C938.17,428.746 938.07,429.334 937.98,429.902 C937.45,433.062 937.07,435.345 941.6,436.712 C949.05,438.959 953.19,442.486 954.61,447.813 C954.73,448.284 954.9,448.854 955.08,449.513 C956.87,455.826 961.06,470.61 958.74,485.68 C956.64,499.394 955.15,502.48 951.57,509.934 C950.83,511.458 950,513.185 949.06,515.226 C948.74,515.912 947.93,516.213 947.24,515.895 C946.56,515.578 946.26,514.766 946.57,514.08 C947.53,512.019 948.36,510.281 949.1,508.748 C952.56,501.552 954,498.575 956.04,485.266 C958.26,470.783 954.19,456.401 952.45,450.259 C952.26,449.584 952.09,449.001 951.97,448.519 C950.81,444.197 947.27,441.278 940.81,439.331 C933.97,437.269 934.76,432.564 935.28,429.451 C935.37,428.898 935.46,428.376 935.51,427.882 C935.56,427.437 935.62,426.957 935.69,426.446 C936.16,422.962 936.79,418.191 933.39,413.231 C931.07,409.839 927.07,409.333 924.9,409.333 C923.4,409.333 919.47,410.562 916.73,413.523 C914.73,415.698 913.83,418.317 914.07,421.305 C914.39,425.187 915.24,428.157 915.92,430.544 C916.92,434.053 917.71,436.826 915.92,439.693 C915,441.161 913.35,442.404 911.43,443.844 C907.57,446.751 902.76,450.369 902.76,457.205 C902.76,458.672 902.75,460.294 902.74,462.019 C902.68,472.446 902.6,488.201 904.5,493.77 C905.15,495.667 906.23,497.961 907.38,500.39 C910.23,506.43 913.78,513.946 913.62,521.444 C913.52,526.097 914.03,539.624 914.64,546.079 C914.89,548.681 915.11,551.358 915.34,553.946 C916.19,563.864 916.99,573.232 918.58,578.547 C920.2,583.962 920.09,592.957 920.02,598.331 C920.01,599.2 920,599.967 920,600.595 C920,605.626 920.96,611.546 928.42,612.693 C936.05,613.865 937.93,610.701 937.95,610.669 C938.28,609.993 939.1,609.733 939.77,610.071 C940.45,610.41 940.71,611.245 940.38,611.921 C940.29,612.097 938.4,615.689 931.59,615.689" id="Fill-25" fill="#59B88B"></path>
                <path d="M932.01,459.94 C933.44,459.94 938.38,459.66 941.19,464.5 C944.12,469.542 944.36,476.696 945.99,482.281 C947.64,481.918 949.73,481.588 952.58,480.543 C956.72,479.026 959.96,476.954 970.87,469.174 C973.88,467.029 976.84,464.443 979.88,462.256 C985.1,458.496 990.01,455.51 991.69,454.608 C992.76,454.035 993.73,453.065 994.13,453.558 C994.53,454.051 990.6,456.564 990.67,456.75 C990.74,456.935 992.39,456.021 993.63,455.375 C994.68,454.831 995.1,454.949 995.23,455.248 C995.38,455.601 995.05,455.891 993.85,456.579 C992.78,457.188 991.24,457.961 991.27,458.189 C991.3,458.417 992.04,458.117 993.49,457.562 C994.32,457.246 995.19,456.949 995.23,457.395 C995.28,457.836 994.46,458.255 993.42,458.816 C992.32,459.415 991.08,460.225 991.09,460.436 C991.09,460.646 992.04,460.379 992.84,460.081 C993.98,459.656 994.73,459.572 994.78,459.941 C994.87,460.644 991.73,461.906 990.59,462.355 C989.45,462.805 985.99,464.039 985.07,464.426 C984.15,464.813 983.83,464.956 983.83,464.956 L984.78,467.312 C984.78,467.312 978.53,472.662 975.22,475.443 C971.92,478.224 957.5,491.4 953.29,495.732 C949.07,500.063 952.27,507.381 952.27,512.95 C952.27,519.97 953.29,528.026 952.83,532.572 C952.83,532.572 952.4,532.721 950.7,533.005 C950.95,534.336 951.4,534.599 951.4,541.438 C951.4,559.258 941.24,572.328 941.37,589.805 C941.37,590.451 941.43,592.16 941.43,592.16 C946.16,595.295 952.38,594.583 952.38,599.455 C952.38,600.509 950.18,600.45 948.76,600.45 C947.33,600.45 941.03,599.455 940.07,599.911 C939.92,605.667 948.73,605.838 948.73,611.309 C948.73,612.819 945.24,613.038 942.87,613.038 C940.9,613.038 930.44,609.258 930.44,604.328 C930.44,600.367 931.4,598.544 931.4,598.544 C931.4,598.544 929.92,596.264 929.48,595.694 C929.04,595.124 928.94,593.777 929.39,591.202 C929.84,588.627 929.83,586.695 929.83,583.954 C929.83,581.213 929.44,576.424 929.44,571.188 C929.44,565.951 930.43,561.402 928.56,556.276 C926.69,551.151 921.58,539.881 921.58,521.568 C921.58,518.756 921.83,515.109 921.83,515.109 C921.83,515.109 920.01,514.197 919.55,524.912 C919.09,535.626 918.93,536.981 919.69,539.81 C920.45,542.639 920.41,543.986 920.46,544.744 C920.51,545.503 921.45,546.841 920,548.034 C918.56,549.228 915.52,547.852 913.62,542.625 C912.86,540.518 913.06,536.649 913.08,532.435 C913.1,526.192 913.24,519.188 913.62,516.02 C914.25,510.714 914.92,497.714 921.47,488.893 C925.7,483.194 923.67,477.113 923.53,471.72 C923.35,464.957 926.69,459.94 932.01,459.94" id="Fill-26" fill="#FFFFFF"></path>
                <path d="M1685.66,587.034 C1685.59,587.05 1685.52,587.067 1685.45,587.082 C1682.28,587.757 1679.43,587.98 1675.86,587.98 C1668.81,587.98 1663.09,583.08 1663.09,577.036 L1663.09,529.698 L1686.88,529.698 L1686.88,505.481 L1663.09,505.481 L1663.09,476.734 L1630.26,485.397 L1630.26,505.481 L1616.21,505.481 L1616.21,529.698 L1630.26,529.698 L1630.26,579.103 C1630.26,602.191 1645.39,614.636 1663.85,614.636 C1671.66,614.636 1677.87,613.914 1684.8,611.722 C1685.09,611.63 1685.37,611.535 1685.66,611.438 L1685.66,587.034" id="Fill-27" fill="#59B88B"></path>
                <path d="M1015.9,588.495 C1003.6,588.495 993.63,574.968 993.63,558.284 C993.63,541.599 1003.6,528.072 1015.9,528.072 C1028.2,528.072 1037.25,535.981 1037.25,558.284 C1037.25,580.306 1028.2,588.495 1015.9,588.495 L1015.9,588.495 Z M1036.8,457.205 L1036.8,515.85 C1029.84,506.528 1019.64,502.898 1007.2,502.898 C979.73,502.898 959.9,527.947 959.9,558.905 C959.9,589.863 977.6,614.734 1004.5,614.734 C1017.9,614.734 1029.22,610.371 1036.8,599.936 L1039.08,612.249 L1069.63,612.249 L1069.63,457.205 L1036.8,457.205 L1036.8,457.205 Z" id="Fill-28" fill="#59B88B"></path>
                <path d="M1066.18,442.46 L1066.15,442.46 L1066.09,442.459 C1064.2,442.431 1062.69,440.878 1062.72,438.989 C1062.74,437.101 1064.3,435.57 1066.19,435.621 L1066.23,435.621 C1068.12,435.649 1069.63,437.202 1069.6,439.09 C1069.57,440.961 1068.05,442.46 1066.18,442.46 L1066.18,442.46 Z M1051.74,443.056 C1050.01,443.056 1048.53,441.746 1048.34,439.985 C1048.15,438.107 1049.52,436.427 1051.4,436.234 L1051.49,436.225 C1053.38,436.063 1055.03,437.449 1055.2,439.331 C1055.37,441.212 1053.98,442.871 1052.09,443.037 C1051.98,443.049 1051.86,443.056 1051.74,443.056 L1051.74,443.056 Z M1080.55,443.454 C1080.4,443.454 1080.24,443.444 1080.09,443.423 C1078.21,443.203 1076.88,441.504 1077.1,439.628 C1077.32,437.753 1079.02,436.411 1080.9,436.632 C1080.9,436.632 1080.98,436.642 1081,436.645 C1082.87,436.897 1084.19,438.617 1083.93,440.489 C1083.7,442.207 1082.24,443.454 1080.55,443.454 L1080.55,443.454 Z M1037.5,445.189 C1035.91,445.189 1034.49,444.081 1034.16,442.468 C1033.77,440.62 1034.96,438.808 1036.81,438.422 L1036.9,438.403 C1038.75,438.046 1040.55,439.254 1040.91,441.108 C1041.27,442.962 1040.06,444.756 1038.2,445.116 C1037.97,445.166 1037.73,445.189 1037.5,445.189 L1037.5,445.189 Z M1094.72,446.025 C1094.47,446.025 1094.22,445.997 1093.96,445.941 C1093.94,445.936 1093.88,445.922 1093.86,445.917 C1092.03,445.472 1090.9,443.623 1091.34,441.788 C1091.79,439.953 1093.64,438.824 1095.47,439.27 L1094.67,442.593 L1095.48,439.273 C1097.32,439.685 1098.47,441.51 1098.06,443.354 C1097.7,444.945 1096.28,446.025 1094.72,446.025 L1094.72,446.025 Z M1023.55,448.772 C1022.09,448.772 1020.74,447.828 1020.29,446.358 C1019.73,444.552 1020.75,442.639 1022.55,442.083 L1023.56,445.352 L1022.57,442.079 C1024.36,441.516 1026.29,442.513 1026.85,444.311 C1027.42,446.109 1026.43,448.025 1024.64,448.596 L1024.56,448.62 C1024.23,448.723 1023.89,448.772 1023.55,448.772 L1023.55,448.772 Z M1108.52,450.103 C1108.16,450.103 1107.79,450.044 1107.42,449.921 C1107.4,449.914 1107.34,449.892 1107.32,449.885 C1105.54,449.246 1104.62,447.288 1105.26,445.511 C1105.9,443.733 1107.86,442.81 1109.63,443.449 L1108.48,446.667 L1109.64,443.452 C1111.43,444.057 1112.38,445.994 1111.77,447.783 C1111.29,449.207 1109.95,450.103 1108.52,450.103 L1108.52,450.103 Z M1010.02,453.695 C1008.68,453.695 1007.4,452.898 1006.86,451.579 C1006.14,449.833 1006.97,447.835 1008.71,447.114 L1010.02,450.275 L1008.72,447.11 C1010.46,446.387 1012.47,447.197 1013.2,448.931 C1013.93,450.664 1013.14,452.659 1011.41,453.401 L1011.32,453.435 C1010.9,453.611 1010.45,453.695 1010.02,453.695 L1010.02,453.695 Z M1121.83,455.57 C1121.34,455.57 1120.84,455.464 1120.37,455.238 C1118.67,454.429 1117.92,452.386 1118.72,450.682 C1119.53,448.977 1121.54,448.234 1123.24,449.033 L1123.31,449.062 C1125.01,449.872 1125.74,451.912 1124.92,453.619 C1124.34,454.85 1123.11,455.57 1121.83,455.57 L1121.83,455.57 Z M1134.57,462.278 C1133.98,462.278 1133.38,462.124 1132.83,461.799 C1131.21,460.84 1130.66,458.744 1131.6,457.121 C1132.55,455.498 1134.62,454.934 1136.24,455.872 L1136.32,455.918 C1137.95,456.881 1138.48,458.978 1137.52,460.603 C1136.88,461.68 1135.74,462.278 1134.57,462.278 L1134.57,462.278 Z M1146.68,470.066 C1146,470.066 1145.3,469.859 1144.7,469.428 C1143.15,468.349 1142.77,466.216 1143.85,464.667 C1144.93,463.117 1147.05,462.735 1148.6,463.814 L1148.67,463.863 C1150.21,464.962 1150.57,467.097 1149.47,468.634 C1148.8,469.568 1147.75,470.066 1146.68,470.066 L1146.68,470.066 Z M1158.15,478.776 C1157.38,478.776 1156.61,478.517 1155.97,477.986 C1154.5,476.797 1154.28,474.641 1155.47,473.174 C1156.66,471.708 1158.81,471.482 1160.27,472.672 L1160.34,472.725 C1161.79,473.931 1161.99,476.087 1160.78,477.54 C1160.11,478.355 1159.13,478.776 1158.15,478.776 L1158.15,478.776 Z M1469.2,480.558 C1468.38,480.558 1467.56,480.267 1466.91,479.676 C1465.51,478.411 1465.4,476.254 1466.66,474.852 L1466.69,474.823 C1467.96,473.429 1470.12,473.318 1471.52,474.584 C1472.92,475.85 1473.03,477.999 1471.77,479.399 L1471.74,479.434 C1471.06,480.179 1470.13,480.558 1469.2,480.558 L1469.2,480.558 Z M1168.98,488.262 C1168.15,488.262 1167.33,487.964 1166.67,487.362 L1166.61,487.306 C1165.23,486.012 1165.17,483.848 1166.46,482.472 C1167.75,481.096 1169.92,481.029 1171.29,482.322 L1168.95,484.814 L1171.3,482.332 C1172.68,483.617 1172.77,485.78 1171.49,487.163 C1170.81,487.892 1169.9,488.262 1168.98,488.262 L1168.98,488.262 Z M1459.25,490.983 C1458.39,490.983 1457.52,490.658 1456.86,490.007 C1455.51,488.686 1455.49,486.525 1456.81,485.175 L1456.86,485.118 C1458.2,483.783 1460.36,483.783 1461.7,485.118 C1463.03,486.453 1463.03,488.618 1461.7,489.954 C1461.03,490.639 1460.14,490.983 1459.25,490.983 L1459.25,490.983 Z M1179.21,498.409 C1178.3,498.409 1177.39,498.047 1176.72,497.332 C1175.43,495.961 1175.47,493.789 1176.84,492.494 C1178.2,491.199 1180.34,491.232 1181.64,492.59 L1181.7,492.648 C1182.99,494.025 1182.92,496.188 1181.55,497.481 C1180.89,498.102 1180.05,498.409 1179.21,498.409 L1179.21,498.409 Z M1448.94,501.059 C1448.03,501.059 1447.12,500.697 1446.45,499.982 C1445.16,498.606 1445.22,496.442 1446.6,495.148 L1448.94,497.64 L1446.6,495.143 C1447.95,493.822 1450.11,493.856 1451.43,495.205 C1452.75,496.554 1452.72,498.731 1451.37,500.052 C1451.35,500.068 1451.3,500.115 1451.28,500.131 C1450.62,500.752 1449.78,501.059 1448.94,501.059 L1448.94,501.059 Z M1188.86,509.104 C1187.9,509.104 1186.94,508.702 1186.26,507.918 C1185.03,506.49 1185.17,504.315 1186.6,503.08 C1188.03,501.844 1190.17,501.985 1191.41,503.412 L1191.44,503.45 C1192.68,504.88 1192.52,507.04 1191.09,508.273 C1190.44,508.83 1189.65,509.104 1188.86,509.104 L1188.86,509.104 Z M1198.53,519.797 C1197.63,519.797 1196.74,519.45 1196.07,518.764 C1196.05,518.747 1196,518.697 1195.99,518.68 C1194.69,517.304 1194.76,515.14 1196.14,513.847 C1197.51,512.554 1199.68,512.62 1200.97,513.996 L1198.48,516.338 L1200.98,514.002 C1202.3,515.352 1202.26,517.505 1200.91,518.826 C1200.25,519.474 1199.39,519.797 1198.53,519.797 L1198.53,519.797 Z M1379.32,548.323 L1379.67,548.979 L1379.32,548.323 L1379.32,548.323 Z M1379.67,552.399 C1378.45,552.399 1377.27,551.742 1376.65,550.588 C1375.76,548.923 1376.39,546.854 1378.05,545.964 C1379.69,545.059 1381.76,545.64 1382.68,547.272 C1383.61,548.915 1383.04,551.001 1381.39,551.933 L1381.28,551.997 C1380.76,552.269 1380.21,552.399 1379.67,552.399 L1379.67,552.399 Z M1366.55,554.884 L1366.83,555.509 L1366.55,554.884 L1366.55,554.884 Z M1366.83,558.929 C1365.53,558.929 1364.28,558.181 1363.71,556.917 C1362.94,555.198 1363.7,553.177 1365.41,552.397 C1367.11,551.597 1369.13,552.311 1369.95,554 C1370.77,555.7 1370.06,557.746 1368.36,558.568 L1368.24,558.626 C1367.78,558.832 1367.3,558.929 1366.83,558.929 L1366.83,558.929 Z M1353.57,564.558 C1352.19,564.558 1350.88,563.711 1350.37,562.338 C1349.71,560.569 1350.6,558.599 1352.37,557.936 L1352.41,557.92 C1354.18,557.258 1356.15,558.152 1356.82,559.921 C1357.48,561.689 1356.58,563.66 1354.81,564.323 L1354.77,564.339 C1354.38,564.487 1353.97,564.558 1353.57,564.558 L1353.57,564.558 Z M1339.74,565.073 L1339.9,565.661 L1339.74,565.073 L1339.74,565.073 Z M1339.9,569.082 C1338.39,569.082 1337.02,568.082 1336.6,566.561 C1336.1,564.742 1337.17,562.866 1338.99,562.365 C1340.78,561.843 1342.67,562.861 1343.22,564.657 C1343.76,566.464 1342.74,568.374 1340.94,568.922 L1340.8,568.96 C1340.5,569.043 1340.2,569.082 1339.9,569.082 L1339.9,569.082 Z M1282.97,568.123 L1282.9,568.474 L1282.97,568.123 L1282.97,568.123 Z M1282.95,571.902 C1282.75,571.902 1282.55,571.886 1282.35,571.85 C1282.31,571.844 1282.23,571.827 1282.19,571.819 C1280.34,571.427 1279.16,569.612 1279.55,567.765 C1279.95,565.922 1281.76,564.742 1283.6,565.126 C1285.42,565.481 1286.64,567.236 1286.31,569.077 C1286.02,570.736 1284.58,571.902 1282.95,571.902 L1282.95,571.902 Z" id="Fill-29" fill="#FFFFFF"></path>
                <path d="M1528.15,429.278 L1530.71,427.25 C1531.04,427.307 1531.37,427.342 1531.71,427.342 C1534.79,427.342 1537.29,424.841 1537.29,421.757 C1537.29,418.672 1534.79,416.172 1531.71,416.172 C1528.62,416.172 1526.12,418.672 1526.12,421.757 C1526.12,422.739 1526.38,423.661 1526.82,424.462 L1521.11,428.989 C1508.2,426.258 1486.37,410.094 1475.83,396.738 L1469.07,402.719 C1475.09,415.191 1492.08,432.178 1510.04,437.755 L1492.11,451.964 L1491.74,442.616 C1488.9,442.616 1486.17,447.117 1485.67,453.006 C1485.57,452.978 1485.48,452.952 1485.39,452.924 L1464.73,447.859 L1460.56,451.545 L1481.36,460.475 L1477.85,463.257 L1480.71,466.863 L1486.23,462.49 C1491.93,464.525 1499.05,465.525 1503.67,465.525 C1505.7,465.525 1508.78,464.898 1511.19,464.131 L1513.6,459.125 C1511.8,459.661 1509.74,459.941 1506.33,459.941 C1498.12,459.941 1494.47,455.956 1494.47,455.956 L1515.73,439.117 C1517.67,439.44 1519.61,439.615 1521.54,439.615 C1541.66,439.615 1555.11,427.343 1560.39,415.489 C1553.45,422.743 1541.71,428.414 1528.15,429.278" id="Fill-30" fill="#FFFFFF"></path>
                <path d="M1415.05,546.727 C1415.05,533.979 1426.22,524.629 1435.52,524.629 C1448.08,524.629 1454.35,533.139 1454.74,546.505 L1415.05,546.727 L1415.05,546.727 Z M1413.19,527.654 C1412.07,526.137 1412.39,523.992 1413.91,522.868 L1413.98,522.818 C1415.53,521.708 1417.67,522.064 1418.77,523.601 C1419.86,525.138 1419.51,527.273 1417.97,528.371 C1417.36,528.824 1416.65,529.042 1415.94,529.042 C1414.9,529.042 1413.87,528.562 1413.19,527.654 L1413.19,527.654 Z M1406.17,536.731 L1406.11,536.771 C1405.52,537.17 1404.85,537.361 1404.19,537.361 C1403.1,537.361 1402.02,536.836 1401.36,535.862 C1400.3,534.299 1400.71,532.173 1402.27,531.112 L1402.29,531.102 C1403.84,530.031 1405.97,530.422 1407.04,531.977 C1408.11,533.532 1407.72,535.659 1406.17,536.731 L1406.17,536.731 Z M1425.11,514.159 C1425.15,514.129 1425.22,514.07 1425.26,514.042 C1426.75,512.882 1428.9,513.15 1430.06,514.641 C1431.2,516.115 1430.95,518.231 1429.51,519.399 C1428.87,519.927 1428.1,520.185 1427.33,520.185 C1426.35,520.185 1425.39,519.774 1424.71,518.974 C1423.5,517.532 1423.67,515.378 1425.11,514.159 L1425.11,514.159 Z M1436.04,504.874 L1436.08,504.838 C1437.5,503.59 1439.66,503.728 1440.91,505.146 C1442.15,506.564 1442.02,508.724 1440.6,509.972 C1439.94,510.55 1439.13,510.836 1438.32,510.836 C1437.37,510.836 1436.43,510.449 1435.76,509.689 C1434.51,508.274 1434.62,506.125 1436.04,504.874 L1436.04,504.874 Z M1393.95,544.672 C1393.39,545.023 1392.76,545.19 1392.14,545.19 C1390.99,545.19 1389.87,544.622 1389.22,543.582 C1388.23,541.977 1388.7,539.881 1390.31,538.885 L1390.35,538.861 C1391.95,537.866 1394.06,538.358 1395.05,539.964 C1396.05,541.568 1395.56,543.676 1393.95,544.672 L1393.95,544.672 Z M1484.35,569.524 C1487.54,529.401 1472.6,502.888 1438.09,502.888 C1405.93,502.888 1383.81,527.963 1383.81,558.895 C1383.81,589.825 1402.97,614.901 1438.09,614.901 C1458.31,614.901 1471.16,612.391 1479.29,607.982 L1475.44,585.443 C1466.02,588.506 1453.08,589.812 1444.05,589.812 C1428.28,589.812 1415.05,581.606 1415.5,569.201 L1484.35,569.524 L1484.35,569.524 Z" id="Fill-31" fill="#59B88B"></path>
                <path d="M1354.97,588.427 C1339.31,588.427 1330.3,582.072 1326.38,572.209 C1326.19,572.24 1326.01,572.257 1325.82,572.257 C1324.19,572.257 1322.77,571.088 1322.47,569.428 C1322.19,567.801 1323.11,566.238 1324.6,565.652 C1324.22,563.401 1324.03,561.036 1324.03,558.571 C1324.03,540.651 1334.08,528.468 1354.37,528.468 C1360.87,528.468 1366.54,529.54 1371.32,531.523 L1376.73,506.845 C1369.47,504.524 1361.35,503.185 1352.45,503.185 C1313.25,503.185 1290.32,526.485 1290.32,559.521 C1290.32,591.34 1307.48,614.56 1350.08,614.56 C1359.1,614.56 1368.27,612.621 1376.39,609.95 L1372.65,585.327 C1367.59,587.583 1361.24,588.427 1354.97,588.427" id="Fill-32" fill="#59B88B"></path>
                <path d="M1326.42,572.205 C1328.28,571.922 1329.57,570.179 1329.28,568.311 C1329,566.444 1327.25,565.16 1325.39,565.443 L1325.26,565.464 C1325.03,565.505 1324.81,565.568 1324.6,565.652 C1324.98,567.972 1325.57,570.165 1326.38,572.209 C1326.38,572.209 1326.41,572.206 1326.42,572.205" id="Fill-33" fill="#FFFFFF"></path>
                <path d="M1272.01,565.791 C1271.56,567.269 1270.2,568.22 1268.73,568.22 C1268.41,568.22 1268.07,568.172 1267.74,568.073 C1267.7,568.06 1267.62,568.033 1267.58,568.019 C1265.79,567.406 1264.84,565.46 1265.46,563.674 C1266.07,561.895 1268,560.944 1269.78,561.546 C1271.55,562.116 1272.55,564.004 1272.01,565.791 L1272.01,565.791 Z M1258.43,560.988 C1257.84,562.208 1256.62,562.919 1255.35,562.919 C1254.86,562.919 1254.36,562.814 1253.89,562.591 C1252.18,561.806 1251.42,559.786 1252.2,558.072 C1252.98,556.352 1255,555.587 1256.72,556.363 L1256.84,556.421 C1258.54,557.243 1259.25,559.288 1258.43,560.988 L1258.43,560.988 Z M1245.54,554.559 C1244.9,555.627 1243.77,556.219 1242.61,556.219 C1242.01,556.219 1241.4,556.063 1240.85,555.733 C1239.24,554.763 1238.69,552.662 1239.65,551.044 C1240.61,549.425 1242.67,548.874 1244.3,549.827 L1244.36,549.861 C1245.99,550.839 1246.51,552.94 1245.54,554.559 L1245.54,554.559 Z M1233.31,546.949 C1232.64,547.869 1231.6,548.358 1230.54,548.358 C1229.85,548.358 1229.14,548.146 1228.54,547.704 C1227,546.606 1226.64,544.465 1227.73,542.929 C1228.83,541.392 1230.96,541.031 1232.5,542.13 L1232.56,542.173 C1234.09,543.283 1234.42,545.422 1233.31,546.949 L1233.31,546.949 Z M1221.78,538.316 C1221.1,539.129 1220.13,539.548 1219.15,539.548 C1218.38,539.548 1217.61,539.291 1216.97,538.761 L1216.91,538.712 C1215.47,537.492 1215.29,535.334 1216.51,533.892 C1217.73,532.451 1219.89,532.27 1221.33,533.491 L1221.34,533.502 C1222.79,534.712 1222.98,536.868 1221.78,538.316 L1221.78,538.316 Z M1210.84,528.951 C1210.17,529.635 1209.28,529.978 1208.39,529.978 C1207.54,529.978 1206.69,529.663 1206.03,529.032 C1204.66,527.751 1204.57,525.596 1205.85,524.214 C1207.13,522.824 1209.29,522.732 1210.68,524.01 C1210.7,524.035 1210.76,524.091 1210.79,524.116 C1212.14,525.437 1212.16,527.602 1210.84,528.951 L1210.84,528.951 Z M1275.89,564.54 C1273.05,559.225 1267.93,555.441 1261.52,552.074 C1259.44,550.98 1257.11,549.929 1254.65,549.006 L1254.65,548.999 C1252.43,547.989 1242.5,544.61 1238.4,542.285 C1236.49,541.203 1234.87,539.908 1234.01,538.341 C1233.25,536.98 1232.85,535.427 1232.85,533.776 C1232.85,528.321 1237.89,525.596 1246.1,525.596 C1251.84,525.596 1262.99,527.659 1269.52,531.113 L1274.43,508.733 C1263.16,504.482 1249.8,503.285 1242.73,503.285 C1219.82,503.285 1201.24,518.671 1201.24,536.523 C1201.24,541.928 1202.55,547.008 1205.01,551.464 C1207.85,556.594 1212.97,561.126 1219.38,564.376 C1221.77,565.589 1224.35,566.624 1227.05,567.444 C1230.26,568.777 1238.78,571.863 1242.5,574.05 C1244.41,575.171 1246.03,576.513 1246.89,578.137 C1247.65,579.547 1248.05,581.156 1248.05,582.867 C1248.05,588.518 1243.01,591.799 1234.8,591.799 C1226.21,591.799 1211.79,588.23 1204.54,584.25 L1199.59,607.675 C1211.02,612.499 1225.18,614.458 1235.89,614.458 C1261.65,614.458 1279.66,599.724 1279.66,580.021 C1279.66,574.42 1278.35,569.157 1275.89,564.54 L1275.89,564.54 Z" id="Fill-34" fill="#59B88B"></path>
            </g>
        </g>
    </g>
</svg>