<?xml version="1.0" encoding="UTF-8"?>
<svg viewBox="0 0 378.77 336.17" xmlns="http://www.w3.org/2000/svg">
<defs>
<style>.cls-1,.cls-17,.cls-7,.cls-8{fill:none;}.cls-2{fill:#4bb7bb;}.cls-3{fill:#289d80;}.cls-4{fill:#47cca1;}.cls-5{fill:#00aaad;}.cls-6{fill:#006540;}.cls-7,.cls-8,.cls-9{stroke:#006540;}.cls-12,.cls-13,.cls-17,.cls-7,.cls-8,.cls-9{stroke-miterlimit:10;}.cls-7{stroke-width:0.75px;}.cls-8{stroke-width:1.24px;}.cls-9{fill:#fff;stroke-width:2.9px;}.cls-10{clip-path:url(#c);}.cls-11,.cls-12,.cls-13{fill:#3a9ac2;}.cls-12{stroke:#fff;stroke-width:10.26px;}.cls-13{stroke:#000;stroke-width:6.15px;}.cls-14{clip-path:url(#b);}.cls-15{fill:#d1515e;}.cls-16{fill:#dcdde2;}.cls-17{stroke:#d1515e;stroke-width:1.99px;}.cls-18{clip-path:url(#a);}.cls-19{fill:#d15060;}.cls-20{fill:#dfe0e4;}.cls-21{fill:#46579e;}.cls-22{fill:#d6d7db;}</style>
<clipPath id="c">
<circle class="cls-1" cx="313.93" cy="224.2" r="19.8"/>
</clipPath>
<clipPath id="b">
<circle class="cls-1" cx="58.26" cy="61.86" r="19.8"/>
</clipPath>
<clipPath id="a">
<circle class="cls-1" cx="67.95" cy="242.78" r="19.8"/>
</clipPath>
</defs>
<title>Asset 1</title>
<g data-name="Layer 2">
<g data-name="Layer 1">
<path class="cls-2" d="m339.6 120.53c-7 6.94-16.21 15.23-19.47 8.72-3.11-6.21 4.56-23.19 11.32-27.6a157.12 157.12 0 0 1 8.15 18.88z"/>
<path class="cls-3" d="m270 136.42c18.4-8.58 29 11.12 25.08 14.34l-0.38 0.3c-3.09-6.3-12-13.77-24.7-7.87-7.27 3.39-21.51-3.58-28.67-10.74-3.1-3.11-3.52-8.22-3-13.61a11.48 11.48 0 0 0 3 6.84c7.15 7.16 21.39 14.13 28.67 10.74z"/>
<path class="cls-3" d="M270,301.23c7.16,3.58,17.91-10.74,25.08-10.74a12.05,12.05,0,0,0,2.47-.34c-7.48,4.53-21.81,20.73-27.55,17.85-2.69-1.34-2.87-4.19-1.65-7.8l.17-.14A4.1,4.1,0,0,0,270,301.23Z"/>
<path class="cls-4" d="M239.08,22.18c6.53-.33,13.94,2.62,20.15,6.76,10.76,7.16,28.67,7.16,43,10.74s17.91,17.92,14.33,25.08,10.75,17.91,17.92,17.91,7.16,17.93,0,17.93a5.58,5.58,0,0,0-3,1.06c-6.76,4.41-14.43,21.39-11.32,27.6,3.26,6.51,12.45-1.78,19.47-8.72.7-.71,1.38-1.38,2-2,7.16-7.17,14.33-7.17,14.33,0s3.59,28.66,14.33,39.41S352.39,261.82,341.64,269c-9.3,6.2-32,17.76-42.61,20.77l-.35.1c-.39.11-.77.2-1.13.28h0a12.05,12.05,0,0,1-2.47.34c-7.17,0-17.92,14.32-25.08,10.74a4.1,4.1,0,0,1-1.48-1.17c-3.84-4.88,5.68-17.68,12.22-27.48a20.9,20.9,0,0,0,3.16-9.59c1.05-10.3-3.16-22.28-6.74-26.25-19.71-21.85-39.41-10.75-46.58-14.33-2.47-1.24-3.49-3.71-3.82-6.86-.48-4.52.45-10.46.5-16.25a37.6,37.6,0,0,0-.27-5.55c-7.22-55.95,42.54-22.71,67.71-42.69l.38-.3c3.9-3.22-6.68-22.92-25.08-14.34-7.27,3.39-21.51-3.58-28.67-10.74a11.48,11.48,0,0,1-3-6.84c-.85-6.42,1.33-14.69,2.43-20.65a29,29,0,0,0,.56-4.76c0-7.17-26-17.72-28.66-32.25a52.2,52.2,0,0,1-.72-5.34C209.54,25.86,238.38,22.22,239.08,22.18Z"/>
<path class="cls-3" d="M226.75,215.55c.33,3.15,1.35,5.62,3.82,6.86,7.17,3.58,26.87-7.52,46.58,14.33,3.58,4,7.79,15.95,6.74,26.25-.73-8.31-3.93-16.36-6.74-19.48-19.71-21.85-39.41-10.74-46.58-14.33-4.06-2-4.21-7.35-3.83-13.63Z"/>
<path class="cls-3" d="m212.66 61.18c2.69 14.53 28.66 25.08 28.66 32.25a29 29 0 0 1 -0.56 4.76c-3.9-7.08-25.62-17-28.07-30.23a45.11 45.11 0 0 1 -0.73 -12.11 52.2 52.2 0 0 0 0.7 5.33z"/>
<path class="cls-5" d="M135.09,268.59c3-6-1.58-29.76-7.37-39.31,10.38,1.32,62.66,4.16,99.53-30-.05,5.79-1,11.73-.5,16.25h0c-.38,6.28-.23,11.61,3.83,13.63,7.17,3.59,26.87-7.52,46.58,14.33,2.81,3.12,6,11.17,6.74,19.48a20.9,20.9,0,0,1-3.16,9.59c-6.54,9.8-16.06,22.6-12.22,27.48l-.17.14c-1.22,3.61-1,6.46,1.65,7.8,5.74,2.88,20.07-13.32,27.55-17.85h0c.36-.08.74-.17,1.13-.28l.35-.1h0A159.6,159.6,0,0,1,133.21,323.3l.18-.44c4.42,1.75,8.29,2,9.92.36,3.58-3.59,6.1-18.8-1.05-29.55q-2.07-3.07-3.69-5.79C134,280.19,132.19,274.38,135.09,268.59Z"/>
<path class="cls-2" d="M227.25,199.3c-36.87,34.14-89.15,31.3-99.53,30a10.25,10.25,0,0,0-3.16-3.57c-1.59-3.46-3.32-6-5.06-6.88-7.16-3.58-21.49,3.58-25.08,7.16-2.59,2.6-16.41-.44-23.88-5-.65-6.15-6.93-6.67-3.53-16.87,3.59-10.75,14.33-7.16,10.75-17.92-1-3.07-3.24-5.87-5.52-8.44-1.58-3.31-4.37-6.28-6.87-9-.84-2.64.25-5.14,5.23-7.62,14.33-7.17,25.08-17.92,32.24-25.08s21.49-10.75,17.92-21.5c-3.14-9.41-.79-38-9.75-42.62l-.13,0c-1.72-5.19-4.51-8.38-9.29-7.19-14.34,3.59-28.66,17.91-25.08,7.17,1.6-4.8.34-7.46-1.55-8.93A158.94,158.94,0,0,1,189.37,14.6c15.65,0,35,3.27,49.71,7.58-.7,0-29.54,3.68-27.14,33.66h0A45.11,45.11,0,0,0,212.66,68c2.45,13.22,24.17,23.15,28.07,30.23h0c-1.1,6-3.28,14.23-2.43,20.65-.53,5.39-.11,10.5,3,13.61,7.16,7.16,21.4,14.13,28.67,10.74,12.66-5.9,21.61,1.57,24.7,7.87-25.17,20-74.93-13.26-67.71,42.69A37.6,37.6,0,0,1,227.25,199.3Z"/>
<path class="cls-3" d="m137.42 286.9c-7.17-10.75-10.75-17.91-7.17-25.08 2.71-5.43-0.74-25.25-5.69-36.11a10.25 10.25 0 0 1 3.16 3.57c5.79 9.55 10.38 33.29 7.37 39.31-2.9 5.79-1.11 11.6 3.48 19.29l-0.39 0.23c-0.25-0.42-0.5-0.81-0.76-1.21z"/>
<path class="cls-3" d="M118.16,310.64c-3.9-5.85-12.67-10.19-22.71-10.64,9.59-.52,16.59-1,20.47,4.81,7.17,10.76,21.5,17.92,25.08,14.34s3.58-20.2-2.82-31l.39-.23q1.62,2.72,3.69,5.79c7.15,10.75,4.63,26,1.05,29.55-1.63,1.63-5.5,1.39-9.92-.36A34.22,34.22,0,0,1,118.16,310.64Z"/>
<path class="cls-5" d="M91.89,300.19l3.56-.19c10,.45,18.81,4.79,22.71,10.64a34.22,34.22,0,0,0,15.23,12.22l-.18.44a158.59,158.59,0,0,1-41.32-23.09Z"/>
<path class="cls-3" d="m65.76 154.33c14.34-7.16 25.08-17.91 32.24-25.07s21.49-10.75 17.91-21.5c-2.39-7.16-1.6-25.45-5-35.81h0.13c9 4.6 6.61 33.21 9.75 42.62 3.57 10.75-10.75 14.33-17.92 21.5s-17.94 17.87-32.27 25.04c-5 2.48-6.07 5-5.23 7.62-4.89-5.39-8.61-9.9 0.39-14.4z"/>
<path class="cls-4" d="M98,129.26c-7.17,7.16-17.91,17.91-32.25,25.07-9,4.5-5.28,9-.39,14.4,2.5,2.73,5.29,5.7,6.87,9a15.06,15.06,0,0,1,.69,1.67c3.58,10.76-7.17,7.17-10.76,17.92s3.59,10.75,3.59,17.92c0,2,1.93,4,4.78,5.72,7.47,4.58,21.29,7.62,23.88,5,3.59-3.58,17.92-10.74,25.08-7.16,1.74.87,3.47,3.42,5.06,6.88,4.95,10.86,8.4,30.68,5.69,36.11-3.58,7.17,0,14.33,7.17,25.08.26.4.51.79.76,1.21,6.4,10.84,6.26,27.59,2.82,31s-17.91-3.58-25.08-14.34C112,299,105,299.48,95.45,300l-3.56.19c-7.45.33-16.23.29-26.13-2.54-25.08-7.16-21.5-39.41-21.5-50.15V222.41c0-6.29-2.76-7-10.71-14.42-1.1-1-2.31-2.18-3.62-3.5-10.75-10.74-3.58-28.65-7.16-43C20,150.2,26,150,32.23,147a17.75,17.75,0,0,0,4.86-3.37c7.17-7.17,10.76-14.33,7.17-21.5-1-2-2.22-3.93-3.45-6-3.25-5.59-6.32-12.21-3.72-22.62C40.68,79.1,60.62,55.79,75,63c1.89,1.47,3.15,4.13,1.55,8.93-3.58,10.74,10.74-3.58,25.08-7.17,4.78-1.19,7.57,2,9.29,7.19,3.44,10.36,2.65,28.65,5,35.81C119.5,118.51,105.17,122.09,98,129.26Z"/>
<path class="cls-3" d="m65.76 215.25c0-7.17-7.17-7.17-3.59-17.92s14.34-7.16 10.76-17.92a15.06 15.06 0 0 0 -0.69 -1.67c2.28 2.57 4.5 5.37 5.52 8.44 3.58 10.76-7.16 7.17-10.75 17.92-3.4 10.2 2.88 10.72 3.53 16.87-2.85-1.76-4.78-3.74-4.78-5.72z"/>
<path class="cls-2" d="m44.26 122.09c3.59 7.17 0 14.33-7.17 21.5a17.75 17.75 0 0 1 -4.86 3.41 158.8 158.8 0 0 1 8.58 -30.9c1.19 2.06 2.47 4.02 3.45 5.99z"/>
<path class="cls-5" d="M44.26,240.19A158.1,158.1,0,0,1,33.55,208c8,7.37,10.71,8.13,10.71,14.42Z"/>
<path class="cls-6" d="M300.63,290.18a109.32,109.32,0,0,0,12.54-5.51q6.12-3.06,12.08-6.42c4-2.25,7.92-4.52,11.76-6.94q1.44-.9,2.85-1.83c.47-.31.94-.62,1.39-.94l.69-.48.35-.24a2.1,2.1,0,0,0,.28-.22,10.31,10.31,0,0,0,1.75-2.13,31.15,31.15,0,0,0,1.62-2.78,113,113,0,0,0,5.39-12.29c1.62-4.22,3.09-8.51,4.48-12.82,2.77-8.64,5.34-17.36,7.54-26.15q1.66-6.6,3.07-13.24c.93-4.42,1.82-8.84,2.52-13.27a123,123,0,0,0,1.47-13.18,44.77,44.77,0,0,0-.1-6.27,15.5,15.5,0,0,0-.45-2.7,4.16,4.16,0,0,0-.62-1.48L367,158.8c-.77-1-1.6-2-2.29-3.08a50.43,50.43,0,0,1-3.72-6.51,77.12,77.12,0,0,1-5-13.68c-.59-2.33-1.13-4.68-1.53-7.06a67.3,67.3,0,0,1-.92-7.28c-.06-.61-.07-1.29-.09-1.94,0-.15,0-.38,0-.45l0-.22c0-.14,0-.31,0-.42-.08-.49-.22-.48,0-.3,0,0,.06,0,.08,0a.17.17,0,0,0,.06.06h.07s0,0,0,0l0,0a.06.06,0,0,1-.06,0s-.07,0-.19,0a5.14,5.14,0,0,0-1.69.48,16.47,16.47,0,0,0-4.33,3l-4.89,4.76c-1.72,1.63-3.48,3.24-5.43,4.8a29.43,29.43,0,0,1-6.83,4.31,13.22,13.22,0,0,1-2.44.77,10.46,10.46,0,0,1-1.46.21,9.94,9.94,0,0,1-1.71-.05A7.83,7.83,0,0,1,321,135a8.39,8.39,0,0,1-1.4-1.23,10.82,10.82,0,0,1-1-1.32,9.58,9.58,0,0,1-.7-1.35l-.28-.72c-.08-.23-.13-.45-.19-.67l-.18-.68-.1-.63a9.47,9.47,0,0,1-.14-1.23,19.94,19.94,0,0,1,.23-4.38,37.31,37.31,0,0,1,2.07-7.51,46.9,46.9,0,0,1,3.25-6.78,38.84,38.84,0,0,1,4.44-6.28,21.61,21.61,0,0,1,3.08-2.92A11.73,11.73,0,0,1,334.9,97a7.65,7.65,0,0,1,.87-.11l.44,0h.21s0,0,0,0-.08,0,0,0a2.57,2.57,0,0,0,.72-1.1,11,11,0,0,0,.68-4.87,10.14,10.14,0,0,0-.44-2.4,4.38,4.38,0,0,0-.76-1.46c-.1-.08-.13-.14-.13-.12s0,0,0,0a0,0,0,0,1,0,0h-.32a15.52,15.52,0,0,1-4.43-.89,29.49,29.49,0,0,1-7-3.63,32.1,32.1,0,0,1-5.8-5.1,17.11,17.11,0,0,1-4.11-7.52,9.2,9.2,0,0,1,.38-5.28l.68-1.56a8.43,8.43,0,0,0,.39-1.2,13.52,13.52,0,0,0,.11-5.5,18.09,18.09,0,0,0-1.91-5.44,17.41,17.41,0,0,0-8.82-7.54,47.6,47.6,0,0,0-6.24-1.76c-2.18-.51-4.4-.93-6.63-1.37-4.47-.87-9-1.67-13.52-2.68a64.22,64.22,0,0,1-13.36-4.24c-1.09-.45-2.11-1.09-3.15-1.64s-2-1.31-2.91-2A47.6,47.6,0,0,0,254,26.07a30,30,0,0,0-13-3.57,29.66,29.66,0,0,1,13.56,2.33,46,46,0,0,1,6.27,3.07c1,.62,2,1.1,2.93,1.64s2,.94,3.06,1.28a67.72,67.72,0,0,0,13,3.11c4.47.68,9,1.16,13.57,1.73,2.29.3,4.58.63,6.88,1a53.18,53.18,0,0,1,7.06,1.6,24,24,0,0,1,6.82,3.6,22.44,22.44,0,0,1,5.3,5.77,22.69,22.69,0,0,1,3,7.3,19.79,19.79,0,0,1,.11,8.12,16.29,16.29,0,0,1-.58,2.09l-.41,1c-.19.45-.17.46-.22.57a2.53,2.53,0,0,0,0,1.47,10.83,10.83,0,0,0,2.7,4.23A24.88,24.88,0,0,0,334,78.74a8.9,8.9,0,0,0,2.27.41l.54,0,.83.07a7.93,7.93,0,0,1,1.65.46,8.1,8.1,0,0,1,2.7,1.76,11.85,11.85,0,0,1,2.72,4.4,18.43,18.43,0,0,1,.93,4.3,19,19,0,0,1-1.09,8.62,10.64,10.64,0,0,1-3.17,4.46,7.8,7.8,0,0,1-3.06,1.52,7.37,7.37,0,0,1-1.72.25h-.21s0,0,0,0h0s0,0,0,0a4.63,4.63,0,0,0-1.25.77,13.52,13.52,0,0,0-1.84,1.86,31.11,31.11,0,0,0-3.34,5,36.32,36.32,0,0,0-4.1,11.36,11.87,11.87,0,0,0-.11,2.46,2.85,2.85,0,0,0,.06.47l0,.21.05.16,0,.14a.3.3,0,0,1,0,.08c0,.06.06.11.09.18s.05,0,0,.06-.05,0-.11-.11a1.55,1.55,0,0,0-.4-.18,4.18,4.18,0,0,0,1.06-.33,22.55,22.55,0,0,0,4.68-3.07c1.62-1.31,3.23-2.79,4.83-4.31l4.92-4.84a25.36,25.36,0,0,1,6.88-4.75,13.77,13.77,0,0,1,4.92-1.22,8,8,0,0,1,1.53,0c.26,0,.52,0,.78.09l.85.23.83.26a9.23,9.23,0,0,1,.83.42c.28.15.55.31.81.47a8.3,8.3,0,0,1,.73.6c.24.21.47.43.69.65a7.48,7.48,0,0,1,.55.71,7.41,7.41,0,0,1,.87,1.48,9.88,9.88,0,0,1,.55,1.47c.11.47.22.93.31,1.4s.08.86.11,1.29l.05,1c0,.49,0,1,.06,1.48a59.57,59.57,0,0,0,.78,6.34c.35,2.13.84,4.25,1.34,6.36a68.51,68.51,0,0,0,4.24,12.13,41.4,41.4,0,0,0,3,5.44c.55.87,1.18,1.62,1.76,2.45l2.29,2.63a12.24,12.24,0,0,1,2.15,4.73,24,24,0,0,1,.6,4.07,51.25,51.25,0,0,1-.05,7.45,128.05,128.05,0,0,1-1.88,14,266.09,266.09,0,0,1-6.59,27c-2.62,8.85-5.46,17.63-8.76,26.26-1.65,4.31-3.39,8.6-5.27,12.84a111.29,111.29,0,0,1-6.34,12.51,34.84,34.84,0,0,1-2,3,13.43,13.43,0,0,1-2.85,2.92,4.54,4.54,0,0,1-.42.27l-.38.23-.75.45-1.51.88c-1,.58-2,1.13-3.05,1.68q-6.11,3.27-12.37,6.14c-4.18,1.92-8.4,3.75-12.67,5.44A99.52,99.52,0,0,1,300.63,290.18Z"/>
<path class="cls-6" d="M300.63,290.18a15.31,15.31,0,0,1-3.68.74,8.85,8.85,0,0,0-3.5,1,43.37,43.37,0,0,0-6.19,4.1c-2,1.48-4,3-6.15,4.35a22,22,0,0,1-3.42,1.75,9.06,9.06,0,0,1-4,.66,5.73,5.73,0,0,1-3.8-1.82,5.61,5.61,0,0,1-1.2-4.1,21.26,21.26,0,0,1,2.3-7.45,120.13,120.13,0,0,1,7.68-13l2.05-3.13a23.12,23.12,0,0,0,1.78-3.05,20.93,20.93,0,0,0,1.73-6.73,39.6,39.6,0,0,0-1.48-14.2,40.92,40.92,0,0,0-2.45-6.73,22.92,22.92,0,0,0-1.68-3,10.63,10.63,0,0,0-1-1.25c-.41-.44-.82-.89-1.25-1.31a41.06,41.06,0,0,0-11.45-8.4,35,35,0,0,0-13.6-3.34,62.22,62.22,0,0,0-7.21.12c-2.46.15-4.92.45-7.67.42a12.78,12.78,0,0,1-4.5-.77,8.94,8.94,0,0,1-2.22-1.34,9.1,9.1,0,0,1-1.68-2,12,12,0,0,1-1.58-4.35,24.66,24.66,0,0,1-.36-4.11c0-5.28.65-10.18.58-14.94,0-1.18-.08-2.35-.21-3.49s-.31-2.5-.42-3.75a68.47,68.47,0,0,1-.37-7.74,43.37,43.37,0,0,1,.72-7.89,25.29,25.29,0,0,1,2.71-7.79,18.87,18.87,0,0,1,5.72-6.37,24.07,24.07,0,0,1,7.61-3.4c5.26-1.36,10.44-1.48,15.48-1.56s10,0,14.85-.21a52.23,52.23,0,0,0,14-2.35,28.42,28.42,0,0,0,6.2-2.93c.48-.31.94-.64,1.4-1l.67-.52.3-.22a.4.4,0,0,0-.11.12c-.08.15,0-.06,0-.39a5,5,0,0,0-.18-1.22,14.12,14.12,0,0,0-3.07-5.44,15.86,15.86,0,0,0-5.13-3.9,14.4,14.4,0,0,0-6.21-1.37,18.15,18.15,0,0,0-6.46,1.3c-.27.11-.53.2-.79.32l-.87.37a11.1,11.1,0,0,1-2.24.69,15.29,15.29,0,0,1-4.35.2,29,29,0,0,1-7.87-1.89,48.42,48.42,0,0,1-13.48-7.86,36.74,36.74,0,0,1-2.93-2.68,11.51,11.51,0,0,1-2.43-3.8,20.75,20.75,0,0,1-1.2-8.15c.18-5.29,1.37-10.25,2.38-15.1.26-1.22.5-2.42.7-3.6.1-.59.19-1.18.26-1.75,0-.28.06-.57.06-.84l0-.4a.87.87,0,0,0,0-.23,5.31,5.31,0,0,0-1.32-2.41,24,24,0,0,0-2.45-2.5c-3.61-3.22-7.7-6.17-11.54-9.44s-7.63-6.8-10.31-11.33a20.46,20.46,0,0,1-1.66-3.58,17.82,17.82,0,0,1-.86-3.84,48.32,48.32,0,0,1-.54-7.6,31.82,31.82,0,0,1,3.55-14.76A27.87,27.87,0,0,1,226.89,27.3,37,37,0,0,1,241,22.5a36.44,36.44,0,0,0-13.77,5.4,27.5,27.5,0,0,0-9.75,10.76,30.36,30.36,0,0,0-2.88,14.18,45.89,45.89,0,0,0,.77,7.29,16.35,16.35,0,0,0,.89,3.42,18.92,18.92,0,0,0,1.61,3.13,31.65,31.65,0,0,0,4.6,5.52A69.08,69.08,0,0,0,228,77c3.84,3.11,8,5.88,11.88,9.19A27.38,27.38,0,0,1,242.75,89a8.46,8.46,0,0,1,2.17,4.09,5.67,5.67,0,0,1,.06.71v.53c0,.36,0,.68-.05,1-.06.67-.14,1.32-.23,2-.18,1.28-.41,2.53-.65,3.76-.93,4.91-1.94,9.75-2,14.46a17,17,0,0,0,1,6.54,7.44,7.44,0,0,0,1.62,2.43,32.67,32.67,0,0,0,2.64,2.32,46,46,0,0,0,12.37,7,24.77,24.77,0,0,0,6.66,1.53,10.81,10.81,0,0,0,3.09-.17,6.67,6.67,0,0,0,1.33-.42l.15-.06.23-.11.47-.21c.3-.14.62-.26.94-.39a22.79,22.79,0,0,1,8.11-1.71A19.29,19.29,0,0,1,289,134a20.71,20.71,0,0,1,6.77,5,18.55,18.55,0,0,1,4.21,7.48,10,10,0,0,1,.33,2.47,5.57,5.57,0,0,1-.9,3.19,4.61,4.61,0,0,1-.73.81l-.44.35-.81.63c-.55.4-1.1.79-1.67,1.16a33.35,33.35,0,0,1-7.28,3.49,57.23,57.23,0,0,1-15.37,2.67c-5.11.29-10.14.21-15.07.28s-9.8.26-14.23,1.4a18.94,18.94,0,0,0-6,2.61,13.83,13.83,0,0,0-4.2,4.66,20.71,20.71,0,0,0-2.18,6.27,39.16,39.16,0,0,0-.66,7,67,67,0,0,0,.32,7.2c0,.61.12,1.21.19,1.81l.21,1.87a38.37,38.37,0,0,1,.22,4c.06,5.23-.71,10.25-.73,15,0,2.3.26,4.6,1.12,6a3.93,3.93,0,0,0,.73.88,4,4,0,0,0,1,.6,8.13,8.13,0,0,0,2.83.47c2.25.06,4.76-.19,7.28-.32a66.56,66.56,0,0,1,7.74,0,38.48,38.48,0,0,1,15.19,4,45.17,45.17,0,0,1,12.38,9.46c.45.46.87.95,1.31,1.42a15,15,0,0,1,1.28,1.72,28.4,28.4,0,0,1,1.9,3.55,45.11,45.11,0,0,1,2.51,7.37,43.14,43.14,0,0,1,1.14,15.45,24.44,24.44,0,0,1-2.21,7.63,26.83,26.83,0,0,1-2.09,3.34l-2.14,3.07a126.58,126.58,0,0,0-8,12.45,19.67,19.67,0,0,0-2.4,6.66,4,4,0,0,0,.68,2.94,4.21,4.21,0,0,0,2.74,1.42c2.21.27,4.55-.79,6.66-2s4.18-2.64,6.24-4a43.89,43.89,0,0,1,6.5-3.81,9.27,9.27,0,0,1,3.67-.86A15.43,15.43,0,0,0,300.63,290.18Z"/>
<path class="cls-6" d="M242.67,98.51a22,22,0,0,0-4.75-4.74c-1.74-1.42-3.57-2.74-5.38-4.08A102.68,102.68,0,0,1,222.08,81a38.69,38.69,0,0,1-4.45-5.19,20.21,20.21,0,0,1-2.94-6.18,44.12,44.12,0,0,1-.8-13.5,42.25,42.25,0,0,0,.11,6.75c.11,1.12.25,2.23.44,3.34a22.24,22.24,0,0,0,.71,3.28,20.11,20.11,0,0,0,3.12,5.85,40.48,40.48,0,0,0,4.45,5C226,83.45,229.48,86.27,233,89c1.76,1.41,3.52,2.83,5.22,4.33.85.75,1.66,1.55,2.43,2.38A12.22,12.22,0,0,1,242.67,98.51Z"/>
<path class="cls-6" d="M296.64,151.38a19.79,19.79,0,0,0-6.32-6.73,17.15,17.15,0,0,0-8.63-2.8,21.12,21.12,0,0,0-8.95,1.78,14.55,14.55,0,0,1-2.27.84,12.49,12.49,0,0,1-2.41.34,20.09,20.09,0,0,1-4.78-.46,38.19,38.19,0,0,1-8.91-3.26,48.81,48.81,0,0,1-8-5.08,34.25,34.25,0,0,1-3.54-3.17,10.47,10.47,0,0,1-2.28-4.25,17.22,17.22,0,0,1-.6-4.72,32,32,0,0,1,.33-4.7,26.53,26.53,0,0,0,.82,9.25,9.88,9.88,0,0,0,2.28,3.9,36.53,36.53,0,0,0,3.48,3.07,49.23,49.23,0,0,0,7.88,5,37.08,37.08,0,0,0,8.72,3.18c3,.61,6.2.77,8.94-.69a20.42,20.42,0,0,1,9.34-1.91A17.5,17.5,0,0,1,296.64,151.38Z"/>
<path class="cls-6" d="M285.88,263.74a49.62,49.62,0,0,0-2.35-10.59,40.55,40.55,0,0,0-2.06-5,17.63,17.63,0,0,0-3-4.43c-4.86-5.32-10.88-9.71-17.78-11.83a38.94,38.94,0,0,0-10.63-1.68c-3.6-.12-7.21.24-10.85.45a20,20,0,0,1-5.55-.27,6.54,6.54,0,0,1-4.4-3.55,13.32,13.32,0,0,1-1.06-5.49,32.11,32.11,0,0,1,.46-5.46c.09,1.82.1,3.64.26,5.43a14.22,14.22,0,0,0,1.2,5.1,5.54,5.54,0,0,0,3.75,3.14,19,19,0,0,0,5.29.26c3.61-.21,7.26-.56,10.93-.44A39.18,39.18,0,0,1,261,231.12c7.05,2.2,13.16,6.72,18.05,12.12a17.72,17.72,0,0,1,3,4.65,37.76,37.76,0,0,1,2,5.12A46.25,46.25,0,0,1,285.88,263.74Z"/>
<path class="cls-6" d="M299.5,290.46a45.47,45.47,0,0,0-4.14,3.31c-1.34,1.15-2.66,2.33-4,3.51-2.62,2.39-5.3,4.7-8.1,6.91a38.9,38.9,0,0,1-4.43,3,12.27,12.27,0,0,1-5.14,1.86,4,4,0,0,1-1.45-.2,4.2,4.2,0,0,1-1.26-.71,4.24,4.24,0,0,1-1.52-2.37,6.6,6.6,0,0,1,0-2.73,13.22,13.22,0,0,1,.79-2.55,10,10,0,0,0-.28,5.14,3.57,3.57,0,0,0,1.42,1.94,3.41,3.41,0,0,0,2.24.65,11.4,11.4,0,0,0,4.72-1.82c1.5-.89,2.9-1.95,4.32-3,2.81-2.11,5.46-4.46,8.21-6.69A62.77,62.77,0,0,1,299.5,290.46Z"/>
<path class="cls-6" d="M93.83,300.51c4.77-.31,9.52-1,14.37-.72a15.11,15.11,0,0,1,7,2,10.89,10.89,0,0,1,2.77,2.56c.41.51.72,1,1.07,1.44s.72.93,1.1,1.38a40.93,40.93,0,0,0,10.76,9,26.93,26.93,0,0,0,6.31,2.72c2.12.56,4.6.71,5.17-.74a10,10,0,0,0,1-3,24.82,24.82,0,0,0,.41-3.37,42.07,42.07,0,0,0-.24-6.91,41.3,41.3,0,0,0-3.71-13.24,26.38,26.38,0,0,0-1.67-2.93l-2-3c-1.33-2-2.62-4.08-3.81-6.26a33.67,33.67,0,0,1-2.95-7,16.44,16.44,0,0,1-.24-8.08,18.74,18.74,0,0,1,.65-2l.4-.94.1-.23.05-.14.1-.27a11.62,11.62,0,0,0,.47-3,41.24,41.24,0,0,0-.29-6.8A92.4,92.4,0,0,0,128,237.33c-.61-2.25-1.31-4.48-2.11-6.64a40.71,40.71,0,0,0-2.81-6.16,13.06,13.06,0,0,0-1.76-2.46,2.84,2.84,0,0,0-.45-.42c-.07-.06-.15-.14-.21-.18a.78.78,0,0,1-.18-.11,2.57,2.57,0,0,0-.53-.22l-.59-.23a13.82,13.82,0,0,0-6,.05,33.37,33.37,0,0,0-6.37,2,42,42,0,0,0-6,3.05,18.93,18.93,0,0,0-2.54,1.84l-.25.23-.27.23-.4.31a3.47,3.47,0,0,1-.75.43,3.52,3.52,0,0,1-.7.28l-.64.19-.6.11a7.61,7.61,0,0,1-1.12.14,23.35,23.35,0,0,1-4-.12c-1.29-.14-2.54-.36-3.77-.61a49.94,49.94,0,0,1-14.19-5.2,22.07,22.07,0,0,1-3.33-2.33,9.41,9.41,0,0,1-2.87-3.91c-.08-.23-.16-.47-.22-.71a6.83,6.83,0,0,1-.11-.79l-.08-.95a6.59,6.59,0,0,0-.18-1.27,9.23,9.23,0,0,0-1.23-2.49,28.6,28.6,0,0,1-2-3.36,10.8,10.8,0,0,1-1.09-4.43,15.35,15.35,0,0,1,.42-4.24,25,25,0,0,1,1.22-3.86,16,16,0,0,1,5.18-6.59c1.07-.82,2.18-1.5,3.12-2.12a8,8,0,0,0,2.08-1.69,2.7,2.7,0,0,0,.46-1.78,10.62,10.62,0,0,0-.6-2.8,18.56,18.56,0,0,0-3.19-5.41c-1.39-1.76-3-3.46-4.63-5.28-.81-.92-1.64-1.88-2.43-2.95A14.28,14.28,0,0,1,60.15,163a7.57,7.57,0,0,1-.33-2.65,6.87,6.87,0,0,1,.74-2.69,10,10,0,0,1,3.19-3.42c.58-.41,1.16-.76,1.74-1.09l1.68-.88c1-.54,2.07-1,3.08-1.63a94.62,94.62,0,0,0,11.67-7.72c3.73-2.85,7.27-6,10.73-9.19,1.73-1.61,3.43-3.26,5.14-4.93l.64-.63.71-.66c.48-.44,1-.86,1.47-1.25,1-.79,2-1.51,3-2.2,2-1.37,4.09-2.6,6-3.9a24.68,24.68,0,0,0,5.09-4.23,7,7,0,0,0,1.84-5.27,17.79,17.79,0,0,0-.74-3.22,36.12,36.12,0,0,1-.65-3.71c-.62-4.88-.78-9.65-1.12-14.41a98,98,0,0,0-1.73-14,21.4,21.4,0,0,0-2.28-6.36,5.43,5.43,0,0,0-4.87-3.09,3,3,0,0,0-.78.07,7.82,7.82,0,0,0-.8.13c-.56.14-1.13.27-1.69.44-1.12.31-2.23.71-3.33,1.12-2.2.84-4.35,1.83-6.48,2.89s-4.22,2.2-6.33,3.33c-1.06.56-2.12,1.13-3.22,1.64a16.75,16.75,0,0,1-1.69.71,5.08,5.08,0,0,1-1.91.39,1.42,1.42,0,0,1-1.06-.46,1.78,1.78,0,0,1-.35-1,6.65,6.65,0,0,1,.3-1.87,24.53,24.53,0,0,0,1-3.42,8,8,0,0,0-.06-3.5,5.57,5.57,0,0,0-1.9-2.93A5.73,5.73,0,0,1,79,66.21a8.32,8.32,0,0,1,.26,3.61,26.39,26.39,0,0,1-.82,3.51A5.74,5.74,0,0,0,78.26,75a1.17,1.17,0,0,0,.2.62.76.76,0,0,0,.55.16,4.63,4.63,0,0,0,1.57-.41c.54-.21,1.06-.48,1.59-.74,1-.55,2.07-1.15,3.1-1.75,2.06-1.21,4.12-2.44,6.22-3.6S95.75,67,98,66.06c1.12-.47,2.25-.93,3.42-1.3.57-.21,1.17-.37,1.76-.54a9,9,0,0,1,1-.2,4.15,4.15,0,0,1,1-.13,6.58,6.58,0,0,1,4,1A8.78,8.78,0,0,1,112,67.73a23.2,23.2,0,0,1,2.85,7c2.36,9.54,2.34,19.29,3.74,28.54a33.8,33.8,0,0,0,.68,3.33,18.67,18.67,0,0,1,.92,3.75,10.17,10.17,0,0,1-.45,4.3,11.88,11.88,0,0,1-2.07,3.67,27.79,27.79,0,0,1-5.77,5.07c-2,1.41-4,2.69-5.94,4-1,.66-1.87,1.35-2.73,2.06a16.48,16.48,0,0,0-1.24,1.1l-.59.57-.63.64c-1.68,1.71-3.37,3.43-5.1,5.11a141.42,141.42,0,0,1-10.94,9.62,98.8,98.8,0,0,1-12.13,8.25c-1.06.63-2.15,1.19-3.24,1.77l-1.48.8a14.34,14.34,0,0,0-1.29.83,5.25,5.25,0,0,0-1.69,1.75,2.06,2.06,0,0,0-.05,1.63,9.34,9.34,0,0,0,1.38,2.4c.64.85,1.37,1.71,2.15,2.57,1.56,1.74,3.25,3.5,4.84,5.49a23.64,23.64,0,0,1,4,6.9,15.62,15.62,0,0,1,.87,4.2,8.63,8.63,0,0,1-.25,2.53,7.37,7.37,0,0,1-1.18,2.46A12.81,12.81,0,0,1,73.31,191c-1.06.69-2,1.27-2.81,1.91a10.94,10.94,0,0,0-3.57,4.56,22.06,22.06,0,0,0-.92,3,10.84,10.84,0,0,0-.29,2.87c0,1.81.86,3.05,2.32,5.25a14.3,14.3,0,0,1,1.85,3.95c.4,1.38.37,3.57.46,3.35a4.74,4.74,0,0,0,1.39,1.75,17.14,17.14,0,0,0,2.55,1.78,45.09,45.09,0,0,0,12.64,4.67,25.3,25.3,0,0,0,6.41.67,5.63,5.63,0,0,0,.65-.07l.29,0,.22-.07a.28.28,0,0,0,.13,0s.09,0,0,0l0,0v0l.09-.08.41-.37a22.78,22.78,0,0,1,3.26-2.36,47.37,47.37,0,0,1,6.79-3.41,36.4,36.4,0,0,1,7.34-2.17,18.47,18.47,0,0,1,8.22.15l1.08.41a5.48,5.48,0,0,1,1.1.53l.58.36c.18.13.32.27.48.4a6.52,6.52,0,0,1,.84.81,16.93,16.93,0,0,1,2.38,3.37,44.27,44.27,0,0,1,3.06,6.92c.84,2.33,1.54,4.68,2.16,7A93.69,93.69,0,0,1,135,250.61a44.81,44.81,0,0,1,.16,7.53,15.67,15.67,0,0,1-.78,4.06l-.43,1-.32.7c-.22.47-.33,1-.5,1.43a12.45,12.45,0,0,0,.08,6.12,30.62,30.62,0,0,0,2.5,6.23c1.06,2.05,2.26,4.07,3.52,6.07l1.93,3a29.18,29.18,0,0,1,1.78,3.36,44.41,44.41,0,0,1,3.6,14.37,42.64,42.64,0,0,1,0,7.41,25.47,25.47,0,0,1-.56,3.73,11.86,11.86,0,0,1-1.45,3.75,5.39,5.39,0,0,1-.73.91l-.51.42a4.88,4.88,0,0,1-.55.31,5.75,5.75,0,0,1-2.21.51,12.37,12.37,0,0,1-3.91-.62,28.52,28.52,0,0,1-6.7-3.2A42.52,42.52,0,0,1,119.13,308c-.38-.47-.72-1-1.08-1.47s-.68-1-1-1.47a9.65,9.65,0,0,0-2.38-2.39,14.24,14.24,0,0,0-6.53-2.11C103.42,300.07,98.6,300.46,93.83,300.51Z"/>
<path class="cls-6" d="M67.34,169.07a4.42,4.42,0,0,1,.3-3.83,8.88,8.88,0,0,1,2.82-2.77c1.1-.74,2.29-1.32,3.44-1.95s2.28-1.29,3.41-2a101.64,101.64,0,0,0,12.78-9.13c4-3.34,7.87-6.92,11.6-10.62l2.78-2.78a27.76,27.76,0,0,1,3-2.61c2.12-1.6,4.36-3,6.54-4.44a33.74,33.74,0,0,0,6.09-4.8,8.68,8.68,0,0,0,2.65-6.78,20.93,20.93,0,0,0-.87-3.76,35.4,35.4,0,0,1-.7-3.92c-.35-2.63-.54-5.25-.72-7.88-.38-5.24-.67-10.49-1.44-15.67a43.4,43.4,0,0,0-1.71-7.65A17.85,17.85,0,0,0,115.71,75,7.53,7.53,0,0,0,113,72.24a7.63,7.63,0,0,1,2.87,2.66,17.44,17.44,0,0,1,1.76,3.54,43.22,43.22,0,0,1,1.94,7.66c.87,5.21,1.24,10.47,1.71,15.7.24,2.61.46,5.23.81,7.81a36.94,36.94,0,0,0,.7,3.83,22,22,0,0,1,.92,3.9,8.6,8.6,0,0,1-.61,4.07,11.86,11.86,0,0,1-2.24,3.41,34.07,34.07,0,0,1-6.24,5c-2.2,1.45-4.43,2.82-6.52,4.38a27.24,27.24,0,0,0-3,2.5l-2.81,2.78A154.89,154.89,0,0,1,90.56,150a103.55,103.55,0,0,1-13,9c-1.16.63-2.3,1.28-3.48,1.86S71.7,162,70.6,162.69a8.8,8.8,0,0,0-2.84,2.62A4.36,4.36,0,0,0,67.34,169.07Z"/>
<path class="cls-6" d="M72.49,221.29a10.29,10.29,0,0,0-1-3,28,28,0,0,0-1.75-2.64,13,13,0,0,1-1.56-2.84,9.59,9.59,0,0,1-.57-3.23,18.11,18.11,0,0,1,1.33-6.34,13.8,13.8,0,0,1,3.76-5.33c1.64-1.44,3.61-2.4,5.22-3.65A5.18,5.18,0,0,0,79.72,192a6.17,6.17,0,0,0,.24-2.94,15.47,15.47,0,0,0-2.09-5.84,40.23,40.23,0,0,0-3.68-5.15,33.68,33.68,0,0,1,4.08,4.9,15.82,15.82,0,0,1,2.42,6,6.36,6.36,0,0,1-.19,3.34,6,6,0,0,1-2,2.68c-1.74,1.36-3.62,2.31-5.15,3.69-3.19,2.62-4.69,6.88-5,11a9.07,9.07,0,0,0,.4,3,13,13,0,0,0,1.39,2.79,29,29,0,0,1,1.58,2.78A9.5,9.5,0,0,1,72.49,221.29Z"/>
<path class="cls-6" d="M94,300.33a35.49,35.49,0,0,1,19.72,4.49,23,23,0,0,1,4.13,3.09,17.62,17.62,0,0,1,1.75,1.91c.55.68,1,1.41,1.51,2.08a32.81,32.81,0,0,0,7.25,7,32,32,0,0,0,9,4.55,15,15,0,0,0,4.89.75,5,5,0,0,0,2.25-.59,4.82,4.82,0,0,0,1.48-1.77,23.63,23.63,0,0,0,2.32-9.67,33,33,0,0,0-1-10,27.29,27.29,0,0,0-4.23-9.08,85.89,85.89,0,0,1-5.21-8.85,21.41,21.41,0,0,1-2.62-10,13.2,13.2,0,0,1,1.25-5.09,11.29,11.29,0,0,0,1.1-4.79,53,53,0,0,0-.61-10.13,95,95,0,0,0-2-10,76.69,76.69,0,0,0-3-9.73,36.58,36.58,0,0,0-2.17-4.61,11,11,0,0,0-3.27-3.86,11,11,0,0,1,3.37,3.8,36.92,36.92,0,0,1,2.29,4.58,77.37,77.37,0,0,1,3.28,9.7,97.65,97.65,0,0,1,2.12,10,54.84,54.84,0,0,1,.75,10.25,12.24,12.24,0,0,1-1.11,5.1,12.42,12.42,0,0,0-1.15,4.78,20.56,20.56,0,0,0,2.57,9.58,86,86,0,0,0,5.2,8.74,27.79,27.79,0,0,1,4.38,9.34,33.67,33.67,0,0,1,1,10.29,31.8,31.8,0,0,1-.7,5.13,19,19,0,0,1-1.77,4.91,5.56,5.56,0,0,1-1.8,2.08,5.67,5.67,0,0,1-2.65.7,15.46,15.46,0,0,1-5.17-.81,32.24,32.24,0,0,1-9.14-4.76,33.91,33.91,0,0,1-7.3-7.25c-.51-.7-1-1.43-1.46-2.08a18.78,18.78,0,0,0-1.68-1.88,24,24,0,0,0-4-3.09A35.28,35.28,0,0,0,94,300.33Z"/>
<path class="cls-6" d="M76.91,63.33a13.58,13.58,0,0,0-9.49-.61,26.31,26.31,0,0,0-8.55,4.39A54.74,54.74,0,0,0,46,81.4c-3.39,5.44-6.24,11.37-6.22,17.68A23.35,23.35,0,0,0,41.22,108a41.13,41.13,0,0,0,4.38,8.15c.88,1.35,1.81,2.74,2.7,4.26A21.64,21.64,0,0,1,49.57,123a14.78,14.78,0,0,1,.84,2.89,15.34,15.34,0,0,1-.07,6,21.51,21.51,0,0,1-2,5.43A39.19,39.19,0,0,1,42.08,146l-.45.47-.54.53c-.35.37-.74.68-1.12,1a24.07,24.07,0,0,1-2.41,1.71,39.2,39.2,0,0,1-4.82,2.45A18,18,0,0,0,29.2,154a2.34,2.34,0,0,0-1,1.63,7.93,7.93,0,0,0-.07,1.45,17,17,0,0,0,.24,1.86c.07.34.12.66.22,1l.26,1.09c.23.91.42,1.81.59,2.71,1.23,7.23.57,14,.63,20.29a46.53,46.53,0,0,0,.68,8.88,17.31,17.31,0,0,0,3,7.11l.58.73.64.69c.47.5,1.09,1.1,1.64,1.63,1.13,1.11,2.28,2.18,3.45,3.25l3.63,3.22a34.78,34.78,0,0,1,4,4,12.51,12.51,0,0,1,2.8,6.7c.07.55.1,1.08.12,1.6v1.38l0,2.46-.15,9.8-.17,9.81-.06,2.45c0,.88-.05,1.72-.09,2.55l-.23,4.87a83.12,83.12,0,0,0,.93,18.73c1.13,6,3.32,11.81,7.47,16.09a24.25,24.25,0,0,0,7.29,5.17,50.87,50.87,0,0,0,9,2.93,95,95,0,0,0,19.3,2.39,91.92,91.92,0,0,1-9.84.81,72.19,72.19,0,0,1-9.95-.45c-1.66-.18-3.31-.48-5-.8a38.06,38.06,0,0,1-5-1.29,26.52,26.52,0,0,1-9.17-5.26,30.42,30.42,0,0,1-6.62-8.37,42,42,0,0,1-3.8-9.8,83.75,83.75,0,0,1-2.25-20.28v-4.93l0-2.36,0-2.45L42,235.52l-.15-9.8,0-2.46,0-1.06c0-.3,0-.59-.08-.84a3.73,3.73,0,0,0-1-2.2,27.8,27.8,0,0,0-3-2.85L34,213q-1.89-1.68-3.72-3.44c-.62-.61-1.18-1.14-1.84-1.82-.34-.37-.69-.73-1-1.11l-1-1.19a26,26,0,0,1-4.57-10.8A52.39,52.39,0,0,1,21.16,184c.12-6.78.71-13.14-.09-18.88-.11-.71-.23-1.41-.39-2.1l-.27-1.29c-.11-.45-.17-.94-.25-1.41a16.81,16.81,0,0,1,.07-6.43,10.61,10.61,0,0,1,1.58-3.62,11.09,11.09,0,0,1,2.72-2.71,24.83,24.83,0,0,1,5.2-2.55,38,38,0,0,0,4-1.78,16.54,16.54,0,0,0,1.65-1c.24-.2.5-.38.73-.59l.35-.31.42-.4a34.6,34.6,0,0,0,5.65-6.8,12,12,0,0,0,2-7.36,9.19,9.19,0,0,0-.37-1.85A12.82,12.82,0,0,0,43.4,123c-.65-1.37-1.43-2.78-2.21-4.23a40.51,40.51,0,0,1-4-9.52,27.15,27.15,0,0,1-.59-10.45,29.69,29.69,0,0,1,1.11-5A33.86,33.86,0,0,1,39.39,89a52.06,52.06,0,0,1,5-8.69,54.53,54.53,0,0,1,13.92-14,26.84,26.84,0,0,1,9-4.07A13.67,13.67,0,0,1,76.91,63.33Z"/>
<path class="cls-6" d="m34.17 147.28a43.21 43.21 0 0 1 0.45 -8.13 62.58 62.58 0 0 1 1.66 -7.92 60.86 60.86 0 0 1 2.66 -7.66 43 43 0 0 1 3.81 -7.18c-0.41 2.71-1 5.31-1.65 7.91s-1.31 5.15-2 7.7-1.45 5.1-2.23 7.65-1.65 5.09-2.7 7.63z"/>
<path class="cls-6" d="m46.21 240.52a65.18 65.18 0 0 1 -4.12 -8c-1.22-2.73-2.27-5.54-3.21-8.37a89.33 89.33 0 0 1 -2.36 -8.66 66.07 66.07 0 0 1 -1.37 -8.86c1 2.84 1.84 5.68 2.72 8.51s1.78 5.65 2.71 8.45 1.86 5.61 2.8 8.42 1.93 5.65 2.83 8.51z"/>
<path class="cls-6" d="M93.83,300.54a176.24,176.24,0,0,0,50.35,24.19,165.83,165.83,0,0,0,55,6.46,161.57,161.57,0,0,0,27.53-3.73,165.25,165.25,0,0,0,26.56-8.25A176,176,0,0,0,301,290.1a146.83,146.83,0,0,1-46.19,32.58,153.84,153.84,0,0,1-27,9.25A161,161,0,0,1,199.45,336a164.48,164.48,0,0,1-28.58-1.22,151.2,151.2,0,0,1-27.81-6.49A147.16,147.16,0,0,1,93.83,300.54Z"/>
<path class="cls-6" d="M333.41,102a21.46,21.46,0,0,1,3.29,4.14,34.1,34.1,0,0,1,2.42,4.59,32.46,32.46,0,0,1,1.69,4.92,21.44,21.44,0,0,1,.74,5.23,29.76,29.76,0,0,1-2.86-4.4q-1.23-2.26-2.23-4.6c-.67-1.56-1.28-3.15-1.81-4.78A30.4,30.4,0,0,1,333.41,102Z"/>
<path class="cls-6" d="M76.9,63.33a137.94,137.94,0,0,1,34-29A149.45,149.45,0,0,1,131,24.08a157.05,157.05,0,0,1,21.47-7q5.51-1.34,11.08-2.26t11.21-1.44a145.22,145.22,0,0,1,22.56-.25,165.25,165.25,0,0,1,22.22,3.25A160.22,160.22,0,0,1,241,22.5c-7.27-1.54-14.57-2.8-21.9-3.72a214.23,214.23,0,0,0-22-1.73,171.2,171.2,0,0,0-43.44,5,161.38,161.38,0,0,0-20.87,6.58c-3.4,1.33-6.78,2.72-10.09,4.27s-6.59,3.18-9.81,4.93A191.79,191.79,0,0,0,76.9,63.33Z"/>
<path class="cls-6" d="M129.67,229.6a114.49,114.49,0,0,0,13.35.48c4.45-.06,8.9-.29,13.32-.74a148.34,148.34,0,0,0,26.2-4.84,130,130,0,0,0,12.64-4.2c4.14-1.63,8.17-3.51,12.12-5.54a111.31,111.31,0,0,0,21.91-15.15,112.44,112.44,0,0,1-10.27,8.58,113.57,113.57,0,0,1-11.33,7.14,120.31,120.31,0,0,1-24.85,10A142.1,142.1,0,0,1,156.4,230,129.07,129.07,0,0,1,129.67,229.6Z"/>
<polygon class="cls-7" points="361.24 212.24 358.51 209.32 355.38 211.81 355.96 207.85 352.06 206.97 355.51 204.95 353.77 201.34 357.51 202.79 359.24 199.18 360.44 203 364.34 202.11 362.1 205.43 365.23 207.92 361.24 208.24"/>
<path class="cls-6" d="M345,195.7c2.4-.86,4.9-1.8,6.75-3.64,2.11-2.1,2.61-4.89,2.7-7.77.08-2.39-3.64-2.38-3.71,0-.07,2.09-.33,4.11-2,5.52a15.15,15.15,0,0,1-4.7,2.31c-2.23.8-1.27,4.39,1,3.58Z"/>
<path class="cls-6" d="M300.18,203.36a1.86,1.86,0,0,0,0-3.71,1.86,1.86,0,0,0,0,3.71Z"/>
<path class="cls-6" d="M259.07,206.23c1,2.34,2.13,4.74,4.14,6.38,2.17,1.78,4.83,2.11,7.55,2,2.39-.06,2.4-3.77,0-3.71-2.13.06-4.2,0-5.75-1.7a16.73,16.73,0,0,1-2.73-4.88c-.94-2.19-4.14-.3-3.21,1.88Z"/>
<polygon class="cls-7" points="283.87 188.88 281.13 185.95 278 188.45 278.58 184.49 274.68 183.6 278.14 181.59 276.4 177.98 280.13 179.43 281.87 175.82 283.06 179.64 286.96 178.75 284.73 182.06 287.86 184.56 283.87 184.87"/>
<path class="cls-6" d="M328.33,168.94a1.86,1.86,0,0,0,0-3.71,1.86,1.86,0,0,0,0,3.71Z"/>
<path class="cls-6" d="M304.27,174.51a1.86,1.86,0,0,0,0-3.71,1.86,1.86,0,0,0,0,3.71Z"/>
<polygon class="cls-8" points="325.32 177.27 325.48 180.47 327.35 183.07 324.15 183.23 321.54 185.1 321.38 181.9 319.51 179.29 322.71 179.13"/>
<path class="cls-6" d="M363.54,241c2.4-.86,4.9-1.81,6.75-3.64,2.12-2.11,2.61-4.89,2.7-7.77.08-2.39-3.63-2.39-3.71,0-.07,2.09-.32,4.1-2,5.52a15.37,15.37,0,0,1-4.7,2.31c-2.23.8-1.27,4.39,1,3.58Z"/>
<path class="cls-9" d="M330.21,251.91a31.18,31.18,0,0,0,14.3-22.61,31.56,31.56,0,0,0-25.62-34.52,31.21,31.21,0,0,0-28.83,51.33,23.59,23.59,0,0,1,2.84,3.83l13.6,23.88,19.8-19A23.89,23.89,0,0,1,330.21,251.91Z"/>
<g class="cls-10">
<rect class="cls-11" transform="translate(35.55 -42.71) rotate(8.27)" x="282.89" y="204.51" width="60.52" height="40.01"/>
<path class="cls-12" d="m343.17 228.36-29.94-4.36l-30-4.35 30 4.35z"/>
<path class="cls-13" d="m343.17 228.36-29.94-4.36l-30-4.35 30 4.35z"/>
</g>
<polygon class="cls-7" points="101.44 38.29 98.11 36.07 95.64 39.21 95.3 35.23 91.29 35.25 94.2 32.5 91.68 29.39 95.65 29.94 96.51 26.03 98.55 29.48 102.14 27.71 100.72 31.46 104.34 33.17 100.53 34.39"/>
<path class="cls-6" d="M81.89,25.88c2.2-1.43,4.49-3,5.83-5.3,1.46-2.51,1.25-5.27.7-8-.47-2.34-4-1.35-3.58,1,.41,2,.58,4-.74,5.77A15.36,15.36,0,0,1,80,22.67c-2,1.3-.14,4.51,1.87,3.21Z"/>
<path class="cls-6" d="M39.54,43.66a1.86,1.86,0,0,0,0-3.71,1.86,1.86,0,0,0,0,3.71Z"/>
<path class="cls-6" d="M.35,55.47c1.5,2,3.07,4.13,5.31,5.39,2.64,1.5,5.5,1.19,8.32.45,2.31-.6,1.34-4.18-1-3.58-2.11.55-4.14.88-6-.41A15.94,15.94,0,0,1,3.56,53.6c-1.4-1.91-4.63-.06-3.21,1.87Z"/>
<polygon class="cls-7" points="20.78 33.25 17.44 31.03 14.97 34.17 14.63 30.19 10.63 30.21 13.53 27.46 11.01 24.35 14.98 24.9 15.84 20.99 17.88 24.44 21.47 22.68 20.05 26.42 23.67 28.13 19.86 29.35"/>
<path class="cls-6" d="M59.08,3.71a1.86,1.86,0,0,0,0-3.71,1.86,1.86,0,0,0,0,3.71Z"/>
<path class="cls-6" d="M36.92,14.64a1.86,1.86,0,0,0,0-3.71,1.86,1.86,0,0,0,0,3.71Z"/>
<polygon class="cls-8" points="58.47 12.46 59.36 15.54 61.77 17.65 58.7 18.54 56.59 20.95 55.69 17.87 53.28 15.76 56.36 14.87"/>
<path class="cls-6" d="M110.31,65.74c2.2-1.43,4.49-3,5.83-5.3,1.46-2.51,1.25-5.27.7-8-.47-2.34-4-1.35-3.58,1,.41,2,.58,4-.74,5.76a15.17,15.17,0,0,1-4.08,3.35c-2,1.3-.14,4.51,1.87,3.21Z"/>
<path class="cls-9" d="M80.31,84a31.18,31.18,0,0,0,8.75-25.28A31.56,31.56,0,0,0,56.22,31,31.21,31.21,0,0,0,39.9,87.54a23.9,23.9,0,0,1,3.65,3.08l18.7,20.14s11-17,14.93-23A23.94,23.94,0,0,1,80.31,84Z"/>
<g class="cls-14">
<rect class="cls-15" transform="translate(-4.71 4.92) rotate(-4.63)" x="25.88" y="39.17" width="65.18" height="43.08"/>
<rect class="cls-16" transform="matrix(1 -.08 .08 1 -4.71 4.87)" x="44.66" y="39.22" width="26.51" height="43.08"/>
<polygon class="cls-15" points="57.38 51.38 52.36 55.11 55.99 58.81 50.54 57.26 50.31 62.59 54.65 66.9 62.57 66.25 66.22 61.97 66.45 56.63 61.27 58.38 62.22 53.65"/>
<line class="cls-17" x1="58.34" x2="58.98" y1="63.27" y2="71.2"/>
</g>
<polygon class="cls-7" points="103.84 208.99 100.03 207.74 98.49 211.44 97.09 207.69 93.24 208.78 95.31 205.35 92.05 203.03 96.01 202.5 95.8 198.5 98.69 201.27 101.68 198.62 101.31 202.6 105.25 203.28 101.91 205.48"/>
<path class="cls-6" d="M81.66,202.29c1.75-2,3.56-4.12,4.24-6.75s-.26-5.37-1.49-7.83c-1.07-2.13-4.28-.25-3.21,1.88.92,1.81,1.62,3.68.89,5.7A14.74,14.74,0,0,1,79,199.66c-1.58,1.79,1,4.42,2.63,2.63Z"/>
<path class="cls-6" d="M45.14,230.81a1.86,1.86,0,0,0,0-3.71,1.86,1.86,0,0,0,0,3.71Z"/>
<path class="cls-6" d="M11,252.6c2.1,1.64,4.29,3.33,7,3.88s5.35-.49,7.74-1.87a1.86,1.86,0,0,0-1.87-3.21c-1.75,1-3.57,1.92-5.62,1.32A14.38,14.38,0,0,1,13.65,250c-1.86-1.45-4.51,1.16-2.63,2.63Z"/>
<polygon class="cls-7" points="24.77 225.74 20.96 224.49 19.42 228.19 18.02 224.44 14.17 225.54 16.23 222.1 12.97 219.78 16.94 219.25 16.73 215.25 19.61 218.03 22.61 215.37 22.24 219.35 26.18 220.03 22.84 222.23"/>
<path class="cls-6" d="M53.26,187.09a1.86,1.86,0,0,0,0-3.71,1.86,1.86,0,0,0,0,3.71Z"/>
<path class="cls-6" d="M34.84,203.56a1.86,1.86,0,0,0,0-3.71,1.86,1.86,0,0,0,0,3.71Z"/>
<polygon class="cls-8" points="55.51 195.62 57.2 198.34 60.08 199.73 57.36 201.41 55.97 204.3 54.29 201.57 51.4 200.19 54.13 198.5"/>
<path class="cls-6" d="M119.71,233.08c1.76-2,3.57-4.12,4.24-6.74.72-2.78-.25-5.38-1.48-7.83-1.08-2.14-4.28-.26-3.21,1.87.91,1.82,1.62,3.69.89,5.7a14.62,14.62,0,0,1-3.06,4.37c-1.58,1.79,1,4.43,2.62,2.63Z"/>
<path class="cls-9" d="M95.72,258.69A31.1,31.1,0,0,0,97.37,232,31.56,31.56,0,0,0,58.3,214.06a31.22,31.22,0,0,0-.57,58.87,23,23,0,0,1,4.34,2l23.41,14.39s6.08-19.34,8.23-26.16A24.77,24.77,0,0,1,95.72,258.69Z"/>
<g class="cls-18">
<rect class="cls-19" transform="translate(-76.35 39.32) rotate(-19.58)" x="44" y="220.22" width="63.5" height="41.27"/>
<rect class="cls-20" transform="matrix(.94 -.34 .34 .94 -73.06 37.47)" x="40.28" y="220.34" width="63.5" height="20.11"/>
<rect class="cls-21" transform="translate(-76.5 31.35) rotate(-19.58)" x="41.47" y="227.26" width="22.22" height="20.11"/>
<polygon class="cls-22" points="49.85 232.78 51.81 234.69 54.5 234.15 53.29 236.61 54.63 239 51.92 238.61 50.07 240.62 49.6 237.92 47.11 236.78 49.53 235.5"/>
</g>
</g>
</g>
</svg>
