<?xml version="1.0" encoding="utf-8"?>
<!-- Generator: Adobe Illustrator 23.0.2, SVG Export Plug-In . SVG Version: 6.00 Build 0)  -->
<svg version="1.1" id="Layer_1" xmlns="http://www.w3.org/2000/svg" xmlns:xlink="http://www.w3.org/1999/xlink" x="0px" y="0px"
	 viewBox="0 0 1573 369" style="enable-background:new 0 0 1573 369;" xml:space="preserve">
<style type="text/css">
	.st0{fill:#0076CF;}
	.st1{fill:#FF7500;}
	.st2{opacity:0.5;fill:#FF7500;}
	.st3{opacity:0.75;fill:#FF7500;}
</style>
<path class="st0" d="M1380.6,62.8c-34.1,0-61.9,27.8-61.9,61.9s27.8,61.9,61.9,61.9s61.9-27.8,61.9-61.9S1414.8,62.8,1380.6,62.8z
	 M1380.6,151.6c-14.8,0-26.8-12-26.8-26.8s12-26.8,26.8-26.8s26.8,12,26.8,26.8C1407.4,139.5,1395.4,151.6,1380.6,151.6z"/>
<path class="st0" d="M1072,70.5c-1.2-4.3-4.2-6.5-8.8-6.5h-37.6c-4.6,0-7.7,2.2-8.8,6.4l-37.1,108.7c-0.2,0.5-0.2,1.1-0.2,1.9
	c0,1,0.5,2,1.5,3s2.1,1.5,3.5,1.5h24.9c4.2,0,7.1-2.2,8.8-6.6l4.8-13.1c0.7-1.9,2.5-3.1,4.5-3.1h34.3c2,0,3.8,1.3,4.5,3.1l4.6,13.1
	c1.7,4.4,4.6,6.6,8.8,6.6h24.9c1.3,0,2.5-0.5,3.5-1.5s1.5-2,1.5-3c0-0.8-0.1-1.4-0.2-1.9L1072,70.5z M1032.1,132.8l12.3-36.2
	l12.3,36.2H1032.1z"/>
<path class="st0" d="M808,62.8c-34.1,0-61.9,27.8-61.9,61.9s27.8,61.9,61.9,61.9s61.9-27.8,61.9-61.9S842.2,62.8,808,62.8z
	 M808,151.6c-14.8,0-26.8-12-26.8-26.8S793.2,98,808,98s26.8,12,26.8,26.8C834.8,139.5,822.8,151.6,808,151.6z"/>
<path class="st0" d="M1304.6,64h-73.8c-1.6,0-3,0.6-4.1,1.7s-1.7,2.5-1.7,4.1v20.1c0,1.6,0.6,3,1.7,4.1s2.5,1.7,4.1,1.7h12.4
	c3.3,0,6.1,2.7,6.1,6.1v45.9c0,3.3-2.7,6.1-6.1,6.1h-12.4c-1.6,0-3,0.6-4.1,1.7c-1.1,1.1-1.7,2.5-1.7,4.1v20.1
	c0,1.6,0.6,2.9,1.7,4.1c1.1,1.1,2.5,1.7,4.1,1.7h73.8c1.6,0,3-0.6,4.1-1.7c1.1-1.1,1.7-2.5,1.7-4.1v-20.1c0-1.6-0.6-3-1.7-4.1
	s-2.5-1.7-4.1-1.7h-12.4c-3.3,0-6.1-2.7-6.1-6.1v-45.9c0-3.3,2.7-6.1,6.1-6.1h12.4c1.6,0,3-0.6,4.1-1.7s1.7-2.5,1.7-4.1V69.8
	c0-1.6-0.6-2.9-1.7-4.1C1307.6,64.6,1306.2,64,1304.6,64z"/>
<path class="st0" d="M243.9,185.7h97.9c3.3,0,6.1-2.7,6.1-6.1V161c0-3.3-2.7-6.1-6.1-6.1h-61.2c-4.3,0-7.8-3.5-7.8-7.8
	s3.5-7.8,7.8-7.8h50.1c3.3,0,6.1-2.7,6.1-6.1v-16.8c0-3.3-2.7-6.1-6.1-6.1h-50.1c-4.3,0-7.8-3.5-7.8-7.8s3.5-7.8,7.8-7.8h59.5
	c3.3,0,6.1-2.7,6.1-6.1V70.2c0-3.3-2.7-6.1-6.1-6.1h-96.2c-1.6,0-3,0.6-4.1,1.7s-1.7,2.5-1.7,4.1v109.9c0,1.6,0.6,3,1.7,4.1
	C241,185.1,242.4,185.7,243.9,185.7z"/>
<path class="st0" d="M602.5,64.2h-27.8c-1.6,0-3,0.6-4.1,1.7s-1.7,2.5-1.7,4.1v34.4c0,2.6-2.1,4.7-4.7,4.7h-25.7
	c-3.3,0-6.1-2.7-6.1-6.1V70c0-1.6-0.6-2.9-1.7-4.1c-1.1-1.1-2.5-1.7-4.1-1.7h-27.8c-1.6,0-3,0.6-4.1,1.7S493,68.4,493,70v109.9
	c0,1.7,0.6,3.1,1.7,4.2c1.1,1.1,2.5,1.6,4.1,1.6h27.8c1.6,0,2.9-0.6,4.1-1.7c1.1-1.1,1.7-2.5,1.7-4.1v-35.2c0-2.6,2.1-4.7,4.7-4.7
	h27c2.6,0,4.7,2.1,4.7,4.7v35.2c0,1.6,0.6,3,1.7,4.1c1.1,1.1,2.5,1.7,4.1,1.7h27.8c1.6,0,3-0.6,4.1-1.7c1.1-1.1,1.7-2.5,1.7-4.1V70
	c0-1.6-0.6-2.9-1.7-4.1C605.5,64.7,604.1,64.2,602.5,64.2z"/>
<path class="st0" d="M630.3,185.5h24.4c1.6,0,3-0.6,4.1-1.7c1.1-1.1,1.7-2.5,1.7-4.1v-38.8c0-2.5,1.6-3.9,3.2-4.5
	c1.5-0.5,3.7-0.4,5.2,1.5l29,43.5c2,2.7,4.7,4.1,7.8,4.1h22.6c1.6,0,3-0.6,4.1-1.7c1.1-1.1,1.7-2.5,1.7-4.1V69.8
	c0-1.6-0.6-2.9-1.7-4.1c-1.1-1.1-2.5-1.7-4.1-1.7h-24.4c-1.6,0-3,0.6-4.1,1.7s-1.7,2.5-1.7,4.1v41.4c0,2.5-1.7,4-3.3,4.5
	s-3.8,0.3-5.2-1.7l-28.8-46.2c-1.9-2.6-4.5-3.9-7.6-3.9h-22.7c-1.6,0-3,0.6-4.1,1.7s-1.7,2.5-1.7,4.1v109.9c0,1.6,0.6,3,1.7,4.1
	C627.3,184.9,628.7,185.5,630.3,185.5z"/>
<path class="st0" d="M994.6,68.4c0-1-0.5-2-1.5-3s-2.1-1.5-3.5-1.5h-23.8c-4.6,0-7.7,2.2-8.8,6.4l-25.7,77.1l-25.7-77.1
	c-0.5-1.6-1.5-3-3-4.3c-1.5-1.4-3.5-2.1-5.8-2.1H873c-1.3,0-2.5,0.5-3.5,1.5s-1.5,2-1.5,3c0,0.8,0.1,1.4,0.2,2.1l37.1,109.1
	c1.4,3.9,4.4,5.9,8.6,5.9h34.8c4.4,0,7.4-2.2,8.8-6.4l36.7-108.7C994.5,69.9,994.6,69.2,994.6,68.4z"/>
<path class="st0" d="M1208.6,64h-107.7c-1.6,0-3,0.6-4.1,1.7s-1.7,2.5-1.7,4.1v20.1c0,1.6,0.6,3,1.7,4.1s2.5,1.7,4.1,1.7h30.6
	c2.6,0,4.7,2.1,4.7,4.7v79.3c0,1.6,0.6,3,1.7,4.1s2.5,1.7,4.1,1.7h25.4c1.6,0,3-0.6,4.1-1.7c1.1-1.1,1.7-2.5,1.7-4.1v-79.3
	c0-2.6,2.1-4.7,4.7-4.7h30.6c1.6,0,3-0.6,4.1-1.7s1.7-2.5,1.7-4.1V69.8c0-1.6-0.6-2.9-1.7-4.1C1211.5,64.6,1210.1,64,1208.6,64z"/>
<path class="st0" d="M1562.3,65.7c-1.1-1.1-2.5-1.7-4.1-1.7h-24.4c-1.6,0-3,0.6-4.1,1.7s-1.7,2.5-1.7,4.1v41.4c0,2.5-1.7,4-3.3,4.5
	c-1.6,0.5-3.8,0.3-5.2-1.7l-28.8-46.2c-1.9-2.6-4.5-3.9-7.6-3.9h-22.7c-1.6,0-3,0.6-4.1,1.7s-1.7,2.5-1.7,4.1v109.9
	c0,1.6,0.6,3,1.7,4.1s2.5,1.7,4.1,1.7h24.4c1.6,0,3-0.6,4.1-1.7c1.1-1.1,1.7-2.5,1.7-4.1v-38.8c0-2.5,1.6-3.9,3.2-4.5
	c1.5-0.5,3.7-0.4,5.2,1.5l29,43.5c2,2.7,4.7,4.1,7.8,4.1h22.6c1.6,0,3-0.6,4.1-1.7c1.1-1.1,1.7-2.5,1.7-4.1V69.8
	C1564,68.2,1563.4,66.8,1562.3,65.7z"/>
<path class="st0" d="M413,94.4c5.2-0.8,10.6-0.4,15.4,1.7s8.8,6.1,10.6,11c0.8,2.4,1.2,5.1,2.9,6.9c2,2.1,5.3,2.2,8.2,2.3
	c5.9,0.1,11.8,0.2,17.7,0.3c4.3,0.1,8.8,0.1,11-4.4c1.4-2.8,1.3-6.1,0.9-9.1c-2.2-14.3-13.1-26-25.8-33
	c-20.9-11.5-47.6-11.8-68.8-0.9c-9.6,5-18.2,12.3-23.2,21.9c-5.2,10.1-6,21.8-6.1,33.2c-0.1,11.3,0.6,23,5.6,33.2
	c6.5,13.3,19.8,22.4,33.9,27c7.6,2.5,15.7,3.7,23.7,3.8c11.6,0,23.2-2.5,33.6-7.7c7.8-3.9,14.9-9.3,19.9-16.4s7.7-16,6.5-24.6
	c-0.4-2.6-1.3-5.5-3.7-6.8c-1.4-0.8-3.1-0.8-4.7-0.8c-6.4-0.1-12.8-0.2-19.2-0.3c-2.7,0-5.5,0-7.7,1.5c-3.1,2.2-3.6,6.4-5.1,9.9
	c-3.6,8.5-13.8,12.7-23.1,12.2c-7.4-0.4-15.3-4-18.1-10.8c-1.4-3.3-1.4-7-1.5-10.6c0-5.3-0.1-10.7-0.1-16c0-5.1,0-10.6,2.7-14.9
	C401.4,97.9,407.2,95.3,413,94.4z"/>
<polygon class="st1" points="120,360.6 147.2,360.6 147.2,315 182.9,315 182.9,294.3 147.2,294.3 147.2,269.7 193.4,269.7 
	193.4,248 120,248 "/>
<path class="st1" d="M269.5,287.8c-2.3-5.3-5.9-9.5-10.8-12.6s-10.7-4.6-17.5-4.6c-7.3,0-13.9,1.8-19.7,5.5s-10.3,8.9-13.7,15.8
	s-5,14.9-5,24.3c0,9.2,1.7,17.3,5,24.2c3.3,6.9,7.9,12.2,13.7,15.8c5.8,3.7,12.3,5.5,19.7,5.5c6.8,0,12.6-1.5,17.5-4.6
	s8.5-7.3,10.8-12.6v16.1h27.1v-88.8h-27.1V287.8z M264,331.9c-3.7,3.9-8.4,5.9-14.1,5.9c-5.8,0-10.5-1.9-14.1-5.7
	c-3.6-3.8-5.3-9.1-5.3-15.9s1.8-12.1,5.3-15.9c3.6-3.8,8.3-5.7,14.1-5.7c5.7,0,10.4,1.9,14.1,5.8s5.5,9.2,5.5,15.8
	C269.5,322.7,267.7,328,264,331.9z"/>
<path class="st1" d="M430.5,270.8c-6.5,0-12.4,1.6-17.8,4.9s-9.6,7.7-12.7,13.2c-2.7-5.8-6.6-10.3-11.8-13.5
	c-5.2-3.1-11.2-4.7-18-4.7c-6.5,0-12.1,1.4-17,4.3c-4.8,2.9-8.4,6.8-10.7,11.8v-15.1h-27.2v88.8h27.2v-47.1c0-6.2,1.6-10.9,4.8-14.2
	c3.2-3.3,7.5-4.9,12.9-4.9c5.2,0,9.3,1.6,12.3,4.7s4.5,7.5,4.5,13.1v48.4h27.2v-47.1c0-6.1,1.6-10.7,4.7-14.1c3.1-3.3,7.4-5,12.8-5
	c5.2,0,9.3,1.6,12.3,4.7s4.5,7.5,4.5,13.1v48.4h27.1V309c0-12-3.1-21.4-9.4-28.1C450,274.2,441.4,270.8,430.5,270.8z"/>
<rect x="483.8" y="271.7" class="st1" width="27.2" height="88.8"/>
<path class="st1" d="M497.5,232.4c-4.9,0-8.8,1.4-11.8,4.1c-3,2.7-4.5,6.1-4.5,10.3c0,4,1.5,7.4,4.5,10.1c3,2.7,6.9,4.1,11.8,4.1
	s8.8-1.4,11.8-4.1c3-2.7,4.5-6.1,4.5-10.1c0-4.1-1.5-7.6-4.5-10.3C506.3,233.8,502.4,232.4,497.5,232.4z"/>
<rect x="529.8" y="242.8" class="st1" width="27.2" height="117.8"/>
<path class="st1" d="M589.5,232.4c-4.9,0-8.8,1.4-11.8,4.1c-3,2.7-4.5,6.1-4.5,10.3c0,4,1.5,7.4,4.5,10.1c3,2.7,6.9,4.1,11.8,4.1
	c4.9,0,8.8-1.4,11.8-4.1c3-2.7,4.5-6.1,4.5-10.1c0-4.1-1.5-7.6-4.5-10.3C598.3,233.8,594.4,232.4,589.5,232.4z"/>
<rect x="575.8" y="271.7" class="st1" width="27.2" height="88.8"/>
<path class="st1" d="M685.2,276c-6.7-3.6-14.4-5.4-23.2-5.4c-8.7,0-16.5,1.8-23.2,5.5c-6.8,3.7-12.1,8.9-15.8,15.8
	c-3.8,6.8-5.7,14.9-5.7,24.3c0,9.2,1.9,17.3,5.7,24.2c3.8,6.9,9.1,12.2,15.8,15.8c6.7,3.7,14.5,5.5,23.2,5.5
	c7.4,0,14.2-1.4,20.2-4.2c6.1-2.8,11-6.7,15-11.6c3.9-4.9,6.5-10.5,7.6-16.8H676c-0.9,3.2-2.6,5.8-5.3,7.8s-6,3-10,3
	c-4.8,0-8.7-1.5-11.8-4.4s-4.8-7.7-5.1-14.4h61.6c0.5-2.7,0.8-5.1,0.8-7.3c0-8.5-1.8-16-5.5-22.5S691.9,279.6,685.2,276z M644,309.6
	c0.4-5.7,2.3-10.1,5.6-13.1S657,292,662,292c4.8,0,8.8,1.5,12,4.4s4.8,7.3,4.7,13.1H644V309.6z"/>
<path class="st1" d="M777.6,312.6c-4.4-1.6-9.9-3.3-16.7-4.9c-6.3-1.4-10.9-2.8-13.8-4.1c-2.9-1.4-4.4-3.4-4.4-6.2
	c0-2.4,0.8-4.3,2.4-5.7c1.6-1.3,3.9-2,7-2c3.9,0,7.2,1,9.8,3.1s4.3,4.9,5,8.5h25.5c-1.7-9.2-5.9-16.7-12.7-22.3
	c-6.7-5.6-15.7-8.4-27-8.4c-11,0-19.6,2.5-25.6,7.4c-6.1,4.9-9.1,11.4-9.1,19.3c0,6.2,1.5,11,4.6,14.6s6.7,6.1,11,7.7
	c4.2,1.6,9.7,3.1,16.2,4.5c6.6,1.5,11.3,2.9,14.3,4.2c2.9,1.3,4.4,3.5,4.4,6.6c0,2.3-0.8,4.2-2.4,5.7c-1.6,1.4-3.9,2.1-7,2.1
	c-4.5,0-8.1-1-10.9-3c-2.8-2-4.4-4.9-4.9-8.8H717c1.6,9.9,6,17.5,13.2,22.8s16.8,8,28.8,8c7.1,0,13.3-1.1,18.5-3.3
	c5.2-2.2,9.2-5.3,11.9-9.2c2.8-3.9,4.1-8.4,4.1-13.5c0-6.3-1.6-11.3-4.8-15C785.7,316.9,781.9,314.2,777.6,312.6z"/>
<path class="st0" d="M108.4,65.9c-1.1,1.1-1.7,2.5-1.7,4.1v20.1c0,1.6,0.6,3,1.7,4.1s2.5,1.7,4.1,1.7h30.6c2.6,0,4.7,2.1,4.7,4.7
	v79.2c0,1.6,0.6,3,1.7,4.1c1.1,1.1,2.5,1.7,4.1,1.7H179c1.6,0,2.9-0.6,4.1-1.7c1.1-1.1,1.7-2.5,1.7-4.1v-79.2c0-2.6,2.1-4.7,4.7-4.7
	h30.6c1.6,0,2.9-0.6,4.1-1.7c1.1-1.1,1.7-2.5,1.7-4.1V70c0-1.6-0.6-2.9-1.7-4.1c-1.1-1.1-2.5-1.7-4.1-1.7H112.5
	C110.9,64.2,109.6,64.8,108.4,65.9z"/>
<path class="st2" d="M135.5,108.2h-15.2v6.6H77.4V79h17.1V64.2H66.2c-2.2,0-4,1.8-4,4V118c0,6.7,5.4,12.1,12.1,12.1h57.3
	c2.2,0,4-1.8,4-4L135.5,108.2L135.5,108.2z"/>
<path class="st3" d="M152.7,52c-3.4-9.1-12.3-15.6-22.6-15.6h-92c-2.2,0-4,1.8-4,4V130c0,15.6,12.6,28.2,28.2,28.2h73.3v-15.6H64
	c-7.8,0-14.1-6.3-14.1-14.1V52H152.7z"/>
<path class="st1" d="M135.5,169.6H57.9c-20,0-36.2-16.3-36.2-36.2V24.1h110.6c16.8,0,30.9,12.4,35,27.9h16.5
	C179.4,27.5,158,8,132.3,8H9.6c-2.2,0-4,1.8-4,4v121.3c0,28.9,23.4,52.4,52.4,52.4h77.6v-16.1H135.5z"/>
</svg>
