<?xml version="1.0" encoding="utf-8"?>
<!-- Generator: Adobe Illustrator 23.0.2, SVG Export Plug-In . SVG Version: 6.00 Build 0)  -->
<svg version="1.1" id="Layer_1" xmlns="http://www.w3.org/2000/svg" xmlns:xlink="http://www.w3.org/1999/xlink" x="0px" y="0px"
	 viewBox="0 0 1578 365" style="enable-background:new 0 0 1578 365;" xml:space="preserve">
<style type="text/css">
	.st0{fill:#FFFFFF;}
</style>
<g>
	<path class="st0" d="M1384.6,54.8c-34.1,0-61.9,27.8-61.9,61.9s27.8,61.9,61.9,61.9s61.9-27.8,61.9-61.9S1418.8,54.8,1384.6,54.8z
		 M1384.6,143.6c-14.8,0-26.8-12-26.8-26.8s12-26.8,26.8-26.8c14.8,0,26.8,12,26.8,26.8S1399.4,143.6,1384.6,143.6z"/>
	<path class="st0" d="M983.5,173.1c0,1,0.5,2,1.5,3c1,1,2.1,1.5,3.5,1.5h24.9c4.2,0,7.1-2.2,8.8-6.6l4.8-13.1
		c0.7-1.9,2.5-3.1,4.5-3.1h34.3c2,0,3.8,1.3,4.5,3.1l4.6,13.1c1.7,4.4,4.6,6.6,8.8,6.6h24.9c1.3,0,2.5-0.5,3.5-1.5c1-1,1.5-2,1.5-3
		c0-0.8-0.1-1.4-0.2-1.9L1076,62.5c-1.2-4.3-4.2-6.5-8.8-6.5h-37.6c-4.6,0-7.7,2.2-8.8,6.4l-37.1,108.7
		C983.5,171.6,983.5,172.2,983.5,173.1z M1048.4,88.6l12.3,36.2h-24.5L1048.4,88.6z"/>
	<path class="st0" d="M812,54.8c-34.1,0-61.9,27.8-61.9,61.9s27.8,61.9,61.9,61.9s61.9-27.8,61.9-61.9S846.2,54.8,812,54.8z
		 M812,143.6c-14.8,0-26.8-12-26.8-26.8s12-26.8,26.8-26.8c14.8,0,26.8,12,26.8,26.8S826.8,143.6,812,143.6z"/>
	<path class="st0" d="M1308.6,56h-73.8c-1.6,0-3,0.6-4.1,1.7c-1.1,1.1-1.7,2.5-1.7,4.1v20.1c0,1.6,0.6,3,1.7,4.1
		c1.1,1.1,2.5,1.7,4.1,1.7h12.4c3.3,0,6.1,2.7,6.1,6.1v45.9c0,3.3-2.7,6.1-6.1,6.1h-12.4c-1.6,0-3,0.6-4.1,1.7
		c-1.1,1.1-1.7,2.5-1.7,4.1v20.1c0,1.6,0.6,2.9,1.7,4.1c1.1,1.1,2.5,1.7,4.1,1.7h73.8c1.6,0,3-0.6,4.1-1.7c1.1-1.1,1.7-2.5,1.7-4.1
		v-20.1c0-1.6-0.6-3-1.7-4.1c-1.1-1.1-2.5-1.7-4.1-1.7h-12.4c-3.3,0-6.1-2.7-6.1-6.1V93.8c0-3.3,2.7-6.1,6.1-6.1h12.4
		c1.6,0,3-0.6,4.1-1.7c1.1-1.1,1.7-2.5,1.7-4.1V61.8c0-1.6-0.6-2.9-1.7-4.1C1311.6,56.6,1310.2,56,1308.6,56z"/>
	<path class="st0" d="M345.8,146.9h-61.2c-4.3,0-7.8-3.5-7.8-7.8c0-4.3,3.5-7.8,7.8-7.8h50.1c3.3,0,6.1-2.7,6.1-6.1v-16.8
		c0-3.3-2.7-6.1-6.1-6.1h-50.1c-4.3,0-7.8-3.5-7.8-7.8c0-4.3,3.5-7.8,7.8-7.8h59.5c3.3,0,6.1-2.7,6.1-6.1V62.2
		c0-3.3-2.7-6.1-6.1-6.1h-96.2c-1.6,0-3,0.6-4.1,1.7c-1.1,1.1-1.7,2.5-1.7,4.1v109.9c0,1.6,0.6,3,1.7,4.1c1.1,1.1,2.5,1.7,4.1,1.7
		h97.9c3.3,0,6.1-2.7,6.1-6.1V153C351.9,149.6,349.1,146.9,345.8,146.9z"/>
	<path class="st0" d="M534.8,176c1.1-1.1,1.7-2.5,1.7-4.1v-35.2c0-2.6,2.1-4.7,4.7-4.7h27c2.6,0,4.7,2.1,4.7,4.7v35.2
		c0,1.6,0.6,3,1.7,4.1c1.1,1.1,2.5,1.7,4.1,1.7h27.8c1.6,0,3-0.6,4.1-1.7c1.1-1.1,1.7-2.5,1.7-4.1V62c0-1.6-0.6-2.9-1.7-4.1
		c-1.1-1.1-2.5-1.7-4.1-1.7h-27.8c-1.6,0-3,0.6-4.1,1.7c-1.1,1.1-1.7,2.5-1.7,4.1v34.4c0,2.6-2.1,4.7-4.7,4.7h-25.7
		c-3.3,0-6.1-2.7-6.1-6.1V62c0-1.6-0.6-2.9-1.7-4.1c-1.1-1.1-2.5-1.7-4.1-1.7h-27.8c-1.6,0-3,0.6-4.1,1.7c-1.1,1.1-1.7,2.5-1.7,4.1
		v109.9c0,1.7,0.6,3.1,1.7,4.2c1.1,1.1,2.5,1.6,4.1,1.6h27.8C532.2,177.7,533.6,177.1,534.8,176z"/>
	<path class="st0" d="M736.2,175.8c1.1-1.1,1.7-2.5,1.7-4.1V61.8c0-1.6-0.6-2.9-1.7-4.1c-1.1-1.1-2.5-1.7-4.1-1.7h-24.4
		c-1.6,0-3,0.6-4.1,1.7c-1.1,1.1-1.7,2.5-1.7,4.1v41.4c0,2.5-1.7,4-3.3,4.5c-1.6,0.5-3.8,0.3-5.2-1.7l-28.8-46.2
		c-1.9-2.6-4.5-3.9-7.6-3.9h-22.7c-1.6,0-3,0.6-4.1,1.7c-1.1,1.1-1.7,2.5-1.7,4.1v109.9c0,1.6,0.6,3,1.7,4.1
		c1.1,1.1,2.5,1.7,4.1,1.7h24.4c1.6,0,3-0.6,4.1-1.7c1.1-1.1,1.7-2.5,1.7-4.1v-38.8c0-2.5,1.6-3.9,3.2-4.5c1.5-0.5,3.7-0.4,5.2,1.5
		l29,43.5c2,2.7,4.7,4.1,7.8,4.1h22.6C733.7,177.5,735.1,176.9,736.2,175.8z"/>
	<path class="st0" d="M998.6,60.4c0-1-0.5-2-1.5-3c-1-1-2.1-1.5-3.5-1.5h-23.8c-4.6,0-7.7,2.2-8.8,6.4l-25.7,77.1l-25.7-77.1
		c-0.5-1.6-1.5-3-3-4.3c-1.5-1.4-3.5-2.1-5.8-2.1h-23.8c-1.3,0-2.5,0.5-3.5,1.5c-1,1-1.5,2-1.5,3c0,0.8,0.1,1.4,0.2,2.1l37.1,109.1
		c1.4,3.9,4.4,5.9,8.6,5.9h34.8c4.4,0,7.4-2.2,8.8-6.4l36.7-108.7C998.5,61.9,998.6,61.2,998.6,60.4z"/>
	<path class="st0" d="M1141.9,175.8c1.1,1.1,2.5,1.7,4.1,1.7h25.4c1.6,0,3-0.6,4.1-1.7c1.1-1.1,1.7-2.5,1.7-4.1V92.5
		c0-2.6,2.1-4.7,4.7-4.7h30.6c1.6,0,3-0.6,4.1-1.7c1.1-1.1,1.7-2.5,1.7-4.1V61.8c0-1.6-0.6-2.9-1.7-4.1c-1.1-1.1-2.5-1.7-4.1-1.7
		h-107.7c-1.6,0-3,0.6-4.1,1.7c-1.1,1.1-1.7,2.5-1.7,4.1v20.1c0,1.6,0.6,3,1.7,4.1c1.1,1.1,2.5,1.7,4.1,1.7h30.6
		c2.6,0,4.7,2.1,4.7,4.7v79.3C1140.2,173.3,1140.8,174.7,1141.9,175.8z"/>
	<path class="st0" d="M1566.3,57.7c-1.1-1.1-2.5-1.7-4.1-1.7h-24.4c-1.6,0-3,0.6-4.1,1.7c-1.1,1.1-1.7,2.5-1.7,4.1v41.4
		c0,2.5-1.7,4-3.3,4.5c-1.6,0.5-3.8,0.3-5.2-1.7l-28.8-46.2c-1.9-2.6-4.5-3.9-7.6-3.9h-22.7c-1.6,0-3,0.6-4.1,1.7
		c-1.1,1.1-1.7,2.5-1.7,4.1v109.9c0,1.6,0.6,3,1.7,4.1c1.1,1.1,2.5,1.7,4.1,1.7h24.4c1.6,0,3-0.6,4.1-1.7c1.1-1.1,1.7-2.5,1.7-4.1
		v-38.8c0-2.5,1.6-3.9,3.2-4.5c1.5-0.5,3.7-0.4,5.2,1.5l29,43.5c2,2.7,4.7,4.1,7.8,4.1h22.6c1.6,0,3-0.6,4.1-1.7
		c1.1-1.1,1.7-2.5,1.7-4.1V61.8C1568,60.2,1567.4,58.8,1566.3,57.7z"/>
	<path class="st0" d="M417,86.4c5.2-0.8,10.6-0.4,15.4,1.7c4.8,2.1,8.8,6.1,10.6,11c0.8,2.4,1.2,5.1,2.9,6.9c2,2.1,5.3,2.2,8.2,2.3
		c5.9,0.1,11.8,0.2,17.7,0.3c4.3,0.1,8.8,0.1,11-4.4c1.4-2.8,1.3-6.1,0.9-9.1c-2.2-14.3-13.1-26-25.8-33
		c-20.9-11.5-47.6-11.8-68.8-0.9c-9.6,5-18.2,12.3-23.2,21.9c-5.2,10.1-6,21.8-6.1,33.2c-0.1,11.3,0.6,23,5.6,33.2
		c6.5,13.3,19.8,22.4,33.9,27c7.6,2.5,15.7,3.7,23.7,3.8c11.6,0,23.2-2.5,33.6-7.7c7.8-3.9,14.9-9.3,19.9-16.4
		c5-7.1,7.7-16,6.5-24.6c-0.4-2.6-1.3-5.5-3.7-6.8c-1.4-0.8-3.1-0.8-4.7-0.8c-6.4-0.1-12.8-0.2-19.2-0.3c-2.7,0-5.5,0-7.7,1.5
		c-3.1,2.2-3.6,6.4-5.1,9.9c-3.6,8.5-13.8,12.7-23.1,12.2c-7.4-0.4-15.3-4-18.1-10.8c-1.4-3.3-1.4-7-1.5-10.6c0-5.3-0.1-10.7-0.1-16
		c0-5.1,0-10.6,2.7-14.9C405.4,89.9,411.2,87.3,417,86.4z"/>
	<path class="st0" d="M172.9,309h34.4c-2,6.6-5.5,11.7-10.3,15.2c-4.9,3.6-10.6,5.3-17,5.3c-10.1,0-17.9-2.9-23.3-8.6
		c-5.5-5.7-8.2-14-8.2-24.7c0-9.9,2.6-17.7,7.8-23.5c5.2-5.8,12.1-8.7,20.7-8.7c5.5,0,10.2,1.2,14.2,3.6c3.9,2.4,6.8,5.6,8.8,9.6
		h28.8c-2.2-11.8-7.9-21.1-17-28c-9.1-6.9-20.8-10.3-34.9-10.3c-11.3,0-21.1,2.4-29.5,7.2c-8.4,4.8-15,11.6-19.6,20.3
		c-4.6,8.7-6.9,18.6-6.9,29.8c0,11.1,2.3,21.1,6.9,29.8c4.6,8.7,11.2,15.5,19.7,20.3c8.5,4.8,18.4,7.2,29.8,7.2
		c9.3,0,17.6-1.8,24.9-5.3c7.3-3.5,13.2-8.1,17.9-13.7c4.7-5.6,8.1-11.7,10.2-18.3v-26.9h-57.2V309z"/>
	<path class="st0" d="M259,224.4c-4.9,0-8.8,1.4-11.8,4.1c-3,2.7-4.5,6.1-4.5,10.3c0,4,1.5,7.4,4.5,10.1c3,2.7,6.9,4.1,11.8,4.1
		c4.9,0,8.8-1.4,11.8-4.1c3-2.7,4.5-6.1,4.5-10.1c0-4.1-1.5-7.6-4.5-10.3C267.8,225.8,263.9,224.4,259,224.4z"/>
	<rect x="245.3" y="263.7" class="st0" width="27.2" height="88.8"/>
	<path class="st0" d="M318.5,280.5v-16.7h-27.2v88.8h27.2v-40.4c0-7.3,2-12.5,6-15.6c4-3.1,9.6-4.6,16.8-4.6h7.8v-29.1
		c-6.3,0-12.1,1.6-17.4,4.8C326.3,270.7,321.9,275,318.5,280.5z"/>
	<rect x="360.6" y="234.8" class="st0" width="27.2" height="117.8"/>
	<path class="st0" d="M463.8,304.6c-4.4-1.6-9.9-3.3-16.7-4.9c-6.3-1.4-10.9-2.8-13.8-4.1c-2.9-1.4-4.4-3.4-4.4-6.2
		c0-2.4,0.8-4.3,2.4-5.7c1.6-1.3,3.9-2,7-2c3.9,0,7.2,1,9.8,3.1c2.6,2.1,4.3,4.9,5,8.5h25.5c-1.7-9.2-5.9-16.7-12.7-22.3
		c-6.7-5.6-15.7-8.4-27-8.4c-11,0-19.6,2.5-25.6,7.4c-6.1,4.9-9.1,11.4-9.1,19.3c0,6.2,1.5,11,4.6,14.6c3.1,3.6,6.7,6.1,11,7.7
		c4.2,1.6,9.7,3.1,16.2,4.5c6.6,1.5,11.3,2.9,14.3,4.2c2.9,1.3,4.4,3.5,4.4,6.6c0,2.3-0.8,4.2-2.4,5.7s-3.9,2.1-7,2.1
		c-4.5,0-8.1-1-10.9-3c-2.8-2-4.4-4.9-4.9-8.8h-26.3c1.6,9.9,6,17.5,13.2,22.8c7.2,5.3,16.8,8,28.8,8c7.1,0,13.3-1.1,18.5-3.3
		c5.2-2.2,9.2-5.3,11.9-9.2c2.8-3.9,4.1-8.4,4.1-13.5c0-6.3-1.6-11.3-4.8-15C471.9,308.9,468.1,306.2,463.8,304.6z"/>
	<path class="st0" d="M112.4,57.9c-1.1,1.1-1.7,2.5-1.7,4.1v20.1c0,1.6,0.6,3,1.7,4.1c1.1,1.1,2.5,1.7,4.1,1.7h30.6
		c2.6,0,4.7,2.1,4.7,4.7v79.2c0,1.6,0.6,3,1.7,4.1c1.1,1.1,2.5,1.7,4.1,1.7H183c1.6,0,2.9-0.6,4.1-1.7c1.1-1.1,1.7-2.5,1.7-4.1V92.6
		c0-2.6,2.1-4.7,4.7-4.7h30.6c1.6,0,2.9-0.6,4.1-1.7c1.1-1.1,1.7-2.5,1.7-4.1V62c0-1.6-0.6-2.9-1.7-4.1c-1.1-1.1-2.5-1.7-4.1-1.7
		H116.5C114.9,56.2,113.6,56.8,112.4,57.9z"/>
	<path class="st0" d="M139.5,100.2l-15.2,0v6.6H81.4V71h17.1V56.2H70.2c-2.2,0-4,1.8-4,4V110c0,6.7,5.4,12.1,12.1,12.1h57.3
		c2.2,0,4-1.8,4-4V100.2z"/>
	<path class="st0" d="M156.7,44c-3.4-9.1-12.3-15.6-22.6-15.6h-92c-2.2,0-4,1.8-4,4v89.6c0,15.6,12.6,28.2,28.2,28.2h73.3v-15.6H68
		c-7.8,0-14.1-6.3-14.1-14.1V44L156.7,44z"/>
	<path class="st0" d="M139.5,161.6H61.9c-20,0-36.2-16.3-36.2-36.2V16.1h110.6c16.8,0,30.9,12.4,35,27.9h16.5
		C183.4,19.5,162,0,136.3,0H13.6c-2.2,0-4,1.8-4,4v121.3c0,28.9,23.4,52.4,52.4,52.4h77.6V161.6z"/>
</g>
</svg>
