<?xml version="1.0" encoding="utf-8"?>
<!-- Generator: Adobe Illustrator 23.0.2, SVG Export Plug-In . SVG Version: 6.00 Build 0)  -->
<svg version="1.1" id="Layer_1" xmlns="http://www.w3.org/2000/svg" xmlns:xlink="http://www.w3.org/1999/xlink" x="0px" y="0px"
	 viewBox="0 0 1580.3 373.8" style="enable-background:new 0 0 1580.3 373.8;" xml:space="preserve">
<style type="text/css">
	.st0{fill:#0076CF;}
	.st1{fill:#43B02A;}
	.st2{opacity:0.5;fill:#43B02A;}
	.st3{opacity:0.75;fill:#43B02A;}
</style>
<path class="st0" d="M1385.5,68.2c-34.1,0-61.9,27.8-61.9,61.9s27.8,61.9,61.9,61.9s61.9-27.8,61.9-61.9S1419.7,68.2,1385.5,68.2z
	 M1385.5,157c-14.8,0-26.8-12-26.8-26.8s12-26.8,26.8-26.8s26.8,12,26.8,26.8S1400.3,157,1385.5,157z"/>
<path class="st0" d="M984.4,186.5c0,1,0.5,2,1.5,3s2.1,1.5,3.5,1.5h24.9c4.2,0,7.1-2.2,8.8-6.6l4.8-13.1c0.7-1.9,2.5-3.1,4.5-3.1
	h34.3c2,0,3.8,1.3,4.5,3.1l4.6,13.1c1.7,4.4,4.6,6.6,8.8,6.6h24.9c1.3,0,2.5-0.5,3.5-1.5s1.5-2,1.5-3c0-0.8-0.1-1.4-0.2-1.9
	l-37.4-108.7c-1.2-4.3-4.2-6.5-8.8-6.5h-37.6c-4.6,0-7.7,2.2-8.8,6.4l-37.1,108.7C984.4,185,984.4,185.6,984.4,186.5z M1049.3,102
	l12.3,36.2h-24.5L1049.3,102z"/>
<path class="st0" d="M812.9,68.2c-34.1,0-61.9,27.8-61.9,61.9s27.8,61.9,61.9,61.9s61.9-27.8,61.9-61.9S847.1,68.2,812.9,68.2z
	 M812.9,157c-14.8,0-26.8-12-26.8-26.8s12-26.8,26.8-26.8s26.8,12,26.8,26.8S827.7,157,812.9,157z"/>
<path class="st0" d="M1309.5,69.4h-73.8c-1.6,0-3,0.6-4.1,1.7c-1.1,1.1-1.7,2.5-1.7,4.1v20.1c0,1.6,0.6,3,1.7,4.1s2.5,1.7,4.1,1.7
	h12.4c3.3,0,6.1,2.7,6.1,6.1v45.9c0,3.3-2.7,6.1-6.1,6.1h-12.4c-1.6,0-3,0.6-4.1,1.7s-1.7,2.5-1.7,4.1v20.1c0,1.6,0.6,2.9,1.7,4.1
	c1.1,1.1,2.5,1.7,4.1,1.7h73.8c1.6,0,3-0.6,4.1-1.7s1.7-2.5,1.7-4.1V165c0-1.6-0.6-3-1.7-4.1s-2.5-1.7-4.1-1.7h-12.4
	c-3.3,0-6.1-2.7-6.1-6.1v-45.9c0-3.3,2.7-6.1,6.1-6.1h12.4c1.6,0,3-0.6,4.1-1.7c1.1-1.1,1.7-2.5,1.7-4.1V75.2c0-1.6-0.6-2.9-1.7-4.1
	C1312.5,70,1311.1,69.4,1309.5,69.4z"/>
<path class="st0" d="M346.7,160.3h-61.2c-4.3,0-7.8-3.5-7.8-7.8s3.5-7.8,7.8-7.8h50.1c3.3,0,6.1-2.7,6.1-6.1v-16.8
	c0-3.3-2.7-6.1-6.1-6.1h-50.1c-4.3,0-7.8-3.5-7.8-7.8s3.5-7.8,7.8-7.8H345c3.3,0,6.1-2.7,6.1-6.1V75.3c0-3.3-2.7-6.1-6.1-6.1h-96.2
	c-1.6,0-3,0.6-4.1,1.7c-1.1,1.1-1.7,2.5-1.7,4.1v109.9c0,1.6,0.6,3,1.7,4.1s2.5,1.7,4.1,1.7h97.9c3.3,0,6.1-2.7,6.1-6.1v-18.2
	C352.8,163,350,160.3,346.7,160.3z"/>
<path class="st0" d="M535.7,189.4c1.1-1.1,1.7-2.5,1.7-4.1v-35.2c0-2.6,2.1-4.7,4.7-4.7h27c2.6,0,4.7,2.1,4.7,4.7v35.2
	c0,1.6,0.6,3,1.7,4.1c1.1,1.1,2.5,1.7,4.1,1.7h27.8c1.6,0,3-0.6,4.1-1.7s1.7-2.5,1.7-4.1V75.4c0-1.6-0.6-2.9-1.7-4.1
	c-1.1-1.1-2.5-1.7-4.1-1.7h-27.8c-1.6,0-3,0.6-4.1,1.7c-1.1,1.1-1.7,2.5-1.7,4.1v34.4c0,2.6-2.1,4.7-4.7,4.7h-25.7
	c-3.3,0-6.1-2.7-6.1-6.1v-33c0-1.6-0.6-2.9-1.7-4.1c-1.1-1.1-2.5-1.7-4.1-1.7h-27.8c-1.6,0-3,0.6-4.1,1.7c-1.1,1.1-1.7,2.5-1.7,4.1
	v109.9c0,1.7,0.6,3.1,1.7,4.2c1.1,1.1,2.5,1.6,4.1,1.6h27.8C533.1,191.1,534.5,190.5,535.7,189.4z"/>
<path class="st0" d="M737.1,189.2c1.1-1.1,1.7-2.5,1.7-4.1V75.2c0-1.6-0.6-2.9-1.7-4.1c-1.1-1.1-2.5-1.7-4.1-1.7h-24.4
	c-1.6,0-3,0.6-4.1,1.7c-1.1,1.1-1.7,2.5-1.7,4.1v41.4c0,2.5-1.7,4-3.3,4.5s-3.8,0.3-5.2-1.7l-28.8-46.2c-1.9-2.6-4.5-3.9-7.6-3.9
	h-22.7c-1.6,0-3,0.6-4.1,1.7c-1.1,1.1-1.7,2.5-1.7,4.1V185c0,1.6,0.6,3,1.7,4.1c1.1,1.1,2.5,1.7,4.1,1.7h24.4c1.6,0,3-0.6,4.1-1.7
	s1.7-2.5,1.7-4.1v-38.8c0-2.5,1.6-3.9,3.2-4.5c1.5-0.5,3.7-0.4,5.2,1.5l29,43.5c2,2.7,4.7,4.1,7.8,4.1h22.6
	C734.6,190.9,736,190.3,737.1,189.2z"/>
<path class="st0" d="M999.5,73.8c0-1-0.5-2-1.5-3s-2.1-1.5-3.5-1.5h-23.8c-4.6,0-7.7,2.2-8.8,6.4l-25.7,77.1l-25.7-77.1
	c-0.5-1.6-1.5-3-3-4.3c-1.5-1.4-3.5-2.1-5.8-2.1h-23.8c-1.3,0-2.5,0.5-3.5,1.5s-1.5,2-1.5,3c0,0.8,0.1,1.4,0.2,2.1L910.2,185
	c1.4,3.9,4.4,5.9,8.6,5.9h34.8c4.4,0,7.4-2.2,8.8-6.4l36.7-108.7C999.4,75.3,999.5,74.6,999.5,73.8z"/>
<path class="st0" d="M1142.8,189.2c1.1,1.1,2.5,1.7,4.1,1.7h25.4c1.6,0,3-0.6,4.1-1.7s1.7-2.5,1.7-4.1v-79.3c0-2.6,2.1-4.7,4.7-4.7
	h30.6c1.6,0,3-0.6,4.1-1.7c1.1-1.1,1.7-2.5,1.7-4.1V75.2c0-1.6-0.6-2.9-1.7-4.1c-1.1-1.1-2.5-1.7-4.1-1.7h-107.7
	c-1.6,0-3,0.6-4.1,1.7c-1.1,1.1-1.7,2.5-1.7,4.1v20.1c0,1.6,0.6,3,1.7,4.1s2.5,1.7,4.1,1.7h30.6c2.6,0,4.7,2.1,4.7,4.7v79.3
	C1141.1,186.7,1141.7,188.1,1142.8,189.2z"/>
<path class="st0" d="M1567.2,71.1c-1.1-1.1-2.5-1.7-4.1-1.7h-24.4c-1.6,0-3,0.6-4.1,1.7c-1.1,1.1-1.7,2.5-1.7,4.1v41.4
	c0,2.5-1.7,4-3.3,4.5c-1.6,0.5-3.8,0.3-5.2-1.7l-28.8-46.2c-1.9-2.6-4.5-3.9-7.6-3.9h-22.7c-1.6,0-3,0.6-4.1,1.7
	c-1.1,1.1-1.7,2.5-1.7,4.1V185c0,1.6,0.6,3,1.7,4.1s2.5,1.7,4.1,1.7h24.4c1.6,0,3-0.6,4.1-1.7s1.7-2.5,1.7-4.1v-38.8
	c0-2.5,1.6-3.9,3.2-4.5c1.5-0.5,3.7-0.4,5.2,1.5l29,43.5c2,2.7,4.7,4.1,7.8,4.1h22.6c1.6,0,3-0.6,4.1-1.7s1.7-2.5,1.7-4.1V75.2
	C1568.9,73.6,1568.3,72.2,1567.2,71.1z"/>
<path class="st0" d="M417.9,99.8c5.2-0.8,10.6-0.4,15.4,1.7c4.8,2.1,8.8,6.1,10.6,11c0.8,2.4,1.2,5.1,2.9,6.9c2,2.1,5.3,2.2,8.2,2.3
	c5.9,0.1,11.8,0.2,17.7,0.3c4.3,0.1,8.8,0.1,11-4.4c1.4-2.8,1.3-6.1,0.9-9.1c-2.2-14.3-13.1-26-25.8-33
	C437.9,64,411.2,63.7,390,74.6c-9.6,5-18.2,12.3-23.2,21.9c-5.2,10.1-6,21.8-6.1,33.2c-0.1,11.3,0.6,23,5.6,33.2
	c6.5,13.3,19.8,22.4,33.9,27c7.6,2.5,15.7,3.7,23.7,3.8c11.6,0,23.2-2.5,33.6-7.7c7.8-3.9,14.9-9.3,19.9-16.4s7.7-16,6.5-24.6
	c-0.4-2.6-1.3-5.5-3.7-6.8c-1.4-0.8-3.1-0.8-4.7-0.8c-6.4-0.1-12.8-0.2-19.2-0.3c-2.7,0-5.5,0-7.7,1.5c-3.1,2.2-3.6,6.4-5.1,9.9
	c-3.6,8.5-13.8,12.7-23.1,12.2c-7.4-0.4-15.3-4-18.1-10.8c-1.4-3.3-1.4-7-1.5-10.6c0-5.3-0.1-10.7-0.1-16c0-5.1,0-10.6,2.7-14.9
	C406.3,103.3,412.1,100.7,417.9,99.8z"/>
<path class="st1" d="M173.8,322.4h34.4c-2,6.6-5.5,11.7-10.3,15.2c-4.9,3.6-10.6,5.3-17,5.3c-10.1,0-17.9-2.9-23.3-8.6
	c-5.5-5.7-8.2-14-8.2-24.7c0-9.9,2.6-17.7,7.8-23.5c5.2-5.8,12.1-8.7,20.7-8.7c5.5,0,10.2,1.2,14.2,3.6c3.9,2.4,6.8,5.6,8.8,9.6
	h28.8c-2.2-11.8-7.9-21.1-17-28c-9.1-6.9-20.8-10.3-34.9-10.3c-11.3,0-21.1,2.4-29.5,7.2c-8.4,4.8-15,11.6-19.6,20.3
	c-4.6,8.7-6.9,18.6-6.9,29.8c0,11.1,2.3,21.1,6.9,29.8c4.6,8.7,11.2,15.5,19.7,20.3s18.4,7.2,29.8,7.2c9.3,0,17.6-1.8,24.9-5.3
	s13.2-8.1,17.9-13.7c4.7-5.6,8.1-11.7,10.2-18.3v-26.9H174v19.7H173.8z"/>
<path class="st1" d="M259.9,237.8c-4.9,0-8.8,1.4-11.8,4.1s-4.5,6.1-4.5,10.3c0,4,1.5,7.4,4.5,10.1s6.9,4.1,11.8,4.1
	s8.8-1.4,11.8-4.1s4.5-6.1,4.5-10.1c0-4.1-1.5-7.6-4.5-10.3C268.7,239.2,264.8,237.8,259.9,237.8z"/>
<rect x="246.2" y="277.1" class="st1" width="27.2" height="88.8"/>
<path class="st1" d="M319.4,293.9v-16.7h-27.2V366h27.2v-40.4c0-7.3,2-12.5,6-15.6s9.6-4.6,16.8-4.6h7.8v-29.1
	c-6.3,0-12.1,1.6-17.4,4.8C327.2,284.1,322.8,288.4,319.4,293.9z"/>
<rect x="361.5" y="248.2" class="st1" width="27.2" height="117.8"/>
<path class="st1" d="M464.7,318c-4.4-1.6-9.9-3.3-16.7-4.9c-6.3-1.4-10.9-2.8-13.8-4.1c-2.9-1.4-4.4-3.4-4.4-6.2
	c0-2.4,0.8-4.3,2.4-5.7c1.6-1.3,3.9-2,7-2c3.9,0,7.2,1,9.8,3.1s4.3,4.9,5,8.5h25.5c-1.7-9.2-5.9-16.7-12.7-22.3
	c-6.7-5.6-15.7-8.4-27-8.4c-11,0-19.6,2.5-25.6,7.4c-6.1,4.9-9.1,11.4-9.1,19.3c0,6.2,1.5,11,4.6,14.6s6.7,6.1,11,7.7
	c4.2,1.6,9.7,3.1,16.2,4.5c6.6,1.5,11.3,2.9,14.3,4.2c2.9,1.3,4.4,3.5,4.4,6.6c0,2.3-0.8,4.2-2.4,5.7s-3.9,2.1-7,2.1
	c-4.5,0-8.1-1-10.9-3c-2.8-2-4.4-4.9-4.9-8.8h-26.3c1.6,9.9,6,17.5,13.2,22.8s16.8,8,28.8,8c7.1,0,13.3-1.1,18.5-3.3
	c5.2-2.2,9.2-5.3,11.9-9.2c2.8-3.9,4.1-8.4,4.1-13.5c0-6.3-1.6-11.3-4.8-15C472.8,322.3,469,319.6,464.7,318z"/>
<path class="st0" d="M113.3,71.3c-1.1,1.1-1.7,2.5-1.7,4.1v20.1c0,1.6,0.6,3,1.7,4.1s2.5,1.7,4.1,1.7H148c2.6,0,4.7,2.1,4.7,4.7
	v79.2c0,1.6,0.6,3,1.7,4.1s2.5,1.7,4.1,1.7h25.4c1.6,0,2.9-0.6,4.1-1.7c1.1-1.1,1.7-2.5,1.7-4.1V106c0-2.6,2.1-4.7,4.7-4.7H225
	c1.6,0,2.9-0.6,4.1-1.7c1.1-1.1,1.7-2.5,1.7-4.1V75.4c0-1.6-0.6-2.9-1.7-4.1c-1.1-1.1-2.5-1.7-4.1-1.7H117.4
	C115.8,69.6,114.5,70.2,113.3,71.3z"/>
<path class="st2" d="M140.4,113.6h-15.2v6.6H82.3V84.4h17.1V69.6H71.1c-2.2,0-4,1.8-4,4v49.8c0,6.7,5.4,12.1,12.1,12.1h57.3
	c2.2,0,4-1.8,4-4v-17.9H140.4z"/>
<path class="st3" d="M157.6,57.4c-3.4-9.1-12.3-15.6-22.6-15.6H43c-2.2,0-4,1.8-4,4v89.6c0,15.6,12.6,28.2,28.2,28.2h73.3V148H68.9
	c-7.8,0-14.1-6.3-14.1-14.1V57.4H157.6z"/>
<path class="st1" d="M140.4,175H62.8c-20,0-36.2-16.3-36.2-36.2V29.5h110.6c16.8,0,30.9,12.4,35,27.9h16.5
	c-4.4-24.5-25.8-44-51.5-44H14.5c-2.2,0-4,1.8-4,4v121.3c0,28.9,23.4,52.4,52.4,52.4h77.6V175H140.4z"/>
</svg>
