<?xml version="1.0" encoding="utf-8"?>
<!-- Generator: Adobe Illustrator 22.0.1, SVG Export Plug-In . SVG Version: 6.00 Build 0)  -->
<svg version="1.1" id="Layer_1" xmlns="http://www.w3.org/2000/svg" xmlns:xlink="http://www.w3.org/1999/xlink" x="0px" y="0px"
	 viewBox="0 0 400 400" style="enable-background:new 0 0 400 400;" xml:space="preserve">
<style type="text/css">
	.st0{fill:none;}
	.st1{opacity:0.1;fill:url(#SVGID_1_);enable-background:new    ;}
	.st2{fill:url(#SVGID_2_);}
	.st3{opacity:0.1;fill:url(#SVGID_3_);enable-background:new    ;}
	.st4{fill:url(#SVGID_4_);}
	.st5{fill:url(#SVGID_5_);}
	.st6{fill:url(#SVGID_6_);}
	.st7{fill:url(#SVGID_7_);}
	.st8{opacity:0.51;}
	.st9{fill:url(#SVGID_8_);}
	.st10{opacity:0.57;enable-background:new    ;}
	.st11{opacity:0.49;fill:url(#SVGID_9_);enable-background:new    ;}
</style>
<rect x="-0.5" y="0.5" class="st0" width="400" height="400"/>
<linearGradient id="SVGID_1_" gradientUnits="userSpaceOnUse" x1="219.336" y1="209.5" x2="254.0617" y2="209.5" gradientTransform="matrix(1 0 0 -1 0 400)">
	<stop  offset="0" style="stop-color:#47CFA4"/>
	<stop  offset="1" style="stop-color:#5CC4D6"/>
</linearGradient>
<ellipse class="st1" cx="236.7" cy="190.5" rx="17.4" ry="4.5"/>
<linearGradient id="SVGID_2_" gradientUnits="userSpaceOnUse" x1="171.1999" y1="167.8" x2="216.3001" y2="167.8" gradientTransform="matrix(1 0 0 -1 0 400)">
	<stop  offset="0" style="stop-color:#47CFA4"/>
	<stop  offset="1" style="stop-color:#5CC4D6"/>
</linearGradient>
<path class="st2" d="M193.7,243h-0.1l0,0c-7.1,0-12.6-2.1-16.5-6c-6-6.2-5.9-14.7-5.9-15s0.3-0.6,0.6-0.6h43.9
	c0.3,0,0.6,0.2,0.6,0.6c0,0.4,0.1,8.9-5.9,15C206.3,240.9,200.8,242.9,193.7,243L193.7,243z M172.3,222.5c0.1,2,0.8,8.7,5.6,13.7
	c3.7,3.8,9,5.7,15.8,5.7s12.1-1.9,15.8-5.7c4.8-4.9,5.5-11.7,5.6-13.7H172.3z"/>
<linearGradient id="SVGID_3_" gradientUnits="userSpaceOnUse" x1="132.8623" y1="209.5" x2="167.588" y2="209.5" gradientTransform="matrix(1 0 0 -1 0 400)">
	<stop  offset="0" style="stop-color:#47CFA4"/>
	<stop  offset="1" style="stop-color:#5CC4D6"/>
</linearGradient>
<ellipse class="st3" cx="150.2" cy="190.5" rx="17.4" ry="4.5"/>
<g>
	<path class="st0" d="M119.4,130.5c2.6,0.5,5.3,0.7,8,0.9c4,0.1,8,0,12.1-0.3c-2-1.3-3.9-2.8-5.8-4.4c-2.4-2.3-4.7-4.9-5.8-8
		c1.5,2.9,3.9,5.3,6.5,7.2c2.6,1.9,5.5,3.5,8.4,4.9c0,0,0.1,0,0.2,0.1c0.3,0,0.6,0,0.8-0.1c-0.2,0.1-0.4,0.1-0.6,0.2
		c5.8,2.7,11.9,4.8,18,6.4c6.3,1.7,12.7,3.1,19.1,4.1c6.4,1,12.9,1.8,19.4,2.3c13,0.9,26,0.8,38.7-1.3c6.3-1.1,12.5-2.6,18.1-5.1
		c5.6-2.5,10.7-5.9,13.7-10.6c0.7-1.2,1.4-2.4,1.8-3.7c0.2-0.6,0.5-1.4,0.7-2.1s0.4-1.5,0.6-2.2c0.1-0.3,0.1-0.5,0.2-0.8
		c-1.6-2-3.4-3.9-5.5-5.5c-3-2.5-6.4-4.6-10-6.3c-7.1-3.4-14.9-5.2-22.8-6.1c-15.7-1.9-31.7-0.6-47.3,1.7
		c-7.8,1.2-15.6,2.7-23.4,4.4c-3.9,0.9-7.7,1.8-11.6,2.8l-2.9,0.7c-1,0.3-2,0.4-3,0.5c-2,0.2-4.1,0.2-6.1-0.1
		c-4-0.5-7.9-1.9-11.5-3.6c-3.6-1.7-7-3.9-10.2-6.3c-5.2-4-10-8.5-14.4-13.4c-0.2,0.5-0.4,1.1-0.6,1.6l-0.3,0.9l-0.3,1l-0.5,1.9
		c-0.4,1.3-0.7,2.6-1,3.8c-0.6,2.6-1,5.1-1.3,7.7s-0.4,5.1-0.2,7.6s0.6,4.9,1.5,7.1c1.7,4.5,5.2,7.9,9.9,9.9
		C114.3,129.3,116.8,130,119.4,130.5z"/>
	<path class="st0" d="M119.6,99.7c3.2,2.3,6.6,4.4,10.2,6.1s7.3,2.9,11.2,3.4c1.9,0.2,3.9,0.2,5.8,0c1-0.1,1.9-0.3,2.9-0.6l2.9-0.8
		c3.8-1,7.7-2,11.6-2.9c7.8-1.8,15.6-3.3,23.4-4.6c7.9-1.2,15.8-2,23.8-2.4c8-0.3,16-0.2,23.9,0.9s15.8,3.1,23,6.7
		c5.9,3,11.2,7.2,15.2,12.4c0.7-2.7,1.1-5.4,1.2-8c0.1-2.9-0.2-5.8-1.1-8.5s-2.3-5.1-4.1-7.3c-3.7-4.3-9.2-7.3-15.1-9.3
		c-3-1-6-1.8-9.1-2.5s-6.3-1.2-9.5-1.6c-6.4-0.8-12.9-1.1-19.4-1.1c-6.5-0.1-13.1,0.1-19.6,0.5c-12.4,0.9-24.8,2.3-37.1,4
		c3.1,0,6.1-0.2,9.1-0.4c-4.3,1.1-8.7,1.9-13.3,2.1c-2.3,0.1-4.6,0-6.9-0.3c-2.3-0.3-4.6-0.9-6.9-2c-2.2-1.1-4.3-2.8-5.7-4.9
		c-1.5-2.1-2.3-4.7-2.7-7.1c-0.4-2.5-0.3-5,0.1-7.4c0.1-0.5,0.2-1,0.3-1.6c-0.9,0.3-1.8,0.6-2.7,1c-2.4,0.9-4.8,2-7.1,3.2
		c-4.6,2.4-8.7,5.4-12.1,9.1c-1.7,1.8-3.2,3.8-4.5,5.9c-1,1.6-1.8,3.2-2.4,4.9C109.4,91.4,114.3,95.8,119.6,99.7z"/>
	<path class="st0" d="M268.8,138.9c-0.7,0.5-1.3,1-2,1.4c1,1.7,1.9,3.3,2.7,5.1c1.7,3.3,3.2,6.8,4.6,10.3c1.3,3.5,2.4,7.2,3,10.9
		c0.2,1,0.3,1.9,0.4,2.9c0.3-1.8,0.6-3.5,0.8-5.3c0.1-1.1,0.3-2.2,0.4-3.3s0.2-2.2,0.3-3.4c0.1-1.1,0.2-2.2,0.2-3.3s0.2-2.2,0.1-3.3
		v-3.3l-0.2-3.3c-0.1-2.2-0.3-4.5-0.6-6.7c-0.4-2.6-0.8-5.2-1.3-7.9c-0.2,0.4-0.4,0.7-0.7,1.1C274.4,134,271.7,136.7,268.8,138.9z"
		/>
	<path class="st0" d="M107.8,165.5c0.2,1.2,0.4,2.5,0.6,3.7c0.1-1.2,0.3-2.3,0.4-3.4c0.7-4,2-7.9,3.5-11.7s3.2-7.5,5.1-11.1
		c1.6-3,3.2-5.9,5-8.8c-4,0-8-0.4-11.9-1.7c-1-0.3-1.9-0.7-2.9-1.1c-0.4,3.3-0.7,6.6-0.9,9.9c-0.2,4.1-0.3,8.1-0.1,12.1
		S107.2,161.4,107.8,165.5z"/>
	<path class="st0" d="M279.5,183.1c-0.5,3.1-1.3,6.2-2.4,9.2l-0.9,2.6c1,0.7,2.1,1.2,3.3,1.6c1.3,0.3,2.7,0.3,3.9,0.1
		c2.6-0.5,4.8-2.2,6.5-4.1c1.8-2,3.2-4.3,4.2-6.8c1.1-2.5,1.8-5.1,2.2-7.7c0.5-2.7,0.5-5.4,0.3-8c-0.2-2.7-1-5.3-2.2-7.6
		c-0.3-0.6-0.7-1.1-1-1.7c-0.4-0.5-0.8-1-1.3-1.5c-0.4-0.5-1-0.8-1.5-1.2c-0.6-0.3-1.1-0.7-1.7-0.8c-1.7-0.8-3.7-0.7-5.5-0.2
		c0,0.4-0.1,0.8-0.2,1.2c-0.2,1.2-0.4,2.3-0.6,3.5s-0.6,2.3-0.9,3.4c-0.4,1.4-0.9,2.8-1.4,4.1C280.6,173.8,280.3,178.5,279.5,183.1z
		"/>
	<path class="st0" d="M106.9,172.7c-1-2-1.9-4.2-2.6-6.4c-1-3.2-1.7-6.5-2-9.9c-0.6-0.1-1.2-0.1-1.8,0c-0.7,0.1-1.3,0.2-1.9,0.4
		s-1.2,0.5-1.8,0.8c-1.1,0.7-2,1.6-2.8,2.6c-0.7,1.1-1.5,2.1-1.9,3.4c-1,2.4-1.6,5-1.7,7.7c-0.2,2.6,0,5.3,0.5,7.9
		c0.4,2.6,1.2,5.2,2.4,7.6c1.1,2.4,2.6,4.6,4.4,6.5c1.8,1.8,4.1,3.2,6.7,3.5c2.2,0.3,4.4-0.5,6.3-1.9c-0.7-2.1-1.5-4.3-2-6.5
		C107.5,183.2,106.9,177.9,106.9,172.7z"/>
	<path class="st0" d="M182.6,262.5l2.3,0.4c0.7,0.1,1.5,0.2,2.2,0.3c3,0.4,6,0.5,9,0.3c1.5-0.1,3-0.2,4.5-0.4c1.5-0.2,3-0.5,4.6-0.7
		l9.2-1.5l9.2-1.5l4.6-0.8c1.5-0.3,2.9-0.5,4.4-0.9c11.5-2.9,21.6-11.3,26.1-22.4l13.4-35l3.4-8.7c1.1-2.9,2.1-5.8,2.8-8.8
		c1-4.1,1.5-8.3,1.6-12.6c-0.2,0.5-0.4,1-0.6,1.6c-0.2,0.5-0.5,1.1-0.8,1.6s-0.5,1-0.8,1.6c-0.6,0.7-1.2,1.8-1.8,2.8v-0.1l0,0v-0.1
		c0.2-1.1,0.4-2.2,0.6-3.3c0.1-0.3,0.1-0.6,0.2-1c0-0.3,0-0.7,0-1c-0.1-1.8-0.4-3.7-0.8-5.5c-0.8-3.6-2-7.1-3.3-10.6
		s-2.7-6.9-4.2-10.3l-2.3-5.2c-2.2,1.4-4.4,2.5-6.7,3.5c-6.5,2.7-13.2,4.3-20,5.3c-6.7,1-13.5,1.3-20.2,1.3s-13.4-0.5-20.1-1.2
		c-13.3-1.5-26.4-4.4-39.1-8.7c-6.3-2.3-12.5-4.8-18.2-8.3c-0.5-0.3-1-0.6-1.4-0.9c-4.2,1.1-8.5,1.9-12.9,2.3
		c-1.6,0.1-3.2,0.2-4.8,0.2l-4.3,9.3c-1.7,3.7-3.3,7.4-4.7,11.1c-1.5,3.7-2.8,7.5-3.7,11.4c-0.5,1.9-0.8,3.9-0.9,5.9
		c0,0.4,0,0.7-0.1,1.1c0.3,1.6,0.6,3.2,0.9,4.8c-1-1.5-1.9-3.1-2.7-4.7c0.4,5.1,1.4,10,2.9,14.8c1,2.9,2.2,5.8,3.3,8.7l3.4,8.7
		l6.7,17.5l3.3,8.8c1.1,3,2.2,5.7,3.7,8.3c3,5.2,7.3,9.5,12.3,12.7c2.5,1.6,5.2,3,8,4s5.7,1.7,8.7,2.1l18.5,3L182.6,262.5z"/>
	
		<linearGradient id="SVGID_4_" gradientUnits="userSpaceOnUse" x1="57.7766" y1="171.9616" x2="330.002" y2="171.9616" gradientTransform="matrix(1 0 0 -1 0 400)">
		<stop  offset="0" style="stop-color:#47CFA4"/>
		<stop  offset="1" style="stop-color:#5CC4D6"/>
	</linearGradient>
	<path class="st4" d="M329.2,348.1l-0.1-3.3c-0.1-1.2-0.3-2.4-0.5-3.6s-0.6-2.3-0.9-3.5c-0.3-1.1-0.9-2.2-1.3-3.3
		c-2-4.3-5.2-8.1-8.7-11.1s-7.5-5.4-11.6-7.4s-8.3-3.7-12.6-5c-8.5-2.6-17.2-4.4-25.9-5.8c-8.7-1.3-17.5-2.3-26-3.5
		c-2.1-0.4-4.2-0.7-6.2-1.2c-0.6-0.1-1-0.2-1.5-0.4l-0.7-0.2c-0.2-0.1-0.4-0.2-0.6-0.3c-0.8-0.3-1.6-0.8-2.3-1.4
		c-1.5-1.1-2.7-2.8-3.8-4.5c-1.1-1.8-1.9-3.7-2.7-5.7c-1.5-3.9-2.5-8.1-3.3-12.4c-0.7-3.6-1.1-7.2-1.5-10.8l5.2-0.9l4.6-0.8
		c1.6-0.3,3.2-0.6,4.8-1.1c3.1-0.8,6.2-2.1,9.1-3.6c2.9-1.6,5.6-3.4,8.1-5.6c2.5-2.2,4.7-4.6,6.6-7.3c1.8-2.7,3.4-5.6,4.5-8.7
		c4.2-11.9,8.2-23.7,12.2-35.5l2.1-6.2c0.8,0.9,1.8,1.7,3,2.2c0.6,0.3,1.4,0.5,2.1,0.6l0.6,0.1c0.2,0,0.4,0,0.6,0c0.3,0,0.7,0,1.1,0
		c1.6-0.1,3-0.6,4.4-1.3c0.6-0.4,1.3-0.7,1.9-1.2c0.6-0.4,1.1-0.9,1.7-1.4c4.3-4.2,6.7-9.9,7.7-15.7c0.4-2.9,0.5-5.9,0.1-8.8
		c-0.4-2.9-1.3-5.8-2.9-8.4c-0.3-0.6-0.8-1.2-1.3-1.8c-0.6-0.6-1.1-1.2-1.7-1.6c-0.5-0.5-1.2-0.8-1.9-1.2c-0.7-0.3-1.4-0.6-2.2-0.7
		c-1.5-0.4-3.1-0.3-4.5,0.1c-0.5,0.1-1,0.3-1.5,0.6c0.1-0.6,0.1-1.2,0.2-1.8c0.1-1.2,0.2-2.4,0.2-3.6l-0.1-3.6l-0.4-3.6
		c-0.3-2.4-0.7-4.7-1.4-7c-0.8-3.2-2-6.3-3.6-9.2c0.3-0.7,0.6-1.3,0.8-2c0.3-1,0.5-1.8,0.8-2.6c0.2-0.8,0.5-1.6,0.7-2.5
		c0.9-3.4,1.5-7,1.6-10.6s-0.4-7.4-1.6-11s-3.2-6.9-5.7-9.7c-2.6-2.7-5.6-4.9-8.7-6.7c-3.1-1.7-6.4-3.1-9.7-4.1s-6.6-1.8-10-2.4
		s-6.7-0.9-10.1-1.2c-6.7-0.5-13.4-0.5-20.1-0.2c-6.7,0.3-13.3,1-19.9,1.8c-12.7,1.8-25.5,4.2-37.9,7.6c-1,0-2,0-3,0
		c-2.1-0.2-4.3-0.6-6.3-1.1c-2-0.6-3.9-1.3-5.6-2.4c-1.6-1-3-2.4-3.9-4s-1.4-3.5-1.5-5.4s0.2-3.9,0.6-5.9c0.2-1,0.5-1.9,0.8-2.9
		c0.1-0.5,0.3-0.9,0.5-1.4c0.2-0.4,0.4-1,0.6-1.3c0.3-0.5,0.4-1.1,0.3-1.7c-0.2-1.6-1.6-2.7-3.2-2.5h-0.2c-1.6,0.2-3,0.5-4.4,0.8
		s-2.8,0.7-4.2,1.1c-2.8,0.8-5.5,1.9-8.1,3.1c-5.3,2.5-10.3,5.8-14.4,10.2c-4.2,4.3-7.4,9.7-9.1,15.5l-0.3,1.1l-0.3,1l-0.5,2.1
		c-0.3,1.4-0.6,2.8-0.9,4.2c-0.5,2.8-0.9,5.7-1.1,8.6s-0.2,5.8,0.2,8.8c0.3,3,1.1,6,2.4,8.8s3.2,5.4,5.6,7.4c1.3,1.1,2.7,2,4.2,2.7
		c-1.6,3.1-2.8,6.4-3.5,9.9c-1,4.2-1.3,8.5-1.1,12.8c0,0.8,0.1,1.6,0.2,2.3c-0.5-0.1-1-0.2-1.5-0.2c-0.7-0.1-1.5-0.1-2.2,0.1
		c-0.8,0.1-1.5,0.4-2.2,0.6c-1.4,0.6-2.6,1.5-3.7,2.6s-1.9,2.3-2.6,3.6c-2.8,5.3-3.1,11.4-2.1,17.1c0.6,2.9,1.5,5.7,2.8,8.3
		c1.4,2.6,3.1,5.1,5.4,7c1.2,1,2.4,1.8,3.8,2.4c1.4,0.5,2.9,0.9,4.4,0.8c0.4,0,0.7-0.1,1.1-0.1s0.7-0.1,1.1-0.2
		c0.7-0.2,1.4-0.5,2-0.9c0.9-0.5,1.6-1.1,2.2-1.8c0.3,0.7,0.5,1.5,0.8,2.2l3,8.9l6,17.7l3.1,8.9c1,2.9,2.1,6.1,3.7,8.9
		c6.2,11.6,18.5,19.4,31.3,21.3l10.5,1.8c-0.4,3.5-0.9,7.1-1.6,10.5c-0.8,4.2-1.8,8.4-3.3,12.4c-0.8,2-1.6,3.9-2.7,5.7
		c-1.1,1.7-2.3,3.4-3.8,4.5c-0.7,0.6-1.5,1.1-2.3,1.4c-0.2,0.1-0.4,0.2-0.6,0.3l-0.7,0.2c-0.5,0.2-1,0.3-1.5,0.4
		c-2,0.5-4.1,0.9-6.2,1.2c-8.6,1.1-77.7,12.2-84.8,32.8c-4.5,8.9-4,48.7-3.8,66.2c2.3-17.3-0.4-65.9,18.7-75.3
		c14.9-7.4,46.7-15,47.6-15.2c0.3,8.6,1.8,44.9,2.2,54.4c0,0.2,0.2,0.5,0.5,0.5l22.3,3.3c-2,3.7-3.9,7.4-5.8,11.1c0,0.1,0,0.2,0,0.3
		l8.1,21l-7.4-21.1c2.1-3.8,4.1-7.6,6.1-11.5c0.1-0.1,0.1-0.6-0.3-0.8l-22.5-3.3c-0.5-9.4-2.5-45.3-3.1-53.9
		c2.2-0.4,4.3-0.7,6.5-1.1c-0.2,3.6,0.5,46.4,0.7,50.9c0,1,0.8,1.9,1.9,2.1c3.8,0.5,17.5,2.4,20.5,2.8c-0.5,1.1-4.6,9.5-4.6,9.5
		c-0.1,0.3-0.1,0.7,0,1c1.8,4.3,8.9,21.1,10.8,25.3c-1.2-4.4-2.6-8.8-3.9-13.3c-1.3-4.2-2.7-8.3-4-12.4c1-1.7,5.2-9,6.3-10.9
		c0.8-2.1-1.5-2.8-1.5-2.8c-3.8-0.6-18-2.9-21.2-3.4c-0.2-3.9-4-45.3-4.5-48.9c1-0.2,2.1-0.3,3.1-0.5c3.9-0.6,7.9-1.3,11.8-2.1
		c3.2,7.5,43.1,86.6,47.7,94.4c-2.9-10.4-38.2-82.2-47.4-94.4c0.3-0.1,0.6-0.1,0.9-0.2c2.2-0.5,4.4-0.9,6.6-1.6
		c0.6-0.1,1.1-0.3,1.7-0.5l0.8-0.3c0.3-0.1,0.6-0.3,0.9-0.4c1.1-0.6,2.2-1.4,3.1-2.2c0.6-0.6,1.2-1.3,1.7-1.9
		c5.9,1.6,11.8,2.4,19.9,2.6c-1.7,4.6-7.9,53.5-8.1,55.9c0.5-2.3,8.4-55.9,8.5-55.9c3.3,0.1,23.4,0,23.4,0
		c0.2,1.9,7.7,53.5,8.2,55.9c-0.2-2.4-5.6-50.8-8.1-55.9c8.4-0.3,14.1-1,19.7-2.6c0.5,0.7,1.1,1.4,1.8,2c0.9,0.9,1.9,1.7,3.1,2.2
		c0.3,0.1,0.6,0.3,0.9,0.4l0.8,0.3c0.6,0.2,1.2,0.4,1.7,0.5c2.2,0.7,4.4,1.1,6.6,1.6c0.3,0.1,0.7,0.1,1,0.2
		c-12.7,21.2-43.8,85.9-47.3,94.2c4.6-7.7,44.2-82.6,47.6-94.1c3.9,0.8,7.8,1.4,11.7,2c1.1,0.2,2.1,0.3,3.2,0.5
		c-0.5,3.5-0.9,7.1-1.4,10.7c-0.4,4.4-0.9,8.9-1.3,13.3c-0.5,4.5-0.8,8.9-1.1,13.4c-0.3,3.9-0.5,7.7-0.7,11.6l-4,0.6l-5.8,0.9
		c-3.8,0.6-7.7,1.3-11.5,1.9h-0.1c-0.2,0-0.4,0.1-0.6,0.2c-1,0.5-1.3,1.7-0.8,2.6c1.1,1.9,2.2,3.8,3.3,5.7c1,1.7,2,3.4,3,5.2
		c-1.3,4.2-2.7,8.3-4,12.4c-1.3,4.3-2.6,8.7-3.9,13.1c1.9-4.2,3.7-8.4,5.5-12.6s3.6-8.5,5.3-12.7c0.1-0.3,0.2-0.7,0-1l-0.1-0.1
		c-0.9-2-1.9-4-2.8-6c-0.6-1.1-1.1-2.3-1.7-3.4c3-0.4,6-0.8,9-1.2l5.8-0.8l5.8-0.8c1-0.2,1.8-1,1.9-2.1c0.3-4.5,0.5-8.9,0.6-13.4
		s0.3-8.9,0.3-13.4c0.1-4.5,0.1-8.9,0.1-13.4c-0.1-3.5-0.2-7-0.3-10.6c2.2,0.4,4.3,0.7,6.5,1.1c-0.6,8.5-1.1,17.1-1.6,25.6
		c-0.5,9.4-1,18.7-1.5,28.1l-11,1.6l-11.5,1.7c-0.1,0.1-0.1,0.1-0.2,0.1c-0.2,0.2-0.3,0.5-0.2,0.7c2,3.9,4.1,7.6,6.1,11.5l-3.7,10.4
		l-3.7,10.7l4.2-10.6l4-10.5c0.1-0.1,0.1-0.2,0-0.3c-1.9-3.7-3.9-7.4-5.8-11.1l10.8-1.6l11.5-1.7c0.3,0,0.5-0.2,0.5-0.5
		c0.4-9.5,0.9-19,1.3-28.5c0.4-8.5,0.7-17,0.9-25.6c0.9,0.2,1.7,0.3,2.6,0.5c4.3,0.8,8.5,1.6,12.7,2.6s8.3,2.1,12.4,3.4
		s8,2.8,11.8,4.6s7.3,3.9,10.5,6.5c3.1,2.5,5.8,5.6,7.6,9.1c0.4,0.9,0.9,1.8,1.2,2.7c0.3,0.9,0.7,1.8,0.9,2.8s0.4,1.9,0.6,2.9
		l0.3,3.3c1.5,17.4,3.1,34.7,5.4,52.1C330.2,383.1,329.8,365.6,329.2,348.1z M281.7,165.1c0.3-1.1,0.7-2.2,0.9-3.4s0.4-2.3,0.6-3.5
		c0.1-0.4,0.1-0.8,0.2-1.2c1.9-0.5,3.8-0.6,5.5,0.2c0.6,0.1,1.1,0.5,1.7,0.8c0.5,0.4,1.1,0.7,1.5,1.2c0.5,0.5,0.9,1,1.3,1.5
		c0.3,0.6,0.7,1.1,1,1.7c1.2,2.3,2,4.9,2.2,7.6c0.2,2.6,0.2,5.3-0.3,8c-0.4,2.6-1.1,5.2-2.2,7.7c-1,2.5-2.4,4.8-4.2,6.8
		c-1.7,1.9-3.9,3.6-6.5,4.1c-1.2,0.2-2.6,0.2-3.9-0.1c-1.1-0.4-2.3-0.9-3.3-1.6l0.9-2.6c1.1-3,1.9-6.1,2.4-9.2
		c0.8-4.6,1.1-9.3,0.8-13.9C280.8,167.9,281.3,166.5,281.7,165.1z M276.5,130.8c0.2-0.3,0.5-0.7,0.7-1.1c0.5,2.6,1,5.2,1.3,7.9
		c0.3,2.2,0.5,4.5,0.6,6.7l0.2,3.3v3.3c0.1,1.1-0.1,2.2-0.1,3.3s-0.1,2.2-0.2,3.3c-0.1,1.2-0.2,2.3-0.3,3.4
		c-0.1,1.1-0.3,2.2-0.4,3.3c-0.2,1.7-0.5,3.5-0.8,5.3c-0.1-1-0.2-1.9-0.4-2.9c-0.6-3.7-1.7-7.4-3-10.9c-1.4-3.5-2.9-7-4.6-10.3
		c-0.9-1.7-1.8-3.4-2.7-5.1c0.7-0.5,1.4-0.9,2-1.4C271.7,136.7,274.4,134,276.5,130.8z M107.3,81.7c1.3-2.1,2.8-4.1,4.5-5.9
		c3.4-3.7,7.5-6.7,12.1-9.1c2.3-1.2,4.7-2.3,7.1-3.2c0.9-0.4,1.8-0.7,2.7-1c-0.1,0.5-0.2,1-0.3,1.6c-0.4,2.4-0.5,4.9-0.1,7.4
		c0.4,2.4,1.2,5,2.7,7.1c1.4,2.1,3.5,3.8,5.7,4.9c2.3,1.1,4.6,1.7,6.9,2c2.3,0.3,4.6,0.4,6.9,0.3c4.6-0.2,9-1,13.3-2.1
		c-3,0.2-6.1,0.4-9.1,0.4c12.4-1.8,24.8-3.2,37.1-4c6.5-0.4,13.1-0.6,19.6-0.5c6.5,0,13,0.3,19.4,1.1c3.2,0.4,6.4,0.9,9.5,1.6
		s6.1,1.5,9.1,2.5c5.9,2,11.4,5,15.1,9.3c1.8,2.2,3.2,4.6,4.1,7.3c0.9,2.7,1.2,5.6,1.1,8.5c-0.1,2.6-0.5,5.3-1.2,8
		c-4-5.2-9.3-9.4-15.2-12.4c-7.2-3.6-15.1-5.6-23-6.7s-15.9-1.2-23.9-0.9c-8,0.4-15.9,1.2-23.8,2.4c-7.8,1.3-15.6,2.8-23.4,4.6
		c-3.9,0.9-7.8,1.9-11.6,2.9l-2.9,0.8c-1,0.3-1.9,0.5-2.9,0.6c-1.9,0.2-3.9,0.2-5.8,0c-3.9-0.5-7.6-1.7-11.2-3.4
		c-3.6-1.7-7-3.8-10.2-6.1c-5.3-3.9-10.2-8.3-14.7-13.1C105.5,84.9,106.3,83.3,107.3,81.7z M102.1,118.4c-0.9-2.2-1.3-4.6-1.5-7.1
		s-0.1-5,0.2-7.6c0.3-2.6,0.7-5.1,1.3-7.7c0.3-1.2,0.6-2.5,1-3.8l0.5-1.9l0.3-1l0.3-0.9c0.2-0.5,0.4-1.1,0.6-1.6
		c4.3,4.9,9.2,9.4,14.4,13.4c3.2,2.4,6.6,4.6,10.2,6.3c3.6,1.7,7.5,3.1,11.5,3.6c2,0.3,4.1,0.3,6.1,0.1c1-0.1,2-0.2,3-0.5l2.9-0.7
		c3.9-1,7.7-1.9,11.6-2.8c7.8-1.7,15.6-3.2,23.4-4.4c15.6-2.3,31.6-3.6,47.3-1.7c7.9,0.9,15.7,2.7,22.8,6.1c3.6,1.7,7,3.8,10,6.3
		c2,1.6,3.8,3.5,5.5,5.5c-0.1,0.3-0.1,0.5-0.2,0.8c-0.2,0.7-0.4,1.5-0.6,2.2s-0.5,1.5-0.7,2.1c-0.4,1.3-1.1,2.5-1.8,3.7
		c-3,4.7-8.1,8.1-13.7,10.6s-11.8,4-18.1,5.1c-12.7,2.1-25.7,2.2-38.7,1.3c-6.5-0.5-13-1.3-19.4-2.3s-12.8-2.4-19.1-4.1
		c-6.2-1.7-12.2-3.7-18-6.4c0.2-0.1,0.4-0.1,0.6-0.2c-0.3,0-0.6,0-0.8,0.1c0,0-0.1,0-0.2-0.1c-2.9-1.4-5.8-3-8.4-4.9
		c-2.6-1.9-5-4.3-6.5-7.2c1.1,3.1,3.4,5.7,5.8,8c1.8,1.7,3.7,3.1,5.8,4.4c-4,0.3-8.1,0.4-12.1,0.3c-2.7-0.2-5.4-0.4-8-0.9
		s-5.1-1.2-7.4-2.2C107.3,126.3,103.8,122.9,102.1,118.4z M106.7,141.3c0.2-3.3,0.5-6.6,0.9-9.9c1,0.4,1.9,0.8,2.9,1.1
		c3.9,1.3,7.9,1.7,11.9,1.7c-1.8,2.9-3.4,5.8-5,8.8c-1.9,3.6-3.6,7.3-5.1,11.1s-2.8,7.7-3.5,11.7c-0.2,1.1-0.3,2.3-0.4,3.4
		c-0.2-1.3-0.4-2.5-0.6-3.7c-0.6-4.1-1-8.1-1.2-12.1C106.4,149.4,106.5,145.4,106.7,141.3z M104.4,196.8c-2.6-0.3-4.9-1.7-6.7-3.5
		c-1.8-1.9-3.3-4.1-4.4-6.5c-1.2-2.4-2-5-2.4-7.6c-0.5-2.6-0.7-5.3-0.5-7.9c0.1-2.7,0.7-5.3,1.7-7.7c0.4-1.3,1.2-2.3,1.9-3.4
		c0.8-1,1.7-1.9,2.8-2.6c0.6-0.3,1.2-0.6,1.8-0.8c0.6-0.2,1.2-0.3,1.9-0.4c0.6,0,1.2,0,1.8,0c0.3,3.3,1,6.7,2,9.9
		c0.7,2.2,1.6,4.3,2.6,6.4c0,5.3,0.6,10.5,1.8,15.7c0.6,2.2,1.3,4.3,2,6.5C108.8,196.3,106.6,197.1,104.4,196.8z M159.5,258.7
		c-3-0.4-5.9-1.1-8.7-2.1s-5.5-2.4-8-4c-5-3.2-9.3-7.5-12.3-12.7c-1.5-2.6-2.6-5.3-3.7-8.3l-3.3-8.8l-6.7-17.5l-3.4-8.7
		c-1.1-2.9-2.3-5.8-3.3-8.7c-1.5-4.8-2.5-9.7-2.9-14.8c0.8,1.6,1.7,3.2,2.7,4.7c-0.3-1.6-0.6-3.2-0.9-4.8c0-0.4,0-0.7,0.1-1.1
		c0.1-2,0.4-4,0.9-5.9c0.9-3.9,2.2-7.7,3.7-11.4c1.4-3.7,3-7.4,4.7-11.1l4.3-9.3c1.6,0,3.2-0.1,4.8-0.2c4.4-0.4,8.7-1.2,12.9-2.3
		c0.5,0.3,0.9,0.6,1.4,0.9c5.7,3.5,11.9,6,18.2,8.3c12.7,4.3,25.8,7.2,39.1,8.7c6.7,0.7,13.4,1.2,20.1,1.2c6.7,0,13.5-0.3,20.2-1.3
		c6.8-1,13.5-2.6,20-5.3c2.3-1,4.6-2.1,6.7-3.5l2.3,5.2c1.5,3.4,2.9,6.8,4.2,10.3s2.5,7,3.3,10.6c0.4,1.8,0.7,3.7,0.8,5.5
		c0,0.3,0,0.7,0,1c-0.1,0.3-0.2,0.6-0.2,1c-0.2,1.1-0.4,2.2-0.6,3.3v0.1l0,0v0.1c0.6-1,1.2-2.1,1.8-2.8c0.3-0.6,0.5-1.1,0.8-1.6
		s0.6-1.1,0.8-1.6c0.2-0.5,0.4-1,0.6-1.6c-0.1,4.2-0.6,8.5-1.6,12.6c-0.7,3-1.7,5.9-2.8,8.8l-3.4,8.7l-13.4,35
		c-4.5,11.1-14.6,19.5-26.1,22.4c-1.5,0.4-2.9,0.6-4.4,0.9l-4.6,0.8l-9.2,1.5l-9.2,1.5c-1.6,0.2-3.1,0.5-4.6,0.7s-3,0.3-4.5,0.4
		c-3,0.2-6,0.1-9-0.3c-0.7-0.1-1.5-0.2-2.2-0.3l-2.3-0.4l-4.6-0.8L159.5,258.7z M163.8,297.8c0.3-0.5,5.2-17.7,5.5-22.1
		c0.2-3.6,0.3-7.2,0.2-10.8l7.7,1.3l4.6,0.8l2.3,0.4c0.8,0.2,1.6,0.3,2.4,0.4c3.2,0.4,6.5,0.5,9.7,0.4c1.7,0,3.3-0.2,4.9-0.4
		c1.6-0.3,3.2-0.5,4.7-0.8l9.2-1.6l3.7-0.6c-0.2,3.6-0.1,7.2,0,11c0.4,4.4,5.1,21.5,5.4,22C218.9,299.2,169.3,299.2,163.8,297.8z"/>
</g>
<g>
	
		<linearGradient id="SVGID_5_" gradientUnits="userSpaceOnUse" x1="211.9" y1="228.6157" x2="244.4" y2="228.6157" gradientTransform="matrix(1 0 0 -1 0 400)">
		<stop  offset="0" style="stop-color:#47CFA4"/>
		<stop  offset="1" style="stop-color:#5CC4D6"/>
	</linearGradient>
	<path class="st5" d="M211.9,177.6c1.2-3.1,3.3-5.8,5.9-8c2.6-2.2,5.8-3.9,9.5-4.3c1.8-0.2,3.6-0.2,5.4,0.2c1.8,0.4,3.4,1.1,4.9,2
		c3,1.8,5.3,4.4,6.8,7.3c-2.9-1.6-5.6-3.1-8.3-4.1s-5.5-1.3-8.2-0.9c-2.7,0.3-5.4,1.4-8,2.8C217.2,173.9,214.6,175.7,211.9,177.6z"
		/>
</g>
<g>
	
		<linearGradient id="SVGID_6_" gradientUnits="userSpaceOnUse" x1="181.75" y1="204.2" x2="205.65" y2="204.2" gradientTransform="matrix(1 0 0 -1 0 400)">
		<stop  offset="0" style="stop-color:#47CFA4"/>
		<stop  offset="1" style="stop-color:#5CC4D6"/>
	</linearGradient>
	<path class="st6" d="M205.5,191.8c0.2,0.6,0.2,1.3,0,2s-0.6,1.3-1,1.8c-0.9,1.1-2,1.9-3.2,2.5c-2.4,1.2-5,1.7-7.6,1.7
		s-5.2-0.5-7.6-1.7c-1.2-0.6-2.3-1.4-3.2-2.5c-0.4-0.5-0.8-1.2-1-1.8c-0.2-0.7-0.2-1.4,0-2c0.3,0.6,0.6,1,1,1.3s0.9,0.6,1.4,0.8
		c1,0.4,2,0.7,3,0.8c2.1,0.4,4.2,0.5,6.4,0.5c2.1,0,4.3-0.1,6.4-0.5c1-0.2,2.1-0.4,3-0.9c0.5-0.2,0.9-0.5,1.4-0.8
		C204.8,192.8,205.2,192.4,205.5,191.8z"/>
</g>
<g>
	
		<linearGradient id="SVGID_7_" gradientUnits="userSpaceOnUse" x1="142.6" y1="228.6872" x2="175" y2="228.6872" gradientTransform="matrix(1 0 0 -1 0 400)">
		<stop  offset="0" style="stop-color:#47CFA4"/>
		<stop  offset="1" style="stop-color:#5CC4D6"/>
	</linearGradient>
	<path class="st7" d="M175,177.6c-2.7-1.9-5.2-3.7-7.9-5.1c-2.6-1.4-5.3-2.4-8-2.8c-2.7-0.3-5.4,0-8.2,0.9s-5.5,2.5-8.3,4.1
		c1.5-3,3.8-5.5,6.8-7.3c1.5-0.9,3.1-1.6,4.9-2c1.8-0.4,3.6-0.5,5.4-0.2c3.6,0.5,6.9,2.2,9.5,4.3C171.7,171.8,173.8,174.5,175,177.6
		z"/>
</g>
<g class="st8">
	
		<linearGradient id="SVGID_8_" gradientUnits="userSpaceOnUse" x1="173.2" y1="152.6" x2="215.6" y2="152.6" gradientTransform="matrix(1 0 0 -1 0 400)">
		<stop  offset="0" style="stop-color:#47CFA4"/>
		<stop  offset="1" style="stop-color:#5CC4D6"/>
	</linearGradient>
	<path class="st9" d="M173.2,242.8c3.7,1.2,7.2,2.2,10.7,2.9s7,1.1,10.5,1.2c3.5,0,7-0.3,10.5-1s7-1.8,10.7-3
		c-2.5,3-5.8,5.2-9.5,6.8c-3.7,1.5-7.7,2.3-11.7,2.3c-4-0.1-8-0.9-11.6-2.4C179.2,247.9,175.8,245.8,173.2,242.8z"/>
</g>
<g class="st10">
	
		<linearGradient id="SVGID_9_" gradientUnits="userSpaceOnUse" x1="174.3" y1="49.2" x2="214.4479" y2="49.2" gradientTransform="matrix(1 0 0 -1 0 400)">
		<stop  offset="0" style="stop-color:#47CFA4"/>
		<stop  offset="1" style="stop-color:#5CC4D6"/>
	</linearGradient>
	<path class="st11" d="M194.6,400.9l19.8-42.9l0,0l-8.4-57.3c-3.5,0.1-19.7,0.2-23.2,0h-0.1l-8.4,57.3l0,0l19.8,42.9"/>
</g>
</svg>
