<?xml version="1.0" encoding="utf-8"?>
<!-- Generator: Adobe Illustrator 22.0.1, SVG Export Plug-In . SVG Version: 6.00 Build 0)  -->
<svg version="1.1" id="Layer_1" xmlns="http://www.w3.org/2000/svg" xmlns:xlink="http://www.w3.org/1999/xlink" x="0px" y="0px"
	 viewBox="0 0 400 400" style="enable-background:new 0 0 400 400;" xml:space="preserve">
<style type="text/css">
	.st0{fill:none;}
	.st1{fill:url(#SVGID_1_);}
	.st2{fill:url(#SVGID_2_);}
	.st3{fill:url(#SVGID_3_);}
	.st4{fill:url(#SVGID_4_);}
	.st5{fill:url(#SVGID_5_);}
	.st6{fill:url(#SVGID_6_);}
	.st7{fill:url(#SVGID_7_);}
	.st8{fill:url(#SVGID_8_);}
	.st9{fill:url(#SVGID_9_);}
	.st10{fill:url(#SVGID_10_);}
	.st11{fill:none;stroke:url(#SVGID_11_);stroke-width:2.6217;stroke-linecap:round;stroke-linejoin:round;}
	.st12{fill:url(#SVGID_12_);}
	.st13{opacity:0.1;fill:url(#SVGID_13_);}
	.st14{fill:none;stroke:url(#SVGID_14_);stroke-width:1.1385;stroke-linecap:round;stroke-linejoin:round;}
	.st15{fill:url(#SVGID_15_);}
	.st16{fill:url(#SVGID_16_);}
	.st17{fill:url(#SVGID_17_);}
	.st18{fill:url(#SVGID_18_);}
	.st19{fill:url(#SVGID_19_);}
	.st20{fill:url(#SVGID_20_);}
	.st21{fill:url(#SVGID_21_);}
	.st22{opacity:0.1;fill:url(#SVGID_22_);}
	.st23{fill:url(#SVGID_23_);}
	.st24{fill:url(#SVGID_24_);}
	.st25{fill:url(#SVGID_25_);}
	.st26{opacity:0.25;}
	.st27{fill:url(#SVGID_26_);}
	.st28{fill:url(#SVGID_27_);}
	.st29{opacity:0.51;}
	.st30{fill:url(#SVGID_28_);}
	.st31{opacity:0.49;fill:url(#SVGID_29_);stroke:url(#SVGID_30_);stroke-width:1.4981;stroke-miterlimit:10;}
</style>
<rect x="0.5" y="-0.5" class="st0" width="400" height="400"/>
<g>
	<linearGradient id="SVGID_1_" gradientUnits="userSpaceOnUse" x1="216.7922" y1="330.4696" x2="333.9572" y2="330.4696">
		<stop  offset="0" style="stop-color:#47CFA4"/>
		<stop  offset="1" style="stop-color:#5CC4D6"/>
	</linearGradient>
	<path class="st1" d="M219.8,261.5c0.4,4.4,0.9,8.7,1.7,13c0.8,4.3,1.8,8.5,3.3,12.4c0.8,2,1.6,3.9,2.7,5.7c1.1,1.7,2.3,3.4,3.8,4.5
		c0.7,0.6,1.5,1.1,2.3,1.4c0.2,0.1,0.4,0.2,0.6,0.3l0.7,0.2c0.5,0.2,0.9,0.3,1.5,0.4c2,0.5,4.1,0.8,6.2,1.2c8.5,1.2,17.3,2.2,26,3.5
		c8.7,1.4,17.4,3.2,25.9,5.8c4.3,1.3,8.5,3,12.6,5c4.1,2,8.1,4.4,11.6,7.4c3.5,3,6.7,6.8,8.7,11.1c0.4,1.1,1,2.2,1.3,3.3
		c0.3,1.2,0.7,2.3,0.9,3.5c0.2,1.2,0.4,2.4,0.5,3.6l0.1,3.3c0.6,17.5,1,35,0.7,52.5c-2.3-17.4-3.9-34.7-5.4-52.1l-0.3-3.3
		c-0.2-1-0.4-1.9-0.6-2.9c-0.2-1-0.6-1.9-0.9-2.8c-0.3-0.9-0.8-1.8-1.2-2.7c-1.8-3.5-4.5-6.6-7.6-9.1c-3.2-2.6-6.7-4.7-10.5-6.5
		c-3.8-1.8-7.7-3.3-11.8-4.6c-4.1-1.3-8.2-2.4-12.4-3.4c-4.2-1-8.4-1.8-12.7-2.6c-4.3-0.8-8.5-1.5-12.9-2.2c-4.3-0.7-8.6-1.4-13-2.3
		c-2.2-0.5-4.4-0.9-6.6-1.6c-0.5-0.1-1.1-0.3-1.7-0.5l-0.8-0.3c-0.3-0.1-0.6-0.3-0.9-0.4c-1.2-0.5-2.2-1.3-3.1-2.2
		c-1.9-1.7-3.2-3.7-4.2-5.8c-1-2.1-1.8-4.2-2.4-6.4c-1.2-4.3-1.8-8.7-2.2-13.1C219.5,270.2,219.5,265.8,219.8,261.5z"/>
</g>
<g>
	<linearGradient id="SVGID_2_" gradientUnits="userSpaceOnUse" x1="206.1806" y1="328.0027" x2="215.7141" y2="328.0027">
		<stop  offset="0" style="stop-color:#47CFA4"/>
		<stop  offset="1" style="stop-color:#5CC4D6"/>
	</linearGradient>
	<path class="st2" d="M206.7,299.3c0.5,2.4,0.9,4.8,1.3,7.1l1.2,7.1c0.8,4.8,1.5,9.5,2.2,14.3c0.7,4.8,1.4,9.6,2,14.4l0.9,7.2
		c0.3,2.4,0.6,4.8,0.8,7.2c-0.5-2.4-0.9-4.8-1.3-7.1l-1.2-7.1c-0.8-4.8-1.5-9.5-2.2-14.3c-0.7-4.8-1.4-9.6-2-14.4l-0.9-7.2
		C207.3,304.1,207,301.7,206.7,299.3z"/>
</g>
<g>
	<linearGradient id="SVGID_3_" gradientUnits="userSpaceOnUse" x1="236.9569" y1="352.8682" x2="265.5959" y2="352.8682">
		<stop  offset="0" style="stop-color:#47CFA4"/>
		<stop  offset="1" style="stop-color:#5CC4D6"/>
	</linearGradient>
	<path class="st3" d="M237.5,399.5l3.7-10.7l3.8-10.6l0,0.3c-2.1-3.9-4.2-7.7-6.2-11.6c-0.1-0.2,0-0.5,0.2-0.7c0.1,0,0.1,0,0.2-0.1
		l11.5-1.7l11.5-1.7l-0.5,0.5c0.5-9.5,1-19,1.5-28.5c0.6-9.5,1.1-19,1.8-28.5c-0.2,9.5-0.6,19-1,28.5c-0.4,9.5-0.9,19-1.3,28.5
		c0,0.3-0.2,0.5-0.5,0.5l-11.5,1.7l-11.5,1.7l0.4-0.7c2,3.9,4.1,7.8,6.1,11.7l0,0c0.1,0.1,0.1,0.2,0,0.3l-4,10.5L237.5,399.5z"/>
</g>
<g>
	<linearGradient id="SVGID_4_" gradientUnits="userSpaceOnUse" x1="226.7698" y1="352.3228" x2="260.4425" y2="352.3228">
		<stop  offset="0" style="stop-color:#47CFA4"/>
		<stop  offset="1" style="stop-color:#5CC4D6"/>
	</linearGradient>
	<path class="st4" d="M258.2,305.2c0.2,4.5,0.3,9,0.4,13.4c0,4.5,0,8.9-0.1,13.4c0,4.5-0.2,8.9-0.3,13.4c-0.1,4.5-0.3,8.9-0.6,13.4
		c-0.1,1.1-0.9,1.9-1.9,2.1l-5.8,0.8l-5.8,0.8c-3.8,0.5-7.7,1-11.6,1.5l1.4-2.8c1,2,1.9,4,2.9,5.9c0.9,2,1.9,4,2.8,6l0.1,0.1
		c0.2,0.3,0.1,0.7,0,1c-1.7,4.2-3.5,8.5-5.3,12.7c-1.8,4.2-3.6,8.4-5.5,12.6c1.3-4.4,2.6-8.8,3.9-13.1c1.4-4.4,2.8-8.7,4.2-13.1
		l0.1,1.2c-1.1-1.9-2.2-3.8-3.3-5.7c-1.1-1.9-2.2-3.8-3.3-5.7c-0.5-0.9-0.2-2.1,0.8-2.6c0.2-0.1,0.4-0.2,0.6-0.2l0.1,0
		c3.8-0.6,7.7-1.3,11.5-1.9l5.8-0.9l5.8-0.9l-1.9,2.1c0.2-4.5,0.5-8.9,0.8-13.4c0.3-4.5,0.6-8.9,1.1-13.4c0.4-4.4,0.9-8.9,1.3-13.3
		C257,314.1,257.5,309.6,258.2,305.2z"/>
</g>
<g>
	<linearGradient id="SVGID_5_" gradientUnits="userSpaceOnUse" x1="55.9437" y1="330.4696" x2="173.3495" y2="330.4696">
		<stop  offset="0" style="stop-color:#47CFA4"/>
		<stop  offset="1" style="stop-color:#5CC4D6"/>
	</linearGradient>
	<path class="st5" d="M170.4,261.5c0.3,4.4,0.2,8.8-0.1,13.2c-0.3,4.4-1,8.8-2.2,13.1c-0.6,2.2-1.4,4.3-2.4,6.4
		c-1.1,2.1-2.4,4.1-4.2,5.8c-0.9,0.8-2,1.6-3.1,2.2c-0.3,0.1-0.6,0.3-0.9,0.4l-0.8,0.3c-0.6,0.2-1.1,0.4-1.7,0.5
		c-2.2,0.7-4.4,1.1-6.6,1.6c-4.3,0.9-8.7,1.6-13,2.3c-4.3,0.7-8.6,1.4-12.9,2.2c-4.3,0.8-8.5,1.6-12.7,2.6c-4.2,1-8.3,2.1-12.4,3.4
		c-4.1,1.3-8,2.8-11.8,4.6c-3.8,1.8-7.4,3.9-10.5,6.5c-3.2,2.5-5.8,5.6-7.6,9.1c-0.4,0.9-0.9,1.8-1.2,2.7c-0.3,0.9-0.6,1.9-0.9,2.8
		c-0.2,1-0.4,1.9-0.6,2.9l-0.3,3.3c-1.5,17.4-3.3,34.8-5.6,52.1c-0.2-17.5,0.3-35,1-52.5l0.1-3.3c0.1-1.2,0.3-2.4,0.5-3.6
		c0.2-1.2,0.6-2.3,0.9-3.5c0.3-1.1,0.9-2.2,1.3-3.3c2-4.4,5.2-8.1,8.7-11.1c3.6-3.1,7.5-5.4,11.6-7.4c4.1-2,8.3-3.6,12.6-5
		c8.6-2.6,17.3-4.4,25.9-5.8c8.7-1.3,17.4-2.4,26-3.5c2.1-0.3,4.2-0.7,6.2-1.2c0.5-0.1,1-0.2,1.5-0.4l0.7-0.2
		c0.2-0.1,0.4-0.2,0.6-0.3c0.8-0.3,1.6-0.8,2.3-1.4c1.5-1.1,2.7-2.8,3.8-4.5c1.1-1.8,1.9-3.7,2.7-5.7c1.5-4,2.5-8.2,3.3-12.4
		C169.4,270.2,170,265.8,170.4,261.5z"/>
</g>
<g>
	<linearGradient id="SVGID_6_" gradientUnits="userSpaceOnUse" x1="174.4276" y1="328.0028" x2="183.9611" y2="328.0028">
		<stop  offset="0" style="stop-color:#47CFA4"/>
		<stop  offset="1" style="stop-color:#5CC4D6"/>
	</linearGradient>
	<path class="st6" d="M183.4,299.3c-0.2,2.4-0.5,4.8-0.8,7.2l-0.9,7.2c-0.6,4.8-1.3,9.6-2,14.4c-0.7,4.8-1.4,9.5-2.2,14.3l-1.2,7.1
		c-0.4,2.4-0.8,4.8-1.3,7.1c0.2-2.4,0.5-4.8,0.8-7.2l0.9-7.2c0.6-4.8,1.3-9.6,2-14.4c0.7-4.8,1.4-9.5,2.2-14.3l1.2-7.1
		C182.5,304.1,182.9,301.7,183.4,299.3z"/>
</g>
<g>
	<linearGradient id="SVGID_7_" gradientUnits="userSpaceOnUse" x1="193.8118" y1="351.2814" x2="245.458" y2="351.2814">
		<stop  offset="0" style="stop-color:#47CFA4"/>
		<stop  offset="1" style="stop-color:#5CC4D6"/>
	</linearGradient>
	<path class="st7" d="M195.3,399.5c3.5-8.3,7.3-16.5,11.1-24.7c1.9-4.1,3.9-8.1,5.9-12.2l6-12.1l6.2-12c2.1-4,4.2-8,6.3-12
		c4.3-7.9,8.6-15.8,13.2-23.6c-3.5,8.3-7.3,16.5-11.1,24.7c-1.9,4.1-3.9,8.1-5.9,12.2l-6,12.1l-6.2,12c-2.1,4-4.2,8-6.3,12
		C204.3,383.9,199.9,391.8,195.3,399.5z"/>
</g>
<g>
	<linearGradient id="SVGID_8_" gradientUnits="userSpaceOnUse" x1="144.6837" y1="351.2814" x2="196.3299" y2="351.2814">
		<stop  offset="0" style="stop-color:#47CFA4"/>
		<stop  offset="1" style="stop-color:#5CC4D6"/>
	</linearGradient>
	<path class="st8" d="M146.2,303c4.6,7.8,9,15.7,13.2,23.6c2.2,4,4.2,8,6.3,12l6.2,12l6,12.1c2,4.1,4,8.1,5.9,12.2
		c3.9,8.1,7.6,16.3,11.1,24.7c-4.6-7.8-9-15.7-13.2-23.6c-2.2-4-4.2-8-6.3-12l-6.2-12l-6-12.1c-2-4.1-4-8.1-5.9-12.2
		C153.4,319.5,149.7,311.3,146.2,303z"/>
</g>
<g>
	<linearGradient id="SVGID_9_" gradientUnits="userSpaceOnUse" x1="129.6996" y1="352.3261" x2="163.3719" y2="352.3261">
		<stop  offset="0" style="stop-color:#47CFA4"/>
		<stop  offset="1" style="stop-color:#5CC4D6"/>
	</linearGradient>
	<path class="st9" d="M161.1,399.5c-1.9-4.2-3.7-8.4-5.5-12.6c-1.8-4.2-3.5-8.4-5.3-12.7c-0.1-0.3-0.1-0.7,0-1l0.1-0.1
		c0.9-2,1.9-4,2.8-6c1-2,1.9-4,2.9-5.9l1.4,2.8c-3.9-0.5-7.7-0.9-11.6-1.5c-3.8-0.5-7.7-1.1-11.5-1.6l0,0c-1.1-0.2-1.9-1.1-1.9-2.1
		c-0.2-4.5-0.4-8.9-0.6-13.4c-0.1-4.5-0.3-8.9-0.3-13.4c-0.1-4.5-0.1-8.9-0.1-13.4c0.1-4.5,0.1-8.9,0.4-13.4
		c0.7,4.4,1.2,8.9,1.8,13.3c0.5,4.4,1,8.9,1.3,13.3c0.4,4.4,0.7,8.9,1.1,13.3c0.3,4.5,0.6,8.9,0.8,13.4l-1.9-2.1
		c3.8,0.6,7.7,1.2,11.5,1.8c3.8,0.6,7.7,1.3,11.5,1.9l0.1,0c1,0.2,1.7,1.2,1.6,2.2c0,0.2-0.1,0.4-0.2,0.6c-1.1,1.9-2.2,3.8-3.3,5.7
		c-1.1,1.9-2.2,3.8-3.3,5.7l0.1-1.2c1.4,4.3,2.8,8.7,4.2,13.1C158.5,390.7,159.9,395.1,161.1,399.5z"/>
</g>
<g>
	<linearGradient id="SVGID_10_" gradientUnits="userSpaceOnUse" x1="124.5307" y1="352.8683" x2="153.1698" y2="352.8683">
		<stop  offset="0" style="stop-color:#47CFA4"/>
		<stop  offset="1" style="stop-color:#5CC4D6"/>
	</linearGradient>
	<path class="st10" d="M125.1,306.3c0.7,9.5,1.3,19,1.8,28.5c0.6,9.5,1,19,1.5,28.5l-0.5-0.5l11.5,1.7l11.5,1.7
		c0.3,0,0.5,0.3,0.4,0.6c0,0.1,0,0.1-0.1,0.2c-2.1,3.9-4.1,7.8-6.2,11.6l0-0.3l3.8,10.6l3.7,10.7l-4.1-10.5l-4-10.5
		c0-0.1,0-0.2,0-0.3l0,0c2-3.9,4-7.8,6.1-11.7l0.4,0.7l-11.5-1.7l-11.5-1.7c-0.3,0-0.5-0.3-0.5-0.5c-0.4-9.5-0.9-19-1.3-28.5
		C125.7,325.3,125.4,315.8,125.1,306.3z"/>
</g>
<linearGradient id="SVGID_11_" gradientUnits="userSpaceOnUse" x1="160.8743" y1="297.9327" x2="229.2674" y2="297.9327">
	<stop  offset="0" style="stop-color:#47CFA4"/>
	<stop  offset="1" style="stop-color:#5CC4D6"/>
</linearGradient>
<path class="st11" d="M162.2,296.4c6.2,1.8,12.2,2.7,21.3,3c3.5,0.1,7.4,0.2,12,0.2h-0.9c4.6,0,8.6,0,12.1-0.2c9-0.3,15-1.1,21.2-3"
	/>
<g>
	<linearGradient id="SVGID_12_" gradientUnits="userSpaceOnUse" x1="105.752" y1="215.2414" x2="283.5389" y2="215.2414">
		<stop  offset="0" style="stop-color:#47CFA4"/>
		<stop  offset="1" style="stop-color:#5CC4D6"/>
	</linearGradient>
	<path class="st12" d="M108,168.6c0.1,6.3,1.2,12.4,3.1,18.3c1,2.9,2.2,5.8,3.3,8.7l3.4,8.7l6.7,17.5l3.3,8.8c1.1,3,2.2,5.7,3.7,8.3
		c3,5.2,7.3,9.5,12.3,12.7c2.5,1.6,5.2,3,8,4c2.8,1,5.7,1.7,8.7,2.1l18.5,3l4.6,0.8l2.3,0.4c0.7,0.1,1.5,0.2,2.2,0.3
		c3,0.4,6,0.5,9,0.3c1.5-0.1,3-0.2,4.5-0.4c1.5-0.2,3-0.5,4.6-0.7l9.2-1.5l9.2-1.5l4.6-0.8c1.5-0.3,2.9-0.5,4.4-0.9
		c11.5-2.9,21.6-11.3,26.1-22.4l13.4-35l3.4-8.7c1.1-2.9,2.1-5.8,2.8-8.8c1.4-6,1.9-12.3,1.5-18.5c0.9,6.2,0.8,12.6-0.3,18.8
		c-0.5,3.1-1.3,6.2-2.4,9.2l-3,8.9c-4,11.8-8,23.6-12.2,35.5c-1.1,3.1-2.7,6-4.5,8.7c-1.9,2.7-4.1,5.1-6.6,7.3
		c-2.5,2.2-5.2,4-8.1,5.6c-2.9,1.5-6,2.8-9.1,3.6c-1.6,0.5-3.2,0.8-4.8,1.1l-4.6,0.8l-9.2,1.6l-9.2,1.6c-1.5,0.3-3.1,0.5-4.7,0.8
		c-1.6,0.2-3.2,0.4-4.9,0.4c-3.2,0.1-6.5,0-9.7-0.4c-0.8-0.1-1.6-0.2-2.4-0.4l-2.3-0.4l-4.6-0.8l-18.5-3.1
		c-12.8-1.9-25.1-9.7-31.3-21.3c-1.6-2.8-2.7-6-3.7-8.9l-3.1-8.9l-6-17.7l-3-8.9c-1-3-2.1-5.9-2.9-9
		C108.3,181.2,107.7,174.9,108,168.6z"/>
</g>
<linearGradient id="SVGID_13_" gradientUnits="userSpaceOnUse" x1="220.336" y1="189.4645" x2="255.0617" y2="189.4645">
	<stop  offset="0" style="stop-color:#47CFA4"/>
	<stop  offset="1" style="stop-color:#5CC4D6"/>
</linearGradient>
<ellipse class="st13" cx="237.7" cy="189.5" rx="17.4" ry="4.5"/>
<linearGradient id="SVGID_14_" gradientUnits="userSpaceOnUse" x1="172.1586" y1="231.1394" x2="217.2055" y2="231.1394">
	<stop  offset="0" style="stop-color:#47CFA4"/>
	<stop  offset="1" style="stop-color:#5CC4D6"/>
</linearGradient>
<path class="st14" d="M194.7,220.9h-22c0,0-0.4,20.5,22,20.5h-0.1c22.4,0,22-20.5,22-20.5H194.7"/>
<g>
	<linearGradient id="SVGID_15_" gradientUnits="userSpaceOnUse" x1="94.6718" y1="93.5988" x2="173.5589" y2="93.5988">
		<stop  offset="0" style="stop-color:#47CFA4"/>
		<stop  offset="1" style="stop-color:#5CC4D6"/>
	</linearGradient>
	<path class="st15" d="M169.8,82.7c-4.3,1.1-8.7,1.9-13.3,2.1c-2.3,0.1-4.6,0-6.9-0.3c-2.3-0.3-4.6-0.9-6.9-2
		c-2.2-1.1-4.3-2.8-5.7-4.9c-1.5-2.1-2.3-4.7-2.7-7.1c-0.4-2.5-0.3-5,0.1-7.4c0.2-1.2,0.4-2.4,0.7-3.5c0.3-1.2,0.6-2.3,1.2-3.5
		l3.1,4.1c-1.1,0.3-2.4,0.6-3.7,1c-1.2,0.4-2.5,0.8-3.7,1.3c-2.4,0.9-4.8,2-7.1,3.2c-4.6,2.4-8.7,5.4-12.1,9.1
		c-1.7,1.8-3.2,3.8-4.5,5.9c-1.3,2.1-2.3,4.4-3.1,6.7l-0.3,0.9l-0.3,1l-0.5,1.9c-0.4,1.3-0.7,2.6-1,3.8c-0.6,2.6-1,5.1-1.3,7.7
		c-0.3,2.6-0.4,5.1-0.2,7.6c0.2,2.5,0.6,4.9,1.5,7.1c1.7,4.5,5.2,7.9,9.9,9.9c2.3,1,4.8,1.7,7.4,2.2c2.6,0.5,5.3,0.7,8,0.9
		c5.4,0.2,10.9-0.1,16.4-0.6c-5.3,1.5-10.7,2.7-16.3,3.2c-5.6,0.4-11.4,0.4-17-1.5c-2.8-0.9-5.6-2.3-8-4.3c-2.4-2-4.3-4.6-5.6-7.4
		c-1.3-2.8-2.1-5.8-2.4-8.8c-0.4-3-0.4-5.9-0.2-8.8c0.2-2.9,0.6-5.8,1.1-8.6c0.3-1.4,0.6-2.8,0.9-4.2l0.5-2.1l0.3-1l0.3-1.1
		c1.7-5.8,4.9-11.2,9.1-15.5c4.1-4.4,9.1-7.7,14.4-10.2c2.6-1.2,5.3-2.3,8.1-3.1c1.4-0.4,2.8-0.8,4.2-1.1c1.4-0.3,2.8-0.6,4.4-0.8
		l0.2,0c1.6-0.2,3,0.9,3.2,2.5c0.1,0.6,0,1.2-0.3,1.7c-0.2,0.3-0.4,0.9-0.6,1.3c-0.2,0.5-0.4,0.9-0.5,1.4c-0.3,1-0.6,1.9-0.8,2.9
		c-0.4,2-0.7,4-0.6,5.9c0.1,1.9,0.6,3.8,1.5,5.4c0.9,1.6,2.3,3,3.9,4c1.7,1.1,3.6,1.8,5.6,2.4c2,0.5,4.2,0.9,6.3,1.1
		C160.9,83.2,165.4,83,169.8,82.7z"/>
</g>
<g>
	<linearGradient id="SVGID_16_" gradientUnits="userSpaceOnUse" x1="125.2221" y1="111.7915" x2="283.2921" y2="111.7915">
		<stop  offset="0" style="stop-color:#47CFA4"/>
		<stop  offset="1" style="stop-color:#5CC4D6"/>
	</linearGradient>
	<path class="st16" d="M158.5,83.4c12.7-3.6,25.8-6.1,38.9-7.9c6.6-0.8,13.2-1.5,19.9-1.8c6.7-0.3,13.4-0.3,20.1,0.2
		c3.4,0.3,6.7,0.6,10.1,1.2c3.4,0.6,6.7,1.4,10,2.4c3.3,1,6.6,2.4,9.7,4.1c3.1,1.8,6.1,4,8.7,6.7c2.5,2.8,4.5,6.1,5.7,9.7
		c1.2,3.6,1.7,7.4,1.6,11c-0.1,3.6-0.7,7.2-1.6,10.6c-0.2,0.9-0.5,1.7-0.7,2.5c-0.3,0.8-0.5,1.6-0.8,2.6c-0.6,1.8-1.5,3.5-2.6,5.1
		c-2.1,3.2-4.8,5.9-7.7,8.1c-2.9,2.2-6.1,3.9-9.4,5.3c-6.5,2.7-13.2,4.3-20,5.3c-6.7,1-13.5,1.3-20.2,1.3c-6.7,0-13.4-0.5-20.1-1.2
		c-13.3-1.5-26.4-4.4-39.1-8.7c-6.3-2.3-12.5-4.8-18.2-8.3c-2.9-1.7-5.6-3.6-8.1-5.9c-2.4-2.3-4.7-4.9-5.8-8
		c1.5,2.9,3.9,5.3,6.5,7.2c2.6,1.9,5.5,3.5,8.4,4.9c5.9,2.8,12.1,4.9,18.4,6.6c6.3,1.7,12.7,3.1,19.1,4.1c6.4,1,12.9,1.8,19.4,2.3
		c13,0.9,26,0.8,38.7-1.3c6.3-1.1,12.5-2.6,18.1-5.1c5.6-2.5,10.7-5.9,13.7-10.6c0.7-1.2,1.4-2.4,1.8-3.7c0.2-0.6,0.5-1.4,0.7-2.1
		c0.2-0.7,0.4-1.5,0.6-2.2c0.8-3,1.3-6,1.4-8.9c0.1-2.9-0.2-5.8-1.1-8.5c-0.9-2.7-2.3-5.1-4.1-7.3c-3.7-4.3-9.2-7.3-15.1-9.3
		c-3-1-6-1.8-9.1-2.5c-3.1-0.7-6.3-1.2-9.5-1.6c-6.4-0.8-12.9-1.1-19.4-1.1c-6.5-0.1-13.1,0.1-19.6,0.5
		C184.7,80,171.6,81.5,158.5,83.4z"/>
</g>
<g>
	<linearGradient id="SVGID_17_" gradientUnits="userSpaceOnUse" x1="274.6123" y1="149.8528" x2="284.756" y2="149.8528">
		<stop  offset="0" style="stop-color:#47CFA4"/>
		<stop  offset="1" style="stop-color:#5CC4D6"/>
	</linearGradient>
	<path class="st17" d="M276.9,176.8c0.2-1.2,0.4-2.3,0.6-3.5c0.2-1.1,0.6-2.2,0.7-3.4c0.4-2.3,0.8-4.5,1.1-6.7
		c0.1-1.1,0.3-2.2,0.4-3.3c0.1-1.1,0.2-2.2,0.3-3.4c0.1-1.1,0.2-2.2,0.2-3.3c0-1.1,0.2-2.2,0.1-3.3l0-3.3l-0.2-3.3
		c-0.1-2.2-0.3-4.5-0.6-6.7c-0.6-4.5-1.4-8.9-2.6-13.5c2.9,3.7,4.8,8.2,6,12.8c0.7,2.3,1.1,4.6,1.4,7l0.4,3.6l0.1,3.6
		c0,1.2-0.1,2.4-0.2,3.6c-0.1,1.2-0.2,2.4-0.4,3.5c-0.2,1.2-0.4,2.3-0.6,3.5c-0.2,1.2-0.6,2.3-0.9,3.4c-0.6,2.3-1.6,4.5-2.4,6.7
		c-0.2,0.5-0.5,1.1-0.8,1.6c-0.3,0.5-0.5,1-0.8,1.6C278.1,174.7,277.5,175.8,276.9,176.8z"/>
</g>
<g>
	<linearGradient id="SVGID_18_" gradientUnits="userSpaceOnUse" x1="264.1265" y1="155.6857" x2="278.8067" y2="155.6857">
		<stop  offset="0" style="stop-color:#47CFA4"/>
		<stop  offset="1" style="stop-color:#5CC4D6"/>
	</linearGradient>
	<path class="st18" d="M264.9,134.6c2,3.2,3.9,6.4,5.6,9.8c1.7,3.3,3.2,6.8,4.6,10.3c1.3,3.5,2.4,7.2,3,10.9
		c0.3,1.9,0.5,3.8,0.4,5.7c-0.1,1.9-0.5,3.8-1.6,5.4c0.7-1.7,0.9-3.6,0.8-5.4c-0.1-1.8-0.4-3.7-0.8-5.5c-0.8-3.6-2-7.1-3.3-10.6
		c-1.3-3.5-2.7-6.9-4.2-10.3L264.9,134.6z"/>
</g>
<g>
	<linearGradient id="SVGID_19_" gradientUnits="userSpaceOnUse" x1="102.9633" y1="152.3138" x2="113.107" y2="152.3138">
		<stop  offset="0" style="stop-color:#47CFA4"/>
		<stop  offset="1" style="stop-color:#5CC4D6"/>
	</linearGradient>
	<path class="st19" d="M110.9,176.8c-2.4-3.5-4.2-7.4-5.6-11.5c-1.3-4.1-2-8.4-2.2-12.7c-0.2-4.3,0.1-8.6,1.1-12.8
		c0.9-4.2,2.4-8.3,4.7-11.9c-0.5,4.2-1,8.3-1.2,12.4c-0.2,4.1-0.3,8.1-0.1,12.1c0.2,4,0.6,8,1.2,12.1
		C109.3,168.5,110.2,172.5,110.9,176.8z"/>
</g>
<g>
	<linearGradient id="SVGID_20_" gradientUnits="userSpaceOnUse" x1="108.9126" y1="154.1434" x2="125.2965" y2="154.1434">
		<stop  offset="0" style="stop-color:#47CFA4"/>
		<stop  offset="1" style="stop-color:#5CC4D6"/>
	</linearGradient>
	<path class="st20" d="M124.5,131.5l-5.1,11c-1.7,3.7-3.3,7.4-4.7,11.1c-1.5,3.7-2.8,7.5-3.7,11.4c-0.5,1.9-0.8,3.9-0.9,5.9
		c-0.2,2,0,4,0.8,5.9c-1.1-1.7-1.5-3.8-1.6-5.9c-0.1-2.1,0.2-4.1,0.5-6.1c0.7-4,2-7.9,3.5-11.7c1.5-3.8,3.2-7.5,5.1-11.1
		C120.3,138.4,122.3,134.9,124.5,131.5z"/>
</g>
<g>
	<linearGradient id="SVGID_21_" gradientUnits="userSpaceOnUse" x1="275.2526" y1="175.7184" x2="300.7332" y2="175.7184">
		<stop  offset="0" style="stop-color:#47CFA4"/>
		<stop  offset="1" style="stop-color:#5CC4D6"/>
	</linearGradient>
	<path class="st21" d="M282.1,156.9c1.1-0.9,2.4-1.6,3.8-2c1.4-0.4,3-0.5,4.5-0.1c0.8,0.1,1.5,0.4,2.2,0.7c0.7,0.4,1.4,0.7,1.9,1.2
		c0.6,0.4,1.1,1,1.7,1.6c0.5,0.6,1,1.2,1.3,1.8c1.6,2.6,2.5,5.5,2.9,8.4c0.4,2.9,0.3,5.9-0.1,8.8c-1,5.8-3.4,11.5-7.7,15.7
		c-0.6,0.5-1.1,1-1.7,1.4c-0.6,0.5-1.3,0.8-1.9,1.2c-1.4,0.7-2.8,1.2-4.4,1.3c-0.4,0-0.8,0-1.1,0c-0.2,0-0.4,0-0.6,0l-0.6-0.1
		c-0.7-0.1-1.5-0.3-2.1-0.6c-1.4-0.6-2.5-1.5-3.4-2.6c1.1,0.9,2.4,1.5,3.7,1.9c1.3,0.3,2.7,0.3,3.9,0.1c2.6-0.5,4.8-2.2,6.5-4.1
		c1.8-2,3.2-4.3,4.2-6.8c1.1-2.5,1.8-5.1,2.2-7.7c0.5-2.7,0.5-5.4,0.3-8c-0.2-2.7-1-5.3-2.2-7.6c-0.3-0.6-0.7-1.1-1-1.7
		c-0.4-0.5-0.8-1-1.3-1.5c-0.4-0.5-1-0.8-1.5-1.2c-0.6-0.3-1.1-0.7-1.7-0.8C287.5,155.1,284.6,155.6,282.1,156.9z"/>
</g>
<linearGradient id="SVGID_22_" gradientUnits="userSpaceOnUse" x1="133.8623" y1="189.4645" x2="168.588" y2="189.4645">
	<stop  offset="0" style="stop-color:#47CFA4"/>
	<stop  offset="1" style="stop-color:#5CC4D6"/>
</linearGradient>
<ellipse class="st22" cx="151.2" cy="189.5" rx="17.4" ry="4.5"/>
<g>
	<linearGradient id="SVGID_23_" gradientUnits="userSpaceOnUse" x1="88.2817" y1="175.8249" x2="114.016" y2="175.8249">
		<stop  offset="0" style="stop-color:#47CFA4"/>
		<stop  offset="1" style="stop-color:#5CC4D6"/>
	</linearGradient>
	<path class="st23" d="M105.5,155.9c-1.3-0.4-2.7-0.6-4-0.5c-0.7,0.1-1.3,0.2-1.9,0.4c-0.6,0.2-1.2,0.5-1.8,0.8
		c-1.1,0.7-2,1.6-2.8,2.6c-0.7,1.1-1.5,2.1-1.9,3.4c-1,2.4-1.6,5-1.7,7.7c-0.2,2.6,0,5.3,0.5,7.9c0.4,2.6,1.2,5.2,2.4,7.6
		c1.1,2.4,2.6,4.6,4.4,6.5c1.8,1.8,4.1,3.2,6.7,3.5c2.6,0.3,5.2-0.8,7.3-2.7c-0.8,1.1-1.8,2.2-3.1,2.9c-0.6,0.4-1.3,0.7-2,0.9
		c-0.4,0.1-0.7,0.2-1.1,0.2c-0.4,0-0.7,0.1-1.1,0.1c-1.5,0.1-3-0.3-4.4-0.8c-1.4-0.6-2.6-1.4-3.8-2.4c-2.3-1.9-4-4.4-5.4-7
		c-1.3-2.6-2.2-5.4-2.8-8.3c-1-5.7-0.7-11.8,2.1-17.1c0.7-1.3,1.5-2.5,2.6-3.6c1.1-1.1,2.3-2,3.7-2.6c0.7-0.2,1.4-0.5,2.2-0.6
		c0.7-0.2,1.5-0.2,2.2-0.1C103,154.7,104.3,155.2,105.5,155.9z"/>
</g>
<g>
	<linearGradient id="SVGID_24_" gradientUnits="userSpaceOnUse" x1="102.3441" y1="101.4701" x2="277.4998" y2="101.4701">
		<stop  offset="0" style="stop-color:#47CFA4"/>
		<stop  offset="1" style="stop-color:#5CC4D6"/>
	</linearGradient>
	<path class="st24" d="M103.1,82.6c5.2,6,11.1,11.4,17.5,16.1c3.2,2.3,6.6,4.4,10.2,6.1c3.6,1.7,7.3,2.9,11.2,3.4
		c1.9,0.2,3.9,0.2,5.8,0c1-0.1,1.9-0.3,2.9-0.6l2.9-0.8c3.8-1,7.7-2,11.6-2.9c7.8-1.8,15.6-3.3,23.4-4.6c7.9-1.2,15.8-2,23.8-2.4
		c8-0.3,16-0.2,23.9,0.9c7.9,1.1,15.8,3.1,23,6.7c7.2,3.6,13.5,9,17.6,15.8c-2.2-3.3-4.8-6.3-7.9-8.8c-3-2.5-6.4-4.6-10-6.3
		c-7.1-3.4-14.9-5.2-22.8-6.1c-15.7-1.9-31.7-0.6-47.3,1.7c-7.8,1.2-15.6,2.7-23.4,4.4c-3.9,0.9-7.7,1.8-11.6,2.8l-2.9,0.7
		c-1,0.3-2,0.4-3,0.5c-2,0.2-4.1,0.2-6.1-0.1c-4-0.5-7.9-1.9-11.5-3.6c-3.6-1.7-7-3.9-10.2-6.3C113.9,94.3,108.1,88.8,103.1,82.6z"
		/>
</g>
<g>
	<linearGradient id="SVGID_25_" gradientUnits="userSpaceOnUse" x1="211.0842" y1="170.3635" x2="247.0324" y2="170.3635">
		<stop  offset="0" style="stop-color:#47CFA4"/>
		<stop  offset="1" style="stop-color:#5CC4D6"/>
	</linearGradient>
	<path class="st25" d="M212.9,176.6c1.2-3.1,3.3-5.8,5.9-8c2.6-2.2,5.8-3.9,9.5-4.3c1.8-0.2,3.6-0.2,5.4,0.2c1.8,0.4,3.4,1.1,4.9,2
		c3,1.8,5.3,4.4,6.8,7.3c-2.9-1.6-5.6-3.1-8.3-4.1c-2.7-1-5.5-1.3-8.2-0.9c-2.7,0.3-5.4,1.4-8,2.8
		C218.2,172.9,215.6,174.7,212.9,176.6z"/>
</g>
<g class="st26">
	<linearGradient id="SVGID_26_" gradientUnits="userSpaceOnUse" x1="180.5559" y1="194.7896" x2="208.735" y2="194.7896">
		<stop  offset="0" style="stop-color:#47CFA4"/>
		<stop  offset="1" style="stop-color:#5CC4D6"/>
	</linearGradient>
	<path class="st27" d="M206.5,190.8c0.2,0.6,0.2,1.3,0,2c-0.2,0.7-0.6,1.3-1,1.8c-0.9,1.1-2,1.9-3.2,2.5c-2.4,1.2-5,1.7-7.6,1.7
		c-2.6,0-5.2-0.5-7.6-1.7c-1.2-0.6-2.3-1.4-3.2-2.5c-0.4-0.5-0.8-1.2-1-1.8c-0.2-0.7-0.2-1.4,0-2c0.3,0.6,0.6,1,1,1.3
		c0.4,0.3,0.9,0.6,1.4,0.8c1,0.4,2,0.7,3,0.8c2.1,0.4,4.2,0.5,6.4,0.5c2.1,0,4.3-0.1,6.4-0.5c1-0.2,2.1-0.4,3-0.9
		c0.5-0.2,0.9-0.5,1.4-0.8C205.8,191.8,206.2,191.4,206.5,190.8z"/>
</g>
<g>
	<linearGradient id="SVGID_27_" gradientUnits="userSpaceOnUse" x1="141.8916" y1="170.3635" x2="177.8398" y2="170.3635">
		<stop  offset="0" style="stop-color:#47CFA4"/>
		<stop  offset="1" style="stop-color:#5CC4D6"/>
	</linearGradient>
	<path class="st28" d="M176,176.6c-2.7-1.9-5.2-3.7-7.9-5.1c-2.6-1.4-5.3-2.4-8-2.8c-2.7-0.3-5.4,0-8.2,0.9
		c-2.8,0.9-5.5,2.5-8.3,4.1c1.5-3,3.8-5.5,6.8-7.3c1.5-0.9,3.1-1.6,4.9-2c1.8-0.4,3.6-0.5,5.4-0.2c3.6,0.5,6.9,2.2,9.5,4.3
		C172.7,170.8,174.8,173.5,176,176.6z"/>
</g>
<g class="st29">
	<linearGradient id="SVGID_28_" gradientUnits="userSpaceOnUse" x1="172.7515" y1="246.3434" x2="218.0445" y2="246.3434">
		<stop  offset="0" style="stop-color:#47CFA4"/>
		<stop  offset="1" style="stop-color:#5CC4D6"/>
	</linearGradient>
	<path class="st30" d="M174.2,241.8c3.7,1.2,7.2,2.2,10.7,2.9c3.5,0.7,7,1.1,10.5,1.2c3.5,0,7-0.3,10.5-1c3.5-0.7,7-1.8,10.7-3
		c-2.5,3-5.8,5.2-9.5,6.8c-3.7,1.5-7.7,2.3-11.7,2.3c-4-0.1-8-0.9-11.6-2.4C180.2,246.9,176.8,244.8,174.2,241.8z"/>
</g>
<g>
	<linearGradient id="SVGID_29_" gradientUnits="userSpaceOnUse" x1="175.3048" y1="349.7734" x2="215.4527" y2="349.7734">
		<stop  offset="0" style="stop-color:#47CFA4"/>
		<stop  offset="1" style="stop-color:#5CC4D6"/>
	</linearGradient>
	<linearGradient id="SVGID_30_" gradientUnits="userSpaceOnUse" x1="174.5562" y1="349.5446" x2="216.2018" y2="349.5446">
		<stop  offset="0" style="stop-color:#47CFA4"/>
		<stop  offset="1" style="stop-color:#5CC4D6"/>
	</linearGradient>
	<path class="st31" d="M195.6,399.9l19.8-42.9v0l-8.4-57.3c-3.5,0.1-7.5,0.2-12.1,0.2h0.9c-4.6,0-8.5,0-12-0.2l-0.1,0l-8.4,57.3l0,0
		l19.8,42.9"/>
</g>
</svg>
