<?xml version="1.0" encoding="utf-8"?>
<!-- Generator: Adobe Illustrator 22.0.1, SVG Export Plug-In . SVG Version: 6.00 Build 0)  -->
<svg version="1.1" id="Layer_1" xmlns="http://www.w3.org/2000/svg" xmlns:xlink="http://www.w3.org/1999/xlink" x="0px" y="0px"
	 viewBox="0 0 400 400" style="enable-background:new 0 0 400 400;" xml:space="preserve">
<style type="text/css">
	.st0{fill:none;}
	.st1{opacity:0.1;}
	.st2{fill:url(#SVGID_1_);}
	.st3{fill:url(#SVGID_2_);}
	.st4{fill:url(#SVGID_3_);}
	.st5{fill:url(#SVGID_4_);}
	.st6{fill:url(#SVGID_5_);}
	.st7{fill:url(#SVGID_6_);}
	.st8{fill:url(#SVGID_7_);}
	.st9{opacity:0.1;fill:url(#SVGID_8_);enable-background:new    ;}
	.st10{opacity:0.1;fill:url(#SVGID_9_);enable-background:new    ;}
	.st11{fill:url(#SVGID_10_);}
	.st12{fill:url(#SVGID_11_);}
	
		.st13{opacity:0.75;fill:none;stroke:url(#SVGID_12_);stroke-width:0.334;stroke-linecap:round;stroke-linejoin:round;enable-background:new    ;}
	.st14{fill:url(#SVGID_13_);}
	.st15{fill:url(#SVGID_14_);}
	.st16{fill:url(#SVGID_15_);}
	.st17{fill:url(#SVGID_16_);}
	.st18{fill:url(#SVGID_17_);}
	.st19{fill:url(#SVGID_18_);}
	.st20{opacity:0.22;}
	.st21{fill:url(#SVGID_19_);}
	.st22{fill:url(#SVGID_20_);}
	.st23{fill:url(#SVGID_21_);}
	.st24{fill:url(#SVGID_22_);}
	.st25{opacity:0.1;fill:url(#SVGID_23_);enable-background:new    ;}
	.st26{opacity:0.1;fill:url(#SVGID_24_);enable-background:new    ;}
	
		.st27{opacity:0.75;fill:none;stroke:url(#SVGID_25_);stroke-width:0.334;stroke-linecap:round;stroke-linejoin:round;enable-background:new    ;}
	
		.st28{opacity:0.75;fill:none;stroke:url(#SVGID_26_);stroke-width:0.334;stroke-linecap:round;stroke-linejoin:round;enable-background:new    ;}
	.st29{fill:url(#SVGID_27_);}
	.st30{fill:url(#SVGID_28_);}
	.st31{fill:none;stroke:url(#SVGID_29_);stroke-width:1.5477;stroke-linecap:round;stroke-linejoin:round;}
	.st32{fill:none;stroke:url(#SVGID_30_);stroke-width:1.5477;stroke-linecap:round;stroke-linejoin:round;}
	.st33{fill:url(#SVGID_31_);}
	.st34{fill:url(#SVGID_32_);}
	.st35{fill:url(#SVGID_33_);}
	.st36{fill:url(#SVGID_34_);}
	.st37{fill:url(#SVGID_35_);}
	.st38{fill:url(#SVGID_36_);}
	.st39{fill:url(#SVGID_37_);}
	.st40{fill:url(#SVGID_38_);}
	.st41{opacity:0.25;}
	.st42{fill:url(#SVGID_39_);}
	.st43{fill:url(#SVGID_40_);}
	.st44{fill:url(#SVGID_41_);}
	.st45{fill:url(#SVGID_42_);}
	.st46{fill:url(#SVGID_43_);}
	.st47{fill:none;stroke:url(#SVGID_44_);stroke-width:1.3533;stroke-linecap:round;stroke-linejoin:round;}
	.st48{fill:none;stroke:url(#SVGID_45_);stroke-width:1.3533;stroke-linecap:round;stroke-linejoin:round;}
	.st49{fill:url(#SVGID_46_);}
	.st50{fill:url(#SVGID_47_);}
	.st51{fill:url(#SVGID_48_);}
	.st52{fill:url(#SVGID_49_);}
	.st53{fill:url(#SVGID_50_);}
	.st54{fill:url(#SVGID_51_);}
	.st55{fill:url(#SVGID_52_);}
	.st56{fill:url(#SVGID_53_);}
	.st57{fill:url(#SVGID_54_);}
	.st58{fill:url(#SVGID_55_);}
	.st59{fill:url(#SVGID_56_);}
	.st60{fill:url(#SVGID_57_);}
	.st61{fill:url(#SVGID_58_);}
	.st62{fill:url(#SVGID_59_);}
	.st63{fill:url(#SVGID_60_);}
	.st64{fill:url(#SVGID_61_);}
	.st65{fill:url(#SVGID_62_);}
	.st66{fill:url(#SVGID_63_);}
	.st67{fill:url(#SVGID_64_);}
	.st68{opacity:0.1;fill:url(#SVGID_65_);enable-background:new    ;}
	.st69{opacity:0.1;fill:url(#SVGID_66_);enable-background:new    ;}
	.st70{fill:url(#SVGID_67_);}
	.st71{fill:url(#SVGID_68_);}
	.st72{fill:none;stroke:url(#SVGID_69_);stroke-width:1.3359;stroke-linecap:round;stroke-linejoin:round;}
	
		.st73{opacity:0.66;fill:none;stroke:#FFFFFF;stroke-width:1.3359;stroke-linecap:round;stroke-linejoin:round;enable-background:new    ;}
	.st74{opacity:0.49;fill:url(#SVGID_70_);enable-background:new    ;}
	.st75{opacity:0.49;fill:url(#SVGID_71_);enable-background:new    ;}
	
		.st76{opacity:0.75;fill:none;stroke:url(#SVGID_72_);stroke-width:0.334;stroke-linecap:round;stroke-linejoin:round;enable-background:new    ;}
	.st77{opacity:0.49;fill:url(#SVGID_73_);enable-background:new    ;}
	.st78{opacity:0.49;fill:url(#SVGID_74_);enable-background:new    ;}
	.st79{fill:url(#SVGID_75_);}
	.st80{fill:url(#SVGID_76_);}
	.st81{fill:url(#SVGID_77_);}
	.st82{fill:url(#SVGID_78_);}
	.st83{fill:url(#SVGID_79_);}
	.st84{opacity:0.1;fill:url(#SVGID_80_);enable-background:new    ;}
</style>
<rect x="3.8" y="0.5" class="st0" width="395.7" height="395.7"/>
<g>
	<g id="XMLID_3_" class="st1">
		<g>
			
				<linearGradient id="SVGID_1_" gradientUnits="userSpaceOnUse" x1="243.957" y1="156.258" x2="207.6852" y2="25.1852" gradientTransform="matrix(1 0 0 -1 0 400)">
				<stop  offset="0" style="stop-color:#47CFA4"/>
				<stop  offset="1" style="stop-color:#5CC4D6"/>
			</linearGradient>
			<path class="st2" d="M284.7,251l-0.2,11.2l0,0l-18.7-5.4c-12.1-3.5-24.9-0.4-34.1,8c-8.3-13.8-17.8-26.8-28.7-38.2
				c13.3,1.9,15.7-4,15.7-4l41,5.2l0,0c0.9,2.9,1.7,5.5,2.5,7.9c2,6.4,6.4,11.8,12.5,14.7c1.4,0.7,2.6,1.2,3.5,1.2
				C278.7,251.8,281.2,251.5,284.7,251z"/>
			
				<linearGradient id="SVGID_2_" gradientUnits="userSpaceOnUse" x1="198.4554" y1="168.8638" x2="162.1721" y2="37.7493" gradientTransform="matrix(1 0 0 -1 0 400)">
				<stop  offset="0" style="stop-color:#47CFA4"/>
				<stop  offset="1" style="stop-color:#5CC4D6"/>
			</linearGradient>
			<path class="st3" d="M220.1,284l-22.1,76.5l-2.9-0.9l-11-17.2l-41.9-2.1c-4.7-7.1-5.9-22.7-5.9-22.7l-0.1-0.7
				c32.9-10.2,69.3-28.7,87.6-38.5L220.1,284z"/>
		</g>
	</g>
	<g>
		
			<linearGradient id="SVGID_3_" gradientUnits="userSpaceOnUse" x1="105.6576" y1="281.1564" x2="278.969" y2="281.1564" gradientTransform="matrix(1 0 0 -1 0 400)">
			<stop  offset="0" style="stop-color:#47CFA4"/>
			<stop  offset="1" style="stop-color:#5CC4D6"/>
		</linearGradient>
		<path class="st4" d="M120.8,189.6c-0.1-2.5-0.5-4.8-1.1-7.2c-0.5-2.4-1.2-4.7-2-7.1c-0.7-2.4-1.6-4.6-2.4-6.9
			c-0.4-1.2-0.9-2.3-1.4-3.5c-0.5-1.1-1-2.3-1.6-3.4c-4.6-9.1-7-19.6-6.7-30.1c0.2-5.2,1-10.6,2.4-15.7c1.5-5.1,3.6-10.2,6.4-14.8
			c1.4-2.4,3-4.6,4.9-6.8l0.7-0.8l0.6-0.7l1.3-1.4l2.7-2.7c1.8-1.8,3.6-3.6,5.3-5.3l2.8-2.7c1-0.9,1.8-1.7,2.9-2.7l-2.2,3.5l0.3-1
			l0.3-0.9c0.2-0.6,0.4-1.1,0.5-1.7c0.4-1.1,0.8-2.1,1.2-3.2c0.9-2.1,1.9-4.1,3.1-5.9c2.4-3.8,5.3-7.3,8.9-10.4
			c3.6-3,7.6-5.4,12-7.1c2.2-0.9,4.5-1.5,6.6-2c2.1-0.5,4.3-0.8,6.3-1c8.3-0.9,16.4-0.8,24.5-0.1c8.1,0.7,16.1,2.3,24,4.6
			c4,1.3,7.8,2.7,11.7,4.6c3.8,1.9,7.4,4.2,10.9,6.9c3.4,2.8,6.5,6,8.9,9.9c0.6,1,1.2,2,1.7,3c0.3,0.5,0.5,1.1,0.7,1.6
			c0.2,0.5,0.4,0.9,0.5,1.4l2.1,5.3c1.4,3.6,2.9,7.1,4.3,10.7c0.7,1.8,1.5,3.6,2.3,5.2l1.2,2.6c0.4,0.8,0.8,1.7,1.2,2.3
			c0.1,0.1,0.1,0.1,0.1,0.2l0,0l0,0c0,0,0,0-0.1-0.1c-0.3-0.2,0,0,0,0l0.1,0.1c0.2,0.2,0.5,0.3,0.7,0.5c0.4,0.3,0.9,0.6,1.3,0.9
			c0.8,0.7,1.6,1.4,2.4,2.1c1.5,1.5,2.8,3.2,3.6,5.1c0.9,2,1.3,4.1,1.2,6.1c-0.1,2.1-0.8,4.1-1.8,5.7l0,0c-0.1,0.2-0.4,0.3-0.5,0.2
			c-0.2-0.1-0.3-0.3-0.2-0.5c0.7-1.7,1.2-3.6,1.2-5.4s-0.5-3.7-1.4-5.3c-0.9-1.7-2.1-3.1-3.6-4.4c-0.7-0.6-1.5-1.2-2.2-1.8
			c-0.4-0.3-0.8-0.5-1.2-0.8l-0.6-0.3c-0.1,0-0.3-0.2-0.4-0.3c-0.1-0.1-0.2-0.2-0.3-0.3c-1.4-1.5-2.4-3.2-3.4-4.8
			c-1-1.7-2-3.4-2.9-5c-1.9-3.4-3.6-6.8-5.2-10.4l-2.5-5.2c-0.8-1.8-1.7-3.5-2.8-4.9c-2.1-3.2-4.8-5.8-7.9-8.1
			c-6.1-4.6-13.4-7.5-20.7-9.6c-7.4-2.1-15-3.3-22.7-3.9c-7.6-0.6-15.4-0.6-23,0.3c-3.8,0.5-7.6,1.1-11.1,2.4
			c-3.6,1.3-6.8,3.3-9.7,5.6c-5.7,4.8-10,11.7-12.2,18.8l0,0c0,0.1-0.1,0.3-0.2,0.4c-3.8,3.2-7.3,6.6-10.9,10
			c-1.8,1.7-3.6,3.5-5.2,5.2c-1.7,1.8-3.2,3.8-4.6,5.7c-5.3,8.2-8.5,17.8-9.5,27.6c-0.9,9.8,0.5,19.8,4,29c1.8,4.6,3.5,9.3,4.7,14.1
			c0.7,2.4,1.3,4.8,1.7,7.3c0.4,2.5,0.8,4.9,0.8,7.5c0,0.2-0.2,0.4-0.4,0.4C121,189.9,120.8,189.8,120.8,189.6L120.8,189.6z"/>
	</g>
	<g>
		
			<linearGradient id="SVGID_4_" gradientUnits="userSpaceOnUse" x1="138.748" y1="245.7152" x2="260.3129" y2="245.7152" gradientTransform="matrix(1 0 0 -1 0 400)">
			<stop  offset="0" style="stop-color:#47CFA4"/>
			<stop  offset="1" style="stop-color:#5CC4D6"/>
		</linearGradient>
		<path class="st5" d="M140.1,82.6c0,2.6,0.2,5,0.5,7.5c0.3,2.5,0.8,4.9,1.6,7.3c0.7,2.4,1.7,4.7,3,6.8c1.3,2.1,2.9,4.1,4.9,5.3
			s4.5,1.9,6.9,2.2c2.5,0.3,4.9,0.4,7.4,0.3c4.9-0.2,10-0.9,14.9-1.8s9.9-1.9,14.8-3c4.9-1.1,10-2,15.1-2.3c5.1-0.3,10.3-0.1,15.3,1
			c5,1,10,2.9,14.4,5.5s8.4,6.3,11.4,10.7c3,4.4,4.9,9.3,5.9,14.4c1,5.1,0.9,10.4-0.1,15.5c-0.5,2.6-1.2,5-2.1,7.5
			c-0.5,1.2-1,2.4-1.4,3.6c-0.5,1.2-0.9,2.3-1.3,3.5c-1.7,4.6-3,9.5-3.7,14.4c-0.7,4.8-0.8,9.9,0.1,14.7c0.4,2.5,1.1,4.8,1.9,7.2
			c0.7,2.4,1.7,4.7,2,7.5c0.1,1.4,0,2.8-0.4,4.1c-0.5,1.3-1.2,2.5-2.1,3.5c-1.7,2-3.8,3.6-5.9,5l-0.1-1.2c1.2,0.5,2.5,1,3.8,1.4
			c1.3,0.4,2.6,0.8,4,1.1c1.3,0.3,2.7,0.6,4.1,0.8c1.4,0.2,2.7,0.4,4.1,0.6c-1.4,0-2.8,0-4.2-0.1c-1.4-0.1-2.8-0.3-4.2-0.5
			c-1.4-0.2-2.8-0.5-4.1-0.8c-1.4-0.3-2.7-0.6-4.1-1.1c-0.4-0.1-0.5-0.5-0.4-0.9c0.1-0.1,0.1-0.2,0.2-0.3l0,0c2-1.5,4-3,5.5-4.8
			c0.8-0.9,1.4-2,1.7-3.1c0.4-1.1,0.4-2.3,0.3-3.4c-0.3-2.4-1.2-4.6-2.1-7.1c-0.8-2.4-1.6-4.8-2.1-7.4c-1.1-5-1.1-10.3-0.4-15.4
			c0.7-5.1,2-10.1,3.7-14.9c0.4-1.2,0.9-2.4,1.3-3.6c0.5-1.2,0.9-2.4,1.4-3.5c0.8-2.3,1.5-4.6,1.9-7.1c0.9-4.8,1-9.8,0-14.5
			c-0.9-4.7-2.8-9.4-5.5-13.4c-2.8-4.1-6.3-7.4-10.5-10c-4.2-2.6-8.8-4.4-13.7-5.3c-4.8-1-9.8-1.3-14.7-1c-4.9,0.2-9.9,1.2-14.8,2.1
			s-9.9,1.9-14.9,2.7c-5,0.8-10.1,1.4-15.1,1.5c-2.6,0-5.1-0.1-7.7-0.5c-2.6-0.4-5.1-1.1-7.3-2.6c-2.2-1.5-3.8-3.7-5-5.8
			c-1.3-2.3-2.2-4.6-2.8-7.1C140.3,92.7,139.9,87.6,140.1,82.6z"/>
	</g>
	<g>
		
			<linearGradient id="SVGID_5_" gradientUnits="userSpaceOnUse" x1="124.9316" y1="243.4305" x2="248.4382" y2="243.4305" gradientTransform="matrix(1 0 0 -1 0 400)">
			<stop  offset="0" style="stop-color:#47CFA4"/>
			<stop  offset="1" style="stop-color:#5CC4D6"/>
		</linearGradient>
		<path class="st6" d="M150.9,110.9c-2.7,3.4-4.7,7.1-6.4,11c-1.7,4-2.9,8-3.7,12.2c-0.4,2.1-0.7,4.2-0.8,6.3
			c-0.2,2.1-0.3,4.3-0.2,6.3c0.1,4.3,0.5,8.4,1.3,12.6c0.1,0.5-0.2,1-0.8,1.1c-0.4,0.1-0.8-0.1-1-0.5l0,0c-1-2.1-2.1-4.1-3.3-6
			c-1.2-2-2.4-4-3.9-5.4c-0.3-0.4-0.8-0.7-1-0.7c-0.1,0,0.2,0-0.1,0.1c-0.2,0.1-0.4,0.2-0.5,0.3c-0.7,0.6-1.3,1.4-1.8,2.4
			c-0.9,1.9-1.4,4.1-1.5,6.2c0,1.1,0,2.2,0.1,3.3c0.1,1,0.4,2.1,0.8,3.2c0.7,2.1,1.7,4.2,2.9,5.9s2.7,3.5,4.5,4.6
			c1.8,1.2,3.8,2,5.8,2.3c0.4,0,0.7,0.2,0.9,0.5l0,0c1.4,1.9,3.1,3.7,4.7,5.3c1.8,1.7,3.7,3.3,5.6,4.6c2,1.5,4,2.8,6.1,4
			c2.1,1.2,4.3,2.3,6.5,3.3c8.9,4,18.7,5.9,28.6,6.3c4.9,0.2,9.9,0.1,14.7-0.4s9.5-2.2,14-4.2c4.5-2.1,8.7-4.6,12.9-7.4
			c2.1-1.4,4.1-3,5.9-4.5c1.9-1.6,3.9-3.2,5.4-5c-1.6,2-3.4,3.7-5.2,5.3c-1.9,1.7-3.8,3.3-5.8,4.7c-4,3-8.2,5.7-12.7,8
			c-4.5,2.3-9.3,4.1-14.3,4.7c-4.9,0.6-10,0.9-15,0.8c-5-0.1-10.1-0.6-15-1.6s-9.8-2.5-14.4-4.5c-2.4-1-4.6-2.1-6.8-3.4
			c-2.2-1.3-4.4-2.7-6.4-4.2s-4-3.2-5.8-4.9s-3.6-3.6-5.1-5.8l0.9,0.6c-2.5-0.3-4.9-1.3-7-2.7c-2.1-1.5-3.8-3.3-5-5.3
			c-1.4-2.1-2.4-4.3-3.1-6.5c-0.4-1.2-0.7-2.4-0.8-3.7c-0.1-1.2-0.2-2.5-0.1-3.7c0.1-2.5,0.6-4.8,1.8-7.1c0.6-1.1,1.3-2.2,2.5-3.1
			c0.3-0.2,0.6-0.4,1-0.6c0.2-0.1,0.3-0.1,0.7-0.2c0.3,0,0.6,0,0.9,0.1c1,0.3,1.4,0.8,1.9,1.3c1.8,1.9,2.9,3.9,4.1,5.9
			c1.2,2.1,2.2,4.2,3.2,6.2l-1.8,0.6c-0.7-4.3-1-8.6-1-13c0-4.4,0.6-8.6,1.5-12.9c1-4.3,2.4-8.3,4.2-12.2
			C145.7,117.7,148,114.1,150.9,110.9z"/>
	</g>
	<g>
		
			<linearGradient id="SVGID_6_" gradientUnits="userSpaceOnUse" x1="218.0832" y1="174.6843" x2="260.4208" y2="174.6843" gradientTransform="matrix(1 0 0 -1 0 400)">
			<stop  offset="0" style="stop-color:#47CFA4"/>
			<stop  offset="1" style="stop-color:#5CC4D6"/>
		</linearGradient>
		<path class="st7" d="M218.8,222.7c6.9,0.4,13.8,1.1,20.6,2c6.8,0.9,13.7,1.9,20.4,3.3c-6.9-0.4-13.8-1.1-20.6-2
			C232.3,225.1,225.5,224.1,218.8,222.7z"/>
	</g>
	<g>
		
			<linearGradient id="SVGID_7_" gradientUnits="userSpaceOnUse" x1="213.8234" y1="188.9796" x2="219.4191" y2="188.9796" gradientTransform="matrix(1 0 0 -1 0 400)">
			<stop  offset="0" style="stop-color:#47CFA4"/>
			<stop  offset="1" style="stop-color:#5CC4D6"/>
		</linearGradient>
		<path class="st8" d="M214.7,199.3c0,2,0.2,4,0.4,5.9c0.2,2,0.5,4,0.8,5.8c0.3,2,0.7,3.9,1.2,5.8c0.5,1.9,1,3.9,1.7,5.7
			c-1.2-1.6-2.1-3.5-2.8-5.4c-0.7-1.9-1.1-3.9-1.5-5.9c-0.3-2-0.5-4.1-0.5-6C214,203.3,214.1,201.3,214.7,199.3z"/>
	</g>
	
		<linearGradient id="SVGID_8_" gradientUnits="userSpaceOnUse" x1="220.21" y1="252.9525" x2="241.8848" y2="252.9525" gradientTransform="matrix(1 0 0 -1 0 400)">
		<stop  offset="0" style="stop-color:#47CFA4"/>
		<stop  offset="1" style="stop-color:#5CC4D6"/>
	</linearGradient>
	<path class="st9" d="M241.8,143.3c0.6,1.7-3.8,4.7-9.7,6.8c-5.9,2.1-11.3,2.5-11.9,0.8c-0.6-1.7,3.8-4.7,9.7-6.8
		C236,141.9,241.2,141.6,241.8,143.3z"/>
	
		<linearGradient id="SVGID_9_" gradientUnits="userSpaceOnUse" x1="181.0362" y1="279.6685" x2="202.703" y2="279.6685" gradientTransform="matrix(0.9924 0.123 0.123 -0.9924 -53.553 415.4193)">
		<stop  offset="0" style="stop-color:#47CFA4"/>
		<stop  offset="1" style="stop-color:#5CC4D6"/>
	</linearGradient>
	<path class="st10" d="M182.5,159c0.4,1.7-4.4,4.3-10.5,5.6c-6.1,1.4-11.5,1.1-11.9-0.7c-0.4-1.7,4.4-4.3,10.5-5.6
		S182.1,157.3,182.5,159z"/>
	<g>
		
			<linearGradient id="SVGID_10_" gradientUnits="userSpaceOnUse" x1="202.1872" y1="175.0306" x2="218.9652" y2="175.0306" gradientTransform="matrix(1 0 0 -1 0 400)">
			<stop  offset="0" style="stop-color:#47CFA4"/>
			<stop  offset="1" style="stop-color:#5CC4D6"/>
		</linearGradient>
		<path class="st11" d="M218.8,222.7c-0.6,1.4-1.9,2.4-3.2,3.1c-1.4,0.7-2.8,1.1-4.3,1.3c-0.7,0.1-1.5,0.1-2.3,0.2
			c-0.8,0-1.5,0-2.3,0c-0.7-0.1-1.5-0.1-2.2-0.2l-2.2-0.4l2.2,0.2c0.7,0.1,1.5,0.1,2.2,0.1h2.2c0.7-0.1,1.5-0.1,2.2-0.2
			c1.5-0.2,2.9-0.6,4.2-1.2c0.7-0.3,1.3-0.7,1.9-1.1C217.9,223.9,218.4,223.3,218.8,222.7z"/>
	</g>
	<g>
		
			<linearGradient id="SVGID_11_" gradientUnits="userSpaceOnUse" x1="141.3251" y1="280.0573" x2="268.7955" y2="280.0573" gradientTransform="matrix(1 0 0 -1 0 400)">
			<stop  offset="0" style="stop-color:#47CFA4"/>
			<stop  offset="1" style="stop-color:#5CC4D6"/>
		</linearGradient>
		<path class="st12" d="M142,97.6c6.1-0.8,12.3-2.2,18.2-4c5.9-1.8,11.8-4,17.3-6.7l2.1-1.1l2-1.2l4.1-2.3c2.8-1.5,5.6-2.7,8.7-3.7
			c6-1.8,12.5-2.5,18.7-1.7c6.2,0.7,12.4,2.9,17.8,5.9c5.5,3.1,10.5,7,14.9,11.5c8.9,8.9,15.6,19.7,20.9,31l0,0l0,0
			c0.9,3.2,1.5,6.4,1.7,9.7c0.3,3.3,0.1,6.6-1,9.8c-0.6,1.6-1.7,2.9-2.6,4.2c-0.8,1.4-1.3,3-1.5,4.6c-0.4,3.2,0.4,6.5,1.8,9.5
			c-1.5-2.9-2.4-6.2-2.1-9.5c0.2-1.7,0.6-3.3,1.4-4.7c0.9-1.5,1.9-2.7,2.4-4.2c0.5-1.5,0.8-3.1,0.9-4.7c0.1-1.6,0.1-3.3-0.1-4.8
			c-0.3-3.2-0.9-6.4-1.8-9.5v0.1c-2.7-5.6-5.7-11-9.2-16.1c-3.5-5.1-7.3-10-11.7-14.3c-4.4-4.4-9.3-8.2-14.6-11.2
			c-5.3-3-11.3-5.1-17.3-5.8c-6.1-0.8-12.4-0.2-18.2,1.5c-3,0.9-5.8,2.1-8.5,3.5l-4.1,2.2l-2.1,1.1l-2.1,1
			c-5.6,2.7-11.5,4.8-17.5,6.4C154.4,95.9,148.2,97.1,142,97.6z"/>
	</g>
	
		<linearGradient id="SVGID_12_" gradientUnits="userSpaceOnUse" x1="209.8483" y1="222.368" x2="210.6856" y2="222.368" gradientTransform="matrix(1 0 0 -1 0 400)">
		<stop  offset="0" style="stop-color:#47CFA4"/>
		<stop  offset="1" style="stop-color:#5CC4D6"/>
	</linearGradient>
	<path class="st13" d="M210.1,175.5c0,0.7,0.2,2,0.5,4.3L210.1,175.5z"/>
	<g>
		
			<linearGradient id="SVGID_13_" gradientUnits="userSpaceOnUse" x1="219.8154" y1="272.4832" x2="224.2752" y2="272.2463" gradientTransform="matrix(1 0 0 -1 0 400)">
			<stop  offset="0" style="stop-color:#47CFA4"/>
			<stop  offset="1" style="stop-color:#5CC4D6"/>
		</linearGradient>
		<path class="st14" d="M220.2,132.4c0.6-1.8,1.2-3.3,1.7-4.7c0.3-0.8,0.5-1.5,0.8-2.3c0.3-0.8,0.4-1.6,0.7-2.5
			c0.9,1.7,0.9,3.7,0.2,5.4c-0.3,0.9-0.8,1.7-1.3,2.4C221.8,131.3,221.1,131.9,220.2,132.4z"/>
	</g>
	<g>
		
			<linearGradient id="SVGID_14_" gradientUnits="userSpaceOnUse" x1="225.3517" y1="273.176" x2="229.8116" y2="272.9389" gradientTransform="matrix(1 0 0 -1 0 400)">
			<stop  offset="0" style="stop-color:#47CFA4"/>
			<stop  offset="1" style="stop-color:#5CC4D6"/>
		</linearGradient>
		<path class="st15" d="M225.8,131.7c0.6-1.8,1.2-3.3,1.7-4.7c0.3-0.8,0.5-1.5,0.8-2.3c0.3-0.8,0.4-1.6,0.7-2.5
			c0.9,1.7,0.9,3.7,0.2,5.4c-0.3,0.9-0.8,1.7-1.3,2.4C227.4,130.7,226.7,131.3,225.8,131.7z"/>
	</g>
	<g>
		
			<linearGradient id="SVGID_15_" gradientUnits="userSpaceOnUse" x1="230.8357" y1="272.8822" x2="235.2955" y2="272.6451" gradientTransform="matrix(1 0 0 -1 0 400)">
			<stop  offset="0" style="stop-color:#47CFA4"/>
			<stop  offset="1" style="stop-color:#5CC4D6"/>
		</linearGradient>
		<path class="st16" d="M231.3,132c0.6-1.8,1.2-3.3,1.7-4.7c0.3-0.8,0.5-1.5,0.8-2.3s0.4-1.6,0.7-2.5c0.9,1.7,0.9,3.7,0.2,5.4
			c-0.3,0.9-0.8,1.7-1.3,2.4C232.8,131,232.1,131.6,231.3,132z"/>
	</g>
	<g>
		
			<linearGradient id="SVGID_16_" gradientUnits="userSpaceOnUse" x1="161.888" y1="257.5673" x2="171.5086" y2="257.056" gradientTransform="matrix(1 0 0 -1 0 400)">
			<stop  offset="0" style="stop-color:#47CFA4"/>
			<stop  offset="1" style="stop-color:#5CC4D6"/>
		</linearGradient>
		<path class="st17" d="M171.3,145.3c-0.9,0.2-1.9,0.1-2.8,0c-0.9-0.2-1.8-0.6-2.6-1.1c-1.6-1-2.9-2.6-3.2-4.4
			c0.8,0.5,1.5,1.1,2.2,1.5c0.7,0.5,1.4,0.9,2.1,1.4C168.3,143.6,169.8,144.3,171.3,145.3z"/>
	</g>
	<g>
		
			<linearGradient id="SVGID_17_" gradientUnits="userSpaceOnUse" x1="157.1806" y1="254.6024" x2="166.8011" y2="254.0912" gradientTransform="matrix(1 0 0 -1 0 400)">
			<stop  offset="0" style="stop-color:#47CFA4"/>
			<stop  offset="1" style="stop-color:#5CC4D6"/>
		</linearGradient>
		<path class="st18" d="M166.6,148.3c-0.9,0.2-1.9,0.1-2.8,0c-0.9-0.2-1.8-0.6-2.6-1.1c-1.6-1-2.9-2.6-3.2-4.4
			c0.8,0.5,1.5,1.1,2.2,1.5c0.7,0.5,1.4,0.9,2.1,1.4C163.7,146.5,165,147.3,166.6,148.3z"/>
	</g>
	<g>
		
			<linearGradient id="SVGID_18_" gradientUnits="userSpaceOnUse" x1="153.0816" y1="250.9391" x2="162.7021" y2="250.4279" gradientTransform="matrix(1 0 0 -1 0 400)">
			<stop  offset="0" style="stop-color:#47CFA4"/>
			<stop  offset="1" style="stop-color:#5CC4D6"/>
		</linearGradient>
		<path class="st19" d="M162.5,152c-0.9,0.2-1.9,0.1-2.8,0c-0.9-0.2-1.8-0.6-2.6-1.1c-1.6-1-2.9-2.6-3.2-4.4
			c0.8,0.5,1.5,1.1,2.2,1.5c0.7,0.5,1.4,0.9,2.1,1.4C159.5,150.2,160.9,151,162.5,152z"/>
	</g>
	<g class="st20">
		
			<linearGradient id="SVGID_19_" gradientUnits="userSpaceOnUse" x1="190.8264" y1="246.4814" x2="208.5627" y2="244.1912" gradientTransform="matrix(1 0 0 -1 0 400)">
			<stop  offset="0" style="stop-color:#47CFA4"/>
			<stop  offset="1" style="stop-color:#5CC4D6"/>
		</linearGradient>
		<path class="st21" d="M207.3,150.8c0.5,0.8,0.6,1.8,0.4,2.8s-0.7,1.9-1.3,2.7c-1.3,1.5-3.1,2.6-4.9,3c-1.9,0.4-3.9,0.3-5.6-0.5
			c-0.9-0.4-1.7-0.9-2.4-1.6s-1.2-1.5-1.4-2.4c1.6,0.9,3.1,1.1,4.5,1.2c1.4,0.1,2.8,0,4.2-0.3c1.4-0.3,2.6-0.8,3.8-1.5
			C205.6,153.3,206.6,152.5,207.3,150.8z"/>
	</g>
	<g>
		
			<linearGradient id="SVGID_20_" gradientUnits="userSpaceOnUse" x1="166.1421" y1="19.0996" x2="186.2844" y2="20.6139" gradientTransform="matrix(1 0 0 -1 0 400)">
			<stop  offset="0" style="stop-color:#47CFA4"/>
			<stop  offset="1" style="stop-color:#5CC4D6"/>
		</linearGradient>
		<path class="st22" d="M165.7,364.8c4.1,4.7,7.6,9.9,11.2,14.9c3.5,5.1,6.8,10.4,9.9,15.8c-4.1-4.7-7.6-9.9-11.2-14.9
			C172.1,375.4,168.7,370.2,165.7,364.8z"/>
	</g>
	<g>
		
			<linearGradient id="SVGID_21_" gradientUnits="userSpaceOnUse" x1="94.0999" y1="15.6067" x2="81.8056" y2="13.8487" gradientTransform="matrix(1 0 0 -1 0 400)">
			<stop  offset="0" style="stop-color:#47CFA4"/>
			<stop  offset="1" style="stop-color:#5CC4D6"/>
		</linearGradient>
		<path class="st23" d="M91.9,374.9c-0.4,1.9-0.9,3.7-1.5,5.3c-0.6,1.8-1.2,3.5-1.9,5.2c-0.7,1.7-1.4,3.5-2.2,5.1
			c-0.8,1.7-1.6,3.4-2.6,4.9c0.4-1.9,0.9-3.7,1.5-5.3c0.6-1.8,1.2-3.5,1.9-5.2c0.7-1.7,1.4-3.5,2.2-5.1
			C90.1,378.2,91,376.5,91.9,374.9z"/>
	</g>
	<g>
		
			<linearGradient id="SVGID_22_" gradientUnits="userSpaceOnUse" x1="54.4676" y1="121.9165" x2="168.6036" y2="130.4971" gradientTransform="matrix(1 0 0 -1 0 400)">
			<stop  offset="0" style="stop-color:#47CFA4"/>
			<stop  offset="1" style="stop-color:#5CC4D6"/>
		</linearGradient>
		<path class="st24" d="M137.9,219c2.5,1.2,4.8,2.6,7.1,4.2c2.3,1.6,4.5,3.4,6.4,5.2c1,0.9,2,2,3,3c0.9,1.1,1.9,2.1,2.7,3.2
			c1.8,2.2,3.3,4.6,4.6,6.9c2.7,4.9,4.7,10.2,5.8,15.7c0.3,1.4,0.6,2.8,0.8,4.2l0.4,4.3c0.2,1.4,0.1,2.9,0.1,4.3
			c0,1.4,0,2.9-0.2,4.3c-0.3,5.6-1.9,11.2-4.1,16.5c-0.6,1.3-1.1,2.6-1.8,3.9l-2.1,3.8l-0.5,0.9l-0.6,0.9l-1.2,1.8l-1.2,1.8
			c-0.4,0.6-0.9,1.1-1.4,1.7c-3.6,4.5-7.9,8.3-12.7,11.5l-1.8,1.2c-0.6,0.4-1.2,0.8-1.9,1.1l-3.9,2c-0.6,0.4-1.3,0.6-2,0.9l-2,0.8
			l-2,0.8c-0.7,0.2-1.4,0.4-2.1,0.6c-1.4,0.4-2.8,0.8-4.2,1.1l-4.3,0.7c-1.4,0.3-2.9,0.3-4.3,0.4c-1.4,0.1-2.9,0.3-4.3,0.1l-4.3-0.2
			c-1.4-0.2-2.9-0.4-4.3-0.6c-1.4-0.1-2.8-0.5-4.2-0.9c-1.4-0.4-2.8-0.6-4.2-1.1l-4.1-1.4l-3.9-1.8c-1.3-0.5-2.5-1.3-3.8-2.1
			c-1.2-0.7-2.5-1.4-3.6-2.3c-4.7-3.1-8.8-7.2-12.4-11.7c-3.6-4.5-6.2-9.5-8.3-14.7c-0.5-1.3-1-2.7-1.4-4l-1-4.1
			c-0.7-2.8-1.1-5.5-1.3-8.3s-0.1-5.6,0.1-8.4c0.3-2.8,0.7-5.5,1.4-8.2c0.6-2.7,1.5-5.3,2.6-7.9s2.3-5,3.7-7.3l0,0
			c0-0.1,0.1-0.1,0.2-0.1c0.1,0,0.1,0.1,0.1,0.2c-5.1,9.6-7.4,20.7-6.3,31.6c0.3,2.7,0.7,5.4,1.4,8l1.1,4c0.4,1.3,1,2.6,1.5,3.9
			c2.1,5,4.7,9.8,8.3,13.9c6.8,8.4,16.2,14.7,26.6,17.9c1.3,0.5,2.6,0.7,4,1c1.3,0.3,2.7,0.7,4,0.8c1.4,0.2,2.7,0.4,4.1,0.5l4.1,0.1
			c1.4,0.1,2.7-0.1,4.1-0.2c1.4-0.1,2.7-0.1,4.1-0.4l4.1-0.7c1.3-0.3,2.6-0.7,4-1.1c0.7-0.2,1.3-0.3,2-0.6l1.9-0.7l1.9-0.7
			c0.6-0.2,1.3-0.5,1.9-0.8l3.7-1.9c0.6-0.3,1.2-0.7,1.8-1l1.7-1.1c4.6-3,8.7-6.5,12.1-10.8c7-8.3,11.4-18.7,12.6-29.6
			c0.2-1.4,0.2-2.7,0.3-4.1c0-1.4,0.2-2.7,0-4.1l-0.3-4.1c-0.2-1.4-0.4-2.7-0.7-4.1c-0.9-5.3-2.8-10.5-5.2-15.3
			c-5-9.7-13-17.7-22.5-23C138,219.2,138,219.1,137.9,219C137.7,219,137.8,219,137.9,219L137.9,219z"/>
	</g>
	
		<linearGradient id="SVGID_23_" gradientUnits="userSpaceOnUse" x1="111.9157" y1="110.2602" x2="130.2561" y2="110.2602" gradientTransform="matrix(0.9972 -7.496853e-02 -7.496853e-02 -0.9972 24.549 385.4989)">
		<stop  offset="0" style="stop-color:#47CFA4"/>
		<stop  offset="1" style="stop-color:#5CC4D6"/>
	</linearGradient>
	<path class="st25" d="M146,264.4c0.3,1.1-3.6,3-8.6,4.1c-4.9,1.1-9.2,1.1-9.5,0s3.6-3,8.6-4.1C141.6,263.4,145.8,263.4,146,264.4z"
		/>
	
		<linearGradient id="SVGID_24_" gradientUnits="userSpaceOnUse" x1="58.8147" y1="102.6441" x2="77.155" y2="102.6441" gradientTransform="matrix(0.9972 -7.496853e-02 -7.496853e-02 -0.9972 24.549 385.4989)">
		<stop  offset="0" style="stop-color:#47CFA4"/>
		<stop  offset="1" style="stop-color:#5CC4D6"/>
	</linearGradient>
	<path class="st26" d="M75.6,280.1c0.3,1.1,4.5,1.1,9.5,0c4.9-1.1,8.8-2.9,8.6-4.1c-0.3-1.1-4.5-1.1-9.5,0
		C79.2,277.1,75.4,279,75.6,280.1z"/>
	
		<linearGradient id="SVGID_25_" gradientUnits="userSpaceOnUse" x1="107.5246" y1="85.1276" x2="110.4571" y2="85.1276" gradientTransform="matrix(0.9972 -7.496853e-02 -7.496853e-02 -0.9972 24.549 385.4989)">
		<stop  offset="0" style="stop-color:#47CFA4"/>
		<stop  offset="1" style="stop-color:#5CC4D6"/>
	</linearGradient>
	<path class="st27" d="M128.4,296.3l-3.2-7.7"/>
	
		<linearGradient id="SVGID_26_" gradientUnits="userSpaceOnUse" x1="89.2392" y1="82.3244" x2="89.8291" y2="82.3244" gradientTransform="matrix(0.9972 -7.496853e-02 -7.496853e-02 -0.9972 24.549 385.4989)">
		<stop  offset="0" style="stop-color:#47CFA4"/>
		<stop  offset="1" style="stop-color:#5CC4D6"/>
	</linearGradient>
	<path class="st28" d="M107.5,292.5l0.4,8.3"/>
	<g>
		
			<linearGradient id="SVGID_27_" gradientUnits="userSpaceOnUse" x1="54.6712" y1="38.1787" x2="114.0589" y2="42.6434" gradientTransform="matrix(1 0 0 -1 0 400)">
			<stop  offset="0" style="stop-color:#47CFA4"/>
			<stop  offset="1" style="stop-color:#5CC4D6"/>
		</linearGradient>
		<path class="st29" d="M109.5,323.6v0.3l0,0c0.9,3.6,1.5,7.3,1.8,11c0.1,1.9,0.2,3.8,0.1,5.6c-0.1,1.9-0.3,3.8-0.8,5.7
			c-0.1,0.4-0.3,0.6-0.7,0.7h-0.1c-5.9,2-11.9,4.1-17.9,6c-3,1-5.9,2-9,3l-9,2.9l1-0.9c-1.2,3.2-2.5,6.3-3.8,9.5
			c-1.3,3.2-2.6,6.3-4,9.5l-2.1,4.7l-2.1,4.6c-1.5,3.1-2.9,6.2-4.5,9.3c0.9-3.4,2-6.5,3-9.8l1.6-4.8l1.7-4.8
			c1.2-3.3,2.3-6.4,3.6-9.6c1.2-3.2,2.4-6.4,3.7-9.6l0,0c0.2-0.4,0.5-0.7,1-0.9l9-2.8c3-1,6-1.9,9-2.8c6-1.9,12.1-3.7,18.1-5.4
			l-0.7,0.7c0.5-1.7,0.9-3.5,1.1-5.2s0.3-3.7,0.4-5.4c0-1.9,0-3.7-0.1-5.5c-0.1-1.9-0.2-3.7-0.4-5.5l0,0L109.5,323.6z"/>
	</g>
	<g>
		
			<linearGradient id="SVGID_28_" gradientUnits="userSpaceOnUse" x1="108.5899" y1="53.0495" x2="143.6517" y2="55.6855" gradientTransform="matrix(1 0 0 -1 0 400)">
			<stop  offset="0" style="stop-color:#47CFA4"/>
			<stop  offset="1" style="stop-color:#5CC4D6"/>
		</linearGradient>
		<path class="st30" d="M109.2,345.8l0.8,0.6l0,0c2.8,0.8,5.6,1.3,8.5,1.6c2.9,0.3,5.7,0.4,8.5,0c2.8-0.3,5.5-1.1,8.1-2.3
			c2.6-1.2,4.8-3,6.9-5l0,0l0,0l0.4-0.2l-0.3,0.3l0,0c-1.6,2.5-3.8,4.6-6.4,6c-2.6,1.5-5.5,2.4-8.5,2.8c-3,0.3-6,0.2-8.9-0.3
			c-3-0.5-5.7-1.4-8.4-2.7l0,0l0,0L109.2,345.8z"/>
	</g>
	
		<linearGradient id="SVGID_29_" gradientUnits="userSpaceOnUse" x1="88.1492" y1="130.9822" x2="197.9111" y2="130.9822" gradientTransform="matrix(0.9972 -7.496853e-02 -7.496853e-02 -0.9972 24.549 385.4989)">
		<stop  offset="0" style="stop-color:#47CFA4"/>
		<stop  offset="1" style="stop-color:#5CC4D6"/>
	</linearGradient>
	<path class="st31" d="M100.3,207.5c0,0,77.8-33.4,114.3,76.4"/>
	
		<linearGradient id="SVGID_30_" gradientUnits="userSpaceOnUse" x1="12.7684" y1="113.2739" x2="78.8648" y2="113.2739" gradientTransform="matrix(0.9972 -7.496853e-02 -7.496853e-02 -0.9972 24.549 385.4989)">
		<stop  offset="0" style="stop-color:#47CFA4"/>
		<stop  offset="1" style="stop-color:#5CC4D6"/>
	</linearGradient>
	<path class="st32" d="M89.7,209.8c-13.5,5.2-67.8,31.6-55.4,118.5"/>
	<g>
		
			<linearGradient id="SVGID_31_" gradientUnits="userSpaceOnUse" x1="116.9202" y1="144.0221" x2="140.0539" y2="145.7612" gradientTransform="matrix(1 0 0 -1 0 400)">
			<stop  offset="0" style="stop-color:#47CFA4"/>
			<stop  offset="1" style="stop-color:#5CC4D6"/>
		</linearGradient>
		<path class="st33" d="M118.6,260.6c0.3-2.2,1.2-4.3,2.7-6.1c1.4-1.8,3.5-3.3,5.8-3.9c2.5-0.6,4.9-0.1,7,1c2.1,1.1,3.8,2.6,4.9,4.5
			c-2.1-0.9-4-1.7-5.8-2.2s-3.7-0.6-5.4-0.2c-1.7,0.4-3.4,1.3-4.8,2.6C121.5,257.4,120.1,258.9,118.6,260.6z"/>
	</g>
	<g>
		
			<linearGradient id="SVGID_32_" gradientUnits="userSpaceOnUse" x1="126.8249" y1="151.1703" x2="130.671" y2="151.4595" gradientTransform="matrix(1 0 0 -1 0 400)">
			<stop  offset="0" style="stop-color:#47CFA4"/>
			<stop  offset="1" style="stop-color:#5CC4D6"/>
		</linearGradient>
		<path class="st34" d="M127.5,252.1c0.5-1.3,1-2.3,1.3-3.3c0.2-0.5,0.3-1,0.3-1.6c0.1-0.6,0.1-1.2,0.1-1.9c0.5,0.4,1,1.1,1.1,1.8
			c0.2,0.7,0.2,1.5-0.1,2.2c-0.2,0.7-0.6,1.3-1.1,1.8C128.7,251.5,128.2,252,127.5,252.1z"/>
	</g>
	<g>
		
			<linearGradient id="SVGID_33_" gradientUnits="userSpaceOnUse" x1="130.6594" y1="151.0633" x2="135.5461" y2="151.4307" gradientTransform="matrix(1 0 0 -1 0 400)">
			<stop  offset="0" style="stop-color:#47CFA4"/>
			<stop  offset="1" style="stop-color:#5CC4D6"/>
		</linearGradient>
		<path class="st35" d="M131.4,252c0.5-1.3,1.1-2.3,1.6-3.3l0.8-1.5c0.2-0.5,0.5-1,0.8-1.7c0.4,0.6,0.5,1.3,0.4,2
			c-0.1,0.7-0.3,1.4-0.6,2c-0.3,0.6-0.8,1.1-1.3,1.6C132.6,251.5,132,251.8,131.4,252z"/>
	</g>
	<g>
		
			<linearGradient id="SVGID_34_" gradientUnits="userSpaceOnUse" x1="135.75" y1="149.2217" x2="141.0961" y2="149.6236" gradientTransform="matrix(1 0 0 -1 0 400)">
			<stop  offset="0" style="stop-color:#47CFA4"/>
			<stop  offset="1" style="stop-color:#5CC4D6"/>
		</linearGradient>
		<path class="st36" d="M136.4,254.1c0.6-1.3,1.4-2.4,2.1-3.5c0.3-0.5,0.7-1.1,0.9-1.6c0.3-0.6,0.5-1.1,0.6-1.9
			c0.5,0.6,0.6,1.4,0.5,2.2s-0.4,1.5-0.8,2.1s-0.9,1.2-1.5,1.6C137.7,253.5,137.1,253.9,136.4,254.1z"/>
	</g>
	<g>
		
			<linearGradient id="SVGID_35_" gradientUnits="userSpaceOnUse" x1="76.3708" y1="135.0974" x2="99.5241" y2="136.8381" gradientTransform="matrix(1 0 0 -1 0 400)">
			<stop  offset="0" style="stop-color:#47CFA4"/>
			<stop  offset="1" style="stop-color:#5CC4D6"/>
		</linearGradient>
		<path class="st37" d="M98.6,265c-2-0.9-4-1.7-5.8-2.2c-1.9-0.5-3.8-0.6-5.4-0.3c-1.7,0.4-3.4,1.3-4.8,2.5s-2.9,2.8-4.4,4.5
			c0.3-2.2,1.2-4.3,2.6-6.1c1.4-1.8,3.5-3.4,5.9-3.9c2.5-0.5,4.9,0,6.9,1C95.6,261.7,97.4,263.2,98.6,265z"/>
	</g>
	<g>
		
			<linearGradient id="SVGID_36_" gradientUnits="userSpaceOnUse" x1="81.8853" y1="141.3762" x2="86.9492" y2="141.7569" gradientTransform="matrix(1 0 0 -1 0 400)">
			<stop  offset="0" style="stop-color:#47CFA4"/>
			<stop  offset="1" style="stop-color:#5CC4D6"/>
		</linearGradient>
		<path class="st38" d="M86.9,261.1c-0.7,0.1-1.4,0-2-0.2c-0.7-0.2-1.3-0.7-1.7-1.2c-0.5-0.5-0.8-1.2-1-1.9c-0.2-0.7,0-1.4,0.3-2.1
			c0.4,0.6,0.6,1.2,0.9,1.7c0.3,0.5,0.6,0.9,1,1.3C85,259.5,85.9,260.2,86.9,261.1z"/>
	</g>
	<g>
		
			<linearGradient id="SVGID_37_" gradientUnits="userSpaceOnUse" x1="77.218" y1="139.3553" x2="83.4919" y2="139.827" gradientTransform="matrix(1 0 0 -1 0 400)">
			<stop  offset="0" style="stop-color:#47CFA4"/>
			<stop  offset="1" style="stop-color:#5CC4D6"/>
		</linearGradient>
		<path class="st39" d="M83.4,262.7c-0.7,0.1-1.4,0-2-0.2c-0.6-0.2-1.2-0.5-1.8-0.9c-0.5-0.4-1-0.9-1.4-1.5c-0.4-0.6-0.6-1.3-0.5-2
			c0.5,0.5,1,0.9,1.4,1.2l1.4,1C81.4,261.1,82.4,261.7,83.4,262.7z"/>
	</g>
	<g>
		
			<linearGradient id="SVGID_38_" gradientUnits="userSpaceOnUse" x1="72.9465" y1="135.3257" x2="79.7227" y2="135.8352" gradientTransform="matrix(1 0 0 -1 0 400)">
			<stop  offset="0" style="stop-color:#47CFA4"/>
			<stop  offset="1" style="stop-color:#5CC4D6"/>
		</linearGradient>
		<path class="st40" d="M79.7,266.7c-0.7,0.1-1.5,0.1-2.2-0.1s-1.4-0.4-2-0.8c-0.6-0.4-1.2-0.9-1.6-1.6c-0.4-0.7-0.6-1.5-0.4-2.2
			c0.5,0.6,0.9,1,1.4,1.4c0.5,0.4,1,0.7,1.5,1.1C77.4,265.1,78.6,265.7,79.7,266.7z"/>
	</g>
	<g class="st41">
		
			<linearGradient id="SVGID_39_" gradientUnits="userSpaceOnUse" x1="102.6957" y1="125.0882" x2="120.048" y2="126.3928" gradientTransform="matrix(1 0 0 -1 0 400)">
			<stop  offset="0" style="stop-color:#47CFA4"/>
			<stop  offset="1" style="stop-color:#5CC4D6"/>
		</linearGradient>
		<path class="st42" d="M117.7,270.2c0.3,0.3,0.4,0.8,0.5,1.2c0,0.4,0,0.9-0.1,1.3c-0.2,0.8-0.6,1.6-1.1,2.3c-1,1.4-2.6,2.4-4.4,2.8
			c-1.8,0.4-3.6,0.1-5.1-0.7c-0.8-0.4-1.5-0.9-2-1.6c-0.3-0.3-0.5-0.7-0.7-1.1c-0.2-0.4-0.3-0.9-0.1-1.3c0.7,0.5,1.3,0.6,1.9,0.7
			c0.6,0.1,1.2,0.1,1.8,0.2c1.2,0,2.2-0.1,3.2-0.3c1-0.2,2-0.6,3.1-1.1c0.5-0.3,1.1-0.6,1.6-0.9C116.8,271.3,117.3,271,117.7,270.2z
			"/>
	</g>
	<g>
		
			<linearGradient id="SVGID_40_" gradientUnits="userSpaceOnUse" x1="49.6252" y1="175.3415" x2="160.7524" y2="183.6961" gradientTransform="matrix(1 0 0 -1 0 400)">
			<stop  offset="0" style="stop-color:#47CFA4"/>
			<stop  offset="1" style="stop-color:#5CC4D6"/>
		</linearGradient>
		<path class="st43" d="M159.5,220.8c-6.1,0.3-12.3,0-18.4-0.5s-12.3-1.4-18.3-2.8c-3-0.7-6-1.5-9-2.5c-3-1-5.8-2.1-8.7-3.6
			c-2.8-1.4-5.5-3.1-8-5.1c-2.5-2.1-4.6-4.6-6.1-7.5l2.9-0.7c0,0.9-0.1,1.6-0.2,2.3c-0.1,0.7-0.2,1.5-0.4,2.2
			c-0.3,1.4-0.7,2.8-1.2,4.2c-0.9,2.7-2.1,5.3-3.5,7.8c-2.7,5-6,9.5-9.8,13.8c-3.8,4.2-7.9,7.9-12.3,11.4s-9,6.5-13.8,9.4
			c4.5-3.3,8.8-6.7,12.9-10.4c4.1-3.7,7.9-7.6,11.5-11.8c3.5-4.3,6.6-8.7,9.1-13.6c1.2-2.4,2.3-4.9,3.1-7.4c0.4-1.3,0.8-2.6,1-3.9
			c0.1-0.7,0.3-1.3,0.3-2c0.1-0.6,0.2-1.3,0.2-1.9l0,0c0-0.8,0.7-1.5,1.5-1.5c0.6,0,1.1,0.3,1.4,0.8c1.3,2.5,3.3,4.6,5.4,6.6
			c2.2,1.9,4.7,3.5,7.3,4.8c5.2,2.7,11,4.6,16.8,6.2c5.8,1.6,11.9,2.7,17.8,3.7C147.3,219.7,153.5,220.4,159.5,220.8z"/>
	</g>
	<g>
		
			<linearGradient id="SVGID_41_" gradientUnits="userSpaceOnUse" x1="87.0149" y1="8.711" x2="91.4263" y2="9.0426" gradientTransform="matrix(1 0 0 -1 0 400)">
			<stop  offset="0" style="stop-color:#47CFA4"/>
			<stop  offset="1" style="stop-color:#5CC4D6"/>
		</linearGradient>
		<path class="st44" d="M87.5,386.6c0.6,0.6,1.1,1.3,1.5,2.1c0.4,0.7,0.8,1.5,1.1,2.2c0.3,0.8,0.6,1.5,0.7,2.3
			c0.2,0.8,0.3,1.6,0.3,2.5c-0.6-0.6-1.1-1.3-1.5-2c-0.4-0.7-0.8-1.5-1.1-2.2c-0.3-0.8-0.6-1.5-0.7-2.3
			C87.6,388.3,87.5,387.4,87.5,386.6z"/>
	</g>
	<g>
		
			<linearGradient id="SVGID_42_" gradientUnits="userSpaceOnUse" x1="169.6524" y1="14.3374" x2="174.4554" y2="14.6985" gradientTransform="matrix(1 0 0 -1 0 400)">
			<stop  offset="0" style="stop-color:#47CFA4"/>
			<stop  offset="1" style="stop-color:#5CC4D6"/>
		</linearGradient>
		<path class="st45" d="M173,375.3c0.2,1.7,0.2,3.4,0.2,5.1c0,1.7-0.1,3.4-0.3,5c-0.2,1.7-0.3,3.4-0.6,5c-0.3,1.7-0.6,3.4-1.1,5
			c-0.2-1.7-0.2-3.4-0.2-5.1c0-1.7,0.1-3.4,0.3-5c0.2-1.7,0.3-3.4,0.6-5C172.2,378.7,172.5,377,173,375.3z"/>
	</g>
	<g>
		<path class="st0" d="M333.6,238.4"/>
	</g>
	<g>
		
			<linearGradient id="SVGID_43_" gradientUnits="userSpaceOnUse" x1="251.4077" y1="198.9219" x2="335.1122" y2="198.9219" gradientTransform="matrix(1 0 0 -1 0 400)">
			<stop  offset="0" style="stop-color:#47CFA4"/>
			<stop  offset="1" style="stop-color:#5CC4D6"/>
		</linearGradient>
		<path class="st46" d="M275.8,150.7c-1.6,0.9-2.9,2.1-4.1,3.4c-0.6,0.6-1.1,1.4-1.7,2.1c-0.5,0.7-1,1.5-1.4,2.2
			c-1.7,3.1-2.7,6.4-3.3,9.8c-0.6,3.4-0.9,6.9-0.9,10.4c0.1,4-0.9,8-2.6,11.6c-0.4,0.9-0.9,1.8-1.4,2.7c-0.3,0.4-0.5,0.9-0.8,1.3
			l-0.8,1.2c-0.9,1.3-1.6,2.6-2,3.9c-0.2,0.7-0.3,1.3-0.4,2c0,0.7,0,1.3,0.1,2.1c0.2,1.6,0.6,3.3,1,4.9c1.7,6.8,3.7,13.8,5.8,20.6
			l1.6,5.1c0.3,0.9,0.5,1.6,0.8,2.4c0.3,0.7,0.6,1.5,1,2.2c1.4,2.8,3.5,5.2,5.8,7.2c1.2,1,2.6,1.8,4,2.5c0.3,0.2,0.7,0.3,0.9,0.4
			c0.3,0.1,0.5,0.1,0.4,0.1c0.4,0,1.4-0.1,2.3-0.2c3.5-0.4,7-0.8,10.6-1.3c3.6-0.5,7.1-1.1,10.7-1.6s7.1-1.2,10.6-1.9
			c3.6-0.7,7-1.4,10.6-2.3l2.6-0.7l2.6-0.8c1.8-0.4,3.5-1.1,5.2-1.6l0,0c0.1,0,0.2,0,0.3,0.1c0,0.1,0,0.2-0.1,0.2
			c-6.6,3-13.6,5-20.6,6.9c-7,1.8-14.1,3.3-21.3,4.6c-3.6,0.6-7.1,1.2-10.8,1.7c-0.9,0.1-1.8,0.2-2.8,0.2c-1-0.1-1.9-0.4-2.7-0.8
			c-1.7-0.8-3.3-1.7-4.7-2.9c-3-2.2-5.3-5.1-7-8.4c-0.9-1.6-1.5-3.4-2.1-5l-1.6-5.1c-2.1-6.9-4.2-13.9-5.7-21
			c-0.4-1.8-0.8-3.6-1-5.3c-0.2-1.8-0.1-3.8,0.5-5.4c0.6-1.8,1.5-3.4,2.7-4.8c1.1-1.4,2.1-2.9,2.9-4.5c1.7-3.2,2.6-6.7,2.7-10.3
			c0.2-3.7,0.6-7.2,1.5-10.8s2.3-6.9,4.3-10c0.5-0.8,1.1-1.5,1.6-2.2c0.6-0.7,1.2-1.4,1.9-2c1.4-1.3,2.9-2.4,4.6-3.1
			c0.1,0,0.2,0,0.3,0.1C275.9,150.6,275.9,150.7,275.8,150.7L275.8,150.7z"/>
	</g>
	
		<linearGradient id="SVGID_44_" gradientUnits="userSpaceOnUse" x1="283.7934" y1="141.9884" x2="285.4033" y2="141.9884" gradientTransform="matrix(1 0 0 -1 0 400)">
		<stop  offset="0" style="stop-color:#47CFA4"/>
		<stop  offset="1" style="stop-color:#5CC4D6"/>
	</linearGradient>
	<line class="st47" x1="284.7" y1="251" x2="284.4" y2="265"/>
	
		<linearGradient id="SVGID_45_" gradientUnits="userSpaceOnUse" x1="319.3132" y1="141.3948" x2="322.0291" y2="141.3948" gradientTransform="matrix(1 0 0 -1 0 400)">
		<stop  offset="0" style="stop-color:#47CFA4"/>
		<stop  offset="1" style="stop-color:#5CC4D6"/>
	</linearGradient>
	<line class="st48" x1="320" y1="243.4" x2="321.3" y2="273.8"/>
	<g>
		
			<linearGradient id="SVGID_46_" gradientUnits="userSpaceOnUse" x1="329.9293" y1="171.5978" x2="355.5132" y2="171.5978" gradientTransform="matrix(1 0 0 -1 0 400)">
			<stop  offset="0" style="stop-color:#47CFA4"/>
			<stop  offset="1" style="stop-color:#5CC4D6"/>
		</linearGradient>
		<path class="st49" d="M330.8,231.6c-0.3,1.3-0.3,2.7,0.1,3.9c0.4,1.2,1.3,2.2,2.4,2.8h-0.1c1.8,0.4,3.6,0.4,5.2,0
			c1.8-0.4,3.4-1.1,4.9-2c3.2-1.8,5.8-4.3,8-7.1c1.1-1.5,2-3,2.6-4.6c0.3-0.8,0.4-1.7,0.3-2.5c-0.1-0.9-0.4-1.7-0.9-2.3
			c-1-1.4-2.9-1.9-4.6-2c-1.8-0.1-3.7,0.1-5.4,0.6c1.7-0.7,3.6-1.1,5.4-1.1c1,0,1.9,0.1,2.9,0.4c0.9,0.3,1.8,0.8,2.5,1.6
			c0.7,0.8,1.1,1.8,1.2,2.7c0.2,1,0.1,2.1-0.2,3c-0.6,1.9-1.6,3.6-2.7,5c-2.3,3.1-5.1,5.5-8.4,7.4c-1.7,0.9-3.5,1.6-5.3,2
			c-1.9,0.4-3.9,0.3-5.6-0.3l0,0h-0.1c-0.6-0.4-1.1-0.9-1.6-1.4c-0.4-0.6-0.7-1.2-0.9-1.9C330.2,234.3,330.4,232.9,330.8,231.6z"/>
	</g>
	<g>
		
			<linearGradient id="SVGID_47_" gradientUnits="userSpaceOnUse" x1="274.0841" y1="208.518" x2="348.0016" y2="208.518" gradientTransform="matrix(1 0 0 -1 0 400)">
			<stop  offset="0" style="stop-color:#47CFA4"/>
			<stop  offset="1" style="stop-color:#5CC4D6"/>
		</linearGradient>
		<path class="st50" d="M275.5,150.6c2.5,2.6,5.5,4.6,8.7,5.9s6.5,2.5,10,3.3c3.4,0.8,6.9,1.4,10.4,1.5l2.7,0.2l1.4,0.1
			c0.4,0,0.8,0.1,1.3,0.1c0.8,0,1.7,0,2.5,0l1.4-0.1c0.5,0,1,0,1.6,0c2.1,0.1,4.3,0.6,6.1,1.6c2,1,3.6,2.6,4.7,4.4
			c0.6,0.9,1.1,1.8,1.5,2.8l0.5,1.2c0.2,0.4,0.3,0.7,0.5,1.1c0.8,1.5,1.7,2.9,2.7,4.4c1,1.4,2.1,2.8,3.2,4.3
			c1.1,1.4,2.2,2.9,3.3,4.4c1.1,1.5,2.2,3.1,3.1,4.8c0.5,0.9,0.9,1.9,1.1,3.1c0.1,0.6,0.1,1.3,0,2s-0.4,1.4-0.8,2l-2.2-2.8
			c1.1-0.3,2.2-0.7,3.3-1.1l1.6-0.6l0.8-0.3l0.4-0.1l0.2-0.1l0.2-0.1c0.2-0.1,0.5-0.2,0.9-0.1c0.3,0,0.5,0.1,0.7,0.3
			c0.1,0.1,0.3,0.2,0.3,0.3c0.3,0.3,0.3,0.5,0.4,0.6s0.1,0.3,0.1,0.4c0.1,0.2,0.1,0.4,0.1,0.6c0.1,0.4,0.1,0.7,0.1,1
			c0.1,0.6,0.1,1.2,0.1,1.9c0,1.2,0,2.4-0.1,3.6c-0.3,4.7-1,9.4-2.5,13.9c-1.5,4.5-3.6,8.8-6.8,12.3c-1.7,1.7-3.6,3.2-5.7,4.1
			c-2.2,0.9-4.6,1.4-6.8,1.4l0,0c-0.1,0-0.1-0.1-0.1-0.1c0-0.1,0.1-0.1,0.1-0.1c2.3-0.1,4.6-0.7,6.6-1.6c2.1-1,3.9-2.4,5.4-4.1
			c3.1-3.4,4.9-7.7,6.2-12.1c1.3-4.5,1.9-9,2.1-13.6c0-1.2,0-2.3,0-3.5c0-0.6-0.1-1.2-0.1-1.7c0-0.3-0.1-0.6-0.1-0.8
			c-0.1-0.3-0.1-0.6-0.2-0.7l0,0c0,0,0.1,0,0,0l-0.2,0.1l-0.4,0.2l-1,0.3l-1.6,0.7c-1.1,0.4-2.2,0.8-3.3,1.2c-0.1,0-0.2,0-0.3-0.1
			c0-0.1,0-0.1,0-0.2c0.5-0.7,0.5-1.6,0.3-2.5c-0.2-0.9-0.5-1.7-1-2.5c-0.9-1.6-1.9-3-3-4.5c-2.2-2.9-4.6-5.5-6.6-8.5
			c-1.1-1.5-2.1-3-2.9-4.6c-0.4-0.8-0.8-1.7-1.1-2.5c-0.3-0.8-0.8-1.6-1.2-2.4c-1-1.5-2.3-2.7-3.9-3.6c-1.6-0.8-3.3-1.3-5-1.4
			c-0.9-0.1-1.8,0-2.7,0.1c-0.9,0-1.8,0-2.8,0c-1.8-0.1-3.6-0.4-5.3-0.6c-3.6-0.4-7.1-1.1-10.6-2c-3.5-1-6.8-2.3-10.1-4.1
			c-3.2-1.8-6.1-4-8.3-6.8c0-0.1,0-0.1,0-0.2C275.3,150.6,275.4,150.6,275.5,150.6L275.5,150.6z"/>
	</g>
	<g>
		
			<linearGradient id="SVGID_48_" gradientUnits="userSpaceOnUse" x1="268.7195" y1="235.0124" x2="395.6126" y2="235.0124" gradientTransform="matrix(1 0 0 -1 0 400)">
			<stop  offset="0" style="stop-color:#47CFA4"/>
			<stop  offset="1" style="stop-color:#5CC4D6"/>
		</linearGradient>
		<path class="st51" d="M353.7,226.3c5.2-0.1,10.4-1.2,14.8-3.6c4.6-2.4,8.2-5.9,10.9-10.2c1.4-2.1,2.5-4.4,3.5-6.7
			c0.5-1.2,1-2.4,1.5-3.6c0.1-0.3,0.3-0.6,0.4-1c0.1-0.2,0.2-0.4,0.3-0.6c0.1-0.1,0.2-0.2,0.3-0.4c0.1-0.1,0.1-0.2,0.3-0.3
			c0.2-0.1,0.3-0.2,0.8-0.4c0.1,0,0.2,0,0.3,0c0.1,0,0,0,0.1,0l0,0l0,0h0.1c0.1,0,0.2-0.1,0.3-0.1c0.2-0.1,0.5-0.2,0.8-0.3
			c1.1-0.5,2.2-1.1,3-1.8c0.2-0.2,0.4-0.3,0.4-0.4c0,0,0,0,0,0.1v0.1c0,0.1-0.1,0.2-0.1,0.3c0,0.3,0,0.7,0.3,1
			c0.1,0.2,0.2,0.2,0.3,0.3l0.2,0.1h0.1l0,0l0,0c0,0-0.2,0-0.3,0c-0.3,0-0.5,0-0.8-0.1c-0.1,0-0.3,0-0.4-0.1l-0.4-0.2
			c-0.6-0.2-1.1-0.6-1.5-1.1c-0.2-0.2-0.3-0.5-0.5-0.7c-0.1-0.2-0.2-0.5-0.3-0.7c-0.3-0.9-0.3-1.8-0.3-2.6c0.1-1.6,0.3-2.9,0.8-4.4
			l-0.1,0.8c-0.3-2.5-0.5-4.8-0.8-7.3c-0.4-2.4-0.7-4.8-1.2-7.2l-0.7-3.6l-0.9-3.6c-0.3-1.2-0.7-2.4-1-3.5c-0.4-1.1-0.7-2.3-1.2-3.4
			c-1.7-4.6-3.9-8.7-6.5-12.7c-2.7-3.9-5.8-7.4-9.6-10.3c-3.7-3-7.8-5.4-12.1-7.6c-4.4-2.2-8.8-4-13.4-5.2c-4.6-1.3-9.3-2.1-14-2.2
			c-1.2-0.1-2.4,0-3.6,0c-1.2,0.1-2.4,0.2-3.5,0.3c-0.6,0.1-1.2,0.2-1.7,0.3c-0.6,0.1-1.2,0.2-1.7,0.4c-0.6,0.1-1.1,0.3-1.7,0.4
			c-0.5,0.2-1.1,0.4-1.5,0.5l0.6-0.4l0,0L314,125c-1,0.8-2.5,0.7-3.3-0.3l0,0c-1.1-1.4-2-3.1-2.3-4.9c-0.2-1.9,0.1-3.7,0.7-5.2
			c0.6-1.6,1.4-2.9,2.4-4.2c1-1.3,1.9-2.3,3.2-3.5l0.6,3.8c-2.8-1.2-5.6-2.2-8.7-2.6c-3-0.5-6-0.5-9,0c-5.9,0.9-11.6,3.9-15.7,8.3
			c-4.3,4.4-7.3,10.1-8.6,16.2c-0.2,0.8-0.3,1.6-0.4,2.3c-0.1,0.8-0.2,1.6-0.3,2.4c-0.1,1.6-0.2,3.2,0,4.7c0.3,3.2,1.5,6.1,3.4,8.8
			c-2.1-2.5-3.7-5.4-4.3-8.7c-0.3-1.6-0.4-3.3-0.4-4.8c0-0.8,0-1.7,0.1-2.5c0-0.8,0.1-1.7,0.3-2.5c0.5-3.3,1.4-6.4,2.8-9.5
			c1.4-3.1,3.2-5.8,5.3-8.4c2.2-2.6,4.8-4.7,7.7-6.4c2.9-1.8,6.1-3,9.5-3.7c3.4-0.7,6.8-0.8,10.2-0.4c3.4,0.4,6.7,1.3,9.8,2.6
			c1.1,0.5,1.7,1.7,1.2,2.9c-0.1,0.3-0.3,0.6-0.5,0.8l-0.1,0.1c-0.8,0.8-1.7,1.8-2.4,2.8c-0.7,1-1.3,2.1-1.7,3.1
			c-0.4,1-0.5,2.1-0.4,2.9c0.2,0.9,0.6,1.7,1.2,2.5l-3.4-0.3l0,0l0,0c0.2-0.1,0.4-0.3,0.6-0.4c0.8-0.3,1.4-0.5,2-0.8
			c0.7-0.2,1.3-0.4,2-0.6c0.7-0.2,1.3-0.3,2-0.4c0.7-0.1,1.3-0.3,2-0.4c1.3-0.2,2.6-0.3,3.9-0.5c1.3,0,2.6-0.2,4-0.1
			c5.2,0.1,10.4,0.9,15.3,2.2c4.9,1.4,9.8,3.3,14.3,5.5c4.6,2.4,9,5,13,8.3c4.1,3.3,7.6,7.2,10.5,11.5c2.9,4.4,5.2,9,6.8,13.9
			c3.4,9.7,4.6,19.9,5.2,29.9l0,0c0,0.3,0,0.5-0.1,0.7c-0.3,1-0.6,2.3-0.7,3.3c0,0.5,0,1,0.1,1.3c0,0.1,0,0.1,0.1,0.2c0,0,0,0,0,0.1
			l0,0l0,0h0.1c0.1,0,0.1,0,0.2,0c0.2,0,0.4,0,0.7,0.1c0.1,0,0.3,0,0.4,0.1l0.3,0.1c0.1,0,0.2,0.1,0.3,0.1c0.1,0.1,0.2,0.1,0.4,0.2
			c0.2,0.1,0.3,0.2,0.4,0.5c0.3,0.4,0.4,1,0.4,1.5c0,0.2-0.1,0.4-0.1,0.5s-0.1,0.2-0.2,0.3c-0.1,0.2-0.2,0.3-0.3,0.5
			c-0.4,0.5-0.7,0.7-1,0.9c-1.3,0.9-2.5,1.5-3.8,2.1c-0.3,0.1-0.7,0.3-1.1,0.4c-0.2,0.1-0.4,0.1-0.6,0.2c-0.1,0-0.2,0-0.4,0.1
			c-0.1,0-0.2,0-0.2,0h-0.1c0,0-0.1,0,0,0c0.1,0,0.2,0,0.2,0c0.4-0.1,0.4-0.2,0.5-0.2c0.1-0.1,0.1-0.1,0.1-0.1l0,0
			c0,0-0.1,0.2-0.2,0.3c-0.1,0.2-0.3,0.5-0.4,0.8c-0.5,1.2-1.1,2.4-1.7,3.6c-1.2,2.4-2.5,4.7-4.1,6.9c-3.2,4.4-7.4,8-12.3,10.1
			C364.3,226,358.8,226.6,353.7,226.3z"/>
	</g>
	<g>
		
			<linearGradient id="SVGID_49_" gradientUnits="userSpaceOnUse" x1="311.6686" y1="227.7102" x2="365.1043" y2="227.7102" gradientTransform="matrix(1 0 0 -1 0 400)">
			<stop  offset="0" style="stop-color:#47CFA4"/>
			<stop  offset="1" style="stop-color:#5CC4D6"/>
		</linearGradient>
		<path class="st52" d="M312.3,123.3c4,0.8,7.8,1.9,11.6,3.3c3.8,1.4,7.4,3.1,10.9,5c3.5,2,6.8,4.4,9.7,7.2c3,2.8,5.4,6.1,7,9.9
			c1.7,3.8,2.5,7.8,2.5,11.9c0,2.1-0.2,4.1-0.6,6c-0.4,2-0.6,3.9-0.5,5.8c0.2,3.9,1.6,7.6,3.7,10.9s4.9,6.2,8,8.5l0,0
			c0.3,0.2,0.3,0.5,0.1,0.8l-0.1,0.1l-4.9,3.9l0.2-0.4c0.2,2.3,0.2,4.6,0.1,6.9c-0.1,2.3-0.3,4.6-0.8,6.8c-0.5,2.3-1.2,4.5-2.3,6.5
			c-1.1,2-2.7,3.9-4.6,4.8c2-1.2,3.5-3,4.4-5c1-2,1.6-4.3,2-6.4c0.4-2.2,0.6-4.5,0.6-6.7s-0.1-4.6-0.3-6.7c0-0.2,0.1-0.3,0.2-0.4
			l4.8-4v0.9c-3.4-2.4-6.2-5.3-8.4-8.8c-2.3-3.4-3.8-7.4-4-11.5c-0.1-2.1,0.1-4.2,0.5-6.1c0.4-1.9,0.6-3.9,0.6-5.8
			c0.1-4-0.7-7.8-2.3-11.4c-1.6-3.6-4-6.8-6.7-9.6c-2.8-2.8-5.9-5.2-9.4-7.2C327.6,128.2,320.1,125.2,312.3,123.3z"/>
	</g>
	<g class="st41">
		
			<linearGradient id="SVGID_50_" gradientUnits="userSpaceOnUse" x1="267.4236" y1="198.6086" x2="279.4876" y2="198.6086" gradientTransform="matrix(1 0 0 -1 0 400)">
			<stop  offset="0" style="stop-color:#47CFA4"/>
			<stop  offset="1" style="stop-color:#5CC4D6"/>
		</linearGradient>
		<path class="st53" d="M276.4,193.1c-1.6,1.5-3.2,3-4.3,4.5c-0.6,0.8-1,1.5-1.1,2.2s0,1.1,0.3,1.7c0.9,1.6,2,3.1,3.3,4.5
			c1.3,1.3,2.8,2.5,4.8,3.4c-2.2,0.9-4.7,0.3-6.7-0.9c-2.1-1.3-3.7-3.2-4.6-5.2c-0.3-0.6-0.6-1.4-0.6-2.2c0-0.8,0.1-1.6,0.4-2.3
			c0.6-1.4,1.5-2.3,2.4-3c0.9-0.7,1.9-1.3,3-1.7C274.3,193.5,275.3,193.2,276.4,193.1z"/>
	</g>
	<g>
		
			<linearGradient id="SVGID_51_" gradientUnits="userSpaceOnUse" x1="255.879" y1="219.5422" x2="264.0779" y2="219.5422" gradientTransform="matrix(1 0 0 -1 0 400)">
			<stop  offset="0" style="stop-color:#47CFA4"/>
			<stop  offset="1" style="stop-color:#5CC4D6"/>
		</linearGradient>
		<path class="st54" d="M263.5,181.6c-0.3,0.8-1.1,1.5-2.1,1.6s-2-0.4-2.7-1s-1.2-1.3-1.5-2.1c-0.4-0.8-0.6-1.6-0.6-2.5
			c0.7,0.6,1.2,1.2,1.7,1.8c0.5,0.6,1,1.1,1.5,1.6c0.5,0.4,1,0.8,1.6,0.9C262,182.1,262.7,182,263.5,181.6z"/>
	</g>
	<g>
		
			<linearGradient id="SVGID_52_" gradientUnits="userSpaceOnUse" x1="304.3295" y1="197.339" x2="315.1227" y2="197.339" gradientTransform="matrix(1 0 0 -1 0 400)">
			<stop  offset="0" style="stop-color:#47CFA4"/>
			<stop  offset="1" style="stop-color:#5CC4D6"/>
		</linearGradient>
		<path class="st55" d="M305.1,201.1c0.6,0.7,1.4,1,2.2,1.2c0.8,0.2,1.6,0.2,2.4,0.2c0.8,0,1.7-0.1,2.6-0.1s1.8-0.1,2.7,0
			c-0.8,0.6-1.6,1-2.5,1.3c-0.9,0.3-1.8,0.5-2.8,0.5s-2-0.2-2.9-0.7C305.9,203,305.1,202.1,305.1,201.1z"/>
	</g>
	<g>
		
			<linearGradient id="SVGID_53_" gradientUnits="userSpaceOnUse" x1="302.7279" y1="201.9118" x2="310.6467" y2="201.9118" gradientTransform="matrix(1 0 0 -1 0 400)">
			<stop  offset="0" style="stop-color:#47CFA4"/>
			<stop  offset="1" style="stop-color:#5CC4D6"/>
		</linearGradient>
		<path class="st56" d="M303.2,197.4c0.7,0.1,1.3,0.1,1.8,0.1c0.6,0,1.1-0.1,1.7-0.1c0.6,0,1.1-0.1,1.7-0.1c0.6,0,1.2-0.1,1.9,0
			c-0.5,0.5-1,0.9-1.6,1.2c-0.6,0.3-1.3,0.5-1.9,0.5c-0.7,0-1.4,0-2-0.3C304.2,198.4,303.5,198,303.2,197.4z"/>
	</g>
	<g>
		
			<linearGradient id="SVGID_54_" gradientUnits="userSpaceOnUse" x1="298.1353" y1="207.1948" x2="307.9099" y2="207.1948" gradientTransform="matrix(1 0 0 -1 0 400)">
			<stop  offset="0" style="stop-color:#47CFA4"/>
			<stop  offset="1" style="stop-color:#5CC4D6"/>
		</linearGradient>
		<path class="st57" d="M298.3,193.1c1.7-0.3,3.2-0.5,4.6-0.7c0.7-0.1,1.5-0.3,2.2-0.4c0.8-0.2,1.5-0.4,2.3-0.6
			c-0.5,0.7-1.1,1.4-1.9,1.8c-0.7,0.4-1.6,0.7-2.4,0.9c-0.8,0.1-1.7,0.1-2.5,0C299.9,193.8,299,193.6,298.3,193.1z"/>
	</g>
	<g>
		
			<linearGradient id="SVGID_55_" gradientUnits="userSpaceOnUse" x1="262.4911" y1="222.2691" x2="265.4938" y2="222.2691" gradientTransform="matrix(1 0 0 -1 0 400)">
			<stop  offset="0" style="stop-color:#47CFA4"/>
			<stop  offset="1" style="stop-color:#5CC4D6"/>
		</linearGradient>
		<path class="st58" d="M265.1,181.5c-0.8-0.1-1.5-0.7-1.9-1.3c-0.5-0.7-0.7-1.5-0.7-2.3c0-0.8,0.2-1.6,0.5-2.3
			c0.2-0.3,0.4-0.7,0.6-1c0.3-0.3,0.5-0.6,0.8-0.8c0,0.4,0,0.8-0.1,1.1c0,0.4-0.1,0.7-0.1,1c0,0.7-0.1,1.3-0.1,1.9
			C264.2,179.1,264.4,180.2,265.1,181.5z"/>
	</g>
	<g>
		
			<linearGradient id="SVGID_56_" gradientUnits="userSpaceOnUse" x1="268.3956" y1="221.0914" x2="271.6073" y2="221.0914" gradientTransform="matrix(1 0 0 -1 0 400)">
			<stop  offset="0" style="stop-color:#47CFA4"/>
			<stop  offset="1" style="stop-color:#5CC4D6"/>
		</linearGradient>
		<path class="st59" d="M270,182c-0.6-0.4-1-0.9-1.2-1.6c-0.3-0.6-0.4-1.3-0.3-2c0.1-0.7,0.4-1.5,0.9-2c0.5-0.5,1.2-0.8,1.9-0.7
			c-0.4,0.6-0.7,1.1-0.9,1.5c-0.2,0.5-0.3,0.9-0.3,1.4c-0.1,0.5-0.1,1-0.1,1.6C270,180.7,270,181.3,270,182z"/>
	</g>
	<g>
		
			<linearGradient id="SVGID_57_" gradientUnits="userSpaceOnUse" x1="336.0384" y1="40.1412" x2="363.8832" y2="40.1412" gradientTransform="matrix(1 0 0 -1 0 400)">
			<stop  offset="0" style="stop-color:#47CFA4"/>
			<stop  offset="1" style="stop-color:#5CC4D6"/>
		</linearGradient>
		<path class="st60" d="M337.4,324.2c1.6,2.8,3,5.6,4.5,8.5l3.2,8.9l6.3,17.8l6.3,17.8l3.2,8.9c0.7,3.1,1.4,6.2,1.9,9.4
			c-1.6-2.8-3-5.6-4.5-8.5l-3.2-8.9l-6.3-17.8l-6.3-17.8l-3.2-8.9C338.6,330.5,337.9,327.4,337.4,324.2z"/>
	</g>
	<g>
		
			<linearGradient id="SVGID_58_" gradientUnits="userSpaceOnUse" x1="234.8317" y1="49.6879" x2="241.4231" y2="49.6879" gradientTransform="matrix(1 0 0 -1 0 400)">
			<stop  offset="0" style="stop-color:#47CFA4"/>
			<stop  offset="1" style="stop-color:#5CC4D6"/>
		</linearGradient>
		<path class="st61" d="M240.2,305.1l-0.5,22.7l-0.6,22.7c-0.2,7.5-0.2,15.1-0.7,22.7c-0.5,7.5-1.1,15-2.2,22.6
			c0,0.1-0.1,0.1-0.2,0.1c-0.1,0-0.1-0.1-0.1-0.1c-0.4-7.6-0.4-15.1-0.2-22.7c0.1-7.5,0.8-15,1.3-22.7l1.4-22.7l1.5-22.7
			c0-0.1,0.1-0.1,0.1-0.1C240.1,304.9,240.2,305,240.2,305.1z"/>
	</g>
	<g>
		
			<linearGradient id="SVGID_59_" gradientUnits="userSpaceOnUse" x1="319.2855" y1="89.4077" x2="386.8091" y2="89.4077" gradientTransform="matrix(1 0 0 -1 0 400)">
			<stop  offset="0" style="stop-color:#47CFA4"/>
			<stop  offset="1" style="stop-color:#5CC4D6"/>
		</linearGradient>
		<path class="st62" d="M321.2,272.4c9.2,1.9,18.3,4.3,27.4,6.6c2.3,0.6,4.6,1.2,6.8,1.9c1.1,0.3,2.3,0.6,3.5,1
			c1.2,0.4,2.4,0.9,3.5,1.4c4.6,2.2,8.4,5.6,11.2,9.9c1.4,2.1,2.5,4.5,3.2,6.8c0.4,1.2,0.7,2.5,0.9,3.7c0.2,1.2,0.5,2.3,0.7,3.5
			c0.8,4.6,1.7,9.2,2.5,13.9c1.6,9.3,3,18.6,4,27.9c-2.7-9-4.9-18.2-7-27.3c-1.1-4.6-2.1-9.2-3.1-13.8c-0.3-1.2-0.5-2.3-0.7-3.5
			c-0.3-1.1-0.5-2.2-0.9-3.2c-0.7-2.1-1.7-4.1-2.9-5.8c-2.4-3.7-5.6-6.6-9.5-8.7c-1-0.5-2-1-3-1.4l-1.6-0.6l-1.7-0.5
			c-2.3-0.7-4.5-1.5-6.7-2.2C338.9,279.1,330.1,275.9,321.2,272.4z"/>
	</g>
	<g>
		
			<linearGradient id="SVGID_60_" gradientUnits="userSpaceOnUse" x1="229.6836" y1="140.8642" x2="286.4836" y2="140.8642" gradientTransform="matrix(1 0 0 -1 0 400)">
			<stop  offset="0" style="stop-color:#47CFA4"/>
			<stop  offset="1" style="stop-color:#5CC4D6"/>
		</linearGradient>
		<path class="st63" d="M231.7,264.8c1.5-1.9,3.2-3.6,5-5c2-1.4,4.1-2.7,6.2-3.7c4.5-2,9.5-2.9,14.3-2.7c2.5,0.1,4.9,0.5,7.3,1.1
			l1.8,0.5l1.7,0.6c1.1,0.4,2.2,0.8,3.3,1.2c4.4,1.6,8.8,3.3,13.1,5.4c-4.7-0.5-9.3-1.4-13.9-2.4c-1.2-0.3-2.3-0.5-3.5-0.8l-1.7-0.4
			l-1.6-0.4c-2.2-0.4-4.4-0.8-6.5-0.8c-4.5-0.2-8.8,0.4-13.2,1.6c-2.2,0.7-4.3,1.4-6.3,2.4C235.7,262.5,233.7,263.7,231.7,264.8z"/>
	</g>
	<g>
		
			<linearGradient id="SVGID_61_" gradientUnits="userSpaceOnUse" x1="181.3022" y1="64.7096" x2="237.5954" y2="96.4865" gradientTransform="matrix(1 0 0 -1 0 400)">
			<stop  offset="0" style="stop-color:#47CFA4"/>
			<stop  offset="1" style="stop-color:#5CC4D6"/>
		</linearGradient>
		<path class="st64" d="M197.7,360.2c1.2-7,2.7-13.9,4.4-20.9c1.7-6.9,3.5-13.8,5.4-20.5c2-6.8,4.1-13.6,6.3-20.3
			c2.3-6.7,4.6-13.4,7.4-20c-1.2,7-2.7,13.9-4.4,20.9c-1.7,6.9-3.5,13.8-5.4,20.5c-2,6.8-4.1,13.6-6.3,20.3
			C202.8,346.9,200.5,353.7,197.7,360.2z"/>
	</g>
	<g>
		
			<linearGradient id="SVGID_62_" gradientUnits="userSpaceOnUse" x1="202.156" y1="26.4406" x2="252.0877" y2="62.1312" gradientTransform="matrix(1 0 0 -1 0 400)">
			<stop  offset="0" style="stop-color:#47CFA4"/>
			<stop  offset="1" style="stop-color:#5CC4D6"/>
		</linearGradient>
		<path class="st65" d="M240.8,323.3c-1,2.8-2.1,5.5-3.2,8.2l-3.3,8.2c-2.2,5.4-4.5,10.9-6.7,16.3c-2.3,5.4-4.6,10.8-7,16.1l-3.6,8
			c-1.3,2.7-2.5,5.3-3.8,8c1-2.8,2.1-5.5,3.1-8.2l3.3-8.2c2.2-5.4,4.5-10.9,6.7-16.3c2.3-5.4,4.6-10.8,7-16.1l3.6-8
			C238.3,328.6,239.5,326,240.8,323.3z"/>
	</g>
	<g>
		
			<linearGradient id="SVGID_63_" gradientUnits="userSpaceOnUse" x1="343.6004" y1="30.0999" x2="345.1293" y2="30.0999" gradientTransform="matrix(1 0 0 -1 0 400)">
			<stop  offset="0" style="stop-color:#47CFA4"/>
			<stop  offset="1" style="stop-color:#5CC4D6"/>
		</linearGradient>
		<path class="st66" d="M344.5,344.3c0.5,8.5,0.6,17.1,0.6,25.6s-0.2,17.1-0.8,25.6c-0.5-8.5-0.6-17.1-0.6-25.6
			S343.9,352.9,344.5,344.3z"/>
	</g>
	<g>
		
			<linearGradient id="SVGID_64_" gradientUnits="userSpaceOnUse" x1="283.523" y1="138.8729" x2="319.8978" y2="119.1996" gradientTransform="matrix(1 0 0 -1 0 400)">
			<stop  offset="0" style="stop-color:#47CFA4"/>
			<stop  offset="1" style="stop-color:#5CC4D6"/>
		</linearGradient>
		<path class="st67" d="M322.6,272.9c-1.3,1.5-3.1,2.6-4.8,3.5s-3.8,1.6-5.7,2c-2,0.5-4.1,0.6-6,0.7c-2.1,0-4.1-0.3-6.1-0.7
			c-2-0.5-4-1.2-5.8-2.1c-1.9-0.9-3.6-2.1-5.1-3.5c-1.6-1.4-2.9-3-3.9-4.7c-0.5-0.9-0.9-1.9-1-2.9c-0.2-1-0.2-2.2,0.4-3
			c-0.3,1,0,1.9,0.3,2.8c0.1,0.4,0.4,0.9,0.6,1.3c0.3,0.4,0.5,0.8,0.8,1.2c1.1,1.5,2.6,2.8,4.1,3.9c3.1,2.2,6.5,3.7,10.2,4.5
			c3.7,0.9,7.4,1,11.2,0.6c1.9-0.2,3.8-0.6,5.6-1.1C319.2,274.5,321,273.8,322.6,272.9z"/>
	</g>
	
		<linearGradient id="SVGID_65_" gradientUnits="userSpaceOnUse" x1="342.365" y1="443.5313" x2="358.4032" y2="443.5313" gradientTransform="matrix(0.7796 0.645 0.8018 -1.2254 -330.6693 531.2679)">
		<stop  offset="0" style="stop-color:#47CFA4"/>
		<stop  offset="1" style="stop-color:#5CC4D6"/>
	</linearGradient>
	<path class="st68" d="M305.3,217.5c-0.7,1.3-4.5,0.7-8.4-1.4c-4-2.1-6.6-4.8-5.9-6.1c0.7-1.3,4.5-0.7,8.4,1.4
		C303.3,213.5,306,216.3,305.3,217.5z"/>
	
		<linearGradient id="SVGID_66_" gradientUnits="userSpaceOnUse" x1="304.5573" y1="433.5543" x2="313.4881" y2="433.5543" gradientTransform="matrix(0.7796 0.645 0.8018 -1.2254 -330.6693 531.2679)">
		<stop  offset="0" style="stop-color:#47CFA4"/>
		<stop  offset="1" style="stop-color:#5CC4D6"/>
	</linearGradient>
	<path class="st69" d="M256,194c3.3,2.2,6.7,5.8,6.1,7c-0.6,1.1-4.9,0.1-8.5-1.4"/>
	<g>
		
			<linearGradient id="SVGID_67_" gradientUnits="userSpaceOnUse" x1="260.9996" y1="216.2234" x2="277.2724" y2="216.2234" gradientTransform="matrix(1 0 0 -1 0 400)">
			<stop  offset="0" style="stop-color:#47CFA4"/>
			<stop  offset="1" style="stop-color:#5CC4D6"/>
		</linearGradient>
		<path class="st70" d="M275.5,187.9c-0.7-0.4-1.3-0.8-1.9-1.2c-0.6-0.4-1.1-0.8-1.6-1.1c-1.1-0.7-2-1.3-2.9-1.7
			c-0.9-0.4-1.9-0.7-3-0.9c-1.1-0.2-2.4-0.3-4-0.2c0.7-1.5,2.1-2.5,3.7-2.9c1.6-0.5,3.5-0.3,4.9,0.4c1.6,0.7,2.7,2,3.6,3.3
			c0.4,0.7,0.7,1.4,0.9,2.1C275.4,186.4,275.5,187.1,275.5,187.9z"/>
	</g>
	<g>
		
			<linearGradient id="SVGID_68_" gradientUnits="userSpaceOnUse" x1="290.1778" y1="202.0667" x2="308.0759" y2="202.0667" gradientTransform="matrix(1 0 0 -1 0 400)">
			<stop  offset="0" style="stop-color:#47CFA4"/>
			<stop  offset="1" style="stop-color:#5CC4D6"/>
		</linearGradient>
		<path class="st71" d="M290.6,192c1.8-1.1,4-1.4,6-1.2c2.1,0.3,4.3,1.2,5.9,2.7c1.7,1.5,2.9,3.5,3.4,5.4c0.2,0.5,0.3,1,0.3,1.5
			c0.1,0.5,0.1,1,0.2,1.6c0,1-0.1,2.1-0.3,3.1c-0.6-0.9-1.1-1.7-1.6-2.6c-0.3-0.4-0.5-0.8-0.8-1.2c-0.2-0.4-0.4-0.8-0.7-1.1
			c-0.3-0.4-0.5-0.7-0.7-1.1c-0.2-0.4-0.5-0.6-0.8-1c-0.1-0.2-0.3-0.3-0.4-0.5c-0.1-0.2-0.3-0.3-0.4-0.4c-0.3-0.3-0.5-0.6-0.9-0.8
			c-1.2-1.1-2.6-1.9-4.1-2.7C294.2,193.1,292.6,192.5,290.6,192z"/>
	</g>
	
		<linearGradient id="SVGID_69_" gradientUnits="userSpaceOnUse" x1="166.1169" y1="202.3844" x2="167.722" y2="202.3844" gradientTransform="matrix(1 0 0 -1 0 400)">
		<stop  offset="0" style="stop-color:#47CFA4"/>
		<stop  offset="1" style="stop-color:#5CC4D6"/>
	</linearGradient>
	<path class="st72" d="M166.8,195.7c0,0,0.6,2.5,0.1,3.9"/>
	<line class="st73" x1="160.7" y1="308.7" x2="167.3" y2="341.6"/>
	
		<linearGradient id="SVGID_70_" gradientUnits="userSpaceOnUse" x1="115.5586" y1="112.8963" x2="116.9151" y2="107.3854" gradientTransform="matrix(1 0 0 -1 0 400)">
		<stop  offset="0" style="stop-color:#47CFA4"/>
		<stop  offset="1" style="stop-color:#5CC4D6"/>
	</linearGradient>
	<path class="st74" d="M116.9,292.7c-5.4,1.2-10.2,0.5-10.7-1.6c2.6-3.4,3.8-4,3.8-4c1.7,1.8,5.9,1.2,5.9,1.2l0,0
		c0,0,4.1-1.3,4.8-3.6c0,0,1.4,0,5.1,2C126.3,288.9,122.3,291.5,116.9,292.7"/>
	
		<linearGradient id="SVGID_71_" gradientUnits="userSpaceOnUse" x1="121.1825" y1="91.9254" x2="119.0205" y2="98.6656" gradientTransform="matrix(1 0 0 -1 0 400)">
		<stop  offset="0" style="stop-color:#47CFA4"/>
		<stop  offset="1" style="stop-color:#5CC4D6"/>
	</linearGradient>
	<path class="st75" d="M107.9,300.8c0.1,1.7,0.8,3.2,1.8,4.3c2.3,2.8,6.1,3.9,9.6,3.1l1.1-0.2l0,0l1.1-0.2c3.6-0.8,6.5-3.4,7.4-6.8
		c0.4-1.5,0.4-3.1-0.2-4.6c-1.3,2.1-5,4.3-9.6,5.2l0,0C114.2,302.5,109.9,302.2,107.9,300.8"/>
	
		<linearGradient id="SVGID_72_" gradientUnits="userSpaceOnUse" x1="195.7034" y1="221.4777" x2="196.7982" y2="221.4777" gradientTransform="matrix(1 0 0 -1 0 400)">
		<stop  offset="0" style="stop-color:#47CFA4"/>
		<stop  offset="1" style="stop-color:#5CC4D6"/>
	</linearGradient>
	<line class="st76" x1="195.9" y1="176.2" x2="196.6" y2="180.8"/>
	
		<linearGradient id="SVGID_73_" gradientUnits="userSpaceOnUse" x1="195.8703" y1="216.0421" x2="212.8696" y2="216.0421" gradientTransform="matrix(1 0 0 -1 0 400)">
		<stop  offset="0" style="stop-color:#47CFA4"/>
		<stop  offset="1" style="stop-color:#5CC4D6"/>
	</linearGradient>
	<path class="st77" d="M212.1,184.8c-6,7.7-16.2,0.8-16.2-4.3c2.3,1.2,10.2,3.3,14.5-0.9C210.4,179.7,214.5,181.8,212.1,184.8z"/>
	
		<linearGradient id="SVGID_74_" gradientUnits="userSpaceOnUse" x1="192.7007" y1="228.1977" x2="212.521" y2="228.1977" gradientTransform="matrix(1 0 0 -1 0 400)">
		<stop  offset="0" style="stop-color:#47CFA4"/>
		<stop  offset="1" style="stop-color:#5CC4D6"/>
	</linearGradient>
	<path class="st78" d="M192.7,175.2c5.9,2.7,18.9,2,19.7-2c0.9-4.6-4.6-6.4-4.6-6.4l-3.7,3.7l-4.6-1.9L192.7,175.2L192.7,175.2z"/>
	<g>
		
			<linearGradient id="SVGID_75_" gradientUnits="userSpaceOnUse" x1="266.0468" y1="176.403" x2="295.8266" y2="176.403" gradientTransform="matrix(1 0 0 -1 0 400)">
			<stop  offset="0" style="stop-color:#47CFA4"/>
			<stop  offset="1" style="stop-color:#5CC4D6"/>
		</linearGradient>
		<path class="st79" d="M293,219.5c-2.2,1.3-4.6,2.1-7,2.6c-2.5,0.5-4.9,0.8-7.4,0.9c-1.3,0.1-2.5,0.1-3.8,0.1h-0.9h-0.4
			c-0.1,0-0.2,0-0.3,0c-0.1,0-0.3,0-0.4-0.1c-1-0.3-1.5-0.8-2.1-1.3c-1-1-1.7-2.1-2.4-3.2c-0.7-1.1-1.3-2.2-1.9-3.4l2.4-0.4
			c-0.2,4.1-0.1,8.2,0.7,12.1c0.2,1,0.5,1.9,0.8,2.8c0.3,0.9,0.8,1.6,1.4,2.4c0.3,0.4,0.6,0.7,0.9,1.1c0.3,0.3,0.7,0.6,1,0.9
			c0.7,0.5,1.5,0.9,2.3,1c0.8,0.1,1.7,0,2.6-0.2c0.9-0.3,1.7-0.7,2.6-1.2c1.6-1.1,3.2-2.5,4.6-4C288.3,226.6,290.7,223.1,293,219.5z
			 M293,219.5c-1.6,3.9-3.6,7.6-6.1,11c-1.3,1.7-2.8,3.3-4.6,4.6c-0.9,0.7-1.9,1.3-3,1.7s-2.4,0.6-3.6,0.5c-1.3-0.2-2.4-0.7-3.5-1.4
			c-1-0.7-1.8-1.5-2.5-2.4c-0.3-0.5-0.7-0.9-1-1.4l-0.4-0.8c-0.1-0.3-0.2-0.5-0.4-0.8c-0.5-1.1-0.8-2.2-1-3.2
			c-0.5-2.2-0.7-4.4-0.8-6.4c-0.1-2.2,0-4.3,0.2-6.4l0.5-4.7l2,4.4c1,2.2,2.1,4.4,3.5,6c0.3,0.4,0.8,0.7,1,0.8c0,0,0,0,0.1,0
			c0,0,0,0,0.1,0h0.5l0.9,0.1c1.2,0.1,2.5,0.1,3.7,0.2c2.5,0.1,4.8,0.1,7.3-0.1C288.2,220.9,290.6,220.4,293,219.5z"/>
	</g>
	<g>
		
			<linearGradient id="SVGID_76_" gradientUnits="userSpaceOnUse" x1="208.4328" y1="264.759" x2="233.86" y2="264.759" gradientTransform="matrix(1 0 0 -1 0 400)">
			<stop  offset="0" style="stop-color:#47CFA4"/>
			<stop  offset="1" style="stop-color:#5CC4D6"/>
		</linearGradient>
		<path class="st80" d="M210.1,140.7c0.5-2.3,1.9-4.4,3.6-6c1.7-1.7,3.8-3.1,6.1-3.9c0.6-0.2,1.2-0.3,1.8-0.5l0.9-0.2
			c0.3-0.1,0.6-0.1,0.9-0.1c0.6-0.1,1.2-0.1,1.8-0.2c0.6,0,1.2,0,1.8,0.1l0.9,0.1l0.9,0.2c0.6,0.1,1.2,0.2,1.7,0.4
			c1.1,0.4,2.2,0.8,3.3,1.4c-1.2,0.3-2.3,0.3-3.4,0.4c-0.6,0.1-1.1,0.2-1.6,0.2l-0.8,0.1l-0.8,0.2c-0.5,0.1-1,0.2-1.6,0.3l-1.5,0.4
			l-0.8,0.2l-0.7,0.2c-0.5,0.2-1,0.3-1.5,0.5c-1.9,0.7-3.8,1.6-5.5,2.7C213.6,137.9,211.8,139.2,210.1,140.7z"/>
	</g>
	<g>
		
			<linearGradient id="SVGID_77_" gradientUnits="userSpaceOnUse" x1="158.3549" y1="252.5053" x2="183.3127" y2="251.1791" gradientTransform="matrix(1 0 0 -1 0 400)">
			<stop  offset="0" style="stop-color:#47CFA4"/>
			<stop  offset="1" style="stop-color:#5CC4D6"/>
		</linearGradient>
		<path class="st81" d="M183,144.6c-2.4,0.1-4.5,0.3-6.5,0.7s-4.1,0.9-5.9,1.7c-0.5,0.2-0.9,0.4-1.4,0.6l-0.7,0.3l-0.7,0.4l-1.4,0.7
			c-0.4,0.3-0.9,0.6-1.4,0.8l-0.7,0.4l-0.7,0.5c-0.4,0.3-0.9,0.6-1.4,0.9c-0.9,0.6-1.8,1.3-2.8,2c0.4-1.1,0.9-2.2,1.5-3.2
			c0.3-0.5,0.7-1,1-1.4l0.6-0.7l0.6-0.6c0.4-0.4,0.9-0.8,1.3-1.3c0.5-0.4,1-0.7,1.5-1.1c0.2-0.2,0.5-0.4,0.8-0.5l0.8-0.4
			c0.6-0.3,1.1-0.6,1.7-0.8c2.3-0.9,4.7-1.3,7.1-1.2C178.7,142.6,181.1,143.3,183,144.6z"/>
	</g>
	<g>
		
			<linearGradient id="SVGID_78_" gradientUnits="userSpaceOnUse" x1="-2.1367" y1="135.2044" x2="236.5863" y2="153.1517" gradientTransform="matrix(1 0 0 -1 0 400)">
			<stop  offset="0" style="stop-color:#47CFA4"/>
			<stop  offset="1" style="stop-color:#5CC4D6"/>
		</linearGradient>
		<path class="st82" d="M104.8,323.6c-8.1,2.1-16.4,4-24.7,5.1c-8.3,1.3-16.8,2-25.2,2.4c-8.5,0.3-17,0.2-25.4-0.6
			c-4.3-0.4-8.5-1-12.7-1.7c-2.1-0.4-4.3-0.8-6.3-1.2c-2.1-0.5-4.2-1-6.4-1.6c-1.2-0.4-2-1.4-2.1-2.6v-0.1
			c-0.3-3.8-0.3-7.2-0.2-10.9c0.1-3.6,0.3-7.1,0.6-10.7c0.7-7.1,1.8-14.2,3.5-21.3c3.2-14,8.6-27.6,16-40.1
			c3.8-6.2,7.9-12.2,12.7-17.7c2.4-2.8,4.9-5.4,7.7-7.9s5.6-4.8,8.6-6.9c6-4.3,12.7-7.7,19.7-10.3c3.5-1.3,7.1-2.3,10.8-3
			c1.9-0.4,3.7-0.7,5.5-0.9c1-0.1,1.9-0.2,2.9-0.3l1.5-0.1h0.8h0.9l-3.3,1.2l0.5-0.4l0.4-0.3l0.7-0.5c0.5-0.3,0.9-0.6,1.4-0.9
			c0.9-0.6,1.8-1.1,2.8-1.6c1.9-1,3.8-1.8,5.6-2.5c3.9-1.4,7.8-2.4,11.8-2.9c4-0.6,8-0.8,11.9-0.7c1,0,2,0,3,0l3,0.2
			c2,0.1,3.9,0.3,5.8,0.5c7.7,0.9,15.4,2.9,22.8,5.5c7.3,2.7,14.2,6.3,20.8,10.5c6.5,4.2,12.6,9,18.2,14.1
			c5.6,5.1,10.9,10.8,15.6,16.7c9.6,11.8,17.8,24.6,25,37.8l0.1,0.1c0.8,1.5,0.3,3.3-1.2,4.2c-7.8,4.6-15.6,8.7-23.5,12.8
			c-7.9,4.1-16,7.7-24.1,11.3c-8.1,3.6-16.4,6.8-24.7,9.8c-8.3,3.1-16.8,5.6-25.4,7.8l0,0c-0.1,0-0.3-0.1-0.3-0.2
			c0-0.1,0-0.3,0.2-0.3c8.5-2.5,16.8-5.4,25-8.7c8.2-3.3,16.3-6.8,24.3-10.5c8-3.8,15.9-7.7,23.7-11.9c7.8-4.2,15.5-8.5,23.1-13.1
			l-0.1,0.5c-7.4-12.9-15.7-25.3-25.3-36.7c-4.7-5.6-9.9-11.1-15.4-16c-5.5-4.9-11.4-9.6-17.7-13.5c-12.6-7.9-26.8-13.3-41.6-14.9
			c-1.9-0.2-3.7-0.4-5.5-0.5l-2.8-0.2c-0.9,0-1.9,0-2.8,0c-3.8-0.1-7.4,0.2-11.1,0.7c-3.7,0.6-7.2,1.4-10.7,2.7
			c-1.8,0.6-3.5,1.4-5,2.2c-1.6,0.9-3.3,1.8-4.6,2.9c-0.1,0.1-0.2,0.1-0.4,0.1c-3.5,0-6.9,0.4-10.3,1.1c-3.4,0.7-6.7,1.6-10.1,2.8
			c-6.5,2.3-12.8,5.5-18.5,9.5c-2.9,2-5.5,4.2-8.2,6.5c-2.6,2.4-5,4.8-7.3,7.4c-4.6,5.2-8.7,10.9-12.4,16.9
			c-7.3,11.9-12.6,25-16,38.6c-1.7,6.7-3,13.7-3.8,20.6S5.1,316.1,5.5,323l-0.2-0.3c4,1.3,8.1,2.2,12.2,3c4.2,0.8,8.3,1.4,12.5,1.9
			c8.3,1,16.7,1.3,25.1,1.3c8.4-0.1,16.8-0.6,25.1-1.6s16.6-2.4,24.8-4.2c0.1,0,0.3,0.1,0.3,0.2C105,323.4,104.9,323.5,104.8,323.6
			L104.8,323.6z"/>
	</g>
	<g>
		
			<linearGradient id="SVGID_79_" gradientUnits="userSpaceOnUse" x1="137.9054" y1="40.356" x2="216.6582" y2="46.2765" gradientTransform="matrix(1 0 0 -1 0 400)">
			<stop  offset="0" style="stop-color:#47CFA4"/>
			<stop  offset="1" style="stop-color:#5CC4D6"/>
		</linearGradient>
		<path class="st83" d="M136.3,317.7c0.6,3.9,1.4,7.8,2.4,11.6c0.5,1.9,1.1,3.8,1.8,5.5c0.7,1.8,1.5,3.6,2.6,5l-0.8-0.4
			c3.5,0.1,7,0.2,10.5,0.3c3.5,0.1,7,0.2,10.5,0.4c3.5,0.1,7,0.3,10.5,0.4l10.5,0.5c0.5,0,1,0.3,1.2,0.7l8.4,13.4
			c2.8,4.5,5.5,8.9,8.3,13.5c2.8,4.5,5.4,9,8.1,13.6c2.7,4.6,5.3,9.1,7.9,13.7c-3.2-4.3-6.1-8.6-9.1-12.9c-3-4.4-5.9-8.7-8.9-13.1
			c-3-4.4-5.8-8.8-8.7-13.2l-8.6-13.3l1.2,0.7l-10.5-0.6c-3.5-0.2-7-0.4-10.5-0.6s-7-0.4-10.5-0.7c-3.5-0.3-7-0.5-10.5-0.8h-0.1
			c-0.3,0-0.6-0.2-0.7-0.4c-1.1-1.8-1.9-3.7-2.5-5.6c-0.6-1.9-1.1-3.9-1.4-5.8C136.7,325.6,136.4,321.6,136.3,317.7z"/>
	</g>
	
		<linearGradient id="SVGID_80_" gradientUnits="userSpaceOnUse" x1="214.8" y1="38.5089" x2="240.4562" y2="38.5089" gradientTransform="matrix(1 0 0 -1 0 400)">
		<stop  offset="0" style="stop-color:#47CFA4"/>
		<stop  offset="1" style="stop-color:#5CC4D6"/>
	</linearGradient>
	<polyline class="st84" points="214.8,388.1 219.5,395.6 219.5,395.5 237.5,395.5 237.5,395.6 240.4,327.4 214.8,388.2 	"/>
</g>
</svg>
