<?xml version="1.0" encoding="utf-8"?>
<!-- Generator: Adobe Illustrator 22.0.1, SVG Export Plug-In . SVG Version: 6.00 Build 0)  -->
<svg version="1.1" id="Layer_1" xmlns="http://www.w3.org/2000/svg" xmlns:xlink="http://www.w3.org/1999/xlink" x="0px" y="0px"
	 viewBox="0 0 400 400" style="enable-background:new 0 0 400 400;" xml:space="preserve">
<style type="text/css">
	.st0{fill:none;}
	.st1{fill:#903E55;}
	.st2{fill:none;stroke:#903E55;stroke-width:2.6217;stroke-linecap:round;stroke-linejoin:round;}
	.st3{opacity:0.1;fill:url(#SVGID_1_);}
	.st4{fill:none;stroke:#903E55;stroke-width:1.1385;stroke-linecap:round;stroke-linejoin:round;}
	.st5{opacity:0.1;fill:url(#SVGID_2_);}
	.st6{opacity:0.25;}
	.st7{opacity:0.51;}
	.st8{opacity:0.49;fill:url(#SVGID_3_);}
</style>
<rect x="-0.5" y="0.5" class="st0" width="400" height="400"/>
<g>
	<path class="st1" d="M218.8,262.5c0.4,4.4,0.9,8.7,1.7,13c0.8,4.3,1.8,8.5,3.3,12.4c0.8,2,1.6,3.9,2.7,5.7c1.1,1.7,2.3,3.4,3.8,4.5
		c0.7,0.6,1.5,1.1,2.3,1.4c0.2,0.1,0.4,0.2,0.6,0.3l0.7,0.2c0.5,0.2,0.9,0.3,1.5,0.4c2,0.5,4.1,0.8,6.2,1.2c8.5,1.2,17.3,2.2,26,3.5
		c8.7,1.4,17.4,3.2,25.9,5.8c4.3,1.3,8.5,3,12.6,5c4.1,2,8.1,4.4,11.6,7.4c3.5,3,6.7,6.8,8.7,11.1c0.4,1.1,1,2.2,1.3,3.3
		c0.3,1.2,0.7,2.3,0.9,3.5c0.2,1.2,0.4,2.4,0.5,3.6l0.1,3.3c0.6,17.5,1,35,0.7,52.5c-2.3-17.4-3.9-34.7-5.4-52.1l-0.3-3.3
		c-0.2-1-0.4-1.9-0.6-2.9c-0.2-1-0.6-1.9-0.9-2.8c-0.3-0.9-0.8-1.8-1.2-2.7c-1.8-3.5-4.5-6.6-7.6-9.1c-3.2-2.6-6.7-4.7-10.5-6.5
		c-3.8-1.8-7.7-3.3-11.8-4.6c-4.1-1.3-8.2-2.4-12.4-3.4c-4.2-1-8.4-1.8-12.7-2.6c-4.3-0.8-8.5-1.5-12.9-2.2c-4.3-0.7-8.6-1.4-13-2.3
		c-2.2-0.5-4.4-0.9-6.6-1.6c-0.5-0.1-1.1-0.3-1.7-0.5l-0.8-0.3c-0.3-0.1-0.6-0.3-0.9-0.4c-1.2-0.5-2.2-1.3-3.1-2.2
		c-1.9-1.7-3.2-3.7-4.2-5.8c-1-2.1-1.8-4.2-2.4-6.4c-1.2-4.3-1.8-8.7-2.2-13.1C218.5,271.2,218.5,266.8,218.8,262.5z"/>
</g>
<g>
	<path class="st1" d="M205.7,300.3c0.5,2.4,0.9,4.8,1.3,7.1l1.2,7.1c0.8,4.8,1.5,9.5,2.2,14.3c0.7,4.8,1.4,9.6,2,14.4l0.9,7.2
		c0.3,2.4,0.6,4.8,0.8,7.2c-0.5-2.4-0.9-4.8-1.3-7.1l-1.2-7.1c-0.8-4.8-1.5-9.5-2.2-14.3c-0.7-4.8-1.4-9.6-2-14.4l-0.9-7.2
		C206.3,305.1,206,302.7,205.7,300.3z"/>
</g>
<g>
	<path class="st1" d="M236.5,400.5l3.7-10.7l3.8-10.6l0,0.3c-2.1-3.9-4.2-7.7-6.2-11.6c-0.1-0.2,0-0.5,0.2-0.7c0.1,0,0.1,0,0.2-0.1
		l11.5-1.7l11.5-1.7l-0.5,0.5c0.5-9.5,1-19,1.5-28.5c0.6-9.5,1.1-19,1.8-28.5c-0.2,9.5-0.6,19-1,28.5c-0.4,9.5-0.9,19-1.3,28.5
		c0,0.3-0.2,0.5-0.5,0.5l-11.5,1.7l-11.5,1.7l0.4-0.7c2,3.9,4.1,7.8,6.1,11.7l0,0c0.1,0.1,0.1,0.2,0,0.3l-4,10.5L236.5,400.5z"/>
</g>
<g>
	<path class="st1" d="M257.2,306.2c0.2,4.5,0.3,9,0.4,13.4c0,4.5,0,8.9-0.1,13.4c0,4.5-0.2,8.9-0.3,13.4c-0.1,4.5-0.3,8.9-0.6,13.4
		c-0.1,1.1-0.9,1.9-1.9,2.1l-5.8,0.8l-5.8,0.8c-3.8,0.5-7.7,1-11.6,1.5l1.4-2.8c1,2,1.9,4,2.9,5.9c0.9,2,1.9,4,2.8,6l0.1,0.1
		c0.2,0.3,0.1,0.7,0,1c-1.7,4.2-3.5,8.5-5.3,12.7c-1.8,4.2-3.6,8.4-5.5,12.6c1.3-4.4,2.6-8.8,3.9-13.1c1.4-4.4,2.8-8.7,4.2-13.1
		l0.1,1.2c-1.1-1.9-2.2-3.8-3.3-5.7c-1.1-1.9-2.2-3.8-3.3-5.7c-0.5-0.9-0.2-2.1,0.8-2.6c0.2-0.1,0.4-0.2,0.6-0.2l0.1,0
		c3.8-0.6,7.7-1.3,11.5-1.9l5.8-0.9l5.8-0.9l-1.9,2.1c0.2-4.5,0.5-8.9,0.8-13.4c0.3-4.5,0.6-8.9,1.1-13.4c0.4-4.4,0.9-8.9,1.3-13.3
		C256,315.1,256.5,310.6,257.2,306.2z"/>
</g>
<g>
	<path class="st1" d="M169.4,262.5c0.3,4.4,0.2,8.8-0.1,13.2c-0.3,4.4-1,8.8-2.2,13.1c-0.6,2.2-1.4,4.3-2.4,6.4
		c-1.1,2.1-2.4,4.1-4.2,5.8c-0.9,0.8-2,1.6-3.1,2.2c-0.3,0.1-0.6,0.3-0.9,0.4l-0.8,0.3c-0.6,0.2-1.1,0.4-1.7,0.5
		c-2.2,0.7-4.4,1.1-6.6,1.6c-4.3,0.9-8.7,1.6-13,2.3c-4.3,0.7-8.6,1.4-12.9,2.2c-4.3,0.8-8.5,1.6-12.7,2.6c-4.2,1-8.3,2.1-12.4,3.4
		c-4.1,1.3-8,2.8-11.8,4.6c-3.8,1.8-7.4,3.9-10.5,6.5c-3.2,2.5-5.8,5.6-7.6,9.1c-0.4,0.9-0.9,1.8-1.2,2.7c-0.3,0.9-0.6,1.9-0.9,2.8
		c-0.2,1-0.4,1.9-0.6,2.9l-0.3,3.3c-1.5,17.4-3.3,34.8-5.6,52.1c-0.2-17.5,0.3-35,1-52.5l0.1-3.3c0.1-1.2,0.3-2.4,0.5-3.6
		c0.2-1.2,0.6-2.3,0.9-3.5c0.3-1.1,0.9-2.2,1.3-3.3c2-4.4,5.2-8.1,8.7-11.1c3.6-3.1,7.5-5.4,11.6-7.4c4.1-2,8.3-3.6,12.6-5
		c8.6-2.6,17.3-4.4,25.9-5.8c8.7-1.3,17.4-2.4,26-3.5c2.1-0.3,4.2-0.7,6.2-1.2c0.5-0.1,1-0.2,1.5-0.4l0.7-0.2
		c0.2-0.1,0.4-0.2,0.6-0.3c0.8-0.3,1.6-0.8,2.3-1.4c1.5-1.1,2.7-2.8,3.8-4.5c1.1-1.8,1.9-3.7,2.7-5.7c1.5-4,2.5-8.2,3.3-12.4
		C168.4,271.2,169,266.8,169.4,262.5z"/>
</g>
<g>
	<path class="st1" d="M182.4,300.3c-0.2,2.4-0.5,4.8-0.8,7.2l-0.9,7.2c-0.6,4.8-1.3,9.6-2,14.4c-0.7,4.8-1.4,9.5-2.2,14.3l-1.2,7.1
		c-0.4,2.4-0.8,4.8-1.3,7.1c0.2-2.4,0.5-4.8,0.8-7.2l0.9-7.2c0.6-4.8,1.3-9.6,2-14.4c0.7-4.8,1.4-9.5,2.2-14.3l1.2-7.1
		C181.5,305.1,181.9,302.7,182.4,300.3z"/>
</g>
<g>
	<path class="st1" d="M194.3,400.5c3.5-8.3,7.3-16.5,11.1-24.7c1.9-4.1,3.9-8.1,5.9-12.2l6-12.1l6.2-12c2.1-4,4.2-8,6.3-12
		c4.3-7.9,8.6-15.8,13.2-23.6c-3.5,8.3-7.3,16.5-11.1,24.7c-1.9,4.1-3.9,8.1-5.9,12.2l-6,12.1l-6.2,12c-2.1,4-4.2,8-6.3,12
		C203.3,384.9,198.9,392.8,194.3,400.5z"/>
</g>
<g>
	<path class="st1" d="M145.2,304c4.6,7.8,9,15.7,13.2,23.6c2.2,4,4.2,8,6.3,12l6.2,12l6,12.1c2,4.1,4,8.1,5.9,12.2
		c3.9,8.1,7.6,16.3,11.1,24.7c-4.6-7.8-9-15.7-13.2-23.6c-2.2-4-4.2-8-6.3-12l-6.2-12l-6-12.1c-2-4.1-4-8.1-5.9-12.2
		C152.4,320.5,148.7,312.3,145.2,304z"/>
</g>
<g>
	<path class="st1" d="M160.1,400.5c-1.9-4.2-3.7-8.4-5.5-12.6c-1.8-4.2-3.5-8.4-5.3-12.7c-0.1-0.3-0.1-0.7,0-1l0.1-0.1
		c0.9-2,1.9-4,2.8-6c1-2,1.9-4,2.9-5.9l1.4,2.8c-3.9-0.5-7.7-0.9-11.6-1.5c-3.8-0.5-7.7-1.1-11.5-1.6l0,0c-1.1-0.2-1.9-1.1-1.9-2.1
		c-0.2-4.5-0.4-8.9-0.6-13.4c-0.1-4.5-0.3-8.9-0.3-13.4c-0.1-4.5-0.1-8.9-0.1-13.4c0.1-4.5,0.1-8.9,0.4-13.4
		c0.7,4.4,1.2,8.9,1.8,13.3c0.5,4.4,1,8.9,1.3,13.3c0.4,4.4,0.7,8.9,1.1,13.3c0.3,4.5,0.6,8.9,0.8,13.4l-1.9-2.1
		c3.8,0.6,7.7,1.2,11.5,1.8c3.8,0.6,7.7,1.3,11.5,1.9l0.1,0c1,0.2,1.7,1.2,1.6,2.2c0,0.2-0.1,0.4-0.2,0.6c-1.1,1.9-2.2,3.8-3.3,5.7
		c-1.1,1.9-2.2,3.8-3.3,5.7l0.1-1.2c1.4,4.3,2.8,8.7,4.2,13.1C157.5,391.7,158.9,396.1,160.1,400.5z"/>
</g>
<g>
	<path class="st1" d="M124.1,307.3c0.7,9.5,1.3,19,1.8,28.5c0.6,9.5,1,19,1.5,28.5l-0.5-0.5l11.5,1.7l11.5,1.7
		c0.3,0,0.5,0.3,0.4,0.6c0,0.1,0,0.1-0.1,0.2c-2.1,3.9-4.1,7.8-6.2,11.6l0-0.3l3.8,10.6l3.7,10.7l-4.1-10.5l-4-10.5
		c0-0.1,0-0.2,0-0.3l0,0c2-3.9,4-7.8,6.1-11.7l0.4,0.7l-11.5-1.7l-11.5-1.7c-0.3,0-0.5-0.3-0.5-0.5c-0.4-9.5-0.9-19-1.3-28.5
		C124.7,326.3,124.4,316.8,124.1,307.3z"/>
</g>
<path class="st2" d="M161.2,297.4c6.2,1.8,12.2,2.7,21.3,3c3.5,0.1,7.4,0.2,12,0.2h-0.9c4.6,0,8.6,0,12.1-0.2c9-0.3,15-1.1,21.2-3"
	/>
<g>
	<path class="st1" d="M107,169.6c0.1,6.3,1.2,12.4,3.1,18.3c1,2.9,2.2,5.8,3.3,8.7l3.4,8.7l6.7,17.5l3.3,8.8c1.1,3,2.2,5.7,3.7,8.3
		c3,5.2,7.3,9.5,12.3,12.7c2.5,1.6,5.2,3,8,4c2.8,1,5.7,1.7,8.7,2.1l18.5,3l4.6,0.8l2.3,0.4c0.7,0.1,1.5,0.2,2.2,0.3
		c3,0.4,6,0.5,9,0.3c1.5-0.1,3-0.2,4.5-0.4c1.5-0.2,3-0.5,4.6-0.7l9.2-1.5l9.2-1.5l4.6-0.8c1.5-0.3,2.9-0.5,4.4-0.9
		c11.5-2.9,21.6-11.3,26.1-22.4l13.4-35l3.4-8.7c1.1-2.9,2.1-5.8,2.8-8.8c1.4-6,1.9-12.3,1.5-18.5c0.9,6.2,0.8,12.6-0.3,18.8
		c-0.5,3.1-1.3,6.2-2.4,9.2l-3,8.9c-4,11.8-8,23.6-12.2,35.5c-1.1,3.1-2.7,6-4.5,8.7c-1.9,2.7-4.1,5.1-6.6,7.3
		c-2.5,2.2-5.2,4-8.1,5.6c-2.9,1.5-6,2.8-9.1,3.6c-1.6,0.5-3.2,0.8-4.8,1.1l-4.6,0.8l-9.2,1.6l-9.2,1.6c-1.5,0.3-3.1,0.5-4.7,0.8
		c-1.6,0.2-3.2,0.4-4.9,0.4c-3.2,0.1-6.5,0-9.7-0.4c-0.8-0.1-1.6-0.2-2.4-0.4l-2.3-0.4l-4.6-0.8l-18.5-3.1
		c-12.8-1.9-25.1-9.7-31.3-21.3c-1.6-2.8-2.7-6-3.7-8.9l-3.1-8.9l-6-17.7l-3-8.9c-1-3-2.1-5.9-2.9-9
		C107.3,182.2,106.7,175.9,107,169.6z"/>
</g>
<linearGradient id="SVGID_1_" gradientUnits="userSpaceOnUse" x1="219.336" y1="190.4645" x2="254.0617" y2="190.4645">
	<stop  offset="0" style="stop-color:#7D324E"/>
	<stop  offset="1" style="stop-color:#903E55"/>
</linearGradient>
<ellipse class="st3" cx="236.7" cy="190.5" rx="17.4" ry="4.5"/>
<path class="st4" d="M193.7,221.9h-22c0,0-0.4,20.5,22,20.5h-0.1c22.4,0,22-20.5,22-20.5H193.7"/>
<g>
	<path class="st1" d="M168.8,83.7c-4.3,1.1-8.7,1.9-13.3,2.1c-2.3,0.1-4.6,0-6.9-0.3c-2.3-0.3-4.6-0.9-6.9-2
		c-2.2-1.1-4.3-2.8-5.7-4.9c-1.5-2.1-2.3-4.7-2.7-7.1c-0.4-2.5-0.3-5,0.1-7.4c0.2-1.2,0.4-2.4,0.7-3.5c0.3-1.2,0.6-2.3,1.2-3.5
		l3.1,4.1c-1.1,0.3-2.4,0.6-3.7,1c-1.2,0.4-2.5,0.8-3.7,1.3c-2.4,0.9-4.8,2-7.1,3.2c-4.6,2.4-8.7,5.4-12.1,9.1
		c-1.7,1.8-3.2,3.8-4.5,5.9c-1.3,2.1-2.3,4.4-3.1,6.7l-0.3,0.9l-0.3,1l-0.5,1.9c-0.4,1.3-0.7,2.6-1,3.8c-0.6,2.6-1,5.1-1.3,7.7
		c-0.3,2.6-0.4,5.1-0.2,7.6c0.2,2.5,0.6,4.9,1.5,7.1c1.7,4.5,5.2,7.9,9.9,9.9c2.3,1,4.8,1.7,7.4,2.2c2.6,0.5,5.3,0.7,8,0.9
		c5.4,0.2,10.9-0.1,16.4-0.6c-5.3,1.5-10.7,2.7-16.3,3.2c-5.6,0.4-11.4,0.4-17-1.5c-2.8-0.9-5.6-2.3-8-4.3c-2.4-2-4.3-4.6-5.6-7.4
		c-1.3-2.8-2.1-5.8-2.4-8.8c-0.4-3-0.4-5.9-0.2-8.8c0.2-2.9,0.6-5.8,1.1-8.6c0.3-1.4,0.6-2.8,0.9-4.2l0.5-2.1l0.3-1l0.3-1.1
		c1.7-5.8,4.9-11.2,9.1-15.5c4.1-4.4,9.1-7.7,14.4-10.2c2.6-1.2,5.3-2.3,8.1-3.1c1.4-0.4,2.8-0.8,4.2-1.1c1.4-0.3,2.8-0.6,4.4-0.8
		l0.2,0c1.6-0.2,3,0.9,3.2,2.5c0.1,0.6,0,1.2-0.3,1.7c-0.2,0.3-0.4,0.9-0.6,1.3c-0.2,0.5-0.4,0.9-0.5,1.4c-0.3,1-0.6,1.9-0.8,2.9
		c-0.4,2-0.7,4-0.6,5.9c0.1,1.9,0.6,3.8,1.5,5.4c0.9,1.6,2.3,3,3.9,4c1.7,1.1,3.6,1.8,5.6,2.4c2,0.5,4.2,0.9,6.3,1.1
		C159.9,84.2,164.4,84,168.8,83.7z"/>
</g>
<g>
	<path class="st1" d="M157.5,84.4c12.7-3.6,25.8-6.1,38.9-7.9c6.6-0.8,13.2-1.5,19.9-1.8c6.7-0.3,13.4-0.3,20.1,0.2
		c3.4,0.3,6.7,0.6,10.1,1.2c3.4,0.6,6.7,1.4,10,2.4c3.3,1,6.6,2.4,9.7,4.1c3.1,1.8,6.1,4,8.7,6.7c2.5,2.8,4.5,6.1,5.7,9.7
		c1.2,3.6,1.7,7.4,1.6,11c-0.1,3.6-0.7,7.2-1.6,10.6c-0.2,0.9-0.5,1.7-0.7,2.5c-0.3,0.8-0.5,1.6-0.8,2.6c-0.6,1.8-1.5,3.5-2.6,5.1
		c-2.1,3.2-4.8,5.9-7.7,8.1c-2.9,2.2-6.1,3.9-9.4,5.3c-6.5,2.7-13.2,4.3-20,5.3c-6.7,1-13.5,1.3-20.2,1.3c-6.7,0-13.4-0.5-20.1-1.2
		c-13.3-1.5-26.4-4.4-39.1-8.7c-6.3-2.3-12.5-4.8-18.2-8.3c-2.9-1.7-5.6-3.6-8.1-5.9c-2.4-2.3-4.7-4.9-5.8-8
		c1.5,2.9,3.9,5.3,6.5,7.2c2.6,1.9,5.5,3.5,8.4,4.9c5.9,2.8,12.1,4.9,18.4,6.6c6.3,1.7,12.7,3.1,19.1,4.1c6.4,1,12.9,1.8,19.4,2.3
		c13,0.9,26,0.8,38.7-1.3c6.3-1.1,12.5-2.6,18.1-5.1c5.6-2.5,10.7-5.9,13.7-10.6c0.7-1.2,1.4-2.4,1.8-3.7c0.2-0.6,0.5-1.4,0.7-2.1
		c0.2-0.7,0.4-1.5,0.6-2.2c0.8-3,1.3-6,1.4-8.9c0.1-2.9-0.2-5.8-1.1-8.5c-0.9-2.7-2.3-5.1-4.1-7.3c-3.7-4.3-9.2-7.3-15.1-9.3
		c-3-1-6-1.8-9.1-2.5c-3.1-0.7-6.3-1.2-9.5-1.6c-6.4-0.8-12.9-1.1-19.4-1.1c-6.5-0.1-13.1,0.1-19.6,0.5
		C183.7,81,170.6,82.5,157.5,84.4z"/>
</g>
<g>
	<path class="st1" d="M275.9,177.8c0.2-1.2,0.4-2.3,0.6-3.5c0.2-1.1,0.6-2.2,0.7-3.4c0.4-2.3,0.8-4.5,1.1-6.7
		c0.1-1.1,0.3-2.2,0.4-3.3c0.1-1.1,0.2-2.2,0.3-3.4c0.1-1.1,0.2-2.2,0.2-3.3c0-1.1,0.2-2.2,0.1-3.3l0-3.3l-0.2-3.3
		c-0.1-2.2-0.3-4.5-0.6-6.7c-0.6-4.5-1.4-8.9-2.6-13.5c2.9,3.7,4.8,8.2,6,12.8c0.7,2.3,1.1,4.6,1.4,7l0.4,3.6l0.1,3.6
		c0,1.2-0.1,2.4-0.2,3.6c-0.1,1.2-0.2,2.4-0.4,3.5c-0.2,1.2-0.4,2.3-0.6,3.5c-0.2,1.2-0.6,2.3-0.9,3.4c-0.6,2.3-1.6,4.5-2.4,6.7
		c-0.2,0.5-0.5,1.1-0.8,1.6c-0.3,0.5-0.5,1-0.8,1.6C277.1,175.7,276.5,176.8,275.9,177.8z"/>
</g>
<g>
	<path class="st1" d="M263.9,135.6c2,3.2,3.9,6.4,5.6,9.8c1.7,3.3,3.2,6.8,4.6,10.3c1.3,3.5,2.4,7.2,3,10.9c0.3,1.9,0.5,3.8,0.4,5.7
		c-0.1,1.9-0.5,3.8-1.6,5.4c0.7-1.7,0.9-3.6,0.8-5.4c-0.1-1.8-0.4-3.7-0.8-5.5c-0.8-3.6-2-7.1-3.3-10.6c-1.3-3.5-2.7-6.9-4.2-10.3
		L263.9,135.6z"/>
</g>
<g>
	<path class="st1" d="M109.9,177.8c-2.4-3.5-4.2-7.4-5.6-11.5c-1.3-4.1-2-8.4-2.2-12.7c-0.2-4.3,0.1-8.6,1.1-12.8
		c0.9-4.2,2.4-8.3,4.7-11.9c-0.5,4.2-1,8.3-1.2,12.4c-0.2,4.1-0.3,8.1-0.1,12.1c0.2,4,0.6,8,1.2,12.1
		C108.3,169.5,109.2,173.5,109.9,177.8z"/>
</g>
<g>
	<path class="st1" d="M123.5,132.5l-5.1,11c-1.7,3.7-3.3,7.4-4.7,11.1c-1.5,3.7-2.8,7.5-3.7,11.4c-0.5,1.9-0.8,3.9-0.9,5.9
		c-0.2,2,0,4,0.8,5.9c-1.1-1.7-1.5-3.8-1.6-5.9c-0.1-2.1,0.2-4.1,0.5-6.1c0.7-4,2-7.9,3.5-11.7c1.5-3.8,3.2-7.5,5.1-11.1
		C119.3,139.4,121.3,135.9,123.5,132.5z"/>
</g>
<g>
	<path class="st1" d="M281.1,157.9c1.1-0.9,2.4-1.6,3.8-2c1.4-0.4,3-0.5,4.5-0.1c0.8,0.1,1.5,0.4,2.2,0.7c0.7,0.4,1.4,0.7,1.9,1.2
		c0.6,0.4,1.1,1,1.7,1.6c0.5,0.6,1,1.2,1.3,1.8c1.6,2.6,2.5,5.5,2.9,8.4c0.4,2.9,0.3,5.9-0.1,8.8c-1,5.8-3.4,11.5-7.7,15.7
		c-0.6,0.5-1.1,1-1.7,1.4c-0.6,0.5-1.3,0.8-1.9,1.2c-1.4,0.7-2.8,1.2-4.4,1.3c-0.4,0-0.8,0-1.1,0c-0.2,0-0.4,0-0.6,0l-0.6-0.1
		c-0.7-0.1-1.5-0.3-2.1-0.6c-1.4-0.6-2.5-1.5-3.4-2.6c1.1,0.9,2.4,1.5,3.7,1.9c1.3,0.3,2.7,0.3,3.9,0.1c2.6-0.5,4.8-2.2,6.5-4.1
		c1.8-2,3.2-4.3,4.2-6.8c1.1-2.5,1.8-5.1,2.2-7.7c0.5-2.7,0.5-5.4,0.3-8c-0.2-2.7-1-5.3-2.2-7.6c-0.3-0.6-0.7-1.1-1-1.7
		c-0.4-0.5-0.8-1-1.3-1.5c-0.4-0.5-1-0.8-1.5-1.2c-0.6-0.3-1.1-0.7-1.7-0.8C286.5,156.1,283.6,156.6,281.1,157.9z"/>
</g>
<linearGradient id="SVGID_2_" gradientUnits="userSpaceOnUse" x1="132.8623" y1="190.4645" x2="167.588" y2="190.4645">
	<stop  offset="0" style="stop-color:#7D324E"/>
	<stop  offset="1" style="stop-color:#903E55"/>
</linearGradient>
<ellipse class="st5" cx="150.2" cy="190.5" rx="17.4" ry="4.5"/>
<g>
	<path class="st1" d="M104.5,156.9c-1.3-0.4-2.7-0.6-4-0.5c-0.7,0.1-1.3,0.2-1.9,0.4c-0.6,0.2-1.2,0.5-1.8,0.8
		c-1.1,0.7-2,1.6-2.8,2.6c-0.7,1.1-1.5,2.1-1.9,3.4c-1,2.4-1.6,5-1.7,7.7c-0.2,2.6,0,5.3,0.5,7.9c0.4,2.6,1.2,5.2,2.4,7.6
		c1.1,2.4,2.6,4.6,4.4,6.5c1.8,1.8,4.1,3.2,6.7,3.5c2.6,0.3,5.2-0.8,7.3-2.7c-0.8,1.1-1.8,2.2-3.1,2.9c-0.6,0.4-1.3,0.7-2,0.9
		c-0.4,0.1-0.7,0.2-1.1,0.2c-0.4,0-0.7,0.1-1.1,0.1c-1.5,0.1-3-0.3-4.4-0.8c-1.4-0.6-2.6-1.4-3.8-2.4c-2.3-1.9-4-4.4-5.4-7
		c-1.3-2.6-2.2-5.4-2.8-8.3c-1-5.7-0.7-11.8,2.1-17.1c0.7-1.3,1.5-2.5,2.6-3.6c1.1-1.1,2.3-2,3.7-2.6c0.7-0.2,1.4-0.5,2.2-0.6
		c0.7-0.2,1.5-0.2,2.2-0.1C102,155.7,103.3,156.2,104.5,156.9z"/>
</g>
<g>
	<path class="st1" d="M102.1,83.6c5.2,6,11.1,11.4,17.5,16.1c3.2,2.3,6.6,4.4,10.2,6.1c3.6,1.7,7.3,2.9,11.2,3.4
		c1.9,0.2,3.9,0.2,5.8,0c1-0.1,1.9-0.3,2.9-0.6l2.9-0.8c3.8-1,7.7-2,11.6-2.9c7.8-1.8,15.6-3.3,23.4-4.6c7.9-1.2,15.8-2,23.8-2.4
		c8-0.3,16-0.2,23.9,0.9c7.9,1.1,15.8,3.1,23,6.7c7.2,3.6,13.5,9,17.6,15.8c-2.2-3.3-4.8-6.3-7.9-8.8c-3-2.5-6.4-4.6-10-6.3
		c-7.1-3.4-14.9-5.2-22.8-6.1c-15.7-1.9-31.7-0.6-47.3,1.7c-7.8,1.2-15.6,2.7-23.4,4.4c-3.9,0.9-7.7,1.8-11.6,2.8l-2.9,0.7
		c-1,0.3-2,0.4-3,0.5c-2,0.2-4.1,0.2-6.1-0.1c-4-0.5-7.9-1.9-11.5-3.6c-3.6-1.7-7-3.9-10.2-6.3C112.9,95.3,107.1,89.8,102.1,83.6z"
		/>
</g>
<g>
	<path class="st1" d="M211.9,177.6c1.2-3.1,3.3-5.8,5.9-8c2.6-2.2,5.8-3.9,9.5-4.3c1.8-0.2,3.6-0.2,5.4,0.2c1.8,0.4,3.4,1.1,4.9,2
		c3,1.8,5.3,4.4,6.8,7.3c-2.9-1.6-5.6-3.1-8.3-4.1c-2.7-1-5.5-1.3-8.2-0.9c-2.7,0.3-5.4,1.4-8,2.8
		C217.2,173.9,214.6,175.7,211.9,177.6z"/>
</g>
<g class="st6">
	<path class="st1" d="M205.5,191.8c0.2,0.6,0.2,1.3,0,2c-0.2,0.7-0.6,1.3-1,1.8c-0.9,1.1-2,1.9-3.2,2.5c-2.4,1.2-5,1.7-7.6,1.7
		c-2.6,0-5.2-0.5-7.6-1.7c-1.2-0.6-2.3-1.4-3.2-2.5c-0.4-0.5-0.8-1.2-1-1.8c-0.2-0.7-0.2-1.4,0-2c0.3,0.6,0.6,1,1,1.3
		c0.4,0.3,0.9,0.6,1.4,0.8c1,0.4,2,0.7,3,0.8c2.1,0.4,4.2,0.5,6.4,0.5c2.1,0,4.3-0.1,6.4-0.5c1-0.2,2.1-0.4,3-0.9
		c0.5-0.2,0.9-0.5,1.4-0.8C204.8,192.8,205.2,192.4,205.5,191.8z"/>
</g>
<g>
	<path class="st1" d="M175,177.6c-2.7-1.9-5.2-3.7-7.9-5.1c-2.6-1.4-5.3-2.4-8-2.8c-2.7-0.3-5.4,0-8.2,0.9c-2.8,0.9-5.5,2.5-8.3,4.1
		c1.5-3,3.8-5.5,6.8-7.3c1.5-0.9,3.1-1.6,4.9-2c1.8-0.4,3.6-0.5,5.4-0.2c3.6,0.5,6.9,2.2,9.5,4.3C171.7,171.8,173.8,174.5,175,177.6
		z"/>
</g>
<g class="st7">
	<path class="st1" d="M173.2,242.8c3.7,1.2,7.2,2.2,10.7,2.9c3.5,0.7,7,1.1,10.5,1.2c3.5,0,7-0.3,10.5-1c3.5-0.7,7-1.8,10.7-3
		c-2.5,3-5.8,5.2-9.5,6.8c-3.7,1.5-7.7,2.3-11.7,2.3c-4-0.1-8-0.9-11.6-2.4C179.2,247.9,175.8,245.8,173.2,242.8z"/>
</g>
<g>
	<linearGradient id="SVGID_3_" gradientUnits="userSpaceOnUse" x1="174.3048" y1="350.7735" x2="214.4527" y2="350.7735">
		<stop  offset="0" style="stop-color:#7D324E"/>
		<stop  offset="1" style="stop-color:#903E55"/>
	</linearGradient>
	<path class="st8" d="M194.6,400.9l19.8-42.9v0l-8.4-57.3c-3.5,0.1-7.5,0.2-12.1,0.2h0.9c-4.6,0-8.5,0-12-0.2l-0.1,0l-8.4,57.3l0,0
		l19.8,42.9"/>
</g>
</svg>
