<?xml version="1.0" encoding="utf-8"?>
<!-- Generator: Adobe Illustrator 22.0.1, SVG Export Plug-In . SVG Version: 6.00 Build 0)  -->
<svg version="1.1" id="Layer_1" xmlns="http://www.w3.org/2000/svg" xmlns:xlink="http://www.w3.org/1999/xlink" x="0px" y="0px"
	 viewBox="0 0 400 400" style="enable-background:new 0 0 400 400;" xml:space="preserve">
<style type="text/css">
	.st0{fill:none;}
	.st1{opacity:0.1;fill:url(#SVGID_1_);enable-background:new    ;}
	.st2{opacity:0.1;fill:url(#SVGID_2_);enable-background:new    ;}
	.st3{fill:url(#SVGID_3_);}
	.st4{fill:url(#SVGID_4_);}
	.st5{fill:url(#SVGID_5_);}
	.st6{fill:url(#SVGID_6_);}
	.st7{fill:url(#SVGID_7_);}
	.st8{fill:none;stroke:url(#SVGID_8_);stroke-width:1.4981;stroke-linecap:round;stroke-linejoin:round;}
	.st9{fill:none;stroke:url(#SVGID_9_);stroke-width:1.4981;stroke-linecap:round;stroke-linejoin:round;}
	.st10{fill:url(#SVGID_10_);}
	.st11{fill:url(#SVGID_11_);}
	
		.st12{opacity:0.49;fill:url(#SVGID_12_);stroke:url(#SVGID_13_);stroke-width:1.4981;stroke-miterlimit:10;enable-background:new    ;}
	.st13{fill:none;stroke:url(#SVGID_14_);stroke-width:1.4981;stroke-miterlimit:10;}
	.st14{fill:none;stroke:url(#SVGID_15_);stroke-width:0.5717;stroke-linecap:round;stroke-linejoin:round;}
	.st15{fill:none;stroke:url(#SVGID_16_);stroke-width:0.5717;stroke-linecap:round;stroke-linejoin:round;}
	.st16{fill:none;stroke:url(#SVGID_17_);stroke-width:0.5717;stroke-linecap:round;stroke-linejoin:round;}
	.st17{fill:none;stroke:url(#SVGID_18_);stroke-width:0.5717;stroke-linecap:round;stroke-linejoin:round;}
	
		.st18{opacity:0.75;fill:none;stroke:url(#SVGID_19_);stroke-width:0.3745;stroke-linecap:round;stroke-linejoin:round;enable-background:new    ;}
	
		.st19{opacity:0.75;fill:none;stroke:url(#SVGID_20_);stroke-width:0.3745;stroke-linecap:round;stroke-linejoin:round;enable-background:new    ;}
	.st20{fill:url(#SVGID_21_);}
	.st21{fill:url(#SVGID_22_);}
	.st22{opacity:0.25;}
	.st23{fill:url(#SVGID_23_);}
	.st24{fill:url(#SVGID_24_);}
	.st25{opacity:0.49;fill:url(#SVGID_25_);enable-background:new    ;}
	.st26{opacity:0.49;fill:url(#SVGID_26_);enable-background:new    ;}
</style>
<rect x="0.1" y="0.5" class="st0" width="400" height="400"/>
<linearGradient id="SVGID_1_" gradientUnits="userSpaceOnUse" x1="226.5" y1="229.2" x2="255.3465" y2="229.2">
	<stop  offset="0" style="stop-color:#47CFA4"/>
	<stop  offset="1" style="stop-color:#5CC4D6"/>
</linearGradient>
<ellipse class="st1" cx="240.9" cy="229.2" rx="14.4" ry="3.2"/>
<linearGradient id="SVGID_2_" gradientUnits="userSpaceOnUse" x1="142.9404" y1="229.2" x2="171.7869" y2="229.2">
	<stop  offset="0" style="stop-color:#47CFA4"/>
	<stop  offset="1" style="stop-color:#5CC4D6"/>
</linearGradient>
<ellipse class="st2" cx="157.4" cy="229.2" rx="14.4" ry="3.2"/>
<linearGradient id="SVGID_3_" gradientUnits="userSpaceOnUse" x1="125.9824" y1="167.8125" x2="285.988" y2="167.8125">
	<stop  offset="0" style="stop-color:#47CFA4"/>
	<stop  offset="1" style="stop-color:#5CC4D6"/>
</linearGradient>
<path class="st3" d="M281.5,209.2c-0.9,1.1-1.8,2.1-2.8,3.1c-1.4,1.5-2.8,2.9-4.3,4.2c0.3-1.6,0.2-3.3,0.1-4.9
	c-0.2-2.4-0.7-4.7-1.4-6.9c-1.4-4.4-3.2-8.7-5.2-12.9s-4.2-8.3-6.4-12.3l-1.7-3c-0.5-1-1.1-2-1.7-3c-1.1-2.1-2.5-4-4-5.9
	c-3-3.7-6.6-7.1-10.9-9.5c-4.3-2.4-9.4-3.6-14.4-3.2c-5,0.3-9.7,2.1-13.9,4.3c-3.8,2-8,3.4-12.3,4.4s-8.7,1.4-13.2,1.5
	c-4.4,0.1-8.9-0.1-13.4-0.6c-4.5-0.4-8.9-1.1-13.4-2c-4.5-0.9-9-1.8-13.4-2.9l-3.2-0.9c-1-0.3-2-0.8-3-1.2c-1-0.5-1.9-1-2.9-1.5
	l-1.3-0.9c-0.5-0.3-0.9-0.6-1.3-1l-1.2-1.1c-0.4-0.4-0.7-0.8-1.1-1.2c-0.8-0.8-1.3-1.7-1.9-2.6c-1-1.9-1.9-3.9-2.5-6.1
	c-1.3-4.3-1.6-8.8-1.9-13.4c-0.6-4.5,0.2-9.1,1.7-13.4c-0.9,2.1-1.7,4.2-2.3,6.7c-0.2,1.1-0.4,2.2-0.5,3.4c-0.1,1.2-0.1,2.4-0.1,3.5
	c0,2.3-0.1,4.6,0.1,6.9c0,1.2,0.2,2.3,0.3,3.5c0.2,1.2,0.3,2.4,0.6,3.5c0.5,2.3,1.3,4.5,2.4,6.7c0.6,1.1,1.2,2.2,2,3.1
	c0.3,0.4,0.7,1,1.1,1.4l1.3,1.3c3.5,3.5,8.2,5.4,12.7,6.7c8.8,2.4,17.8,4.6,27.1,5.7c4.6,0.5,9.3,0.9,14,0.8
	c4.7-0.1,9.5-0.4,14.1-1.5c4.7-1,9.3-2.5,13.5-4.8c2-1,3.8-2,5.9-2.6c0.5-0.2,1-0.4,1.5-0.5l1.5-0.3c0.5-0.1,1-0.2,1.5-0.3l1.6-0.1
	c4.2-0.3,8.3,0.6,12.1,2.6s7.1,5,9.9,8.3c1.4,1.7,2.7,3.4,3.9,5.3c0.6,0.9,1.2,1.9,1.8,2.9l1.8,2.9c2.4,3.9,4.6,7.8,6.8,11.8
	s4.2,8.1,5.7,12.3c0.8,2.1,1.4,4.2,1.8,6.4c0.4,2.1,0.4,4.4-0.2,6.4v0.1c-0.1,0.2,0,0.5,0.2,0.7c0.3,0.3,0.7,0.3,1,0
	c1.9-2,3.8-4.1,5.6-6.3c0.9-1.1,1.7-2.2,2.5-3.4c0.8-1.1,1.6-2.4,2-3.7C283.2,207,282.4,208.1,281.5,209.2z"/>
<g>
	<linearGradient id="SVGID_4_" gradientUnits="userSpaceOnUse" x1="129.4228" y1="169.15" x2="299.4505" y2="169.15">
		<stop  offset="0" style="stop-color:#47CFA4"/>
		<stop  offset="1" style="stop-color:#5CC4D6"/>
	</linearGradient>
	<path class="st4" d="M130.9,115.6c0.4,2.5,1.1,4.9,2,7.3s1.9,4.7,3.2,6.8c2.5,4.3,6.2,8.1,10.7,9.9c2.3,0.9,4.7,1.4,7.1,1.4
		c2.4,0,4.9-0.3,7.4-0.8c4.9-1,9.7-2.5,14.5-4.1c9.6-3.2,19.2-6.7,29.3-8.8c10-2.1,20.6-2.6,30.9-0.5c2.6,0.5,5,1.3,7.5,2.1
		c2.5,0.9,4.9,1.9,7.2,3.1c4.6,2.4,8.9,5.4,12.8,8.7c7.9,6.7,14.6,14.7,19.9,23.4c5.4,8.7,9.5,18.3,12.1,28.2
		c2.4,9.9,3.4,20.3,1.9,30.4c0.8-10.1-0.4-20.3-3.3-30c-2.8-9.7-7.2-18.9-12.6-27.3c-5.5-8.4-12.1-16.1-19.8-22.5
		c-7.7-6.4-16.5-11.3-26.3-13.2c-9.7-2.1-19.9-1.7-29.7,0.3c-9.9,1.9-19.4,5.3-29.2,8.2c-4.9,1.5-9.8,2.9-14.9,3.8
		c-2.5,0.4-5.1,0.7-7.8,0.6c-2.6-0.1-5.3-0.7-7.7-1.8c-4.8-2.2-8.5-6.3-10.8-10.9C133,125.6,131.5,120.6,130.9,115.6z"/>
</g>
<linearGradient id="SVGID_5_" gradientUnits="userSpaceOnUse" x1="78.1832" y1="196.0564" x2="327.8155" y2="196.0564">
	<stop  offset="0" style="stop-color:#47CFA4"/>
	<stop  offset="1" style="stop-color:#5CC4D6"/>
</linearGradient>
<path class="st5" d="M326.3,252.5c-0.3-4.8-1-9.7-2.1-14.4c-0.2-1.1-0.6-2.3-0.9-3.5c-0.3-1.2-0.7-2.3-1.1-3.5
	c-0.8-2.3-1.9-4.7-2.7-6.7c-0.9-2-1.5-4.2-2.3-6.4c-0.6-2.2-1.3-4.4-1.9-6.7c-1.2-4.5-2.2-9.1-3.2-13.7c-2-9.2-4-18.5-6.5-27.7
	s-5.4-18.3-9.3-27.2c-3.9-8.8-8.7-17.4-14.8-25.1c-6.1-7.7-13.5-14.4-21.9-19.6c-8.3-5.3-17.5-9-26.9-11.5l-3.5-0.9
	c-1.2-0.3-2.4-0.6-3.6-0.8l-7.2-1.2c-1.2-0.2-2.4-0.3-3.6-0.4l-3.6-0.4l-3.6-0.4c-1.2-0.2-2.4-0.1-3.6-0.2l-7.2-0.2
	c-2.4,0-4.8,0.2-7.2,0.2l-3.6,0.1l-1.8,0.1l-1.8,0.1l-7.2,0.6l-3.6,0.3c-1.2,0.1-2.5,0.3-3.7,0.5c-1.3,0.1-2.5,0.5-3.7,0.7
	c-1.2,0.2-2.4,0.5-3.6,0.9c-4.8,1.4-9.5,3.5-13.8,6.2c-8.3,5.2-15.1,12.9-19.1,22c-7.9,8.9-13.8,19.3-18.4,30.1
	c-4.7,11.1-8,22.6-10.8,34.1s-4.9,23.1-7.9,34.3c-0.8,2.8-1.6,5.6-2.5,8.3c-0.5,1.4-1,2.7-1.5,4l-1.7,4.1c-1.1,2.8-2,5.8-2.8,8.7
	c-0.7,2.9-1.3,5.9-1.7,8.9c-0.7,6-1,12.1-0.5,18.1c0.2,3,0.7,6,1.2,9c0.7,3,1.4,5.9,2.5,8.8c1.1,2.9,2.3,5.7,3.9,8.3
	c0.7,1.3,1.6,2.5,2.5,3.8c1,1.2,1.9,2.4,3,3.5c4.3,4.5,9.8,7.7,15.6,9.5c0.7,0.3,1.5,0.4,2.2,0.6c0.7,0.2,1.4,0.4,2.2,0.5
	c1.5,0.2,3,0.5,4.5,0.6c3.1,0.3,5.9,0.3,8.9,0.4c5.8,0.2,11.7,0.4,17.6,0.5c11.8,0.3,23.5,0.4,35.3,0.1c-11.8-0.2-23.5-1-35.2-1.9
	c-5.9-0.4-11.7-0.8-17.6-1.2c-2.9-0.2-5.9-0.3-8.7-0.7c-1.4-0.1-2.8-0.5-4.2-0.7c-0.7-0.1-1.4-0.3-2.1-0.5c-0.6-0.2-1.3-0.4-2-0.6
	c-5.3-1.9-10.2-4.9-13.9-9.1c-0.9-0.9-1.7-2.1-2.6-3.2c-0.7-1.2-1.6-2.3-2.2-3.6c-1.4-2.4-2.5-5-3.4-7.7c-1-2.6-1.6-5.4-2.1-8.2
	c-0.4-2.8-0.8-5.6-0.9-8.5c-0.3-5.7,0.1-11.5,1-17.1c0.5-2.8,1.1-5.6,1.8-8.3c0.7-2.7,1.6-5.4,2.7-8l1.8-4c0.6-1.4,1.2-2.8,1.7-4.2
	c1.1-2.9,2-5.7,2.8-8.6c3.3-11.5,5.7-23,8.6-34.3c2.9-11.4,6.2-22.5,10.8-33c4.4-10.1,10-19.6,17.2-27.7c0.4-0.3,0.7-0.6,0.9-1
	c0,0,0,0,0,0l0,0c0.1-0.1,0.1-0.3,0.2-0.4l0-0.1l0.2,0.1c1.7-4,3.9-7.7,6.8-11c2.9-3.2,6.2-6.1,9.9-8.4c3.7-2.3,7.8-4.1,12-5.3
	c1.1-0.3,2.1-0.6,3.2-0.8c1.1-0.2,2.2-0.5,3.3-0.6c1.1-0.2,2.2-0.4,3.3-0.5l3.5-0.3l6.9-0.6l1.7-0.1h1.7l3.5-0.1
	c2.3,0,4.6-0.1,6.9-0.1l6.9,0.2c1.2,0.1,2.4,0.1,3.5,0.2l3.4,0.3l3.4,0.3c1.1,0.1,2.3,0.2,3.4,0.4l6.8,1.2c1.1,0.1,2.2,0.4,3.3,0.7
	l3.3,0.8c8.8,2.3,17.3,5.7,25,10.5c7.6,4.7,14.4,10.8,20.1,17.9c5.7,7.1,10.3,15,14.1,23.4c3.7,8.4,6.7,17.2,9.2,26.2
	s4.6,18.1,6.8,27.3c1.2,4.6,2.3,9.2,3.6,13.8c0.6,2.3,1.4,4.6,2.1,6.9c0.8,2.3,1.6,4.6,2.6,6.8c1,2.4,1.9,4.3,2.7,6.4
	c0.4,1,0.7,2.1,1.1,3.2c0.3,1.1,0.6,2.2,0.9,3.3c1.1,4.4,1.9,8.9,2.3,13.5c0.8,9.1,0.2,18.4-2.5,27.1c-1.4,4.3-3.3,8.4-5.9,12.1
	c-2.6,3.6-5.9,6.8-9.7,9.1c-3.8,2.4-8.1,3.9-12.6,4.7c-4.4,0.7-9.2,0.9-13.9,1.2c-9.4,0.6-18.8,1.1-28.2,1.6
	c-9.4,0.5-18.9,0.9-28.3,1.2c18.8,0.4,37.7,0.2,56.6-0.3l7.1-0.2l1.8-0.1l1.8-0.1c1.2-0.1,2.4-0.2,3.6-0.4c4.8-0.7,9.6-2.1,13.9-4.6
	c4.3-2.5,8.1-5.8,11.1-9.8s5.2-8.5,6.8-13.1C326,272,326.9,262.2,326.3,252.5z"/>
<linearGradient id="SVGID_6_" gradientUnits="userSpaceOnUse" x1="104.8959" y1="251.1805" x2="298.7841" y2="251.1805">
	<stop  offset="0" style="stop-color:#47CFA4"/>
	<stop  offset="1" style="stop-color:#5CC4D6"/>
</linearGradient>
<path class="st6" d="M295.7,217.7c-1.3-2.5-3.2-4.8-5.5-6.7c-2.5-1.9-5.1-3.2-7.8-3.8l-0.5,1.9c2.5,0.6,4.8,1.9,6.8,3.6
	c1.8,1.6,3.4,3.6,4.8,6.1c2.4,4.7,3.3,10.1,2.4,15.3c-0.8,5.3-3.3,10.1-7.2,13.5c-1.9,1.7-4.2,2.9-6.7,3.6c-2.1,0.6-4.2,0.6-6.4,0.3
	c0.5-1.4,0.9-2.8,1.3-4.2c1.3-5.4,2-11,1.9-16.5c0-5.5-0.9-10.9-1.9-16.3c0.3,2.7,0.6,5.5,0.5,8.1c0.1,2.7,0.2,5.4,0,8.1
	c-0.3,5.4-1.2,10.8-2.8,15.9c-1.6,5.2-3.9,10-6.8,14.5c-2.9,4.4-6.5,8.4-10.5,11.9c-8.1,6.9-17.9,11.7-28.2,14.5
	c-10.3,2.9-21.1,4-31.8,3.6c-10.7-0.3-21.4-2.1-31.4-5.8c-10-3.6-19.3-9.4-26.5-17.2c-7.2-7.8-11.9-17.7-13.9-28.3
	c-1.9-10.2-1.4-20.7,0.6-31c0.1,0,0.2,0,0.3,0l0.2-2c-3-0.3-6.1,0.2-9,1.5c-2.7,1.3-5.3,3.3-7.2,5.7c-3.7,4.6-5.6,10.6-5.5,17.1
	c0.2,6.3,2.6,12.4,6.6,16.6c2.2,2.4,4.7,4.2,7.7,5.2c0.2,0.1,0.4,0.1,0.7,0.2c0.5,0.2,1,0.3,1.5,0.4l1.7,0.3l0.5,0
	c0.4,0,0.8,0,1.1,0c0.7,0,1.4,0,2.1-0.1c0.3,0.9,0.7,1.7,1.1,2.6c2.2,5.2,5.3,9.9,9,14.2s8,8,12.7,11.1c4.7,3.1,9.8,5.7,15,7.7
	c10.5,4,21.7,5.9,32.8,6.3c11.1,0.3,22.3-0.9,33.1-4c5.4-1.6,10.7-3.6,15.6-6.3c5-2.6,9.7-5.8,13.8-9.6c4.1-3.9,7.8-8.2,10.7-13
	c1.7-3,3.2-6.1,4.4-9.3c1.3,0.3,2.6,0.4,3.9,0.4c1.2,0,2.5-0.1,3.7-0.4c2.8-0.6,5.6-2,7.8-3.9c4.3-3.6,7.1-8.9,8.1-15
	C299.3,228.7,298.3,222.7,295.7,217.7z M123.9,251.4l-0.7,0l-1.6-0.3c-0.4-0.1-0.8-0.2-1.2-0.3c-0.2-0.1-0.5-0.2-0.7-0.2
	c-2.4-0.9-4.7-2.5-6.6-4.6c-3.6-3.9-5.6-9.4-5.7-15.1c-0.2-5.7,1.6-11.3,4.9-15.5c3.2-4.3,8.6-6.8,13.7-6.6
	c-3,10.1-4.1,20.9-2.7,31.4c0.5,3.9,1.4,7.8,2.7,11.5C125.3,251.7,124.6,251.6,123.9,251.4z"/>
<linearGradient id="SVGID_7_" gradientUnits="userSpaceOnUse" x1="121.4328" y1="189.4317" x2="155.4546" y2="189.4317">
	<stop  offset="0" style="stop-color:#47CFA4"/>
	<stop  offset="1" style="stop-color:#5CC4D6"/>
</linearGradient>
<path class="st7" d="M146.4,167.9c-2.1,2.1-4.1,4.2-6,6.5c-3.7,4.6-6.9,9.6-9.5,14.9c-0.1,0.2-0.2,0.4-0.2,0.6
	c-0.7,2-1.3,3.9-1.8,5.9c-0.5,2.2-0.9,4.5-1,6.8c-0.1,1.9,0,3.8,0.3,5.7c-1.5-1.3-3-2.7-4.5-3.9c1.3,2,2.6,3.9,4.1,5.7
	c0.5,0.7,0.9,1.3,1.4,2c0.6,1.4,1.6,2.8,2.8,3.9l0.1,0.2c0.6,0.5,1.5,0.5,2-0.1c0.6-0.6,0.6-1.5,0-2.1l-0.1-0.1l0.1-0.1
	c-1.1-1.4-1.7-3.2-2-5.1c-0.2-1.9-0.1-3.9,0.1-5.9c0.3-2.1,0.7-4.1,1.2-6.1s1.1-4,1.8-5.9v-0.1c0,0,0-0.1,0-0.1
	c2.3-4.9,5.1-9.7,8-14.3c1.5-2.4,3.1-4.8,4.8-7.1s3.4-4.6,5.2-6.9C150.8,164,148.5,165.9,146.4,167.9z"/>
<linearGradient id="SVGID_8_" gradientUnits="userSpaceOnUse" x1="216.7188" y1="308.35" x2="224.4536" y2="308.35">
	<stop  offset="0" style="stop-color:#47CFA4"/>
	<stop  offset="1" style="stop-color:#5CC4D6"/>
</linearGradient>
<path class="st8" d="M217.5,292.3c0,0,2.9,24.5,6.2,32.1"/>
<linearGradient id="SVGID_9_" gradientUnits="userSpaceOnUse" x1="174.6427" y1="308.05" x2="182.1487" y2="308.05">
	<stop  offset="0" style="stop-color:#47CFA4"/>
	<stop  offset="1" style="stop-color:#5CC4D6"/>
</linearGradient>
<path class="st9" d="M181.4,291.8c-0.6,7-3.4,24.9-6,32.5"/>
<g>
	<linearGradient id="SVGID_10_" gradientUnits="userSpaceOnUse" x1="143.4935" y1="352.7" x2="255.6729" y2="352.7">
		<stop  offset="0" style="stop-color:#47CFA4"/>
		<stop  offset="1" style="stop-color:#5CC4D6"/>
	</linearGradient>
	<path class="st10" d="M144.2,328.6c0.9,1.3,1.6,2.7,2.5,4c0.8,1.3,1.7,2.7,2.5,4c1.7,2.6,3.6,5.2,5.5,7.7c3.8,5,8,9.7,12.5,14
		c4.6,4.3,9.5,8.2,14.9,11.2s11.4,5.2,17.5,5.9h-0.2c6.1-0.7,12.1-2.9,17.5-5.9s10.4-6.9,14.9-11.2c4.6-4.3,8.7-9,12.5-14
		c1.9-2.5,3.7-5,5.5-7.7c0.9-1.3,1.7-2.6,2.5-4c0.8-1.3,1.6-2.7,2.5-4c-2.9,5.6-6.2,11-9.9,16.1s-7.8,9.9-12.3,14.4
		c-4.5,4.4-9.5,8.4-15.1,11.5c-5.5,3.1-11.6,5.4-18,6.2c-0.1,0-0.1,0-0.2,0c-6.4-0.8-12.5-3.1-18-6.2c-5.5-3.2-10.6-7.1-15.1-11.5
		s-8.6-9.3-12.3-14.4C150.4,339.6,147.2,334.2,144.2,328.6z"/>
</g>
<linearGradient id="SVGID_11_" gradientUnits="userSpaceOnUse" x1="99.5499" y1="355.2" x2="299.9096" y2="355.2">
	<stop  offset="0" style="stop-color:#47CFA4"/>
	<stop  offset="1" style="stop-color:#5CC4D6"/>
</linearGradient>
<path class="st11" d="M281.8,383.7c-0.9-5.6-1.9-11.1-3-16.6c-2.3-11-5-21.9-8.2-32.6l-0.1-0.3c-0.1-0.5-0.5-1-1.1-1.2
	c-2.9-1.1-5.7-2.1-8.6-3.1c-1.5-0.5-2.9-1-4.4-1.4c-0.8-0.3-1.6-0.5-2.5-0.8c0.5-0.8,0.9-1.7,1.4-2.5l0.1-0.1c0.3-0.7,0.2-1.5-0.3-2
	c-2.3-2.3-4.8-3.8-7.4-5.1c-2.6-1.3-5.3-2.4-8-3.3c-2.7-0.9-5.5-1.7-8.2-2.4c-2.7-0.7-5.5-1.3-8.3-1.8c2.7,0.8,5.4,1.8,8,2.8
	c2.7,1,5.3,2.1,7.8,3.3s5,2.4,7.3,3.9c1.9,1.2,3.8,2.4,5.3,3.9c-1.3,2.1-2.9,4.1-4.3,6.1c-1.7,2.3-3.6,4.6-5.5,6.8
	c-3.9,4.4-8,8.6-12.4,12.3c-4.5,3.7-9.2,6.9-14.3,9.5c-2.5,1.3-5.1,2.3-7.8,3.2c-2.6,0.8-5.2,1.3-7.8,1.7c-2.7-0.4-5.3-1-7.9-1.7
	c-2.6-0.9-5.3-1.9-7.8-3.2s-5-2.7-7.4-4.3c-2.4-1.6-4.7-3.4-6.9-5.2c-2.2-1.9-4.3-3.9-6.4-5.9c-2.1-2.1-4.1-4.2-6-6.4
	c-1.9-2.2-3.7-4.5-5.5-6.8c-1.5-2.1-3-4.1-4.4-6.2c1.4-1.4,3-2.7,4.8-3.9c2.1-1.4,4.3-2.7,6.6-3.9c4.6-2.5,9.3-4.6,14.1-6.6
	c-5.1,1.3-10,2.9-14.9,5.2c-2.5,1-4.9,2.1-7.2,3.4s-4.6,2.8-6.6,4.8c-0.5,0.4-0.6,1.2-0.3,1.8v0.1c0.5,0.9,0.9,1.7,1.4,2.6
	c-0.8,0.2-1.5,0.5-2.2,0.7c-1.5,0.4-2.9,0.9-4.4,1.4c-2.9,0.9-5.8,2-8.6,3.1c-0.5,0.2-0.9,0.6-1.1,1.2l-0.1,0.3
	c-3.3,10.8-5.9,21.6-8.2,32.6c-1.2,5.5-2.2,11-3,16.6c-0.9,5.6-1.6,11.1-1.9,16.8c2.2-5.2,4-10.6,5.7-15.9
	c1.7-5.4,3.2-10.8,4.6-16.2c2.7-10.5,5.2-21.1,7-31.9c2.2-1.3,4.5-2.7,6.7-4.1c1.3-0.8,2.5-1.6,3.8-2.5c0.7-0.5,1.4-1,2.1-1.5
	c2.5,4.2,5.2,8.2,8.2,12c3.7,4.8,7.8,9.3,12.4,13.4c4.6,4.1,9.5,7.8,15.1,10.7c2.8,1.5,5.7,2.7,8.7,3.7s6.1,1.7,9.2,2.1h0.7
	c3.2-0.4,6.3-1.1,9.3-2.1s5.9-2.3,8.7-3.7c2.7-1.5,5.4-3.1,7.9-4.9s4.9-3.8,7.2-5.8c4.5-4.1,8.7-8.6,12.4-13.4
	c3-3.9,5.8-7.9,8.2-12.1c0.8,0.5,1.5,1.1,2.4,1.6c1.2,0.9,2.5,1.7,3.8,2.5c2.3,1.4,4.5,2.8,6.8,4.1c1.9,10.7,4.2,21.4,6.9,31.9
	c1.4,5.5,2.9,10.8,4.6,16.2c1.7,5.3,3.5,10.7,5.7,15.9C283.3,394.8,282.6,389.3,281.8,383.7z"/>
<linearGradient id="SVGID_12_" gradientUnits="userSpaceOnUse" x1="237.2501" y1="373.0594" x2="270.4676" y2="373.0594">
	<stop  offset="0" style="stop-color:#47CFA4"/>
	<stop  offset="1" style="stop-color:#5CC4D6"/>
</linearGradient>
<linearGradient id="SVGID_13_" gradientUnits="userSpaceOnUse" x1="236.1937" y1="372.8785" x2="271.2113" y2="372.8785">
	<stop  offset="0" style="stop-color:#47CFA4"/>
	<stop  offset="1" style="stop-color:#5CC4D6"/>
</linearGradient>
<path class="st12" d="M269.8,376.9c-7.4,11.9-31.2,9.4-31.2,9.4c2.1-8-1.4-19.4-1.4-19.4s18.8,2.1,26.6-7.3
	C263.9,359.7,272.8,367.1,269.8,376.9z"/>
<linearGradient id="SVGID_14_" gradientUnits="userSpaceOnUse" x1="236.1937" y1="372.8785" x2="271.2113" y2="372.8785">
	<stop  offset="0" style="stop-color:#47CFA4"/>
	<stop  offset="1" style="stop-color:#5CC4D6"/>
</linearGradient>
<path class="st13" d="M269.8,376.9c-7.4,11.9-31.2,9.4-31.2,9.4c2.1-8-1.4-19.4-1.4-19.4s18.8,2.1,26.6-7.3
	C263.9,359.7,272.8,367.1,269.8,376.9z"/>
<linearGradient id="SVGID_15_" gradientUnits="userSpaceOnUse" x1="237.9142" y1="382.8594" x2="270.1523" y2="382.8594">
	<stop  offset="0" style="stop-color:#47CFA4"/>
	<stop  offset="1" style="stop-color:#5CC4D6"/>
</linearGradient>
<path class="st14" d="M269.9,376.9c-0.1,0.8-0.3,1.5-0.5,2.3c-7.4,11.9-31.2,9.4-31.2,9.4c0.2-0.7,0.3-1.5,0.4-2.3"/>
<linearGradient id="SVGID_16_" gradientUnits="userSpaceOnUse" x1="242.7993" y1="362.2" x2="244.7942" y2="362.2">
	<stop  offset="0" style="stop-color:#47CFA4"/>
	<stop  offset="1" style="stop-color:#5CC4D6"/>
</linearGradient>
<line class="st15" x1="243.1" y1="357.5" x2="244.5" y2="366.9"/>
<linearGradient id="SVGID_17_" gradientUnits="userSpaceOnUse" x1="249.0613" y1="359.35" x2="254.233" y2="359.35">
	<stop  offset="0" style="stop-color:#47CFA4"/>
	<stop  offset="1" style="stop-color:#5CC4D6"/>
</linearGradient>
<polyline class="st16" points="250.9,366.3 249.3,352.4 252.8,352.4 253.9,365.6 "/>
<linearGradient id="SVGID_18_" gradientUnits="userSpaceOnUse" x1="257.3141" y1="360.6" x2="259.0276" y2="360.6">
	<stop  offset="0" style="stop-color:#47CFA4"/>
	<stop  offset="1" style="stop-color:#5CC4D6"/>
</linearGradient>
<line class="st17" x1="257.6" y1="357.5" x2="258.7" y2="363.7"/>
<linearGradient id="SVGID_19_" gradientUnits="userSpaceOnUse" x1="213.6012" y1="255.1" x2="216.2146" y2="255.1">
	<stop  offset="0" style="stop-color:#47CFA4"/>
	<stop  offset="1" style="stop-color:#5CC4D6"/>
</linearGradient>
<path class="st18" d="M216,258.2l-2.2-6.2"/>
<linearGradient id="SVGID_20_" gradientUnits="userSpaceOnUse" x1="182.9754" y1="255.1" x2="185.6031" y2="255.1">
	<stop  offset="0" style="stop-color:#47CFA4"/>
	<stop  offset="1" style="stop-color:#5CC4D6"/>
</linearGradient>
<path class="st19" d="M185.4,252l-2.3,6.2"/>
<linearGradient id="SVGID_21_" gradientUnits="userSpaceOnUse" x1="211.3761" y1="207.9" x2="248.8413" y2="207.9">
	<stop  offset="0" style="stop-color:#47CFA4"/>
	<stop  offset="1" style="stop-color:#5CC4D6"/>
</linearGradient>
<path class="st20" d="M245.5,205c-0.5,1-0.9,1.6-1.4,2.3c-0.5,0.6-1.1,1.2-1.7,1.8c-0.9,1-2,2-3,3.1c-0.9-1.1-1.8-2.2-3-3.1
	c-0.5-0.4-0.9-0.8-1.4-1.1c0,0,0.1-0.1,0.1-0.1c0.8-0.5,1.5-1,2.1-1.7c0.6-0.6,1.1-1.4,1.4-2.3c0.3-0.8,0.4-1.8,0.1-2.7
	c-0.6,0.8-1,1.4-1.5,2c-0.5,0.6-1,1.2-1.5,1.8c-0.6,0.7-1.3,1.4-2,2.3c-0.9-0.4-1.8-0.8-2.7-1.1c0.4-0.4,0.7-0.8,1-1.3
	c0.5-0.9,0.7-1.8,0.7-2.8c0-0.9-0.3-1.9-0.9-2.6c-0.2,0.9-0.3,1.7-0.6,2.4c-0.2,0.7-0.5,1.4-0.9,2c-0.4,0.6-0.8,1.3-1.3,1.9
	c-0.5,0-1-0.1-1.5,0c-3.4,0-6.5,1.4-8.9,3.3c-2.4,2-4.2,4.4-5.3,7.2c2.4-1.8,4.7-3.4,7.1-4.6c2.4-1.2,4.8-2,7.2-2
	c1.2,0,2.4,0.2,3.6,0.5c1.1,0.3,2.3,0.8,3.5,1.4c2.4,1.3,4.6,3,7,4.7c-0.5-1.2-1.1-2.4-1.9-3.5c0.6-0.1,1.1-0.4,1.7-0.6
	c0.9-0.4,1.7-1,2.4-1.7c0.6-0.7,1.3-1.5,1.6-2.5C245.9,207,245.9,205.9,245.5,205z"/>
<linearGradient id="SVGID_22_" gradientUnits="userSpaceOnUse" x1="149.9445" y1="207.85" x2="187.5591" y2="207.85">
	<stop  offset="0" style="stop-color:#47CFA4"/>
	<stop  offset="1" style="stop-color:#5CC4D6"/>
</linearGradient>
<path class="st21" d="M180.2,209.1c-2.4-1.9-5.6-3.3-8.9-3.3c-0.5,0-1,0-1.5,0.1c-0.5-0.7-1-1.4-1.4-2.1c-0.4-0.6-0.7-1.3-0.9-2
	s-0.3-1.5-0.6-2.4c-0.6,0.7-0.9,1.6-0.9,2.6s0.2,2,0.7,2.8c0.3,0.6,0.7,1,1.1,1.4c-1,0.3-1.9,0.6-2.7,1.1c-0.7-0.8-1.4-1.6-2-2.2
	c-0.5-0.6-1-1.2-1.5-1.8c-0.5-0.6-1-1.2-1.5-2c-0.3,0.8-0.2,1.8,0.1,2.7c0.3,0.8,0.8,1.6,1.4,2.3c0.6,0.7,1.3,1.3,2.1,1.7
	c0.1,0,0.1,0.1,0.2,0.1c-0.5,0.3-0.9,0.7-1.4,1c-1.2,0.9-2.2,2-3,3.1c-1-1.2-2.1-2.1-3.1-3.1c-0.6-0.6-1.2-1.1-1.7-1.8
	c-0.6-0.7-1-1.4-1.4-2.3c-0.4,0.9-0.3,2,0,3s0.9,1.8,1.6,2.5c0.7,0.7,1.5,1.3,2.4,1.7c0.6,0.3,1.1,0.5,1.7,0.6
	c-0.7,1.1-1.4,2.3-1.8,3.5c2.4-1.8,4.6-3.5,7-4.7c1.1-0.6,2.3-1.1,3.5-1.4c1.2-0.4,2.4-0.5,3.6-0.5c2.4,0,4.8,0.8,7.2,2
	c2.4,1.2,4.7,2.8,7,4.6C184.4,213.5,182.5,211.1,180.2,209.1z"/>
<g class="st22">
	<linearGradient id="SVGID_23_" gradientUnits="userSpaceOnUse" x1="188.8032" y1="228.1" x2="210.7653" y2="228.1">
		<stop  offset="0" style="stop-color:#47CFA4"/>
		<stop  offset="1" style="stop-color:#5CC4D6"/>
	</linearGradient>
	<path class="st23" d="M208.8,224.3c0.2,0.5,0.1,1.1,0,1.6s-0.4,1-0.6,1.5c-0.6,0.9-1.3,1.7-2.2,2.4c-1.7,1.3-3.9,2.1-6.2,2.1
		s-4.5-0.8-6.2-2.1c-0.9-0.7-1.6-1.5-2.2-2.4c-0.3-0.5-0.5-1-0.6-1.5s-0.2-1.1,0-1.6c0.5,0.9,1.3,1.3,2,1.8c0.8,0.4,1.5,0.8,2.3,1
		c1.6,0.6,3.1,0.8,4.7,0.8c1.5,0,3.1-0.3,4.7-0.8c0.8-0.3,1.6-0.6,2.3-1C207.5,225.6,208.3,225.2,208.8,224.3z"/>
</g>
<linearGradient id="SVGID_24_" gradientUnits="userSpaceOnUse" x1="169.906" y1="333.6193" x2="229.2604" y2="333.6193">
	<stop  offset="0" style="stop-color:#47CFA4"/>
	<stop  offset="1" style="stop-color:#5CC4D6"/>
</linearGradient>
<path class="st24" d="M226.3,320.5c-0.5,0.7-1,1.4-1.6,2l-1.7,1.9l-1.8,1.8c-2.3,2.4-4.8,4.7-7.3,7c-2.5,2.3-5,4.5-7.6,6.7
	c-2.2,1.9-4.5,3.9-6.7,5.7c-2.3-1.9-4.5-3.8-6.8-5.7c-2.6-2.2-5.1-4.5-7.6-6.7c-2.5-2.3-4.9-4.6-7.3-7l-1.8-1.8l-1.7-1.9
	c-0.6-0.7-1.1-1.3-1.6-2s-0.9-1.4-1.4-2.1c0.4,0.7,0.6,1.5,1.1,2.3c0.4,0.7,0.8,1.5,1.3,2.2l1.5,2.1l1.6,2c2.1,2.7,4.4,5.3,6.8,7.7
	c2.3,2.4,4.8,4.8,7.3,7.1c2.5,2.3,5.1,4.5,7.7,6.7c0.5,0.4,1.3,0.5,1.9,0c2.6-2.2,5.2-4.4,7.7-6.7c2.4-2.3,4.9-4.6,7.3-7.1
	c2.4-2.5,4.7-5,6.8-7.7l1.6-2l1.4-2.1c0.5-0.7,0.9-1.5,1.3-2.2c0.4-0.7,0.7-1.5,1-2.3C227.2,319.1,226.8,319.8,226.3,320.5z"/>
<linearGradient id="SVGID_25_" gradientUnits="userSpaceOnUse" x1="183.9" y1="250.15" x2="215.2293" y2="250.15">
	<stop  offset="0" style="stop-color:#47CFA4"/>
	<stop  offset="1" style="stop-color:#5CC4D6"/>
</linearGradient>
<path class="st25" d="M199.6,255.5c-8.6,0-15.7-2.7-15.7-6c5-4.3,7.1-4.7,7.1-4.7c2,3.2,8.6,3.8,8.6,3.8l0,0c0,0,6.6-0.6,8.6-3.8
	c0,0,2.1,0.5,7.1,4.7C215.3,252.8,208.3,255.5,199.6,255.5L199.6,255.5z"/>
<linearGradient id="SVGID_26_" gradientUnits="userSpaceOnUse" x1="182.9881" y1="265.7" x2="216.202" y2="265.7">
	<stop  offset="0" style="stop-color:#47CFA4"/>
	<stop  offset="1" style="stop-color:#5CC4D6"/>
</linearGradient>
<path class="st26" d="M183.2,258.2c-0.5,2.6,0.1,5,1.2,7.1c2.6,5,8,7.9,13.6,7.9h1.7l0,0h1.7c5.6,0,11-2.9,13.6-7.9
	c1.1-2.1,1.7-4.5,1.2-7.1l0,0c-2.8,2.8-9.1,4.7-16.4,4.7l0,0C192.2,262.9,185.9,261,183.2,258.2"/>
</svg>
