<?xml version="1.0" encoding="utf-8"?>
<!-- Generator: Adobe Illustrator 22.0.1, SVG Export Plug-In . SVG Version: 6.00 Build 0)  -->
<svg version="1.1" id="Layer_1" xmlns="http://www.w3.org/2000/svg" xmlns:xlink="http://www.w3.org/1999/xlink" x="0px" y="0px"
	 viewBox="0 0 400 400" style="enable-background:new 0 0 400 400;" xml:space="preserve">
<style type="text/css">
	.st0{fill:none;}
	.st1{opacity:0.1;fill:url(#SVGID_1_);}
	.st2{opacity:0.1;fill:url(#SVGID_2_);}
	.st3{fill:#903E55;}
	.st4{fill:none;stroke:#903E55;stroke-width:1.4981;stroke-linecap:round;stroke-linejoin:round;}
	.st5{opacity:0.49;fill:url(#SVGID_3_);}
	.st6{fill:none;stroke:#903E55;stroke-width:1.4981;stroke-miterlimit:10;}
	.st7{fill:none;stroke:#903E55;stroke-width:0.5717;stroke-linecap:round;stroke-linejoin:round;}
	.st8{opacity:0.75;fill:none;stroke:#903E55;stroke-width:0.3745;stroke-linecap:round;stroke-linejoin:round;}
	.st9{opacity:0.25;}
	.st10{opacity:0.49;fill:url(#SVGID_4_);}
	.st11{opacity:0.49;fill:url(#SVGID_5_);}
</style>
<rect x="-0.9" y="0.5" class="st0" width="400" height="400"/>
<linearGradient id="SVGID_1_" gradientUnits="userSpaceOnUse" x1="225.4842" y1="229.1693" x2="254.3307" y2="229.1693">
	<stop  offset="0" style="stop-color:#7D324E"/>
	<stop  offset="1" style="stop-color:#903E55"/>
</linearGradient>
<ellipse class="st1" cx="239.9" cy="229.2" rx="14.4" ry="3.2"/>
<linearGradient id="SVGID_2_" gradientUnits="userSpaceOnUse" x1="141.9404" y1="229.1693" x2="170.7869" y2="229.1693">
	<stop  offset="0" style="stop-color:#7D324E"/>
	<stop  offset="1" style="stop-color:#903E55"/>
</linearGradient>
<ellipse class="st2" cx="156.4" cy="229.2" rx="14.4" ry="3.2"/>
<g>
	<path class="st3" d="M129.6,116.3c-1.5,4.3-2.3,8.9-1.7,13.4c0.3,4.6,0.6,9.1,1.9,13.4c0.6,2.2,1.5,4.2,2.5,6.1
		c0.6,0.9,1.1,1.8,1.9,2.6c0.4,0.4,0.7,0.8,1.1,1.2l1.2,1.1c0.4,0.4,0.8,0.7,1.3,1l1.3,0.9c1,0.5,1.9,1,2.9,1.5c1,0.4,2,0.9,3,1.2
		l3.2,0.9c4.4,1.1,8.9,2,13.4,2.9c4.5,0.9,8.9,1.6,13.4,2c4.5,0.5,9,0.7,13.4,0.6c4.5-0.1,8.9-0.5,13.2-1.5c4.3-1,8.5-2.4,12.3-4.4
		c4.2-2.2,8.9-4,13.9-4.3c5-0.4,10.1,0.8,14.4,3.2c4.3,2.4,7.9,5.8,10.9,9.5c1.5,1.9,2.9,3.8,4,5.9c0.6,1,1.2,2,1.7,3l1.7,3
		c2.2,4,4.4,8.1,6.4,12.3c2,4.2,3.8,8.5,5.2,12.9c0.7,2.2,1.2,4.5,1.4,6.9c0.2,2.4,0.2,4.8-0.7,7.2l-1.1-0.7c2.1-1.9,4.1-3.8,6-5.8
		c1-1,1.9-2,2.8-3.1c0.9-1.1,1.7-2.2,2.3-3.5c-0.4,1.3-1.2,2.6-2,3.7c-0.8,1.2-1.6,2.3-2.5,3.4c-1.8,2.2-3.7,4.3-5.6,6.3
		c-0.3,0.3-0.7,0.3-1,0c-0.2-0.2-0.3-0.5-0.2-0.7l0-0.1c0.6-2,0.6-4.3,0.2-6.4c-0.4-2.2-1-4.3-1.8-6.4c-1.5-4.2-3.5-8.3-5.7-12.3
		c-2.2-4-4.4-7.9-6.8-11.8l-1.8-2.9c-0.6-1-1.2-2-1.8-2.9c-1.2-1.9-2.5-3.6-3.9-5.3c-2.8-3.3-6.1-6.3-9.9-8.3
		c-3.8-2-7.9-2.9-12.1-2.6l-1.6,0.1c-0.5,0.1-1,0.2-1.5,0.3l-1.5,0.3c-0.5,0.1-1,0.3-1.5,0.5c-2.1,0.6-3.9,1.6-5.9,2.6
		c-4.2,2.3-8.8,3.8-13.5,4.8c-4.6,1.1-9.4,1.4-14.1,1.5c-4.7,0.1-9.4-0.3-14-0.8c-9.3-1.1-18.3-3.3-27.1-5.7
		c-4.5-1.3-9.2-3.2-12.7-6.7l-1.3-1.3c-0.4-0.4-0.8-1-1.1-1.4c-0.8-0.9-1.4-2-2-3.1c-1.1-2.2-1.9-4.4-2.4-6.7
		c-0.3-1.1-0.4-2.3-0.6-3.5c-0.1-1.2-0.3-2.3-0.3-3.5c-0.2-2.3-0.1-4.6-0.1-6.9c0-1.1,0-2.3,0.1-3.5c0.1-1.2,0.3-2.3,0.5-3.4
		C127.9,120.5,128.7,118.4,129.6,116.3z"/>
</g>
<g>
	<path class="st3" d="M129.9,115.6c0.4,2.5,1.1,4.9,2,7.3c0.9,2.4,1.9,4.7,3.2,6.8c2.5,4.3,6.2,8.1,10.7,9.9
		c2.3,0.9,4.7,1.4,7.1,1.4c2.4,0,4.9-0.3,7.4-0.8c4.9-1,9.7-2.5,14.5-4.1c9.6-3.2,19.2-6.7,29.3-8.8c10-2.1,20.6-2.6,30.9-0.5
		c2.6,0.5,5,1.3,7.5,2.1c2.5,0.9,4.9,1.9,7.2,3.1c4.6,2.4,8.9,5.4,12.8,8.7c7.9,6.7,14.6,14.7,19.9,23.4c5.4,8.7,9.5,18.3,12.1,28.2
		c2.4,9.9,3.4,20.3,1.9,30.4c0.8-10.1-0.4-20.3-3.3-30c-2.8-9.7-7.2-18.9-12.6-27.3c-5.5-8.4-12.1-16.1-19.8-22.5
		c-7.7-6.4-16.5-11.3-26.3-13.2c-9.7-2.1-19.9-1.7-29.7,0.3c-9.9,1.9-19.4,5.3-29.2,8.2c-4.9,1.5-9.8,2.9-14.9,3.8
		c-2.5,0.4-5.1,0.7-7.8,0.6c-2.6-0.1-5.3-0.7-7.7-1.8c-4.8-2.2-8.5-6.3-10.8-10.9C132,125.6,130.5,120.6,129.9,115.6z"/>
</g>
<g>
	<path class="st3" d="M178.3,309.9c-11.8,0.3-23.5,0.2-35.3-0.1c-5.9-0.1-11.8-0.3-17.6-0.5c-3-0.1-5.8-0.1-8.9-0.4
		c-1.5-0.1-3-0.4-4.5-0.6c-0.8-0.1-1.5-0.3-2.2-0.5c-0.7-0.2-1.5-0.3-2.2-0.6c-5.8-1.8-11.3-5-15.6-9.5c-1.1-1.1-2-2.3-3-3.5
		c-0.9-1.3-1.8-2.5-2.5-3.8c-1.6-2.6-2.8-5.4-3.9-8.3c-1.1-2.9-1.8-5.8-2.5-8.8c-0.5-3-1-6-1.2-9c-0.5-6-0.2-12.1,0.5-18.1
		c0.4-3,1-6,1.7-8.9c0.8-2.9,1.7-5.9,2.8-8.7l1.7-4.1c0.5-1.3,1-2.6,1.5-4c0.9-2.7,1.7-5.5,2.5-8.3c3-11.2,5.1-22.8,7.9-34.3
		c2.8-11.5,6.1-23,10.8-34.1c4.7-11.1,10.8-21.7,19-30.8c1.3-1.5,3.6-1.6,5-0.3c1.2,1,1.5,2.7,0.9,4l0,0l-0.3,0.7
		c-0.8,1.8-2.9,2.7-4.7,1.9c-1.8-0.8-2.7-2.9-1.9-4.7l0,0c3.9-9.5,10.9-17.5,19.5-22.9c4.3-2.7,9-4.8,13.8-6.2
		c1.2-0.4,2.4-0.7,3.6-0.9c1.2-0.2,2.4-0.6,3.7-0.7c1.2-0.2,2.5-0.4,3.7-0.5l3.6-0.3l7.2-0.6l1.8-0.1l1.8-0.1l3.6-0.1
		c2.4,0,4.8-0.2,7.2-0.2l7.2,0.2c1.2,0.1,2.4,0,3.6,0.2l3.6,0.4l3.6,0.4c1.2,0.1,2.4,0.2,3.6,0.4l7.2,1.2c1.2,0.2,2.4,0.5,3.6,0.8
		l3.5,0.9c9.4,2.5,18.6,6.2,26.9,11.5c8.4,5.2,15.8,11.9,21.9,19.6c6.1,7.7,10.9,16.3,14.8,25.1c3.9,8.9,6.8,18,9.3,27.2
		c2.5,9.2,4.5,18.5,6.5,27.7c1,4.6,2,9.2,3.2,13.7c0.6,2.3,1.3,4.5,1.9,6.7c0.8,2.2,1.4,4.4,2.3,6.4c0.8,2,1.9,4.4,2.7,6.7
		c0.4,1.2,0.8,2.3,1.1,3.5c0.3,1.2,0.7,2.4,0.9,3.5c1.1,4.7,1.8,9.6,2.1,14.4c0.6,9.7-0.3,19.5-3.4,28.8c-1.6,4.6-3.8,9.1-6.8,13.1
		c-3,4-6.8,7.3-11.1,9.8c-4.3,2.5-9.1,3.9-13.9,4.6c-1.2,0.2-2.4,0.3-3.6,0.4l-1.8,0.1l-1.8,0.1l-7.1,0.2
		c-18.9,0.5-37.8,0.7-56.6,0.3c9.4-0.3,18.9-0.7,28.3-1.2c9.4-0.5,18.8-1,28.2-1.6c4.7-0.3,9.5-0.5,13.9-1.2
		c4.5-0.8,8.8-2.3,12.6-4.7c3.8-2.3,7.1-5.5,9.7-9.1c2.6-3.7,4.5-7.8,5.9-12.1c2.7-8.7,3.3-18,2.5-27.1c-0.4-4.6-1.2-9.1-2.3-13.5
		c-0.3-1.1-0.6-2.2-0.9-3.3c-0.4-1.1-0.7-2.2-1.1-3.2c-0.8-2.1-1.7-4-2.7-6.4c-1-2.2-1.8-4.5-2.6-6.8c-0.7-2.3-1.5-4.6-2.1-6.9
		c-1.3-4.6-2.4-9.2-3.6-13.8c-2.2-9.2-4.3-18.3-6.8-27.3c-2.5-9-5.5-17.8-9.2-26.2c-3.8-8.4-8.4-16.3-14.1-23.4
		c-5.7-7.1-12.5-13.2-20.1-17.9c-7.7-4.8-16.2-8.2-25-10.5l-3.3-0.8c-1.1-0.3-2.2-0.6-3.3-0.7l-6.8-1.2c-1.1-0.2-2.3-0.3-3.4-0.4
		l-3.4-0.3l-3.4-0.3c-1.1-0.1-2.3-0.1-3.5-0.2l-6.9-0.2c-2.3,0-4.6,0.1-6.9,0.1l-3.5,0.1l-1.7,0l-1.7,0.1l-6.9,0.6l-3.5,0.3
		c-1.1,0.1-2.2,0.3-3.3,0.5c-1.1,0.1-2.2,0.4-3.3,0.6c-1.1,0.2-2.1,0.5-3.2,0.8c-4.2,1.2-8.3,3-12,5.3c-3.7,2.3-7,5.2-9.9,8.4
		c-2.9,3.3-5.1,7-6.8,11l-6.6-2.7l0.3-0.7l5.9,3.8c-7.6,8.3-13.5,18.2-18.1,28.7c-4.6,10.5-7.9,21.6-10.8,33
		c-2.9,11.3-5.3,22.8-8.6,34.3c-0.8,2.9-1.7,5.7-2.8,8.6c-0.5,1.4-1.1,2.8-1.7,4.2l-1.8,4c-1.1,2.6-2,5.3-2.7,8
		c-0.7,2.7-1.3,5.5-1.8,8.3c-0.9,5.6-1.3,11.4-1,17.1c0.1,2.9,0.5,5.7,0.9,8.5c0.5,2.8,1.1,5.6,2.1,8.2c0.9,2.7,2,5.3,3.4,7.7
		c0.6,1.3,1.5,2.4,2.2,3.6c0.9,1.1,1.7,2.3,2.6,3.2c3.7,4.2,8.6,7.2,13.9,9.1c0.7,0.2,1.4,0.4,2,0.6c0.7,0.2,1.4,0.4,2.1,0.5
		c1.4,0.2,2.8,0.6,4.2,0.7c2.8,0.4,5.8,0.5,8.7,0.7c5.9,0.4,11.7,0.8,17.6,1.2C154.8,308.9,166.5,309.7,178.3,309.9z"/>
</g>
<g>
	<path class="st3" d="M275.9,214.5c1,5.4,1.9,10.8,1.9,16.3c0.1,5.5-0.6,11.1-1.9,16.5c-1.4,5.4-3.6,10.6-6.4,15.4
		c-2.9,4.8-6.6,9.1-10.7,13c-4.1,3.8-8.8,7-13.8,9.6c-4.9,2.7-10.2,4.7-15.6,6.3c-10.8,3.1-22,4.3-33.1,4
		c-11.1-0.4-22.3-2.3-32.8-6.3c-5.2-2-10.3-4.6-15-7.7c-4.7-3.1-9-6.8-12.7-11.1c-3.7-4.3-6.8-9-9-14.2c-2.2-5.1-3.8-10.6-4.5-16.1
		c-1.4-11-0.2-22.2,3.1-32.7c-2.3,10.7-2.9,21.7-0.9,32.3c2,10.6,6.7,20.5,13.9,28.3c7.2,7.8,16.5,13.6,26.5,17.2
		c10,3.7,20.7,5.5,31.4,5.8c10.7,0.4,21.5-0.7,31.8-3.6c10.3-2.8,20.1-7.6,28.2-14.5c4-3.5,7.6-7.5,10.5-11.9
		c2.9-4.5,5.2-9.3,6.8-14.5c1.6-5.1,2.5-10.5,2.8-15.9c0.2-2.7,0.1-5.4,0-8.1C276.5,220,276.2,217.2,275.9,214.5z"/>
</g>
<g>
	<path class="st3" d="M126.9,252.5c-1.4,0.3-2.9,0.4-4.3,0.3l-0.5,0l-0.5-0.1l-1.1-0.2c-0.7-0.1-1.4-0.4-2.1-0.6
		c-2.8-1-5.2-2.7-7.2-4.9c-4-4.3-6.1-10.2-6.3-16c-0.1-5.8,1.6-11.8,5.3-16.4c1.8-2.3,4.2-4.2,6.8-5.4c2.7-1.2,5.6-1.7,8.5-1.4
		c-5.8-0.4-11.6,2.5-15,7c-3.6,4.5-5.3,10.4-5.1,16.1c0.1,5.7,2.2,11.5,6,15.7c1.9,2.1,4.3,3.9,7,4.9c0.7,0.2,1.4,0.5,2.1,0.6
		l1.1,0.2l0.5,0.1l0.5,0C124,252.8,125.5,252.8,126.9,252.5z"/>
</g>
<g>
	<path class="st3" d="M273.2,252.2c2.7,0.7,5.5,0.7,8.1,0c2.7-0.7,5.1-2,7.1-3.8c4.1-3.6,6.7-8.7,7.5-14.1c0.9-5.4,0-11-2.5-15.9
		c-1.3-2.4-2.9-4.6-5-6.4c-2.1-1.8-4.5-3.1-7.2-3.8c2.7,0.6,5.2,1.9,7.4,3.6c2.1,1.8,3.9,4,5.2,6.4c2.6,4.9,3.5,10.7,2.7,16.2
		c-0.9,5.5-3.5,10.8-7.8,14.4c-2.1,1.8-4.7,3.1-7.4,3.7C278.6,253.1,275.8,253,273.2,252.2z"/>
</g>
<g>
	<path class="st3" d="M122.7,204.4c1.8,1.5,3.6,3.1,5.3,4.7c0.9,0.8,1.7,1.6,2.6,2.4l2.5,2.5c0.6,0.6,0.6,1.5,0,2.1
		c-0.5,0.6-1.4,0.6-2,0.1L131,216c-1.9-1.7-3.1-4.1-3.6-6.4c-0.5-2.4-0.6-4.7-0.5-7c0.1-2.3,0.5-4.6,1-6.8c0.5-2.2,1.2-4.3,2-6.5
		l4.1,1.8l-0.1,0.2l0,0c-0.5,1.1-1.9,1.6-3,1s-1.6-1.9-1-3c2.6-5.3,5.8-10.3,9.5-14.9c1.9-2.3,3.9-4.4,6-6.5c2.1-2,4.4-3.9,6.8-5.6
		c-1.8,2.3-3.5,4.6-5.2,6.9c-1.7,2.3-3.3,4.7-4.8,7.1c-3,4.8-5.8,9.7-8.2,14.8l-4-2l0.1-0.2c0.5-1.1,1.9-1.6,3-1
		c1,0.5,1.5,1.7,1.1,2.8l0,0.1c-0.7,1.9-1.3,3.9-1.8,5.9c-0.5,2-0.9,4-1.2,6.1c-0.2,2-0.3,4-0.1,5.9c0.3,1.9,0.9,3.7,2,5.1l-2.1,2
		l-2.1-2.8c-0.7-0.9-1.4-1.9-2.1-2.9C125.3,208.3,124,206.4,122.7,204.4z"/>
</g>
<path class="st4" d="M216.5,292.3c0,0,2.9,24.5,6.2,32.1"/>
<g>
	<path class="st3" d="M251,327.2c1.5,0.4,3,0.8,4.4,1.3c1.5,0.4,2.9,0.9,4.4,1.4c2.9,1,5.7,2,8.6,3.1c0.6,0.2,1,0.7,1.1,1.2l0.1,0.3
		c3.2,10.7,5.9,21.6,8.2,32.6c1.1,5.5,2.1,11,3,16.6c0.8,5.6,1.5,11.1,1.9,16.8c-2.2-5.2-4-10.6-5.7-15.9
		c-1.7-5.4-3.2-10.7-4.6-16.2c-2.8-10.8-5.2-21.8-7.1-32.8l1.2,1.5c-2.6-1.5-5.2-3.1-7.8-4.7c-1.3-0.8-2.6-1.6-3.8-2.5
		C253.5,329,252.2,328.1,251,327.2z"/>
</g>
<path class="st4" d="M180.4,291.8c-0.6,7-3.4,24.9-6,32.5"/>
<g>
	<path class="st3" d="M171.7,309.9c-4.8,2-9.5,4.1-14.1,6.6c-2.3,1.2-4.5,2.5-6.6,3.9c-2.1,1.4-4.1,3-5.6,4.8l0.2-1.9
		c1.5,2.4,3.3,4.8,5,7.2c1.8,2.3,3.6,4.6,5.5,6.8c1.9,2.2,3.9,4.3,6,6.4c2.1,2,4.2,4,6.4,5.9c2.2,1.8,4.5,3.6,6.9,5.2
		c2.4,1.6,4.9,3,7.4,4.3c2.5,1.3,5.2,2.3,7.8,3.2c2.7,0.8,5.4,1.4,8.2,1.8h-0.7c2.8-0.4,5.5-1,8.2-1.8c2.7-0.9,5.3-1.9,7.8-3.2
		c5.1-2.6,9.8-5.8,14.3-9.5c4.4-3.7,8.5-7.9,12.4-12.3c1.9-2.2,3.8-4.5,5.5-6.8c1.7-2.3,3.5-4.7,5-7.2l0.2,2.1
		c-1.6-1.9-3.9-3.5-6.2-4.9c-2.3-1.5-4.8-2.7-7.3-3.9c-2.5-1.2-5.1-2.3-7.8-3.3c-2.6-1-5.3-2-8-2.8c2.8,0.5,5.6,1.1,8.3,1.8
		c2.7,0.7,5.5,1.5,8.2,2.4c2.7,0.9,5.4,2,8,3.3c2.6,1.3,5.1,2.8,7.4,5.1c0.5,0.5,0.6,1.3,0.3,2l-0.1,0.1c-2.9,5.4-6.3,10.4-10,15.2
		c-3.7,4.8-7.9,9.3-12.4,13.4c-2.3,2-4.7,4-7.2,5.8c-2.5,1.8-5.2,3.4-7.9,4.9c-2.8,1.4-5.7,2.7-8.7,3.7c-3,1-6.1,1.7-9.3,2.1l0,0
		c-0.2,0-0.5,0-0.7,0c-3.1-0.4-6.2-1.1-9.2-2.1c-3-1-5.9-2.2-8.7-3.7c-5.6-2.9-10.5-6.6-15.1-10.7c-4.6-4.1-8.7-8.6-12.4-13.4
		c-3.7-4.8-7.1-9.8-10-15.2l0-0.1c-0.3-0.6-0.2-1.4,0.3-1.8c2-2,4.3-3.5,6.6-4.8c2.3-1.3,4.7-2.4,7.2-3.4
		C161.7,312.8,166.6,311.2,171.7,309.9z"/>
</g>
<g>
	<path class="st3" d="M143.2,328.6c0.9,1.3,1.6,2.7,2.5,4c0.8,1.3,1.7,2.7,2.5,4c1.7,2.6,3.6,5.2,5.5,7.7c3.8,5,8,9.7,12.5,14
		c4.6,4.3,9.5,8.2,14.9,11.2c5.4,3,11.4,5.2,17.5,5.9h-0.2c6.1-0.7,12.1-2.9,17.5-5.9c5.4-3,10.4-6.9,14.9-11.2
		c4.6-4.3,8.7-9,12.5-14c1.9-2.5,3.7-5,5.5-7.7c0.9-1.3,1.7-2.6,2.5-4c0.8-1.3,1.6-2.7,2.5-4c-2.9,5.6-6.2,11-9.9,16.1
		c-3.7,5.1-7.8,9.9-12.3,14.4c-4.5,4.4-9.5,8.4-15.1,11.5c-5.5,3.1-11.6,5.4-18,6.2c-0.1,0-0.1,0-0.2,0c-6.4-0.8-12.5-3.1-18-6.2
		c-5.5-3.2-10.6-7.1-15.1-11.5c-4.5-4.4-8.6-9.3-12.3-14.4C149.4,339.6,146.2,334.2,143.2,328.6z"/>
</g>
<g>
	<path class="st3" d="M146.1,327.2c-1.2,0.9-2.5,1.8-3.7,2.7c-1.3,0.9-2.5,1.7-3.8,2.5c-2.6,1.6-5.2,3.2-7.8,4.7l1.2-1.5
		c-1.8,11.1-4.3,22-7.1,32.8c-1.4,5.4-2.9,10.8-4.6,16.2c-1.7,5.3-3.5,10.7-5.7,15.9c0.3-5.7,1-11.2,1.9-16.8
		c0.8-5.6,1.8-11.1,3-16.6c2.3-11,4.9-21.8,8.2-32.6l0.1-0.3c0.2-0.6,0.6-1,1.1-1.2c2.8-1.1,5.7-2.2,8.6-3.1c1.5-0.5,2.9-1,4.4-1.4
		C143.2,328,144.6,327.6,146.1,327.2z"/>
</g>
<linearGradient id="SVGID_3_" gradientUnits="userSpaceOnUse" x1="236.2501" y1="373.0914" x2="269.451" y2="373.0914">
	<stop  offset="0" style="stop-color:#7D324E"/>
	<stop  offset="1" style="stop-color:#903E55"/>
</linearGradient>
<path class="st5" d="M268.8,376.9c-7.4,11.9-31.2,9.4-31.2,9.4c2.1-8-1.4-19.4-1.4-19.4s18.8,2.1,26.6-7.3
	C262.9,359.7,271.8,367.1,268.8,376.9z"/>
<path class="st6" d="M268.8,376.9c-7.4,11.9-31.2,9.4-31.2,9.4c2.1-8-1.4-19.4-1.4-19.4s18.8,2.1,26.6-7.3
	C262.9,359.7,271.8,367.1,268.8,376.9z"/>
<path class="st7" d="M268.9,376.9c-0.1,0.8-0.3,1.5-0.5,2.3c-7.4,11.9-31.2,9.4-31.2,9.4c0.2-0.7,0.3-1.5,0.4-2.3"/>
<line class="st7" x1="242.1" y1="357.5" x2="243.5" y2="366.9"/>
<polyline class="st7" points="249.9,366.3 248.3,352.4 251.8,352.4 252.9,365.6 "/>
<line class="st7" x1="256.6" y1="357.5" x2="257.7" y2="363.7"/>
<line class="st8" x1="215" y1="258.2" x2="212.8" y2="252"/>
<line class="st8" x1="184.4" y1="252" x2="182.2" y2="258.2"/>
<g>
	<g>
		<path class="st3" d="M212.3,216.3c1.1-2.8,2.9-5.2,5.3-7.2c2.4-1.9,5.5-3.3,8.9-3.3c3.4-0.1,6.6,1.3,8.9,3.3
			c2.4,2,4.2,4.5,5.3,7.2c-2.4-1.7-4.6-3.4-7-4.7c-1.2-0.6-2.4-1.1-3.5-1.4c-1.2-0.3-2.4-0.5-3.6-0.5c-2.4,0-4.8,0.8-7.2,2
			C217,212.9,214.7,214.5,212.3,216.3z"/>
	</g>
	<g>
		<path class="st3" d="M226.5,207.8c1.1-1.5,2.1-2.7,2.8-3.9c0.4-0.6,0.7-1.3,0.9-2c0.3-0.7,0.4-1.5,0.6-2.4
			c0.6,0.7,0.9,1.7,0.9,2.6c0,1-0.2,1.9-0.7,2.8c-0.5,0.8-1.1,1.5-1.9,2.1C228.3,207.3,227.5,207.7,226.5,207.8z"/>
	</g>
	<g>
		<path class="st3" d="M231.6,208.8c1-1.5,2.1-2.7,3.1-3.8c0.5-0.6,1-1.2,1.5-1.8c0.5-0.6,0.9-1.2,1.5-2c0.3,0.9,0.2,1.9-0.1,2.7
			c-0.3,0.9-0.8,1.7-1.4,2.3c-0.6,0.7-1.3,1.2-2.1,1.7C233.4,208.4,232.6,208.7,231.6,208.8z"/>
	</g>
	<g>
		<path class="st3" d="M237.7,213c1.2-1.5,2.6-2.7,3.7-3.9c0.6-0.6,1.2-1.2,1.7-1.8c0.5-0.7,0.9-1.3,1.4-2.3c0.4,0.9,0.4,2,0,3
			c-0.3,1-1,1.8-1.6,2.5c-0.7,0.7-1.5,1.3-2.4,1.7C239.6,212.6,238.7,212.9,237.7,213z"/>
	</g>
</g>
<g>
	<g>
		<path class="st3" d="M184.4,216.3c-2.3-1.8-4.6-3.4-7-4.6c-2.4-1.2-4.8-2-7.2-2c-1.2,0-2.4,0.1-3.6,0.5c-1.2,0.3-2.4,0.8-3.5,1.4
			c-2.4,1.2-4.6,2.9-7,4.7c1.1-2.8,2.9-5.3,5.3-7.2c2.4-2,5.6-3.4,8.9-3.3c3.3,0,6.5,1.4,8.9,3.3
			C181.5,211.1,183.4,213.5,184.4,216.3z"/>
	</g>
	<g>
		<path class="st3" d="M170.2,207.8c-0.9,0-1.8-0.4-2.6-0.9c-0.8-0.5-1.4-1.2-1.9-2.1c-0.5-0.8-0.7-1.8-0.7-2.8c0-1,0.3-1.9,0.9-2.6
			c0.3,0.9,0.4,1.7,0.6,2.4c0.2,0.7,0.5,1.4,0.9,2C168.2,205.1,169.2,206.3,170.2,207.8z"/>
	</g>
	<g>
		<path class="st3" d="M165.1,208.8c-0.9-0.1-1.8-0.4-2.5-0.8c-0.8-0.4-1.5-1-2.1-1.7c-0.6-0.7-1.1-1.5-1.4-2.3
			c-0.3-0.9-0.4-1.9-0.1-2.7c0.5,0.8,1,1.4,1.5,2c0.5,0.6,1,1.2,1.5,1.8C163,206.1,164.1,207.3,165.1,208.8z"/>
	</g>
	<g>
		<path class="st3" d="M159,213c-1-0.1-1.9-0.4-2.8-0.8c-0.9-0.4-1.7-1-2.4-1.7c-0.7-0.7-1.3-1.5-1.6-2.5c-0.3-1-0.4-2.1,0-3
			c0.4,0.9,0.8,1.6,1.4,2.3c0.5,0.7,1.1,1.2,1.7,1.8C156.5,210.3,157.8,211.4,159,213z"/>
	</g>
</g>
<g class="st9">
	<path class="st3" d="M207.8,224.3c0.2,0.5,0.2,1.1,0.1,1.7c-0.1,0.6-0.3,1.1-0.6,1.6c-0.5,1-1.3,1.8-2.2,2.5
		c-1.7,1.4-4,2.2-6.3,2.2c-2.3,0-4.6-0.8-6.3-2.2c-0.9-0.7-1.6-1.5-2.2-2.5c-0.3-0.5-0.5-1-0.6-1.6c-0.1-0.6-0.2-1.2,0.1-1.7
		c0.6,0.9,1.4,1.3,2.1,1.7c0.8,0.4,1.6,0.7,2.3,0.9c1.6,0.5,3.1,0.7,4.5,0.7c1.5,0,3-0.2,4.5-0.7c0.8-0.2,1.6-0.5,2.3-0.9
		C206.4,225.5,207.2,225.2,207.8,224.3z"/>
</g>
<g>
	<path class="st3" d="M170.4,318.4c0.5,0.7,0.9,1.4,1.4,2.1c0.5,0.7,1,1.3,1.6,2l1.7,1.9l1.8,1.8c2.4,2.4,4.8,4.7,7.3,7
		c2.5,2.2,5,4.5,7.6,6.7c2.6,2.2,5.1,4.4,7.7,6.5h-1.9c2.6-2.1,5.2-4.3,7.7-6.5c2.6-2.2,5.1-4.4,7.6-6.7c2.5-2.3,5-4.6,7.3-7
		l1.8-1.8l1.7-1.9c0.6-0.6,1.1-1.3,1.6-2c0.5-0.7,0.9-1.4,1.4-2.1c-0.3,0.8-0.6,1.6-1,2.3c-0.4,0.7-0.8,1.5-1.3,2.2L223,325l-1.6,2
		c-2.1,2.7-4.4,5.2-6.8,7.7c-2.4,2.5-4.9,4.8-7.3,7.1c-2.5,2.3-5.1,4.5-7.7,6.7c-0.6,0.5-1.4,0.4-1.9,0c-2.6-2.2-5.2-4.4-7.7-6.7
		c-2.5-2.3-5-4.7-7.3-7.1c-2.4-2.4-4.7-5-6.8-7.7l-1.6-2l-1.5-2.1c-0.5-0.7-0.9-1.5-1.3-2.2C171,319.9,170.8,319.1,170.4,318.4z"/>
</g>
<linearGradient id="SVGID_4_" gradientUnits="userSpaceOnUse" x1="182.9304" y1="250.1138" x2="214.2597" y2="250.1138">
	<stop  offset="0" style="stop-color:#7D324E"/>
	<stop  offset="1" style="stop-color:#903E55"/>
</linearGradient>
<path class="st10" d="M198.6,255.5c-8.6,0-15.7-2.7-15.7-6c5-4.3,7.1-4.7,7.1-4.7c2,3.2,8.6,3.8,8.6,3.8h0c0,0,6.6-0.6,8.6-3.8
	c0,0,2.1,0.5,7.1,4.7C214.3,252.8,207.3,255.5,198.6,255.5L198.6,255.5z"/>
<linearGradient id="SVGID_5_" gradientUnits="userSpaceOnUse" x1="181.9881" y1="265.7109" x2="215.202" y2="265.7109">
	<stop  offset="0" style="stop-color:#7D324E"/>
	<stop  offset="1" style="stop-color:#903E55"/>
</linearGradient>
<path class="st11" d="M182.2,258.2c-0.5,2.6,0.1,5,1.2,7.1c2.6,5,8,7.9,13.6,7.9h1.7h0h1.7c5.6,0,11-2.9,13.6-7.9
	c1.1-2.1,1.7-4.5,1.2-7.1l0,0c-2.8,2.8-9.1,4.7-16.4,4.7h0C191.2,262.9,184.9,261,182.2,258.2"/>
</svg>
