<?xml version="1.0" encoding="utf-8"?>
<!-- Generator: Adobe Illustrator 22.0.1, SVG Export Plug-In . SVG Version: 6.00 Build 0)  -->
<svg version="1.1" id="Layer_1" xmlns="http://www.w3.org/2000/svg" xmlns:xlink="http://www.w3.org/1999/xlink" x="0px" y="0px"
	 viewBox="0 0 400 400" style="enable-background:new 0 0 400 400;" xml:space="preserve">
<style type="text/css">
	.st0{fill:none;}
	.st1{opacity:0.1;}
	.st2{fill:#903E55;}
	.st3{opacity:0.1;fill:#903E55;enable-background:new    ;}
	
		.st4{opacity:0.75;fill:none;stroke:#903E55;stroke-width:0.334;stroke-linecap:round;stroke-linejoin:round;enable-background:new    ;}
	.st5{opacity:0.22;}
	.st6{fill:none;stroke:#903E55;stroke-width:1.5477;stroke-linecap:round;stroke-linejoin:round;}
	.st7{opacity:0.25;}
	.st8{fill:none;stroke:#903E55;stroke-width:1.3533;stroke-linecap:round;stroke-linejoin:round;}
	
		.st9{opacity:0.66;fill:none;stroke:#FFFFFF;stroke-width:1.3359;stroke-linecap:round;stroke-linejoin:round;enable-background:new    ;}
	.st10{opacity:0.49;fill:#903E55;enable-background:new    ;}
</style>
<rect x="3.8" y="0.5" class="st0" width="395.7" height="395.7"/>
<g id="XMLID_3_" class="st1">
	<g>
		<path class="st2" d="M284.7,251l-0.2,11.2l0,0l-18.7-5.4c-12.1-3.5-24.9-0.4-34.1,8c-8.3-13.8-17.8-26.8-28.7-38.2
			c13.3,1.9,15.7-4,15.7-4l41,5.2l0,0c0.9,2.9,1.7,5.5,2.5,7.9c2,6.4,6.4,11.8,12.5,14.7c1.4,0.7,2.6,1.2,3.5,1.2
			C278.7,251.8,281.2,251.5,284.7,251z"/>
		<path class="st2" d="M220.1,284L198,360.5l-2.9-0.9l-11-17.2l-41.9-2.1c-4.7-7.1-5.9-22.7-5.9-22.7l-0.1-0.7
			c32.9-10.2,69.3-28.7,87.6-38.5L220.1,284z"/>
	</g>
</g>
<g>
	<path class="st2" d="M218.8,222.7c6.9,0.4,13.8,1.1,20.6,2s13.7,1.9,20.4,3.3c-6.9-0.4-13.8-1.1-20.6-2
		C232.3,225.1,225.5,224.1,218.8,222.7z"/>
</g>
<path class="st3" d="M241.8,143.3c0.6,1.7-3.8,4.7-9.7,6.8s-11.3,2.5-11.9,0.8c-0.6-1.7,3.8-4.7,9.7-6.8
	C236,141.9,241.2,141.6,241.8,143.3z"/>
<path class="st3" d="M182.5,159c0.4,1.7-4.4,4.3-10.5,5.6c-6.1,1.4-11.5,1.1-11.9-0.7c-0.4-1.7,4.4-4.3,10.5-5.6
	S182.1,157.3,182.5,159z"/>
<g>
	<path class="st2" d="M218.8,222.7c-0.6,1.4-1.9,2.4-3.2,3.1c-1.4,0.7-2.8,1.1-4.3,1.3c-0.7,0.1-1.5,0.1-2.3,0.2c-0.8,0-1.5,0-2.3,0
		c-0.7-0.1-1.5-0.1-2.2-0.2l-2.2-0.4l2.2,0.2c0.7,0.1,1.5,0.1,2.2,0.1h2.2c0.7-0.1,1.5-0.1,2.2-0.2c1.5-0.2,2.9-0.6,4.2-1.2
		c0.7-0.3,1.3-0.7,1.9-1.1C217.9,223.9,218.4,223.3,218.8,222.7z"/>
</g>
<g>
	<path class="st2" d="M142,97.6c6.1-0.8,12.3-2.2,18.2-4s11.8-4,17.3-6.7l2.1-1.1l2-1.2l4.1-2.3c2.8-1.5,5.6-2.7,8.7-3.7
		c6-1.8,12.5-2.5,18.7-1.7c6.2,0.7,12.4,2.9,17.8,5.9c5.5,3.1,10.5,7,14.9,11.5c8.9,8.9,15.6,19.7,20.9,31l0,0l0,0
		c0.9,3.2,1.5,6.4,1.7,9.7c0.3,3.3,0.1,6.6-1,9.8c-0.6,1.6-1.7,2.9-2.6,4.2c-0.8,1.4-1.3,3-1.5,4.6c-0.4,3.2,0.4,6.5,1.8,9.5
		c-1.5-2.9-2.4-6.2-2.1-9.5c0.2-1.7,0.6-3.3,1.4-4.7c0.9-1.5,1.9-2.7,2.4-4.2s0.8-3.1,0.9-4.7c0.1-1.6,0.1-3.3-0.1-4.8
		c-0.3-3.2-0.9-6.4-1.8-9.5v0.1c-2.7-5.6-5.7-11-9.2-16.1s-7.3-10-11.7-14.3c-4.4-4.4-9.3-8.2-14.6-11.2S219,79.1,213,78.4
		c-6.1-0.8-12.4-0.2-18.2,1.5c-3,0.9-5.8,2.1-8.5,3.5l-4.1,2.2l-2.1,1.1l-2.1,1c-5.6,2.7-11.5,4.8-17.5,6.4
		C154.4,95.9,148.2,97.1,142,97.6z"/>
</g>
<path class="st4" d="M210.1,175.5c0,0.7,0.2,2,0.5,4.3L210.1,175.5z"/>
<g class="st5">
	<path class="st2" d="M207.3,150.8c0.5,0.8,0.6,1.8,0.4,2.8s-0.7,1.9-1.3,2.7c-1.3,1.5-3.1,2.6-4.9,3c-1.9,0.4-3.9,0.3-5.6-0.5
		c-0.9-0.4-1.7-0.9-2.4-1.6s-1.2-1.5-1.4-2.4c1.6,0.9,3.1,1.1,4.5,1.2c1.4,0.1,2.8,0,4.2-0.3s2.6-0.8,3.8-1.5
		C205.6,153.3,206.6,152.5,207.3,150.8z"/>
</g>
<path class="st3" d="M146,264.4c0.3,1.1-3.6,3-8.6,4.1c-4.9,1.1-9.2,1.1-9.5,0s3.6-3,8.6-4.1C141.6,263.4,145.8,263.4,146,264.4z"/>
<path class="st3" d="M75.6,280.1c0.3,1.1,4.5,1.1,9.5,0c4.9-1.1,8.8-2.9,8.6-4.1c-0.3-1.1-4.5-1.1-9.5,0S75.4,279,75.6,280.1z"/>
<path class="st4" d="M128.4,296.3l-3.2-7.7"/>
<path class="st4" d="M107.5,292.5l0.4,8.3"/>
<g>
	<path class="st2" d="M109.2,345.8l0.8,0.6l0,0c2.8,0.8,5.6,1.3,8.5,1.6c2.9,0.3,5.7,0.4,8.5,0c2.8-0.3,5.5-1.1,8.1-2.3
		c2.6-1.2,4.8-3,6.9-5l0,0l0,0l0.4-0.2l-0.3,0.3l0,0c-1.6,2.5-3.8,4.6-6.4,6c-2.6,1.5-5.5,2.4-8.5,2.8c-3,0.3-6,0.2-8.9-0.3
		c-3-0.5-5.7-1.4-8.4-2.7l0,0l0,0L109.2,345.8z"/>
</g>
<path class="st6" d="M100.3,207.5c0,0,77.8-33.4,114.3,76.4"/>
<path class="st6" d="M89.7,209.8c-13.5,5.2-67.8,31.6-55.4,118.5"/>
<path class="st2" d="M140,247.1c-0.1,0.8-0.3,1.3-0.6,1.9c-0.2,0.5-0.6,1.1-0.9,1.6c-0.6,0.9-1.2,1.8-1.7,2.8
	c-0.8-0.7-1.7-1.3-2.7-1.8c-0.3-0.2-0.7-0.3-1-0.5l0,0c0.5-0.5,1-1,1.3-1.6s0.5-1.3,0.6-2s0-1.4-0.4-2c-0.3,0.7-0.6,1.2-0.8,1.7
	l-0.8,1.5c-0.3,0.6-0.7,1.3-1,2c-0.7-0.2-1.5-0.3-2.2-0.4c0.2-0.3,0.4-0.7,0.5-1.1c0.3-0.7,0.3-1.5,0.1-2.2
	c-0.1-0.7-0.6-1.4-1.1-1.8c0,0.7,0,1.3-0.1,1.9c0,0.6-0.1,1.1-0.3,1.6s-0.4,1-0.6,1.6c-0.4,0-0.7,0.1-1.1,0.2
	c-2.3,0.6-4.4,2.1-5.8,3.9c-1.5,1.8-2.4,3.9-2.7,6.1c1.5-1.7,2.9-3.2,4.4-4.3c1.4-1.3,3.1-2.2,4.8-2.6c1.7-0.4,3.6-0.3,5.4,0.2
	s3.7,1.3,5.8,2.2c-0.5-0.9-1.1-1.6-1.8-2.3c0.4-0.2,0.7-0.5,1-0.8c0.6-0.4,1.1-1,1.5-1.6s0.7-1.3,0.8-2.1
	C140.6,248.5,140.5,247.7,140,247.1z"/>
<path class="st2" d="M93.6,260.5c-2-1-4.4-1.5-6.9-1c-0.4,0.1-0.8,0.2-1.2,0.4c-0.4-0.4-0.8-0.8-1.1-1.2c-0.4-0.4-0.7-0.8-1-1.3
	s-0.5-1.1-0.9-1.7c-0.3,0.7-0.5,1.4-0.3,2.1c0.2,0.7,0.5,1.4,1,1.9c0.2,0.3,0.5,0.6,0.9,0.8c-0.6,0.4-1.2,0.8-1.7,1.2
	c-0.6-0.5-1.3-0.9-1.8-1.5l-1.4-1c-0.4-0.3-0.9-0.7-1.4-1.2c-0.1,0.7,0.1,1.4,0.5,2s0.9,1.1,1.4,1.5c0.6,0.4,1.2,0.7,1.8,0.9h0.1
	c-0.3,0.3-0.5,0.6-0.7,0.9c-0.7,0.9-1.2,1.8-1.7,2.8c-0.9-0.7-1.9-1.2-2.7-1.7c-0.5-0.4-1-0.7-1.5-1.1s-0.9-0.8-1.4-1.4
	c-0.2,0.7,0,1.5,0.4,2.2s1,1.2,1.6,1.6s1.3,0.6,2,0.8c0.4,0.1,0.9,0.2,1.4,0.2c-0.3,0.9-0.6,1.8-0.7,2.7c1.5-1.7,3-3.3,4.4-4.5
	s3.1-2.1,4.8-2.5c1.6-0.3,3.5-0.2,5.4,0.3c1.8,0.5,3.8,1.3,5.8,2.2C97.4,263.2,95.6,261.7,93.6,260.5z"/>
<g class="st7">
	<path class="st2" d="M117.7,270.2c0.3,0.3,0.4,0.8,0.5,1.2c0,0.4,0,0.9-0.1,1.3c-0.2,0.8-0.6,1.6-1.1,2.3c-1,1.4-2.6,2.4-4.4,2.8
		s-3.6,0.1-5.1-0.7c-0.8-0.4-1.5-0.9-2-1.6c-0.3-0.3-0.5-0.7-0.7-1.1s-0.3-0.9-0.1-1.3c0.7,0.5,1.3,0.6,1.9,0.7s1.2,0.1,1.8,0.2
		c1.2,0,2.2-0.1,3.2-0.3c1-0.2,2-0.6,3.1-1.1c0.5-0.3,1.1-0.6,1.6-0.9C116.8,271.3,117.3,271,117.7,270.2z"/>
</g>
<path class="st2" d="M90.1,390.9c-0.3-0.7-0.7-1.5-1.1-2.2c-0.3-0.6-0.7-1.2-1.1-1.7c0.2-0.5,0.4-1.1,0.6-1.6
	c0.7-1.7,1.3-3.4,1.9-5.2c0.6-1.6,1.1-3.4,1.5-5.3c-0.9,1.6-1.8,3.3-2.6,4.9s-1.5,3.4-2.2,5.1s-1.3,3.4-1.9,5.2
	c-0.6,1.6-1.1,3.4-1.5,5.3c1-1.5,1.8-3.2,2.6-4.9c0.4-0.9,0.9-1.8,1.3-2.8c0,0.5,0.1,1,0.2,1.5c0.1,0.8,0.4,1.5,0.7,2.3
	c0.3,0.7,0.7,1.5,1.1,2.2s0.9,1.4,1.5,2c0-0.9-0.1-1.7-0.3-2.5C90.7,392.4,90.4,391.7,90.1,390.9z"/>
<path class="st2" d="M186.8,395.5c-3.1-5.4-6.4-10.7-9.9-15.8c-3.6-5-7.1-10.2-11.2-14.9c2.2,3.9,4.6,7.7,7,11.5
	c-0.3,1.4-0.6,2.7-0.8,4c-0.3,1.6-0.4,3.3-0.6,5c-0.2,1.6-0.3,3.3-0.3,5s0,3.4,0.2,5.1c0.5-1.6,0.8-3.3,1.1-5c0.3-1.6,0.4-3.3,0.6-5
	c0.2-1.6,0.3-3.3,0.3-5c0-1.2,0-2.3-0.1-3.5c0.8,1.2,1.6,2.5,2.5,3.7C179.2,385.6,182.7,390.8,186.8,395.5z"/>
<line class="st8" x1="284.7" y1="251" x2="284.4" y2="265"/>
<line class="st8" x1="320" y1="243.4" x2="321.3" y2="273.8"/>
<path class="st2" d="M348.3,195.7c0-0.3,0-0.6-0.1-1c0-0.2,0-0.4-0.1-0.6c0-0.1,0-0.3-0.1-0.4c-0.1-0.1-0.1-0.3-0.4-0.6
	c0-0.1-0.2-0.2-0.3-0.3c-0.2-0.2-0.4-0.3-0.7-0.3c-0.4-0.1-0.7,0-0.9,0.1l-0.2,0.1l-0.2,0.1l-0.4,0.1l-0.8,0.3l-1.6,0.6
	c-0.1,0-0.2,0.1-0.3,0.1c0-0.1,0-0.1,0-0.2c-0.2-1.2-0.6-2.2-1.1-3.1c-0.9-1.7-2-3.3-3.1-4.8s-2.2-3-3.3-4.4
	c-1.1-1.5-2.2-2.9-3.2-4.3c-1-1.5-1.9-2.9-2.7-4.4c-0.2-0.4-0.3-0.7-0.5-1.1l-0.5-1.2c-0.4-1-0.9-1.9-1.5-2.8
	c-1.1-1.8-2.7-3.4-4.7-4.4c-1.8-1-4-1.5-6.1-1.6h-1.6l-1.4,0.1H310c-0.5,0-0.9-0.1-1.3-0.1l-1.4-0.1l-2.7-0.2
	c-3.5-0.1-7-0.7-10.4-1.5c-3.5-0.8-6.8-2-10-3.3s-6.2-3.3-8.7-5.9c-0.1,0-0.2,0-0.1,0.1c0,0.1,0,0.1,0,0.2c2.2,2.8,5.1,5,8.3,6.8
	c3.3,1.8,6.6,3.1,10.1,4.1c3.5,0.9,7,1.6,10.6,2c1.7,0.2,3.5,0.5,5.3,0.6h2.8c0.9-0.1,1.8-0.2,2.7-0.1c1.7,0.1,3.4,0.6,5,1.4
	c1.6,0.9,2.9,2.1,3.9,3.6c0.4,0.8,0.9,1.6,1.2,2.4c0.3,0.8,0.7,1.7,1.1,2.5c0.8,1.6,1.8,3.1,2.9,4.6c2,3,4.4,5.6,6.6,8.5
	c1.1,1.5,2.1,2.9,3,4.5c0.5,0.8,0.8,1.6,1,2.5c0,0.1,0.1,0.3,0.1,0.4c-0.3,0.1-0.5,0.2-0.8,0.2l0.8,1c-0.1,0.3-0.2,0.6-0.4,0.9
	c0,0.1,0,0.1,0,0.2c0.1,0.1,0.2,0.1,0.3,0.1c0.3-0.1,0.5-0.2,0.8-0.3l0.7,0.9c0.3-0.4,0.5-0.9,0.7-1.4c0.4-0.1,0.8-0.3,1.1-0.4
	l1.6-0.7l1-0.3l0.4-0.2l0.2-0.1c0.1,0.1,0.1,0.4,0.2,0.7c0,0.2,0.1,0.5,0.1,0.8c0,0.5,0.1,1.1,0.1,1.7v3.5
	c-0.2,4.6-0.8,9.1-2.1,13.6c-1.3,4.4-3.1,8.7-6.2,12.1c-1.5,1.7-3.3,3.1-5.4,4.1c-2,0.9-4.3,1.5-6.6,1.6c0,0-0.1,0-0.1,0.1
	c0,0,0,0.1,0.1,0.1c2.2,0,4.6-0.5,6.8-1.4c2.1-0.9,4-2.4,5.7-4.1c3.2-3.5,5.3-7.8,6.8-12.3s2.2-9.2,2.5-13.9
	c0.1-1.2,0.1-2.4,0.1-3.6C348.4,196.9,348.4,196.3,348.3,195.7z"/>
<g class="st7">
	<path class="st2" d="M276.4,193.1c-1.6,1.5-3.2,3-4.3,4.5c-0.6,0.8-1,1.5-1.1,2.2s0,1.1,0.3,1.7c0.9,1.6,2,3.1,3.3,4.5
		c1.3,1.3,2.8,2.5,4.8,3.4c-2.2,0.9-4.7,0.3-6.7-0.9c-2.1-1.3-3.7-3.2-4.6-5.2c-0.3-0.6-0.6-1.4-0.6-2.2s0.1-1.6,0.4-2.3
		c0.6-1.4,1.5-2.3,2.4-3s1.9-1.3,3-1.7C274.3,193.5,275.3,193.2,276.4,193.1z"/>
</g>
<g>
	<path class="st2" d="M321.2,272.4c9.2,1.9,18.3,4.3,27.4,6.6c2.3,0.6,4.6,1.2,6.8,1.9c1.1,0.3,2.3,0.6,3.5,1s2.4,0.9,3.5,1.4
		c4.6,2.2,8.4,5.6,11.2,9.9c1.4,2.1,2.5,4.5,3.2,6.8c0.4,1.2,0.7,2.5,0.9,3.7c0.2,1.2,0.5,2.3,0.7,3.5c0.8,4.6,1.7,9.2,2.5,13.9
		c1.6,9.3,3,18.6,4,27.9c-2.7-9-4.9-18.2-7-27.3c-1.1-4.6-2.1-9.2-3.1-13.8c-0.3-1.2-0.5-2.3-0.7-3.5c-0.3-1.1-0.5-2.2-0.9-3.2
		c-0.7-2.1-1.7-4.1-2.9-5.8c-2.4-3.7-5.6-6.6-9.5-8.7c-1-0.5-2-1-3-1.4l-1.6-0.6l-1.7-0.5c-2.3-0.7-4.5-1.5-6.7-2.2
		C338.9,279.1,330.1,275.9,321.2,272.4z"/>
</g>
<g>
	<path class="st2" d="M231.7,264.8c1.5-1.9,3.2-3.6,5-5c2-1.4,4.1-2.7,6.2-3.7c4.5-2,9.5-2.9,14.3-2.7c2.5,0.1,4.9,0.5,7.3,1.1
		l1.8,0.5l1.7,0.6c1.1,0.4,2.2,0.8,3.3,1.2c4.4,1.6,8.8,3.3,13.1,5.4c-4.7-0.5-9.3-1.4-13.9-2.4c-1.2-0.3-2.3-0.5-3.5-0.8l-1.7-0.4
		l-1.6-0.4c-2.2-0.4-4.4-0.8-6.5-0.8c-4.5-0.2-8.8,0.4-13.2,1.6c-2.2,0.7-4.3,1.4-6.3,2.4C235.7,262.5,233.7,263.7,231.7,264.8z"/>
</g>
<g>
	<path class="st2" d="M197.7,360.2c1.2-7,2.7-13.9,4.4-20.9c1.7-6.9,3.5-13.8,5.4-20.5c2-6.8,4.1-13.6,6.3-20.3
		c2.3-6.7,4.6-13.4,7.4-20c-1.2,7-2.7,13.9-4.4,20.9c-1.7,6.9-3.5,13.8-5.4,20.5c-2,6.8-4.1,13.6-6.3,20.3
		C202.8,346.9,200.5,353.7,197.7,360.2z"/>
</g>
<path class="st2" d="M240.8,323.3c-0.4,0.7-0.7,1.5-1,2.2l0.4-20.4c0-0.1-0.1-0.2-0.2-0.2c0,0-0.1,0-0.1,0.1l-1.5,22.7v0.7
	c-0.5,1-0.9,1.9-1.5,2.9l-3.6,8c-2.4,5.3-4.7,10.7-7,16.1c-2.2,5.4-4.5,10.9-6.7,16.3l-3.3,8.2c-1,2.7-2.1,5.4-3.1,8.2
	c1.3-2.7,2.5-5.3,3.8-8l3.6-8c2.4-5.3,4.7-10.7,7-16.1c2.2-5.4,4.5-10.9,6.7-16.3l3.3-8.2c0.2-0.5,0.4-1.1,0.7-1.6l-1.3,20.5
	c-0.5,7.7-1.2,15.2-1.3,22.7c-0.2,7.6-0.2,15.1,0.2,22.7c0,0,0,0.1,0.1,0.1s0.2,0,0.2-0.1c1.1-7.6,1.7-15.1,2.2-22.6
	c0.5-7.6,0.5-15.2,0.7-22.7l0.6-22.7v-1.6C240.1,325.2,240.5,324.3,240.8,323.3z"/>
<path class="st2" d="M360.9,386.1l-3.2-8.9l-12.6-35.6l-3.2-8.9c-1.5-2.9-2.9-5.7-4.5-8.5c0.5,3.2,1.2,6.3,1.9,9.4l3.2,8.9l1.8,5.1
	c-0.4,7.5-0.6,14.9-0.6,22.3c0,8.5,0.1,17.1,0.6,25.6c0.6-8.5,0.8-17.1,0.8-25.6c0-7-0.1-14.1-0.4-21.1l4.1,11.5l6.3,17.8l3.2,8.9
	c1.5,2.9,2.9,5.7,4.5,8.5C362.3,392.3,361.6,389.2,360.9,386.1z"/>
<g>
	<path class="st2" d="M322.6,272.9c-1.3,1.5-3.1,2.6-4.8,3.5s-3.8,1.6-5.7,2c-2,0.5-4.1,0.6-6,0.7c-2.1,0-4.1-0.3-6.1-0.7
		c-2-0.5-4-1.2-5.8-2.1c-1.9-0.9-3.6-2.1-5.1-3.5c-1.6-1.4-2.9-3-3.9-4.7c-0.5-0.9-0.9-1.9-1-2.9c-0.2-1-0.2-2.2,0.4-3
		c-0.3,1,0,1.9,0.3,2.8c0.1,0.4,0.4,0.9,0.6,1.3c0.3,0.4,0.5,0.8,0.8,1.2c1.1,1.5,2.6,2.8,4.1,3.9c3.1,2.2,6.5,3.7,10.2,4.5
		c3.7,0.9,7.4,1,11.2,0.6c1.9-0.2,3.8-0.6,5.6-1.1C319.2,274.5,321,273.8,322.6,272.9z"/>
</g>
<path class="st3" d="M305.3,217.5c-0.7,1.3-4.5,0.7-8.4-1.4c-4-2.1-6.6-4.8-5.9-6.1s4.5-0.7,8.4,1.4
	C303.3,213.5,306,216.3,305.3,217.5z"/>
<path class="st3" d="M256,194c3.3,2.2,6.7,5.8,6.1,7c-0.6,1.1-4.9,0.1-8.5-1.4"/>
<path class="st2" d="M275.2,185.7c-0.2-0.7-0.5-1.4-0.9-2.1c-0.9-1.3-2-2.6-3.6-3.3c-0.2-0.1-0.5-0.2-0.7-0.3c0-0.5,0-1,0.1-1.4
	c0-0.5,0.1-0.9,0.3-1.4c0.2-0.4,0.5-0.9,0.9-1.5c-0.7-0.1-1.4,0.2-1.9,0.7s-0.8,1.3-0.9,2c-0.1,0.4,0,0.9,0,1.3
	c-0.9-0.1-1.9,0-2.7,0.2c-0.4,0.1-0.8,0.3-1.2,0.4c-0.3-0.8-0.4-1.6-0.5-2.5c0-0.6,0.1-1.2,0.1-1.9c0-0.3,0.1-0.6,0.1-1
	c0.1-0.3,0.1-0.7,0.1-1.1c-0.3,0.2-0.5,0.5-0.8,0.8c-0.2,0.3-0.4,0.7-0.6,1c-0.3,0.7-0.5,1.5-0.5,2.3s0.2,1.6,0.7,2.3
	c0.1,0.2,0.3,0.4,0.6,0.6c-0.4,0.3-0.8,0.7-1.1,1.1c-0.4,0.1-0.9,0.1-1.2,0c-0.6-0.1-1.1-0.5-1.6-0.9c-0.5-0.5-1-1-1.5-1.6
	s-1-1.2-1.7-1.8c0,0.9,0.2,1.7,0.6,2.5c0.3,0.8,0.8,1.5,1.5,2.1s1.7,1.1,2.7,1c0.4,0,0.8-0.2,1.2-0.4c1.4-0.1,2.6,0,3.5,0.2
	c1.1,0.2,2.1,0.5,3,0.9s1.8,1,2.9,1.7c0.5,0.3,1,0.7,1.6,1.1c0.6,0.4,1.2,0.8,1.9,1.2C275.5,187.1,275.4,186.4,275.2,185.7z"/>
<path class="st2" d="M312.3,202.4c-0.9,0-1.8,0.1-2.6,0.1s-1.6,0-2.4-0.2c-0.3-0.1-0.6-0.2-0.9-0.3l0,0c-0.1-0.6-0.1-1.1-0.2-1.6
	c0-0.5-0.1-0.9-0.3-1.4c0.3,0,0.6,0,0.9,0c0.6,0,1.3-0.2,1.9-0.5s1.1-0.7,1.6-1.2c-0.7-0.1-1.3,0-1.9,0s-1.1,0.1-1.7,0.1
	c-0.5,0-0.9,0.1-1.3,0.1c-0.5-1.2-1.3-2.4-2.3-3.4c0.8-0.2,1.7-0.5,2.4-0.9c0.8-0.4,1.4-1.1,1.9-1.8c-0.8,0.2-1.5,0.4-2.3,0.6
	c-0.7,0.1-1.5,0.3-2.2,0.4c-0.5,0.1-1,0.1-1.5,0.2c-1.4-1-3.1-1.6-4.8-1.8c-2-0.2-4.2,0.1-6,1.2c2,0.5,3.6,1.1,5.1,1.7
	c1.5,0.8,2.9,1.6,4.1,2.7c0.4,0.2,0.6,0.5,0.9,0.8c0.1,0.1,0.3,0.2,0.4,0.4s0.3,0.3,0.4,0.5c0.3,0.4,0.6,0.6,0.8,1
	c0.2,0.4,0.4,0.7,0.7,1.1c0.3,0.3,0.5,0.7,0.7,1.1c0.3,0.4,0.5,0.8,0.8,1.2c0.5,0.9,1,1.7,1.6,2.6c0.1-0.6,0.2-1.3,0.3-1.9
	c0.1,0.1,0.3,0.2,0.4,0.3c0.9,0.5,1.9,0.7,2.9,0.7s1.9-0.2,2.8-0.5s1.7-0.7,2.5-1.3C314.1,202.3,313.2,202.4,312.3,202.4z"/>
<line class="st9" x1="160.7" y1="308.7" x2="167.3" y2="341.6"/>
<path class="st10" d="M116.9,292.7c-5.4,1.2-10.2,0.5-10.7-1.6c2.6-3.4,3.8-4,3.8-4c1.7,1.8,5.9,1.2,5.9,1.2l0,0
	c0,0,4.1-1.3,4.8-3.6c0,0,1.4,0,5.1,2C126.3,288.9,122.3,291.5,116.9,292.7"/>
<path class="st10" d="M107.9,300.8c0.1,1.7,0.8,3.2,1.8,4.3c2.3,2.8,6.1,3.9,9.6,3.1l1.1-0.2l0,0l1.1-0.2c3.6-0.8,6.5-3.4,7.4-6.8
	c0.4-1.5,0.4-3.1-0.2-4.6c-1.3,2.1-5,4.3-9.6,5.2l0,0C114.2,302.5,109.9,302.2,107.9,300.8"/>
<line class="st4" x1="195.9" y1="176.2" x2="196.6" y2="180.8"/>
<path class="st10" d="M212.1,184.8c-6,7.7-16.2,0.8-16.2-4.3c2.3,1.2,10.2,3.3,14.5-0.9C210.4,179.7,214.5,181.8,212.1,184.8z"/>
<path class="st10" d="M192.7,175.2c5.9,2.7,18.9,2,19.7-2c0.9-4.6-4.6-6.4-4.6-6.4l-3.7,3.7l-4.6-1.9L192.7,175.2L192.7,175.2z"/>
<g>
	<path class="st0" d="M278.6,223c-1.3,0.1-2.5,0.1-3.8,0.1h-1.6c-0.1,0-0.3,0-0.4-0.1c-1-0.3-1.5-0.8-2.1-1.3
		c-0.8-0.8-1.4-1.7-2-2.5c0,2.6,0.3,5.2,0.8,7.6c0.2,1,0.5,1.9,0.8,2.8c0.3,0.9,0.8,1.6,1.4,2.4c0.3,0.4,0.6,0.7,0.9,1.1
		c0.3,0.3,0.7,0.6,1,0.9c0.7,0.5,1.5,0.9,2.3,1s1.7,0,2.6-0.2c0.9-0.3,1.7-0.7,2.6-1.2c1.6-1.1,3.2-2.5,4.6-4c2.6-3,5-6.5,7.3-10.1
		c-2.2,1.3-4.6,2.1-7,2.6C283.5,222.6,281.1,222.9,278.6,223z"/>
	<path class="st2" d="M285.7,229.6c-1.4,1.5-3,2.9-4.6,4c-0.9,0.5-1.7,0.9-2.6,1.2c-0.9,0.2-1.8,0.3-2.6,0.2c-0.8-0.1-1.6-0.5-2.3-1
		c-0.3-0.3-0.7-0.6-1-0.9c-0.3-0.4-0.6-0.7-0.9-1.1c-0.6-0.8-1.1-1.5-1.4-2.4s-0.6-1.8-0.8-2.8c-0.5-2.5-0.7-5-0.8-7.6
		c0.6,0.9,1.2,1.7,2,2.5c0.6,0.5,1.1,1,2.1,1.3c0.1,0.1,0.3,0.1,0.4,0.1h1.6c1.3,0,2.5,0,3.8-0.1c2.5-0.1,4.9-0.4,7.4-0.9
		c2.4-0.5,4.8-1.3,7-2.6c-2.4,0.9-4.8,1.4-7.1,1.7c-2.5,0.2-4.8,0.2-7.3,0.1c-1.2-0.1-2.5-0.1-3.7-0.2L274,221h-0.5
		c-0.1,0-0.1,0-0.1,0c-0.1,0-0.1,0-0.1,0c-0.2-0.1-0.7-0.4-1-0.8c-1.4-1.6-2.5-3.8-3.5-6l-2-4.4l-0.5,4.7c-0.2,2.1-0.3,4.2-0.2,6.4
		c0.1,2,0.3,4.2,0.8,6.4c0.2,1,0.5,2.1,1,3.2c0.2,0.3,0.3,0.5,0.4,0.8l0.4,0.8c0.3,0.5,0.7,0.9,1,1.4c0.7,0.9,1.5,1.7,2.5,2.4
		c1.1,0.7,2.2,1.2,3.5,1.4c1.2,0.1,2.5-0.1,3.6-0.5s2.1-1,3-1.7c1.8-1.3,3.3-2.9,4.6-4.6c2.5-3.4,4.5-7.1,6.1-11
		C290.7,223.1,288.3,226.6,285.7,229.6z"/>
</g>
<path class="st2" d="M233.4,130.3c0.5-0.7,1-1.5,1.3-2.4c0.7-1.7,0.7-3.7-0.2-5.4c-0.3,0.9-0.4,1.7-0.7,2.5s-0.5,1.5-0.8,2.3
	c-0.4,1.1-0.9,2.3-1.4,3.7c-0.4-0.1-0.8-0.3-1.1-0.4c-0.5-0.2-1.1-0.3-1.7-0.4l-0.9-0.2c0.5-0.7,1-1.5,1.3-2.4
	c0.7-1.7,0.7-3.7-0.2-5.4c-0.3,0.9-0.4,1.7-0.7,2.5s-0.5,1.5-0.8,2.3c-0.3,0.9-0.7,1.8-1,2.8c-0.4,0-0.8,0-1.3,0
	c-0.6,0.1-1.2,0.1-1.8,0.2c-0.2,0-0.4,0-0.7,0c0.3-0.5,0.6-1.1,0.9-1.7c0.7-1.7,0.7-3.7-0.2-5.4c-0.3,0.9-0.4,1.7-0.7,2.5
	s-0.5,1.5-0.8,2.3c-0.3,0.9-0.7,1.8-1,2.8c-0.4,0.1-0.7,0.2-1.1,0.3c-2.3,0.8-4.4,2.2-6.1,3.9c-1.7,1.6-3.1,3.7-3.6,6
	c1.7-1.5,3.5-2.8,5.5-3.5c1.7-1.1,3.6-2,5.5-2.7c0.5-0.2,1-0.3,1.5-0.5l0.7-0.2l0.8-0.2l1.5-0.4c0.6-0.1,1.1-0.2,1.6-0.3l0.8-0.2
	l0.8-0.1c0.5,0,1-0.1,1.6-0.2c1.1-0.1,2.2-0.1,3.4-0.4c-0.5-0.3-1-0.5-1.4-0.7C232.7,131,233.1,130.7,233.4,130.3z"/>
<path class="st2" d="M176.3,142.4c-2.4-0.1-4.8,0.3-7.1,1.2c-0.2,0.1-0.3,0.1-0.5,0.2c-0.6-0.3-1.2-0.7-1.7-1.1
	c-0.7-0.5-1.4-0.9-2.1-1.4c-0.7-0.4-1.4-1-2.2-1.5c0.3,1.8,1.6,3.4,3.2,4.4c0.3,0.2,0.6,0.4,1,0.5l-0.2,0.1
	c-0.3,0.1-0.6,0.3-0.8,0.5c-0.5,0.4-1,0.7-1.5,1.1c-0.1,0.1-0.2,0.2-0.3,0.4c-0.6-0.4-1.2-0.7-1.8-1.1c-0.7-0.5-1.4-0.9-2.1-1.4
	c-0.7-0.4-1.4-1-2.2-1.5c0.3,1.8,1.6,3.4,3.2,4.4c0.5,0.3,1,0.6,1.6,0.8l-0.3,0.3l-0.6,0.7c-0.3,0.4-0.7,0.9-1,1.4
	c-0.1,0.2-0.2,0.3-0.3,0.5c-0.9-0.5-1.7-1-2.4-1.5s-1.4-0.9-2.1-1.4c-0.7-0.4-1.4-1-2.2-1.5c0.3,1.8,1.6,3.4,3.2,4.4
	c0.8,0.5,1.7,0.9,2.6,1.1c0.1,0,0.2,0,0.3,0c-0.2,0.5-0.5,1-0.6,1.6c0.7-0.5,1.4-1,2.1-1.5c0.4,0,0.7,0,1-0.1
	c-0.2-0.1-0.3-0.2-0.5-0.3c0.1,0,0.1-0.1,0.2-0.1c0.5-0.3,1-0.6,1.4-0.9l0.7-0.5l0.7-0.4c0.5-0.2,1-0.5,1.4-0.8l1.4-0.7l0.7-0.4
	l0.7-0.3c0.5-0.2,0.9-0.4,1.4-0.6c1.8-0.8,3.9-1.3,5.9-1.7s4.1-0.6,6.5-0.7C181.1,143.3,178.7,142.6,176.3,142.4z"/>
<path class="st2" d="M394.7,196.1c-0.1-0.3-0.2-0.4-0.4-0.5c-0.2-0.1-0.3-0.1-0.4-0.2c-0.1,0-0.2-0.1-0.3-0.1l-0.3-0.1
	c-0.1-0.1-0.3-0.1-0.4-0.1c-0.3-0.1-0.5-0.1-0.7-0.1c-0.1,0-0.1,0-0.2,0h-0.1v-0.1c-0.1-0.1-0.1-0.1-0.1-0.2
	c-0.1-0.3-0.1-0.8-0.1-1.3c0.1-1,0.4-2.3,0.7-3.3c0.1-0.2,0.1-0.4,0.1-0.7c-0.6-10-1.8-20.2-5.2-29.9c-1.6-4.9-3.9-9.5-6.8-13.9
	c-2.9-4.3-6.4-8.2-10.5-11.5c-4-3.3-8.4-5.9-13-8.3c-4.5-2.2-9.4-4.1-14.3-5.5c-4.9-1.3-10.1-2.1-15.3-2.2c-1.4-0.1-2.7,0.1-4,0.1
	c-1.3,0.2-2.6,0.3-3.9,0.5c-0.7,0.1-1.3,0.3-2,0.4s-1.3,0.2-2,0.4s-1.3,0.4-2,0.6c0,0,0,0-0.1,0c-0.1-0.3-0.3-0.7-0.3-1
	c-0.1-0.8,0-1.9,0.4-2.9s1-2.1,1.7-3.1s1.6-2,2.4-2.8l0.1-0.1c0.2-0.2,0.4-0.5,0.5-0.8c0.5-1.2-0.1-2.4-1.2-2.9
	c-3.1-1.3-6.4-2.2-9.8-2.6s-6.8-0.3-10.2,0.4c-3.4,0.7-6.6,1.9-9.5,3.7c-2.9,1.7-5.5,3.8-7.7,6.4c-1.5,1.8-2.8,3.6-3.9,5.6
	c-0.1-1.7-0.5-3.5-1.2-5.1c-0.8-1.9-2.1-3.6-3.6-5.1c-0.8-0.7-1.6-1.4-2.4-2.1c-0.4-0.3-0.9-0.6-1.3-0.9c-0.2-0.2-0.5-0.3-0.7-0.5
	c0-0.1,0-0.1-0.1-0.2c-0.4-0.6-0.8-1.5-1.2-2.3l-1.2-2.6c-0.8-1.6-1.6-3.4-2.3-5.2c-1.4-3.6-2.9-7.1-4.3-10.7l-2.1-5.3
	c-0.1-0.5-0.3-0.9-0.5-1.4s-0.4-1.1-0.7-1.6c-0.5-1-1.1-2-1.7-3c-2.4-3.9-5.5-7.1-8.9-9.9c-3.5-2.7-7.1-5-10.9-6.9
	c-3.9-1.9-7.7-3.3-11.7-4.6c-7.9-2.3-15.9-3.9-24-4.6c-8.1-0.7-16.2-0.8-24.5,0.1c-2,0.2-4.2,0.5-6.3,1s-4.4,1.1-6.6,2
	c-4.4,1.7-8.4,4.1-12,7.1c-3.6,3.1-6.5,6.6-8.9,10.4c-1.2,1.8-2.2,3.8-3.1,5.9c-0.4,1.1-0.8,2.1-1.2,3.2c-0.1,0.5-0.3,1-0.4,1.5
	c-0.4,0.4-0.9,0.8-1.4,1.3l-2.8,2.7l-8,8l-1.3,1.4l-0.6,0.7l-0.7,0.8c-1.9,2.2-3.5,4.4-4.9,6.8c-2.8,4.6-4.9,9.7-6.4,14.8
	c-1.4,5.1-2.2,10.5-2.4,15.7c-0.3,10.5,2.1,21,6.7,30.1c0.6,1.1,1.1,2.3,1.6,3.4c0.5,1.2,1,2.3,1.4,3.5c0.8,2.3,1.7,4.5,2.4,6.9
	c0.8,2.4,1.5,4.7,2,7.1c0.2,0.7,0.4,1.5,0.5,2.2c-2.4,0.1-4.9,0.3-7.3,0.7c-4,0.5-7.9,1.5-11.8,2.9c-1.8,0.7-3.7,1.5-5.6,2.5
	c-1,0.5-1.9,1-2.8,1.6c-0.5,0.3-0.9,0.6-1.4,0.9l-1.5,0.1c-1,0.1-1.9,0.2-2.9,0.3c-1.8,0.2-3.6,0.5-5.5,0.9c-3.7,0.7-7.3,1.7-10.8,3
	c-7,2.6-13.7,6-19.7,10.3c-3,2.1-5.8,4.4-8.6,6.9c-2.8,2.5-5.3,5.1-7.7,7.9c-4.8,5.5-8.9,11.5-12.7,17.7
	c-7.4,12.5-12.8,26.1-16,40.1c-1.7,7.1-2.8,14.2-3.5,21.3c-0.3,3.6-0.5,7.1-0.6,10.7c-0.1,3.7-0.1,7.1,0.2,10.9v0.1
	c0.1,1.2,0.9,2.2,2.1,2.6c2.2,0.6,4.3,1.1,6.4,1.6c2,0.4,4.2,0.8,6.3,1.2c4.2,0.7,8.4,1.3,12.7,1.7c8.4,0.8,16.9,0.9,25.4,0.6
	c8.4-0.4,16.9-1.1,25.2-2.4c6-0.8,12-2,17.9-3.4c1.2,0.3,2.4,0.6,3.6,0.7c1.4,0.2,2.9,0.4,4.3,0.6l3.7,0.2c0.1,0.9,0.1,1.9,0.2,2.8
	c0.1,1.8,0.1,3.6,0.1,5.5c-0.1,1.7-0.2,3.7-0.4,5.4c-0.2,1.5-0.5,3.1-0.9,4.7c-5.8,1.7-11.7,3.4-17.6,5.2c-3,0.9-6,1.8-9,2.8l-9,2.8
	c-0.5,0.2-0.8,0.5-1,0.9c-1.3,3.2-2.5,6.4-3.7,9.6c-1.3,3.2-2.4,6.3-3.6,9.6l-1.7,4.8l-1.6,4.8c-1,3.3-2.1,6.4-3,9.8
	c1.6-3.1,3-6.2,4.5-9.3l2.1-4.6l2.1-4.7c1.4-3.2,2.7-6.3,4-9.5c1.2-3,2.4-5.9,3.6-8.8l8.2-2.7c3.1-1,6-2,9-3c6-1.9,12-4,17.9-6h0.1
	c0.4-0.1,0.6-0.3,0.7-0.7c0.5-1.9,0.7-3.8,0.8-5.7c0.1-1.8,0-3.7-0.1-5.6c-0.2-2.7-0.6-5.4-1.1-8.1l0,0c1.4,0.2,2.9,0,4.3-0.1
	s2.9-0.1,4.3-0.4l4.3-0.7c1.4-0.3,2.8-0.7,4.2-1.1c0.7-0.2,1.4-0.4,2.1-0.6l4-1.6c0.7-0.3,1.4-0.5,2-0.9l1-0.5
	c0.2,2.9,0.5,5.8,1,8.7c0.3,1.9,0.8,3.9,1.4,5.8c0.6,1.9,1.4,3.8,2.5,5.6c0.1,0.2,0.4,0.4,0.7,0.4h0.1c3.5,0.3,7,0.5,10.5,0.8
	s7,0.5,10.5,0.7s7,0.4,10.5,0.6l9.7,0.6l8.2,12.6c2.9,4.4,5.7,8.8,8.7,13.2c3,4.4,5.9,8.7,8.9,13.1c3,4.3,5.9,8.6,9.1,12.9
	c-2.6-4.6-5.2-9.1-7.9-13.7s-5.3-9.1-8.1-13.6c-2.8-4.6-5.5-9-8.3-13.5l-8.4-13.4c-0.2-0.4-0.7-0.7-1.2-0.7l-10.5-0.5
	c-3.5-0.1-7-0.3-10.5-0.4c-3.5-0.2-7-0.3-10.5-0.4c-3.3-0.1-6.7-0.2-10-0.3c-1-1.3-1.7-3-2.3-4.6c-0.7-1.7-1.3-3.6-1.8-5.5
	c-0.7-2.8-1.4-5.7-1.9-8.6l2.5-1.3c0.7-0.3,1.3-0.7,1.9-1.1l1.8-1.2c1.5-1,2.9-2,4.2-3.1c6.2-1.7,12.3-3.7,18.4-5.9
	c8.3-3,16.6-6.2,24.7-9.8c8.1-3.6,16.2-7.2,24.1-11.3c7.9-4.1,15.7-8.2,23.5-12.8c1.5-0.9,2-2.7,1.2-4.2l-0.1-0.1
	c-7.2-13.2-15.4-26-25-37.8c-4.7-5.9-10-11.6-15.6-16.7c-5.6-5.1-11.7-9.9-18.2-14.1c-0.4-0.2-0.7-0.5-1.1-0.7
	c4.8,0.9,9.7,1.4,14.5,1.5c5,0.1,10.1-0.2,15-0.8c2-0.2,4-0.7,5.9-1.3c-0.4,1.7-0.5,3.5-0.5,5.2c0,1.9,0.2,4,0.5,6
	c0.4,2,0.8,4,1.5,5.9s1.6,3.8,2.8,5.4c-0.7-1.8-1.2-3.8-1.7-5.7s-0.9-3.8-1.2-5.8c-0.3-1.8-0.6-3.8-0.8-5.8
	c-0.2-1.7-0.4-3.4-0.4-5.2c2.8-0.9,5.6-2,8.2-3.4c4.5-2.3,8.7-5,12.7-8c2-1.4,3.9-3,5.8-4.7c1.3-1.2,2.7-2.4,3.9-3.8
	c0,0.2-0.1,0.5-0.1,0.7c-0.7,5.1-0.7,10.4,0.4,15.4c0.5,2.6,1.3,5,2.1,7.4c0.9,2.5,1.8,4.7,2.1,7.1c0.1,1.1,0.1,2.3-0.3,3.4
	c-0.3,1.1-0.9,2.2-1.7,3.1c-1.5,1.8-3.5,3.3-5.5,4.8c-0.1,0.1-0.1,0.2-0.2,0.3c-0.1,0.4,0,0.8,0.4,0.9c1.4,0.5,2.7,0.8,4.1,1.1
	c1.3,0.3,2.7,0.6,4.1,0.8c1.4,0.2,2.8,0.4,4.2,0.5c1.1,0.1,2.3,0.1,3.4,0.1c0.4,1.4,0.8,2.8,1.3,4.2l1.6,5.1c0.6,1.6,1.2,3.4,2.1,5
	c1.7,3.3,4,6.2,7,8.4c1.4,1.2,3,2.1,4.7,2.9c0.8,0.4,1.7,0.7,2.7,0.8c1,0,1.9-0.1,2.8-0.2c3.7-0.5,7.2-1.1,10.8-1.7
	c7.2-1.3,14.3-2.8,21.3-4.6c6.8-1.9,13.7-3.8,20.1-6.7c0.1,0.1,0.2,0.1,0.3,0.2h0.1c1.7,0.6,3.7,0.7,5.6,0.3c1.8-0.4,3.6-1.1,5.3-2
	c3.3-1.9,6.1-4.3,8.4-7.4c0.8-1.1,1.6-2.3,2.2-3.7c4.8,0.2,10-0.5,14.8-2.3c4.9-2.1,9.1-5.7,12.3-10.1c1.6-2.2,2.9-4.5,4.1-6.9
	c0.6-1.2,1.2-2.4,1.7-3.6c0.1-0.3,0.3-0.6,0.4-0.8l0.1-0.1l0,0c0.2-0.1,0.4-0.1,0.6-0.2c0.4-0.1,0.8-0.3,1.1-0.4
	c1.3-0.6,2.5-1.2,3.8-2.1c0.3-0.2,0.6-0.4,1-0.9c0.1-0.2,0.2-0.3,0.3-0.5c0.1-0.1,0.2-0.2,0.2-0.3s0.1-0.3,0.1-0.5
	C395.1,197.1,395,196.5,394.7,196.1z M119.1,175c-1.2-4.8-2.9-9.5-4.7-14.1c-3.5-9.2-4.9-19.2-4-29c1-9.8,4.2-19.4,9.5-27.6
	c1.4-1.9,2.9-3.9,4.6-5.7c1.6-1.7,3.4-3.5,5.2-5.2c3.4-3.2,6.8-6.5,10.4-9.5c-0.1,4.6,0.3,9.3,1.4,13.9c0.6,2.5,1.5,4.8,2.8,7.1
	c1.2,2.1,2.8,4.3,5,5.8c0.4,0.3,0.8,0.5,1.2,0.7c-2.7,3.1-4.8,6.5-6.5,10c-1.8,3.9-3.2,7.9-4.2,12.2c-0.9,4.3-1.5,8.5-1.5,12.9
	c0,2.5,0.1,5,0.3,7.5c-0.2-0.4-0.5-0.9-0.7-1.3c-1.2-2-2.3-4-4.1-5.9c-0.5-0.5-0.9-1-1.9-1.3c-0.3-0.1-0.6-0.1-0.9-0.1
	c-0.4,0.1-0.5,0.1-0.7,0.2c-0.4,0.2-0.7,0.4-1,0.6c-1.2,0.9-1.9,2-2.5,3.1c-1.2,2.3-1.7,4.6-1.8,7.1c-0.1,1.2,0,2.5,0.1,3.7
	c0.1,1.3,0.4,2.5,0.8,3.7c0.7,2.2,1.7,4.4,3.1,6.5c1.2,2,2.9,3.8,5,5.3c2,1.3,4.2,2.3,6.5,2.6c1.4,2,3.1,3.7,4.7,5.3
	c1.7,1.6,3.5,3.1,5.3,4.5c-4.6-1.2-9.3-2.2-13.9-2.7c-1.9-0.2-3.8-0.4-5.8-0.5l-3-0.2h-3c-1.2,0-2.4,0-3.6,0
	c-0.1-0.8-0.2-1.5-0.4-2.3C120.4,179.8,119.8,177.4,119.1,175z M80.2,327.3c-8.3,1-16.7,1.5-25.1,1.6c-8.4,0-16.8-0.3-25.1-1.3
	c-4.2-0.5-8.3-1.1-12.5-1.9c-4-0.8-8.1-1.7-12-2.9c-0.4-6.8,0.3-14,1.1-20.9s2.1-13.9,3.8-20.6c3.4-13.6,8.7-26.7,16-38.6
	c3.7-6,7.8-11.7,12.4-16.9c2.3-2.6,4.7-5,7.3-7.4c2.7-2.3,5.3-4.5,8.2-6.5c5.7-4,12-7.2,18.5-9.5c3.4-1.2,6.7-2.1,10.1-2.8
	c2.6-0.5,5.2-0.9,7.9-1c0,0.5-0.1,1.1-0.2,1.5c0,0.7-0.2,1.3-0.3,2c-0.2,1.3-0.6,2.6-1,3.9c-0.8,2.5-1.9,5-3.1,7.4
	c-2.5,4.9-5.6,9.3-9.1,13.6c-3.6,4.2-7.4,8.1-11.5,11.8c-1.5,1.3-3,2.6-4.5,3.9c0.1-0.3,0.3-0.5,0.4-0.8c0-0.1,0-0.2-0.1-0.2
	s-0.2,0-0.2,0.1c-0.3,0.5-0.6,1-0.9,1.5c-2.5,2-5,4-7.6,5.9c2.3-1.4,4.5-2.8,6.7-4.3c-0.7,1.3-1.3,2.7-1.9,4.2
	c-1.1,2.6-2,5.2-2.6,7.9c-0.7,2.7-1.1,5.4-1.4,8.2c-0.2,2.8-0.3,5.6-0.1,8.4s0.6,5.5,1.3,8.3l1,4.1c0.4,1.3,0.9,2.7,1.4,4
	c2.1,5.2,4.7,10.2,8.3,14.7s7.7,8.6,12.4,11.7c1.1,0.9,2.4,1.6,3.6,2.3c1.3,0.8,2.5,1.6,3.8,2.1l3.9,1.8l4.1,1.4
	c1.1,0.4,2.1,0.6,3.2,0.8C91,325.8,85.6,326.6,80.2,327.3z M141.5,314.4l-1.7,1.1c-0.6,0.3-1.2,0.7-1.8,1l-3.7,1.9
	c-0.6,0.3-1.3,0.6-1.9,0.8l-1.9,0.7l-1.9,0.7c-0.7,0.3-1.3,0.4-2,0.6c-1.4,0.4-2.7,0.8-4,1.1l-4.1,0.7c-1.4,0.3-2.7,0.3-4.1,0.4
	s-2.7,0.3-4.1,0.2l-4.1-0.1c-0.4,0-0.8-0.1-1.1-0.1c0.1,0,0.1-0.1,0.2-0.1c0-0.1-0.2-0.2-0.3-0.2c-0.3,0.1-0.6,0.1-0.9,0.2
	c-0.7-0.1-1.3-0.2-2-0.3c-1.3-0.1-2.7-0.5-4-0.8c-1.4-0.3-2.7-0.5-4-1c-10.4-3.2-19.8-9.5-26.6-17.9c-3.6-4.1-6.2-8.9-8.3-13.9
	c-0.5-1.3-1.1-2.6-1.5-3.9l-1.1-4c-0.7-2.6-1.1-5.3-1.4-8c-1-10,0.8-20.1,5.1-29.1c2.1-1.4,4.2-3,6.2-4.6c4.4-3.5,8.5-7.2,12.3-11.4
	c3.8-4.3,7.1-8.8,9.8-13.8c1.4-2.5,2.6-5.1,3.5-7.8c0.5-1.4,0.9-2.8,1.2-4.2c0-0.1,0-0.1,0-0.2c1.1,1.4,2.4,2.7,3.8,3.9
	c2.5,2,5.2,3.7,8,5.1c2.9,1.5,5.7,2.6,8.7,3.6s6,1.8,9,2.5c5.4,1.3,10.9,2.1,16.4,2.6c8.9,5.3,16.3,13,21.1,22.2
	c2.4,4.8,4.3,10,5.2,15.3c0.3,1.4,0.5,2.7,0.7,4.1l0.3,4.1c0.2,1.4,0,2.7,0,4.1c-0.1,1.4-0.1,2.7-0.3,4.1
	c-1.2,10.9-5.6,21.3-12.6,29.6C150.2,307.9,146.1,311.4,141.5,314.4z M195.4,219c5.5,4.9,10.7,10.4,15.4,16
	c9.5,11.3,17.8,23.6,25.1,36.4c-7.5,4.5-15.1,8.8-22.8,12.9c-7.8,4.2-15.7,8.1-23.7,11.9c-8,3.7-16.1,7.2-24.3,10.5
	c-5.4,2.2-10.8,4.1-16.2,6c2.5-2.1,4.8-4.5,6.8-7.1c0.5-0.6,1-1.1,1.4-1.7l2.4-3.6l0.6-0.9l0.5-0.9l2.1-3.8c0.7-1.3,1.2-2.6,1.8-3.9
	c2.2-5.3,3.8-10.9,4.1-16.5c0.2-1.4,0.2-2.9,0.2-4.3s0.1-2.9-0.1-4.3l-0.4-4.3c-0.2-1.4-0.5-2.8-0.8-4.2c-1.1-5.5-3.1-10.8-5.8-15.7
	c-1.3-2.3-2.8-4.7-4.6-6.9c-0.8-1.1-1.8-2.1-2.7-3.2c-1-1-2-2.1-3-3c-1.9-1.8-4.1-3.6-6.4-5.2c-1.6-1.1-3.1-2.1-4.7-3
	c0.3,0,0.6,0,0.8,0.1c6.1,0.5,12.3,0.8,18.4,0.5c-6-0.4-12.2-1.1-18.5-2c-5.9-1-12-2.1-17.8-3.7c-5.8-1.6-11.6-3.5-16.8-6.2
	c-2.6-1.3-5.1-2.9-7.3-4.8c-1.9-1.8-3.8-3.8-5.1-6c1.2-1,2.8-1.8,4.2-2.6c1.5-0.8,3.2-1.6,5-2.2c3.5-1.3,7-2.1,10.7-2.7
	c2.4-0.3,4.7-0.6,7.1-0.7c0.1,0.1,0.1,0.2,0.2,0.3c0.2,0,0.3-0.1,0.4-0.3c1.1,0,2.3,0,3.4,0h2.8l2.8,0.2c1.8,0.1,3.6,0.3,5.5,0.5
	c14.8,1.6,29,7,41.6,14.9C184,209.4,189.9,214.1,195.4,219z M245.3,180c-1.3,1.3-2.7,2.4-4.1,3.6c-1.8,1.5-3.8,3.1-5.9,4.5
	c-4.2,2.8-8.4,5.3-12.9,7.4c-4.5,2-9.2,3.7-14,4.2s-9.8,0.6-14.7,0.4c-7.5-0.3-15-1.5-22-3.8c-4-2.1-8.1-4-12.3-5.5
	c-0.2-0.1-0.5-0.2-0.7-0.2c0,0-0.1,0-0.1-0.1c-2.1-1.2-4.1-2.5-6.1-4c-1.9-1.3-3.8-2.9-5.6-4.6c-1.6-1.6-3.3-3.4-4.7-5.3
	c-0.2-0.3-0.5-0.5-0.9-0.5c-2-0.3-4-1.1-5.8-2.3c-1.8-1.1-3.3-2.9-4.5-4.6s-2.2-3.8-2.9-5.9c-0.4-1.1-0.7-2.2-0.8-3.2
	c-0.1-1.1-0.1-2.2-0.1-3.3c0.1-2.1,0.6-4.3,1.5-6.2c0.5-1,1.1-1.8,1.8-2.4c0.1-0.1,0.3-0.2,0.5-0.3c0.3-0.1,0-0.1,0.1-0.1
	c0.2,0,0.7,0.3,1,0.7c1.5,1.4,2.7,3.4,3.9,5.4c1.2,1.9,2.3,3.9,3.3,6c0.2,0.4,0.6,0.6,1,0.5c0.6-0.1,0.9-0.6,0.8-1.1
	c0-0.1,0-0.3-0.1-0.4h0.1c0-0.1-0.1-0.2-0.1-0.2c-0.7-4-1.1-7.9-1.2-12c-0.1-2,0-4.2,0.2-6.3c0.1-2.1,0.4-4.2,0.8-6.3
	c0.8-4.2,2-8.2,3.7-12.2c1.6-3.7,3.5-7.2,6-10.5c1.9,1,4,1.5,6.1,1.9c2.6,0.4,5.1,0.5,7.7,0.5c5-0.1,10.1-0.7,15.1-1.5
	s10-1.8,14.9-2.7c4.9-0.9,9.9-1.9,14.8-2.1c4.9-0.3,9.9,0,14.7,1c4.9,0.9,9.5,2.7,13.7,5.3c4.2,2.6,7.7,5.9,10.5,10
	c2.7,4,4.6,8.7,5.5,13.4c1,4.7,0.9,9.7,0,14.5c-0.4,2.5-1.1,4.8-1.9,7.1c-0.5,1.1-0.9,2.3-1.4,3.5c-0.4,1.2-0.9,2.4-1.3,3.6
	C247.3,170.4,246,175.2,245.3,180z M255,225.1c-1.4-0.2-2.8-0.5-4.1-0.8c-1.4-0.3-2.7-0.7-4-1.1c-0.9-0.3-1.8-0.6-2.6-0.9
	c1.7-1.2,3.4-2.6,4.8-4.3c0.9-1,1.6-2.2,2.1-3.5c0.4-1.3,0.5-2.7,0.4-4.1c-0.3-2.8-1.3-5.1-2-7.5c-0.8-2.4-1.5-4.7-1.9-7.2
	c-0.9-4.8-0.8-9.9-0.1-14.7c0.7-4.9,2-9.8,3.7-14.4c0.4-1.2,0.8-2.3,1.3-3.5c0.4-1.2,0.9-2.4,1.4-3.6c0.9-2.5,1.6-4.9,2.1-7.5
	c1-5.1,1.1-10.4,0.1-15.5s-2.9-10-5.9-14.4s-7-8.1-11.4-10.7s-9.4-4.5-14.4-5.5c-5-1.1-10.2-1.3-15.3-1s-10.2,1.2-15.1,2.3
	c-4.9,1.1-9.9,2.1-14.8,3c-4.9,0.9-10,1.6-14.9,1.8c-2.5,0.1-4.9,0-7.4-0.3c-2.4-0.3-4.9-1-6.9-2.2s-3.6-3.2-4.9-5.3
	c-1.3-2.1-2.3-4.4-3-6.8c-0.8-2.4-1.3-4.8-1.6-7.3c-0.3-2.1-0.4-4.1-0.5-6.3c0.2-0.1,0.3-0.3,0.5-0.4c0.1-0.1,0.2-0.3,0.2-0.4
	c2.2-7.1,6.5-14,12.2-18.8c2.9-2.3,6.1-4.3,9.7-5.6c3.5-1.3,7.3-1.9,11.1-2.4c7.6-0.9,15.4-0.9,23-0.3c7.7,0.6,15.3,1.8,22.7,3.9
	c7.3,2.1,14.6,5,20.7,9.6c3.1,2.3,5.8,4.9,7.9,8.1c1.1,1.4,2,3.1,2.8,4.9l2.5,5.2c1.6,3.6,3.3,7,5.2,10.4c0.9,1.6,1.9,3.3,2.9,5
	c1,1.6,2,3.3,3.4,4.8l0.3,0.3c0.1,0.1,0.3,0.3,0.4,0.3l0.6,0.3c0.4,0.3,0.8,0.5,1.2,0.8c0.7,0.6,1.5,1.2,2.2,1.8
	c1.5,1.3,2.7,2.7,3.6,4.4c0.9,1.6,1.4,3.5,1.4,5.3c0,0.7-0.1,1.3-0.2,2c-1.4,3-2.2,6.1-2.7,9.3c-0.2,0.8-0.3,1.7-0.3,2.5
	c-0.1,0.8-0.1,1.7-0.1,2.5c0,1.5,0.1,3.2,0.4,4.8c0.6,3.2,2.1,6,4.1,8.4c-0.1,0-0.1,0-0.2,0c-1.7,0.7-3.2,1.8-4.6,3.1
	c-0.7,0.6-1.3,1.3-1.9,2c-0.5,0.7-1.1,1.4-1.6,2.2c-2,3.1-3.4,6.4-4.3,10s-1.3,7.1-1.5,10.8c-0.1,3.6-1,7.1-2.7,10.3
	c-0.8,1.6-1.8,3.1-2.9,4.5c-1.2,1.4-2.1,3-2.7,4.8c-0.6,1.6-0.7,3.6-0.5,5.4c0.2,1.7,0.6,3.5,1,5.3c1.2,5.6,2.8,11.2,4.4,16.7
	C257.2,225.4,256.1,225.3,255,225.1z M348.7,217.8c1.7,0.1,3.6,0.6,4.6,2c0.1,0.1,0.2,0.3,0.3,0.5c-0.4,0.3-0.9,0.7-1.3,0.9
	c0.5-0.2,0.9-0.5,1.4-0.9c0.3,0.5,0.5,1.1,0.5,1.8c0.1,0.8,0,1.7-0.3,2.5c-0.6,1.6-1.5,3.1-2.6,4.6c-2.2,2.8-4.8,5.3-8,7.1
	c-1.5,0.9-3.1,1.6-4.9,2c-1.6,0.4-3.4,0.4-5.2,0h0.1c-1.1-0.6-2-1.6-2.4-2.8s-0.4-2.6-0.1-3.9c-0.4,1.3-0.6,2.7-0.3,4.2
	c0.2,0.7,0.5,1.3,0.9,1.9c0.3,0.3,0.6,0.6,0.9,0.9c-1.5,0.5-3,1.1-4.5,1.4l-2.6,0.8l-2.6,0.7c-3.6,0.9-7,1.6-10.6,2.3
	c-3.5,0.7-7,1.4-10.6,1.9s-7.1,1.1-10.7,1.6s-7.1,0.9-10.6,1.3c-0.9,0.1-1.9,0.2-2.3,0.2c0,0-0.2,0-0.4-0.1
	c-0.2-0.1-0.6-0.2-0.9-0.4c-1.4-0.7-2.8-1.5-4-2.5c-2.3-2-4.4-4.4-5.8-7.2c-0.4-0.7-0.7-1.5-1-2.2c-0.3-0.8-0.5-1.5-0.8-2.4
	l-1.6-5.1c-2.1-6.8-4.1-13.8-5.8-20.6c-0.4-1.6-0.8-3.3-1-4.9c-0.1-0.8-0.1-1.4-0.1-2.1c0.1-0.7,0.2-1.3,0.4-2
	c0.4-1.3,1.1-2.6,2-3.9l0.8-1.2c0.3-0.4,0.5-0.9,0.8-1.3c0.5-0.9,1-1.8,1.4-2.7c1.7-3.6,2.7-7.6,2.6-11.6c0-3.5,0.3-7,0.9-10.4
	s1.6-6.7,3.3-9.8c0.4-0.7,0.9-1.5,1.4-2.2c0.6-0.7,1.1-1.5,1.7-2.1c1.2-1.3,2.5-2.5,4.1-3.4h0.1l0.1,0.1c0-0.1-0.1-0.1-0.1-0.2l0,0
	c0,0-0.1,0-0.1-0.1c-1.8-2.6-2.9-5.4-3.2-8.5c-0.2-1.5-0.1-3.1,0-4.7c0.1-0.8,0.2-1.6,0.3-2.4c0.1-0.7,0.2-1.5,0.4-2.3
	c1.3-6.1,4.3-11.8,8.6-16.2c4.1-4.4,9.8-7.4,15.7-8.3c3-0.5,6-0.5,9,0c2,0.3,3.8,0.8,5.6,1.4c-0.2,0.3-0.5,0.6-0.7,0.9
	c-1,1.3-1.8,2.6-2.4,4.2c-0.6,1.5-0.9,3.3-0.7,5.2c0.3,1.8,1.2,3.5,2.3,4.9c0.8,1,2.3,1.1,3.3,0.3v-0.2c0.3-0.1,0.6-0.2,0.9-0.3
	c0.4-0.1,0.7-0.2,1-0.2c6.5,1.9,12.7,4.6,18.4,8.2c3.5,2,6.6,4.4,9.4,7.2c2.7,2.8,5.1,6,6.7,9.6s2.4,7.4,2.3,11.4
	c0,1.9-0.2,3.9-0.6,5.8c-0.4,1.9-0.6,4-0.5,6.1c0.2,4.1,1.7,8.1,4,11.5c2.1,3.3,4.7,6.1,7.8,8.4l-4.2,3.5c-0.1,0.1-0.2,0.2-0.2,0.4
	c0.2,2.1,0.3,4.5,0.3,6.7s-0.2,4.5-0.6,6.7c-0.4,2.1-1,4.4-2,6.4c-0.6,1.2-1.4,2.4-2.4,3.4c-0.1-0.1-0.2-0.2-0.2-0.3
	c-0.7-0.8-1.6-1.3-2.5-1.6c-1-0.3-1.9-0.4-2.9-0.4c-1.8,0-3.7,0.4-5.4,1.1C345,217.9,346.9,217.7,348.7,217.8z M388.1,199.1
	c-0.3,0.1-0.6,0.2-0.8,0.3c-0.1,0-0.2,0.1-0.3,0.1h-0.1c-0.1,0,0,0-0.1,0h-0.3c-0.5,0.2-0.6,0.3-0.8,0.4c-0.2,0.1-0.2,0.2-0.3,0.3
	c-0.1,0.2-0.2,0.3-0.3,0.4c-0.1,0.2-0.2,0.4-0.3,0.6c-0.1,0.4-0.3,0.7-0.4,1c-0.5,1.2-1,2.4-1.5,3.6c-1,2.3-2.1,4.6-3.5,6.7
	c-2.7,4.3-6.3,7.8-10.9,10.2c-4.1,2.3-9,3.4-13.9,3.6c0.2-0.4,0.3-0.8,0.5-1.3c0.3-0.9,0.4-2,0.2-3c-0.1-0.8-0.4-1.6-0.9-2.3
	c1-0.9,1.8-2.1,2.5-3.3c1.1-2,1.8-4.2,2.3-6.5c0.5-2.2,0.7-4.5,0.8-6.8c0.1-2.2,0.1-4.4-0.1-6.7l4.7-3.7l0.1-0.1
	c0.2-0.3,0.2-0.6-0.1-0.8c-3.1-2.3-5.9-5.2-8-8.5s-3.5-7-3.7-10.9c-0.1-1.9,0.1-3.8,0.5-5.8c0.4-1.9,0.6-3.9,0.6-6
	c0-4.1-0.8-8.1-2.5-11.9c-1.6-3.8-4-7.1-7-9.9c-2.9-2.8-6.2-5.2-9.7-7.2c-3.5-1.9-7.1-3.6-10.9-5c-2.6-0.9-5.1-1.7-7.7-2.4
	c0.1,0,0.3-0.1,0.4-0.1c0.5-0.2,1.1-0.3,1.7-0.4c0.5-0.1,1.1-0.2,1.7-0.3c1.1-0.1,2.3-0.2,3.5-0.3c1.2,0,2.4-0.1,3.6,0
	c4.7,0.1,9.4,0.9,14,2.2c4.6,1.2,9,3,13.4,5.2c4.3,2.2,8.4,4.6,12.1,7.6c3.8,2.9,6.9,6.4,9.6,10.3c2.6,4,4.8,8.1,6.5,12.7
	c0.5,1.1,0.8,2.3,1.2,3.4c0.3,1.1,0.7,2.3,1,3.5l0.9,3.6l0.7,3.6c0.5,2.4,0.8,4.8,1.2,7.2c0.3,2.4,0.5,4.6,0.8,6.9
	c-0.4,1.3-0.6,2.5-0.7,4c0,0.8,0,1.7,0.3,2.6c0.1,0.2,0.2,0.5,0.3,0.7c0.2,0.2,0.3,0.5,0.5,0.7c0.3,0.4,0.6,0.7,1,0.9
	C389.3,198.5,388.7,198.8,388.1,199.1z"/>
<polyline class="st3" points="214.8,388.1 219.5,395.6 219.5,395.5 237.5,395.5 237.5,395.6 240.4,327.4 214.8,388.2 "/>
</svg>
