<?xml version="1.0" encoding="utf-8"?>
<!-- Generator: Adobe Illustrator 22.0.1, SVG Export Plug-In . SVG Version: 6.00 Build 0)  -->
<svg version="1.1" id="Layer_1" xmlns="http://www.w3.org/2000/svg" xmlns:xlink="http://www.w3.org/1999/xlink" x="0px" y="0px"
	 viewBox="0 0 400 400" style="enable-background:new 0 0 400 400;" xml:space="preserve">
<style type="text/css">
	.st0{fill:none;}
	.st1{opacity:0.1;}
	.st2{fill:#903E55;}
	.st3{opacity:0.1;fill:#903E55;}
	.st4{opacity:0.75;fill:none;stroke:#903E55;stroke-width:0.3338;stroke-linecap:round;stroke-linejoin:round;}
	.st5{opacity:0.22;}
	.st6{fill:none;stroke:#903E55;stroke-width:1.5471;stroke-linecap:round;stroke-linejoin:round;}
	.st7{opacity:0.25;}
	.st8{fill:none;stroke:#903E55;stroke-width:1.3528;stroke-linecap:round;stroke-linejoin:round;}
	.st9{fill:none;stroke:url(#SVGID_1_);stroke-width:1.3353;stroke-linecap:round;stroke-linejoin:round;}
	.st10{opacity:0.66;fill:none;stroke:#FFFFFF;stroke-width:1.3353;stroke-linecap:round;stroke-linejoin:round;}
	.st11{opacity:0.49;fill:#903E55;}
</style>
<rect x="-0.2" y="0.2" class="st0" width="400" height="400"/>
<g id="XMLID_3_" class="st1">
	<g>
		<path class="st2" d="M286.8,248.9l-0.2,11.2h0l-18.7-5.4c-12-3.5-25-0.4-34.1,8c-8.3-13.7-17.8-26.8-28.7-38.2
			c13.3,1.9,15.8-4,15.8-4l40.9,5.3v0c0.9,2.8,1.7,5.5,2.4,7.9c2,6.4,6.4,11.8,12.4,14.8c1.4,0.7,2.6,1.2,3.4,1.2
			C280.8,249.7,283.2,249.4,286.8,248.9z"/>
		<path class="st2" d="M138.4,314.8c32.9-10.2,69.2-28.6,87.5-38.5l-3.6,5.6l-22,76.4l-2.9-0.8l-11-17.2l-42-2.1
			c-4.8-7.1-5.9-22.7-5.9-22.7L138.4,314.8z"/>
	</g>
	<g>
	</g>
</g>
<g>
	<path class="st2" d="M122.9,187.4c-0.1-2.4-0.5-4.9-1-7.2c-0.5-2.4-1.2-4.8-1.9-7.1c-0.7-2.3-1.6-4.7-2.4-7
		c-0.4-1.1-0.9-2.3-1.4-3.4c-0.5-1.1-1-2.2-1.5-3.4c-4.6-9.1-7-19.5-6.7-30.1c0.2-5.3,1-10.6,2.4-15.7c1.4-5.2,3.6-10.1,6.4-14.9
		c1.4-2.4,3-4.7,4.9-6.9l0.7-0.8l0.6-0.7l1.3-1.4l2.6-2.7c1.8-1.8,3.5-3.6,5.4-5.4l2.8-2.7c0.9-0.9,1.8-1.7,2.9-2.7l-2.2,3.5l0.3-1
		l0.3-0.9c0.2-0.6,0.4-1.1,0.5-1.6c0.4-1.1,0.8-2.1,1.2-3.1c0.9-2,1.9-4,3.1-6c2.4-3.8,5.3-7.4,8.9-10.4c3.5-3,7.6-5.5,12-7.1
		c2.2-0.9,4.5-1.5,6.6-1.9c2.1-0.5,4.2-0.8,6.3-1c8.3-0.9,16.4-0.8,24.5-0.1c8.1,0.7,16.1,2.2,24,4.7c3.9,1.2,7.8,2.7,11.7,4.6
		c3.8,1.8,7.5,4.1,10.9,6.9c3.4,2.8,6.5,6.1,8.9,9.9c0.6,1,1.2,2,1.7,3c0.3,0.5,0.5,1,0.7,1.6c0.2,0.5,0.3,0.9,0.5,1.4l2,5.4
		c1.4,3.6,2.8,7.1,4.2,10.7c0.7,1.8,1.5,3.5,2.2,5.2l1.2,2.5c0.4,0.8,0.8,1.7,1.2,2.2c0.1,0.1,0.1,0.1,0.1,0.1c0,0,0,0,0,0l0,0
		c0,0,0,0-0.1-0.1c-0.3-0.1,0,0,0,0l0.1,0.1c0.2,0.1,0.5,0.3,0.7,0.4c0.4,0.3,0.9,0.6,1.3,0.9c0.8,0.6,1.6,1.3,2.3,2.1
		c1.5,1.5,2.7,3.2,3.6,5.2c0.9,1.9,1.3,4.1,1.1,6.2c-0.1,2.1-0.8,4-1.7,5.8l0,0c-0.1,0.2-0.3,0.3-0.5,0.2c-0.2-0.1-0.3-0.3-0.2-0.5
		c0.7-1.7,1.2-3.6,1.2-5.4c0-1.9-0.5-3.7-1.4-5.4c-0.9-1.6-2.1-3.1-3.5-4.4c-0.7-0.6-1.4-1.2-2.2-1.8c-0.4-0.3-0.8-0.5-1.2-0.8
		l-0.6-0.3c-0.1,0-0.3-0.2-0.4-0.3c-0.1-0.1-0.2-0.2-0.3-0.3c-1.3-1.5-2.3-3.2-3.3-4.8c-1-1.7-1.9-3.4-2.8-5.1
		c-1.8-3.4-3.6-6.9-5.2-10.4L253,80c-0.8-1.8-1.7-3.4-2.7-5c-2.1-3.1-4.9-5.8-7.9-8.1c-6.1-4.5-13.3-7.5-20.7-9.6
		c-7.4-2.1-15-3.3-22.7-3.9c-7.7-0.6-15.4-0.5-23,0.4c-3.8,0.5-7.6,1.1-11.1,2.4c-3.5,1.3-6.8,3.2-9.7,5.7
		c-5.8,4.9-10,11.6-12.2,18.8l0,0c0,0.1-0.1,0.2-0.2,0.3c-3.7,3.2-7.4,6.6-10.9,10c-1.8,1.7-3.6,3.5-5.3,5.2
		c-1.7,1.8-3.2,3.7-4.5,5.8c-5.4,8.2-8.6,17.8-9.5,27.6c-0.9,9.8,0.5,19.8,4,29c1.8,4.6,3.5,9.3,4.8,14.1c0.7,2.4,1.2,4.8,1.7,7.3
		c0.4,2.5,0.8,4.9,0.8,7.5c0,0.2-0.2,0.4-0.4,0.4C123.1,187.8,122.9,187.7,122.9,187.4L122.9,187.4z"/>
</g>
<g>
	<path class="st2" d="M142.2,80.5c0,2.5,0.2,5,0.5,7.5c0.3,2.5,0.8,5,1.5,7.4c0.7,2.4,1.7,4.7,2.9,6.8c1.3,2.1,2.9,4.1,4.9,5.3
		c2.1,1.3,4.5,1.8,6.9,2.2c2.4,0.3,4.9,0.4,7.4,0.3c5-0.2,10-0.9,14.9-1.8c4.9-0.9,9.9-1.9,14.8-2.9c4.9-1,10-2,15.1-2.3
		c5.1-0.3,10.3-0.1,15.4,0.9c5.1,1,10,2.8,14.5,5.5c4.5,2.7,8.4,6.4,11.3,10.7c3,4.3,5,9.3,5.9,14.4c0.9,5.1,0.8,10.4-0.1,15.5
		c-0.5,2.5-1.2,5-2.1,7.5c-0.4,1.2-0.9,2.4-1.4,3.5c-0.5,1.2-0.9,2.3-1.3,3.5c-1.7,4.7-3,9.5-3.7,14.4c-0.7,4.9-0.8,9.9,0.1,14.7
		c0.4,2.4,1.1,4.8,1.9,7.2c0.7,2.4,1.7,4.8,2,7.5c0.1,1.3,0,2.8-0.4,4.1c-0.4,1.3-1.2,2.5-2.1,3.5c-1.7,2-3.8,3.6-5.9,5l-0.1-1.2
		c1.2,0.5,2.5,1,3.8,1.4c1.3,0.4,2.6,0.8,3.9,1.1c1.3,0.3,2.7,0.6,4,0.8c1.4,0.2,2.7,0.4,4.1,0.6c-1.4,0-2.8,0-4.1-0.1
		c-1.4-0.1-2.7-0.3-4.1-0.5c-1.4-0.2-2.7-0.4-4.1-0.7c-1.4-0.3-2.7-0.6-4-1.1c-0.4-0.1-0.5-0.5-0.4-0.9c0-0.1,0.1-0.2,0.2-0.3l0,0
		c2-1.4,4-3,5.5-4.9c0.7-0.9,1.4-1.9,1.7-3c0.4-1.1,0.4-2.2,0.3-3.4c-0.3-2.3-1.2-4.7-2-7.1c-0.8-2.4-1.6-4.9-2.1-7.4
		c-1-5.1-1.1-10.3-0.4-15.4c0.7-5.1,2-10.1,3.7-14.9c0.4-1.2,0.9-2.4,1.3-3.6c0.5-1.2,0.9-2.4,1.4-3.5c0.8-2.3,1.5-4.7,1.9-7.1
		c0.9-4.8,0.9-9.8,0-14.6c-0.9-4.8-2.8-9.4-5.5-13.4c-2.7-4-6.3-7.4-10.5-10c-4.1-2.6-8.8-4.3-13.6-5.3c-4.8-1-9.8-1.3-14.7-1
		c-5,0.2-9.8,1.2-14.8,2.1c-5,0.9-9.9,1.9-14.9,2.6c-5,0.8-10.1,1.4-15.2,1.5c-2.6,0-5.1-0.1-7.7-0.5c-2.5-0.4-5.1-1.1-7.3-2.6
		c-2.2-1.5-3.8-3.6-5.1-5.9c-1.2-2.3-2.1-4.7-2.8-7.1C142.4,90.7,142,85.6,142.2,80.5z"/>
</g>
<g>
	<path class="st2" d="M153,108.8c-2.7,3.3-4.7,7.1-6.4,11c-1.7,3.9-2.9,8-3.7,12.2c-0.4,2.1-0.7,4.2-0.8,6.3
		c-0.2,2.1-0.3,4.2-0.2,6.3c0,4.2,0.5,8.4,1.3,12.6c0.1,0.5-0.2,1-0.7,1c-0.4,0.1-0.8-0.1-1-0.5l0,0c-1-2-2.1-4.1-3.2-6
		c-1.2-1.9-2.4-3.9-3.9-5.4c-0.3-0.3-0.8-0.7-1-0.7c-0.1,0,0.2,0-0.1,0.1c-0.2,0.1-0.4,0.2-0.5,0.3c-0.7,0.5-1.3,1.4-1.8,2.3
		c-0.9,1.9-1.4,4.1-1.4,6.2c0,1.1,0,2.2,0.1,3.3c0.1,1,0.4,2.1,0.8,3.1c0.7,2.1,1.7,4.1,2.9,5.9c1.2,1.8,2.7,3.4,4.5,4.6
		c1.7,1.2,3.7,2,5.8,2.2c0.4,0,0.7,0.2,0.9,0.5l0,0c1.3,1.8,3.1,3.7,4.8,5.3c1.8,1.7,3.6,3.2,5.6,4.7c2,1.5,4,2.8,6.1,4
		c2.1,1.2,4.3,2.3,6.5,3.3c8.9,4,18.7,5.9,28.5,6.4c4.9,0.2,9.9,0.1,14.8-0.4c4.8-0.5,9.5-2.1,14-4.2c4.5-2.1,8.7-4.6,12.8-7.5
		c2-1.4,4-2.9,5.9-4.5c1.9-1.6,3.8-3.2,5.5-5c-1.5,2-3.4,3.6-5.2,5.3c-1.9,1.7-3.8,3.2-5.8,4.7c-4,3-8.2,5.7-12.7,8
		c-4.5,2.3-9.3,4-14.3,4.7c-5,0.6-10,0.9-15,0.8c-5-0.1-10.1-0.6-15-1.6c-5-1-9.8-2.4-14.5-4.5c-2.3-1-4.6-2.1-6.8-3.4
		c-2.2-1.2-4.3-2.6-6.4-4.1c-2.1-1.5-4-3.1-5.8-4.9c-1.8-1.8-3.6-3.6-5.1-5.8l0.9,0.6c-2.5-0.3-4.9-1.3-7-2.7
		c-2.1-1.4-3.7-3.3-5.1-5.3c-1.3-2-2.4-4.2-3.1-6.6c-0.4-1.2-0.7-2.3-0.8-3.6c-0.1-1.2-0.2-2.4-0.1-3.6c0.1-2.4,0.6-4.9,1.8-7.2
		c0.6-1.1,1.3-2.2,2.5-3.1c0.3-0.2,0.6-0.4,1-0.6c0.2-0.1,0.3-0.1,0.7-0.2c0.3,0,0.6,0,0.9,0.1c1,0.3,1.4,0.8,1.9,1.3
		c1.7,1.9,2.9,3.9,4.1,5.9c1.1,2.1,2.2,4.1,3.2,6.3l-1.7,0.5c-0.7-4.3-1-8.6-1-12.9c0-4.3,0.5-8.6,1.5-12.8c1-4.2,2.3-8.3,4.2-12.2
		C147.9,115.7,150.1,112,153,108.8z"/>
</g>
<g>
	<path class="st2" d="M220.8,220.6c6.9,0.4,13.7,1.1,20.6,2c6.8,0.9,13.6,1.9,20.4,3.3c-6.9-0.4-13.7-1.1-20.6-2
		C234.4,223,227.6,222,220.8,220.6z"/>
</g>
<g>
	<path class="st2" d="M216.8,197.2c0,2,0.2,4,0.4,6c0.2,2,0.5,3.9,0.8,5.9c0.3,2,0.7,3.9,1.1,5.8c0.5,1.9,1,3.8,1.7,5.7
		c-1.2-1.6-2.1-3.5-2.7-5.4c-0.7-1.9-1.1-3.9-1.5-5.9c-0.3-2-0.5-4-0.5-6C216.1,201.2,216.2,199.2,216.8,197.2z"/>
</g>
<ellipse transform="matrix(0.9421 -0.3352 0.3352 0.9421 -35.1089 86.5363)" class="st3" cx="233.1" cy="145" rx="11.4" ry="3.2"/>
<ellipse transform="matrix(0.9762 -0.2168 0.2168 0.9762 -30.4345 41.3689)" class="st3" cx="173.4" cy="159.4" rx="11.4" ry="3.2"/>
<g>
	<path class="st2" d="M220.8,220.6c-0.6,1.4-1.9,2.3-3.2,3c-1.3,0.7-2.8,1.1-4.3,1.3c-0.7,0.1-1.5,0.1-2.2,0.2c-0.7,0-1.5,0-2.2,0
		c-0.7-0.1-1.5-0.1-2.2-0.2l-2.2-0.4c1.5,0.1,2.9,0.2,4.4,0.3l2.2,0c0.7-0.1,1.5-0.1,2.2-0.2c1.5-0.2,2.9-0.6,4.2-1.2
		c0.7-0.3,1.3-0.7,1.9-1.1C219.9,221.7,220.5,221.2,220.8,220.6z"/>
</g>
<g>
	<path class="st2" d="M144.1,95.6c6.2-0.8,12.3-2.2,18.2-3.9c5.9-1.8,11.8-4,17.3-6.8l2.1-1l2-1.1l4.1-2.3c2.8-1.4,5.7-2.7,8.7-3.6
		c6-1.8,12.4-2.5,18.7-1.6c6.3,0.7,12.3,2.9,17.8,5.9c5.5,3.1,10.5,7,14.9,11.4c8.9,8.9,15.6,19.7,20.8,31l0,0l0,0
		c0.9,3.2,1.5,6.4,1.7,9.7c0.3,3.3,0.1,6.6-1,9.8c-0.6,1.6-1.7,2.9-2.6,4.2c-0.8,1.4-1.3,2.9-1.5,4.5c-0.3,3.2,0.4,6.5,1.8,9.4
		c-1.5-2.9-2.3-6.2-2.1-9.5c0.2-1.6,0.6-3.3,1.4-4.7c0.9-1.4,1.9-2.7,2.4-4.2c0.5-1.5,0.8-3.1,0.9-4.7c0.1-1.6,0.1-3.2-0.1-4.8
		c-0.3-3.2-0.9-6.4-1.8-9.5l0,0.1c-2.7-5.6-5.7-11-9.2-16.1c-3.4-5.1-7.3-10-11.7-14.3c-4.4-4.4-9.3-8.2-14.7-11.2
		c-5.4-3-11.2-5.1-17.3-5.9c-6.1-0.8-12.3-0.2-18.2,1.5c-2.9,0.9-5.8,2.1-8.5,3.5l-4.1,2.2l-2.1,1.1l-2.1,1
		c-5.6,2.7-11.5,4.9-17.5,6.5C156.4,93.8,150.3,95,144.1,95.6z"/>
</g>
<path class="st4" d="M212.1,173.4c0,0.6,0.2,2,0.5,4.3L212.1,173.4z"/>
<g>
	<path class="st2" d="M222.3,130.3c0.6-1.8,1.2-3.2,1.7-4.8c0.3-0.8,0.5-1.5,0.7-2.3c0.3-0.8,0.4-1.6,0.7-2.5
		c0.9,1.7,0.9,3.7,0.2,5.4c-0.3,0.9-0.8,1.7-1.3,2.4C223.9,129.2,223.2,129.9,222.3,130.3z"/>
</g>
<g>
	<path class="st2" d="M227.9,129.6c0.6-1.8,1.2-3.2,1.7-4.8c0.3-0.8,0.5-1.5,0.7-2.3c0.3-0.8,0.4-1.6,0.7-2.5
		c0.9,1.7,0.9,3.7,0.2,5.4c-0.3,0.9-0.8,1.7-1.3,2.4C229.4,128.6,228.7,129.2,227.9,129.6z"/>
</g>
<g>
	<path class="st2" d="M233.4,129.9c0.6-1.8,1.2-3.2,1.7-4.8c0.3-0.8,0.5-1.5,0.7-2.3c0.3-0.8,0.4-1.6,0.7-2.5
		c0.9,1.7,0.9,3.7,0.2,5.4c-0.3,0.9-0.8,1.7-1.3,2.4C234.9,128.9,234.2,129.5,233.4,129.9z"/>
</g>
<g>
	<path class="st2" d="M173.4,143.3c-0.9,0.2-1.9,0.1-2.8,0c-0.9-0.2-1.8-0.6-2.5-1.1c-1.6-1-2.9-2.5-3.2-4.4c0.8,0.5,1.4,1,2.1,1.5
		c0.7,0.5,1.3,0.9,2,1.3C170.4,141.5,171.8,142.3,173.4,143.3z"/>
</g>
<g>
	<path class="st2" d="M168.7,146.3c-0.9,0.2-1.9,0.1-2.8,0c-0.9-0.2-1.8-0.6-2.5-1.1c-1.6-1-2.9-2.5-3.2-4.4c0.8,0.5,1.4,1,2.1,1.5
		c0.7,0.5,1.3,0.9,2,1.3C165.7,144.5,167.1,145.3,168.7,146.3z"/>
</g>
<g>
	<path class="st2" d="M164.6,149.9c-0.9,0.2-1.9,0.1-2.8,0c-0.9-0.2-1.8-0.6-2.5-1.1c-1.6-1-2.9-2.5-3.2-4.4c0.8,0.5,1.4,1,2.1,1.5
		c0.7,0.5,1.3,0.9,2,1.3C161.6,148.1,163,148.9,164.6,149.9z"/>
</g>
<g class="st5">
	<path class="st2" d="M209.3,148.7c0.5,0.8,0.6,1.8,0.4,2.8c-0.2,1-0.7,1.9-1.3,2.7c-1.3,1.5-3.1,2.5-4.9,2.9
		c-1.9,0.4-3.9,0.3-5.6-0.4c-0.9-0.4-1.7-0.9-2.4-1.6c-0.7-0.7-1.2-1.5-1.4-2.4c1.6,0.8,3,1.1,4.5,1.2c1.4,0.1,2.8,0,4.1-0.3
		c1.3-0.3,2.6-0.8,3.8-1.4C207.6,151.3,208.7,150.4,209.3,148.7z"/>
</g>
<g>
	<path class="st2" d="M167.8,362.6c4,4.8,7.6,9.9,11.1,15c3.5,5.1,6.9,10.4,9.9,15.8c-4-4.8-7.6-9.9-11.1-15
		C174.2,373.3,170.8,368,167.8,362.6z"/>
</g>
<g>
	<path class="st2" d="M94.1,372.8c-0.4,1.8-0.9,3.6-1.4,5.4c-0.6,1.8-1.2,3.5-1.8,5.2c-0.7,1.7-1.4,3.4-2.2,5.1
		c-0.8,1.7-1.6,3.3-2.6,4.9c0.4-1.8,0.9-3.6,1.4-5.4c0.6-1.8,1.2-3.5,1.8-5.2c0.7-1.7,1.4-3.4,2.2-5.1
		C92.3,376,93.1,374.4,94.1,372.8z"/>
</g>
<g>
	<path class="st2" d="M140.1,216.9c2.4,1.2,4.8,2.6,7.1,4.2c2.2,1.6,4.4,3.3,6.4,5.2c1,0.9,2,2,2.9,3c0.9,1.1,1.8,2.1,2.7,3.2
		c1.7,2.2,3.3,4.5,4.7,6.9c2.7,4.9,4.7,10.2,5.8,15.7c0.3,1.4,0.5,2.8,0.8,4.2l0.4,4.2c0.2,1.4,0.1,2.8,0.1,4.2c0,1.4,0,2.8-0.2,4.2
		c-0.3,5.7-1.9,11.2-4,16.5c-0.6,1.3-1.1,2.6-1.7,3.9l-2.1,3.7l-0.5,0.9l-0.6,0.9l-1.2,1.8l-1.2,1.8c-0.4,0.6-0.9,1.1-1.4,1.6
		c-3.5,4.5-7.9,8.3-12.6,11.5l-1.8,1.2c-0.6,0.4-1.2,0.8-1.8,1.1l-3.8,2c-0.6,0.4-1.3,0.6-2,0.9l-2,0.8l-2,0.8
		c-0.7,0.2-1.4,0.4-2.1,0.6c-1.4,0.4-2.8,0.8-4.1,1.1l-4.2,0.7c-1.4,0.3-2.8,0.3-4.3,0.4c-1.4,0.1-2.9,0.2-4.3,0.1l-4.3-0.2
		c-1.4-0.2-2.8-0.4-4.2-0.6c-1.4-0.1-2.8-0.5-4.2-0.8c-1.4-0.4-2.8-0.6-4.1-1.1l-4-1.4l-3.9-1.8c-1.3-0.5-2.5-1.3-3.8-2
		c-1.2-0.7-2.5-1.4-3.6-2.3c-4.8-3.1-8.8-7.2-12.3-11.6c-3.6-4.4-6.3-9.5-8.3-14.7c-0.5-1.3-1-2.6-1.4-4l-1-4.1
		c-0.7-2.7-1.1-5.5-1.3-8.3c-0.2-2.8-0.1-5.6,0.1-8.4c0.3-2.8,0.7-5.5,1.3-8.2c0.6-2.7,1.5-5.3,2.5-7.9c1.1-2.5,2.3-5,3.7-7.4l0,0
		c0-0.1,0.1-0.1,0.2-0.1c0.1,0,0.1,0.1,0.1,0.2c-5.1,9.6-7.4,20.7-6.3,31.5c0.3,2.7,0.7,5.4,1.4,8l1.1,3.9c0.4,1.3,1,2.5,1.4,3.8
		c2.1,5,4.8,9.8,8.3,13.9c6.8,8.4,16.2,14.7,26.6,17.9c1.3,0.5,2.6,0.7,3.9,1c1.3,0.3,2.6,0.7,4,0.8c1.3,0.2,2.7,0.4,4,0.5l4.1,0.1
		c1.4,0.1,2.7-0.1,4.1-0.2c1.4-0.1,2.7-0.1,4-0.4l4-0.7c1.3-0.3,2.6-0.7,3.9-1.1c0.7-0.2,1.3-0.3,2-0.6l1.9-0.7l1.9-0.7
		c0.6-0.2,1.3-0.5,1.9-0.8l3.6-1.8c0.6-0.3,1.2-0.7,1.7-1l1.7-1.1c4.5-3,8.7-6.6,12.1-10.8c7-8.3,11.4-18.7,12.6-29.5
		c0.2-1.3,0.2-2.7,0.3-4.1c0-1.4,0.2-2.7,0-4.1l-0.3-4.1c-0.2-1.3-0.4-2.7-0.7-4c-0.9-5.4-2.8-10.5-5.2-15.4
		c-5-9.6-12.9-17.7-22.5-23c-0.1,0-0.1-0.1-0.1-0.2C139.9,216.9,140,216.9,140.1,216.9z"/>
</g>
<ellipse transform="matrix(0.9762 -0.2168 0.2168 0.9762 -53.994 36.4481)" class="st3" cx="139.2" cy="264.4" rx="9.3" ry="2.1"/>
<ellipse transform="matrix(0.9762 -0.2168 0.2168 0.9762 -57.7574 25.3794)" class="st3" cx="86.8" cy="276" rx="9.3" ry="2.1"/>
<line class="st4" x1="130.6" y1="294.1" x2="127.4" y2="286.4"/>
<line class="st4" x1="109.6" y1="290.4" x2="110" y2="298.7"/>
<g>
	<path class="st2" d="M111.7,321.5l0,0.3l0,0c0.9,3.6,1.5,7.3,1.8,11c0.1,1.9,0.2,3.7,0.1,5.6c-0.1,1.9-0.3,3.8-0.8,5.7
		c-0.1,0.3-0.3,0.6-0.7,0.7l-0.1,0c-6,2-11.9,4-17.9,6c-3,1-6,2-9,2.9l-9,2.9l1-0.9c-1.2,3.2-2.5,6.4-3.8,9.5
		c-1.3,3.2-2.6,6.3-3.9,9.5l-2,4.7l-2.1,4.7c-1.4,3.1-2.9,6.2-4.5,9.2c0.9-3.3,1.9-6.6,3-9.8l1.6-4.9l1.7-4.8
		c1.1-3.2,2.3-6.4,3.5-9.6c1.2-3.2,2.4-6.4,3.7-9.6l0,0c0.2-0.4,0.5-0.7,0.9-0.9l9-2.8c3-1,6-1.8,9-2.8c6-1.8,12-3.6,18.1-5.4
		l-0.7,0.7c0.5-1.7,0.9-3.4,1.1-5.2c0.2-1.8,0.3-3.6,0.4-5.4c0-1.8,0-3.7-0.1-5.5c-0.1-1.8-0.2-3.7-0.4-5.5l0,0L111.7,321.5z"/>
</g>
<g>
	<path class="st2" d="M111.4,343.6l0.8,0.6l0,0c2.8,0.8,5.7,1.3,8.5,1.6c2.9,0.3,5.7,0.4,8.5,0c2.8-0.3,5.6-1.1,8.1-2.3
		c2.6-1.2,4.9-3,6.9-5.1l0,0l0,0l0.4-0.2l-0.3,0.3l0,0c-1.6,2.4-3.8,4.6-6.4,6.1c-2.6,1.5-5.6,2.4-8.5,2.8c-3,0.3-6,0.2-8.9-0.3
		c-2.9-0.5-5.8-1.4-8.4-2.7l0,0l0,0L111.4,343.6z"/>
</g>
<path class="st6" d="M102.5,205.4c0,0,77.7-33.4,114.2,76.3"/>
<path class="st6" d="M91.8,207.7c-13.4,5.2-67.7,31.6-55.4,118.5"/>
<g>
	<path class="st2" d="M120.8,258.4c0.3-2.2,1.2-4.3,2.6-6.1c1.4-1.8,3.5-3.3,5.9-3.9c2.4-0.6,5-0.1,7,1c2,1.1,3.7,2.6,4.9,4.4
		c-2-0.8-3.9-1.7-5.8-2.2c-1.9-0.5-3.7-0.6-5.4-0.2c-1.7,0.4-3.3,1.3-4.8,2.5C123.6,255.3,122.2,256.8,120.8,258.4z"/>
</g>
<g>
	<path class="st2" d="M129.6,250c0.5-1.3,1-2.3,1.3-3.3c0.2-0.5,0.3-1,0.3-1.6c0.1-0.6,0.1-1.1,0.1-1.9c0.5,0.4,0.9,1,1.1,1.7
		c0.2,0.7,0.2,1.5-0.1,2.1c-0.2,0.7-0.6,1.3-1.1,1.8C130.9,249.4,130.3,249.8,129.6,250z"/>
</g>
<g>
	<path class="st2" d="M133.5,249.9c0.5-1.3,1.1-2.3,1.6-3.3l0.8-1.5c0.2-0.5,0.5-1,0.8-1.7c0.4,0.6,0.5,1.3,0.4,2
		c-0.1,0.7-0.3,1.3-0.6,1.9c-0.3,0.6-0.7,1.1-1.2,1.5C134.7,249.3,134.2,249.7,133.5,249.9z"/>
</g>
<g>
	<path class="st2" d="M138.6,251.9c0.6-1.3,1.4-2.4,2-3.4c0.3-0.5,0.7-1,0.9-1.6c0.3-0.5,0.5-1.1,0.6-1.8c0.5,0.6,0.6,1.4,0.5,2.2
		c-0.1,0.8-0.4,1.5-0.8,2.1c-0.4,0.6-0.9,1.2-1.4,1.6C139.9,251.4,139.3,251.8,138.6,251.9z"/>
</g>
<g>
	<path class="st2" d="M100.7,262.9c-2-0.9-3.9-1.7-5.8-2.1c-1.9-0.5-3.8-0.6-5.5-0.3c-1.7,0.3-3.3,1.2-4.8,2.5
		c-1.5,1.2-2.9,2.8-4.4,4.4c0.3-2.2,1.2-4.3,2.6-6.1c1.4-1.8,3.5-3.4,5.9-3.8c2.4-0.5,4.9,0,7,1C97.7,259.5,99.5,261,100.7,262.9z"
		/>
</g>
<g>
	<path class="st2" d="M89.1,259c-0.7,0.1-1.4,0-2-0.2c-0.6-0.2-1.2-0.6-1.7-1.2c-0.5-0.5-0.8-1.2-1-1.9c-0.2-0.7,0-1.4,0.3-2
		c0.3,0.6,0.6,1.2,0.9,1.6c0.3,0.5,0.6,0.9,1,1.3C87.2,257.4,88.1,258.1,89.1,259z"/>
</g>
<g>
	<path class="st2" d="M85.5,260.5c-0.7,0.1-1.4,0-2-0.2c-0.6-0.2-1.2-0.5-1.8-0.9c-0.5-0.4-1-0.9-1.4-1.5c-0.3-0.6-0.6-1.3-0.5-2
		c0.5,0.5,1,0.8,1.4,1.2l1.4,1C83.6,258.9,84.6,259.6,85.5,260.5z"/>
</g>
<g>
	<path class="st2" d="M81.8,264.5c-0.7,0.1-1.5,0.1-2.2-0.1c-0.7-0.2-1.4-0.4-2-0.8c-0.6-0.4-1.2-0.9-1.6-1.6
		c-0.4-0.6-0.6-1.5-0.4-2.2c0.5,0.6,0.9,1,1.4,1.4c0.5,0.4,1,0.7,1.5,1C79.6,263,80.7,263.6,81.8,264.5z"/>
</g>
<g class="st7">
	<path class="st2" d="M119.8,268.1c0.3,0.3,0.4,0.8,0.4,1.2c0,0.4,0,0.9-0.1,1.3c-0.2,0.8-0.6,1.6-1.1,2.3c-1,1.4-2.6,2.4-4.3,2.8
		c-1.8,0.4-3.6,0.1-5.1-0.7c-0.8-0.4-1.4-0.9-2-1.6c-0.3-0.3-0.5-0.7-0.7-1.1c-0.2-0.4-0.3-0.9-0.1-1.3c0.6,0.5,1.3,0.6,1.9,0.7
		c0.6,0.1,1.2,0.1,1.8,0.1c1.2,0,2.2-0.1,3.2-0.3c1-0.2,2-0.6,3-1.1c0.5-0.3,1.1-0.6,1.6-0.9C118.9,269.1,119.4,268.8,119.8,268.1z"
		/>
</g>
<g>
	<path class="st2" d="M161.7,218.7c-6.1,0.3-12.3,0-18.4-0.5c-6.1-0.5-12.2-1.4-18.2-2.8c-3-0.7-6-1.5-9-2.5c-2.9-1-5.9-2.1-8.7-3.6
		c-2.8-1.4-5.5-3.1-8-5.2c-2.5-2.1-4.6-4.6-6.1-7.5l2.9-0.7c0,0.9-0.1,1.5-0.2,2.3c-0.1,0.7-0.2,1.4-0.4,2.1
		c-0.3,1.4-0.7,2.8-1.2,4.2c-0.9,2.7-2.1,5.3-3.4,7.8c-2.7,5-6.1,9.5-9.8,13.7c-3.8,4.2-7.9,7.9-12.3,11.4c-4.4,3.4-9,6.6-13.8,9.4
		c4.5-3.3,8.8-6.7,12.9-10.4c4.1-3.7,7.9-7.6,11.5-11.8c3.5-4.2,6.6-8.7,9.1-13.5c1.2-2.4,2.3-4.9,3.1-7.4c0.4-1.3,0.8-2.6,1-3.9
		c0.1-0.6,0.3-1.3,0.3-1.9c0.1-0.6,0.2-1.3,0.2-1.8l0,0c0-0.8,0.7-1.5,1.5-1.5c0.6,0,1.1,0.3,1.3,0.8c1.3,2.5,3.2,4.7,5.4,6.6
		c2.2,1.9,4.7,3.5,7.3,4.8c5.3,2.7,11,4.7,16.9,6.2c5.8,1.6,11.8,2.7,17.8,3.6C149.5,217.6,155.6,218.3,161.7,218.7z"/>
</g>
<g>
	<path class="st2" d="M89.6,384.4c0.6,0.6,1,1.3,1.4,2c0.4,0.7,0.8,1.4,1,2.2c0.3,0.7,0.5,1.5,0.7,2.3c0.2,0.8,0.3,1.6,0.3,2.5
		c-0.6-0.6-1-1.3-1.5-2c-0.4-0.7-0.8-1.4-1-2.2c-0.3-0.8-0.5-1.5-0.7-2.3C89.7,386.1,89.6,385.3,89.6,384.4z"/>
</g>
<g>
	<path class="st2" d="M175,373.2c0.2,1.7,0.2,3.4,0.2,5.1c0,1.7-0.1,3.4-0.3,5.1c-0.2,1.7-0.3,3.4-0.6,5c-0.3,1.7-0.6,3.3-1,5
		c-0.2-1.7-0.2-3.4-0.2-5.1c0-1.7,0.1-3.4,0.3-5.1c0.2-1.7,0.3-3.4,0.6-5C174.3,376.5,174.6,374.8,175,373.2z"/>
</g>
<g>
	<path class="st0" d="M335.7,236.3"/>
</g>
<g>
	<path class="st2" d="M277.9,148.6c-1.6,0.9-2.9,2.1-4,3.4c-0.6,0.6-1.1,1.3-1.6,2c-0.5,0.7-1,1.4-1.4,2.2c-1.7,3-2.7,6.4-3.3,9.8
		c-0.6,3.4-0.9,6.9-0.9,10.4c0.1,3.9-0.9,8-2.6,11.6c-0.4,0.9-0.9,1.8-1.4,2.7c-0.3,0.4-0.5,0.9-0.8,1.3l-0.8,1.2
		c-0.9,1.3-1.6,2.6-2,3.9c-0.2,0.7-0.3,1.3-0.4,2c0,0.7,0,1.3,0.1,2c0.2,1.5,0.6,3.3,1,5c1.6,6.8,3.7,13.7,5.8,20.6l1.6,5.2
		c0.3,0.9,0.5,1.6,0.8,2.3c0.3,0.7,0.6,1.4,0.9,2.1c1.4,2.8,3.4,5.2,5.8,7.2c1.2,1,2.5,1.8,3.9,2.5c0.3,0.2,0.7,0.3,0.9,0.4
		c0.3,0.1,0.5,0.1,0.4,0.1c0.4,0,1.4-0.1,2.3-0.2c3.5-0.4,7.1-0.8,10.6-1.3c3.5-0.5,7.1-1.1,10.6-1.6c3.5-0.5,7.1-1.2,10.6-1.9
		c3.5-0.7,7.1-1.4,10.5-2.2l2.6-0.7l2.6-0.7c1.8-0.4,3.4-1.1,5.2-1.6l0,0c0.1,0,0.2,0,0.2,0.1c0,0.1,0,0.2-0.1,0.2
		c-6.6,2.9-13.6,5.1-20.6,6.9c-7,1.8-14.1,3.3-21.2,4.6c-3.6,0.6-7.1,1.2-10.7,1.7c-0.9,0.1-1.8,0.2-2.7,0.2c-1-0.1-1.9-0.4-2.7-0.8
		c-1.7-0.8-3.3-1.7-4.7-2.8c-2.9-2.2-5.3-5.1-7-8.4c-0.9-1.6-1.5-3.4-2-5.1l-1.6-5.2c-2.1-6.9-4.1-13.9-5.7-20.9
		c-0.4-1.8-0.7-3.6-0.9-5.4c-0.2-1.8-0.1-3.7,0.5-5.5c0.6-1.8,1.5-3.4,2.6-4.8c1.1-1.4,2.1-2.9,2.9-4.5c1.6-3.2,2.5-6.7,2.7-10.3
		c0.2-3.6,0.6-7.2,1.5-10.8c0.9-3.5,2.2-7,4.2-10c1-1.5,2.1-3,3.5-4.2c1.3-1.2,2.8-2.3,4.5-3.1c0.1,0,0.2,0,0.3,0.1
		C278,148.5,278,148.6,277.9,148.6L277.9,148.6z"/>
</g>
<line class="st8" x1="286.8" y1="248.9" x2="286.5" y2="262.9"/>
<line class="st8" x1="322" y1="241.2" x2="323.4" y2="271.7"/>
<g>
	<path class="st2" d="M332.9,229.5c-0.3,1.3-0.3,2.6,0.1,3.9c0.4,1.2,1.3,2.2,2.4,2.8l-0.1,0c1.7,0.4,3.5,0.4,5.3,0
		c1.7-0.4,3.4-1.1,5-1.9c3.1-1.8,5.9-4.3,8-7.1c1.1-1.4,2-3,2.6-4.7c0.3-0.8,0.4-1.7,0.2-2.5c-0.1-0.8-0.4-1.7-0.9-2.3
		c-1-1.4-2.9-1.9-4.6-2c-1.8-0.1-3.6,0.1-5.4,0.5c1.7-0.7,3.6-1,5.5-1.1c0.9,0,1.9,0.1,2.8,0.4c0.9,0.3,1.8,0.8,2.5,1.6
		c0.7,0.8,1.1,1.7,1.2,2.7c0.2,1,0.1,2.1-0.2,3c-0.6,1.9-1.5,3.5-2.7,5c-2.2,3-5.1,5.6-8.4,7.4c-1.7,0.9-3.4,1.6-5.3,1.9
		c-1.9,0.3-3.8,0.3-5.7-0.3l0,0c0,0-0.1,0-0.1,0c-0.6-0.4-1.1-0.9-1.5-1.4c-0.4-0.6-0.7-1.2-0.9-1.9
		C332.3,232.1,332.5,230.7,332.9,229.5z"/>
</g>
<g>
	<path class="st2" d="M277.6,148.5c2.5,2.6,5.5,4.5,8.7,6c3.2,1.4,6.6,2.5,10,3.3c3.4,0.8,6.9,1.3,10.3,1.5l2.7,0.2l1.4,0.1
		c0.4,0,0.8,0.1,1.3,0.1c0.8,0,1.7,0,2.5,0l1.4-0.1c0.5,0,1,0,1.6,0c2.1,0.1,4.2,0.6,6.2,1.6c1.9,1,3.6,2.6,4.8,4.4
		c0.6,0.9,1.1,1.8,1.5,2.8l0.5,1.2c0.2,0.4,0.3,0.7,0.5,1.1c0.7,1.5,1.7,2.9,2.6,4.3c1,1.4,2.1,2.8,3.1,4.2c1.1,1.4,2.2,2.8,3.3,4.3
		c1.1,1.5,2.2,3,3.1,4.8c0.5,0.9,0.9,1.9,1.1,3.1c0.1,0.6,0.1,1.3,0,2c-0.1,0.7-0.4,1.4-0.8,2l-2.2-2.8c1.1-0.3,2.2-0.7,3.2-1.1
		l1.6-0.6l0.8-0.3l0.4-0.1l0.2-0.1l0.2-0.1c0.2-0.1,0.5-0.2,0.9-0.1c0.3,0,0.5,0.1,0.7,0.3c0.1,0.1,0.3,0.2,0.3,0.3
		c0.3,0.3,0.3,0.5,0.4,0.6c0.1,0.1,0.1,0.3,0.1,0.4c0.1,0.2,0.1,0.4,0.1,0.6c0.1,0.3,0.1,0.7,0.1,1c0.1,0.6,0.1,1.2,0.1,1.8
		c0,1.2,0,2.4-0.1,3.6c-0.2,4.7-1,9.4-2.5,13.9c-1.4,4.5-3.5,8.8-6.8,12.3c-1.6,1.7-3.6,3.2-5.8,4.1c-2.2,0.9-4.5,1.4-6.8,1.4l0,0
		c-0.1,0-0.1-0.1-0.1-0.1c0-0.1,0.1-0.1,0.1-0.1c2.3-0.1,4.5-0.6,6.6-1.6c2.1-1,3.9-2.4,5.4-4.1c3.1-3.4,5-7.7,6.2-12.1
		c1.3-4.4,1.9-9,2-13.6c0-1.1,0-2.3,0-3.4c0-0.6-0.1-1.1-0.1-1.7c0-0.3-0.1-0.6-0.1-0.8c-0.1-0.3-0.1-0.6-0.2-0.7c0,0,0,0,0,0
		c0,0,0.1,0,0,0l-0.2,0.1l-0.4,0.2l-0.8,0.3l-1.6,0.6c-1.1,0.4-2.2,0.8-3.2,1.2c-0.1,0-0.2,0-0.3-0.1c0-0.1,0-0.1,0-0.2
		c0.5-0.7,0.5-1.6,0.3-2.5c-0.2-0.9-0.5-1.7-1-2.4c-0.9-1.6-1.9-3-3-4.4c-2.2-2.8-4.5-5.6-6.6-8.5c-1-1.5-2-3-2.9-4.6
		c-0.4-0.8-0.8-1.6-1.1-2.5c-0.3-0.8-0.7-1.6-1.2-2.3c-1-1.5-2.3-2.7-3.8-3.6c-1.5-0.8-3.3-1.3-5.1-1.4c-0.9-0.1-1.8,0-2.7,0.1
		c-0.9,0-1.8,0-2.7,0c-1.8-0.1-3.6-0.4-5.4-0.6c-3.6-0.4-7.1-1.1-10.6-2c-3.5-1-6.9-2.3-10-4c-3.2-1.7-6.1-4-8.3-6.8
		c0-0.1,0-0.1,0-0.2C277.5,148.5,277.5,148.5,277.6,148.5L277.6,148.5z"/>
</g>
<g>
	<path class="st2" d="M355.7,224.1c5.2-0.1,10.4-1.2,14.9-3.6c4.5-2.4,8.2-6,10.9-10.2c1.4-2.1,2.5-4.4,3.5-6.7
		c0.5-1.2,0.9-2.4,1.4-3.6c0.1-0.3,0.3-0.6,0.4-1c0.1-0.2,0.2-0.3,0.3-0.6c0.1-0.1,0.2-0.2,0.3-0.4c0.1-0.1,0.1-0.2,0.3-0.3
		c0.2-0.1,0.3-0.2,0.8-0.3c0.1,0,0.2,0,0.3,0c0.1,0,0,0,0,0l0,0c0,0,0,0,0,0l0.1,0c0.1,0,0.2-0.1,0.3-0.1c0.2-0.1,0.5-0.2,0.8-0.3
		c1-0.5,2.1-1.1,3-1.8c0.2-0.2,0.4-0.3,0.4-0.4c0,0,0,0,0,0.1c0,0,0,0.1,0,0.1c0,0.1-0.1,0.2-0.1,0.3c0,0.3,0,0.7,0.3,1
		c0.1,0.2,0.2,0.2,0.3,0.3l0.2,0.1c0,0,0.1,0,0.1,0c0,0,0,0,0,0c0,0,0,0,0,0c0,0-0.2,0-0.3,0c-0.3,0-0.5,0-0.8-0.1
		c-0.1,0-0.3,0-0.4-0.1l-0.4-0.2c-0.6-0.2-1.1-0.6-1.5-1.1c-0.2-0.2-0.3-0.5-0.5-0.7c-0.1-0.2-0.2-0.5-0.3-0.7
		c-0.3-0.9-0.3-1.8-0.3-2.6c0.1-1.6,0.3-2.9,0.7-4.4l-0.1,0.8c-0.3-2.4-0.5-4.9-0.8-7.3c-0.4-2.4-0.7-4.8-1.2-7.2l-0.7-3.6l-0.9-3.5
		c-0.3-1.2-0.6-2.3-1-3.5c-0.4-1.1-0.7-2.3-1.2-3.4c-1.6-4.5-3.9-8.7-6.6-12.6c-2.7-3.9-5.9-7.4-9.6-10.3c-3.7-3-7.8-5.4-12.1-7.6
		c-4.3-2.2-8.8-4-13.3-5.3c-4.6-1.3-9.3-2-14-2.1c-1.2-0.1-2.4,0-3.5,0c-1.2,0.1-2.3,0.2-3.5,0.3c-0.6,0.1-1.2,0.2-1.7,0.3
		c-0.6,0.1-1.1,0.2-1.7,0.3c-0.6,0.1-1.1,0.3-1.7,0.4c-0.5,0.2-1.1,0.4-1.5,0.5l0.6-0.4l0,0l-0.1,0.1c-1,0.8-2.5,0.7-3.3-0.3
		c0,0,0,0,0,0c-1.1-1.4-2-3.1-2.3-5c-0.2-1.9,0.1-3.6,0.7-5.2c0.6-1.6,1.4-2.9,2.3-4.1c0.9-1.2,1.9-2.3,3.1-3.4l0.6,3.7
		c-2.8-1.2-5.7-2.1-8.7-2.6c-3-0.5-6-0.5-9,0c-5.9,0.9-11.5,3.9-15.8,8.3c-4.3,4.4-7.3,10.1-8.6,16.2c-0.2,0.8-0.3,1.5-0.4,2.3
		c-0.1,0.8-0.2,1.6-0.3,2.3c-0.1,1.6-0.2,3.2,0,4.7c0.3,3.1,1.5,6.2,3.3,8.8c-2.1-2.4-3.6-5.4-4.2-8.7c-0.3-1.6-0.4-3.3-0.4-4.9
		c0-0.8,0-1.6,0.1-2.5c0-0.8,0.1-1.6,0.3-2.4c0.4-3.3,1.4-6.4,2.8-9.5c1.3-3,3.1-5.9,5.4-8.4c2.2-2.5,4.8-4.7,7.7-6.5
		c2.9-1.7,6.1-3,9.5-3.6c3.4-0.7,6.8-0.8,10.2-0.3c3.4,0.4,6.7,1.3,9.8,2.6c1.1,0.4,1.7,1.7,1.2,2.9c-0.1,0.3-0.3,0.6-0.5,0.8
		l-0.1,0.1c-0.8,0.8-1.7,1.8-2.4,2.8c-0.7,1-1.3,2-1.7,3.1c-0.4,1-0.5,2-0.4,2.9c0.1,0.9,0.6,1.7,1.2,2.4l-3.4-0.3l0,0l0,0
		c0.2-0.1,0.4-0.3,0.6-0.4c0.8-0.3,1.4-0.5,2-0.7c0.6-0.2,1.3-0.4,1.9-0.5c0.6-0.2,1.3-0.3,1.9-0.4c0.6-0.1,1.3-0.3,1.9-0.3
		c1.3-0.2,2.6-0.3,3.9-0.5c1.3,0,2.6-0.2,3.9-0.1c5.2,0.1,10.4,0.8,15.4,2.2c5,1.4,9.8,3.2,14.3,5.5c4.6,2.3,9,5,13,8.3
		c4.1,3.2,7.6,7.2,10.5,11.5c2.9,4.3,5.2,9,6.9,13.9c3.4,9.7,4.7,19.8,5.2,29.9l0,0c0,0.3,0,0.5-0.1,0.7c-0.3,1-0.6,2.2-0.7,3.3
		c0,0.5,0,1,0.1,1.3c0,0.1,0,0.1,0.1,0.2c0,0,0,0,0,0.1c0,0,0,0,0,0c0,0,0,0,0,0c0,0,0.1,0,0.1,0c0.1,0,0.1,0,0.2,0
		c0.2,0,0.4,0,0.7,0.1c0.1,0,0.3,0,0.4,0.1l0.2,0.1c0.1,0,0.2,0.1,0.3,0.1c0.1,0.1,0.2,0.1,0.4,0.2c0.2,0.1,0.3,0.2,0.4,0.4
		c0.3,0.4,0.4,1,0.4,1.5c0,0.2-0.1,0.4-0.1,0.5c0,0.1-0.1,0.2-0.2,0.3c-0.1,0.2-0.2,0.3-0.3,0.5c-0.4,0.5-0.7,0.7-1,0.9
		c-1.3,0.9-2.5,1.5-3.8,2.1c-0.3,0.1-0.7,0.3-1.1,0.4c-0.2,0.1-0.4,0.1-0.6,0.2c-0.1,0-0.2,0-0.4,0.1c-0.1,0-0.2,0-0.2,0l-0.1,0
		c0,0-0.1,0,0,0c0.1,0,0.2,0,0.2,0c0.6-0.2,0.6-0.3,0.7-0.4c0,0,0,0,0,0c0,0-0.1,0.2-0.2,0.3c-0.1,0.2-0.3,0.5-0.4,0.8
		c-0.5,1.2-1.1,2.4-1.6,3.6c-1.2,2.4-2.5,4.7-4.1,6.9c-3.2,4.3-7.4,8-12.3,10.1C366.3,223.9,360.9,224.5,355.7,224.1z"/>
</g>
<g>
	<path class="st2" d="M314.4,121.2c3.9,0.8,7.8,1.9,11.5,3.3c3.8,1.4,7.4,3,10.9,5.1c3.5,2,6.8,4.4,9.7,7.2c2.9,2.8,5.4,6.1,7.1,9.9
		c1.7,3.7,2.5,7.8,2.5,11.9c0,2-0.2,4.1-0.6,6.1c-0.4,1.9-0.6,3.9-0.5,5.8c0.2,3.9,1.6,7.6,3.7,10.9c2.1,3.3,4.9,6.2,8,8.5l0,0
		c0.2,0.2,0.3,0.5,0.1,0.8c0,0-0.1,0.1-0.1,0.1l-4.9,3.8l0.2-0.4c0.2,2.3,0.2,4.6,0.1,6.9c-0.1,2.3-0.3,4.6-0.8,6.8
		c-0.5,2.2-1.2,4.5-2.3,6.5c-1.1,2-2.7,3.8-4.7,4.9c2-1.2,3.4-3,4.4-5c1-2,1.6-4.2,2-6.4c0.4-2.2,0.6-4.5,0.6-6.7
		c0-2.3-0.1-4.5-0.3-6.7c0-0.2,0.1-0.3,0.2-0.4l4.8-4l0,0.9c-3.3-2.4-6.2-5.3-8.4-8.8c-2.2-3.4-3.7-7.4-4-11.5
		c-0.1-2.1,0.1-4.1,0.5-6.1c0.4-1.9,0.6-3.9,0.6-5.8c0.1-3.9-0.7-7.8-2.3-11.4c-1.6-3.6-3.9-6.8-6.7-9.6c-2.8-2.8-6-5.2-9.4-7.3
		C329.6,126.2,322.1,123.2,314.4,121.2z"/>
</g>
<g class="st7">
	<path class="st2" d="M278.5,191c-1.6,1.5-3.1,2.9-4.3,4.4c-0.6,0.7-1,1.5-1.1,2.2c-0.1,0.7,0,1.1,0.3,1.7c0.9,1.6,2,3.1,3.2,4.4
		c1.3,1.3,2.8,2.4,4.9,3.4c-2.1,0.9-4.7,0.3-6.7-0.9c-2-1.2-3.6-3.2-4.6-5.2c-0.3-0.6-0.6-1.4-0.6-2.2c0-0.8,0.1-1.6,0.4-2.2
		c0.6-1.3,1.4-2.3,2.4-3c0.9-0.7,1.9-1.3,3-1.7C276.3,191.5,277.4,191.1,278.5,191z"/>
</g>
<g>
	<path class="st2" d="M265.5,179.6c-0.3,0.8-1.1,1.5-2.1,1.6c-1,0.1-2-0.4-2.7-1c-0.6-0.6-1.2-1.3-1.5-2.1c-0.4-0.8-0.5-1.6-0.6-2.4
		c0.7,0.6,1.2,1.2,1.7,1.7c0.5,0.6,1,1.1,1.5,1.6c0.5,0.4,1,0.8,1.6,0.9C264,180,264.7,179.9,265.5,179.6z"/>
</g>
<g>
	<path class="st2" d="M307.2,199c0.6,0.7,1.4,1,2.1,1.2c0.8,0.2,1.6,0.2,2.4,0.2c0.8,0,1.7-0.1,2.5-0.1c0.9,0,1.8-0.1,2.7,0
		c-0.8,0.6-1.6,1-2.5,1.3c-0.9,0.3-1.8,0.5-2.8,0.5c-1,0-2-0.2-2.9-0.7C307.9,200.9,307.2,200,307.2,199z"/>
</g>
<g>
	<path class="st2" d="M305.3,195.2c0.7,0.1,1.3,0.1,1.8,0.1c0.6,0,1.1-0.1,1.7-0.1c0.6,0,1.1-0.1,1.7-0.1c0.6,0,1.2-0.1,1.9,0
		c-0.4,0.5-1,0.9-1.6,1.2c-0.6,0.3-1.2,0.5-1.9,0.5c-0.7,0-1.4,0-2-0.3C306.2,196.3,305.6,195.9,305.3,195.2z"/>
</g>
<g>
	<path class="st2" d="M300.4,191c1.7-0.3,3.1-0.5,4.6-0.7c0.7-0.1,1.4-0.3,2.2-0.4c0.7-0.1,1.5-0.4,2.3-0.6
		c-0.4,0.7-1.1,1.3-1.8,1.7c-0.7,0.4-1.6,0.7-2.4,0.8c-0.8,0.1-1.7,0.1-2.5,0C301.9,191.8,301.1,191.5,300.4,191z"/>
</g>
<g>
	<path class="st2" d="M267.1,179.4c-0.8-0.1-1.5-0.7-1.9-1.3c-0.5-0.7-0.7-1.5-0.7-2.3c0-0.8,0.2-1.6,0.5-2.3c0.2-0.3,0.4-0.7,0.6-1
		c0.3-0.3,0.5-0.6,0.8-0.8c0,0.4,0,0.8-0.1,1.1c0,0.4-0.1,0.7-0.1,1c0,0.7-0.1,1.3-0.1,1.9C266.2,177,266.4,178.1,267.1,179.4z"/>
</g>
<g>
	<path class="st2" d="M272,179.9c-0.6-0.4-0.9-0.9-1.2-1.5c-0.3-0.6-0.4-1.3-0.3-2c0.1-0.7,0.4-1.4,0.9-1.9c0.5-0.5,1.2-0.8,1.9-0.7
		c-0.4,0.6-0.7,1-0.9,1.5c-0.2,0.5-0.3,0.9-0.3,1.4c-0.1,0.5-0.1,1-0.1,1.5C272.1,178.7,272.1,179.3,272,179.9z"/>
</g>
<g>
	<path class="st2" d="M339.4,322.1c1.6,2.8,3,5.6,4.4,8.5l3.1,8.9l6.3,17.8l6.3,17.8l3.1,8.9c0.7,3.1,1.3,6.2,1.9,9.4
		c-1.6-2.8-3-5.6-4.4-8.5L357,376l-6.3-17.8l-6.3-17.8l-3.2-8.9C340.6,328.3,339.9,325.2,339.4,322.1z"/>
</g>
<g>
	<path class="st2" d="M242.3,302.9l-0.4,22.6l-0.6,22.6c-0.2,7.5-0.2,15.1-0.7,22.6c-0.5,7.5-1.1,15.1-2.2,22.6
		c0,0.1-0.1,0.1-0.2,0.1c-0.1,0-0.1-0.1-0.1-0.1c-0.4-7.6-0.4-15.1-0.2-22.7c0.1-7.5,0.8-15.1,1.2-22.6l1.4-22.6l1.5-22.6
		c0-0.1,0.1-0.1,0.1-0.1C242.2,302.8,242.3,302.8,242.3,302.9z"/>
</g>
<g>
	<path class="st2" d="M323.3,270.3c9.2,1.9,18.3,4.2,27.4,6.7c2.3,0.6,4.5,1.2,6.8,1.9c1.1,0.3,2.2,0.6,3.5,1
		c1.2,0.4,2.4,0.9,3.5,1.4c4.5,2.2,8.4,5.7,11.2,9.9c1.4,2.1,2.4,4.4,3.2,6.8c0.4,1.2,0.7,2.5,0.9,3.6c0.2,1.2,0.5,2.3,0.7,3.5
		c0.8,4.6,1.7,9.2,2.4,13.9c1.6,9.3,3,18.5,4,27.9c-2.7-9-4.9-18.1-7.1-27.3c-1.1-4.6-2.1-9.2-3.1-13.7c-0.3-1.1-0.5-2.3-0.7-3.4
		c-0.2-1.1-0.5-2.1-0.8-3.2c-0.7-2.1-1.6-4-2.8-5.8c-2.3-3.7-5.7-6.7-9.5-8.7c-1-0.5-2-1-3-1.3l-1.6-0.5l-1.7-0.5
		c-2.2-0.7-4.5-1.5-6.7-2.2C340.9,276.9,332.1,273.8,323.3,270.3z"/>
</g>
<g>
	<path class="st2" d="M233.8,262.7c1.4-1.9,3.2-3.5,5.1-5c1.9-1.4,4-2.7,6.3-3.7c4.5-1.9,9.4-2.9,14.4-2.7c2.5,0.1,4.9,0.5,7.3,1.1
		l1.8,0.5l1.7,0.6c1.1,0.4,2.2,0.8,3.3,1.2c4.4,1.6,8.8,3.3,13,5.4c-4.7-0.5-9.3-1.4-13.9-2.4c-1.1-0.3-2.3-0.5-3.4-0.8l-1.7-0.4
		l-1.6-0.4c-2.2-0.4-4.4-0.8-6.6-0.8c-4.4-0.2-8.8,0.4-13.1,1.6c-2.1,0.7-4.3,1.4-6.3,2.4C237.8,260.3,235.8,261.5,233.8,262.7z"/>
</g>
<g>
	<path class="st2" d="M199.8,358c1.2-7,2.7-13.9,4.4-20.8c1.7-6.9,3.5-13.7,5.5-20.5c2-6.8,4.1-13.5,6.3-20.3
		c2.2-6.7,4.6-13.4,7.4-20c-1.2,7-2.7,13.9-4.4,20.8c-1.7,6.9-3.5,13.7-5.5,20.5c-2,6.8-4.1,13.5-6.3,20.3
		C204.9,344.8,202.5,351.5,199.8,358z"/>
</g>
<g>
	<path class="st2" d="M242.9,321.1c-1,2.8-2.1,5.5-3.1,8.2l-3.2,8.2c-2.2,5.5-4.4,10.9-6.7,16.3c-2.3,5.4-4.6,10.8-7,16.2l-3.6,8
		c-1.2,2.7-2.4,5.3-3.7,8c1-2.8,2.1-5.5,3.1-8.2l3.2-8.2c2.2-5.5,4.4-10.9,6.7-16.3c2.3-5.4,4.6-10.8,7-16.2l3.6-8
		C240.4,326.5,241.6,323.8,242.9,321.1z"/>
</g>
<g>
	<path class="st2" d="M324.7,270.7c-1.3,1.5-3.1,2.6-4.9,3.5c-1.8,0.9-3.7,1.5-5.7,2c-2,0.5-4,0.6-6.1,0.7c-2,0-4.1-0.3-6.1-0.7
		c-2-0.5-3.9-1.2-5.8-2c-1.8-0.9-3.6-2-5.1-3.4c-1.5-1.4-2.9-3-3.9-4.8c-0.5-0.9-0.9-1.9-1-2.9c-0.2-1-0.2-2.1,0.4-3
		c-0.3,1,0,1.9,0.3,2.8c0.1,0.4,0.4,0.8,0.6,1.3c0.3,0.4,0.5,0.8,0.8,1.2c1.1,1.5,2.6,2.7,4.1,3.8c3,2.2,6.5,3.7,10.2,4.5
		c3.6,0.9,7.4,1,11.2,0.5c1.9-0.2,3.8-0.6,5.6-1.1C321.2,272.4,323,271.7,324.7,270.7z"/>
</g>
<ellipse transform="matrix(0.4632 -0.8862 0.8862 0.4632 -26.482 379.6472)" class="st3" cx="300.2" cy="211.7" rx="2.7" ry="8.1"/>
<path class="st3" d="M258.1,191.9c3.3,2.2,6.7,5.9,6.1,7c-0.6,1.1-5,0.1-8.5-1.4"/>
<g>
	<path class="st2" d="M277.6,185.8c-0.7-0.4-1.3-0.8-1.9-1.2c-0.6-0.4-1.1-0.8-1.6-1.1c-1-0.7-2-1.3-2.9-1.7c-0.9-0.4-1.9-0.7-3-0.9
		c-1.1-0.2-2.4-0.2-4-0.2c0.7-1.4,2.1-2.4,3.7-2.9c1.6-0.5,3.4-0.3,5,0.4c1.6,0.7,2.7,2,3.5,3.3c0.4,0.7,0.7,1.4,0.9,2.1
		C277.5,184.3,277.6,185,277.6,185.8z"/>
</g>
<g>
	<path class="st2" d="M292.6,189.9c1.8-1.1,3.9-1.4,6.1-1.2c2.1,0.3,4.3,1.2,5.9,2.7c1.6,1.5,2.8,3.4,3.4,5.5c0.2,0.5,0.2,1,0.3,1.5
		c0.1,0.5,0.1,1,0.2,1.5c0,1-0.1,2.1-0.3,3.1c-0.6-0.9-1.1-1.7-1.6-2.5c-0.3-0.4-0.5-0.8-0.8-1.2c-0.2-0.4-0.4-0.8-0.7-1.1
		c-0.3-0.4-0.5-0.7-0.7-1.1c-0.2-0.4-0.5-0.6-0.8-1c-0.1-0.2-0.3-0.3-0.4-0.5c-0.1-0.2-0.3-0.3-0.4-0.4c-0.3-0.3-0.5-0.6-0.9-0.8
		c-1.2-1.1-2.5-1.9-4.1-2.6C296.3,191,294.6,190.5,292.6,189.9z"/>
</g>
<linearGradient id="SVGID_1_" gradientUnits="userSpaceOnUse" x1="168.2273" y1="195.4884" x2="169.8317" y2="195.4884">
	<stop  offset="0" style="stop-color:#47CFA4"/>
	<stop  offset="1" style="stop-color:#5CC4D6"/>
</linearGradient>
<path class="st9" d="M168.9,193.6c0,0,0.5,2.5,0.1,3.8"/>
<line class="st10" x1="162.8" y1="306.6" x2="169.4" y2="339.4"/>
<path class="st11" d="M119,290.6c-5.4,1.2-10.2,0.5-10.6-1.6c2.5-3.4,3.8-4,3.8-4c1.7,1.8,5.9,1.2,5.9,1.2l0,0c0,0,4-1.3,4.8-3.6
	c0,0,1.4,0,5.1,2C128.4,286.7,124.4,289.4,119,290.6"/>
<path class="st11" d="M110,298.7c0.1,1.7,0.8,3.1,1.7,4.3c2.3,2.8,6.1,3.8,9.6,3l1-0.2l0,0l1-0.2c3.5-0.8,6.5-3.3,7.4-6.8
	c0.4-1.4,0.4-3-0.2-4.6c-1.3,2.1-5,4.2-9.6,5.2l0,0C116.3,300.4,112,300.1,110,298.7"/>
<line class="st4" x1="198" y1="174.1" x2="198.7" y2="178.8"/>
<path class="st11" d="M214.2,182.7c-6,7.7-16.3,0.8-16.3-4.3c2.3,1.2,10.2,3.3,14.5-0.9C212.5,177.6,216.6,179.7,214.2,182.7z"/>
<path class="st11" d="M194.9,173.1c5.9,2.7,18.8,2,19.6-2c0.9-4.6-4.6-6.4-4.6-6.4l-3.7,3.7l-4.6-1.8L194.9,173.1L194.9,173.1z"/>
<g>
	<path class="st2" d="M295,217.5c-2.1,1.3-4.6,2-7,2.5c-2.5,0.5-4.9,0.7-7.4,0.9c-1.2,0.1-2.5,0.1-3.7,0.1l-0.9,0l-0.4,0
		c-0.1,0-0.2,0-0.3,0c-0.1,0-0.3,0-0.4-0.1c-1-0.3-1.5-0.8-2-1.3c-1-1-1.7-2.1-2.4-3.2c-0.7-1.1-1.3-2.2-1.8-3.4l2.4-0.4
		c-0.2,4-0.1,8.2,0.7,12.1c0.2,1,0.5,1.9,0.8,2.8c0.3,0.9,0.8,1.6,1.4,2.4c0.3,0.4,0.6,0.7,0.9,1.1c0.3,0.3,0.7,0.6,1,0.9
		c0.7,0.5,1.5,0.9,2.3,1c0.8,0.1,1.7,0,2.6-0.2c0.9-0.3,1.7-0.7,2.5-1.2c1.6-1.1,3.1-2.5,4.5-4C290.4,224.4,292.8,221,295,217.5z
		 M295,217.5c-1.6,3.9-3.6,7.6-6.2,11c-1.3,1.7-2.8,3.3-4.5,4.6c-0.9,0.6-1.9,1.3-3,1.7c-1.1,0.4-2.3,0.6-3.6,0.5
		c-1.2-0.2-2.4-0.7-3.4-1.3c-1-0.7-1.8-1.5-2.5-2.4c-0.3-0.5-0.7-0.9-1-1.4l-0.4-0.8c-0.1-0.3-0.2-0.5-0.4-0.8
		c-0.5-1.1-0.8-2.1-1-3.2c-0.5-2.1-0.7-4.3-0.8-6.4c-0.1-2.1,0-4.3,0.2-6.4l0.5-4.7l1.9,4.3c0.9,2.1,2.1,4.4,3.5,6
		c0.3,0.4,0.7,0.7,1,0.8c0,0,0,0,0.1,0c0,0,0,0,0.1,0l0.5,0l0.9,0.1c1.2,0.1,2.4,0.1,3.7,0.2c2.4,0.1,4.9,0.1,7.3-0.1
		C290.2,218.8,292.6,218.4,295,217.5z"/>
</g>
<g>
	<path class="st2" d="M212.1,138.6c0.5-2.3,1.9-4.4,3.5-6.1c1.7-1.7,3.8-3.1,6.1-3.9c0.6-0.2,1.2-0.3,1.7-0.5l0.9-0.2
		c0.3-0.1,0.6-0.1,0.9-0.1c0.6-0.1,1.2-0.1,1.8-0.2c0.6,0,1.2,0,1.8,0.1l0.9,0.1l0.9,0.2c0.6,0.1,1.2,0.2,1.7,0.4
		c1.1,0.4,2.2,0.8,3.2,1.4c-1.2,0.2-2.3,0.3-3.4,0.4c-0.5,0.1-1.1,0.2-1.6,0.2l-0.8,0.1l-0.8,0.2c-0.5,0.1-1,0.2-1.5,0.3l-1.5,0.4
		l-0.7,0.2l-0.7,0.2c-0.5,0.2-1,0.3-1.5,0.5c-1.9,0.7-3.7,1.6-5.5,2.7C215.7,135.8,213.9,137.1,212.1,138.6z"/>
</g>
<g>
	<path class="st2" d="M185.1,142.6c-2.3,0.1-4.5,0.3-6.5,0.7c-2.1,0.4-4,0.9-5.9,1.7c-0.5,0.2-0.9,0.4-1.4,0.6l-0.7,0.3l-0.7,0.4
		l-1.4,0.7c-0.4,0.3-0.9,0.6-1.3,0.8l-0.7,0.4l-0.7,0.5c-0.4,0.3-0.9,0.6-1.4,0.9c-0.9,0.6-1.8,1.3-2.8,1.9c0.4-1.1,0.9-2.2,1.5-3.2
		c0.3-0.5,0.7-1,1-1.4l0.5-0.7l0.6-0.6c0.4-0.4,0.9-0.8,1.3-1.2c0.5-0.4,1-0.7,1.5-1.1c0.2-0.2,0.5-0.3,0.8-0.5l0.8-0.4
		c0.5-0.3,1.1-0.6,1.6-0.8c2.2-0.9,4.7-1.3,7.1-1.2C180.8,140.5,183.2,141.2,185.1,142.6z"/>
</g>
<g>
	<path class="st2" d="M106.9,321.4c-8.1,2.1-16.4,3.9-24.7,5.1c-8.3,1.3-16.8,2-25.2,2.4c-8.5,0.3-17,0.2-25.4-0.6
		c-4.2-0.4-8.5-0.9-12.7-1.7c-2.1-0.4-4.2-0.8-6.3-1.2c-2.1-0.5-4.1-0.9-6.4-1.6c-1.2-0.4-2-1.4-2.1-2.6l0-0.1
		c-0.3-3.8-0.3-7.3-0.2-10.9c0.1-3.6,0.3-7.2,0.6-10.7c0.7-7.1,1.8-14.2,3.5-21.2c3.2-14,8.6-27.6,16-40c3.7-6.2,7.9-12.1,12.7-17.7
		c2.4-2.8,4.9-5.5,7.7-7.9c2.7-2.5,5.6-4.8,8.6-6.9c6.1-4.3,12.7-7.7,19.7-10.2c3.5-1.2,7.1-2.3,10.8-3c1.8-0.4,3.7-0.7,5.6-0.9
		c0.9-0.1,1.9-0.2,2.9-0.3l1.5-0.1l0.8,0l0.9,0l-3.3,1.2l0.4-0.4l0.4-0.3l0.7-0.5c0.5-0.3,0.9-0.6,1.4-0.9c0.9-0.6,1.8-1.1,2.8-1.6
		c1.9-1,3.8-1.8,5.7-2.5c3.8-1.4,7.8-2.3,11.8-2.9c4-0.6,8-0.8,11.9-0.7c1,0,1.9,0,2.9,0l2.9,0.2c1.9,0.1,3.9,0.3,5.8,0.5
		c7.8,0.9,15.4,2.8,22.7,5.5c7.3,2.7,14.3,6.3,20.8,10.5c6.5,4.2,12.6,9,18.2,14.2c5.6,5.2,10.9,10.8,15.7,16.7
		c9.6,11.8,17.8,24.6,25,37.8l0.1,0.1c0.8,1.5,0.3,3.3-1.1,4.1c-7.8,4.5-15.6,8.7-23.5,12.7c-7.9,4.1-16,7.7-24.1,11.3
		c-8.1,3.6-16.4,6.8-24.8,9.8c-8.3,3.1-16.9,5.6-25.4,7.8c-0.1,0-0.3,0-0.3-0.2c0-0.1,0-0.3,0.2-0.3c8.4-2.6,16.8-5.4,25-8.7
		c8.2-3.3,16.3-6.7,24.3-10.5c8-3.8,15.9-7.7,23.7-11.9c7.8-4.2,15.5-8.5,23.1-13l-0.1,0.5c-7.4-12.9-15.7-25.3-25.3-36.7
		c-4.8-5.7-9.9-11.1-15.4-16.1c-5.5-5-11.4-9.6-17.7-13.5c-12.5-7.9-26.8-13.2-41.5-15c-1.8-0.2-3.7-0.4-5.5-0.5l-2.8-0.1
		c-0.9,0-1.9,0-2.8,0c-3.7-0.1-7.4,0.2-11.1,0.7c-3.7,0.5-7.3,1.4-10.7,2.7c-1.7,0.6-3.4,1.4-5.1,2.2c-1.6,0.8-3.2,1.8-4.6,2.9
		c-0.1,0.1-0.2,0.1-0.4,0.1c-3.4,0-6.9,0.4-10.3,1.1c-3.4,0.7-6.8,1.6-10.1,2.8c-6.6,2.3-12.8,5.6-18.5,9.5c-2.9,2-5.6,4.2-8.2,6.5
		c-2.6,2.3-5,4.8-7.3,7.5c-4.6,5.3-8.7,10.9-12.3,16.9c-7.3,11.9-12.6,25-16,38.5c-1.7,6.8-3,13.7-3.7,20.6
		c-0.8,6.9-1.2,14-0.8,20.9l-0.2-0.3c4,1.2,8.1,2.2,12.2,2.9c4.1,0.8,8.3,1.4,12.4,1.9c8.3,1,16.7,1.3,25.1,1.3
		c8.4-0.1,16.8-0.6,25.1-1.6c8.3-1,16.6-2.4,24.8-4.2c0.1,0,0.3,0.1,0.3,0.2C107.2,321.2,107.1,321.4,106.9,321.4L106.9,321.4z"/>
</g>
<g>
	<path class="st2" d="M138.4,315.5c0.6,3.9,1.3,7.8,2.3,11.5c0.5,1.9,1.1,3.7,1.8,5.5c0.7,1.8,1.5,3.5,2.6,5l-0.8-0.4
		c3.5,0.1,7,0.2,10.5,0.3c3.5,0.1,7,0.2,10.5,0.4c3.5,0.1,7,0.3,10.5,0.4l10.5,0.5c0.5,0,1,0.3,1.2,0.7l8.4,13.3
		c2.8,4.5,5.6,8.9,8.3,13.4c2.8,4.5,5.4,9,8.1,13.5c2.7,4.5,5.3,9.1,7.9,13.7c-3.1-4.2-6.1-8.6-9.1-12.9c-3-4.3-6-8.7-8.9-13
		c-3-4.3-5.8-8.8-8.7-13.1l-8.6-13.2l1.2,0.7l-10.5-0.6c-3.5-0.2-7-0.4-10.5-0.6c-3.5-0.2-7-0.4-10.5-0.7c-3.5-0.3-7-0.5-10.5-0.8
		l-0.1,0c-0.3,0-0.6-0.2-0.7-0.4c-1.1-1.8-1.9-3.7-2.5-5.6c-0.6-1.9-1-3.9-1.4-5.8C138.9,323.4,138.5,319.4,138.4,315.5z"/>
</g>
<polyline class="st3" points="216.9,385.9 221.7,393.4 221.7,393.4 239.6,393.4 239.6,393.4 242.5,325.2 216.9,386 "/>
</svg>
