<?xml version="1.0" encoding="iso-8859-1"?>
<!-- Generator: Adobe Illustrator 19.0.0, SVG Export Plug-In . SVG Version: 6.00 Build 0)  -->
<svg version="1.1" id="Layer_1" xmlns="http://www.w3.org/2000/svg" xmlns:xlink="http://www.w3.org/1999/xlink" x="0px" y="0px"
	 viewBox="0 0 512 512" style="enable-background:new 0 0 512 512;" xml:space="preserve">
<path style="fill:#5DDDD3;" d="M256.001,512C397,512,512,397,512,256.001C512,115.001,397,0,256.001,0
	C115.001,0,0,115.001,0,256.001C0,397,115.001,512,256.001,512z"/>
<path style="fill:#807D7D;" d="M233.018,138.067h38.635V51.893h-38.635V138.067z"/>
<path style="fill:#FFBA1B;" d="M213.713,320.613h77.246V126.915h-77.246V320.613z"/>
<g>
	<path style="fill:#FFFFFF;" d="M233.366,40.857h37.939c3.038,0,5.519,2.483,5.519,5.519v5.517h-48.978v-5.517
		C227.845,43.339,230.329,40.857,233.366,40.857z"/>
	<path style="fill:#FFFFFF;" d="M209.718,313.136h85.234c5.565,0,10.116,4.549,10.116,10.114c0,5.563-4.551,10.116-10.116,10.116
		h-85.234c-5.564,0-10.116-4.554-10.116-10.116C199.602,317.685,204.154,313.136,209.718,313.136z"/>
</g>
<path style="fill:#807D7D;" d="M175.777,463.259h123.467c24.757-4.427,43.701-26.199,43.701-52.18V302.56
	c0-29.152-23.85-53.003-53.003-53.003h-18.985v-34.356h13.794c47.545,0,99.9,38.942,100.507,86.444l1.418,110.35
	c0.248,19.278,0.596,37.22-10.226,51.658c3.325,1.074,5.751,4.225,5.751,7.882v32.186c0,4.535-3.74,8.276-8.277,8.276H175.777
	c-4.535,0-8.277-3.724-8.277-8.276v-32.186C167.5,466.982,171.224,463.258,175.777,463.259L175.777,463.259z"/>
<path style="fill:#666666;" d="M299.244,463.259c24.757-4.426,43.701-26.198,43.701-52.18V302.56
	c0-29.152-23.851-53.003-53.003-53.003h-18.985v-7.801c37.489-2.232,75.616,18.661,76.333,59.338v114.279
	C347.291,415.374,341.211,462.325,299.244,463.259z"/>
<path style="fill:#C3CCCF;" d="M250.196,210.406l2.82-2.821c0.383-0.381,1.004-0.381,1.386,0l3.839,3.839
	c4.492-3.687,10.071-6.106,16.18-6.702v-5.428c0-0.539,0.441-0.98,0.979-0.98h3.99c0.542,0,0.982,0.441,0.982,0.98v5.428
	c6.11,0.596,11.686,3.015,16.177,6.704l3.842-3.84c0.381-0.381,1.003-0.381,1.385,0l2.822,2.821c0.382,0.384,0.382,1.005,0,1.385
	l-3.84,3.842c3.69,4.495,6.106,10.07,6.704,16.181h5.428c0.541,0,0.981,0.44,0.981,0.978v3.99c0,0.541-0.44,0.982-0.981,0.982
	h-5.428c-0.598,6.107-3.014,11.686-6.704,16.177l3.84,3.841c0.382,0.379,0.382,1.001,0,1.384l-2.822,2.823
	c-0.382,0.379-1.004,0.379-1.385,0l-3.842-3.841c-4.493,3.687-10.069,6.106-16.177,6.702v5.43c0,0.541-0.44,0.981-0.982,0.981h-3.99
	c-0.539,0-0.979-0.44-0.979-0.981v-5.43c-6.108-0.596-11.687-3.013-16.178-6.702l-3.84,3.841c-0.382,0.379-1.003,0.379-1.386,0
	l-2.82-2.823c-0.383-0.383-0.383-1.004,0-1.384l3.838-3.841c-3.687-4.491-6.105-10.07-6.702-16.177h-5.43
	c-0.538,0-0.978-0.441-0.978-0.982v-3.99c0-0.539,0.441-0.978,0.978-0.978h5.43c0.598-6.111,3.014-11.69,6.702-16.181l-3.838-3.842
	C249.813,211.411,249.813,210.79,250.196,210.406L250.196,210.406z"/>
<g>
	<path style="fill:#FFFFFF;" d="M249.506,209.208l2.822-2.821c0.381-0.379,1.002-0.379,1.385,0l3.839,3.839
		c4.493-3.687,10.07-6.106,16.178-6.701v-5.429c0-0.539,0.441-0.98,0.981-0.98h3.991c0.539,0,0.98,0.441,0.98,0.98v5.429
		c6.11,0.595,11.685,3.014,16.18,6.702l3.839-3.84c0.383-0.379,1.003-0.379,1.386,0l2.821,2.821c0.382,0.384,0.382,1.005,0,1.387
		l-3.838,3.839c3.687,4.495,6.102,10.07,6.701,16.181h5.429c0.54,0,0.979,0.441,0.979,0.978v3.991c0,0.54-0.44,0.981-0.979,0.981
		h-5.429c-0.599,6.107-3.014,11.686-6.701,16.177l3.838,3.842c0.382,0.379,0.382,1.003,0,1.384l-2.821,2.823
		c-0.383,0.379-1.003,0.379-1.386,0l-3.841-3.84c-4.493,3.686-10.069,6.105-16.177,6.701v5.43c0,0.541-0.441,0.982-0.98,0.982
		h-3.991c-0.54,0-0.981-0.441-0.981-0.982v-5.43c-6.108-0.596-11.685-3.012-16.177-6.701l-3.84,3.84
		c-0.383,0.379-1.004,0.379-1.385,0l-2.822-2.823c-0.382-0.381-0.382-1.004,0-1.384l3.838-3.842
		c-3.688-4.491-6.105-10.07-6.702-16.177h-5.428c-0.54,0-0.982-0.441-0.982-0.981v-3.991c0-0.538,0.442-0.978,0.982-0.978h5.428
		c0.598-6.111,3.014-11.688,6.701-16.181l-3.837-3.839C249.124,210.214,249.124,209.593,249.506,209.208L249.506,209.208z"/>
	<path style="fill:#FFFFFF;" d="M275.326,372.91h73.568c3.922,0,7.127,3.204,7.127,7.124s-3.205,7.128-7.127,7.128h-73.568
		c-3.921,0-7.128-3.207-7.128-7.128S271.405,372.91,275.326,372.91z"/>
</g>
<path style="fill:#FF5B61;" d="M186.239,366.01h126.677c1.96,0,3.562,1.603,3.562,3.563v21.384c0,1.962-1.602,3.562-3.562,3.562
	H186.239c-1.96,0-3.562-1.601-3.562-3.562v-21.384C182.677,367.614,184.279,366.01,186.239,366.01z"/>
<path style="fill:#EC4B53;" d="M316.478,389.272v1.683c0,1.963-1.602,3.564-3.562,3.564H186.239c-1.959,0-3.562-1.602-3.562-3.564
	v-1.683H316.478z"/>
<path style="fill:#FFBA1B;" d="M276.705,242.099c4.688,0,8.512-3.823,8.512-8.511c0-4.689-3.824-8.512-8.512-8.512
	c-4.687,0-8.509,3.823-8.509,8.512C268.195,238.276,272.018,242.099,276.705,242.099z"/>
<path style="fill:#FFFFFF;" d="M273.767,428.894h76.684c3.062,0,5.569,2.506,5.569,5.571v0.001c0,3.062-2.507,5.568-5.569,5.568
	h-76.684c-3.062,0-5.57-2.506-5.57-5.568v-0.001C268.198,431.4,270.705,428.894,273.767,428.894z"/>
<path style="fill:#FFBA1B;" d="M250.983,436.163l56.06-27.194c1.139-0.551,2.518-0.072,3.071,1.066l6.021,12.414
	c0.551,1.134,0.072,2.517-1.066,3.067l-56.06,27.194c-1.136,0.55-2.518,0.071-3.068-1.064l-6.021-12.415
	C249.368,438.095,249.847,436.712,250.983,436.163L250.983,436.163z"/>
<g>
	<path style="fill:#666666;" d="M347.397,384.53c2.432,0,4.418-1.986,4.418-4.419c0-2.432-1.986-4.418-4.418-4.418
		c-2.433,0-4.419,1.986-4.419,4.418C342.978,382.544,344.964,384.53,347.397,384.53z"/>
	<path style="fill:#666666;" d="M349.608,437.986c1.644,0,2.986-1.34,2.986-2.985c0-1.642-1.341-2.982-2.986-2.982
		c-1.642,0-2.982,1.34-2.982,2.982C346.626,436.646,347.966,437.986,349.608,437.986z"/>
	<path style="fill:#666666;" d="M167.734,505.669h214.231c-0.885,3.612-4.174,6.329-8.04,6.329H175.775
		C171.909,511.997,168.619,509.289,167.734,505.669z"/>
</g>
<g>
</g>
<g>
</g>
<g>
</g>
<g>
</g>
<g>
</g>
<g>
</g>
<g>
</g>
<g>
</g>
<g>
</g>
<g>
</g>
<g>
</g>
<g>
</g>
<g>
</g>
<g>
</g>
<g>
</g>
</svg>
