<?xml version="1.0" encoding="iso-8859-1"?>
<!-- Generator: Adobe Illustrator 19.0.0, SVG Export Plug-In . SVG Version: 6.00 Build 0)  -->
<svg version="1.1" id="Layer_1" xmlns="http://www.w3.org/2000/svg" xmlns:xlink="http://www.w3.org/1999/xlink" x="0px" y="0px"
	 viewBox="0 0 512 512" style="enable-background:new 0 0 512 512;" xml:space="preserve">
<g>
	<path style="fill:#838383;" d="M256,0c141.386,0,256,114.614,256,256c0,141.386-114.614,256-256,256C114.614,512,0,397.386,0,256
		C0,114.614,114.614,0,256,0z"/>
	<path style="fill:#757575;" d="M36.87,256c0,121.021,98.114,219.13,219.13,219.13c121.027,0,219.13-98.11,219.13-219.13
		c0-121.02-98.103-219.13-219.13-219.13C134.984,36.87,36.87,134.98,36.87,256z"/>
	<path style="fill:#666666;" d="M94.085,256c0,89.421,72.496,161.915,161.915,161.915c89.429,0,161.915-72.494,161.915-161.915
		S345.428,94.085,256,94.085C166.581,94.085,94.085,166.578,94.085,256z"/>
	<path style="fill:#B1E9F1;" d="M390.771,256.002c0,74.431-60.34,134.769-134.773,134.769c-74.431,0-134.769-60.337-134.769-134.769
		s60.337-134.769,134.769-134.769C330.431,121.234,390.771,181.571,390.771,256.002z"/>
	<path style="fill:#50D0E0;" d="M381.468,256.002c0,69.294-56.175,125.469-125.471,125.469
		c-69.294,0-125.469-56.175-125.469-125.469s56.175-125.469,125.469-125.469C325.293,130.534,381.468,186.709,381.468,256.002z"/>
	<path style="fill:#26C5D9;" d="M167.165,344.606c-22.638-22.696-36.636-54.013-36.636-88.604
		c0-69.293,56.175-125.469,125.469-125.469c25.05,0,48.382,7.343,67.969,19.99c22.643,22.698,36.643,54.02,36.643,88.611
		c0,69.294-56.175,125.466-125.471,125.466C210.089,364.6,186.754,357.255,167.165,344.606z"/>
	<path style="fill:#3D693E;" d="M149.534,211.747c1.945,1.831-0.508,8.123,0.247,10.686c0.639,2.164,2.847,6.439,4.721,7.701
		c0.941,0.634,3.557,1.415,4.471,0.747c0.71-0.52,0.767-2.643,0.499-3.479c-0.634-1.965-4.948-4.048-5.718-5.963
		c-0.719-1.787-1.301-6.283,0-7.705c0.463-0.506,2.213-0.692,2.735-0.247c1.421,1.214-0.24,5.738,0.495,7.453
		c1.266,2.95,8.402,6.247,8.697,9.444c0.11,1.166-2.455,2.801-2.485,3.975c-0.06,2.418,2.753,7.043,4.721,8.45
		c2.005,1.429,7.644,3.102,9.692,1.738c0.477-0.319,0.014-1.933,0.499-2.238c0.917-0.578,3.516,0.171,4.222,0.994
		c0.524,0.617-0.32,2.655,0.247,3.232c1.402,1.422,6.185-0.183,7.951,0.745c2.655,1.393,5.051,7.79,7.701,9.192
		c2.211,1.168,8.125-0.717,9.942,0.996c1.223,1.149,0.962,5.188,0.249,6.707c-0.866,1.844-5.497,3.175-6.46,4.97
		c-1.264,2.36-1.502,8.115-0.745,10.683c1.141,3.874,8.203,9.167,9.69,12.922c0.414,1.047-0.367,3.747,0.495,4.473
		c0.809,0.681,3.218-0.57,4.226-0.249c2.193,0.692,6.229,3.635,7.207,5.715c2.402,5.117-4.153,18.3-0.499,22.611
		c0.444,0.522,2.292-0.52,2.735,0c1.507,1.775-2.078,6.938-1.491,9.194c0.378,1.455,3.232,3.301,3.724,4.721
		c0.958,2.758-0.27,8.77,0,11.677c0.477,5.133,0.733,10.06,13.419,15.655c1.727,0.762,8.532,1.271,7.456-1.242
		c-0.676-1.576-4.492-3.074-4.971-4.721c-0.572-1.967,3.14-6.256,1.988-7.953c-0.527-0.777-2.909-0.032-3.727-0.495
		c-0.694-0.392-2.05-1.693-1.99-2.485c0.078-1.01,2.577-1.808,2.984-2.733c0.149-0.342,0.202-1.175,0-1.491
		c-0.478-0.749-2.671-0.797-3.229-1.491c-0.35-0.435-0.421-1.87,0-2.238c3.026-2.662,8.936,0.824,14.161-7.701
		c1.857-3.03,7.694-7.957,8.45-11.43c0.513-2.357-2.531-7.092-1.988-9.442c0.16-0.69,1.081-1.977,1.741-2.238
		c1.812-0.715,5.797,1.668,7.701,1.244c1.613-0.359,4.62-2.307,5.468-3.725c2.145-3.593,0.048-12.823,1.741-16.65
		c0.944-2.133,5.379-4.778,6.21-6.957c0.375-0.987,0.866-3.621,0-4.226c-2-1.393-1.102-0.996-7.703-5.962
		c-2.79-2.098-10.457-0.756-13.914-1.242c-1.849-0.261-5.965-1.149-6.957-2.733c-0.861-1.372,0.923-4.897,0.495-6.462
		c-0.399-1.461-2.153-4.227-3.477-4.968c-1.794-1.003-6.414,0.516-8.203-0.497c-2.098-1.186-3.331-6.828-5.466-7.951
		c-0.605-0.319-2.185-0.412-2.73,0c-0.362,0.272-0.142,1.461-0.499,1.738c-1.469,1.15-5.825,1.153-7.454,0.248
		c-3.546-1.968-2.05-5.968-16.151,1.491c-2.332,1.232-8.686,0.481-10.436-1.491c-1.814-2.046,1.475-8.81-0.247-10.933
		c-1.207-1.484-6.539-0.057-7.456-1.738c-0.884-1.622,3.257-5.278,2.486-6.957c-0.359-0.788-2.371-1.347-3.232-1.244
		c-2.701,0.328-6.318,5.497-8.945,6.212c-4.783,1.306-21.461-9.14,4.227-19.381c3.985-1.587,14.129-3.798,17.145-0.745
		c0.786,0.797-0.834,3.519-0.249,4.474c0.639,1.042,3.475,2.694,4.473,1.986c1.53-1.079-0.131-5.797,0.745-7.453
		c1.668-3.156,9.165-6.091,10.933-9.192c0.375-0.658,0.107-2.334,0.497-2.982c2.419-4.027,11.661-8.038,14.91-11.431
		c1.574-1.642,3.003-6.922,5.216-7.453c1.026-0.247,2.682,2.142,3.729,1.986c0.694-0.103,2.08-1.289,1.988-1.986
		c-0.133-0.994-3.001-1.111-3.481-1.99c-0.57-1.049,0.252-4.721,4.725-0.745c4.474,3.974,5.431-0.589,7.202-0.994
		c0.522-0.117,1.718,0.71,1.738,1.244c0.018,0.483-1.283,0.802-1.486,1.242c-0.344,0.731-0.477,2.577,0,3.229
		c1.189,1.635,5.912,3.432,7.701,2.486c0.974-0.515,1.73-3.237,1.244-4.224c-0.529-1.079-3.797-0.749-4.476-1.738
		c-0.247-0.36-0.235-1.374,0-1.741c0.479-0.749,2.751-0.74,3.232-1.491c0.534-0.836,0.438-3.081,0-3.975
		c-0.623-1.271-3.784-2.242-4.471-3.479c-0.879-1.583,0.818-6.292-0.747-7.206c-1.345-0.785-4.176,2.245-5.715,2.486
		c-0.617,0.096-2.066,0.213-2.486-0.248c-0.708-0.783,0.605-3.355,0-4.223c-1.324-1.904-6.398-3.532-8.697-3.232
		c-1.283,0.169-3.628,1.835-4.222,2.982c-1.085,2.098,1.535,7.651,0,9.442c-1.063,1.239-5.126,0.055-6.46,0.994
		c-1.388,0.975-1.867,4.957-3.232,5.965c-0.51,0.375-1.995,0.898-2.485,0.495c-1.391-1.141,1.26-5.917,0-7.204
		c-2.075-2.125-21.752-1.64-2.234-11.68c2.052-1.056,6.363-4.723,8.445-3.727c0.87,0.417,0.169,3.229,0.996,3.727
		c0.708,0.429,2.664-0.142,3.23-0.745c0.518-0.552-0.101-2.517,0.495-2.982c0.591-0.46,2.295,0.549,2.982,0.247
		c1.663-0.726,2.983-4.678,4.472-5.713c1.965-1.365,9.444-1.491,9.444-1.491s1.849,1.734,1.739,2.486
		c-0.33,2.275-7.689,3.466-7.204,5.715c0.596,2.753,8.39,3.951,10.931,2.733c0.802-0.385,0.76-2.722,1.489-3.232
		c1.225-0.857,4.826,0.474,5.967-0.497c0.781-0.662,1.484-3.076,0.992-3.974c-0.378-0.69-2.503-0.369-2.982-0.994
		c-0.642-0.841-0.248-4.224-0.248-4.224s-17.436-14.621-24.102-1.988c-0.584,1.104,0.429,4.132-0.497,4.968
		c-0.921,0.834-4.063,0.85-4.968,0c-0.724-0.681-0.662-3.067-0.25-3.974c0.55-1.209,4.616-1.959,4.222-3.23
		c-0.679-2.199-7.156-1.578-9.19-0.497c-0.962,0.511-2.719,2.756-2.236,3.727c0.25,0.506,1.833-0.142,2.236,0.249
		c0.63,0.612,1.086,2.827,0.495,3.477c-0.96,1.06-4.652-1.207-5.712-0.247c-0.381,0.344-0.099,1.665-0.499,1.988
		c-1.645,1.324-6.982,1.771-8.448,0.247c-0.648-0.673-0.5-3.168,0.247-3.727c1.193-0.894,4.631,0.666,5.965,0
		c1.113-0.557,3.147-2.745,2.982-3.977c-0.094-0.701-1.528-1.761-2.236-1.739c-0.747,0.023-1.677,1.489-2.234,1.988
		c-1.171,1.047-0.087,1.157-5.42-3.177c-1.771-1.439-9.121-0.119-9.121-0.119l-4.739,4.737l4.029,0.119l-1.399,3.408
		c0,0,5.337-0.669,6.46,0.497c0.303,0.316,0.053,1.42-0.249,1.741c-1.304,1.381-7.454,1.491-7.454,1.491l-2.236-3.729l-5.468-1.489
		l-3.835-0.549c-19.307,12.179-35.056,29.464-45.352,49.974l0.486,1.015C144.314,200.814,144.82,207.319,149.534,211.747z"/>
</g>
<path style="fill:#429F46;" d="M213.96,294.118c0.737-0.181,1.498-0.297,2.559,0.037c3.001,0.948,7.646,4.412,8.993,7.277
	c2.465,5.239-1.926,16.687-1.345,20.824c1.107-0.149,2.128-0.085,3.159,1.127c3.01,3.541-0.886,7.758-0.962,10.147
	c0.873,1.56,2.918,2.364,3.736,4.717c1.368,3.946-0.213,8.478,0.149,12.376c0.738,7.933,4.293,9.965,11.634,13.206
	c-0.651-0.598-1.208-1.347-1.519-2.417c-0.719-2.474,0.63-4.4,1.486-6.164c-0.552-0.018-1.134-0.135-1.839-0.534
	c-1.755-0.992-3.644-3.187-3.484-5.292c0.106-1.374,0.689-2.121,1.429-2.705c-0.341-0.206-0.68-0.493-1.026-0.921
	c-1.351-1.674-1.303-4.87,0.348-6.322c4.471-3.933,8.989,0.491,13.59-7.023c1.535-2.501,7.596-8.274,8.072-10.455
	c0.168-2.201-2.811-5.908-1.97-9.541c0.383-1.653,1.949-3.692,3.537-4.32c3.276-1.297,5.926,1.136,8.148,1.106
	c0.838-0.188,3.108-1.645,3.568-2.352c1.546-2.593-0.389-11.89,1.574-16.332c1.278-2.893,5.383-5.113,6.152-6.81
	c0.104-0.27,0.23-0.852,0.275-1.317c-2.348-1.713-4.68-3.717-6.993-5.456c-1.443-1.088-10.234-0.348-12.548-0.675
	c-2.888-0.408-7.421-1.496-9.05-4.093c-1.75-2.792,0.185-5.138,0.149-7.248c-0.206-0.756-1.443-2.749-1.92-3.104
	c-2.116-0.6-5.381,1.116-8.363-0.568c-2.877-1.626-3.617-5.456-4.687-7.213c-0.176,0.257-0.41,0.506-0.731,0.756
	c-2.447,1.906-8.036,1.988-10.711,0.505c-1.349-0.749-1.864-1.548-2.943-2.348c-1.273-0.941-9.318,3.303-10.388,3.869
	c-0.204,0.107-0.423,0.206-0.655,0.295c0.994,2.536,0.698,6.189-0.284,8.285c-1.475,3.14-5.152,3.516-6.533,5.11
	c-0.886,1.657-1.043,6.65-0.513,8.446c0.962,3.26,7.84,8.216,9.602,12.669C214.035,292.613,214.018,293.383,213.96,294.118z
	 M196.691,250.051c0.169-2.247,0.996-4.504,0.9-6.08c-2.405-0.389-5.912,0.745-7.672-2.48c-1.351-2.476,0.062-4.375,1.208-6.132
	c-1.814,1.327-4.449,4.499-7.128,5.456c0.218,0.179,0.412,0.367,0.582,0.564c0.902,1.056,0.928,1.938,0.849,2.892
	c1.86-0.032,4.231-0.792,6.476,0.387C193.834,245.672,195.387,247.985,196.691,250.051z M176.529,239.808
	c-7.47-3.869-12.42-15.143,9.428-23.85c5.024-2.002,16.12-4.359,20.348-0.078c0.022,0.025,0.046,0.047,0.066,0.071
	c0.055-0.121,0.113-0.245,0.179-0.367c2.236-4.235,9.479-6.649,10.792-8.816c0.235-1.306-0.104-2.135,0.717-3.5
	c3.239-5.39,11.299-7.765,15.31-11.955c2.021-2.11,2.334-7.032,6.398-8.214c-0.048-3.743,4.421-6.991,9.882-2.14
	c0.213,0.191,0.772,0.653,1.136,0.82c1.063-0.708,1.318-1.998,3.443-2.483c1.184-0.273,2.529,0.148,3.576,0.948
	c0.749-0.681,1.572-0.811,2.469-1.072c0.016-0.227,0.042-0.398,0.108-0.355c-1.328-1.32-3.358-1.416-4.599-3.652
	c-0.896-1.61-0.681-3.154-0.497-4.579c-0.815,0.577-1.715,1.159-2.918,1.347c-1.736,0.272-3.871,0.213-5.138-1.184
	c-1.576-1.736-0.87-3.223-0.655-4.879c-1.283-0.871-4.368-1.773-5.39-1.642c-0.518,0.135-1.789,1.04-1.979,1.23
	c-0.534,2.577,2.354,6.922-0.458,10.197c-2.231,2.6-5.113,1.114-6.789,1.299c-1.258,1.635-0.99,4.345-3.392,6.113
	c-1.638,1.208-4.435,1.785-6.114,0.408c-2.707-2.218-1.084-5.133-0.776-7.479c-1.107-0.316-2.744-0.611-3.491-0.79
	c-2.737-0.648-6.478-1.652-7.417-4.691c-1.564-5.069,6.515-9.073,9.971-10.85c2.139-1.1,4.659-3.294,7.282-4.016
	c-0.948,0.011-1.899-0.3-2.825-0.543c-0.176,0.449-0.474,0.873-1.003,1.301c-2.815,2.261-9.816,2.717-12.434-0.005
	c-0.322-0.334-0.584-0.744-0.779-1.205c-0.178,0.346-0.396,0.665-0.65,0.935c-1.878,1.99-6.918,2.418-9.609,2.418h-1.677
	l-2.485-4.143l-4.141-1.132l-2.568-0.367c-18.077,11.623-32.85,27.836-42.717,46.931l0.084,0.176l0.048,0.53
	c0.289,3.177,1.984,6.872,4.3,9.047c0.444,0.417,0.785,0.87,1.045,1.349c1.754-0.948,4.377-0.927,5.804,0.291
	c3.001,2.557,0.886,6.176,1.297,8.54c1.116,2.579,8.448,5.189,8.924,10.335c0.231,2.474-1.386,3.292-2.43,4.744
	c0.332,1.617,2.399,4.806,3.436,5.546c0.866,0.616,3.653,1.589,5.388,1.711C175.155,241.235,175.478,240.47,176.529,239.808z
	 M229.22,155.433c0.861-0.069,1.727,0.057,2.59,0.47c0.485,0.231,0.852,0.495,1.132,0.783c0.14-0.149,0.302-0.298,0.493-0.447
	c0.117-0.089,0.231-0.171,0.344-0.243c-1.004-0.229-1.904-0.636-2.536-1.23c-0.158-0.149-0.303-0.316-0.435-0.495
	c-0.021,0.025-0.044,0.05-0.067,0.075C230.242,154.896,229.734,155.237,229.22,155.433z M241.516,150.379
	c2.565-1.351,7.951-1.723,10.637-1.723h1.226l0.813,0.813c1.34,1.271,2.916,3.079,2.629,5.058c-0.453,3.111-3.392,3.999-5.66,5.037
	c1.43,0.387,3.319,0.593,4.463,0.474c0.334-1.161,0.41-2.183,1.787-3.145c1.331-0.932,2.547-0.919,3.717-0.791
	c-0.133-0.133-0.263-0.282-0.396-0.456c-0.849-1.111-1.042-3.016-0.98-4.698c-5.007-3.823-14.605-9.13-18.245-2.357
	C241.429,149.186,241.468,149.784,241.516,150.379z M210.82,150.624c0.3-0.973,0.818-1.83,1.541-2.371
	c0.305-0.229,0.605-0.406,0.9-0.538c-0.561-0.532-1.12-1.072-1.686-1.542c-0.683-0.268-2.437-0.197-4.061-0.041l-1.077,2.62
	c1.629,0.142,3.17,0.568,4.118,1.558C210.652,150.411,210.739,150.514,210.82,150.624z"/>
<g>
	<path style="fill:#3D693E;" d="M237.551,193.019c-1.3,0-2.357,0.779-2.357,1.738c0,0.96,1.056,1.739,2.357,1.739
		c1.306,0,2.362-0.779,2.362-1.739C239.913,193.798,238.857,193.019,237.551,193.019z"/>
	<path style="fill:#3D693E;" d="M245.133,192.025c-0.728,0.474-2.968-0.705-3.477,0c-0.46,0.64,0.398,2.467,0.992,2.983
		c0.524,0.456,2.125,0.832,2.733,0.497c0.586-0.326,0.38-2.222,0.994-2.486c0.616-0.264,1.929,1.37,2.483,0.994
		c0.878-0.593,0.749-3.477,0-4.226c-0.481-0.483-2.16-0.371-2.733,0C245.612,190.122,245.646,191.693,245.133,192.025z"/>
	<path style="fill:#3D693E;" d="M328.805,169.662c0.738,0.872,0.765,3.63,1.741,4.223c1.134,0.69,4.176-1.814,5.216-0.991
		c1.074,0.847,1.225,4.503,0.252,5.465c-1.729,1.707-7.577-0.449-9.694,0.747c-1.862,1.049-3.049,6.016-4.968,6.955
		c-1.395,0.685-5.024-1.248-6.212-0.247c-1.102,0.927-1.553,4.524-0.745,5.712c0.286,0.424,1.67,0.096,1.986,0.499
		c0.573,0.735,0.674,3.088,0,3.727c-1.672,1.585-6.892-0.587-9.192-0.497c-1.407,0.055-4.091,0.49-3.977,3.974
		c0.059,1.819-0.188,5.825,0.994,7.207c0.845,0.987,3.675,1.587,4.968,1.491c2.19-0.16,6.251-2.341,7.953-3.727
		c1.928-1.567,3.658-7.025,5.962-7.951c1.404-0.563,4.552,1.531,5.965,0.994c1.198-0.454,1.959-4.141,3.227-3.977
		c0.958,0.124,0.421,2.955,0.998,3.729c1.482,1.99,7.511,2.918,8.446,5.218c0.481,1.186-1.901,3.871-1.242,4.968
		c0.131,0.218,0.751,0.334,0.992,0.247c1.464-0.518,3.729-4.968,3.729-4.968s-5.534-4.054-6.711-5.964
		c-0.506-0.82-1.562-2.949-0.992-3.727c0.772-1.053,3.988-0.689,5.218-0.247c1.656,0.594,4.494,3.117,5.218,4.721
		c0.565,1.258,0.084,4.256,0.747,5.465c0.783,1.43,3.498,4.928,4.968,4.224c2.085-0.996,0.497-5.465,4.72-7.951
		c0,0-0.238,4.188,0.248,5.466c0.456,1.198,2.059,3.464,3.232,3.977c2.295,1.003,9.998-0.637,9.998-0.637
		c-8.008-19.223-20.657-36.02-36.554-49.003l-1.275,2.68C334.023,161.463,322.753,162.502,328.805,169.662z"/>
</g>
<path style="fill:#429F46;" d="M327.348,193.175c1.136-2,2.114-4.173,5.431-3.743c0.815,0.105,1.45,0.33,1.947,0.639
	c2.162-2.321,6.526-2.181,9.3-1.187c2.657,0.953,6.276,4.197,7.438,6.771c0.978,2.172,0.342,3.727,0.614,5.195
	c0.011,0.021,0.023,0.042,0.034,0.062c0.566-1.926,1.278-3.484,4.3-5.261l3.834-2.259c-6.372-10.59-14.342-20.176-23.616-28.399
	l-0.061,0.133l-2.184,0.19c-0.683,0.067-2.446,0.427-3.321,0.896c0.211,0.355,0.534,0.765,0.694,0.953
	c0.687,0.813,0.962,1.516,1.146,2.215c1.64-0.639,3.257-1.095,5.255,0.481c2.923,2.309,3.209,8.644,0.572,11.247
	c-3.312,3.271-7.373,1.054-10.468,1.448c-1.656,2.053-1.821,5.317-5.209,6.977c-1.298,0.634-2.354,0.667-3.346,0.508
	c0.545,0.861,0.877,1.952,0.985,3.084c0.298-0.172,0.614-0.328,0.958-0.465C324.082,191.681,325.58,192.616,327.348,193.175z
	 M362.438,197.186l-0.204,2.036c-0.057,0.962-0.146,3.122,0.003,3.853c0.185,0.468,1.01,1.634,1,1.743
	c0.589,0.144,1.769,0.087,3.058-0.055C365.098,202.191,363.81,199.662,362.438,197.186z M315.501,200.223
	c-2.779,0.302-5.677-1.132-8.157-1.104c-0.069,0.002-0.165,0.007-0.266,0.018c0.028,0.965-0.053,3.395,0.167,4.637
	c0.545,0.171,1.313,0.309,1.643,0.297c1.315-0.098,4.765-2.027,5.77-2.842C314.97,200.934,315.247,200.594,315.501,200.223z"/>
<path style="fill:#3D693E;" d="M375.564,217.914c0,0-10.851,1.615-14.206,0.451c-1.459-0.508-3.274-3.447-4.723-3.977
	c-1.574-0.574-5.395-1.045-6.708,0c-0.648,0.516-0.139,2.666-0.747,3.23c-2.898,2.703-9.776,1.55-15.407-3.727
	c-1.223-1.148,1.175-5.511,0-6.709c-2.57-2.623-11.195-0.222-14.66,0.994c-0.928,0.326-2.295,1.932-3.227,2.238
	c-2.364,0.772-7.584-0.543-9.941,0.245c-1.521,0.508-4.552,2.27-5.216,3.729c-0.644,1.413,0.705,4.829,0,6.212
	c-1.918,3.764-12.134,6.002-13.668,9.939c-0.348,0.884,0.069,3.061,0.747,3.727c0.497,0.485,2.33-0.071,2.733,0.497
	c0.692,0.976,0.117,3.897-0.747,4.721c-0.408,0.389-1.856-0.165-2.236,0.25c-1.846,2.015-1.168,8.358-0.247,10.931
	c1.572,4.395,7.889,12.307,12.175,14.163c1.312,0.568,4.643,0.698,5.715-0.247c0.284-0.25-0.042-1.246,0.247-1.491
	c1.802-1.526,7.374,1.136,9.444,0c0.71-0.39,1.033-2.33,1.738-2.733c1.347-0.777,4.822-0.946,6.21-0.25
	c1.079,0.541,1.668,3.415,2.736,3.977c1.484,0.781,5.486-1.147,6.707,0c2.176,2.046-0.09,9.059,0.747,11.925
	c1.116,3.816,7.534,9.944,7.703,13.916c0.107,2.584-3.686,6.913-4.224,9.442c-0.233,1.093-0.479,3.464,0,4.473
	c0.584,1.24,3.656,2.234,4.224,3.48c1.006,2.203-1.031,7.396-0.247,9.692c0.538,1.587,3.663,3.635,4.222,5.216
	c0.849,2.4,0,10.186,0,10.186h10.779c16.28-21.161,25.983-47.648,25.983-76.411C381.468,242.719,379.386,229.928,375.564,217.914z"
	/>
<path style="fill:#429F46;" d="M290.783,243.836c-0.071,1.787,0.311,4.364,0.664,5.351c1.144,3.198,6.647,10.251,9.678,11.568
	c0.122,0.039,0.303,0.069,0.514,0.09c0.24-0.387,0.557-0.756,0.973-1.109c3.337-2.822,6.597-1.049,9.632-0.765
	c0.456-0.925,0.94-1.699,2.195-2.421c2.634-1.519,7.646-1.738,10.37-0.373c1.956,0.978,2.405,2.213,3.097,3.603
	c2.476-0.346,4.808-1.317,7.383,1.102c4.451,4.178,1.186,9.973,1.959,13.892c1.285,4.401,7.604,8.603,7.875,14.96
	c0.202,4.73-3.422,7.232-4.316,10.546c-0.069,0.327-0.151,0.921-0.176,1.438c1.544,1.065,3.042,1.457,4.1,3.779
	c1.828,4.011-0.421,7.209-0.254,9.719c1.317,1.988,3.351,2.666,4.37,5.544c0.616,1.738,0.703,4.574,0.6,7.259h3.853
	c15.49-20.882,23.777-45.966,23.777-72.02c0-11.254-1.558-22.434-4.638-33.241c-4.281,0.463-9.738,0.719-12.516-0.245
	c-2.797-0.967-3.333-2.832-4.799-4c-0.293-0.107-0.859-0.218-1.446-0.286c-0.176,0.888-0.547,1.715-1.5,2.604
	c-6.125,5.708-16.265,1.085-21.41-3.739c-2.41-2.258-1.816-4.469-1.351-6.732c-2.71,0.094-7.218,1.379-8.409,1.759
	c-1.384,0.905-1.924,1.869-3.752,2.467c-3.608,1.179-7.353-0.348-9.917,0.238c-0.531,0.179-1.695,0.815-2.387,1.349
	c0.117,2.153,1.024,3.809-0.307,6.418c-2.279,4.469-8.592,6.295-11.879,8.29c0.474,0.3,0.923,0.726,1.356,1.333
	c1.99,2.806,1.152,8.106-1.29,10.443C292.141,243.319,291.477,243.665,290.783,243.836z"/>
<path style="fill:#FAFBFC;" d="M213.786,91.512c1.771,0,3.207,1.436,3.207,3.207c0,1.771-1.436,3.207-3.207,3.207
	c-1.771,0-3.207-1.436-3.207-3.207C210.579,92.949,212.015,91.512,213.786,91.512z M317.636,74.292c0.971,0,1.757,0.788,1.757,1.757
	c0,0.969-0.785,1.755-1.757,1.755c-0.969,0-1.755-0.786-1.755-1.755C315.881,75.08,316.667,74.292,317.636,74.292z M257.397,18.332
	c1.542,0,2.795,1.25,2.795,2.792c0,1.541-1.253,2.792-2.795,2.792c-1.539,0-2.792-1.251-2.792-2.792
	C254.605,19.582,255.858,18.332,257.397,18.332z M419.717,431.26c0.969,0,1.757,0.785,1.757,1.754c0,0.969-0.787,1.755-1.757,1.755
	c-0.969,0-1.754-0.785-1.754-1.755C417.963,432.045,418.748,431.26,419.717,431.26z M121.609,425.57
	c0.969,0,1.755,0.785,1.755,1.757c0,0.969-0.785,1.755-1.755,1.755c-0.969,0-1.757-0.786-1.757-1.755
	C119.852,426.355,120.64,425.57,121.609,425.57z M308.389,489.334c0.969,0,1.757,0.786,1.757,1.757c0,0.969-0.788,1.755-1.757,1.755
	c-0.969,0-1.755-0.785-1.755-1.755C306.634,490.12,307.419,489.334,308.389,489.334z M471.719,244.338
	c0.969,0,1.754,0.786,1.754,1.755c0,0.971-0.785,1.757-1.754,1.757c-0.969,0-1.755-0.785-1.755-1.757
	C469.965,245.124,470.75,244.338,471.719,244.338z M443.114,211.143c0.969,0,1.754,0.787,1.754,1.757
	c0,0.969-0.785,1.754-1.754,1.754c-0.971,0-1.757-0.785-1.757-1.754C441.357,211.93,442.143,211.143,443.114,211.143z
	 M453.376,284.143c0.969,0,1.754,0.785,1.754,1.757c0,0.969-0.785,1.754-1.754,1.754c-0.969,0-1.755-0.785-1.755-1.754
	C451.621,284.928,452.407,284.143,453.376,284.143z M349.221,411.18c0.969,0,1.754,0.785,1.754,1.755
	c0,0.969-0.785,1.754-1.754,1.754c-0.969,0-1.755-0.785-1.755-1.754C347.467,411.966,348.252,411.18,349.221,411.18z
	 M84.391,106.564c0.969,0,1.755,0.785,1.755,1.755c0,0.971-0.785,1.757-1.755,1.757c-0.969,0-1.754-0.786-1.754-1.757
	C82.637,107.35,83.422,106.564,84.391,106.564z M159.569,58.716c0.969,0,1.754,0.785,1.754,1.755c0,0.969-0.785,1.757-1.754,1.757
	c-0.971,0-1.757-0.788-1.757-1.757C157.813,59.501,158.598,58.716,159.569,58.716z M20.804,247.85c0.969,0,1.754,0.785,1.754,1.755
	c0,0.969-0.785,1.757-1.754,1.757c-0.969,0-1.755-0.788-1.755-1.757C19.049,248.635,19.834,247.85,20.804,247.85z M96.831,303.285
	c0.969,0,1.755,0.785,1.755,1.755c0,0.969-0.785,1.757-1.755,1.757c-0.969,0-1.754-0.788-1.754-1.757
	C95.077,304.071,95.862,303.285,96.831,303.285z M104.226,366.836c0.969,0,1.754,0.786,1.754,1.757c0,0.969-0.785,1.755-1.754,1.755
	c-0.969,0-1.757-0.785-1.757-1.755C102.469,367.622,103.256,366.836,104.226,366.836z M395.153,75.907
	c0.969,0,1.755,0.785,1.755,1.754c0,0.969-0.785,1.755-1.755,1.755c-0.969,0-1.754-0.785-1.754-1.755
	C393.398,76.692,394.184,75.907,395.153,75.907z M416.637,106.001c3.786,0,6.856,3.069,6.856,6.855c0,3.785-3.07,6.854-6.856,6.854
	c-3.787,0-6.856-3.069-6.856-6.854C409.781,109.07,412.85,106.001,416.637,106.001z M187.343,445.597
	c1.771,0,3.207,1.438,3.207,3.207c0,1.771-1.436,3.206-3.207,3.206c-1.771,0-3.207-1.436-3.207-3.206
	C184.136,447.035,185.573,445.597,187.343,445.597z M444.591,334.224c6.901,0,12.496,5.596,12.496,12.496
	c0,6.901-5.594,12.498-12.496,12.498c-6.901,0-12.495-5.596-12.495-12.498C432.096,339.821,437.69,334.224,444.591,334.224z
	 M99.262,195.724c4.464,0,8.083,3.619,8.083,8.084c0,4.464-3.619,8.083-8.083,8.083c-4.462,0-8.084-3.619-8.084-8.083
	C91.178,199.344,94.8,195.724,99.262,195.724z M140.095,118.936c1.771,0,3.207,1.438,3.207,3.209c0,1.769-1.436,3.207-3.207,3.207
	s-3.207-1.438-3.207-3.207C136.888,120.374,138.324,118.936,140.095,118.936z"/>
<g>
</g>
<g>
</g>
<g>
</g>
<g>
</g>
<g>
</g>
<g>
</g>
<g>
</g>
<g>
</g>
<g>
</g>
<g>
</g>
<g>
</g>
<g>
</g>
<g>
</g>
<g>
</g>
<g>
</g>
</svg>
