<?xml version="1.0" encoding="iso-8859-1"?>
<!-- Generator: Adobe Illustrator 19.0.0, SVG Export Plug-In . SVG Version: 6.00 Build 0)  -->
<svg version="1.1" id="Layer_1" xmlns="http://www.w3.org/2000/svg" xmlns:xlink="http://www.w3.org/1999/xlink" x="0px" y="0px"
	 viewBox="0 0 512 512" style="enable-background:new 0 0 512 512;" xml:space="preserve">
<g>
	<path style="fill:#B9DDF9;" d="M256.005,0C397.384,0,512,114.616,512,256.005C512,397.384,397.384,512,256.005,512
		C114.616,512,0,397.384,0,256.005C0,114.616,114.616,0,256.005,0z"/>
	<polygon style="fill:#9F877E;" points="30.544,276.859 177.266,12.64 332.624,276.859 	"/>
	<polygon style="fill:#8B6E62;" points="332.624,276.859 177.266,12.64 177.266,276.859 	"/>
	<polygon style="fill:#EDEDED;" points="132.647,92.99 152.105,84.794 148.1,115.905 168.202,92.013 177.266,134.386 
		193.872,83.896 232.025,105.766 220.294,85.81 177.266,12.64 	"/>
	<path style="fill:#9F877E;" d="M230.11,276.859L368.892,73.22L511.56,270.94c-0.117,1.973-0.254,3.946-0.41,5.919H230.11z"/>
	<path style="fill:#8B6E62;" d="M511.56,270.94L368.892,73.22v203.64H511.15C511.307,274.886,511.443,272.913,511.56,270.94z"/>
	<polygon style="fill:#EDEDED;" points="326.685,135.148 345.087,128.828 341.298,152.808 360.315,134.386 368.892,167.059 
		384.589,128.134 420.681,144.994 409.575,129.609 368.892,73.22 	"/>
	<path style="fill:#9F877E;" d="M40.908,117.146l108.628,162.41H1.084C0.381,271.799,0,263.946,0,256.005
		C0,204.812,15.033,157.145,40.908,117.146z"/>
	<path style="fill:#8B6E62;" d="M149.536,279.555L40.908,117.146c-11.428,17.66-20.737,36.815-27.575,57.112v105.297H149.536z"/>
	<path style="fill:#EDEDED;" d="M31.609,132.706l29.723,14.984l-10.286-15.384l-10.139-15.16
		C37.626,122.215,34.529,127.402,31.609,132.706z"/>
	<path style="fill:#7CB142;" d="M511.678,243.053c-23.247-10.637-48.468-12.845-71.256-12.806
		c-16.498,0.02-54.338,6.466-79.334,16.176c-14.632-0.293-27.663,0.293-34.432,1.114c-27.916,3.389-59.047,11.262-86.269,19.721
		c-0.098,0.029-2.725,0.342-4.63,0.147c0.518,0.049-0.576-0.283-2.061-0.801c-38.817-11.868-82.948-21.186-122.303-25.963
		c-9.866-1.192-28.835-2.041-50.158-1.612c-17.25-6.71-38.71-12.347-59.066-16.42C0.742,233.539,0,244.684,0,256.005
		C0,397.384,114.616,512,256.005,512C397.384,512,512,397.384,512,256.005C512,251.658,511.893,247.341,511.678,243.053z"/>
	<path style="fill:#429F46;" d="M314.231,505.348v-175.86c-0.752-0.176-1.524-0.332-2.286-0.479
		c-1.358-0.254-2.725-0.508-4.093-0.723c-0.635-0.098-1.026-0.156-1.26-0.195c-0.107-0.02-0.225-0.029-0.352-0.049
		c-11.35-1.338-22.798-1.68-34.139-3.038c-6.769-0.811-13.636-1.641-20.239-3.428c-6.505-1.758-12.737-4.562-18.891-7.267
		c-6.437-2.842-8.801-4.122-14.378-6.066c-5.861-2.041-11.712-3.106-17.777-4.249c-0.908-0.176-1.778-0.459-2.588-0.83
		c-2.159-0.127-4.571-0.303-1.836-0.195c-7.883-0.293-18.09-7.541-18.09-15.658c0-7.873,10.198-13.333,18.09-13.314
		c-4.142-0.01,4.415-0.264,5.47-0.303c0.899-0.029,2.96-0.156,3.907-0.215c-0.82-0.059-0.967-0.811,2.129-1.162
		c0.557-0.088,3.624-0.625,3.819-0.654c6.603-1.153,14.535-1.709,20.923-3.751c1.68-0.537,1.367-0.381,3.253-0.576l-3.194-1.035
		c-38.837-11.868-81.952-20.884-121.307-25.66c-9.866-1.192-28.835-2.041-50.158-1.612c-17.25-6.71-38.71-12.347-59.066-16.42
		C0.742,233.539,0,244.684,0,256.005C0,397.384,114.616,512,256.005,512C276.029,512,295.526,509.695,314.231,505.348z"/>
	<path style="fill:#F6F6F6;" d="M215.888,312.522c49.777,10.715,96.994,36.248,12.259,87.295
		c-41.396,24.937-81.386,46.7-119.334,65.65C150.454,494.779,201.207,512,256.005,512c86.094,0,162.263-42.5,208.67-107.661
		c-11.604-43.027-63.217-71.198-132.403-88.252c-105.659-26.031-139.348-26.031-148.539-32.918
		c-8.01-6.017,43.672-14.066,57.015-16.019h-5.275c-13.568,0.869-42.793,3.331-81.6,9.885
		C104.721,285.347,166.121,301.796,215.888,312.522z"/>
	
		<linearGradient id="SVGID_1_" gradientUnits="userSpaceOnUse" x1="389.575" y1="-26745.5" x2="389.575" y2="-51813" gradientTransform="matrix(0.0098 0 0 -0.0098 -48.5214 -132.6216)">
		<stop  offset="0" style="stop-color:#000000"/>
		<stop  offset="0.212" style="stop-color:#343434"/>
		<stop  offset="0.561" style="stop-color:#000000"/>
		<stop  offset="0.788" style="stop-color:#343434"/>
		<stop  offset="1" style="stop-color:#000000"/>
	</linearGradient>
	<path style="fill:url(#SVGID_1_);" d="M215.888,312.522c49.777,10.715,96.994,36.248,12.259,87.295
		c-41.396,24.937-81.386,46.7-119.334,65.65C150.454,494.779,201.207,512,256.005,512c86.094,0,162.263-42.5,208.67-107.661
		c-11.604-43.027-63.217-71.198-132.403-88.252c-105.659-26.031-139.348-26.031-148.539-32.918
		c-8.01-6.017,43.672-14.066,57.015-16.019h-5.275c-13.568,0.869-42.793,3.331-81.6,9.885
		C104.721,285.347,166.121,301.796,215.888,312.522z"/>
	<path style="fill:#606060;" d="M215.888,312.522c49.777,10.715,96.994,36.248,12.259,87.295
		c-41.396,24.937-81.386,46.7-119.334,65.65C150.454,494.779,201.207,512,256.005,512c86.094,0,162.263-42.5,208.67-107.661
		c-11.604-43.027-63.217-71.198-132.403-88.252c-105.659-26.031-139.348-26.031-148.539-32.918
		c-8.01-6.017,43.662-14.066,57.015-16.019h-5.275c-13.568,0.869-42.793,3.331-81.6,9.885
		C104.721,285.347,166.121,301.796,215.888,312.522z"/>
	<path style="fill:#FFFFFF;" d="M166.649,290.622c5.353,1.817,11.057,3.155,16.957,4.503c23.658,5.109,50.617,10.891,80.252,17.875
		c14.769,3.702,30.163,7.98,45.674,13.9c15.287,6.017,31.628,13.265,43.691,26.461c12.415,12.815,15.433,34.48,4.649,50.548
		c-9.68,16.361-23.96,30.241-38.925,43.584c-26.178,22.271-55.198,43.271-86.211,63.442c2.491,0.225,4.982,0.42,7.482,0.567
		c28.336-19.868,55.032-40.566,80.887-62.602c15.003-13.411,28.112-27.692,37.938-44.326c11.028-16.371,7.912-39.042-4.874-52.053
		c-12.366-13.47-28.844-20.688-44.219-26.725c-15.599-5.919-31.032-10.168-45.831-13.851c-29.694-6.916-56.653-12.63-80.331-17.65
		c-5.89-1.319-11.585-2.637-16.889-4.425c-2.559-0.938-5.372-1.836-7.072-3.682c-1.817-2.12,1.866-3.897,3.829-4.816
		c9.514-3.917,18.989-5.48,27.282-7.189c24.234-4.337,40.8-6.183,48.116-6.925h-2.041c-8.117,0.723-23.912,2.481-46.182,6.349
		c-8.342,1.67-17.777,3.155-27.477,7.101c-1.778,0.889-6.339,2.676-4.122,5.958C161.257,288.825,164.021,289.616,166.649,290.622z"
		/>
</g>
<path style="fill:#BD360C;" d="M105.444,425.692c-0.156,0.645-3.36,27.028-3.36,27.028l6.808,0.654l-0.078-26.647L105.444,425.692z"
	/>
<path style="fill:#64DB16;" d="M93.742,378.288c0,0,11.243-2.501,9.944,0.733c-1.289,3.233-15.746,11.663-15.746,11.663
	s11.477-1.836,9.748,2.569c-1.709,4.396-16.009,11.78-16.009,11.78s18.49-3.175,13.421,2.686
	c-5.05,5.87-23.355,15.746-23.355,15.746s23.277-5.509,22.525,1.026c-0.742,6.535-10.237,8.41-12.22,12.542
	c0,0,22.974-4.571,25.494-1.074c2.598,0.01,25.768,4.542,25.807,3.409c-1.68-4.259-11.516-7.394-11.809-13.958
	c-0.313-6.574,22.534,0.498,22.534,0.498s-17.592-11.077-22.241-17.279c-4.64-6.183,13.577-1.768,13.577-1.768
	s-13.753-8.342-15.179-12.835c-1.426-4.523,9.905-1.915,9.905-1.915s-13.851-9.387-14.915-12.698
	c-1.074-3.321,9.973-0.059,9.973-0.059c-9.299-8.752-12.708-17.904-14.974-22.72C107.632,361.283,103.607,370.201,93.742,378.288z"
	/>
<path style="fill:#ADE900;" d="M93.742,378.288c0,0,11.243-2.501,9.944,0.733c-1.289,3.233-15.746,11.663-15.746,11.663
	s11.477-1.836,9.748,2.569c-1.709,4.396-16.009,11.78-16.009,11.78s18.49-3.175,13.431,2.686
	c-5.06,5.87-23.365,15.746-23.365,15.746s23.277-5.509,22.534,1.026c-0.752,6.535-10.246,8.41-12.229,12.542
	c-4.689,1.807,18.989-3.204,25.494-1.074l2.882-78.875l-0.205-0.449C107.632,361.283,103.607,370.201,93.742,378.288z"/>
<path style="fill:#BD360C;" d="M152.017,396.671c-0.117,0.508-2.637,21.235-2.637,21.235l5.343,0.518l-0.059-20.932L152.017,396.671
	z"/>
<path style="fill:#64DB16;" d="M142.825,359.417c0,0,8.83-1.963,7.814,0.586c-1.016,2.54-12.376,9.162-12.376,9.162
	s9.016-1.446,7.658,2.012c-1.348,3.458-12.571,9.26-12.571,9.26s14.525-2.491,10.539,2.12c-3.976,4.61-18.354,12.366-18.354,12.366
	s18.295-4.337,17.699,0.801c-0.576,5.138-8.039,6.613-9.602,9.856c0,0,18.051-3.595,20.034-0.84
	c2.041,0.01,20.249,3.565,20.278,2.676c-1.319-3.341-9.045-5.812-9.279-10.96c-0.244-5.167,17.709,0.391,17.709,0.391
	s-13.821-8.713-17.475-13.587c-3.653-4.855,10.666-1.387,10.666-1.387s-10.813-6.554-11.927-10.09
	c-1.123-3.546,7.785-1.494,7.785-1.494s-10.891-7.375-11.721-9.983c-0.85-2.608,7.834-0.049,7.834-0.049
	c-7.306-6.877-9.992-14.066-11.77-17.846C153.736,346.064,150.571,353.068,142.825,359.417z"/>
<path style="fill:#ADE900;" d="M142.825,359.417c0,0,8.83-1.963,7.814,0.586c-1.016,2.54-12.376,9.162-12.376,9.162
	s9.016-1.446,7.658,2.012c-1.348,3.458-12.571,9.26-12.571,9.26s14.525-2.491,10.549,2.12c-3.985,4.61-18.364,12.366-18.364,12.366
	s18.295-4.337,17.709,0.801c-0.586,5.138-8.049,6.613-9.612,9.856c-3.682,1.426,14.925-2.51,20.034-0.84l2.266-61.977l-0.166-0.352
	C153.736,346.064,150.571,353.068,142.825,359.417z"/>
<path style="fill:#BD360C;" d="M202.067,371.148c-0.127,0.527-2.764,22.202-2.764,22.202l5.587,0.537l-0.068-21.88L202.067,371.148z
	"/>
<path style="fill:#64DB16;" d="M192.446,332.213c0,0,9.24-2.051,8.176,0.615c-1.065,2.647-12.933,9.582-12.933,9.582
	s9.426-1.514,8.01,2.1c-1.407,3.604-13.147,9.68-13.147,9.68s15.179-2.618,11.018,2.208c-4.151,4.816-19.184,12.923-19.184,12.923
	s19.116-4.522,18.5,0.84c-0.606,5.372-8.41,6.916-10.032,10.305c0,0,18.862-3.761,20.932-0.879
	c2.129,0.01,21.167,3.722,21.196,2.794c-1.387-3.497-9.455-6.066-9.699-11.458c-0.254-5.402,18.51,0.41,18.51,0.41
	s-14.447-9.104-18.266-14.193c-3.819-5.079,11.145-1.455,11.145-1.455s-11.292-6.847-12.464-10.539
	c-1.172-3.712,8.137-1.573,8.137-1.573s-11.38-7.707-12.249-10.432c-0.879-2.725,8.185-0.049,8.185-0.049
	c-7.638-7.189-10.432-14.701-12.298-18.657C203.864,318.255,200.553,325.581,192.446,332.213z"/>
<path style="fill:#ADE900;" d="M192.446,332.213c0,0,9.24-2.051,8.176,0.615c-1.065,2.647-12.933,9.582-12.933,9.582
	s9.426-1.514,8.01,2.1c-1.407,3.604-13.147,9.68-13.147,9.68s15.179-2.618,11.028,2.208c-4.161,4.816-19.194,12.923-19.194,12.923
	s19.116-4.522,18.5,0.84c-0.606,5.372-8.41,6.916-10.032,10.305c-3.849,1.485,15.589-2.637,20.932-0.879l2.364-64.78l-0.166-0.371
	C203.864,318.255,200.553,325.581,192.446,332.213z"/>
<path style="fill:#BD360C;" d="M466.218,352.071c-0.098,0.43-2.247,18.139-2.247,18.139l4.562,0.43l-0.049-17.875L466.218,352.071z"
	/>
<path style="fill:#64DB16;" d="M458.365,320.267c0,0,7.551-1.68,6.681,0.488c-0.869,2.168-10.569,7.834-10.569,7.834
	s7.697-1.241,6.544,1.719c-1.153,2.95-10.745,7.902-10.745,7.902s12.405-2.129,9.006,1.807
	c-3.389,3.936-15.668,10.559-15.668,10.559s15.609-3.702,15.111,0.684c-0.498,4.386-6.867,5.646-8.195,8.42
	c0,0,15.404-3.067,17.094-0.723c1.748,0.01,17.289,3.048,17.318,2.286c-1.133-2.852-7.717-4.962-7.922-9.358
	c-0.205-4.415,15.121,0.332,15.121,0.332s-11.8-7.433-14.915-11.594c-3.126-4.151,9.104-1.192,9.104-1.192
	s-9.231-5.587-10.188-8.605c-0.947-3.038,6.652-1.28,6.652-1.28s-9.299-6.3-10.012-8.527c-0.723-2.227,6.691-0.039,6.691-0.039
	c-6.242-5.87-8.527-12.014-10.051-15.238C467.693,308.859,464.987,314.836,458.365,320.267z"/>
<path style="fill:#ADE900;" d="M458.365,320.267c0,0,7.551-1.68,6.681,0.488c-0.869,2.168-10.569,7.834-10.569,7.834
	s7.697-1.241,6.544,1.719c-1.153,2.95-10.745,7.902-10.745,7.902s12.405-2.129,9.016,1.807
	c-3.399,3.936-15.677,10.559-15.677,10.559s15.609-3.702,15.111,0.684c-0.498,4.386-6.867,5.646-8.195,8.42
	c-3.145,1.211,12.737-2.149,17.094-0.723l1.934-52.922l-0.137-0.293C467.693,308.859,464.987,314.836,458.365,320.267z"/>
<path style="fill:#BD360C;" d="M417.653,327.3c-0.078,0.332-1.729,13.909-1.729,13.909l3.497,0.332l-0.039-13.704L417.653,327.3z"/>
<path style="fill:#64DB16;" d="M411.626,302.9c0,0,5.783-1.289,5.118,0.381c-0.664,1.661-8.098,6.007-8.098,6.007
	s5.9-0.947,5.011,1.319c-0.879,2.256-8.234,6.066-8.234,6.066s9.514-1.641,6.906,1.377c-2.608,3.018-12.024,8.098-12.024,8.098
	s11.985-2.833,11.594,0.527c-0.381,3.37-5.265,4.337-6.29,6.457c0,0,11.829-2.354,13.118-0.547c1.338,0,13.265,2.335,13.284,1.748
	c-0.869-2.188-5.919-3.8-6.076-7.179c-0.166-3.38,11.594,0.254,11.594,0.254s-9.055-5.695-11.438-8.889
	c-2.393-3.184,6.984-0.908,6.984-0.908s-7.082-4.298-7.814-6.613c-0.733-2.325,5.099-0.977,5.099-0.977s-7.131-4.835-7.678-6.535
	c-0.547-1.709,5.138-0.039,5.138-0.039c-4.786-4.503-6.544-9.211-7.707-11.692C418.776,294.158,416.705,298.739,411.626,302.9z"/>
<path style="fill:#ADE900;" d="M411.626,302.9c0,0,5.783-1.289,5.118,0.381c-0.664,1.661-8.098,6.007-8.098,6.007
	s5.9-0.947,5.011,1.319c-0.879,2.256-8.234,6.066-8.234,6.066s9.514-1.641,6.916,1.377c-2.618,3.018-12.034,8.098-12.034,8.098
	s11.985-2.833,11.604,0.527c-0.391,3.37-5.275,4.337-6.3,6.457c-2.413,0.928,9.778-1.641,13.118-0.547l1.485-40.595l-0.098-0.234
	C418.776,294.158,416.705,298.739,411.626,302.9z"/>
<g>
</g>
<g>
</g>
<g>
</g>
<g>
</g>
<g>
</g>
<g>
</g>
<g>
</g>
<g>
</g>
<g>
</g>
<g>
</g>
<g>
</g>
<g>
</g>
<g>
</g>
<g>
</g>
<g>
</g>
</svg>
