<?xml version="1.0" encoding="iso-8859-1"?>
<!-- Generator: Adobe Illustrator 19.0.0, SVG Export Plug-In . SVG Version: 6.00 Build 0)  -->
<svg version="1.1" id="Layer_1" xmlns="http://www.w3.org/2000/svg" xmlns:xlink="http://www.w3.org/1999/xlink" x="0px" y="0px"
	 viewBox="0 0 512 512" style="enable-background:new 0 0 512 512;" xml:space="preserve">
<path style="fill:#B1E9F1;" d="M255.998,0C397.386,0,512,114.614,512,255.998C512,397.386,397.386,512,255.998,512
	C114.614,512,0,397.386,0,255.998C0,114.614,114.614,0,255.998,0z"/>
<path style="fill:#747474;" d="M112.339,467.913l286.778,0.375c19.049-12.868,36.266-28.24,51.195-45.631l-6.094,0.009l-0.187,2.777
	h-5.112c0.027-1.293,0.114-5.674-0.247-6.098l-7.387-0.046c-0.164-8.583,1.809-16.907,3.289-25.353l-10.068,0.767
	c-0.041-0.037-0.114-0.119-0.146-0.146c-0.037-0.032-0.082-0.1-0.142-0.151c-4.755,0.279-8.218,0.324-13.005,0l-0.968,0.932
	l-9.497-1.38c0.763,3.741,3.189,11.361,2.398,14.75c-0.407,0.347-2.211,0.722-3.065,1.233c-2.083,1.256-1.74-0.416-1.649,3.449
	c0.037,1.585,0.891,1.932-1.192,2.193c-1.59-0.868-0.365-31.452-0.585-35.17l-7.556-0.041l2.613-5.272
	c-2.686-1.521-4.829-0.891-9.762-1.078c-0.091-2.257,0.078-9.817-1.398-11.375l-1.211,11.407c-5.939,0.041-5.865-0.352-9.954,0.863
	l2.691,5.463l-7.725-0.005l-0.018,50.099c-1.567,0.005-0.767,0.073-1.581-0.32c-0.79-0.388-0.58-0.311-0.338-0.895
	c0.091-0.219,0.192-0.037,0.196-0.397l-0.324-0.767c0.11-0.854,0.434-0.151,0.146-1.032l-0.014-1.398
	c-0.219-0.63,0.247-0.667-0.009-1.407c-0.014-0.05-0.073-0.224-0.046-0.375c0.11-0.507,0.439,0.324,0.219-0.649l-0.297-0.512
	c-0.078-0.703,0.498,0.11,0.302-0.9c-0.018-0.119-0.471,0.046-0.174-0.767c0.672-1.809-0.032,0.114-0.553-1.489
	c-1.489-0.132-1.937-0.082-3.216-0.256c-0.841-0.114,0.434-0.059-1.444-0.196c-0.818-0.064-1.576-0.032-2.403-0.027
	c0.471-4.879,1.549-8.072-0.507-13.001c-2.11-5.071-4.838-6.592-8.044-10.831l-2.421,0.471l-1.795-1.846
	c-2.083,0.448-5.843,1.631-7.802,1.818l-0.672-7.304l-1.183,7.807c-4.682,1.649-9.118,1.549-10.945,4.285
	c-0.809,1.206-0.375,1.338-3.161,1.74l0.032-18.816c-1.823,0.301-3.097,0.859-4.792,1.201c-0.836-2.499,0.174-11.114-1.083-12.498
	l-1.023,13.17c-2.325,0.534-17.478,4.614-18.19,5.294c-0.598,1.201,0.137,17.857-0.027,20.808l-2.718,0.027
	c-0.356,2.179-1.325-0.352-1.823,1.759c-0.082,0.333,0.137,0.882,0.027,1.243c-0.324,1.087-1.192,0.598-1.238,2.028
	c-0.046,1.32-0.772,1.105-1.051,2.257c-0.256,1.046,0.694,0.69-0.946,0.996c-1.412-1.128-0.201-26.541-0.443-30.337
	c-0.786-0.178-0.475-0.078-0.991-0.187l-0.968-4.701c-1.489-0.343-0.978,0.018-2.334-0.407l0.005-4.984l-3.143-0.018l-0.16-1.763
	l-5.683-0.018l-0.48-6.331c-0.027,0.301-0.626,5.546-0.841,6.341l-4.797,0.018l-0.005,1.663l-3.202,0.151l-0.032,10.059
	c-2.563,0.027-1.412-0.114-1.928,0.384c-0.548,1.092-0.009,18.793-0.005,22.813c0.005,0.731,0.475,1.713-0.087,2.426
	c-0.471,0.594,0.347,0.238-0.927,0.507c-1.562-0.324-0.822-0.968-1.055-1.695c-0.247-0.781-0.014-0.37-0.909-0.795
	c-1.302-0.608-3.755-0.717-5.157-0.215c-0.082,0.027-0.174,0.073-0.247,0.105l-0.443,0.228c-1.215,0.722-0.461,1.22-0.868,2.229
	l-4.043,0.183l0.347,1.279c0.018,0.037,0.073,0.096,0.082,0.128s0.037,0.087,0.037,0.119c0.014,0.425-0.219,0.027-0.53,0.809
	c-0.288,0.717-0.064,2.421-0.064,3.243l0.032,4.892c0.018,1.521,0.859,0.53-0.672,1.549c-2.019-0.397-1.201-0.041-1.179-2.777
	c0-1.014,0.018-2.037-0.023-3.052l-2.028-0.32c0.169-3.371,0.781-4.769-6.893-6.263c-4.495,0.973-3.887,1.229-6.583,2.403
	c-0.914,0.397-0.018,2.869-0.279,3.568c-0.16,0.425-0.64,0.365-1.416,0.608c-1.526,0.475-2.965,0.425-5.002,0.32l-0.064-2.768
	l-5.774-0.009l-0.018-7.547h-9.04l-0.018,3.339c-3.549,0.064-2.54-0.037-4.417,0.863c-0.534,0.26-0.955,0.16-1.137,0.512
	c0,0.79,0.251,1.677-0.402,2.252c-0.831,0.731-0.452-0.493-0.85,0.804c-0.11,0.365,0.073,0.836-0.046,1.224
	c-0.603,1.987-1.087-0.315-1.005,4.518l-0.361-0.311c-0.032-0.041-0.11-0.114-0.137-0.169c-0.032-0.055-0.069-0.114-0.101-0.178
	c-0.073-0.183-0.05-0.576-0.059-0.777l-7.117-0.018l-0.064,2.024l-3.773,0.027c0.758-1.384,0.224-2.755,0.265-4.194
	c0.032-1.201,0.795-0.667-1.211-1.133l0.749-0.297c0.475-0.219,0.132,0.032,0.594-0.315c-0.091-0.037-0.219-0.146-0.265-0.11
	l-0.333-0.603c0.471-0.215,0.128,0.037,0.594-0.306c-0.699-0.302,0.448-0.046-1.325-0.407l1.32-0.612l-1.32-0.612
	c2.188-0.393,0.425-0.009,1.325-0.402c-0.498-0.375-0.05-0.073-0.589-0.311l-0.754-0.302c1.846-0.352,0.658-0.119,1.348-0.407
	c-0.48-0.365-0.064-0.087-0.594-0.32l-0.48-0.196c-0.055-0.018-0.187-0.059-0.27-0.096l1.348-0.411l-1.384-0.608
	c1.823-0.429,0.831,0.128,1.316-0.612c-1.663-0.402-1.517-1.06-2.828-1.603c-0.123-0.046-0.676-0.251-0.745-0.288l-2.371-1.105
	c-0.091-0.018-0.279-0.032-0.407-0.059h-0.959c-1.256,0.343-0.877-0.009-1.818,0.388c-1.243,0.521,0.26,0.069-0.886,0.758
	c-3.266,0.21-10.42,0.594-13.133,1.416l-1.494,0.493c0.365,0.402,0.813,0.352,0.804,0.653l-0.882,0.566l1.398,0.411
	c-1.338,0.626-0.708-0.087-1.402,0.612c1.115,0.909,0.968,0.078,0.005,1.019c0.388,0.333,0.699,0.283,0.63,0.882
	c-0.009,0.032-0.018,0.096-0.018,0.123l0.014,1.275c0.096,0.105,0.672,0.315,0.767,0.365c-1.316,0.256-0.85,0.215-1.389,0.407
	c1.014,0.612,0.288,0.1,1.398,0.612l-1.051,0.288c-0.073,0.023-0.228,0.082-0.343,0.119l0.507,0.242
	c0.027,0.018,0.16,0.087,0.183,0.114l0.023,1.142c0.005,0.023,0.014,0.082,0.014,0.105c0,0.023-0.018,0.082-0.027,0.11
	c-0.005,0.027-0.05,0.087-0.059,0.114l0.096,0.703c0.005,0.027,0.027,0.087,0.027,0.114l-0.155,2.755
	c0.16,0.553,0.525-0.151,0.187,0.448c-0.014,0.023-0.566,0.347-0.754,0.471l0.635,0.224c0.069,0.018,0.69,0.174,0.713,0.178
	l-1.366,0.612l0.914,0.324c0.841,0.402-0.069-0.324,0.439,0.288c-0.594,0.1-0.471,0.091-0.978,0.233
	c-1.471,0.411,0.324-0.014-0.836,0.26c-0.16-1.791-0.708-4.614-0.027-5.788c-0.128-0.037-0.333-0.128-0.407-0.082
	c-0.26,0.183-2.421-0.868-2.604-0.95l0.617-0.493c0.059-0.018,0.201-0.069,0.301-0.105l-0.014-1.019
	c-0.891-0.708,0.16-0.027-1.416-0.612c1.768-0.608,0.589,0.11,1.407-0.612c-0.1-0.027-0.256-0.137-0.297-0.096l-0.32-0.566
	c0.525-0.238,0.16,0.032,0.64-0.352l-1.407-0.407l1.402-0.612l-0.644-0.685c0.466-0.21,0.183,0,0.649-0.333
	c-0.105-0.037-0.26-0.155-0.306-0.114l-1.083-0.292l0.795-0.836c-0.059-0.018-0.74-0.174-0.781-0.183
	c0.073-0.037,0.21-0.128,0.242-0.096l1.133-0.516c-0.717-0.283,0.037-0.132-1.361-0.407l1.361-0.612l-1.444-0.658
	c1.919-0.146,0.703,0.055,1.444-0.356l-1.133-0.521c-0.041-0.018-0.16-0.059-0.228-0.091c1.311-0.247,0.758-0.174,1.361-0.411
	l-1.38-0.612c2.042-0.475,1.256,0.343,1.197-0.745c-12.553-0.009-2.777-0.48-10.246-0.987c-1.873-0.128-3.613-0.242-5.523-0.333
	l-0.105-4.856l-1.75-0.238c-0.105-0.018-0.256-0.041-0.352-0.055l-0.699-5.409c-0.219-0.827-0.685-0.201-1.827-1.042
	c-0.699-0.507-0.973-0.708-2.371-1.069c-1.96-0.512-3.586-1.101-5.468-1.562c-6.665,1.224-7.661,2.558-8.625,3.033
	c-0.064,0.027-0.169,0.069-0.238,0.096l-1.188,0.333l-0.005,5.299c-0.603,0.576,0.132,0.123-1.105,0.384
	c-0.827,0.169-0.384-0.137-1.676,0.228l-0.032,13.033l-2.499,0.411c-0.329,1.69,0.539,4.883-0.096,6.318
	c-0.265,0.598,0.21,0.397-0.918,0.658c-1.539-0.283-1.169,0.365-1.087-2.088c0.064-1.873-0.955-6.226,0.676-7.542
	c-0.087-0.037-0.265-0.128-0.297-0.091c-0.516,0.471-1.526-1.078-1.032-2.316c0.525-1.32,1.366-0.726-1.005-2.129l-5.929-4.13
	c-0.091,0.05-0.187,0.069-0.219,0.155l-3.91,2.914l-13.33-0.009c-0.393,1.494,0.617,3.39-0.763,4.6
	c-1.407,1.243-0.073,2.736-0.653,4.061c-0.74,0.813,0.233,0.041-1.75,0.612l-0.055,9.913l-1.969-0.009
	c-1.211-0.662,0.078-0.037-0.475-0.553c-0.534-0.507-0.192-0.242-0.74-0.493c-1.087-0.503-1.261,0.498-1.243-1.329
	c-2.366-0.064-2.12,0.21-2.805-0.397l-0.014-8.529l-5.276-0.018c0.014-1.567-1.078-1.119-1.064-2.855
	c0.05-4.395,0.132-3.079-1.334-3.874c-1.471-0.799,1.389-0.735-6.322-0.726l-0.635,0.626c-0.059,0.037-0.16,0.082-0.224,0.119
	c-0.091,0.05-0.42,0.174-0.507,0.228c-0.507,0.288-0.425-0.009-0.713,0.571c-0.055,0.1-0.041,0.681-0.032,0.813l-0.507,1.329
	c-0.786,0.626-0.653,0.128-0.726,1.521c-0.082,1.53-1.124,0.42-1.046,4.701c0.014,0.854,0.475,1.101-0.914,1.343
	c-0.187-0.032-0.329-0.046-0.443-0.05C75.146,438.677,92.769,454.62,112.339,467.913z M59.436,419.998
	c-0.032-0.288,0.005-0.904,0.009-1.087c0.059-1.64,0.297-3.431-0.178-5.048c-0.155-0.512-0.123-0.041-0.128-0.461l0.32-1.092
	l-6.199-0.009C55.27,414.904,57.325,417.476,59.436,419.998z"/>
<path style="fill:#7CB142;" d="M101.184,459.878h309.632C367.821,492.576,314.182,512,255.998,512
	C197.818,512,144.179,492.576,101.184,459.878z"/>
<path style="fill:#BBBBBB;" d="M91.335,451.998h329.33c-5.431,4.568-11.046,8.926-16.847,13.037H108.182
	C102.381,460.924,96.767,456.566,91.335,451.998z"/>
<path style="fill:#FFFFFF;" d="M382.681,191.742c3.298,0,6.405,0.781,9.159,2.17c2.974-2.914,7.058-4.714,11.557-4.714
	c7.793,0,14.326,5.39,16.071,12.649c3.897,1.169,7.021,4.111,8.446,7.885c0.471-0.05,0.946-0.073,1.425-0.073
	c7.199,0,13.037,5.838,13.037,13.042c0,7.199-5.838,13.037-13.037,13.037c-2.243,0-4.358-0.566-6.199-1.562
	c-1.581,5.418-6.587,9.378-12.521,9.378c-3.618,0-6.898-1.48-9.26-3.869c-2.366,2.389-5.642,3.869-9.269,3.869
	c-3.44,0-6.578-1.338-8.908-3.522c-2.385,2.608-5.811,4.244-9.625,4.244c-3.568,0-6.797-1.425-9.15-3.75
	c-1.078,0.238-2.197,0.365-3.344,0.365c-8.583,0-15.536-6.957-15.536-15.536c0-8.583,6.953-15.536,15.536-15.536
	c0.466,0,0.927,0.023,1.389,0.064C363.554,199.682,372.193,191.742,382.681,191.742z"/>
<path style="fill:#FFFF00;" d="M349.69,42.959c19.045,0,34.48,15.436,34.48,34.48c0,19.035-15.436,34.476-34.48,34.476
	c-19.04,0-34.476-15.44-34.476-34.476C315.214,58.394,330.65,42.959,349.69,42.959z"/>
<path style="fill:#FFFFFF;" d="M109.041,72.775c1.736,0,3.376,0.416,4.824,1.147c1.571-1.539,3.718-2.485,6.094-2.485
	c4.107,0,7.547,2.841,8.469,6.665c2.051,0.617,3.7,2.165,4.449,4.157c0.247-0.027,0.493-0.041,0.749-0.041
	c3.796,0,6.87,3.074,6.87,6.87s-3.074,6.87-6.87,6.87c-1.179,0-2.293-0.297-3.266-0.822c-0.836,2.855-3.467,4.938-6.592,4.938
	c-1.914,0-3.641-0.777-4.888-2.033c-1.243,1.256-2.969,2.033-4.879,2.033c-1.818,0-3.467-0.703-4.696-1.85
	c-1.256,1.37-3.061,2.238-5.071,2.238c-1.882,0-3.581-0.754-4.824-1.983c-0.566,0.128-1.156,0.192-1.763,0.192
	c-4.518,0-8.182-3.664-8.182-8.186c0-4.518,3.664-8.182,8.182-8.182c0.251,0,0.493,0.009,0.735,0.032
	C98.964,76.964,103.518,72.775,109.041,72.775z"/>
<g>
	<path d="M420.615,286.033c0,0,5.77-1.233,10.598-0.311c4.842,0.927,9.881,4.943,15.335,5.249c5.454,0.311,4.321-1.75,4.321-1.75
		s-3.499,0.516-4.427-2.467c-0.923-2.988,2.887-5.358,8.748-9.465c5.87-4.116,6.998-8.236,5.87-10.808c0,0-1.032,1.645-5.87,4.221
		c-4.838,2.572-8.332,7.309-12.138,10.694c-3.81,3.403-4.015,3.604-7.62,2.887C431.839,283.562,424.118,282.433,420.615,286.033z"/>
	<g>
		<polygon style="fill:#747474;" points="206.315,360.79 206.315,377.688 207.297,377.688 207.297,360.79 		"/>
		<polygon style="fill:#747474;" points="235.172,360.79 235.172,377.898 236.154,377.898 236.154,360.79 		"/>
	</g>
	<g>
		<path style="fill:#FFBF06;" d="M205.853,323.154c0,0-15.692-29.533-40.209-71.217c-0.21-0.356-0.416-0.713-0.63-1.069
			c-9.835-16.701-17.761-33.841-22.964-50.642c-5.194-16.742-7.684-33.142-6.665-48.427c0.544-8.168,2.083-16.025,4.751-23.444
			c3.047-8.456,7.181-14.846,11.69-19.666c-3.358,0.388-22.356,4.28-35.156,42.666c-0.05,0.146-0.091,0.297-0.142,0.443
			c-5.4,16.486-5.454,32.964-1.923,48.427c4.468,19.529,14.65,37.436,27.016,51.711c2.851,3.284,5.811,6.382,8.844,9.255
			c26.756,25.349,50.692,65.247,50.692,65.247s4.198,0.283,6.176-2.216C206.488,323.757,205.853,323.154,205.853,323.154z"/>
		<path style="fill:#FFBF06;" d="M324.716,151.799c-0.046-0.146-0.096-0.297-0.142-0.443
			c-12.795-38.386-31.794-42.278-35.152-42.666c4.509,4.819,8.638,11.21,11.681,19.666c2.672,7.419,4.212,15.276,4.755,23.444
			c1.019,15.285-1.471,31.685-6.66,48.427c-5.208,16.802-13.133,33.941-22.969,50.642c-0.21,0.356-0.42,0.713-0.63,1.069
			c-24.517,41.684-40.204,71.217-40.204,71.217s-0.64,0.603-1.48,1.069c1.973,2.499,6.172,2.216,6.172,2.216
			s23.942-39.898,50.692-65.247c3.033-2.873,5.998-5.971,8.844-9.255c12.37-14.275,22.553-32.182,27.016-51.711
			C330.17,184.762,330.116,168.285,324.716,151.799z"/>
	</g>
	<g>
		<path style="fill:#FFDF81;" d="M135.253,154.293c-0.087,2.193-0.11,4.399-0.064,6.628l0.123,3.335
			c0.114,2.261,0.297,4.545,0.544,6.848l0.397,3.33c0.279,2.074,0.603,4.157,0.982,6.254l0.343,1.864l0.238,1.192
			c0.1,0.475,0.196,0.955,0.297,1.434l0.745,3.33c0.909,3.878,1.973,7.789,3.193,11.717c5.203,16.802,13.129,33.941,22.964,50.642
			c0.215,0.356,0.42,0.713,0.63,1.069c24.517,41.684,40.209,71.217,40.209,71.217s0.635,0.603,1.48,1.069
			c1.302,0.722,3.093,1.105,3.705-1.64c-0.585-0.461-0.964-0.841-0.964-0.841s-12.334-39.377-24.54-69.806
			c-1.055-2.622-2.11-5.18-3.152-7.638c-5.578-13.156-11.416-27.838-15.417-44.073c-0.178-0.713-0.347-1.43-0.516-2.152l-0.749-3.33
			c-0.119-0.544-0.228-1.096-0.343-1.64l-0.653-3.33c-0.347-1.9-0.676-3.814-0.968-5.756h-0.096h-0.11v-1.384
			c-0.224-1.553-0.42-3.125-0.598-4.705v1.348l-0.215-3.33c-0.224-2.22-0.402-4.463-0.534-6.729l-0.151-3.335
			c-0.078-2.015-0.11-4.056-0.101-6.117l0.05-3.326c0.037-1.539,0.091-3.083,0.178-4.641c0.48-8.442,1.686-17.194,3.796-26.253
			c3.723-15.998,10.022-25.412,16.779-30.858c-3.198-0.585-18.483,0.708-30.908,14.001c-4.509,4.819-8.643,11.21-11.69,19.666
			c-2.668,7.419-4.207,15.276-4.751,23.444L135.253,154.293z"/>
		<path style="fill:#FFDF81;" d="M306.444,151.799c-0.544-8.168-2.083-16.025-4.755-23.444c-3.042-8.456-7.177-14.846-11.681-19.666
			c-12.434-13.293-27.71-14.586-30.913-14.001c6.756,5.445,13.051,14.86,16.779,30.858c2.115,9.059,3.321,17.811,3.796,26.253
			c0.982,17.464-1.147,33.594-4.806,48.427c-4.006,16.235-9.84,30.917-15.422,44.073c-1.042,2.458-2.092,5.016-3.147,7.638
			c-12.211,30.428-24.545,69.806-24.545,69.806s-0.379,0.379-0.964,0.841c0.617,2.75,2.403,2.362,3.709,1.64
			c0.841-0.466,1.48-1.069,1.48-1.069s15.692-29.533,40.209-71.217c0.21-0.356,0.416-0.713,0.63-1.069
			c9.835-16.701,17.756-33.841,22.969-50.642C304.973,183.483,307.462,167.084,306.444,151.799z"/>
	</g>
	<g>
		<path style="fill:#FFBF06;" d="M215.241,320.335c-2.019-24.403-7.761-45.946-13.43-68.399
			c-4.116-16.281-8.191-33.041-10.781-51.711c-2.042-14.719-3.157-30.629-2.636-48.427c0.027-0.923,0.055-1.855,0.091-2.787
			c1.535-39.939,12.425-55.018,22.009-60.477c-4.171-0.982-16.591-2.841-27.76,6.153c-6.756,5.445-13.056,14.86-16.779,30.858
			c-2.11,9.059-3.316,17.811-3.796,26.253c-0.982,17.464,1.147,33.594,4.806,48.427c4.002,16.235,9.84,30.917,15.417,44.073
			c1.042,2.458,2.097,5.016,3.152,7.638c12.206,30.428,24.54,69.806,24.54,69.806s0.379,0.379,0.964,0.841
			c1.503,1.165,4.358,2.828,5.61-0.142C215.771,321.459,215.241,320.335,215.241,320.335z"/>
		<path style="fill:#FFBF06;" d="M279.67,151.799c-0.475-8.442-1.681-17.194-3.796-26.253
			c-3.728-15.998-10.022-25.412-16.779-30.858c-11.169-8.995-23.59-7.135-27.76-6.153c9.584,5.459,20.47,20.538,22.009,60.477
			c0.037,0.932,0.064,1.864,0.091,2.787c0.516,17.797-0.598,33.708-2.636,48.427c-2.59,18.67-6.66,35.43-10.781,51.711
			c-5.669,22.452-11.416,43.996-13.43,68.399c0,0-0.53,1.124-1.412,2.106c1.256,2.969,4.107,1.306,5.61,0.142
			c0.585-0.461,0.964-0.841,0.964-0.841s12.334-39.377,24.545-69.806c1.055-2.622,2.106-5.18,3.147-7.638
			c5.582-13.156,11.416-27.838,15.422-44.073C278.523,185.393,280.652,169.263,279.67,151.799z"/>
	</g>
	<path style="fill:#FFDF81;" d="M253.435,151.799c-0.027-0.923-0.055-1.855-0.091-2.787c-1.539-39.939-12.425-55.018-22.009-60.477
		c-2.019-1.151-3.983-1.873-5.788-2.311c0.005-0.037,0.014-0.073,0.018-0.11c0,0-1.818-0.544-4.655-0.493
		c-2.828-0.05-4.646,0.493-4.646,0.493c0.005,0.037,0.009,0.073,0.014,0.11c-1.804,0.439-3.764,1.16-5.783,2.311
		c-9.584,5.459-20.474,20.538-22.009,60.477c-0.037,0.932-0.064,1.864-0.091,2.787c-0.521,17.797,0.594,33.708,2.636,48.427
		c2.59,18.67,6.665,35.43,10.781,51.711c5.669,22.452,11.411,43.996,13.43,68.399c0,0,0.53,1.124,1.407,2.106
		c1.028,1.142,2.544,2.097,4.267,0.859c1.722,1.238,3.234,0.283,4.262-0.859c0.882-0.982,1.412-2.106,1.412-2.106
		c2.015-24.403,7.761-45.946,13.43-68.399c4.12-16.281,8.191-33.041,10.781-51.711C252.837,185.507,253.951,169.596,253.435,151.799
		z"/>
	<g>
		<path style="fill:#747474;" d="M208.302,361.526c-0.301,0-0.544-0.238-0.548-0.534c-0.347-18.076-2.229-28.181-2.252-28.281
			c-0.055-0.302,0.137-0.585,0.439-0.64c0.297-0.055,0.58,0.137,0.644,0.434c0.014,0.1,1.919,10.287,2.261,28.464
			c0.005,0.302-0.233,0.553-0.534,0.557C208.306,361.526,208.302,361.526,208.302,361.526z"/>
		<path style="fill:#747474;" d="M214.259,360.9c-0.014,0-0.023,0-0.032-0.005c-0.301-0.014-0.534-0.27-0.516-0.576
			c0.662-11.95-0.562-28.121-0.726-29.085c-0.073-0.265,0.073-0.548,0.338-0.649c0.283-0.101,0.598,0.041,0.703,0.32
			c0.16,0.439,1.453,17.29,0.777,29.474C214.789,360.676,214.547,360.9,214.259,360.9z"/>
		<path style="fill:#747474;" d="M221.134,360.037c-0.306,0-0.548-0.247-0.548-0.548l-0.009-28.871c0-0.297,0.247-0.544,0.548-0.544
			c0.301,0,0.544,0.247,0.544,0.544l0.009,28.871C221.677,359.79,221.435,360.037,221.134,360.037z"/>
		<path style="fill:#747474;" d="M227.835,360.101c-0.27,0-0.507-0.201-0.539-0.48c-1.434-11.169,0.795-28.546,1.105-29.053
			c0.155-0.256,0.493-0.333,0.749-0.178c0.233,0.142,0.32,0.425,0.219,0.672c-0.301,1.165-2.38,17.606-0.991,28.423
			c0.041,0.301-0.174,0.576-0.471,0.612C227.881,360.101,227.858,360.101,227.835,360.101z"/>
		<path style="fill:#747474;" d="M234.016,359.982c-0.279,0-0.525-0.219-0.544-0.507c-1.252-17.765,0.923-28.432,0.946-28.537
			c0.064-0.297,0.347-0.489,0.649-0.42c0.292,0.055,0.484,0.347,0.425,0.649c-0.023,0.1-2.17,10.635-0.923,28.231
			c0.018,0.297-0.21,0.562-0.512,0.585C234.043,359.982,234.03,359.982,234.016,359.982z"/>
	</g>
	<path style="fill:#FFBF06;" d="M199.901,324.433c0,0,19.867-10.319,42.287-0.256c0,0-4.075,7.263-5.354,13.883
		c0,0-18.341-3.435-31.712,1.275C205.122,339.334,204.36,332.075,199.901,324.433z"/>
	<path style="fill:#F37E16;" d="M204.36,334.876c0,0,13.755-6.112,33.37-0.507l-1.147,4.331c0,0-17.747-3.988-31.461,0.635
		L204.36,334.876z"/>
	<path style="fill:#FFBF06;" d="M206.018,360.06c0,0,16.326-4.395,30.743-0.333c0,0,2.595,2.024-0.448,4.052
		c0,0-15.879-3.266-30.077,0.9C206.237,364.678,203.309,362.426,206.018,360.06z"/>
</g>
<path style="fill:#8B6E62;" d="M200.778,377.231h40.574c1.887,0,3.426,1.544,3.426,3.431v21.639c0,1.887-1.539,3.426-3.426,3.426
	h-40.574c-1.882,0-3.426-1.539-3.426-3.426v-21.639C197.352,378.775,198.896,377.231,200.778,377.231z"/>
<g>
	<path style="fill:#FFBF06;" d="M244.774,380.525h-47.417c0.073-1.823,1.585-3.294,3.426-3.294h40.565
		C243.189,377.231,244.701,378.702,244.774,380.525z"/>
	<path style="fill:#FFBF06;" d="M244.774,402.296h-47.417c0.073,1.823,1.585,3.289,3.426,3.289h40.565
		C243.189,405.586,244.701,404.119,244.774,402.296z"/>
	<path style="fill:#FFBF06;" d="M241.453,397.016c0.164,0.219,0.26,0.484,0.26,0.772l0,0c0,0.703-0.576,1.284-1.284,1.284h-2.65
		c-0.708,0-1.284-0.58-1.284-1.284l0,0c0-0.233,0.064-0.452,0.174-0.644c0.238,0.315,0.608,0.516,1.023,0.516h2.654
		C240.818,397.66,241.234,397.404,241.453,397.016z M241.453,385.385c0.164,0.215,0.26,0.48,0.26,0.772l0,0
		c0,0.703-0.576,1.279-1.284,1.279h-2.65c-0.708,0-1.284-0.576-1.284-1.279l0,0c0-0.238,0.064-0.457,0.174-0.644
		c0.238,0.311,0.608,0.512,1.023,0.512h2.654C240.818,386.025,241.234,385.769,241.453,385.385z M205.378,385.385
		c0.16,0.215,0.256,0.48,0.256,0.772l0,0c0,0.703-0.576,1.279-1.279,1.279h-2.654c-0.708,0-1.284-0.576-1.284-1.279l0,0
		c0-0.238,0.064-0.457,0.174-0.644c0.233,0.311,0.608,0.512,1.023,0.512h2.654C204.739,386.025,205.154,385.769,205.378,385.385z
		 M214.396,385.385c0.164,0.215,0.26,0.48,0.26,0.772l0,0c0,0.703-0.58,1.279-1.284,1.279h-2.65c-0.708,0-1.284-0.576-1.284-1.279
		l0,0c0-0.238,0.059-0.457,0.174-0.644c0.233,0.311,0.608,0.512,1.023,0.512h2.65C213.756,386.025,214.172,385.769,214.396,385.385z
		 M223.418,385.385c0.16,0.215,0.256,0.48,0.256,0.772l0,0c0,0.703-0.58,1.279-1.284,1.279h-2.65c-0.708,0-1.284-0.576-1.284-1.279
		l0,0c0-0.238,0.064-0.457,0.174-0.644c0.238,0.311,0.608,0.512,1.023,0.512h2.654C222.778,386.025,223.194,385.769,223.418,385.385
		z M232.435,385.385c0.164,0.215,0.26,0.48,0.26,0.772l0,0c0,0.703-0.576,1.279-1.284,1.279h-2.654
		c-0.703,0-1.279-0.576-1.279-1.279l0,0c0-0.238,0.059-0.457,0.174-0.644c0.233,0.311,0.608,0.512,1.019,0.512h2.654
		C231.796,386.025,232.211,385.769,232.435,385.385z M241.453,389.264c0.164,0.215,0.26,0.48,0.26,0.772l0,0
		c0,0.703-0.576,1.279-1.284,1.279h-2.65c-0.708,0-1.284-0.576-1.284-1.279l0,0c0-0.238,0.064-0.452,0.174-0.644
		c0.238,0.311,0.608,0.512,1.023,0.512h2.654C240.818,389.903,241.234,389.647,241.453,389.264z M205.378,389.264
		c0.16,0.215,0.256,0.48,0.256,0.772l0,0c0,0.703-0.576,1.279-1.279,1.279h-2.654c-0.708,0-1.284-0.576-1.284-1.279l0,0
		c0-0.238,0.064-0.452,0.174-0.644c0.233,0.311,0.608,0.512,1.023,0.512h2.654C204.739,389.903,205.154,389.647,205.378,389.264z
		 M214.396,389.264c0.164,0.215,0.26,0.48,0.26,0.772l0,0c0,0.703-0.58,1.279-1.284,1.279h-2.65c-0.708,0-1.284-0.576-1.284-1.279
		l0,0c0-0.238,0.059-0.452,0.174-0.644c0.233,0.311,0.608,0.512,1.023,0.512h2.65C213.756,389.903,214.172,389.647,214.396,389.264z
		 M223.418,389.264c0.16,0.215,0.256,0.48,0.256,0.772l0,0c0,0.703-0.58,1.279-1.284,1.279h-2.65c-0.708,0-1.284-0.576-1.284-1.279
		l0,0c0-0.238,0.064-0.452,0.174-0.644c0.238,0.311,0.608,0.512,1.023,0.512h2.654C222.778,389.903,223.194,389.647,223.418,389.264
		z M232.435,389.264c0.164,0.215,0.26,0.48,0.26,0.772l0,0c0,0.703-0.576,1.279-1.284,1.279h-2.654
		c-0.703,0-1.279-0.576-1.279-1.279l0,0c0-0.238,0.059-0.452,0.174-0.644c0.233,0.311,0.608,0.512,1.019,0.512h2.654
		C231.796,389.903,232.211,389.647,232.435,389.264z M241.453,393.142c0.164,0.215,0.26,0.48,0.26,0.767l0,0
		c0,0.703-0.576,1.284-1.284,1.284h-2.65c-0.708,0-1.284-0.58-1.284-1.284l0,0c0-0.233,0.064-0.452,0.174-0.64
		c0.238,0.311,0.608,0.512,1.023,0.512h2.654C240.818,393.781,241.234,393.521,241.453,393.142z M205.378,393.142
		c0.16,0.215,0.256,0.48,0.256,0.767l0,0c0,0.703-0.576,1.284-1.279,1.284h-2.654c-0.708,0-1.284-0.58-1.284-1.284l0,0
		c0-0.233,0.064-0.452,0.174-0.64c0.233,0.311,0.608,0.512,1.023,0.512h2.654C204.739,393.781,205.154,393.521,205.378,393.142z
		 M214.396,393.142c0.164,0.215,0.26,0.48,0.26,0.767l0,0c0,0.703-0.58,1.284-1.284,1.284h-2.65c-0.708,0-1.284-0.58-1.284-1.284
		l0,0c0-0.233,0.059-0.452,0.174-0.64c0.233,0.311,0.608,0.512,1.023,0.512h2.65C213.756,393.781,214.172,393.521,214.396,393.142z
		 M223.418,393.142c0.16,0.215,0.256,0.48,0.256,0.767l0,0c0,0.703-0.58,1.284-1.284,1.284h-2.65c-0.708,0-1.284-0.58-1.284-1.284
		l0,0c0-0.233,0.064-0.452,0.174-0.64c0.238,0.311,0.608,0.512,1.023,0.512h2.654C222.778,393.781,223.194,393.521,223.418,393.142z
		 M232.435,393.142c0.164,0.215,0.26,0.48,0.26,0.767l0,0c0,0.703-0.576,1.284-1.284,1.284h-2.654c-0.703,0-1.279-0.58-1.279-1.284
		l0,0c0-0.233,0.059-0.452,0.174-0.64c0.233,0.311,0.608,0.512,1.019,0.512h2.654C231.796,393.781,232.211,393.521,232.435,393.142z
		 M205.378,397.016c0.16,0.219,0.256,0.484,0.256,0.772l0,0c0,0.703-0.576,1.284-1.279,1.284h-2.654
		c-0.708,0-1.284-0.58-1.284-1.284l0,0c0-0.233,0.064-0.452,0.174-0.644c0.233,0.315,0.608,0.516,1.023,0.516h2.654
		C204.739,397.66,205.154,397.404,205.378,397.016z M214.396,397.016c0.164,0.219,0.26,0.484,0.26,0.772l0,0
		c0,0.703-0.58,1.284-1.284,1.284h-2.65c-0.708,0-1.284-0.58-1.284-1.284l0,0c0-0.233,0.059-0.452,0.174-0.644
		c0.233,0.315,0.608,0.516,1.023,0.516h2.65C213.756,397.66,214.172,397.404,214.396,397.016z M223.418,397.016
		c0.16,0.219,0.256,0.484,0.256,0.772l0,0c0,0.703-0.58,1.284-1.284,1.284h-2.65c-0.708,0-1.284-0.58-1.284-1.284l0,0
		c0-0.233,0.064-0.452,0.174-0.644c0.238,0.315,0.608,0.516,1.023,0.516h2.654C222.778,397.66,223.194,397.404,223.418,397.016z
		 M232.435,397.016c0.164,0.219,0.26,0.484,0.26,0.772l0,0c0,0.703-0.576,1.284-1.284,1.284h-2.654c-0.703,0-1.279-0.58-1.279-1.284
		l0,0c0-0.233,0.059-0.452,0.174-0.644c0.233,0.315,0.608,0.516,1.019,0.516h2.654C231.796,397.66,232.211,397.404,232.435,397.016z
		"/>
</g>
<path style="fill:#FFFFFF;" d="M231.43,380.525c0.018,0.037,4.883,11.256,11.069,0h2.279c-8.748,16.674-15.819,0.069-15.842,0.023
	l-2.499-0.023c-0.018,0.037-4.883,11.256-11.069,0h-2.279c-8.748,16.674-15.824,0.069-15.847,0.023l2.494-0.023
	c0.018,0.037,4.883,11.256,11.073,0h2.279c8.748,16.674,15.819,0.069,15.847,0.023L231.43,380.525z"/>
<g>
	<path style="fill:#DB2C00;" d="M196.47,382.599c0.142,0,0.283,0.014,0.42,0.041c-0.16-0.119-0.265-0.292-0.265-0.489
		c0-0.356,0.338-0.644,0.749-0.644c0.416,0,0.754,0.288,0.754,0.644c0,0.352-0.338,0.64-0.754,0.64h-0.023
		c1.425,0.662,2.22,2.924,1.832,5.614c-0.461,3.207-2.426,5.806-4.385,5.806c-1.96,0-3.175-2.599-2.713-5.806
		C192.546,385.198,194.506,382.599,196.47,382.599z"/>
	<path style="fill:#DB2C00;" d="M212.317,382.599c0.146,0,0.288,0.014,0.429,0.041c-0.183-0.119-0.311-0.292-0.343-0.489
		c-0.055-0.356,0.238-0.644,0.653-0.644c0.411,0,0.795,0.288,0.85,0.644c0.055,0.352-0.238,0.64-0.649,0.64h-0.023
		c1.521,0.662,2.668,2.924,2.7,5.614c0.037,3.207-1.521,5.806-3.481,5.806c-1.96,0-3.581-2.599-3.618-5.806
		C208.795,385.198,210.358,382.599,212.317,382.599z"/>
	<path style="fill:#DB2C00;" d="M228.091,382.115c0.151,0,0.292,0.014,0.434,0.041c-0.183-0.119-0.311-0.292-0.343-0.489
		c-0.055-0.356,0.238-0.644,0.649-0.644c0.416,0,0.795,0.288,0.854,0.644c0.055,0.352-0.238,0.644-0.653,0.644h-0.023
		c1.526,0.658,2.672,2.919,2.704,5.61c0.037,3.207-1.521,5.806-3.481,5.806c-1.96,0-3.581-2.599-3.618-5.806
		C224.574,384.714,226.131,382.115,228.091,382.115z"/>
	<path style="fill:#DB2C00;" d="M243.915,381.964c0.146,0,0.297,0.014,0.439,0.041c-0.201-0.119-0.375-0.292-0.448-0.489
		c-0.132-0.356,0.096-0.644,0.512-0.644c0.411,0,0.859,0.288,0.991,0.644c0.132,0.356-0.096,0.644-0.512,0.644h-0.023
		c1.672,0.658,3.312,2.919,3.933,5.614c0.74,3.207-0.247,5.806-2.206,5.806c-1.964,0-4.157-2.599-4.892-5.806
		C240.969,384.568,241.955,381.964,243.915,381.964z"/>
</g>
<g>
</g>
<g>
</g>
<g>
</g>
<g>
</g>
<g>
</g>
<g>
</g>
<g>
</g>
<g>
</g>
<g>
</g>
<g>
</g>
<g>
</g>
<g>
</g>
<g>
</g>
<g>
</g>
<g>
</g>
</svg>
