<?xml version="1.0" encoding="iso-8859-1"?>
<!-- Generator: Adobe Illustrator 19.0.0, SVG Export Plug-In . SVG Version: 6.00 Build 0)  -->
<svg version="1.1" id="Layer_1" xmlns="http://www.w3.org/2000/svg" xmlns:xlink="http://www.w3.org/1999/xlink" x="0px" y="0px"
	 viewBox="0 0 512 512" style="enable-background:new 0 0 512 512;" xml:space="preserve">
<path style="fill:#DFF3FD;" d="M255.998,0C397.386,0,512,114.614,512,255.998C512,397.386,397.386,512,255.998,512
	C114.614,512,0,397.386,0,255.998C0,114.614,114.614,0,255.998,0z"/>
<path style="fill:#FFEF76;" d="M293.662,113.678c40.684,0,73.666,32.982,73.666,73.67c0,40.684-32.982,73.67-73.666,73.67
	c-40.688,0-73.67-32.986-73.67-73.67C219.992,146.66,252.974,113.678,293.662,113.678z"/>
<path style="fill:#66B96A;" d="M0.425,270.597c24.024-19.492,65.059-47.614,95.341-41.223
	c45.457,9.598,80.303,62.634,114.646,57.074c34.343-5.555,76.265-72.729,107.072-66.16c30.807,6.564,78.284,65.146,108.082,60.605
	c29.798-4.545,36.367-76.772,74.241-90.91c1.115-0.416,2.211-0.767,3.294-1.055c5.792,21.379,8.899,43.859,8.899,67.069
	c0,43.717-10.968,84.871-30.287,120.868c-75.648,12.421-334.094,37.883-432.67,29.812C20.895,368.081,3.275,321.317,0.425,270.597z"
	/>
<g>
	<path style="fill:#B1E3FB;" d="M384.111,303.186c-19.542-4.632-39.121-9.954-58.755-13.339c-7.049-1.38-14.147-2.458-21.319-3.006
		c-4.463-0.338-8.926-0.466-13.38-0.42c-4.458-0.046-8.917,0.082-13.38,0.42c-7.172,0.548-14.271,1.626-21.324,3.006
		c-19.629,3.385-39.208,8.707-58.751,13.339c-4.12,0.694-8.259,1.27-12.425,1.677c-61.336,5.939-122.467-25.116-183.145-19.999
		c7.624,67.942,41.83,127.834,91.979,169.043c16.217,4.833,33.096,8.131,50.473,9.726l0.987,0.091
		c1.558,0.128,3.125,0.26,4.691,0.37l2.074,0.132c1.338,0.091,2.668,0.16,4.011,0.233c0.859,0.041,1.731,0.05,2.599,0.1
		c1.201,0.032,2.389,0.087,3.591,0.123c1.384,0.023,2.768,0.032,4.157,0.041c0.676,0.018,1.366,0.027,2.037,0.027l0.301-0.005
		c1.96,0,3.924-0.032,5.861-0.064l0.936-0.023c1.85-0.059,3.682-0.128,5.514-0.215l1.562-0.069c1.626-0.096,3.266-0.201,4.888-0.32
		l2.298-0.178c1.069-0.091,2.12-0.183,3.175-0.283c35.115-3.275,68.207-13.513,97.89-29.305
		c29.684,15.792,62.775,26.029,97.89,29.305c1.055,0.1,2.106,0.192,3.175,0.283l2.298,0.178c1.622,0.119,3.262,0.224,4.888,0.32
		l1.562,0.069c1.311,0.064,2.627,0.114,3.947,0.164c56.179-40.044,95.483-102.221,105.218-173.794
		c-37.582,7.318-75.301,17.706-113.098,14.047C392.37,304.456,388.231,303.881,384.111,303.186z"/>
	<path style="fill:#7FD3F9;" d="M490.041,359.859c-42.118-8.314-84.355-24.001-126.925-20.762
		c-31.356,2.389-61.195,14.983-92.5,18.021c-66.073,6.4-131.909-30.145-197.197-18.149c-17.761,3.266-35.869,10.077-53.84,15.363
		C58.129,446.909,149.455,512,255.998,512C360.407,512,450.207,449.49,490.041,359.859z"/>
	<path style="fill:#429F46;" d="M97.877,437.722c0,0,73.031,0.795,174.292-31.333c46.371-14.714,93.697-28.523,142.302-26.194
		c20.406,0.973,40.707,3.897,60.825,7.949C430.473,462.367,349.037,512,255.998,512c-59.678,0-114.587-20.424-158.121-54.662
		V437.722z"/>
	<path style="fill:#66B96A;" d="M433.584,440.372c-32.571-1.846-116.213-8.826-195.502-33.982
		c-46.371-14.714-93.697-28.523-142.302-26.194c-19.876,0.95-39.651,3.746-59.258,7.638C81.303,462.23,162.835,512,255.998,512
		C324.967,512,387.555,484.719,433.584,440.372z"/>
	<path style="fill:#388D3C;" d="M417.691,454.469c-51.003-6.491-102.162-14.828-151.922-21.128
		c-35.96-4.55-72.528-7.693-108.36-2.193c-23.412,3.595-46.024,10.799-68.316,18.953C133.91,488.675,192.231,512,255.998,512
		C317.325,512,373.609,490.425,417.691,454.469z"/>
	<path d="M126.126,108.607c0,0,5.792-1.243,10.639-0.315c4.856,0.927,9.917,4.956,15.395,5.272c5.473,0.306,4.335-1.759,4.335-1.759
		s-3.513,0.516-4.445-2.476c-0.923-2.997,2.896-5.377,8.78-9.502c5.893-4.134,7.03-8.268,5.893-10.854c0,0-1.037,1.654-5.893,4.239
		c-4.851,2.586-8.36,7.336-12.183,10.74c-3.824,3.412-4.029,3.613-7.647,2.892C137.391,106.122,129.639,104.989,126.126,108.607z"/>
	<path d="M167.289,124.518c0,0,5.788-1.243,10.639-0.315c4.856,0.927,9.917,4.956,15.395,5.272c5.473,0.306,4.335-1.759,4.335-1.759
		s-3.513,0.516-4.445-2.476c-0.923-2.997,2.896-5.377,8.78-9.502c5.893-4.134,7.03-8.268,5.893-10.854c0,0-1.037,1.654-5.893,4.239
		c-4.851,2.586-8.364,7.336-12.183,10.74c-3.824,3.412-4.034,3.613-7.647,2.892S170.802,120.9,167.289,124.518z"/>
	<path d="M172.954,91.276c0,0,5.792-1.243,10.639-0.311c4.86,0.927,9.917,4.956,15.395,5.267c5.477,0.311,4.335-1.759,4.335-1.759
		s-3.508,0.521-4.44-2.476c-0.927-2.997,2.892-5.377,8.78-9.502c5.888-4.13,7.026-8.264,5.888-10.849c0,0-1.032,1.654-5.888,4.239
		c-4.856,2.581-8.364,7.336-12.183,10.735c-3.824,3.412-4.034,3.618-7.647,2.896S176.471,87.658,172.954,91.276z"/>
	<path d="M132.718,70.623c0,0,5.792-1.243,10.639-0.311c4.856,0.927,9.917,4.956,15.395,5.267c5.473,0.311,4.335-1.759,4.335-1.759
		s-3.508,0.521-4.445-2.476c-0.923-2.997,2.896-5.377,8.78-9.502c5.893-4.13,7.03-8.264,5.893-10.849c0,0-1.037,1.654-5.893,4.239
		c-4.851,2.581-8.36,7.336-12.183,10.735c-3.824,3.412-4.029,3.618-7.642,2.896C143.983,68.143,136.231,67.01,132.718,70.623z"/>
	<path d="M112.271,145.874c0,0,5.792-1.238,10.639-0.311c4.856,0.927,9.917,4.956,15.395,5.272c5.473,0.306,4.335-1.763,4.335-1.763
		s-3.513,0.521-4.445-2.476c-0.923-2.992,2.896-5.372,8.78-9.502c5.893-4.13,7.03-8.264,5.893-10.849c0,0-1.037,1.654-5.893,4.239
		c-4.851,2.581-8.364,7.336-12.183,10.74c-3.824,3.412-4.034,3.613-7.647,2.892C123.531,143.393,115.784,142.261,112.271,145.874z"
		/>
	<path d="M88.864,110.22c0,0,5.788-1.243,10.635-0.315c4.86,0.927,9.922,4.961,15.399,5.272c5.473,0.306,4.335-1.759,4.335-1.759
		s-3.513,0.516-4.445-2.476c-0.927-2.997,2.896-5.377,8.78-9.502c5.893-4.134,7.026-8.268,5.893-10.854c0,0-1.037,1.654-5.893,4.239
		c-4.856,2.586-8.364,7.336-12.183,10.74c-3.824,3.412-4.034,3.613-7.647,2.892S92.377,106.602,88.864,110.22z"/>
	<path d="M351.083,156.81c0,0,5.792-1.238,10.639-0.311c4.856,0.927,9.917,4.956,15.395,5.267c5.473,0.311,4.335-1.759,4.335-1.759
		s-3.513,0.521-4.445-2.476c-0.923-2.997,2.896-5.377,8.78-9.502c5.893-4.13,7.03-8.264,5.893-10.849c0,0-1.037,1.654-5.893,4.239
		c-4.851,2.581-8.36,7.336-12.183,10.735c-3.824,3.417-4.029,3.618-7.647,2.896C362.348,154.33,354.596,153.197,351.083,156.81z"/>
	<path d="M392.247,172.721c0,0,5.792-1.243,10.639-0.311c4.856,0.927,9.917,4.956,15.395,5.267c5.473,0.311,4.335-1.759,4.335-1.759
		s-3.513,0.521-4.445-2.476c-0.923-2.997,2.896-5.377,8.78-9.502c5.893-4.13,7.03-8.264,5.893-10.849c0,0-1.037,1.654-5.893,4.239
		c-4.851,2.581-8.364,7.336-12.183,10.735c-3.824,3.412-4.034,3.618-7.647,2.896C403.507,170.24,395.759,169.107,392.247,172.721z"
		/>
	<path d="M397.911,139.483c0,0,5.792-1.243,10.639-0.315c4.86,0.932,9.917,4.961,15.395,5.272c5.477,0.306,4.335-1.759,4.335-1.759
		s-3.508,0.521-4.44-2.476c-0.927-2.997,2.896-5.377,8.78-9.502c5.888-4.134,7.026-8.264,5.888-10.849c0,0-1.032,1.654-5.888,4.235
		c-4.856,2.586-8.364,7.336-12.183,10.74c-3.824,3.412-4.034,3.618-7.647,2.896C409.176,136.998,401.429,135.865,397.911,139.483z"
		/>
	<path d="M357.675,118.831c0,0,5.792-1.243,10.639-0.315c4.856,0.932,9.917,4.961,15.395,5.272c5.473,0.306,4.335-1.759,4.335-1.759
		s-3.508,0.521-4.445-2.476c-0.923-2.997,2.896-5.377,8.78-9.502c5.893-4.134,7.03-8.264,5.893-10.849c0,0-1.032,1.654-5.893,4.235
		c-4.851,2.586-8.36,7.336-12.183,10.74c-3.824,3.412-4.029,3.618-7.642,2.896C368.94,116.346,361.188,115.213,357.675,118.831z"/>
	<path d="M337.228,194.081c0,0,5.792-1.243,10.639-0.315c4.856,0.932,9.917,4.961,15.395,5.272c5.473,0.306,4.335-1.759,4.335-1.759
		s-3.513,0.521-4.445-2.476c-0.923-2.997,2.896-5.377,8.78-9.502c5.893-4.13,7.03-8.264,5.893-10.849c0,0-1.037,1.654-5.893,4.239
		c-4.851,2.581-8.364,7.336-12.183,10.735c-3.824,3.412-4.034,3.618-7.647,2.896C348.489,191.601,340.741,190.463,337.228,194.081z"
		/>
	<path d="M313.821,158.423c0,0,5.788-1.238,10.635-0.311c4.86,0.927,9.922,4.956,15.399,5.267c5.473,0.311,4.335-1.759,4.335-1.759
		s-3.513,0.521-4.445-2.476c-0.927-2.997,2.896-5.377,8.78-9.502c5.893-4.13,7.026-8.264,5.893-10.849c0,0-1.037,1.654-5.893,4.239
		c-4.856,2.581-8.364,7.336-12.183,10.735c-3.824,3.417-4.034,3.618-7.647,2.896C325.081,155.942,317.334,154.809,313.821,158.423z"
		/>
</g>
<path style="fill:#DFF3FD;" d="M98.365,307.732c33.261,0,60.226,1.128,60.226,2.522c0,1.398-26.966,2.526-60.226,2.526
	c-33.265,0-60.231-1.128-60.231-2.526C38.135,308.86,65.1,307.732,98.365,307.732z M388.898,350.16
	c23.293,0,42.173,1.466,42.173,3.28s-18.88,3.284-42.173,3.284c-23.288,0-42.173-1.471-42.173-3.284S365.61,350.16,388.898,350.16z
	 M268.948,378.949c22.873,0,41.415,1.243,41.415,2.773c0,1.535-18.542,2.777-41.415,2.777c-22.873,0-41.415-1.243-41.415-2.777
	C227.534,380.191,246.076,378.949,268.948,378.949z M131.589,357.227c31.529,0,57.088,1.042,57.088,2.316
	c0,1.279-25.559,2.316-57.088,2.316s-57.088-1.037-57.088-2.316C74.502,358.269,100.06,357.227,131.589,357.227z M178.796,331.472
	c33.05,0,59.847,1.581,59.847,3.536c0,1.951-26.797,3.531-59.847,3.531c-33.055,0-59.852-1.581-59.852-3.531
	C118.945,333.053,145.741,331.472,178.796,331.472z M432.081,316.822c26.778,0,48.486,1.699,48.486,3.787
	c0,2.092-21.708,3.792-48.486,3.792c-26.774,0-48.486-1.699-48.486-3.792C383.595,318.522,405.307,316.822,432.081,316.822z
	 M257.839,317.832c30.963,0,56.06,1.019,56.06,2.275c0,1.252-25.097,2.27-56.06,2.27s-56.065-1.019-56.065-2.27
	C201.774,318.851,226.876,317.832,257.839,317.832z"/>
<path style="fill:#F3FBF9;" d="M380.607,32.342c-6.062,11.105-25.134,19.214-47.737,19.214c-9.25,0-17.912-1.357-25.33-3.723
	c-8.424,8.337-24.851,13.997-43.731,13.997c-21.059,0-39.067-7.044-46.321-16.989c-7.067,2.069-15.175,3.253-23.791,3.253
	c-24.851,0-45.444-9.803-49.153-22.617C178.239,9.155,216.049,0,255.998,0C301.236,0,343.724,11.754,380.607,32.342z"/>
<g>
</g>
<g>
</g>
<g>
</g>
<g>
</g>
<g>
</g>
<g>
</g>
<g>
</g>
<g>
</g>
<g>
</g>
<g>
</g>
<g>
</g>
<g>
</g>
<g>
</g>
<g>
</g>
<g>
</g>
</svg>
