<?xml version="1.0" encoding="iso-8859-1"?>
<!-- Generator: Adobe Illustrator 19.0.0, SVG Export Plug-In . SVG Version: 6.00 Build 0)  -->
<svg version="1.1" id="Layer_1" xmlns="http://www.w3.org/2000/svg" xmlns:xlink="http://www.w3.org/1999/xlink" x="0px" y="0px"
	 viewBox="0 0 512 512" style="enable-background:new 0 0 512 512;" xml:space="preserve">
<circle style="fill:#FFE356;" cx="255.9" cy="256" r="255.9"/>
<path style="fill:#FEFEFE;" d="M96.6,223.1C47,223.1,6.7,263.4,6.7,313s40.3,89.9,89.9,89.9s89.9-40.3,89.9-89.9
	C186.6,263.4,146.3,223.1,96.6,223.1z M96.6,391.4c-43.2,0-78.3-35-78.3-78.3c0-43.2,35-78.3,78.3-78.3c43.2,0,78.3,35,78.3,78.3
	C175,356.2,139.9,391.4,96.6,391.4z"/>
<path style="fill:#596366;" d="M96.6,216.4C43.3,216.4,0,259.7,0,313s43.3,96.6,96.6,96.6s96.6-43.3,96.6-96.6
	C193.3,259.7,150,216.4,96.6,216.4z M96.6,403C47,403,6.7,362.7,6.7,313.1c0-49.7,40.3-90,89.9-90s89.9,40.3,89.9,89.9
	C186.6,362.7,146.3,403,96.6,403z"/>
<path style="fill:#FEFEFE;" d="M415.4,223.1c-49.6,0-89.9,40.3-89.9,89.9s40.3,89.9,89.9,89.9s89.9-40.3,89.9-89.9
	S465,223.1,415.4,223.1z M415.4,391.4c-43.2,0-78.3-35-78.3-78.3c0-43.2,35-78.3,78.3-78.3c43.2,0,78.3,35,78.3,78.3
	C493.7,356.2,458.7,391.4,415.4,391.4z"/>
<path style="fill:#596366;" d="M415.4,216.4c-53.3,0-96.6,43.3-96.6,96.6s43.3,96.6,96.6,96.6S512,366.3,512,313
	S468.7,216.4,415.4,216.4z M415.4,403c-49.6,0-89.9-40.3-89.9-89.9s40.3-89.9,89.9-89.9s89.9,40.3,89.9,89.9S465,403,415.4,403z"/>
<polygon style="fill:#666666;" points="252.4,341.9 415.4,327.7 415.2,324.2 252.2,338.6 "/>
<g>
	<path style="fill:#6B7F9E;" d="M415.4,295.5c9.6,0,17.4,7.8,17.4,17.4s-7.8,17.4-17.4,17.4s-17.4-7.8-17.4-17.4
		S405.8,295.5,415.4,295.5z"/>
	<path style="fill:#6B7F9E;" d="M96.6,295.5c9.6,0,17.4,7.8,17.4,17.4s-7.8,17.4-17.4,17.4s-17.4-7.8-17.4-17.4S87,295.5,96.6,295.5
		z"/>
</g>
<path style="fill:#FEFEFE;" d="M91.6,310.1c-1.4,7.2,8.6,10,11.7,4.1l67-187.7l-11.7-4.1L91.6,310.1z"/>
<g>
	<path style="fill:#5FDC68;" d="M480.5,77.9c-122.7-63.5-138,69.1-63.2,57.3C451.6,129.6,460.7,82.6,480.5,77.9z"/>
	<path style="fill:#5FDC68;" d="M306.2,82.1c89.5,7.4,53.7,78.2,19.6,48.7C309.1,116.3,316.4,90.4,306.2,82.1z"/>
</g>
<g>
	<path style="fill:#FEFEFE;" d="M353.1,175.1l-4.7-2.8c13.7-53.1-16.7-69.6-16.9-69.6C354.9,117.1,364.4,142.8,353.1,175.1z"/>
	<path style="fill:#FEFEFE;" d="M464.6,77.5c-71.4-4.6-90.2,46.1-109.9,96.8l-7.6-1.4c17.5-47.7,40.7-106.1,117.6-95.4v0H464.6z"/>
	<polygon style="fill:#FEFEFE;" points="240,322.8 251.2,328.3 360.2,164.3 349,158.7 	"/>
	<polygon style="fill:#FEFEFE;" points="122.2,127.1 163.1,127.1 163.1,138.5 122.2,138.5 	"/>
</g>
<polygon style="fill:#596366;" points="252.2,284.1 415.4,298 415.2,301.3 252.1,287.5 "/>
<g>
	<polygon style="fill:#FEFEFE;" points="254,322.8 242.9,328.3 142.4,179.1 153.5,173.6 	"/>
	<polygon style="fill:#FEFEFE;" points="325.2,195.7 333.7,184.7 145.7,159.9 145.7,172.3 	"/>
</g>
<path style="fill:#6B7F9E;" d="M229.2,268.9h19.5c2.1,0,3.9-1.7,3.9-3.8l0,0c0-2.1-1.7-3.8-3.9-3.8h-19.5c-2.1,0-3.9,1.7-3.9,3.8
	l0,0C225.3,267.2,227,268.9,229.2,268.9z"/>
<path style="fill:#FEFEFE;" d="M250.1,318L250.1,318c1.7-0.1,2.8-1.8,2.4-3.7l-10.7-48.6c-0.3-3.7-6.8-3.2-6.3,0.5l10.7,48.6
	C246.6,316.7,248.4,318.2,250.1,318z"/>
<g>
	<path style="fill:#6B7F9E;" d="M249,284.1c15.9,0,29,12.9,29,29c0,15.9-12.9,29-29,29c-15.9,0-29-12.9-29-29
		C220,297.1,232.9,284.1,249,284.1z"/>
	<path style="fill:#6B7F9E;" d="M309.5,163c-5.7,0.1-5.1-12.2,6.2-11.8c10.9,0.4,81.2-1.3,71.5,8.7c-9.3,9.7-13.4,16.2-29.4,14
		c-15.8-2.2-28.2-12.4-48.4-10.8h0.1V163z"/>
	<path style="fill:#6B7F9E;" d="M162.7,177.6c3,0,5.4,2.4,5.4,5.4s-2.4,5.4-5.4,5.4h-37.9c-14.5,0-23.8-8-28-18.3
		c-1.6-3.9-2.4-8.2-2.4-12.2c0-4.2,0.8-8.4,2.4-12.2c4.1-10.3,13.4-18.3,28-18.3c3,0,5.4,2.4,5.4,5.4s-2.4,5.4-5.4,5.4
		c-9.3,0-15.4,5-17.9,11.5c-1.1,2.6-1.6,5.4-1.6,8.3s0.5,5.7,1.6,8.3c2.6,6.5,8.6,11.5,17.9,11.5h37.9V177.6z"/>
</g>
<path style="fill:#83CF8F;" d="M249,291.8c11.7,0,21.2,9.5,21.2,21.2s-9.5,21.2-21.2,21.2s-21.2-9.5-21.2-21.2
	S237.2,291.8,249,291.8z"/>
<g>
	<path style="fill:#FEFEFE;stroke:#FEFEFE;stroke-width:17.344;" d="M419.7,308.8c4.1,6.8-5.3,14.5-11.2,5.5l-78.2-116.5l11.2-5.5
		L419.7,308.8z"/>
	<path style="fill:#FEFEFE;" d="M247.9,307.9L247.9,307.9c-1.7,0.1-2.8,1.8-2.4,3.7l10.7,48.6c0.3,3.7,6.8,3.2,6.3-0.5l-10.6-48.6
		C251.5,309.2,249.6,307.8,247.9,307.9z"/>
</g>
<path style="fill:#6B7F9E;" d="M268.7,357h-19.5c-2.1,0-3.9,1.7-3.9,3.8l0,0c0,2.1,1.7,3.8,3.9,3.8h19.5c2.1,0,3.9-1.7,3.9-3.8l0,0
	C272.7,358.7,270.9,357,268.7,357z"/>
<g>
</g>
<g>
</g>
<g>
</g>
<g>
</g>
<g>
</g>
<g>
</g>
<g>
</g>
<g>
</g>
<g>
</g>
<g>
</g>
<g>
</g>
<g>
</g>
<g>
</g>
<g>
</g>
<g>
</g>
</svg>
