<?xml version="1.0" encoding="iso-8859-1"?>
<!-- Generator: Adobe Illustrator 19.0.0, SVG Export Plug-In . SVG Version: 6.00 Build 0)  -->
<svg version="1.1" id="Layer_1" xmlns="http://www.w3.org/2000/svg" xmlns:xlink="http://www.w3.org/1999/xlink" x="0px" y="0px"
	 viewBox="0 0 512 512" style="enable-background:new 0 0 512 512;" xml:space="preserve">
<path style="fill:#FFCA4F;" d="M255.999,0C397.385,0,512,114.615,512,255.999C512,397.385,397.385,512,255.999,512
	C114.615,512,0,397.385,0,255.999C0,114.615,114.615,0,255.999,0z"/>
<path style="fill:#ECF0F1;" d="M171.165,10.738c92.3,0,167.128,74.824,167.128,167.128s-74.826,167.128-167.128,167.128
	c-92.304,0-167.128-74.824-167.128-167.128S78.861,10.738,171.165,10.738z"/>
<path style="fill:#FF5B61;" d="M19.784,106.955c16.609-3.248,34.581-4.992,53.415-5.19c7.384-22.653,6.432-42.439-1.689-58.078
	c-22.057,16.411-39.93,38.131-51.726,63.27V106.955z M297.126,68.02L297.126,68.02c25.64,29.373,41.171,67.795,41.171,109.846
	c0,8.356-0.615,16.569-1.799,24.595c-25.561-27.673-64.124-53.26-112.525-72.191c-16.841-6.586-33.955-12.005-51.049-16.285
	c23.491-34.224,71.565-50.925,124.202-45.967V68.02z M334.104,215.229L334.104,215.229c-23.455-30.061-63.222-58.34-114.893-78.55
	c-16.594-6.489-33.534-11.781-50.485-15.91c-1.257,2.26-2.421,4.586-3.475,6.978c-25.784,58.583,20.708,134.179,101.392,168.521
	c5.325,2.267,10.669,4.288,16.02,6.088c25.276-22.653,43.619-52.888,51.437-87.129L334.104,215.229z M160.43,118.835L160.43,118.835
	c-15.172-3.362-30.31-5.786-45.162-7.296c-1.382,3.186-2.716,6.425-4.013,9.712c-30.517,77.54-28.39,161.827,1.091,213.097
	c18.296,6.881,38.118,10.647,58.823,10.647c39.76,0,76.272-13.893,104.964-37.079c-4.163-1.497-8.319-3.124-12.46-4.89
	c-85.831-36.53-133.173-116.661-105.747-178.979c0.781-1.773,1.621-3.508,2.503-5.214V118.835z M191.092,11.913L191.092,11.913
	c-27.803,19.619-53.554,51.417-72.496,92.218c15.061,1.693,30.396,4.288,45.788,7.81c23.14-36.552,71.124-55.388,125.017-52.202
	C263.568,33.884,229.307,16.453,191.092,11.913z M171.169,10.733L171.169,10.733c1.429,0,2.853,0.015,4.273,0.053
	c-25.737,21.764-49.14,53.322-66.571,92.372c-9.144-0.798-18.168-1.257-27.02-1.385c7.481-24.474,6.273-46.245-2.591-63.509
	c26.368-17.398,57.952-27.532,91.907-27.532H171.169z M98.824,328.567L98.824,328.567c-48.139-23.155-83.471-68.701-92.509-123.13
	c25.014-21.01,46.223-45.047,60.808-70.425c4.987-8.674,8.987-17.141,12.047-25.34c8.658,0.004,17.496,0.342,26.456,1.016
	c-0.831,1.989-1.647,3.995-2.447,6.024C73.197,192.889,73.565,274.107,98.824,328.567z M4.959,195.454L4.959,195.454
	c22.831-19.938,42.137-42.293,55.37-65.319c4.011-6.978,7.322-13.767,9.957-20.344c-19.46,0.525-37.888,2.785-54.634,6.742
	c-7.497,18.988-11.615,39.676-11.615,61.332C4.037,183.805,4.348,189.673,4.959,195.454z"/>
<path style="fill:#EC4B53;" d="M297.124,68.02c25.64,29.373,41.171,67.795,41.171,109.846c0,8.356-0.615,16.569-1.799,24.595
	c-7.867-8.517-16.966-16.836-27.201-24.822c0.891-6.85,1.356-13.835,1.356-20.931c0-33.135-10.032-63.921-27.223-89.495
	c4.522,0.104,9.093,0.368,13.699,0.805L297.124,68.02z M334.101,215.229L334.101,215.229c-7.296-9.351-16.168-18.525-26.485-27.338
	c-7.867,39.985-30.564,74.641-62.131,98.012c6.751,3.766,13.811,7.239,21.156,10.367c5.325,2.267,10.669,4.288,16.02,6.088
	c25.276-22.653,43.619-52.888,51.437-87.129H334.101z M238.768,290.613L238.768,290.613c7.88,4.544,16.19,8.709,24.902,12.416
	c4.143,1.766,8.297,3.393,12.46,4.89c-28.692,23.188-65.204,37.079-104.964,37.079c-20.706,0-40.527-3.766-58.823-10.647
	c-4.326-7.521-8.057-15.756-11.187-24.571c15.405,4.912,31.82,7.571,48.855,7.571c32.815,0,63.33-9.847,88.756-26.738H238.768z
	 M247.931,29.371L247.931,29.371c15.37,7.962,29.347,18.236,41.467,30.367c-3.894-0.229-7.757-0.342-11.582-0.342
	C269.217,48.123,259.165,38.02,247.931,29.371z M98.819,328.569L98.819,328.569c-32.674-15.718-59.441-41.751-76.101-73.871
	c17.387,22.553,40.633,40.36,67.462,51.133C92.626,313.821,95.505,321.428,98.819,328.569z"/>
<path style="fill:#20D0C2;" d="M41.625,314.604h428.751c9.287,0,16.88,7.598,16.88,16.88v0.002c0,9.287-7.596,16.88-16.88,16.88
	H41.625c-9.287,0-16.88-7.594-16.88-16.88v-0.002C24.745,322.2,32.341,314.604,41.625,314.604z"/>
<path style="fill:#FFFFFF;" d="M54.621,333.762l23.27,49.212l11.333-19.081l-18.807-31.668l4.05-2.394l17.493,29.455l17.493-29.455
	l4.055,2.394l-18.81,31.668l25.563,43.039l25.563-43.039l-18.81-31.668l4.055-2.394l17.493,29.455l17.493-29.455l4.05,2.394
	l-18.807,31.668l25.563,43.041l25.563-43.041l-18.81-31.668l4.055-2.394l17.493,29.455l17.493-29.455l4.05,2.394L207.9,363.893
	l25.563,43.041l25.563-43.041l-18.81-31.668l4.055-2.394l17.493,29.455l17.493-29.455l4.05,2.394l-18.807,31.668l25.563,43.041
	l25.563-43.041l-18.81-31.668l4.053-2.394l17.496,29.455l17.493-29.455l4.05,2.394l-18.81,31.668l25.565,43.041l25.561-43.041
	l-18.807-31.668l4.05-2.394l17.496,29.455l17.493-29.455l4.05,2.394l-18.81,31.668l25.563,43.039l25.563-43.039l-18.807-31.668
	l4.05-2.394l17.493,29.455l17.493-29.455l4.055,2.394l-18.81,31.668l9.333,15.712l21.678-45.843l4.255,2.009l-23.896,50.542
	l-21.72,58.587l-1.96,5.977c-2.231,1.903-4.491,3.768-6.787,5.594l4.271-13.026l-16.212-27.294l-25.563,43.039l9.794,16.488
	c-1.345,0.807-2.692,1.612-4.05,2.394l-8.48-14.272l-15.751,26.522c-2.419,1.067-4.857,2.095-7.311,3.091l20.324-34.224
	l-25.561-43.039l-25.563,43.039l22.273,37.502c-1.501,0.547-3.012,1.078-4.529,1.596L318.361,463.8l-25.563,43.039l1.38,2.324
	c-2.959,0.441-5.935,0.822-8.927,1.164l2.073-3.488L261.76,463.8l-25.563,43.039l2.719,4.582c-3.481-0.229-6.947-0.523-10.389-0.891
	l2.194-3.691L205.157,463.8l-22.318,37.575c-1.548-0.463-3.093-0.935-4.63-1.424l24.212-40.761l-25.563-43.039l-25.563,43.039
	l23.565,39.674c-2.315-0.774-4.619-1.568-6.903-2.405l-19.398-32.66l-11.306,19.034c-1.391-0.732-2.78-1.466-4.156-2.22
	l12.724-21.425l-25.563-43.039l-18.525,31.19l5.607,17.094c-2.209-1.581-4.385-3.199-6.544-4.846L95.977,444.9l-21.718-58.587
	l-23.898-50.542l4.255-2.009H54.621z M441.224,384.762L441.224,384.762l-9.659-16.261l-25.563,43.039l15.575,26.22L441.224,384.762z
	 M80.091,388.484L80.091,388.484l19.647,53l17.784-29.946L91.96,368.499l-11.871,19.983L80.091,388.484z M400.527,411.54
	L400.527,411.54l-25.561-43.039l-25.565,43.039l25.563,43.041L400.527,411.54z M343.926,411.542L343.926,411.542l-25.561-43.039
	l-25.563,43.039l25.563,43.041L343.926,411.542z M315.627,459.189L315.627,459.189l-25.563-43.039l-25.563,43.039l25.563,43.041
	L315.627,459.189z M287.325,411.54L287.325,411.54l-25.563-43.039l-25.563,43.039l25.563,43.041L287.325,411.54z M259.026,459.189
	L259.026,459.189l-25.563-43.039L207.9,459.189l25.563,43.041L259.026,459.189z M230.725,411.54L230.725,411.54l-25.563-43.039
	l-25.563,43.039l25.563,43.041L230.725,411.54z M174.124,411.542L174.124,411.542l-25.563-43.039l-25.563,43.039l25.563,43.041
	L174.124,411.542z"/>
<path style="fill:#15BDB1;" d="M487.257,331.484c0,9.287-7.594,16.88-16.88,16.88H41.625c-9.287,0-16.88-7.594-16.88-16.88
	l9.353-2.661l445.081-0.849l8.081,3.51H487.257z"/>
<path style="fill:#FFFFFF;" d="M353.601,97.507h48.923v-2.359h-48.923V97.507z M369.042,233.245L369.042,233.245h44.262v-2.357
	h-44.262V233.245z M356.948,243.015L356.948,243.015h64.13v-2.357h-64.13V243.015z M364.925,201.491L364.925,201.491h53.578v-2.359
	h-53.578V201.491z M352.829,211.258L352.829,211.258h64.13v-2.357h-64.13V211.258z M357.72,129.257L357.72,129.257h44.262V126.9
	H357.72V129.257z M345.624,139.027L345.624,139.027h68.787v-2.359h-68.787V139.027z M341.508,107.273L341.508,107.273h50.156v-2.357
	h-50.156V107.273z"/>
<g>
</g>
<g>
</g>
<g>
</g>
<g>
</g>
<g>
</g>
<g>
</g>
<g>
</g>
<g>
</g>
<g>
</g>
<g>
</g>
<g>
</g>
<g>
</g>
<g>
</g>
<g>
</g>
<g>
</g>
</svg>
