<svg id="Layer_1" data-name="Layer 1" xmlns="http://www.w3.org/2000/svg" xmlns:xlink="http://www.w3.org/1999/xlink" viewBox="0 0 300 300"><defs><style>.cls-1,.cls-7{fill:none;}.cls-2{clip-path:url(#clip-path);}.cls-3{fill:#006667;}.cls-4{fill:#00abad;}.cls-5{fill:#4cc3c6;}.cls-6{fill:#6f476b;}.cls-7{stroke:#006667;stroke-linecap:round;stroke-miterlimit:10;stroke-width:3.28px;}</style><clipPath id="clip-path"><circle class="cls-1" cx="150.21" cy="150" r="150" transform="translate(-62.07 150.15) rotate(-45)"/></clipPath></defs><title>01</title><g id="_01" data-name="01"><g class="cls-2"><path class="cls-3" d="M211.36,166.94c15.38,15.38,38.94,14,54.32-1.38s16.76-38.94,1.38-54.32a39.39,39.39,0,0,0-55.7,55.7Z"/><path class="cls-4" d="M211.36,166.94a39.39,39.39,0,0,0,55.7-55.7c-.74-.74,18.68,26.65-4.73,50.05S209.24,164.82,211.36,166.94Z"/><circle class="cls-5" cx="150.21" cy="150" r="150" transform="translate(-62.07 150.15) rotate(-45)"/><polygon class="cls-6" points="150.65 -133.69 -161.02 177.98 -130.76 208.24 150.65 -73.17 432.06 208.24 462.32 177.98 150.65 -133.69"/><polygon class="cls-4" points="150.65 279.88 45.77 384.77 76.03 415.03 150.65 340.41 225.27 415.03 255.53 384.77 150.65 279.88"/><polygon class="cls-4" points="150.65 142.03 -23.16 315.84 7.1 346.1 150.65 202.55 294.2 346.1 324.46 315.84 150.65 142.03"/><polygon class="cls-4" points="150.65 4.17 -92.09 246.91 -61.83 277.17 150.65 64.69 363.13 277.17 393.39 246.91 150.65 4.17"/><circle class="cls-3" cx="221.83" cy="113.77" r="50.84"/><circle class="cls-3" cx="191.76" cy="71.67" r="25.15"/><circle class="cls-3" cx="244.25" cy="100.65" r="35.53"/><circle class="cls-3" cx="239.32" cy="142.19" r="34.44"/><circle class="cls-3" cx="234.4" cy="78.23" r="25.15"/><circle class="cls-3" cx="78.6" cy="113.77" r="50.84"/><circle class="cls-3" cx="108.67" cy="71.67" r="25.15"/><circle class="cls-3" cx="56.17" cy="100.65" r="35.53"/><circle class="cls-3" cx="61.11" cy="142.19" r="34.44"/><circle class="cls-3" cx="66.03" cy="78.23" r="25.15"/><path class="cls-5" d="M150.21,75q-4.14,0-8.17.4a20.21,20.21,0,0,1-27.93,29.22c0,.15,0,.3,0,.45a20.21,20.21,0,0,1-28.44,18.47,20.2,20.2,0,0,1-16.62,31.26c-.25,3-.39,6.14-.39,9.31,0,53.44,45.12,104.41,81.53,104.41s81.53-51,81.53-104.41S195.24,75,150.21,75Z"/><path class="cls-4" d="M211.44,134.54a20.12,20.12,0,0,1,3.3-11A20.21,20.21,0,0,1,186.29,105c0-.15,0-.3,0-.45a20.21,20.21,0,0,1-27.93-29.22q-4-.4-8.17-.4c-.21,0-.21,193,0,193.52,36.41,0,81.53-51,81.53-104.41,0-3.17-.14-6.27-.39-9.31A20.22,20.22,0,0,1,211.44,134.54Z"/><path class="cls-3" d="M127.8,69.49a20.23,20.23,0,0,0-20.23,20.23c0,.15,0,.3,0,.45A20.21,20.21,0,0,0,77,116.07a20.25,20.25,0,1,0,8.72,7.42A20.21,20.21,0,0,0,114.13,105c0-.15,0-.3,0-.45A20.22,20.22,0,1,0,127.8,69.49Z"/><path class="cls-3" d="M231.67,114.31a20.13,20.13,0,0,0-8.22,1.75,20.21,20.21,0,0,0-30.62-25.91c0-.15,0-.3,0-.45a20.28,20.28,0,1,0-6.54,14.86c0,.15,0,.3,0,.45a20.21,20.21,0,0,0,28.44,18.47,20.22,20.22,0,1,0,16.93-9.18Z"/><circle class="cls-3" cx="196.21" cy="82.06" r="20.23"/><circle class="cls-3" cx="105.47" cy="85.34" r="20.23"/><circle class="cls-3" cx="62.83" cy="110.49" r="20.23"/><circle class="cls-3" cx="238.85" cy="107.21" r="20.23"/><circle class="cls-3" cx="150.21" cy="85.34" r="20.23"/><path class="cls-4" d="M171.53,226.38s-9.55,9.29-21.32,9.29-21.32-9.29-21.32-9.29,9.55-9.29,21.32-9.29S171.53,226.38,171.53,226.38Z"/><path class="cls-3" d="M171.53,226.38s-9.55,9.29-21.32,9.29c-.21.33-.21-18.67,0-18.59C162,217.09,171.53,226.38,171.53,226.38Z"/><circle class="cls-3" cx="187.87" cy="157.76" r="9.84" transform="translate(4.66 320.92) rotate(-81.71)"/><path class="cls-7" d="M168.93,159.8A30.07,30.07,0,0,1,211,153.58"/><circle class="cls-3" cx="112.56" cy="158.07" r="9.84" transform="translate(-21.62 17.89) rotate(-8.29)"/><path class="cls-7" d="M131.5,160.1a30.07,30.07,0,0,0-42.06-6.22"/><path class="cls-4" d="M159.51,200.14c0-2.11-4.16-6-9.29-6s-9.29,3.9-9.29,6,4.16,1.64,9.29,1.64S159.51,202.25,159.51,200.14Z"/></g></g></svg>