<svg xmlns="http://www.w3.org/2000/svg" xmlns:xlink="http://www.w3.org/1999/xlink" viewBox="0 0 300 300"><defs><style>.cls-1,.cls-8{fill:none;}.cls-2{clip-path:url(#clip-path);}.cls-3{fill:#903b54;}.cls-4{clip-path:url(#clip-path-2);}.cls-5{fill:#28a880;}.cls-6{fill:#5bc094;}.cls-7{fill:#006540;}.cls-8{stroke:#006540;stroke-linecap:round;stroke-miterlimit:10;stroke-width:3.28px;}</style><clipPath id="clip-path"><circle class="cls-1" cx="150.21" cy="-220" r="150" transform="translate(199.56 41.78) rotate(-45)"/></clipPath><clipPath id="clip-path-2"><circle class="cls-1" cx="150.21" cy="150" r="150" transform="translate(-62.07 150.15) rotate(-45)"/></clipPath></defs><title>03</title><g id="Layer_2" data-name="Layer 2"><g class="cls-2"><polygon class="cls-3" points="150.65 -90.12 45.77 14.77 76.03 45.03 150.65 -29.59 225.27 45.03 255.53 14.77 150.65 -90.12"/></g></g><g id="Layer_3" data-name="Layer 3"><g class="cls-4"><circle class="cls-5" cx="150.21" cy="150" r="150" transform="translate(-62.07 150.15) rotate(-45)"/><polygon class="cls-6" points="150.65 142.03 -23.16 315.84 7.1 346.1 150.65 202.55 294.2 346.1 324.46 315.84 150.65 142.03"/><polygon class="cls-6" points="150.65 4.17 -92.09 246.91 -61.83 277.17 150.65 64.69 363.13 277.17 393.39 246.91 150.65 4.17"/><polygon class="cls-6" points="150.65 279.88 45.77 384.77 76.03 415.03 150.65 340.41 225.27 415.03 255.53 384.77 150.65 279.88"/><path class="cls-6" d="M231.64,159.35c-.06-1.55-.16-3.08-.29-4.6h0c-3.85-46.66-36.55-77.72-77-79.7q-2-.1-4.11-.1h0q-2.07,0-4.11.1c-40.48,2-73.18,33-77,79.7h0c-.13,1.52-.22,3-.29,4.6s-.1,3.12-.1,4.71a104.09,104.09,0,0,0,4.4,29.48q.7,2.38,1.51,4.73,1.61,4.69,3.6,9.22,1,2.26,2.07,4.47t2.23,4.37a126,126,0,0,0,11.83,18.14q2.19,2.79,4.49,5.4a113.16,113.16,0,0,0,8,8.16q.82.76,1.65,1.5c13.27,11.78,28.14,18.95,41.8,18.95h0c13.65,0,28.53-7.17,41.8-18.95q.83-.74,1.65-1.5a113.16,113.16,0,0,0,8-8.16q2.3-2.61,4.49-5.4a126,126,0,0,0,11.83-18.14q1.16-2.16,2.23-4.37t2.07-4.47q2-4.52,3.6-9.22.8-2.35,1.51-4.73a104.09,104.09,0,0,0,4.4-29.48Q231.75,161.68,231.64,159.35Z"/><path class="cls-5" d="M231.64,159.35c-.06-1.55-.16-3.08-.29-4.6h0c-3.85-46.66-36.55-77.72-77-79.7q-2-.1-4.11-.1h0c-1.38,0,.79,193,0,193.52h0c13.65,0,28.53-7.17,41.8-18.95q.83-.74,1.65-1.5a113.16,113.16,0,0,0,8-8.16q2.3-2.61,4.49-5.4a126,126,0,0,0,11.83-18.14q1.16-2.16,2.23-4.37t2.07-4.47q2-4.52,3.6-9.22.8-2.35,1.51-4.73a104.09,104.09,0,0,0,4.4-29.48Q231.75,161.68,231.64,159.35Z"/><path class="cls-5" d="M171.53,226.38s-9.55,9.29-21.32,9.29-21.32-9.29-21.32-9.29,9.55-9.29,21.32-9.29S171.53,226.38,171.53,226.38Z"/><path class="cls-7" d="M171.53,226.38s-9.55,9.29-21.32,9.29c-.21.33-.21-18.67,0-18.59C162,217.09,171.53,226.38,171.53,226.38Z"/><circle class="cls-7" cx="187.87" cy="157.76" r="9.84" transform="translate(4.66 320.92) rotate(-81.71)"/><path class="cls-8" d="M168.93,159.8A30.07,30.07,0,0,1,211,153.58"/><circle class="cls-7" cx="112.56" cy="158.07" r="9.84" transform="translate(-21.62 17.89) rotate(-8.29)"/><path class="cls-8" d="M131.5,160.1a30.07,30.07,0,0,0-42.06-6.22"/><path class="cls-5" d="M159.51,200.14c0-2.11-4.16-6-9.29-6s-9.29,3.9-9.29,6,4.16,1.64,9.29,1.64S159.51,202.25,159.51,200.14Z"/><path class="cls-7" d="M152.5,55.5C173.94,67.75,232,62.81,232,86c0,11-20.29,27.91,22.5,44.5,24.5,9.5,18,54-5,71s-34,33-26,43-32-11-8-51,10.91-40.05-.5-53.5-44.5-14.5-35.5-43.5-46-19-55-2S99.65,136.81,77,149c-13,7-10,32,7,53s20,26,5.5,47.5c-9.31,13.8,2-20-19-34s-60.94-65.91-30-85c23.5-14.5,31-48,32-61S103.5,27.5,152.5,55.5Z"/></g></g></svg>