<svg xmlns="http://www.w3.org/2000/svg" xmlns:xlink="http://www.w3.org/1999/xlink" viewBox="0 0 300 300"><defs><style>.cls-1,.cls-8{fill:none;}.cls-2{clip-path:url(#clip-path);}.cls-3{fill:#5bc094;}.cls-4{clip-path:url(#clip-path-2);}.cls-5{fill:#6f476b;}.cls-6{fill:#895e86;}.cls-7{fill:#421b41;}.cls-8{stroke:#421b41;stroke-linecap:round;stroke-miterlimit:10;stroke-width:3.28px;}</style><clipPath id="clip-path"><circle class="cls-1" cx="150.21" cy="-226" r="150" transform="translate(203.8 40.02) rotate(-45)"/></clipPath><clipPath id="clip-path-2"><circle class="cls-1" cx="150.21" cy="150" r="150" transform="translate(-62.07 150.15) rotate(-45)"/></clipPath></defs><title>04</title><g id="Layer_3" data-name="Layer 3"><g class="cls-2"><polygon class="cls-3" points="150.65 -96.12 45.77 8.77 76.03 39.03 150.65 -35.59 225.27 39.03 255.53 8.77 150.65 -96.12"/></g></g><g id="Layer_4" data-name="Layer 4"><g class="cls-4"><circle class="cls-5" cx="150.21" cy="150" r="150" transform="translate(-62.07 150.15) rotate(-45)"/><polygon class="cls-6" points="150.65 142.03 -23.16 315.84 7.1 346.1 150.65 202.55 294.2 346.1 324.46 315.84 150.65 142.03"/><polygon class="cls-6" points="150.65 4.17 -92.09 246.91 -61.83 277.17 150.65 64.69 363.13 277.17 393.39 246.91 150.65 4.17"/><polygon class="cls-6" points="150.65 279.88 45.77 384.77 76.03 415.03 150.65 340.41 225.27 415.03 255.53 384.77 150.65 279.88"/><path class="cls-6" d="M231.64,159.35c-.06-1.55-.16-3.08-.29-4.6h0c-3.85-46.66-36.55-77.72-77-79.7q-2-.1-4.11-.1h0q-2.07,0-4.11.1c-40.48,2-73.18,33-77,79.7h0c-.13,1.52-.22,3-.29,4.6s-.1,3.12-.1,4.71a104.09,104.09,0,0,0,4.4,29.48q.7,2.38,1.51,4.73,1.61,4.69,3.6,9.22,1,2.26,2.07,4.47t2.23,4.37a126,126,0,0,0,11.83,18.14q2.19,2.79,4.49,5.4a113.16,113.16,0,0,0,8,8.16q.82.76,1.65,1.5c13.27,11.78,28.14,18.95,41.8,18.95h0c13.65,0,28.53-7.17,41.8-18.95q.83-.74,1.65-1.5a113.16,113.16,0,0,0,8-8.16q2.3-2.61,4.49-5.4a126,126,0,0,0,11.83-18.14q1.16-2.16,2.23-4.37t2.07-4.47q2-4.52,3.6-9.22.8-2.35,1.51-4.73a104.09,104.09,0,0,0,4.4-29.48Q231.75,161.68,231.64,159.35Z"/><path class="cls-5" d="M231.64,159.35c-.06-1.55-.16-3.08-.29-4.6h0c-3.85-46.66-36.55-77.72-77-79.7q-2-.1-4.11-.1h0c-1.38,0,.79,193,0,193.52h0c13.65,0,28.53-7.17,41.8-18.95q.83-.74,1.65-1.5a113.16,113.16,0,0,0,8-8.16q2.3-2.61,4.49-5.4a126,126,0,0,0,11.83-18.14q1.16-2.16,2.23-4.37t2.07-4.47q2-4.52,3.6-9.22.8-2.35,1.51-4.73a104.09,104.09,0,0,0,4.4-29.48Q231.75,161.68,231.64,159.35Z"/><path class="cls-5" d="M171.53,226.38s-9.55,9.29-21.32,9.29-21.32-9.29-21.32-9.29,9.55-9.29,21.32-9.29S171.53,226.38,171.53,226.38Z"/><path class="cls-7" d="M171.53,226.38s-9.55,9.29-21.32,9.29c-.21.33-.21-18.67,0-18.59C162,217.09,171.53,226.38,171.53,226.38Z"/><circle class="cls-7" cx="187.87" cy="157.76" r="9.84" transform="translate(4.66 320.92) rotate(-81.71)"/><path class="cls-8" d="M168.93,159.8A30.07,30.07,0,0,1,211,153.58"/><circle class="cls-7" cx="112.56" cy="158.07" r="9.84" transform="translate(-21.62 17.89) rotate(-8.29)"/><path class="cls-8" d="M131.5,160.1a30.07,30.07,0,0,0-42.06-6.22"/><path class="cls-5" d="M159.51,200.14c0-2.11-4.16-6-9.29-6s-9.29,3.9-9.29,6,4.16,1.64,9.29,1.64S159.51,202.25,159.51,200.14Z"/></g><path class="cls-7" d="M61.88,110.15C55,95.92,36.6,83.28,43.46,74,70,38.3,59.6,38.3,88.41,24.47S132.2,33.69,146,23.32s36.88-15,47.25-2.3,11.52,26.5,25.35,27.66,26.5,13.83,30,23-1.15,26.5-11.52,42.64c-2.9,4.51-42.1-15.77-82.69-17.75C109,94.39,61.88,110.15,61.88,110.15Z"/><path class="cls-7" d="M231.3,130.49c-5.76-17.29-38-33.42-38-33.42l-42.36,5.57-42.36-5.57s-28.43,17.93-38,33.42c-2.86,4.61,2.36,6.91,7.51,6.91,8.07,0,25.35-21.9,38-18.44,6,1.63,21.3,5.76,28.21,2.3,3.47-1.73,5.21-4.74,6.36-8.07a14,14,0,0,0,6.91,8.07c6.91,3.46,19.59-4.61,25.35-6.91S191,120.12,201.34,127s16.13,6.91,20.74,4.61,8.07,13.83,2.3,17.29S237.06,147.78,231.3,130.49Z"/><path class="cls-5" d="M150.92,70.69c-39.33,0-73.36,15-89.94,37l9,25.15c18.34-16.53,47.77-27.25,81-27.25s62.63,10.72,81,27.25l9-25.15C224.29,85.73,190.25,70.69,150.92,70.69Z"/></g></svg>