<?xml version="1.0" encoding="iso-8859-1"?>
<!-- Generator: Adobe Illustrator 19.0.0, SVG Export Plug-In . SVG Version: 6.00 Build 0)  -->
<svg version="1.1" id="Layer_1" xmlns="http://www.w3.org/2000/svg" xmlns:xlink="http://www.w3.org/1999/xlink" x="0px" y="0px"
	 viewBox="0 0 512.001 512.001" style="enable-background:new 0 0 512.001 512.001;" xml:space="preserve">
<path style="fill:#5EA53D;" d="M297.064,274.199c0.975-0.494,1.738-0.83,2.594-1.219l2.498-1.078
	c1.667-0.696,3.338-1.359,5.029-1.981c3.383-1.243,6.814-2.366,10.359-3.275c3.538-0.915,7.178-1.64,10.991-1.957
	c1.907-0.154,3.848-0.22,5.858-0.069c1.993,0.131,4.052,0.44,6.113,1.133c2.045,0.676,4.096,1.706,5.821,3.21
	c1.762,1.601,2.832,3.178,3.833,4.968c1.946,3.566,2.591,7.561,2.369,11.219c-0.209,3.685-1.151,7.132-2.422,10.358
	c-1.286,3.221-2.901,6.259-4.823,9.051c1.288-3.127,2.201-6.378,2.751-9.633c0.54-3.25,0.683-6.535,0.194-9.588
	c-0.473-3.055-1.654-5.806-3.462-7.857c-0.868-1.002-2.026-2.004-2.928-2.469c-0.99-0.507-2.116-0.771-3.333-0.885
	c-1.209-0.125-2.543-0.04-3.91,0.177c-1.358,0.193-2.769,0.551-4.175,0.982c-2.819,0.866-5.653,2.085-8.434,3.489
	c-2.783,1.394-5.521,2.994-8.195,4.691c-1.337,0.848-2.656,1.733-3.953,2.637l-1.918,1.372c-0.604,0.449-1.296,0.957-1.756,1.345
	c-3.671,3.093-9.155,2.624-12.248-1.047c-3.093-3.671-2.624-9.155,1.047-12.248c0.513-0.433,1.062-0.794,1.634-1.089
	L297.064,274.199z"/>
<polyline style="fill:#E53578;" points="283.17,44.885 247.847,0 232.542,45.788 182.338,14.558 189.245,69.855 141.092,69.855 
	168.06,116.469 113.191,133.443 152.283,172.947 97.421,205.017 139.496,232.849 92.341,265.673 128.187,298.426 71.339,323.296 
	108.885,360.842 "/>
<polyline style="fill:#EDEAE4;" points="386.055,194.164 409.378,145.639 315.851,125.016 211.523,143.213 256.408,207.508 
	363.163,218.427 "/>
<polygon style="fill:#D6D4D2;" points="387.125,202.535 345.183,153.002 308.614,201.76 264.89,144.792 272.176,139.201 
	308.53,186.567 344.748,138.276 384.982,185.793 407.229,139.511 415.506,143.49 "/>
<path style="fill:#5EA53D;" d="M275.814,487.737v-62.766c0-26.189-21.432-48.12-47.616-47.618
	c-25.374,0.486-45.794,21.206-45.794,46.696c0,18.999-28.417,35.341-12.131,42.634c8.293,3.714,19.41,11.969,19.41,21.055h-21.836
	h55.803c0,13.399,10.862,24.263,24.263,24.263h27.902h53.377l0,0c0-13.399-10.862-24.263-24.263-24.263h-29.115V487.737z"/>
<path style="fill:#75CC54;" d="M409.378,145.639H271.325c-9.426,0-17.227,7.522-17.347,16.948
	c-0.109,8.771,3.408,16.717,9.134,22.443c5.641,5.641,13.429,9.135,22.042,9.135H386.05c9.256,0,16.983,7.339,17.142,16.584
	c0.303,18.258-14.412,33.155-32.597,33.155h-68.093l12.871,94.04c4.816,35.205-9.875,68.068-35.253,88.484
	c-16.475,13.272-37.448,21.278-60.51,21.278h-10.518l-65.775,18.973L12.568,451.344c32.269-15.297,59.455-38.346,79.641-66.43
	c20.199-28.096,33.373-61.214,37.631-96.673c1.698-14.12,3.7-28.193,6.017-42.216c8.577-51.909,21.387-103.127,38.346-153.119
	c9.984-29.394,37.57-49.168,68.614-49.168h39.208c11.961,0,22.952,6.648,28.508,17.262c5.471,10.457,16.595,16.704,28.387,16.704
	h15.176c30.497,0,57.041,16.935,70.736,41.913C431.262,131.325,422.735,145.639,409.378,145.639z"/>
<g>
	<path style="fill:#666666;" d="M257.617,111.281c-3.803,0-6.888-3.083-6.888-6.888V87.41c0-3.804,3.085-6.888,6.888-6.888
		c3.803,0,6.888,3.083,6.888,6.888v16.983C264.505,108.197,261.42,111.281,257.617,111.281z"/>
	<path style="fill:#666666;" d="M287.945,111.281c-3.803,0-6.888-3.083-6.888-6.888V87.41c0-3.804,3.085-6.888,6.888-6.888
		c3.803,0,6.888,3.083,6.888,6.888v16.983C294.832,108.197,291.749,111.281,287.945,111.281z"/>
</g>
<g>
	<path style="fill:#6ABA49;" d="M302.502,243.901c0,0-75.214,6.066-75.214-26.688c0,0-27.515,40.244,77.802,40.244"/>
	<path style="fill:#6ABA49;" d="M280.12,426.427c-16.475,13.272-37.448,21.278-60.51,21.278h-10.518l-65.775,18.973L12.568,451.344
		c32.269-15.297,59.455-38.346,79.641-66.43c20.199-28.096,33.373-61.214,37.631-96.673c1.698-14.12,3.7-28.193,6.017-42.216
		c8.577-51.909,21.387-103.127,38.346-153.119c9.984-29.394,37.57-49.168,68.614-49.168h18.439c0,0-48.525,40.032-63.082,144.361
		c-14.556,104.329,7.278,216.566,77.639,236.873C277.343,425.408,278.786,425.905,280.12,426.427z"/>
</g>
<path style="fill:#75CC54;" d="M209.092,487.737v-62.766c0-26.189-21.432-48.12-47.616-47.618
	c-25.374,0.486-45.794,21.206-45.794,46.696c0,18.999,11.347,35.341,27.632,42.634c8.293,3.714,13.614,11.969,13.614,21.055l0,0l0,0
	c0,13.399,10.862,24.263,24.263,24.263h27.902h53.377l0,0c0-13.399-10.862-24.263-24.263-24.263h-29.114V487.737z"/>
<path style="fill:#5EA53D;" d="M215.46,274.199c0.975-0.494,1.738-0.83,2.594-1.219l2.498-1.078c1.667-0.696,3.338-1.359,5.03-1.981
	c3.383-1.243,6.814-2.366,10.359-3.275c3.537-0.915,7.178-1.64,10.991-1.957c1.907-0.154,3.849-0.22,5.858-0.069
	c1.993,0.131,4.052,0.44,6.113,1.133c2.045,0.676,4.096,1.706,5.821,3.21c1.762,1.601,2.832,3.178,3.833,4.968
	c1.946,3.566,2.591,7.561,2.369,11.219c-0.209,3.685-1.151,7.132-2.422,10.358c-1.286,3.221-2.901,6.259-4.823,9.051
	c1.288-3.127,2.201-6.378,2.751-9.633c0.54-3.25,0.683-6.535,0.194-9.588c-0.473-3.055-1.654-5.806-3.462-7.857
	c-0.868-1.002-2.026-2.004-2.928-2.469c-0.991-0.507-2.116-0.771-3.333-0.885c-1.209-0.125-2.544-0.04-3.91,0.177
	c-1.358,0.193-2.769,0.551-4.175,0.982c-2.819,0.866-5.653,2.085-8.434,3.489c-2.784,1.394-5.521,2.994-8.195,4.691
	c-1.337,0.848-2.656,1.733-3.952,2.637l-1.918,1.372c-0.604,0.449-1.296,0.957-1.756,1.345c-3.671,3.093-9.155,2.624-12.248-1.047
	c-3.093-3.671-2.624-9.155,1.047-12.248c0.513-0.433,1.062-0.794,1.634-1.089L215.46,274.199z"/>
<path style="fill:#F9D780;" d="M491.869,190.255L491.869,190.255c10.086-10.086,10.086-26.44,0-36.527l0,0
	c-10.086-10.086-26.44-10.086-36.526,0l-18.263,18.263l18.263,18.263C465.428,200.341,481.783,200.341,491.869,190.255z"/>
<g>
</g>
<g>
</g>
<g>
</g>
<g>
</g>
<g>
</g>
<g>
</g>
<g>
</g>
<g>
</g>
<g>
</g>
<g>
</g>
<g>
</g>
<g>
</g>
<g>
</g>
<g>
</g>
<g>
</g>
</svg>
