<?xml version="1.0" encoding="iso-8859-1"?>
<!-- Generator: Adobe Illustrator 19.0.0, SVG Export Plug-In . SVG Version: 6.00 Build 0)  -->
<svg version="1.1" id="Layer_1" xmlns="http://www.w3.org/2000/svg" xmlns:xlink="http://www.w3.org/1999/xlink" x="0px" y="0px"
	 viewBox="0 0 512 512" style="enable-background:new 0 0 512 512;" xml:space="preserve">
<g>
	<path style="fill:#D35746;" d="M448.485,314.87c-0.312,0-0.625-0.017-0.942-0.052c-4.632-0.515-7.968-4.687-7.454-9.317
		c0.677-6.3,0.117-17.383-3.241-21.123c-0.548-0.61-1.109-0.963-2.354-0.963c-1.81,0-6.076,0.502-14.312,3.861
		c-4.317,1.761-9.24-0.312-10.999-4.626c-1.759-4.314,0.311-9.238,4.626-10.999c8.431-3.439,15.196-5.111,20.685-5.111
		c5.91,0,11.073,2.279,14.932,6.59c9.515,10.63,7.861,30.383,7.433,34.235C456.381,311.678,452.727,314.87,448.485,314.87z"/>
	<path style="fill:#D35746;" d="M429.408,109.589l-0.291,0.711c-11.883-4.812-24.687-8.796-38.154-11.79v-0.011
		c0.152-37.315-31.444-67.547-31.444-67.547C408.439,30.95,429.408,109.589,429.408,109.589z"/>
</g>
<path style="fill:#6CBC4A;" d="M250.347,37.977c19.327,25.642,30.756,50.386,36.814,73.418
	c-13.537,20.702-12.558,53.392-12.885,82.506c-5.919-19.689-20.213-53.869-52.751-82.028
	C254.856,92.499,250.347,37.977,250.347,37.977z"/>
<path style="fill:#75CC54;" d="M274.247,193.973c-0.036,3.127-0.084,6.221-0.177,9.247c-0.163,5.827-0.46,11.43-1.016,16.671
	c-1.589,14.781-5.3,26.669-14.294,32.545c-27.807-41.335-75.836-51.064-75.836-51.064c0.026-28.744-16.206-45.071-27.076-52.786
	c-5.487-3.886-9.603-5.589-9.603-5.589c0.564-1.687,1.016-3.374,1.366-5.061c7.784-36.961-33.721-70.613-33.721-70.613
	c48.853,5.781,83.376,23.508,107.679,44.567C254.078,140.079,268.346,174.28,274.247,193.973z"/>
<path style="fill:#D35746;" d="M237.167,408.186l-49.081,44.585l-15.727-15.727l27.75-63.807
	C211.571,386.366,223.687,398.517,237.167,408.186z"/>
<path style="fill:#F26D53;" d="M512,198.942c0,40.241-42.941,51.21-100.687,33.581l-0.011-0.011h-0.011
	c2.374,8.055,4.702,16.897,6.705,26.246c12.06,56.227,12.622,130.511-55.957,159.198c-9.36,3.915-18.236,6.907-26.696,9.067
	l12.375,30.364c-4.905,3.51-10.53,5.175-16.087,5.175c-9.394,0-18.607-4.747-23.839-13.477l-10.62-17.719h-0.011
	c-23.715-1.001-43.571-9.439-61.121-22.061c-13.477-9.664-25.594-21.814-37.057-34.942c-3.262-3.746-6.469-7.549-9.641-11.419
	c-50.546-61.537-91.766-134.741-189.337-82.136c0.709-1.429,50.816-101.441,123.288-81.866
	c54.697,14.782,76.173,49.489,102.577,57.679c0.011,0,0.011,0,0.011,0c8.842,2.745,18.236,2.52,29.621-2.43
	c1.181-0.518,2.306-1.114,3.341-1.811c2.914-1.901,5.265-4.432,7.166-7.492c7.177-11.486,8.044-30.33,8.269-50.985
	c0.326-29.115-0.652-61.807,12.881-82.507c6.907-10.586,17.629-18.034,34.245-20.272c-6.727-29.497-29.587-51.379-29.587-51.379
	c29.52,0,48.859,28.642,59.546,51.345c13.657,0.945,26.932,2.902,39.6,5.737c13.466,2.992,26.269,6.975,38.16,11.79
	c5.119,2.059,10.069,4.286,14.839,6.649l0.011,0.011C485.056,135.617,512,166.329,512,198.942z"/>
<g>
	<path style="fill:#D35746;" d="M443.972,115.275c0,0-139.601-27.828-139.601,38.577c0,85.5-58.124,127.471-59.452,128.321
		l21.087-37.291c7.176-11.475,8.05-30.325,8.272-50.98c0.326-29.114-0.653-61.804,12.885-82.506
		c6.909-10.59,17.626-18.035,34.239-20.271c-6.722-29.497-29.591-51.376-29.591-51.376c29.521,0,48.861,28.636,59.555,51.341
		c13.654,0.944,26.923,2.901,39.599,5.732c13.467,2.994,26.271,6.978,38.154,11.79c5.127,2.062,10.078,4.287,14.842,6.652
		L443.972,115.275z"/>
	<path style="fill:#D35746;" d="M189.337,362.943C138.799,301.408,97.569,228.199,0,280.811
		c0.711-1.433,50.817-101.449,123.293-81.865c54.697,14.784,76.168,49.49,102.578,57.68
		C224.543,256.73,144.472,263.219,189.337,362.943z"/>
	<path style="fill:#D35746;" d="M347.719,457.39l-12.373-30.371l-6.85-16.811c0,0,15.727-43.688-8.738-68.153
		c-18.823-18.83-44.893-10.623-65.389,1.401c-16.902,9.915-17.056,34.326-0.384,44.623l2.522,1.558
		c16.307,10.072,29.962,23.907,39.82,40.345l0.829,1.383h0.011l10.624,17.72c5.231,8.725,14.446,13.479,23.836,13.479
		C337.187,462.563,342.814,460.897,347.719,457.39"/>
	<path style="fill:#D35746;" d="M357.441,481.049c-1.845,0-3.651-0.906-4.727-2.568l-14.44-22.306
		c-0.954-1.474-1.165-3.309-0.571-4.96c0.594-1.651,1.925-2.932,3.599-3.46l24.934-7.875c2.639-0.831,5.488,0.375,6.725,2.849
		l6.565,13.131c1.389,2.779,0.263,6.157-2.515,7.546c-2.779,1.388-6.158,0.263-7.546-2.515l-4.418-8.836l-13.317,4.205
		l10.429,16.109c1.688,2.608,0.943,6.091-1.665,7.779C359.549,480.756,358.489,481.049,357.441,481.049z"/>
	<path style="fill:#D35746;" d="M417.995,258.758c-60.75-15.457-85.556-63.753-85.556-63.753
		c27.517,17.561,54.495,30.082,78.851,37.507C413.664,240.567,415.993,249.41,417.995,258.758z"/>
</g>
<g>
	<path style="fill:#666666;" d="M400.137,153.718c-2.828,0-5.264-2.127-5.583-5.004l-1.747-15.726
		c-0.343-3.088,1.881-5.869,4.969-6.211c3.088-0.348,5.869,1.881,6.211,4.969l1.747,15.726c0.343,3.088-1.881,5.869-4.969,6.211
		C400.555,153.706,400.345,153.718,400.137,153.718z"/>
	<path style="fill:#666666;" d="M430.096,153.718c-2.828,0-5.264-2.127-5.583-5.004l-1.747-15.726
		c-0.343-3.088,1.881-5.869,4.969-6.211c3.088-0.348,5.869,1.881,6.211,4.969l1.747,15.726c0.343,3.088-1.881,5.869-4.969,6.211
		C430.513,153.706,430.304,153.718,430.096,153.718z"/>
</g>
<path style="fill:#6CBC4A;" d="M274.07,203.221c-0.163,5.827-0.46,11.43-1.016,16.671l-3.516-6.045
	c-39.779-52.437-92.452-63.104-113.691-65.261c-5.487-3.886-9.603-5.589-9.603-5.589c0.564-1.687,1.016-3.374,1.366-5.061
	c5.04,0.049,22.128,0.829,44.127,8.027C214.444,153.387,246.717,169.311,274.07,203.221z"/>
<path style="fill:#D35746;" d="M380.934,299.819c-0.312,0-0.625-0.017-0.942-0.052c-4.632-0.515-7.968-4.687-7.454-9.317
	c0.677-6.299,0.117-17.382-3.241-21.121c-0.548-0.61-1.109-0.963-2.352-0.963c-10.87,0-36.124,14.136-49.49,23.047
	c-3.875,2.585-9.116,1.538-11.7-2.34c-2.585-3.877-1.538-9.116,2.34-11.7c3.974-2.649,39.384-25.881,58.851-25.881
	c5.91,0,11.073,2.278,14.932,6.59c9.514,10.63,7.861,30.38,7.433,34.232C388.83,296.627,385.176,299.819,380.934,299.819z"/>
<g>
	<path style="fill:#666666;" d="M457.808,202.644c-3.134,0-5.724-2.676-5.619-5.807c0.104-3.097,2.799-5.593,5.899-5.431
		c2.956,0.154,5.343,2.645,5.344,5.614C463.435,200.087,460.872,202.644,457.808,202.644z"/>
	<path style="fill:#666666;" d="M498.004,197.401c-3.144,0-5.716-2.673-5.619-5.806c0.097-3.122,2.855-5.647,5.982-5.428
		c3.035,0.213,5.437,2.897,5.251,5.952C503.441,195.041,500.931,197.401,498.004,197.401z"/>
</g>
<g>
	<path style="fill:#D35746;" d="M174.247,464.538c-0.135,0-0.269-0.006-0.404-0.016l-19.416-1.552
		c-2.788-0.223-4.866-2.663-4.643-5.449c0.223-2.788,2.664-4.869,5.449-4.643l17.086,1.366l11.763-11.763
		c1.978-1.977,5.182-1.977,7.159,0c1.977,1.977,1.977,5.183,0,7.159l-13.416,13.416
		C176.873,464.009,175.584,464.538,174.247,464.538z"/>
	<path style="fill:#D35746;" d="M157.383,442.975c-1.635,0-3.189-0.793-4.147-2.159l-12.232-17.475
		c-1.603-2.29-1.046-5.447,1.244-7.05c2.29-1.603,5.447-1.046,7.05,1.244l10.422,14.887l19.214-3.006
		c2.765-0.433,5.352,1.457,5.785,4.219c0.432,2.763-1.457,5.352-4.219,5.785l-22.333,3.494
		C157.904,442.955,157.643,442.975,157.383,442.975z"/>
</g>
<g>
</g>
<g>
</g>
<g>
</g>
<g>
</g>
<g>
</g>
<g>
</g>
<g>
</g>
<g>
</g>
<g>
</g>
<g>
</g>
<g>
</g>
<g>
</g>
<g>
</g>
<g>
</g>
<g>
</g>
</svg>
