<?xml version="1.0" encoding="iso-8859-1"?>
<!-- Generator: Adobe Illustrator 19.0.0, SVG Export Plug-In . SVG Version: 6.00 Build 0)  -->
<svg version="1.1" id="Layer_1" xmlns="http://www.w3.org/2000/svg" xmlns:xlink="http://www.w3.org/1999/xlink" x="0px" y="0px"
	 viewBox="0 0 512 512" style="enable-background:new 0 0 512 512;" xml:space="preserve">
<path style="fill:#3EADAD;" d="M446.557,349.088c-3.108,6.004-6.462,11.845-10.063,17.521
	c11.787,43.931,52.996,65.651,52.996,65.651c32.156-63.07-17.861-159.457-18.564-160.819
	C467.292,299.152,458.883,325.316,446.557,349.088z"/>
<path style="fill:#52CBCE;" d="M470.927,271.44c-1.471,11.218-3.738,22.177-6.718,32.832c11.138,31.007,22.82,78.365,9.313,116.949
	c9.011,7.364,15.969,11.037,15.969,11.037C521.648,369.189,471.63,272.801,470.927,271.44z"/>
<path style="fill:#EDEAE4;" d="M446.545,384.665h0.012c-3.099,6.003-6.462,11.845-10.055,17.515
	c-9.022,14.255-19.524,27.478-31.3,39.438c-0.012,0-0.012,0.011-0.023,0.011c-0.666,0.677-1.331,1.354-2.02,2.032
	C360.53,485.945,301.752,512,236.662,512c-82.365,0-133.062-36.683-159.243-96.551h0.011c28.66,9.527,52.499,12.235,73.022,10.33
	c3.558-0.321,7.024-0.792,10.387-1.389c27.765-4.901,49.217-18.456,68.614-34.146c1.343,11.799,3.914,23.748,8.23,35.248
	c0,0,57.113-35.535,65.263-92.477h0.011c13.498-6.703,28.408-10.904,45.796-10.904C450.895,322.111,446.545,384.665,446.545,384.665
	z"/>
<path style="fill:#D3D1CD;" d="M405.179,441.63c-0.666,0.677-1.331,1.354-2.02,2.032C360.53,485.945,301.752,512,236.662,512
	c-82.365,0-133.062-36.683-159.243-96.551h0.011c28.66,9.527,52.499,12.235,73.022,10.33
	C187.078,460.373,262.544,496,405.179,441.63z"/>
<path style="fill:#52CBCE;" d="M472.966,275.695c0,10.617-0.689,21.085-2.032,31.323c-3.638,27.707-12.052,53.877-24.379,77.647
	h-0.012c0,0,1.55-22.278-18.904-40.241c-13.819-12.143-37.693-22.313-78.887-22.313c-17.389,0-32.299,4.201-45.796,10.904h-0.011
	c-8.149,56.941-65.263,92.477-65.263,92.477c-4.316-11.501-6.887-23.449-8.23-35.248c-5.131,4.155-10.41,8.161-15.908,11.891
	c-17.802,12.075-37.934,21.326-63.093,23.644c-20.511,1.905-44.362-0.803-73.022-10.33h-0.011c-1.997-4.58-3.857-9.286-5.578-14.129
	c-0.643-1.813-1.274-3.65-1.882-5.509c-10.135-30.967-14.795-66.938-14.795-106.422C-13.68,259.5,19.95,185.113,19.95,185.113
	c49.825,22.416,64.758,74.72,64.758,74.72c0-49.814,59.788-87.174,59.788-87.174c24.907,74.72-34.87,116.729-34.87,116.729
	s46.99,104.356,96.425-3.501c0-0.011,0-0.011,0-0.011c2.732-5.945,5.463-12.522,8.195-19.811
	c3.937-10.502,7.197-23.082,9.882-36.878c2.032-10.376,3.742-21.452,5.176-32.826c8.953-70.784,74.755-107.845,133.9-96.93h0.011
	c5.785,1.056,11.501,2.583,17.09,4.58l40.115,25.618l0.333,0.092c5.877,5.934,11.294,12.706,16.103,20.362
	C459.744,186.478,472.966,229.532,472.966,275.695z"/>
<path style="fill:#3EADAD;" d="M206.05,285.888c-0.138,1.504-11.857,129.779-134.21,115.432
	c-11.443-32.184-16.677-70.083-16.677-111.931C-13.68,259.5,19.95,185.113,19.95,185.113c49.825,22.416,64.758,74.72,64.758,74.72
	c0-49.814,59.788-87.174,59.788-87.174c24.907,74.72-34.87,116.729-34.87,116.729s9.274,20.58,23.908,34.02
	c9.802,9.01,22.026,14.806,35.489,9.033c0,0,0,0,0-0.012C180.696,327.437,193.287,313.733,206.05,285.888z"/>
<g>
	<path style="fill:#666666;" d="M427.216,203.684c-7.917,0-11.56-10.237-5.458-15.26c2.686-2.211,6.533-2.539,9.583-0.894
		c3.339,1.802,5.106,5.738,4.275,9.436C434.744,200.846,431.192,203.684,427.216,203.684z"/>
	<path style="fill:#666666;" d="M326.625,203.684c-3.52,0-6.748-2.235-8.02-5.51c-1.378-3.552-0.177-7.723,2.883-9.996
		c6.175-4.587,15.092,0.981,13.583,8.585C334.284,200.738,330.667,203.684,326.625,203.684z"/>
</g>
<path style="fill:#3EADAD;" d="M433.598,225.293c-0.964,3.366-2.364,6.37-4.164,8.93c-1.808,2.553-3.966,4.676-6.347,6.284
	c-4.768,3.24-10.23,4.432-15.215,3.758c-5-0.654-9.366-3.066-12.425-6.548c-1.53-1.747-2.704-3.726-3.495-5.832
	c-1.466-3.901-5.055-6.593-9.222-6.593h-1.172c-4.168,0-7.758,2.689-9.228,6.589c-0.793,2.103-1.966,4.078-3.497,5.824
	c-3.058,3.479-7.419,5.88-12.412,6.535c-4.978,0.673-10.433-0.516-15.199-3.749c-2.382-1.605-4.541-3.725-6.351-6.274
	c-1.802-2.557-3.206-5.559-4.176-8.925c-1.936,6.75-0.259,14.889,4.543,21.182c2.399,3.14,5.525,5.854,9.171,7.811
	c3.633,1.973,7.775,3.172,12.012,3.511c4.238,0.324,8.632-0.25,12.758-1.711c4.125-1.459,7.977-3.791,11.212-6.822
	c0.614-0.574,1.198-1.18,1.768-1.802c0.566,0.617,1.147,1.219,1.758,1.789c3.232,3.032,7.088,5.353,11.207,6.816
	c4.124,1.454,8.514,2.033,12.75,1.707c4.232-0.344,8.374-1.53,12.002-3.509c3.643-1.952,6.767-4.665,9.165-7.803
	C433.841,240.173,435.521,232.043,433.598,225.293z"/>
<path style="fill:#328E8B;" d="M169.023,332.441c0,0-34.697,18.1-74.87-7.116c0.7,0.161,19.845,4.66,39.38-1.917
	C143.336,332.419,155.56,338.215,169.023,332.441z"/>
<path style="fill:#F9D780;" d="M461.82,0.007l-14.829,49.648l-3.921,13.157l-11.956,40.056l-3.43,11.489l-6.463,21.623l-1.957,6.57
	c-0.697,2.315-1.662,4.484-2.883,6.476c-1.768,2.906-4.049,5.427-6.67,7.463c-5.337,4.133-12.114,6.252-19.085,5.528
	c-1.059-0.111-2.108-0.285-3.162-0.525c-0.251-0.056-0.491-0.117-0.747-0.184c-19.019-4.684-26.905-27.484-15.015-43.078
	l8.271-10.842l7.423-9.749l20.434-26.81l8.946-11.723l15.448-20.273l7.914-10.385L461.82,0.007z"/>
<path style="fill:#F9E9C7;" d="M461.822,0l-40.598,135.974l-1.957,6.57c-3.759,12.588-15.889,20.786-28.638,19.465L461.822,0z"/>
<g>
	<path style="fill:#E0BE70;" d="M431.115,102.869l-3.43,11.489c-13.028-14.232-18.004-31.349-19.857-43.53l8.946-11.723
		C417.031,66.924,418.961,86.455,431.115,102.869z"/>
	<path style="fill:#E0BE70;" d="M440.137,28.445c1.137,6.263,3.179,13.748,6.855,21.21l-3.921,13.157
		c-5.376-7.992-8.751-16.386-10.849-23.982L440.137,28.445z"/>
	<path style="fill:#E0BE70;" d="M416.381,149.025c-1.768,2.906-4.049,5.427-6.67,7.463c-16.231-16.787-25.077-35.649-29.739-49.101
		l7.423-9.749C390.898,109.69,399.041,130.827,416.381,149.025z"/>
</g>
<g>
	<path style="fill:#3EADAD;" d="M229.454,390.244c-5.131,4.155-10.41,8.161-15.908,11.891v-0.011
		c-4.58-36.109,25.814-74.652,25.814-74.652C223.864,359.609,229.454,390.244,229.454,390.244z"/>
	<path style="fill:#3EADAD;" d="M150.452,425.779c-20.511,1.905-44.362-0.803-73.022-10.33h-0.011
		c-1.997-4.58-3.857-9.286-5.578-14.129c-0.643-1.813-1.274-3.65-1.882-5.509c21.957-4.798,41.228-9.905,50.399-11.524
		C120.357,384.287,128.3,404.843,150.452,425.779z"/>
</g>
<g>
</g>
<g>
</g>
<g>
</g>
<g>
</g>
<g>
</g>
<g>
</g>
<g>
</g>
<g>
</g>
<g>
</g>
<g>
</g>
<g>
</g>
<g>
</g>
<g>
</g>
<g>
</g>
<g>
</g>
</svg>
